<svg xmlns="http://www.w3.org/2000/svg" width="152" height="39" viewBox="0 0 152 39" fill="none">
  <path d="M121.354 23.4491C120.561 22.8924 117.888 20.7685 118.798 17.9659C119.862 14.688 122.264 13.901 123.939 14.5785C125.614 15.256 126.636 16.9034 125.339 20.6996C125.339 20.6996 125.213 21.0948 125.927 21.2506C126.64 21.4053 129.118 21.5657 129.701 22.181C130.284 22.7953 130.9 23.6557 129.901 28.2321C128.903 32.8085 129.281 34.2663 130.135 34.6513C130.984 35.0307 132.155 35.9837 134.917 32.5838C134.926 32.5725 134.931 32.5669 134.935 32.5556C134.996 32.4529 135.285 31.9007 135.575 30.0929C135.901 28.0605 136.12 21.7384 141.626 18.9652C141.626 18.9652 143.837 17.7198 145.787 20.3202C147.737 22.9218 144.238 28.0311 142.041 30.4712C140.576 32.0904 140.035 32.6934 139.834 32.9169C139.764 32.9982 139.741 33.1236 139.778 33.2275C140.072 34.0596 141.523 37.3161 145.89 35.427C145.894 35.427 145.899 35.4202 145.904 35.4202C146.062 35.3344 148.596 33.9512 149.599 32.0328C150.541 30.2251 151.474 31.6083 151.628 31.8612C151.647 31.8894 151.661 31.9244 151.666 31.9583C151.703 32.148 151.754 32.7679 151.073 33.6012C150.247 34.605 147.966 38.2566 142.927 38.4238C142.923 38.4238 142.913 38.4238 142.909 38.4238C142.68 38.4068 138.453 38.05 136.722 34.7371C136.722 34.7371 136.774 34.4334 134.954 35.943C133.13 37.4538 132.23 38.4576 128.423 37.3782C124.616 36.2987 126.468 28.336 126.972 27.0149C127.475 25.7006 127.242 24.6211 126.123 24.4597C125.003 24.2937 124.121 24.0983 123.295 25.2523C122.469 26.4063 117.571 35.226 117.268 35.5704C116.969 35.9148 111.958 41.495 108.935 34.7032C108.921 34.6682 108.912 34.6287 108.907 34.5881C108.889 34.1748 108.73 31.7517 107.759 32.8887C106.7 34.1285 103.043 38.7456 101.102 38.0737C99.1611 37.4019 100.925 38.0681 100.925 38.0681C100.925 38.0681 99.4084 38.0444 98.2141 36.2016C98.2001 36.179 98.1861 36.1497 98.1814 36.1271C98.1161 35.9205 97.7382 35.007 96.3059 36.6375C94.7057 38.4576 90.3855 38.9635 88.5613 35.2825C88.5613 35.2825 87.3763 33.302 88.9112 27.6754C88.9159 27.6642 88.9206 27.6461 88.9252 27.6348C89.0232 27.4112 89.9376 25.1778 88.5193 24.5974C87.0264 23.9888 85.9767 24.1841 85.2722 25.5278C84.5724 26.8546 80.2523 35.0815 78.624 35.5128C78.596 35.5185 78.5727 35.5298 78.5494 35.5467C78.3161 35.7195 76.8792 36.7007 74.8684 36.2298C74.5045 36.144 73.5294 35.3401 71.9852 37.184C70.4456 39.0324 66.7506 39.073 65.6962 38.5559C64.6558 38.0444 62.9949 37.3274 62.0152 35.208C61.9965 35.1684 61.9872 35.1165 61.9872 35.0702C61.9919 34.7665 61.8706 33.6757 59.7478 35.7082C57.3311 38.0218 53.0856 39.0956 51.56 38.1133C51.5507 38.1076 51.5414 38.102 51.532 38.0963C51.3034 37.9992 48.5835 36.8565 48.3829 36.4195C48.1776 35.96 47.4405 36.2242 46.848 36.6499C46.2555 37.0744 43.9927 39.3937 39.8312 37.132C39.8172 37.1264 39.8032 37.1151 39.7892 37.1027C39.5699 36.9073 37.5312 35.0702 36.9386 34.0946C36.9386 34.0946 37.1159 33.9162 35.3337 35.1278C33.2296 36.5629 29.8472 40.4043 24.0715 36.9017C24.0621 36.896 24.0481 36.8847 24.0388 36.8791C23.8848 36.7357 22.5412 35.5704 21.3702 36.6612C20.1245 37.8152 14.3488 39.7844 8.82026 37.2404C3.29175 34.6976 -0.60386 28.0944 0.0772893 19.9126C0.758438 11.7365 3.56235 5.22017 9.48741 1.79209C9.48741 1.79209 14.7173 -1.19336 18.7109 1.55046C18.7156 1.55046 18.7202 1.5561 18.7249 1.5561C18.8742 1.64305 21.7574 3.32547 21.8274 6.99406C21.8274 6.9997 21.8274 7.00535 21.8274 7.01664C21.8181 7.21763 21.6641 9.9908 19.476 9.86998C18.7016 9.82482 18.445 9.81353 18.445 9.80675C18.6409 9.7503 18.7249 9.47478 18.571 9.31896C18.1651 8.91134 17.8058 8.22257 18.0438 7.13182C18.5056 4.99548 17.4326 4.03684 16.9241 3.78955C16.4155 3.5434 13.2664 1.44771 8.33505 6.39674C8.33505 6.39674 2.07408 12.8046 3.79095 25.5278C5.49849 38.1595 18.7202 35.8911 19.784 34.7721C19.8026 34.7552 19.8213 34.7371 19.8446 34.7258C20.0592 34.6231 21.1136 34.1059 21.3795 33.5255C21.6734 32.8774 21.4542 32.5782 21.4075 32.4404C21.3609 32.3027 19.8493 25.6712 25.5177 19.9928C25.5177 19.9928 28.2797 17.4206 30.673 19.5513C30.687 19.5626 30.701 19.5795 30.715 19.5964C30.9156 19.8956 32.5578 22.548 30.1458 26.9573C30.1412 26.9686 30.1365 26.9754 30.1318 26.981C29.9965 27.1752 28.2843 29.6277 27.6965 30.2996C27.0806 31.0053 25.4431 32.8255 25.4104 33.1529C25.3778 33.4804 25.3871 34.2956 26.0449 34.6919C26.0636 34.7032 26.0776 34.7145 26.0916 34.7258C26.3435 34.9844 29.0028 37.5159 32.9591 34.3476C32.9591 34.3476 34.9978 32.8718 35.4177 31.3734C35.7583 30.1618 35.6697 29.9428 35.6417 29.6447C35.6137 29.3466 34.6433 12.8329 38.6042 6.29964C38.6089 6.29286 38.6089 6.28721 38.6135 6.28156C38.7488 6.08622 41.5854 2.0789 43.5029 5.25405C45.4297 8.44614 42.8684 18.3103 42.7704 18.6841C42.7704 18.6897 42.7657 18.6954 42.7657 18.7067L39.178 29.2427C39.178 29.2427 38.9214 30.041 39.1687 30.9771C39.416 31.9131 40.9649 36.196 43.8388 35.2825C43.8528 35.2768 43.8714 35.2769 43.8854 35.2769C44.0954 35.2712 45.6583 35.1741 46.4327 33.7039C46.4654 33.6407 46.4794 33.5662 46.4654 33.4917C46.2648 32.4461 44.8978 24.1153 51.6627 19.2182C51.6767 19.2069 51.6953 19.2001 51.714 19.1888C52.0406 19.068 55.2364 17.949 56.2068 20.2287C57.2285 22.6338 55.7822 27.1752 53.4355 29.4324C53.4309 29.438 53.4262 29.4437 53.4215 29.4437L50.3517 32.9407C50.277 33.0265 50.2584 33.1586 50.305 33.2737C50.6829 34.1522 52.5491 37.6424 57.4198 34.8692C57.4291 34.8636 57.4384 34.8579 57.4478 34.8523C57.6344 34.7032 59.7338 32.9982 60.1397 31.8725C60.5643 30.6891 60.6669 30.2646 60.6622 29.0417C60.6576 27.8245 60.1397 9.16992 66.1441 3.89343C66.1487 3.88778 66.1534 3.88778 66.1581 3.88214C66.3214 3.76132 69.1066 1.71193 70.5762 3.87085C72.0925 6.09188 71.2294 10.8986 71.2294 10.8986C71.2294 10.8986 69.7598 20.1079 64.5858 29.6334C64.5812 29.639 64.5765 29.6503 64.5765 29.656C64.5392 29.7486 64.3152 30.3109 64.3806 30.9827C64.4505 31.7121 64.3806 34.7428 67.9496 35.9893C67.9496 35.9893 70.133 36.7188 71.5746 34.1409C71.6259 34.0483 71.6259 33.9275 71.5793 33.8304C70.9308 32.6188 66.6806 24.5579 71.7286 19.9069C71.7519 19.8844 72.0411 19.6427 72.0691 19.6371C72.5124 19.505 75.8295 18.6841 76.6692 24.104C76.6692 24.1153 76.6739 24.1266 76.6739 24.139C76.6926 24.4484 76.9025 28.9898 75.2276 32.4811C75.223 32.4924 75.2183 32.5037 75.2136 32.515C75.1436 32.7227 74.5465 34.6739 76.9025 33.9512C79.1606 33.2624 82.8975 25.3438 83.574 23.8804C83.6347 23.7539 83.602 23.5925 83.4994 23.5123C82.6409 22.8348 79.0906 19.7173 81.6939 16.1571C84.6424 12.1272 87.6656 15.6173 87.7776 16.043C87.8895 16.4563 88.3654 18.4481 87.5256 20.7448C87.4836 20.8599 87.5116 20.9977 87.5956 21.0779C87.7822 21.2563 88.1788 21.5148 88.8413 21.4516C89.8257 21.359 93.3714 21.6695 92.7882 24.4371C92.2283 27.1064 91.4819 32.0961 91.4259 32.4585C91.4259 32.4754 91.4212 32.4867 91.4212 32.5037C91.4166 32.7972 91.4586 35.7771 94.2111 34.9438C97.0197 34.0946 97.5562 30.7185 97.5889 30.5119C97.5889 30.5062 97.5889 30.5006 97.5889 30.4949C97.6169 30.1844 98.606 20.3609 105.492 18.6954C105.501 18.6954 105.511 18.6897 105.52 18.6897C105.693 18.6728 107.349 18.5633 108.38 19.689C108.385 19.6947 108.389 19.7003 108.394 19.7003C108.445 19.7466 108.795 20.0616 108.916 20.3428C109.047 20.6477 109.378 21.2845 110.269 20.5562C111.161 19.8268 112.14 19.0059 112.719 19.7861C113.297 20.5675 113.372 21.5544 112.495 22.9963C111.622 24.4314 110.06 30.408 112.49 34.9731C112.514 35.0194 112.546 35.0533 112.588 35.0759C112.971 35.2768 115.038 36.1903 116.432 33.2218C117.795 30.3278 120.757 25.0863 121.438 23.8804C121.504 23.7076 121.471 23.5304 121.354 23.4491ZM142.983 24.1672C144.224 21.2789 142.456 21.3884 142.456 21.3884C139.05 23.5236 139.382 28.8407 139.382 28.8407C139.643 30.0466 141.742 27.0556 142.983 24.1672ZM123.281 18.7473C123.426 17.0592 122.339 17.1857 122.339 17.1857C121.849 17.2252 121.588 17.7074 121.401 18.7473C121.21 19.7861 122.017 20.2107 122.339 20.3089C122.661 20.406 123.137 20.4297 123.281 18.7473ZM107.624 27.4688C107.983 24.5974 107.983 21.5261 106.388 21.1987C106.388 21.1987 100.785 22.3007 100.645 31.0742C100.505 39.842 104.998 32.7159 104.998 32.7159C104.998 32.7159 107.265 30.3391 107.624 27.4688ZM85.1696 20.1655C85.5055 20.0503 85.3702 18.5576 85.3002 17.7887C85.2302 17.0186 84.4931 17.1857 84.4931 17.1857C83.4667 17.3686 83.4807 18.7473 83.4807 18.7473C83.6393 20.7854 84.8337 20.2739 85.1696 20.1655ZM74.0286 28.2265C74.0286 28.2265 74.8217 21.4573 73.0769 22.2612C71.332 23.0652 72.1624 27.7217 72.1624 27.7217C72.1624 27.7217 71.8452 26.2053 72.489 29.7248C73.1329 33.2557 74.0286 28.2265 74.0286 28.2265ZM67.5344 15.8014C67.5344 15.8014 70.3429 6.50627 68.4628 5.83443C66.5826 5.16259 65.1037 11.645 65.1037 11.645C63.6248 17.2828 63.7694 23.2481 63.9 24.8729C64.026 26.4978 67.5344 15.8014 67.5344 15.8014ZM52.3065 26.8433C52.3065 26.8433 54.5739 22.6 53.5475 21.6007C52.5211 20.6014 51.0655 23.7246 51.0655 23.7246C51.0655 23.7246 49.8571 26.5847 49.8945 28.502C49.9365 30.4261 52.3065 26.8433 52.3065 26.8433ZM39.9991 20.24C39.9991 20.24 42.8264 7.88382 41.5621 7.63654C40.2977 7.39039 39.8732 9.97951 39.8732 9.97951C39.0427 11.7771 38.2496 21.8129 38.7628 23.1453C39.276 24.4709 39.9991 20.24 39.9991 20.24ZM26.6561 27.6235C26.6561 27.6235 29.5113 23.4265 28.7135 21.8355C27.9158 20.2513 26.3668 23.151 26.3668 23.151C25.5084 24.4314 24.9439 27.2622 24.9439 27.2622C24.2394 31.2176 26.6561 27.6235 26.6561 27.6235Z" fill="#5C5C5C"/>
</svg>