<svg width="41" height="66" viewBox="0 0 41 66" fill="none" xmlns="http://www.w3.org/2000/svg">
<g clip-path="url(#clip0_1_94)">
<path d="M30.1578 6.1311C30.1578 6.1311 25.475 13.4039 27.0214 20.7659C28.568 28.1279 33.1915 29.0332 29.1042 36.9892C29.1042 36.9892 29.7378 33.22 26.447 29.6215C23.1561 26.0231 21.1098 13.9125 30.1578 6.1311Z" fill="#4E9459"/>
<path d="M23.0354 14.9475C23.0354 14.9475 20.5774 23.2967 24.0381 28.363C27.4988 33.4293 28.5033 34.6431 28.3738 36.1073C26.2582 33.2044 23.5243 30.9239 20.4159 29.4691C20.4159 29.4691 18.8311 25.4012 20.4159 21.762C20.4159 21.762 20.3183 24.7238 21.03 25.5265C21.0247 25.5265 20.5774 16.9091 23.0354 14.9475Z" fill="#4E9459"/>
<path d="M7.51492 0.841064C6.80109 8.17082 8.42801 13.4285 9.40758 15.9627C11.7739 22.0741 15.6324 25.9337 17.1878 27.454C22.365 32.5225 25.5695 32.3544 27.75 36.7145C29.4945 40.2075 29.3037 44.0576 28.8983 46.6874C28.2536 44.669 27.3109 42.7865 26.1095 41.1185C22.9187 36.726 19.4655 36.1721 15.6393 33.72C14.9459 33.275 6.42802 27.643 4.39567 18.1094C2.76534 10.5332 5.93738 3.71911 7.51492 0.841064Z" fill="#4E9459"/>
<path d="M2.66956 20.2375C3.30535 22.5644 4.25839 24.7742 5.49679 26.7931C9.06391 32.5904 14.3389 35.5754 16.6386 36.6992C20.5662 38.6115 22.2095 38.2154 24.706 40.6204C26.7377 42.5838 27.8014 44.9282 28.3846 46.613C28.3846 46.613 25.7088 41.4315 22.3279 47.5966C21.9326 48.2763 21.4099 48.8575 20.7942 49.3023C18.1828 51.1577 14.9656 49.6358 14.607 49.4596C15.4327 49.4366 16.2202 49.0759 16.8127 48.4494C17.1439 48.0746 17.3975 47.6271 17.5566 47.1367C17.7157 46.6464 17.7767 46.1247 17.7354 45.6066C16.9495 46.0854 16.0909 46.4064 15.2006 46.5542C9.85778 47.4242 5.58381 41.3823 5.19215 40.8137C5.19215 40.8137 12.262 42.2901 13.6651 40.4252C13.317 40.5181 8.77665 41.6419 5.3906 38.185C2.91502 35.6569 2.70089 32.3592 2.66956 31.6163C4.04313 32.9657 5.57515 34.389 5.78754 34.1767C5.99993 33.9645 4.56888 32.2057 3.6323 30.1722C2.68694 28.1007 1.91573 24.9603 2.66956 20.2375Z" fill="#4E9459"/>
<path d="M26.8077 48.4507C26.8077 48.4507 24.8363 49.3934 23.1379 53.3494C21.4394 57.3054 20.5 57.2673 20.5 57.2673C20.5 57.2673 21.5254 56.7826 22.3986 53.3685C23.2718 49.9545 26.8077 48.4507 26.8077 48.4507Z" fill="#4E9459"/>
<path d="M26.0192 46.6875C26.0192 46.6875 23.3147 47.9137 20.9736 53.0564C18.6324 58.1991 17.3461 58.1491 17.3461 58.1491C17.3461 58.1491 18.7559 57.5188 19.9577 53.0822C21.1595 48.6457 26.0192 46.6875 26.0192 46.6875Z" fill="#4E9459"/>
<path d="M18.9231 51.0957C18.9231 51.0957 17.7666 63.608 8.2854 65.2023C8.2854 65.2023 10.7252 64.4246 11.7563 62.8281C11.7563 62.8281 9.01116 65.77 4.43867 62.2604C4.43867 62.2604 6.56449 62.9703 9.28567 61.1266C9.28567 61.1266 4.6257 62.5442 1.02948 57.547C1.02948 57.547 4.21904 59.2485 6.34829 58.4336C6.34829 58.4336 1.50129 57.4403 0 52.0893C0.00343648 52.0893 9.06609 61.2688 18.9231 51.0957Z" fill="#4E9459"/>
<path d="M29.3621 39.6656C29.3621 39.6656 30.1474 39.6312 30.8027 37.0853C31.4579 34.5394 35.8552 34.9238 37.1639 36.3546C38.4727 37.7853 40.2214 39.1434 41 39.0324C41 39.0324 35.8552 40.5627 34.4829 45.4479C33.1107 50.333 30.7411 61.4156 17.3461 59.7418C19.9553 58.7303 25.6527 56.0446 29.8822 49.5258C31.3892 47.1986 32.5629 44.6231 33.3606 41.892L30.3955 43.6135L32.5493 39.9563L30.3955 41.1039L31.6137 38.8546L29.3621 39.6656Z" fill="#4E9459"/>
</g>
<defs>
<clipPath id="clip0_1_94">
<rect width="41" height="64.3612" fill="white" transform="translate(0 0.841064)"/>
</clipPath>
</defs>
</svg>
