<svg width="308" height="271" viewBox="0 0 308 271" fill="none" xmlns="http://www.w3.org/2000/svg">
<g clip-path="url(#clip0_1_818)">
<path d="M153.406 232.44C208.353 232.44 252.896 187.84 252.896 132.823C252.896 77.8059 208.353 33.2056 153.406 33.2056C98.4596 33.2056 53.9166 77.8059 53.9166 132.823C53.9166 187.84 98.4596 232.44 153.406 232.44Z" fill="#134F19" fill-opacity="0.05"/>
<path d="M153.406 265.646C226.668 265.646 286.059 206.179 286.059 132.823C286.059 59.4669 226.668 0 153.406 0C80.1442 0 20.7536 59.4669 20.7536 132.823C20.7536 206.179 80.1442 265.646 153.406 265.646Z" fill="#134F19" fill-opacity="0.05"/>
<path d="M133.722 27.3237C134.216 25.2922 135.38 23.4872 137.026 22.2008C138.673 20.9144 140.704 20.2219 142.792 20.2354C143.585 20.2349 144.374 20.3338 145.142 20.5297C146.268 18.1955 148.032 16.228 150.228 14.855C152.424 13.482 154.963 12.7595 157.553 12.771C158.934 12.7695 160.309 12.9737 161.63 13.3769C163.306 10.6885 165.697 8.52093 168.535 7.11734C171.373 5.71374 174.545 5.1297 177.696 5.43071C180.847 5.73173 183.852 6.9059 186.373 8.82149C188.895 10.7371 190.833 13.3183 191.971 16.2756C193.699 15.3304 195.636 14.8366 197.604 14.8398C199.112 14.8251 200.607 15.1078 202.005 15.6719C203.403 16.236 204.677 17.0703 205.753 18.1273C206.829 19.1843 207.686 20.4432 208.276 21.832C208.866 23.2209 209.177 24.7126 209.191 26.2218C209.191 26.5942 209.172 26.9627 209.137 27.3259L133.722 27.3237Z" fill="white"/>
<path d="M308.001 146.625C307.507 144.593 306.342 142.788 304.696 141.502C303.05 140.216 301.019 139.523 298.93 139.537C298.138 139.536 297.349 139.635 296.581 139.831C295.454 137.496 293.691 135.529 291.495 134.156C289.299 132.783 286.759 132.06 284.17 132.072C282.788 132.07 281.414 132.274 280.093 132.678C278.416 129.989 276.025 127.822 273.188 126.418C270.35 125.015 267.178 124.431 264.027 124.732C260.876 125.033 257.872 126.207 255.35 128.123C252.829 130.038 250.89 132.619 249.752 135.576C248.024 134.631 246.087 134.137 244.118 134.141C242.611 134.126 241.116 134.408 239.717 134.972C238.319 135.537 237.046 136.371 235.97 137.428C234.894 138.485 234.036 139.744 233.446 141.133C232.856 142.522 232.545 144.013 232.531 145.523C232.531 145.895 232.551 146.263 232.585 146.627L308.001 146.625Z" fill="white"/>
<path d="M34.1617 44.0807C34.4889 42.7358 35.2598 41.5408 36.3497 40.6892C37.4395 39.8376 38.7845 39.3791 40.167 39.3881C40.6916 39.3877 41.2142 39.4531 41.7227 39.5827C42.4682 38.0371 43.6355 36.7344 45.0895 35.8253C46.5436 34.9162 48.2249 34.4379 49.9391 34.4456C50.8539 34.4447 51.7636 34.5801 52.6386 34.8472C53.7481 33.0673 55.331 31.6321 57.2098 30.7028C59.0885 29.7734 61.1887 29.3867 63.2747 29.5859C65.3607 29.785 67.3501 30.5623 69.0195 31.8305C70.6889 33.0986 71.9724 34.8075 72.7259 36.7653C73.8694 36.1399 75.1519 35.8131 76.4549 35.8152C78.47 35.7957 80.4103 36.5785 81.849 37.9913C83.2878 39.4041 84.1071 41.3313 84.1268 43.349C84.1268 43.5962 84.1138 43.8368 84.09 44.0802L34.1617 44.0807Z" fill="white"/>
<path d="M207.183 16.7835L218.031 21.7647L216.39 25.2115L205.541 20.2303L207.183 16.7835Z" fill="#FEB546"/>
<path d="M100.743 236.838L109.209 228.519L111.887 231.148L103.421 239.467L100.743 236.838Z" fill="#FEB546"/>
<path d="M48.0343 60.3727L56.5027 52.0559L59.2413 54.7459L50.7737 63.0627L48.0343 60.3727Z" fill="#02CCC0"/>
<path d="M54.1543 97.4257L65.5377 101.084L64.3326 104.7L52.949 101.042L54.1543 97.4257Z" fill="#FF5B7E"/>
<path d="M68.1719 19.0956H56.1939V22.9005H68.1719V19.0956Z" fill="#FF5B7E"/>
<path d="M17.1009 49.6855L28.4586 45.9496L29.689 49.5576L18.3312 53.2935L17.1009 49.6855Z" fill="#07085B"/>
<path d="M20.5647 105.805L32.0602 102.501L33.1484 106.153L21.6528 109.457L20.5647 105.805Z" fill="#FEB546"/>
<path d="M115.022 164.553L123.083 173.258L120.216 175.822L112.155 167.113L115.022 164.553Z" fill="#FF5B7E"/>
<path d="M294.675 116.207L306.413 113.854L307.188 117.583L295.45 119.936L294.675 116.207Z" fill="#02CCC0"/>
<path d="M261.059 75.1888L272.797 72.8361L273.572 76.5651L261.834 78.9178L261.059 75.1888Z" fill="#FF5B7E"/>
<path d="M222.084 123.301L232.932 128.282L231.291 131.729L220.442 126.747L222.084 123.301Z" fill="#FF5B7E"/>
<path d="M215.501 73.2604L224.674 65.6964L227.166 68.6103L217.993 76.1742L215.501 73.2604Z" fill="#FEB546"/>
<path d="M259.351 192.07L268.526 184.507L271.017 187.421L261.842 194.985L259.351 192.07Z" fill="#FEB546"/>
<path d="M240.362 39.1225L249.535 31.5585L252.026 34.4724L242.853 42.0364L240.362 39.1225Z" fill="#07085B"/>
<path d="M214.632 181.625L210.36 170.637L213.979 169.28L218.252 180.267L214.632 181.625Z" fill="#07085B"/>
<path d="M262.562 117.212L263.701 105.428L267.73 105.938L266.588 117.721L262.562 117.212Z" fill="#FF5B7E"/>
<path d="M275.769 163.309L284.942 155.745L287.433 158.659L278.26 166.223L275.769 163.309Z" fill="#07085B"/>
<path d="M0 157.922L9.17303 150.358L11.6645 153.272L2.49151 160.836L0 157.922Z" fill="#FF5B7E"/>
<path d="M81.9031 197.331L81.2053 185.625L84.9551 185.33L85.6531 197.039L81.9031 197.331Z" fill="#FF5B7E"/>
<path d="M230.249 242.856L229.551 231.15L233.301 230.855L233.999 242.563L230.249 242.856Z" fill="#FF5B7E"/>
<path d="M62.4525 151.414L51.5168 156.213L49.9363 152.74L60.8718 147.94L62.4525 151.414Z" fill="#07085B"/>
<path d="M34.3702 197.329L28.022 187.354L31.3076 185.337L37.6553 195.313L34.3702 197.329Z" fill="#FEB546"/>
<path d="M174.647 82.4874L174.467 95.3832L160.591 97.852L161.053 79.6527L174.647 82.4874Z" fill="#FFC0BB"/>
<path opacity="0.6" d="M160.838 88.0299L161.051 79.6516L174.647 83.9334L174.573 87.8163C170.124 89.2882 165.331 89.3627 160.838 88.0299Z" fill="#FC8D84"/>
<path d="M185.92 37.51C185.92 37.51 175.249 31.5383 163.535 32.7003C145.504 34.4889 143.282 51.931 136.726 52.2123C136.726 52.2123 138.225 53.8465 143.25 53.1945C143.25 53.1945 140.273 57.9532 140.792 60.9754C140.792 60.9754 144.473 56.511 146.109 55.7798C146.109 55.7798 142.294 71.6571 153.86 76.8901C160.731 79.9991 175.04 56.0519 175.04 56.0519L185.92 37.51Z" fill="#07085B"/>
<path d="M178.623 73.3487C178.623 73.3487 179.419 83.1323 185.548 84.541C184.35 82.5931 183.85 80.2951 184.129 78.0246C184.129 78.0246 188.739 84.3378 193.838 80.3947C193.838 80.3947 185.164 75.8663 187.762 69.5206C190.361 63.1748 178.001 70.9509 178.001 70.9509L178.623 73.3487Z" fill="#07085B"/>
<path d="M151.652 62.1781C152.436 64.5949 151.473 67.0534 149.501 67.6686C147.529 68.2837 145.295 66.8236 144.511 64.4068C143.727 61.99 144.691 59.532 146.663 58.9163C148.635 58.3006 150.869 59.7613 151.652 62.1781Z" fill="#F99893"/>
<path d="M151.229 75.9286C150.712 74.8639 150.297 73.7527 149.988 72.61C149.17 69.6268 148.744 66.5496 148.721 63.4561C148.709 62.8534 148.663 62.2518 148.605 61.6518C148.361 59.1181 148.621 56.5609 149.37 54.1283C150.668 50.0575 153.23 46.5083 156.684 43.9981C160.138 41.4879 164.303 40.1481 168.57 40.174C180.399 40.2282 189.382 50.0845 188.471 61.3391C189.079 61.0387 189.748 60.8828 190.425 60.8836C191.103 60.8843 191.771 61.0417 192.378 61.3434C194.662 62.5635 195.25 65.8214 193.694 68.6209C192.138 71.4203 189.025 72.6999 186.742 71.4794C186.432 71.3118 186.146 71.1021 185.894 70.8561C184.123 80.3557 175.523 87.1269 165.939 86.2277C161.425 85.8056 157.235 83.7002 154.199 80.3291C153.979 80.116 153.771 79.8915 153.575 79.6565C152.634 78.5215 151.845 77.2683 151.229 75.9286Z" fill="#FFC0BB"/>
<path d="M170.424 61.6475C170.404 61.8734 170.429 62.1011 170.497 62.3174C170.565 62.5337 170.676 62.7345 170.821 62.908C170.967 63.0816 171.146 63.2245 171.347 63.3287C171.548 63.4329 171.768 63.4963 171.994 63.5152C172.451 63.5623 172.907 63.4266 173.264 63.1377C173.621 62.8487 173.85 62.4301 173.899 61.9732C173.919 61.7473 173.895 61.5197 173.826 61.3034C173.758 61.0871 173.648 60.8864 173.502 60.7129C173.356 60.5394 173.178 60.3965 172.976 60.2923C172.775 60.1882 172.555 60.1249 172.33 60.106C171.873 60.0591 171.417 60.1948 171.06 60.4836C170.703 60.7723 170.474 61.1907 170.424 61.6475Z" fill="#333333"/>
<path d="M155.4 61.2079C155.38 61.4339 155.405 61.6615 155.473 61.8779C155.542 62.0942 155.652 62.2949 155.798 62.4684C155.943 62.642 156.122 62.785 156.323 62.8892C156.525 62.9934 156.744 63.0568 156.97 63.0757C157.427 63.1228 157.883 62.9871 158.24 62.6983C158.597 62.4095 158.826 61.991 158.876 61.5342C158.896 61.3082 158.871 61.0804 158.803 60.864C158.735 60.6476 158.625 60.4468 158.479 60.2732C158.333 60.0996 158.154 59.9565 157.953 59.8523C157.751 59.7481 157.532 59.6848 157.306 59.6659C156.849 59.6188 156.392 59.7546 156.035 60.0435C155.678 60.3324 155.45 60.751 155.4 61.2079Z" fill="#333333"/>
<path d="M168.657 58.0708C169.494 57.8123 170.35 57.62 171.217 57.4958C172.028 57.382 172.851 57.382 173.662 57.4958C174.468 57.6057 175.252 57.8364 175.989 58.1803L176.281 58.3006C176.378 58.3424 176.464 58.403 176.56 58.4491L177.132 58.7505C177.515 58.9592 177.869 59.2182 178.294 59.4269C178.076 59.0237 177.821 58.6412 177.533 58.2843C177.224 57.9322 176.877 57.6157 176.498 57.3407C175.716 56.7627 174.799 56.3929 173.835 56.2659C172.872 56.1304 171.891 56.2287 170.974 56.5527C170.085 56.8536 169.288 57.376 168.657 58.0708Z" fill="#07085B"/>
<path d="M161.628 57.7635C161.062 57.0159 160.315 56.4257 159.457 56.0492C158.572 55.6463 157.604 55.4628 156.633 55.5142C155.66 55.5568 154.714 55.8452 153.883 56.3527C153.48 56.5936 153.105 56.8787 152.766 57.2025C152.447 57.5328 152.158 57.8915 151.904 58.2741C152.347 58.1033 152.723 57.8757 153.123 57.7012L153.719 57.4513C153.819 57.4134 153.91 57.3608 154.01 57.3272L154.311 57.2329C155.077 56.955 155.88 56.7937 156.693 56.7543C157.511 56.7127 158.331 56.7856 159.129 56.9711C159.981 57.1689 160.817 57.4339 161.628 57.7635Z" fill="#07085B"/>
<path d="M160.827 73.1498C161.292 74.4147 162.163 75.4897 163.303 76.207C164.443 76.9244 165.788 77.2437 167.128 77.1152C168.468 76.9866 169.728 76.4174 170.711 75.4964C171.694 74.5754 172.345 73.3545 172.562 72.0241L160.827 73.1498Z" fill="white"/>
<path d="M165.102 59.6578C164.501 60.6708 163.97 61.7242 163.513 62.8106C163.044 63.89 162.655 65.0029 162.351 66.1401C162.197 66.7237 162.104 67.3216 162.072 67.9244C162.071 68.0876 162.083 68.2507 162.108 68.4122C162.12 68.4962 162.149 68.5873 162.172 68.6729C162.208 68.7718 162.257 68.8653 162.318 68.9509C162.356 68.9981 162.396 69.0431 162.438 69.0859L162.537 69.1618C162.603 69.21 162.667 69.2626 162.735 69.3065C162.873 69.3888 163.008 69.4767 163.15 69.546C163.705 69.8299 164.287 70.0562 164.888 70.2214C165.48 70.3922 166.083 70.519 166.694 70.6008C165.574 70.1867 164.492 69.6755 163.46 69.0729C163.337 68.9981 163.229 68.9103 163.116 68.8284L162.96 68.6984L162.884 68.6339C162.88 68.6209 162.873 68.6089 162.863 68.5986C162.78 68.3912 162.753 68.1655 162.785 67.9444C162.833 67.3899 162.933 66.8412 163.084 66.3054C163.359 65.1992 163.721 64.1 164.066 62.9943C164.42 61.8908 164.78 60.7835 165.102 59.6578Z" fill="#F99893"/>
<path d="M188.471 61.3391C191.313 59.8036 193.672 62.4702 193.672 62.4702C194.693 60.0751 198.419 49.7116 190.008 42.5545L195.665 40.1697C195.665 40.1697 192.5 38.5821 189.199 39.3095C189.83 37.5741 190.105 35.7293 190.008 33.8852C190.008 33.8852 187.582 37.1263 186.169 37.6889L159.765 37.987C159.765 37.987 161.583 49.098 168.859 53.201C168.859 53.201 165.895 46.4569 166.703 42.5523C166.703 42.5523 168.117 52.8703 178.693 55.5164L184.553 67.0257L185.931 66.3981C186.264 64.4269 186.972 62.1483 188.471 61.3391Z" fill="#07085B"/>
<path d="M104.508 81.8484C104.508 81.8484 106.551 108.666 119.451 114.895C132.352 121.123 156.218 105.545 156.218 105.545L132.78 101.064C132.78 101.064 121.599 103.492 120.309 103.281C119.019 103.07 111.601 87.1296 111.601 87.1296L104.508 81.8484Z" fill="#FFC0BB"/>
<path d="M157.365 93.31L132.782 96.1019L136.437 117.007L148.478 113.1L157.365 93.31Z" fill="#E03268"/>
<path d="M140.952 153.011C140.952 153.011 132.995 222.695 134.287 246.978L148.339 248.623L162.973 168.004L164.825 168.075L174.252 249.158H187.009C187.009 249.158 189.116 168.213 182.235 145.408C175.354 122.602 140.952 153.011 140.952 153.011Z" fill="#C4C4C4"/>
<path d="M187.357 102.109C186.91 100.308 185.984 98.6616 184.676 97.3467C183.368 96.0318 181.727 95.0974 179.93 94.6434C178.432 94.2631 176.899 94.0442 175.354 93.9903L174.578 93.9626C165.418 96.8385 160.999 93.1594 160.998 93.1583C157.592 92.5957 147.837 93.1707 143.963 116.69C139.232 145.408 139.018 154.91 139.018 154.91C139.018 154.91 166.324 167.791 185.245 157.655C185.245 157.655 191.514 119.051 187.357 102.109Z" fill="#FF5B7E"/>
<path opacity="0.6" d="M104.021 124.414C102.709 121.733 101.688 119.539 101.688 119.539L95.3183 114.8C95.3183 114.8 95.4742 116.838 95.9792 119.864L104.021 124.414Z" fill="#FC8D84"/>
<path d="M145.899 252.17L145.608 262.264L138.788 267.12C138.788 267.12 135.564 262.854 135.628 262.264C135.691 261.673 136.26 249.518 136.26 249.518L145.899 252.17Z" fill="#FFC0BB"/>
<path d="M176.625 252.17L176.916 262.264L183.737 267.12C183.737 267.12 186.961 262.854 186.897 262.264C186.833 261.673 186.264 249.518 186.264 249.518L176.625 252.17Z" fill="#FFC0BB"/>
<path d="M133.884 246.07L148.668 247.8C148.764 247.81 148.856 247.84 148.94 247.888C149.023 247.935 149.096 248 149.153 248.077C149.211 248.154 149.252 248.242 149.273 248.336C149.295 248.43 149.297 248.527 149.28 248.622L148.279 253.741C148.243 253.917 148.14 254.073 147.993 254.177C147.846 254.28 147.665 254.324 147.487 254.298L133.64 252.419C133.471 252.398 133.316 252.315 133.203 252.187C133.09 252.058 133.029 251.893 133.029 251.722L133.092 246.752C133.094 246.654 133.117 246.557 133.16 246.467C133.202 246.378 133.262 246.299 133.337 246.235C133.411 246.17 133.499 246.122 133.593 246.094C133.687 246.066 133.786 246.057 133.884 246.07Z" fill="#929292"/>
<path d="M188.251 246.458L173.467 248.189C173.371 248.199 173.279 248.229 173.195 248.277C173.112 248.324 173.039 248.389 172.982 248.466C172.924 248.543 172.883 248.631 172.861 248.725C172.84 248.819 172.838 248.916 172.855 249.011L173.856 254.129C173.892 254.306 173.994 254.462 174.141 254.566C174.289 254.669 174.47 254.713 174.648 254.687L188.495 252.808C188.664 252.786 188.819 252.704 188.932 252.575C189.044 252.447 189.106 252.282 189.105 252.111L189.042 247.14C189.04 247.042 189.017 246.945 188.975 246.856C188.933 246.767 188.872 246.688 188.798 246.623C188.723 246.559 188.636 246.511 188.542 246.483C188.448 246.454 188.349 246.446 188.251 246.458Z" fill="#929292"/>
<path d="M142.74 45.9338C142.521 45.4428 142.201 45.0042 141.799 44.6473C141.398 44.2904 140.925 44.0235 140.412 43.8644L132.16 41.2786C132.654 39.6843 133.066 38.0658 133.394 36.4293L114.299 31.1085L95.2035 25.7877C94.6085 27.3482 94.0936 28.9381 93.6608 30.5513L85.2668 28.4982C84.7414 28.3694 84.1949 28.3528 83.6627 28.4492C83.1305 28.5457 82.6245 28.7531 82.1776 29.0581C81.7353 29.359 81.3633 29.7522 81.087 30.2106C80.8107 30.669 80.6367 31.1818 80.5769 31.7139C80.2521 34.6461 80.0286 40.4 82.1873 45.9864C83.3358 49.0242 85.1651 51.7577 87.5343 53.9765C90.2452 56.4289 93.4819 58.2258 96.9952 59.229C99.1597 61.4445 101.839 63.0881 104.793 64.0127C107.816 64.7493 110.973 64.7325 113.987 63.964C117.533 64.9255 121.251 65.0667 124.859 64.377C128.065 63.7093 131.081 62.3282 133.682 60.3358C138.506 56.6947 141.394 51.6833 142.685 49.0199C142.918 48.5405 143.044 48.016 143.053 47.4829C143.062 46.9499 142.956 46.4212 142.74 45.9338ZM84.1663 32.0955C84.1685 32.0694 84.1766 32.0442 84.1902 32.0218C84.2037 31.9994 84.2222 31.9805 84.2443 31.9665C84.2658 31.951 84.2906 31.9405 84.3167 31.9358C84.3429 31.9311 84.3697 31.9323 84.3953 31.9393L92.8223 33.999C91.6011 39.7642 90.8736 47.5549 93.5758 53.9543C83.6369 48.3891 83.6039 37.1675 84.1663 32.0955ZM139.426 47.4937C137.191 52.1007 131.157 61.6399 119.713 61.242C125.436 57.1901 128.986 50.1852 131.03 44.646L139.312 47.2422C139.338 47.2493 139.361 47.262 139.381 47.2795C139.401 47.2969 139.416 47.3187 139.426 47.343C139.438 47.3664 139.444 47.3923 139.444 47.4184C139.444 47.4446 139.438 47.4703 139.426 47.4937Z" fill="#FFD103"/>
<path d="M101.078 94.7246L107.067 61.2421L104.772 64.0859L104.794 64.0111L104.361 60.4079L91.5524 91.9903L101.078 94.7246Z" fill="#FFD103"/>
<path d="M108.076 64.9255C107.817 65.7874 107.23 66.5128 106.442 66.9447C105.653 67.3767 104.727 67.4806 103.862 67.2339C103.435 67.1196 103.034 66.9214 102.684 66.6508C102.334 66.3802 102.041 66.0425 101.822 65.6575C101.603 65.2725 101.463 64.8479 101.41 64.4081C101.357 63.9684 101.391 63.5225 101.511 63.0962C101.77 62.2344 102.357 61.5091 103.145 61.077C103.934 60.645 104.86 60.5409 105.725 60.7873C106.152 60.9016 106.553 61.0998 106.903 61.3704C107.253 61.6411 107.546 61.9788 107.765 62.3638C107.984 62.7489 108.124 63.1737 108.177 63.6134C108.231 64.0532 108.196 64.4992 108.076 64.9255Z" fill="#FFD103"/>
<path d="M104.314 79.0435L97.1625 77.0511C97.0066 77.0094 96.8604 76.937 96.7327 76.8383C96.6049 76.7395 96.4981 76.6163 96.4183 76.4758C96.3385 76.3352 96.2874 76.1802 96.268 76.0198C96.2485 75.8593 96.2611 75.6966 96.3051 75.5411L96.3825 75.2734C96.477 74.9589 96.6913 74.6943 96.979 74.5367C97.2668 74.3791 97.6049 74.3411 97.9203 74.4311L105.071 76.424C105.227 76.4658 105.373 76.5381 105.501 76.6369C105.629 76.7357 105.735 76.8589 105.815 76.9994C105.895 77.1399 105.946 77.2948 105.966 77.4553C105.985 77.6157 105.973 77.7785 105.929 77.934L105.852 78.2018C105.757 78.5162 105.543 78.7808 105.255 78.9383C104.967 79.0958 104.629 79.1336 104.314 79.0435Z" fill="#FFD103"/>
<path d="M101.226 97.1924L90.0855 94.0878C89.904 94.0392 89.7339 93.955 89.5851 93.84C89.4363 93.7251 89.3119 93.5816 89.219 93.4181C89.126 93.2545 89.0665 93.0741 89.0438 92.8874C89.0211 92.7006 89.0357 92.5111 89.0868 92.3301L89.1772 92.0179C89.2871 91.6518 89.5365 91.3437 89.8715 91.1602C90.2065 90.9768 90.6001 90.9326 90.9673 91.0374L102.108 94.1415C102.289 94.1901 102.46 94.2743 102.608 94.3894C102.757 94.5044 102.882 94.6479 102.974 94.8114C103.067 94.975 103.127 95.1555 103.15 95.3423C103.172 95.5291 103.158 95.7186 103.107 95.8997L103.016 96.2119C102.906 96.578 102.657 96.8861 102.322 97.0695C101.987 97.253 101.593 97.2971 101.226 97.1924Z" fill="#FFD103"/>
<g style="mix-blend-mode:multiply" opacity="0.5">
<path d="M103.903 78.9291L97.5657 77.1633L96.8805 78.8527L103.577 80.7497L103.903 78.9291Z" fill="#FEB546"/>
</g>
<g style="mix-blend-mode:multiply" opacity="0.5">
<path d="M89.4024 91.471C89.3262 91.5797 89.2684 91.7002 89.2313 91.8277L89.0316 92.5203C88.9876 92.6763 88.975 92.8394 88.9945 93.0002C89.0141 93.161 89.0653 93.3164 89.1454 93.4572C89.2254 93.598 89.3326 93.7215 89.4607 93.8205C89.5889 93.9194 89.7354 93.9918 89.8917 94.0336L101.422 97.246C101.738 97.3363 102.077 97.2983 102.365 97.1403C102.653 96.9822 102.868 96.7169 102.963 96.4016L103.163 95.7089C103.2 95.5817 103.215 95.4493 103.208 95.317L89.4024 91.471Z" fill="#FEB546"/>
</g>
<path d="M88.1998 92.0257L103.934 96.4099C104.181 96.476 104.413 96.5908 104.615 96.7474C104.818 96.904 104.988 97.0993 105.114 97.3221C105.241 97.5449 105.322 97.7907 105.353 98.0451C105.383 98.2995 105.363 98.5576 105.294 98.8042L105.173 99.2297C105.024 99.7283 104.684 100.148 104.228 100.398C103.772 100.648 103.236 100.708 102.735 100.565L86.9994 96.1805C86.7521 96.1144 86.5205 95.9997 86.3178 95.8431C86.1152 95.6866 85.9457 95.4912 85.8192 95.2685C85.6926 95.0458 85.6115 94.8001 85.5806 94.5457C85.5497 94.2913 85.5696 94.0333 85.6391 93.7867L85.7598 93.3607C85.9095 92.8617 86.2495 92.4417 86.7062 92.1919C87.1629 91.942 87.6995 91.8823 88.1998 92.0257Z" fill="#FFD103"/>
<g style="mix-blend-mode:multiply" opacity="0.3">
<path d="M133.395 36.4293L126.452 34.4949C126.398 34.6575 126.338 34.8239 126.279 34.9903C115.561 32.2077 95.0297 26.7096 95.0297 26.7096L124.622 39.1539C120.676 47.9826 113.12 58.1521 99.757 55.1429C97.0871 54.2983 94.6357 52.8753 92.5771 50.9749C94.0202 56.5825 97.5284 61.583 104.793 64.0084C127.415 69.101 133.395 36.4293 133.395 36.4293Z" fill="#FEB546"/>
</g>
<path d="M132.857 39.5859L93.9742 28.7513C93.6484 28.6643 93.343 28.5132 93.076 28.3069C92.809 28.1006 92.5856 27.8432 92.4188 27.5497C92.252 27.2561 92.1452 26.9323 92.1045 26.5971C92.0639 26.2618 92.0902 25.9218 92.182 25.5969L92.3444 25.037C92.5415 24.3799 92.9889 23.8269 93.59 23.4976C94.1911 23.1682 94.8975 23.089 95.5565 23.2771L134.439 34.1117C134.765 34.1988 135.071 34.3498 135.338 34.5561C135.605 34.7624 135.828 35.0198 135.995 35.3134C136.162 35.6069 136.268 35.9307 136.309 36.2659C136.35 36.6012 136.323 36.9412 136.232 37.2661L136.069 37.826C135.872 38.483 135.425 39.036 134.824 39.3653C134.222 39.6946 133.516 39.7738 132.857 39.5859Z" fill="#FFE55A"/>
<g style="mix-blend-mode:screen" opacity="0.3">
<path d="M97.0867 32.7025C97.0867 32.7025 88.1065 55.6708 107.067 61.2431C107.067 61.2431 94.8598 52.3852 97.0867 32.7025Z" fill="#F4C676"/>
</g>
<g style="mix-blend-mode:multiply" opacity="0.3">
<path d="M112.462 38.593L113.675 45.0682L119.792 47.7571L113.896 50.8915L113.183 57.4377L108.326 52.8996L101.766 54.2546L104.66 48.3159L101.321 42.607L107.966 43.4742L112.462 38.593Z" fill="#FEB546"/>
</g>
<path d="M112.132 37.5301L113.345 44.0048L119.462 46.6942L113.567 49.8286L112.853 56.3749L107.996 51.8367L101.436 53.1917L104.33 47.253L100.989 41.5452L107.635 42.4124L112.132 37.5301Z" fill="#FFE55A"/>
<path d="M163.17 113.101C133.067 112.819 101.659 80.3709 99.5898 78.444C97.5209 76.5172 97.1171 74.2706 97.601 73.9308C98.0849 73.591 99.455 74.3265 99.455 74.3265C99.455 74.3265 98.6046 71.4322 99.2385 70.8338C100.134 69.9888 102.168 71.0799 102.168 71.0799C102.168 71.0799 101.789 68.229 103.001 67.8333C104.213 67.4376 105.447 69.7075 105.447 69.7075C106.468 68.5195 107.221 68.4669 107.221 68.4669C109.398 68.6252 109.075 72.8224 109.075 72.8224L110.473 72.4793C112.596 72.0571 111.136 76.9237 111.136 76.9237C111.136 76.9237 114.576 82.1323 133.21 91.0011C151.844 99.8698 164.603 97.7582 164.603 97.7582L163.17 113.101Z" fill="#FFC0BB"/>
<path d="M161.451 95.9258C161.451 95.9258 177.685 95.0298 181.992 95.4103C187.826 95.9258 189.546 103.245 184.529 107.892C179.807 112.264 161.451 115.775 161.451 115.775V95.9258Z" fill="#E03268"/>
<path d="M179.63 110.432C178.67 110.863 177.696 111.258 176.707 111.617C175.717 111.975 174.719 112.312 173.713 112.626C171.705 113.264 169.668 113.813 167.615 114.297C166.589 114.539 165.558 114.763 164.524 114.969C163.579 115.158 162.629 115.346 161.683 115.505L161.664 110.813C161.664 109.159 161.644 107.507 161.623 105.85L161.558 100.888C161.524 99.2335 161.5 97.5815 161.453 95.9252C161.405 97.5794 161.381 99.2314 161.344 100.888L161.28 105.85C161.259 107.504 161.239 109.156 161.238 110.813L161.218 115.775V116.042L161.489 116C163.592 115.675 165.664 115.232 167.724 114.731C169.785 114.231 171.828 113.665 173.841 113.002C174.846 112.667 175.842 112.306 176.827 111.918C177.813 111.53 178.784 111.111 179.742 110.659C180.698 110.208 181.629 109.705 182.531 109.153C183.434 108.61 184.294 107.997 185.102 107.321C183.404 108.566 181.568 109.61 179.63 110.432Z" fill="#EAF5F9"/>
<path d="M121.641 270.953L147.781 271.001C147.995 271.003 148.202 270.92 148.355 270.771C148.508 270.621 148.595 270.417 148.598 270.202V269.057C148.596 268.843 148.51 268.638 148.358 268.488C148.205 268.338 148 268.254 147.786 268.255L121.646 268.207C121.54 268.206 121.435 268.226 121.336 268.265C121.238 268.305 121.148 268.363 121.072 268.437C120.997 268.512 120.936 268.6 120.895 268.698C120.853 268.795 120.831 268.9 120.83 269.006V270.151C120.832 270.365 120.918 270.57 121.07 270.72C121.222 270.87 121.427 270.954 121.641 270.953Z" fill="#294A5C"/>
<path d="M147.346 259.917L148.251 267.552C148.363 268.494 147.825 269.348 147.121 269.345L122.65 269.3C122.304 269.288 121.969 269.176 121.685 268.976C121.402 268.776 121.183 268.498 121.055 268.175C120.714 267.423 120.648 266.292 121.746 264.774C123.92 261.768 130.995 261.023 134.558 258.497C134.631 258.445 134.717 258.417 134.806 258.417L146.066 258.438C146.703 258.439 147.245 259.066 147.346 259.917Z" fill="#FF5B7E"/>
<path d="M136.39 262.854C136.48 262.782 136.543 262.681 136.569 262.568C136.594 262.455 136.581 262.337 136.53 262.233C136.051 261.186 134.554 258.637 131.496 259.154C131.399 259.191 131.318 259.261 131.269 259.353C131.22 259.445 131.206 259.551 131.229 259.652V259.66C131.258 259.89 131.417 260.039 131.588 260.012C134.327 259.558 135.599 261.805 135.986 262.683C135.998 262.723 136.018 262.761 136.045 262.793C136.073 262.825 136.108 262.85 136.147 262.866C136.185 262.883 136.227 262.89 136.27 262.888C136.312 262.886 136.353 262.875 136.39 262.854Z" fill="#294A5C"/>
<path d="M133.846 263.831C133.937 263.759 134 263.658 134.026 263.545C134.051 263.432 134.037 263.314 133.986 263.209C133.508 262.162 132.011 259.613 128.952 260.131C128.855 260.168 128.775 260.238 128.725 260.33C128.676 260.421 128.662 260.527 128.685 260.628V260.637C128.714 260.867 128.873 261.017 129.044 260.989C131.783 260.535 133.056 262.782 133.443 263.659C133.454 263.7 133.474 263.738 133.502 263.77C133.529 263.802 133.564 263.827 133.603 263.844C133.642 263.86 133.684 263.868 133.726 263.865C133.768 263.863 133.809 263.852 133.846 263.831Z" fill="#294A5C"/>
<path d="M131.481 264.743C131.572 264.671 131.635 264.57 131.661 264.457C131.686 264.344 131.672 264.225 131.621 264.121C131.143 263.074 129.646 260.526 126.587 261.044C126.49 261.08 126.409 261.15 126.36 261.241C126.311 261.333 126.297 261.439 126.32 261.54V261.548C126.349 261.777 126.507 261.927 126.678 261.9C129.418 261.447 130.69 263.693 131.077 264.571C131.088 264.612 131.109 264.65 131.136 264.682C131.164 264.713 131.199 264.739 131.238 264.755C131.276 264.772 131.319 264.779 131.361 264.777C131.403 264.775 131.444 264.763 131.481 264.743Z" fill="#294A5C"/>
<path d="M162.388 270.953L188.528 271.001C188.742 271.003 188.948 270.92 189.101 270.771C189.254 270.621 189.342 270.417 189.344 270.202V269.057C189.343 268.843 189.257 268.638 189.104 268.488C188.952 268.338 188.746 268.254 188.532 268.255L162.392 268.207C162.286 268.206 162.181 268.226 162.083 268.265C161.984 268.305 161.895 268.363 161.819 268.437C161.743 268.512 161.683 268.6 161.641 268.698C161.599 268.795 161.577 268.9 161.576 269.006V270.151C161.578 270.365 161.664 270.57 161.816 270.72C161.969 270.871 162.174 270.954 162.388 270.953Z" fill="#294A5C"/>
<path d="M188.093 259.917L188.998 267.552C189.11 268.494 188.572 269.348 187.868 269.345L163.398 269.3C163.051 269.289 162.716 269.176 162.432 268.976C162.149 268.776 161.93 268.498 161.802 268.175C161.461 267.423 161.395 266.292 162.493 264.774C164.667 261.768 171.741 261.023 175.305 258.497C175.378 258.445 175.465 258.417 175.554 258.417L186.813 258.438C187.45 258.439 187.992 259.066 188.093 259.917Z" fill="#FF5B7E"/>
<path d="M177.137 262.854C177.228 262.782 177.291 262.681 177.316 262.568C177.342 262.455 177.328 262.337 177.277 262.233C176.799 261.186 175.302 258.637 172.243 259.154C172.146 259.191 172.065 259.261 172.016 259.353C171.967 259.445 171.952 259.551 171.976 259.652V259.66C172.004 259.89 172.163 260.039 172.335 260.012C175.074 259.558 176.346 261.805 176.733 262.683C176.744 262.723 176.764 262.761 176.792 262.793C176.82 262.825 176.855 262.85 176.893 262.867C176.932 262.883 176.974 262.891 177.017 262.889C177.059 262.886 177.1 262.875 177.137 262.854Z" fill="#294A5C"/>
<path d="M174.593 263.831C174.684 263.759 174.747 263.658 174.773 263.545C174.799 263.432 174.785 263.314 174.734 263.209C174.256 262.162 172.758 259.613 169.7 260.131C169.603 260.168 169.522 260.238 169.473 260.33C169.424 260.421 169.409 260.527 169.433 260.628V260.637C169.461 260.867 169.62 261.017 169.791 260.989C172.53 260.535 173.803 262.782 174.19 263.659C174.201 263.7 174.221 263.738 174.249 263.77C174.276 263.802 174.311 263.827 174.35 263.844C174.389 263.86 174.431 263.868 174.473 263.866C174.515 263.864 174.556 263.852 174.593 263.831Z" fill="#294A5C"/>
<path d="M172.227 264.743C172.318 264.671 172.381 264.57 172.407 264.457C172.432 264.344 172.418 264.225 172.368 264.121C171.889 263.074 170.392 260.526 167.333 261.044C167.236 261.08 167.156 261.15 167.106 261.241C167.057 261.333 167.043 261.439 167.066 261.54V261.548C167.095 261.777 167.253 261.927 167.424 261.9C170.164 261.447 171.437 263.693 171.824 264.571C171.835 264.612 171.855 264.65 171.882 264.682C171.91 264.713 171.945 264.739 171.984 264.755C172.023 264.772 172.065 264.779 172.107 264.777C172.149 264.775 172.19 264.763 172.227 264.743Z" fill="#294A5C"/>
<g style="mix-blend-mode:multiply" opacity="0.3">
<path d="M147.478 261.037C143.188 262.1 138.701 264.427 136.2 269.325L147.12 269.345C147.824 269.345 148.362 268.493 148.25 267.551L147.478 261.037Z" fill="#FF5B7E"/>
</g>
</g>
<defs>
<clipPath id="clip0_1_818">
<rect width="308" height="271" fill="white"/>
</clipPath>
</defs>
</svg>
