<svg width="274" height="274" viewBox="0 0 274 274" fill="none" xmlns="http://www.w3.org/2000/svg">
<g clip-path="url(#clip0_1_149)">
<path d="M137 239.405C193.747 239.405 239.75 193.468 239.75 136.803C239.75 80.1372 193.747 34.2007 137 34.2007C80.2527 34.2007 34.25 80.1372 34.25 136.803C34.25 193.468 80.2527 239.405 137 239.405Z" fill="#134F19" fill-opacity="0.05"/>
<path d="M137 273.605C212.663 273.605 274 212.357 274 136.803C274 61.2487 212.663 0 137 0C61.337 0 0 61.2487 0 136.803C0 212.357 61.337 273.605 137 273.605Z" fill="#134F19" fill-opacity="0.05"/>
<path d="M137.257 82.6062C137.257 82.6062 118.391 106.173 115.517 127.536C112.642 148.898 123.612 166.815 124.595 167.963C125.579 169.111 124.898 161.92 124.898 161.92C118.188 149.521 116.561 135.005 120.359 121.432C118.074 135.57 119.815 150.227 127.152 161.92C132.841 162.101 155.08 141.147 152.388 140.528C149.695 139.908 137.257 82.6062 137.257 82.6062Z" fill="#5B2817"/>
<path d="M141.54 81.2011L136.396 94.4353C136.396 94.4353 125.549 100.811 127.319 117.293C128.832 131.056 147.683 143.429 160.466 140.347C156.835 148.293 157.289 158.204 157.289 158.204C157.289 158.204 159.27 167.42 179.844 156.56C177.877 148.311 189.028 132.388 189.028 132.388C189.028 132.388 204.02 134.548 206.607 121.088C209.194 107.627 198.815 101.448 189.738 106.401C200.964 89.3455 198.558 86.8378 194.776 84.1937C190.994 81.5496 163.385 71.005 163.958 71.5185C164.531 72.032 141.54 81.2011 141.54 81.2011Z" fill="#FFC2A4"/>
<path d="M201.86 118.683C201.194 112.564 191.872 107.322 186.731 119.589C188.849 119.589 194.963 122.202 190.997 126.146C193.963 129.077 202.843 127.808 201.86 118.683Z" fill="#E89F89"/>
<path d="M189.046 132.4C179.125 136.34 168.785 139.133 158.228 140.724C157.973 143.003 157.973 145.304 158.228 147.583C158.228 147.583 174.87 146.858 183.253 141.177C187.457 134.772 189.046 132.4 189.046 132.4Z" fill="#E89F89"/>
<path d="M147.848 93.7557C147.848 93.7557 145.473 103.605 139.754 104.739C138.437 105.237 139.89 108.485 145.398 106.25C150.905 104.014 147.848 93.7557 147.848 93.7557Z" fill="#E89F89"/>
<path d="M134.928 113.229L135.019 113.456C135.019 113.637 135.201 113.849 135.321 114.105C135.46 114.412 135.627 114.706 135.821 114.982C136.044 115.342 136.286 115.689 136.547 116.023C136.857 116.401 137.195 116.755 137.56 117.081C137.958 117.44 138.383 117.768 138.831 118.063C139.314 118.356 139.82 118.609 140.344 118.818L141.161 119.135L142.009 119.331C143.116 119.582 144.248 119.709 145.383 119.709C146.472 119.709 147.468 119.633 148.409 119.619C148.848 119.619 149.226 119.528 149.589 119.498L150.512 119.407H151.327C151.49 119.41 151.653 119.379 151.804 119.316C151.955 119.252 152.091 119.159 152.203 119.04C152.316 118.921 152.403 118.781 152.458 118.627C152.513 118.473 152.536 118.31 152.524 118.147C152.513 117.984 152.468 117.825 152.391 117.68C152.315 117.536 152.21 117.408 152.081 117.307C151.953 117.205 151.805 117.131 151.647 117.09C151.489 117.048 151.324 117.04 151.162 117.066C151.027 117.072 150.893 117.103 150.769 117.156H150.693L150.012 117.458C149.558 117.639 148.922 117.926 148.136 118.17L146.85 118.502C146.354 118.625 145.847 118.706 145.337 118.744C144.837 118.818 144.33 118.844 143.824 118.82C143.28 118.838 142.736 118.787 142.205 118.668L141.403 118.504L140.647 118.247C140.161 118.055 139.699 117.807 139.27 117.507C138.885 117.22 138.544 116.879 138.257 116.494C137.986 116.17 137.762 115.809 137.591 115.422C137.344 114.849 137.21 114.233 137.198 113.609C137.176 113.454 137.176 113.296 137.198 113.141V112.976C137.252 112.665 137.182 112.345 137.002 112.086C136.821 111.826 136.546 111.648 136.235 111.591C135.924 111.533 135.603 111.6 135.341 111.777C135.08 111.955 134.899 112.228 134.838 112.538C134.776 112.755 134.776 112.985 134.838 113.203L134.928 113.229Z" fill="#330E05"/>
<path d="M164.491 112.232C161.631 111.99 159.467 110.04 159.649 107.88C159.831 105.721 162.296 104.164 165.141 104.406C167.985 104.647 170.164 106.581 169.982 108.741C169.801 110.902 167.38 112.458 164.491 112.232Z" fill="#E89F89"/>
<path d="M135.019 102.019C136.018 102.466 137.136 102.57 138.201 102.316C139.265 102.062 140.216 101.463 140.904 100.614C141.21 100.235 141.419 99.7875 141.515 99.31C141.61 98.8326 141.588 98.3393 141.452 97.872C141.315 97.4046 141.067 96.9772 140.73 96.6261C140.392 96.2749 139.974 96.0105 139.512 95.8552C138.514 95.406 137.395 95.3002 136.33 95.5545C135.265 95.8088 134.314 96.4087 133.627 97.2602C133.321 97.6394 133.112 98.0868 133.017 98.5642C132.921 99.0416 132.943 99.535 133.079 100.002C133.216 100.47 133.464 100.897 133.801 101.248C134.139 101.599 134.557 101.864 135.019 102.019Z" fill="#E89F89"/>
<path d="M157.077 98.4839C157.382 98.5002 157.668 98.6365 157.872 98.8631C158.077 99.0896 158.183 99.3878 158.167 99.6922C158.169 100.183 158.277 100.668 158.483 101.114C158.69 101.559 158.989 101.955 159.362 102.276C160.875 103.62 163.901 103.938 167.85 103.197C168.004 103.152 168.166 103.14 168.326 103.162C168.485 103.183 168.638 103.237 168.775 103.321C168.912 103.405 169.03 103.517 169.121 103.649C169.213 103.782 169.275 103.932 169.305 104.09C169.335 104.247 169.331 104.41 169.294 104.566C169.257 104.722 169.188 104.869 169.091 104.997C168.993 105.125 168.871 105.231 168.73 105.309C168.589 105.387 168.434 105.434 168.273 105.448C166.867 105.723 165.439 105.87 164.007 105.887C161.994 105.997 159.997 105.468 158.303 104.376C156.291 102.928 154.699 100.973 153.689 98.7108C156.276 98.5743 157.077 98.4839 157.077 98.4839Z" fill="#330E05"/>
<path d="M136.381 91.55C137.265 91.6549 138.159 91.6549 139.044 91.55C139.664 91.55 139.982 91.6558 140.012 92.2904C140.01 92.7431 140.113 93.1901 140.313 93.5963C140.513 94.0026 140.804 94.3571 141.164 94.632C141.618 95.0397 142.602 94.7679 143.721 94.1635C143.988 94.0388 144.292 94.0209 144.572 94.1134C144.852 94.206 145.085 94.4019 145.225 94.6611C145.364 94.9202 145.399 95.2228 145.322 95.5068C145.245 95.7907 145.062 96.0344 144.81 96.1878C143.889 96.725 142.85 97.031 141.784 97.0794C141.169 97.0852 140.563 96.9289 140.028 96.6262C139.59 96.3806 139.213 96.0399 138.924 95.6294C137.787 94.473 136.919 93.0803 136.383 91.5506L136.381 91.55Z" fill="#330E05"/>
<path d="M150.966 155.455C150.966 155.455 139.271 149.985 131.041 162.313C122.81 174.641 108.65 188.617 85.9559 185.594C85.2145 193.814 89.1938 206.747 89.1938 206.747C89.1938 206.747 107.439 213.727 130.481 202.018C129.937 210.297 132.887 214.693 136.079 222.912C139.271 231.13 136.518 253.036 132.402 257.145C137.062 261.814 175.46 284.822 207.02 250.029C203.464 244.275 195.733 236.539 197.155 221.325C198.071 211.71 199.796 202.189 202.314 192.863L186.715 159.035L162.508 163.688L150.966 155.455Z" fill="#ED474B"/>
<path d="M186.761 159.035L167.093 180.411L164.869 177.737L162.872 164.956L161.465 162.886L155.413 173.991L153.643 167.948L159.695 159.019C159.695 159.019 174.99 158.944 173.175 159.654C171.359 160.364 182.888 157.644 182.888 157.644L186.761 159.035Z" fill="#C12B36"/>
<path d="M89.1949 206.698C89.1949 206.698 85.2162 193.811 85.957 185.545C108.651 188.567 122.812 174.592 131.042 162.264C132.836 159.401 135.391 157.091 138.421 155.59C141.25 156.783 147.045 157.901 150.086 159.895C150.086 159.895 146.44 173.945 138.996 183.644C136.878 186.666 130.342 196.727 130.478 201.924C107.439 213.678 89.1949 206.698 89.1949 206.698Z" fill="#C12B36"/>
<path d="M198.365 211.566C198.365 211.566 191.256 252.081 136.048 247.474L137.561 240.66L200.377 201.592L198.365 211.566Z" fill="#C12B36"/>
<path d="M133.189 215.884C133.189 215.884 153.933 210.807 164.294 195.126C174.655 179.444 170.543 177.737 170.543 177.737L173.251 180.412L176.882 175.699C176.882 175.699 173.568 193.646 161.465 205.068C154.015 211.969 144.726 216.575 134.716 218.329L133.189 215.884Z" fill="#C12B36"/>
<path d="M186.762 159.035C186.762 159.035 213.888 164.095 203.6 192.86C193.312 221.624 178.108 259.846 105.034 238.877C105.245 223.679 108.952 215.869 108.952 215.869C108.952 215.869 150.118 227.788 168.425 191.214C172.737 181.771 186.762 159.035 186.762 159.035Z" fill="#ED474B"/>
<path d="M179.817 152.176L186.762 159.035L164.854 177.751L159.68 161.859L153.705 171.361L150.088 159.956L157.305 153.279L161.45 158.763L179.817 152.176Z" fill="white"/>
<path d="M65.092 121.372C79.8128 126.977 93.7015 166.15 93.7015 166.15L88.6033 170.682C89.1158 173.004 89.4896 175.355 89.7228 177.722V177.798C75.0021 177.798 51.5973 129.046 47.3611 120.148C50.8838 118.501 56.3926 118.048 65.092 121.372Z" fill="#602437"/>
<path d="M120.344 87.623L117.591 93.4094C117.591 93.4094 122.129 106.115 109.359 118.487C98.6626 128.821 74.562 126.041 66.1501 114.786C64.6798 120.499 64.1685 126.416 64.6371 132.296C60.5465 132.009 56.5578 130.89 52.9153 129.01C49.2728 127.129 46.0532 124.525 43.4538 121.358C45.92 109.439 47.9923 88.6357 47.9923 88.6357C47.9923 88.6357 34.1337 80.1302 41.2751 67.2588C48.4165 54.3874 61.1698 56.427 65.2852 66.6998C67.7515 44.93 71.458 44.5223 76.39 44.93C81.3219 45.3377 111.369 55.5064 110.552 55.5957C109.734 55.685 120.344 87.623 120.344 87.623Z" fill="#FFAE98"/>
<path d="M41.3245 67.2572C56.1358 50.8205 67.0441 74.373 68.7535 74.373C70.463 74.373 77.5435 67.8013 75.8944 52.4672C77.5408 59.0388 88.5122 74.9166 95.6382 73.2852C100.676 72.1218 99.4205 66.5925 98.2554 63.4349C101.206 69.8706 110.903 88.1656 125.821 88.6188C138.378 88.9963 149.331 76.2005 146.835 61.199C147.074 59.817 147.196 58.4171 147.198 57.0145C144.082 17.7355 103.566 23.4769 87.9524 27.1321C85.9083 27.3932 83.8858 27.8022 81.9009 28.3558C50.5079 7.53778 35.8931 48.0706 41.3245 67.2572ZM115.457 29.7153C124.535 31.0903 132.78 34.5646 137.395 39.9882C139.903 43.0166 141.711 46.5603 142.69 50.3667C140.49 46.8477 137.777 43.6756 134.641 40.9548C129.048 35.9629 122.51 32.141 115.412 29.7148L115.457 29.7153Z" fill="#431508"/>
<path d="M46.9221 68.5263C51.6576 63.9944 62.9589 65.9885 58.7529 79.6151C56.9677 78.2254 50.1594 76.1255 50.7192 82.108C46.3014 82.4855 39.8263 75.3698 46.9221 68.5263Z" fill="#EB937F"/>
<path d="M47.9961 88.6342C47.9961 88.6342 53.3517 100.403 66.1512 114.785C65.5914 117.217 65.092 121.372 65.092 121.372C65.092 121.372 49.7808 110.253 46.7855 99.8594C47.7239 91.6706 47.9961 88.6342 47.9961 88.6342Z" fill="#EB937F"/>
<path d="M108.952 84.9932C108.952 84.9932 103.672 95.6742 107.984 101.022C108.816 102.457 104.958 104.3 101.751 98.1364C98.5435 91.9725 108.952 84.9932 108.952 84.9932Z" fill="#EB937F"/>
<path d="M104.186 108.138L104.08 108.302C104.006 108.457 103.909 108.6 103.792 108.725C103.371 109.227 102.858 109.642 102.279 109.949C101.866 110.138 101.436 110.285 100.993 110.388C100.495 110.481 99.9875 110.521 99.4803 110.509C98.9244 110.463 98.3759 110.352 97.8466 110.176L97.0448 109.874L96.2578 109.466C95.7435 109.194 95.2614 108.864 94.8205 108.484C94.3681 108.145 93.9522 107.759 93.5797 107.334C93.1993 106.96 92.8505 106.556 92.537 106.125L91.6897 104.974C91.4477 104.611 91.266 104.234 91.086 103.933C90.906 103.632 90.7683 103.33 90.647 103.102L90.2991 102.377V102.301C90.2278 102.152 90.1278 102.019 90.0048 101.908C89.8817 101.798 89.738 101.713 89.582 101.658C89.426 101.604 89.2606 101.58 89.0955 101.589C88.9304 101.599 88.7687 101.64 88.6198 101.712C88.3172 101.859 88.0852 102.119 87.9746 102.437C87.8641 102.754 87.8839 103.102 88.0298 103.404C88.1039 103.538 88.1962 103.66 88.3042 103.767L88.9397 104.37L89.6356 105.065C89.9228 105.382 90.2257 105.684 90.5433 105.971C91.2567 106.59 92.0563 107.391 92.9338 108.087C93.8594 108.873 94.8751 109.548 95.9598 110.096L96.7918 110.519L97.6841 110.821C98.261 111.009 98.8532 111.145 99.454 111.229C100.023 111.281 100.595 111.281 101.163 111.229C101.672 111.207 102.177 111.146 102.676 111.047C103.473 110.869 104.253 110.622 105.006 110.307C105.245 110.211 105.477 110.1 105.702 109.975L105.929 109.854C106.079 109.774 106.212 109.666 106.32 109.536C106.428 109.405 106.51 109.255 106.56 109.093C106.61 108.93 106.627 108.76 106.611 108.591C106.595 108.423 106.546 108.259 106.466 108.109C106.387 107.959 106.279 107.826 106.148 107.718C106.017 107.61 105.866 107.529 105.704 107.479C105.542 107.43 105.371 107.412 105.202 107.428C105.033 107.444 104.869 107.493 104.719 107.572C104.486 107.696 104.3 107.892 104.189 108.131L104.186 108.138Z" fill="#330E05"/>
<path d="M82.1424 88.8007C84.6668 90.5543 87.7856 90.4321 89.117 88.5267C90.4483 86.6213 89.4951 83.6495 86.9838 81.8959C84.4725 80.1423 81.3406 80.2519 80.0092 82.1529C78.6779 84.054 79.6311 87.0329 82.1424 88.8007Z" fill="#EB937F"/>
<path d="M113.507 100.614C112.379 100.293 111.389 99.61 110.689 98.6708C109.989 97.7316 109.618 96.5885 109.633 95.4178C109.649 94.8968 109.787 94.3868 110.037 93.9293C110.287 93.4718 110.642 93.0798 111.073 92.7852C111.504 92.4906 111.998 92.3019 112.515 92.2342C113.033 92.1666 113.559 92.2221 114.051 92.3961C115.181 92.715 116.175 93.3969 116.878 94.3363C117.58 95.2757 117.954 96.4203 117.939 97.5928C117.925 98.1156 117.787 98.6275 117.536 99.0866C117.285 99.5456 116.928 99.9387 116.496 100.234C116.063 100.528 115.567 100.717 115.047 100.783C114.528 100.849 114 100.791 113.507 100.614Z" fill="#EB937F"/>
<path d="M93.1561 86.6098H93.3827C94.2758 86.5811 95.152 86.3597 95.9512 85.9607C96.7504 85.5616 97.4535 84.9945 98.0123 84.2983C98.2069 84.0335 98.2893 83.7028 98.2419 83.3778C98.1944 83.0528 98.0209 82.7595 97.7587 82.5611C97.4965 82.3628 97.1667 82.2753 96.8405 82.3177C96.5143 82.36 96.2179 82.5288 96.0153 82.7875C95.6778 83.1951 95.2551 83.524 94.7768 83.7512C94.2985 83.9784 93.7762 84.0984 93.2466 84.1027C91.0515 84.1783 88.4206 82.4104 85.6821 79.0419C85.4632 78.8565 85.1867 78.7525 84.8997 78.7478C84.6127 78.7432 84.3329 78.838 84.108 79.0162C83.8832 79.1944 83.7271 79.4449 83.6665 79.7251C83.6059 80.0052 83.6445 80.2977 83.7756 80.5527C87.0146 84.6008 90.1767 86.6098 93.1561 86.6098Z" fill="#330E05"/>
<path d="M113.732 92.8186C115.166 92.7083 116.503 92.0542 117.469 90.9905C117.689 90.7499 117.804 90.4322 117.789 90.1071C117.774 89.7819 117.631 89.4758 117.391 89.2559C117.151 89.0359 116.833 88.92 116.507 88.9336C116.182 88.9472 115.875 89.0892 115.654 89.3284C115.366 89.6304 114.353 90.4792 113.521 90.3252C112.689 90.1713 112.25 89.4484 111.735 88.1952C111.675 88.0447 111.586 87.9075 111.473 87.7916C111.359 87.6756 111.224 87.5832 111.075 87.5195C110.926 87.4559 110.765 87.4223 110.603 87.4207C110.441 87.4191 110.28 87.4495 110.129 87.5102C109.979 87.5709 109.842 87.6607 109.726 87.7744C109.611 87.8881 109.519 88.0235 109.456 88.1728C109.393 88.3221 109.36 88.4823 109.359 88.6443C109.358 88.8064 109.389 88.967 109.451 89.1169C110.329 91.2623 111.554 92.486 113.082 92.7578C113.296 92.7999 113.514 92.8202 113.732 92.8186Z" fill="#330E05"/>
<path d="M36.044 119.786C36.044 119.786 15.9522 130.814 17.5865 164.096C19.2208 197.378 33.896 251.628 26.77 261.476C29.115 266.823 66.1056 283.67 103.187 266.416C101.947 259.844 86.969 194.913 89.7223 177.66C87.9661 162.855 87.1353 171.906 87.1353 171.906L93.7015 166.152C93.7015 166.152 73.2015 190.565 53.3973 149.715C43.9718 130.272 41.8689 126.299 41.8689 126.299L36.044 119.786Z" fill="#8E4155"/>
<path d="M68.4813 230.523C68.4813 228.605 69.5855 228.06 78.634 227.984C77.257 228.166 64.0949 224.495 66.0162 221.624C67.9375 218.754 79.4511 221.624 79.4511 221.624C79.4511 221.624 68.7546 217.092 71.7807 214.841C74.8067 212.59 92.0535 218.754 92.0535 218.754C92.0535 218.754 83.7322 213.346 86.3044 211.082C87.1973 210.296 89.5423 210.659 92.5979 212.593C94.1109 221.536 95.8204 230.873 97.4997 239.226C77.9672 238.333 68.4813 232.275 68.4813 230.523Z" fill="#602437"/>
<path d="M91.4477 205.067C91.4477 205.067 77.7104 199.567 71.8559 192.86C70.131 196.289 69.0269 196.894 69.0269 196.894C69.0269 196.894 33.6848 181.892 32.293 142.93C43.5191 159.548 74.7908 180.413 74.7908 180.413L90.3589 196.895L91.4477 205.067Z" fill="#602437"/>
<path d="M84.6696 166.558C84.6696 166.558 92.3526 177.042 105.034 169.021C116.247 161.777 126.557 153.227 135.746 143.55C137.392 137.796 146.034 127.658 150.149 129.228C154.264 130.798 147.244 139.44 147.244 139.44C147.244 139.44 158.788 137.386 165.399 132.46C172.011 127.535 174.053 131.221 172.404 133.684C176.096 129.152 179.394 130.814 177.336 136.978C175.278 143.142 174.038 156.693 147.274 160.394C140.693 169.852 117.228 203.133 99.1489 201.487C81.0695 199.84 71.9157 189.294 71.9157 189.294L84.6696 166.558Z" fill="#FFAE98"/>
<path d="M34.4712 121.372C37.7842 116.235 53.8983 113.954 68.8748 138.624C83.8513 163.295 87.1358 166.15 87.1358 166.15L69.8582 192.86C69.8582 192.86 53.0653 181.348 43.7605 167.389C34.4558 153.43 26.2404 134.107 34.4712 121.372Z" fill="#8E4155"/>
<path d="M85.9554 167.978L75.8944 192.857L71.8548 189.443L85.9554 167.978Z" fill="#EB937F"/>
<path d="M146.76 85.6881L147.683 85.356C146.927 86.8669 145.958 88.8008 145.414 90.0847C161.435 85.5528 164.976 76.4883 164.976 76.4883C164.976 76.4883 175.006 128.774 189.906 106.325C196.729 104.663 205.973 105.191 207.107 116.099C208.242 127.007 200.662 132.717 189.162 132.31C182.717 132.31 166.619 159.428 181.461 167.888C185.386 170.116 189.428 172.133 193.569 173.929C193.569 173.929 198.002 182.994 193.569 199.023C189.137 215.052 187.427 231.549 195.536 242.457C194.754 237.039 195.552 231.51 197.836 226.533C198.549 233.377 200.862 239.284 205.975 242.457C207.337 238.363 209.41 230.93 213.54 224.569C213.791 228.337 213.791 232.117 213.54 235.885C222.512 234.444 230.715 229.969 236.778 223.21C256.703 215.883 260.455 203.011 255.931 188.631C252.603 178.055 241.83 165.079 236.263 158.915L236.142 158.779C236.012 158.65 235.891 158.514 235.779 158.371C227.185 149.005 224.129 137.07 223.297 127.174C236.551 106.915 227.488 89.0134 221.906 81.1271C221.046 79.6204 219.959 78.2549 218.683 77.0785L218.456 76.8368C215.158 73.9061 210.407 71.912 203.614 71.3678C191.267 40.6694 157.697 47.1961 139.331 59.9919C137.409 61.3099 135.634 62.8292 134.035 64.5238C132.883 65.7132 131.845 67.008 130.934 68.3911C130.798 68.5724 130.677 68.7385 130.556 68.9347L130.42 69.1309C130.118 69.6142 129.816 70.0827 129.542 70.5507L128.786 71.9257C125.202 78.8131 123.838 86.6387 124.882 94.3301C128.181 92.8943 139.74 91.3079 146.76 85.6881ZM241.65 216.533C244.339 211.836 246.245 206.734 247.293 201.426C249.653 190.065 246.93 180.139 242.482 171.211C248.125 178.931 253.496 190.035 252.649 199.81C252.467 203.321 251.353 206.721 249.42 209.66C247.487 212.6 244.805 214.972 241.65 216.534V216.533ZM223.646 111.536C223.811 110.434 223.979 109.33 224.13 108.213C224.665 104.673 225.009 101.108 225.159 97.5315C228.291 109.862 225.873 117.715 223.117 122.262C223.066 118.678 223.258 115.094 223.692 111.536H223.646ZM190.211 170.138C172.222 162.585 180.755 142.945 180.755 142.945C178.501 159.699 185.899 165.606 190.211 170.138ZM174.25 97.9705C177.593 102.502 181.95 106.113 187.442 106.386C185.596 108.274 183.388 109.8 181.784 108.546C178.513 105.613 175.921 102.004 174.189 97.9694L174.25 97.9705Z" fill="#672F18"/>
<path d="M108.422 217.349C104.733 216.732 101.299 215.069 98.5276 212.56C93.8377 208.345 89.9665 207.302 88.769 208.345C86.3028 210.52 94.291 215.717 94.291 215.717C94.291 215.717 77.7246 209.795 74.8347 211.97C71.9448 214.146 82.2028 218.466 82.2028 218.466C82.2028 218.466 71.1435 215.717 69.2974 218.466C67.4513 221.216 80.0998 224.751 81.401 224.509C72.7015 224.585 71.6578 225.112 71.6578 226.956C71.6578 228.801 82.5661 235.628 105.154 235.371C105.799 229.291 106.891 223.267 108.422 217.348L108.422 217.349Z" fill="#FFC2A4"/>
<path d="M187.699 12.4928C182.238 3.32259 172.479 10.982 169.363 13.7768C168.969 9.60706 166.896 -2.59965 156.686 0.497649C142.207 4.87891 163.04 30.0475 163.04 30.0475C163.04 30.0475 195.43 25.47 187.699 12.4928Z" fill="#EF5252"/>
</g>
<defs>
<clipPath id="clip0_1_149">
<rect width="274" height="274" fill="white"/>
</clipPath>
</defs>
</svg>
