<svg width="335" height="303" viewBox="0 0 335 303" fill="none" xmlns="http://www.w3.org/2000/svg">
<g clip-path="url(#clip0_1_193)">
<path d="M151.557 265.125C214.334 265.125 265.224 214.253 265.224 151.5C265.224 88.7466 214.334 37.875 151.557 37.875C88.7799 37.875 37.8892 88.7466 37.8892 151.5C37.8892 214.253 88.7799 265.125 151.557 265.125Z" fill="#134F19" fill-opacity="0.05"/>
<path d="M151.557 303C235.259 303 303.114 235.171 303.114 151.5C303.114 67.8289 235.259 0 151.557 0C67.8543 0 0 67.8289 0 151.5C0 235.171 67.8543 303 151.557 303Z" fill="#134F19" fill-opacity="0.05"/>
<path d="M288.682 296.963C299.331 296.963 307.963 295.504 307.963 293.704C307.963 291.905 299.331 290.446 288.682 290.446C278.034 290.446 269.401 291.905 269.401 293.704C269.401 295.504 278.034 296.963 288.682 296.963Z" fill="#F44336"/>
<path d="M298.095 290.772C298.975 290.055 299.616 289.087 299.932 287.996C300.075 287.45 300.025 286.871 299.791 286.357C299.557 285.843 299.153 285.425 298.647 285.174C298.026 285.058 297.385 285.107 296.79 285.316C296.194 285.526 295.663 285.888 295.252 286.367C294.843 286.847 294.338 287.237 293.77 287.511C293.202 287.785 292.583 287.937 291.952 287.958C292.594 287.375 293.074 286.637 293.347 285.814C293.619 284.991 293.674 284.112 293.506 283.262C293.452 282.909 293.303 282.577 293.074 282.303C292.418 281.603 291.233 281.9 290.446 282.454C287.953 284.209 287.264 287.593 287.243 290.635C287.106 289.522 287.092 288.396 287.2 287.279C287.249 286.716 287.159 286.149 286.937 285.628C286.716 285.108 286.37 284.65 285.93 284.294C285.342 283.976 284.679 283.819 284.011 283.839C283.456 283.758 282.89 283.795 282.35 283.948C281.811 284.1 281.31 284.365 280.88 284.725C280.465 285.285 280.251 285.968 280.273 286.664C280.295 287.36 280.551 288.028 281.001 288.56C281.929 289.602 283.027 290.481 284.247 291.158C285.175 291.711 285.967 292.466 286.563 293.367C286.635 293.493 286.693 293.626 286.736 293.765H293.766C295.337 292.965 296.794 291.958 298.098 290.771L298.095 290.772Z" fill="#F44336"/>
<path d="M64.7505 293.368C75.3991 293.368 84.0315 291.909 84.0315 290.11C84.0315 288.31 75.3991 286.851 64.7505 286.851C54.1018 286.851 45.4694 288.31 45.4694 290.11C45.4694 291.909 54.1018 293.368 64.7505 293.368Z" fill="#F44336"/>
<path d="M72.7248 284.78C73.6053 284.063 74.2461 283.095 74.5617 282.005C74.704 281.458 74.654 280.879 74.42 280.365C74.186 279.851 73.7822 279.433 73.2765 279.181C72.0973 278.726 70.8364 279.55 69.8816 280.375C69.4727 280.855 68.9681 281.244 68.4 281.518C67.8319 281.792 67.2129 281.944 66.5825 281.965C67.2242 281.383 67.7044 280.644 67.9765 279.821C68.2486 278.998 68.3035 278.119 68.1356 277.269C68.0812 276.916 67.9318 276.585 67.7034 276.31C67.0475 275.61 65.8617 275.907 65.0754 276.462C62.582 278.219 61.8927 281.613 61.8715 284.643C61.735 283.529 61.7208 282.404 61.8291 281.287C61.8779 280.723 61.7876 280.156 61.5662 279.636C61.3447 279.115 60.9989 278.657 60.559 278.301C59.9708 277.983 59.3088 277.826 58.6403 277.846C58.085 277.766 57.5189 277.804 56.9793 277.958C56.4397 278.111 55.9387 278.378 55.5091 278.738C55.0944 279.298 54.8807 279.981 54.9027 280.677C54.9247 281.372 55.1811 282.041 55.6304 282.573C56.5559 283.618 57.654 284.496 58.8767 285.171C59.8049 285.724 60.5964 286.48 61.1925 287.381C61.2644 287.507 61.3224 287.641 61.3653 287.779H68.3975C69.9702 286.98 71.4273 285.97 72.729 284.78L72.7248 284.78Z" fill="#F44336"/>
<path d="M247.8 282.753C247.802 282.71 247.802 282.667 247.8 282.624C247.83 282.013 247.713 281.403 247.46 280.846C246.682 279.27 244.812 279.014 243.225 278.741C240.611 278.292 238.107 277.351 235.846 275.965C235.025 275.567 234.307 274.985 233.747 274.264C233.188 273.543 232.802 272.703 232.62 271.809C232.62 271.422 232.648 271.032 232.62 270.678V269.921C232.62 268.909 232.559 267.981 231.809 267.8C229.465 267.127 227.328 265.877 225.592 264.166C223.856 262.454 222.577 260.335 221.872 258.002C221.542 256.967 221.312 255.881 220.884 254.896C219.52 251.753 216.506 250.048 214.224 247.668C211.31 244.251 209.252 240.189 208.222 235.819C206.961 231.456 206.088 226.932 204.433 222.73C201.677 215.716 199.188 208.249 194.512 202.645C193.807 201.797 193.03 200.929 192.209 200.052C188.052 193.984 185.227 186.808 181.626 180.26C180.939 178.918 180.101 177.659 179.128 176.507C177.822 175.223 176.407 174.054 174.898 173.014C167.969 167.607 163.532 159.114 157.568 152.436C156.287 151.151 155.139 149.741 154.14 148.227C154.135 147.407 154.206 146.589 154.35 145.782C154.734 143.793 155.765 141.904 155.587 139.874C155.525 139.479 155.492 139.08 155.487 138.68C155.536 138.219 155.659 137.768 155.851 137.347C156.158 136.433 156.564 135.555 157.063 134.73C157.932 133.395 158.504 131.89 158.741 130.315C159.935 129.184 160.453 127.112 161.943 126.591C162.772 126.303 163.862 126.5 164.341 125.682C164.479 125.401 164.556 125.094 164.566 124.781C164.717 123.162 164.579 121.529 164.159 119.959C164.279 119.129 164.312 118.288 164.255 117.452C164.091 115.365 163.495 113.336 162.504 111.493C162.272 110.902 161.918 110.367 161.466 109.921C161.014 109.476 160.474 109.129 159.88 108.905C159.621 108.848 159.358 108.834 159.109 108.754C157.584 108.308 157.057 105.954 155.681 105.225C157.451 106.184 159.258 107.267 160.922 106.461C163.011 105.44 163.184 102.257 163.027 99.7163L162.471 90.307C162.168 85.5135 161.799 80.4292 159.33 76.4781C157.019 73.116 153.64 70.6331 149.74 69.4321C147.298 68.3412 144.55 68.1427 141.977 68.8715C142.129 68.7655 142.27 68.6607 142.414 68.5685C142.107 68.6597 141.807 68.7716 141.516 68.9037C140.212 69.5669 138.999 70.3986 137.911 71.3774C138.514 69.8512 138.823 68.2247 138.821 66.5839C138.834 64.1287 138.138 61.7219 136.815 59.6531L139.625 57.2897L138.969 56.2201L140.206 55.0414C140.128 54.9156 140.02 54.8117 139.89 54.7396C139.761 54.6674 139.616 54.6295 139.468 54.6293C139.41 54.6246 139.353 54.6246 139.295 54.6293C139.34 54.2773 139.31 53.9198 139.209 53.5797L139.122 53.6615C139.048 53.3681 138.932 53.0868 138.777 52.8265H138.877C138.817 52.7186 138.752 52.6144 138.68 52.5144V52.6659C138.275 52.0701 137.78 51.541 137.213 51.0976C135.194 49.2418 132.655 48.0476 129.938 47.6749C128.644 47.5797 127.343 47.7858 126.049 47.6749C124.303 47.5537 122.611 46.8931 120.861 46.8222C119.964 46.7245 119.059 46.9014 118.266 47.3294C117.472 47.7574 116.827 48.4164 116.416 49.219C116.104 49.9856 116.062 50.8491 115.826 51.643C115.132 53.2905 114.071 54.758 112.724 55.9334C112.053 56.5473 111.528 57.3042 111.19 58.1482C110.851 58.9921 110.707 59.9014 110.767 60.8087C110.898 61.3876 111.102 61.9476 111.374 62.4752L117.449 75.589C117.474 76.5494 117.446 77.5104 117.363 78.4675C117.323 78.8796 117.272 79.2968 117.212 79.7189C117.182 79.8965 117.151 80.0783 117.105 80.2601C116.387 80.3819 115.736 80.7584 115.273 81.3206C115.099 81.5388 114.989 81.8011 114.956 82.0781C114.991 82.5174 115.068 82.9523 115.186 83.3768C115.196 83.9426 115.063 84.5017 114.798 85.0021C114.277 86.4336 113.501 87.7589 112.507 88.9138C112.082 89.3501 111.605 89.7137 111.179 90.1452C110.692 90.664 110.248 91.2213 109.851 91.8117C108.868 93.0181 108.146 94.415 107.73 95.9143C107.193 98.4546 106.109 100.871 105.332 103.348C105.221 103.547 105.084 103.731 104.924 103.893C104.445 104.348 103.833 104.536 103.361 104.977C102.3 105.974 102.402 107.795 102.661 109.314C103.591 114.961 105.222 120.459 105.869 126.154C106.035 128.397 106.323 130.629 106.732 132.841C106.915 133.783 107.264 134.686 107.762 135.507C107.912 137.623 107.707 139.748 107.156 141.796C106.801 142.688 106.307 143.502 105.875 144.357C105.278 145.586 104.748 146.847 104.289 148.133L101.685 154.987C101.206 156.285 100.697 157.593 100.321 158.946C99.3935 162.958 99.0798 167.087 99.3903 171.193C99.4097 171.32 99.3823 171.449 99.3133 171.557C99.2363 171.652 99.0538 171.624 99.0496 171.496C99.0162 171.736 98.8817 172.144 98.8526 172.378C100.057 172.813 101.361 172.897 102.611 172.621V172.999C102.609 173.03 102.609 173.06 102.611 173.09C102.623 173.481 102.664 173.871 102.732 174.256V174.284C102.766 174.481 102.81 174.672 102.854 174.865C102.848 174.918 102.861 174.971 102.891 175.016C102.934 175.189 102.982 175.366 103.036 175.534C103.065 175.625 103.088 175.707 103.117 175.793C103.146 175.879 103.188 176.004 103.228 176.105C103.267 176.206 103.27 176.234 103.294 176.298C103.611 177.122 103.99 177.917 104.355 178.722C104.973 179.967 105.386 181.304 105.578 182.681C105.607 182.997 105.616 183.314 105.631 183.639V183.97C105.641 184.311 105.67 184.652 105.717 184.991C105.804 185.536 105.967 186.06 106.096 186.597C106.174 186.913 106.231 187.239 106.289 187.555C106.347 187.872 106.4 188.289 106.441 188.654C106.802 191.364 107.069 194.08 107.241 196.803C107.285 197.459 107.323 198.121 107.356 198.772C107.582 203.566 107.524 208.359 107.466 213.181C107.435 214.754 107.275 216.322 106.988 217.869C106.187 222.414 104.532 226.818 103.44 231.322C103.325 231.801 103.219 232.281 103.119 232.759C102.876 233.775 102.715 234.809 102.64 235.85C102.632 237.239 102.758 238.626 103.014 239.992C103.25 241.648 103.432 243.315 103.559 244.992C102.675 246.551 102.099 248.267 101.862 250.044C101.282 255.377 96.7605 259.38 96.147 264.716C96.1061 265.055 96.0915 265.396 96.1033 265.737C96.089 265.958 96.089 266.179 96.1033 266.4C96.0394 266.966 96.0884 267.54 96.2476 268.087C96.475 268.661 96.8564 269.161 97.3496 269.532C97.8429 269.904 98.429 270.132 99.0435 270.191C100.226 270.248 101.411 270.131 102.56 269.846C103.087 269.755 103.621 269.695 104.142 269.644C104.156 269.826 104.156 270.008 104.142 270.19C103.893 270.635 103.682 271.099 103.508 271.579C103.213 272.141 103.029 272.754 102.968 273.386C102.95 274.13 103.138 274.864 103.513 275.507C104.127 276.499 104.977 277.325 105.986 277.91C106.996 278.496 108.134 278.823 109.301 278.863C111.557 278.877 113.812 278.736 116.048 278.439H116.431C116.51 278.648 116.604 278.851 116.715 279.045C117.328 280.037 118.177 280.863 119.186 281.448C120.195 282.033 121.333 282.361 122.498 282.401C124.756 282.417 127.012 282.278 129.25 281.984C129.922 281.951 130.598 281.951 131.269 281.902C132.647 281.798 134.01 281.55 135.335 281.16C136.29 282.516 137.384 283.768 138.602 284.895C142.552 288.25 148.015 288.058 152.954 287.402C157.894 286.746 163.46 285.528 167.958 287.881C171.414 287.502 173.468 292.98 176.935 293.119C177.752 293.052 178.545 292.814 179.263 292.421C179.982 292.028 180.61 291.489 181.107 290.838C181.503 290.325 182.012 289.91 182.594 289.626C183.076 289.483 183.587 289.466 184.077 289.577C186.763 290.062 189.176 291.518 190.857 293.668C191.73 294.759 192.621 296.135 193.931 296.165C195.106 296.165 196.147 295.057 197.312 295.206C198.091 295.461 198.813 295.868 199.434 296.404C201.581 297.677 204.229 296.5 206.29 295.099C208.351 293.699 210.558 292.009 212.975 292.262C214.531 292.629 216.023 293.229 217.4 294.041C219.696 294.967 222.231 295.124 224.623 294.488C227.016 293.852 229.138 292.457 230.669 290.512C231.183 289.87 231.71 289.128 232.467 288.959C232.973 288.897 233.487 288.974 233.953 289.18C236.581 290.295 239.461 290.681 242.289 290.297C243.758 289.987 245.087 289.207 246.073 288.075C247.059 286.943 247.65 285.521 247.755 284.023C247.759 283.831 247.751 283.639 247.731 283.448C247.731 283.326 247.755 283.205 247.755 283.078C247.777 282.971 247.792 282.862 247.8 282.753ZM138.955 102.658C138.763 103.162 138.43 103.601 137.996 103.923C137.958 103.717 137.919 103.511 137.875 103.3C137.702 102.409 137.505 101.522 137.294 100.64C137.934 101.05 138.617 101.388 139.332 101.646C139.193 101.98 139.078 102.342 138.939 102.658H138.955ZM131.926 81.0237V81.1237C131.86 81.7368 131.958 82.3564 132.211 82.9189C132.464 83.4815 132.862 83.9666 133.364 84.3245C132.412 86.1711 131.919 88.2195 131.926 90.2967C131.591 90.0636 131.271 89.8107 130.966 89.5392C130.441 88.9991 130.014 88.3716 129.705 87.6848C129.843 87.7089 129.984 87.6876 130.108 87.6242C130.351 87.4557 130.343 87.0637 130.31 86.7467C129.986 83.7372 130.392 80.694 131.495 77.8749C132.056 77.676 132.597 77.4256 133.112 77.1271C132.399 78.2841 131.995 79.6043 131.937 80.9619C131.925 80.9802 131.917 81.0008 131.913 81.0224L131.926 81.0237ZM155.393 105.082C155.144 106.012 155.007 106.968 154.985 107.93C154.116 106.597 152.834 105.586 151.335 105.052C151.159 104.999 150.98 104.956 150.799 104.922C150.911 104.813 151.031 104.711 151.158 104.619C152.534 103.661 154.083 104.332 155.665 105.171C155.571 105.136 155.475 105.107 155.377 105.085L155.393 105.082Z" fill="url(#paint0_linear_1_193)"/>
<path d="M98.4197 279.017C98.4004 279.785 98.6161 280.541 99.0381 281.183C99.7941 282.223 100.782 283.073 101.924 283.664C103.066 284.256 104.331 284.573 105.617 284.591C108.18 284.605 110.742 284.463 113.289 284.166C114.056 284.133 114.822 284.129 115.586 284.085C119.55 283.646 123.428 282.625 127.094 281.055C127.701 280.829 128.422 280.465 128.458 279.818C128.443 279.595 128.378 279.377 128.269 279.181C128.159 278.985 128.008 278.816 127.825 278.686C127.335 278.258 126.783 277.906 126.188 277.641C124.107 276.732 121.614 276.965 119.641 275.838C119.224 275.563 118.794 275.311 118.351 275.081C117.818 274.867 117.256 274.737 116.684 274.697C114.21 274.415 111.708 274.497 109.257 274.939C107.412 275.383 105.544 275.726 103.662 275.965C102.945 276.027 102.222 275.98 101.519 275.826C101.04 275.715 100.428 275.284 99.9741 275.572C99.5206 275.859 99.2648 276.774 99.0484 277.182C98.7135 277.743 98.4998 278.367 98.4209 279.016L98.4197 279.017Z" fill="#3F3D56"/>
<path opacity="0.05" d="M98.4197 279.017C98.4004 279.785 98.6161 280.541 99.0381 281.183C99.7941 282.223 100.782 283.073 101.924 283.664C103.066 284.256 104.331 284.573 105.617 284.591C108.18 284.605 110.742 284.463 113.289 284.166C114.056 284.133 114.822 284.129 115.586 284.085C119.55 283.646 123.428 282.625 127.094 281.055C127.701 280.829 128.422 280.465 128.458 279.818C128.443 279.595 128.378 279.377 128.269 279.181C128.159 278.985 128.008 278.816 127.825 278.686C127.335 278.258 126.783 277.906 126.188 277.641C124.107 276.732 121.614 276.965 119.641 275.838C119.224 275.563 118.794 275.311 118.351 275.081C117.818 274.867 117.256 274.737 116.684 274.697C114.21 274.415 111.708 274.497 109.257 274.939C107.412 275.383 105.544 275.726 103.662 275.965C102.945 276.027 102.222 275.98 101.519 275.826C101.04 275.715 100.428 275.284 99.9741 275.572C99.5206 275.859 99.2648 276.774 99.0484 277.182C98.7135 277.743 98.4998 278.367 98.4209 279.016L98.4197 279.017Z" fill="black"/>
<path d="M113.436 282.612C113.414 283.381 113.63 284.137 114.054 284.778C114.81 285.819 115.798 286.669 116.94 287.261C118.083 287.853 119.347 288.17 120.634 288.187C123.197 288.201 125.759 288.06 128.306 287.763C129.072 287.73 129.835 287.725 130.603 287.681C134.567 287.242 138.445 286.221 142.111 284.651C142.717 284.421 143.438 284.062 143.475 283.41C143.459 283.187 143.394 282.97 143.284 282.776C143.175 282.581 143.023 282.412 142.841 282.283C142.352 281.853 141.8 281.5 141.204 281.238C139.124 280.329 136.63 280.557 134.657 279.43C134.22 279.187 133.823 278.874 133.367 278.672C132.834 278.459 132.272 278.328 131.7 278.285C129.225 278.005 126.724 278.089 124.274 278.534C122.429 278.978 120.561 279.319 118.678 279.555C117.961 279.62 117.238 279.575 116.535 279.42C116.056 279.309 115.447 278.877 114.99 279.165C114.534 279.453 114.277 280.368 114.065 280.775C113.727 281.336 113.513 281.962 113.436 282.612Z" fill="#3F3D56"/>
<path d="M105.59 103.179C105.416 102.696 105.099 102.278 104.681 101.98C103.679 101.424 102.494 102.459 102.057 103.495C101.621 104.532 101.477 105.81 100.619 106.564C100.096 107.042 99.3776 107.215 98.8398 107.667C97.6413 108.679 97.7608 110.545 98.0439 112.077C99.1048 117.834 100.96 123.418 101.698 129.213C101.889 131.499 102.209 133.772 102.657 136.021C102.909 137.361 103.581 138.587 104.576 139.52C105.084 139.97 105.733 140.229 106.411 140.252C107.089 140.275 107.754 140.062 108.292 139.649C106.506 134.809 105.614 129.685 105.659 124.526C105.688 121.171 106.138 117.815 106.231 114.421C106.331 111.459 106.182 108.491 106.034 105.53C106.047 104.769 105.902 104.013 105.61 103.31C105.455 102.963 105.2 102.67 104.878 102.467C104.557 102.265 104.182 102.163 103.802 102.174" fill="#FBBEBE"/>
<path d="M127.122 80.6194C133.788 80.6194 139.192 75.2176 139.192 68.554C139.192 61.8904 133.788 56.4885 127.122 56.4885C120.456 56.4885 115.052 61.8904 115.052 68.554C115.052 75.2176 120.456 80.6194 127.122 80.6194Z" fill="#CB8C8E"/>
<path d="M143.385 104.824C150.072 104.824 155.492 99.405 155.492 92.7207C155.492 86.0364 150.072 80.6177 143.385 80.6177C136.698 80.6177 131.277 86.0364 131.277 92.7207C131.277 99.405 136.698 104.824 143.385 104.824Z" fill="#FBBEBE"/>
<path d="M148.369 104.44C148.475 105.399 148.848 106.515 149.763 106.759C150.188 106.81 150.615 106.833 151.043 106.83C151.383 106.893 151.703 107.036 151.978 107.246C152.252 107.457 152.472 107.73 152.619 108.042C152.908 108.676 153.023 109.376 152.95 110.069C152.871 111.123 152.531 112.141 151.962 113.031C150.882 114.576 149.321 115.719 147.521 116.281C145.735 116.831 143.891 117.171 142.026 117.293C141.2 117.425 140.356 117.399 139.54 117.215C139.026 117.048 138.541 116.803 138.102 116.488C136.736 115.573 135.54 114.428 134.567 113.104C133.854 112.182 133.338 111.123 133.052 109.994C132.776 108.858 132.935 107.661 133.497 106.638C133.671 106.3 133.956 106.032 134.304 105.88C135.33 105.51 136.26 106.781 137.348 106.81C137.776 106.758 138.181 106.589 138.52 106.322C138.858 106.054 139.117 105.699 139.267 105.295C139.543 104.481 139.921 103.704 140.392 102.985C141.112 102.272 142.032 101.797 143.03 101.621C144.759 101.032 146.574 100.734 148.401 100.739C149.31 100.83 148.718 101.377 148.507 102.038C148.294 102.821 148.246 103.639 148.367 104.441L148.369 104.44Z" fill="#FBBEBE"/>
<path d="M136.956 117.072C138.428 116.409 139.243 114.814 140.557 113.871C141.736 113.197 142.992 112.668 144.298 112.295C145.579 111.785 146.751 111.037 147.753 110.091C148.548 109.127 149.527 108.332 150.633 107.751C151.516 107.471 152.464 107.471 153.347 107.751C154.572 108.164 155.697 108.83 156.647 109.706C157.597 110.582 158.351 111.649 158.861 112.837C159.862 115.218 160.521 117.729 160.818 120.296L161.44 124.13C161.903 126.474 162.127 128.86 162.107 131.25C162.081 133.656 161.321 135.998 159.931 137.962C159.368 138.792 158.904 139.685 158.545 140.622C158.33 141.049 158.192 141.511 158.138 141.986C158.142 142.392 158.179 142.797 158.248 143.198C158.45 145.258 157.289 147.181 156.839 149.203C156.605 150.559 156.535 151.937 156.628 153.31C156.617 153.489 156.654 153.668 156.735 153.828C156.838 153.972 156.979 154.085 157.142 154.153C157.459 154.322 157.785 154.479 158.102 154.632C155.455 155.22 152.75 155.506 150.039 155.485C145.288 155.374 140.642 154.047 135.928 153.496C135.956 151.344 136.141 149.197 136.479 147.072C136.506 145.658 136.418 144.244 136.216 142.844C135.82 139.017 135.857 135.157 136.326 131.339C136.49 129.996 136.709 128.659 136.771 127.308C136.843 125.706 136.701 124.1 136.816 122.514C136.927 120.999 137.295 119.484 137.334 117.969C137.381 117.799 137.369 117.618 137.301 117.456C137.233 117.293 137.112 117.158 136.958 117.072L136.956 117.072Z" fill="#F4F6FB"/>
<path d="M142.306 151.132C147.274 151.161 151.653 151.305 156.605 151.646C157.478 153.083 155.393 156.962 156.572 158.149C163.362 164.952 164.873 174.092 172.758 179.602C174.395 180.743 178.992 181.668 180.43 183.077C181.558 184.193 179.836 183.398 180.67 184.755C185.465 192.578 196.28 200.3 202.545 207.025C207.859 212.721 210.697 220.327 213.833 227.464C215.496 231.828 216.937 236.275 218.15 240.785C219.373 245.315 221.724 249.46 224.983 252.836C227.582 255.26 231.02 256.996 232.561 260.194C232.994 261.227 233.371 262.283 233.688 263.358C234.595 265.828 236.104 268.033 238.079 269.773C240.053 271.513 242.43 272.733 244.996 273.323C246.39 273.626 245.754 275.955 245.897 277.379C246.094 279.324 247.854 280.712 249.571 281.641C252.183 283.059 255.02 284.015 257.958 284.465C259.762 284.737 261.89 285.005 262.753 286.603C263.041 287.164 263.174 287.791 263.141 288.421C263.081 291.632 260.073 294.178 256.908 294.805C253.704 295.2 250.452 294.81 247.433 293.668C246.895 293.457 246.314 293.38 245.74 293.443C244.908 293.743 244.192 294.296 243.692 295.025C241.813 297.046 239.377 298.465 236.691 299.104C234.006 299.743 231.191 299.573 228.602 298.615C227.016 297.779 225.322 297.168 223.567 296.797C220.815 296.538 218.327 298.264 215.958 299.676C213.59 301.088 210.598 302.292 208.156 300.999C207.433 300.458 206.622 300.048 205.758 299.787C204.431 299.635 203.245 300.784 201.923 300.745C200.436 300.717 199.415 299.308 198.422 298.204C196.403 295.98 193.674 294.524 190.701 294.087C190.144 293.97 189.567 293.987 189.017 294.135C188.368 294.416 187.789 294.838 187.324 295.371C186.727 296.053 186 296.609 185.186 297.007C184.372 297.405 183.486 297.638 182.582 297.691C178.641 297.552 176.291 291.978 172.364 292.358C167.243 289.962 160.903 291.198 155.288 291.88C149.673 292.561 143.453 292.757 138.956 289.33C136.587 287.512 134.981 284.887 132.773 282.877C129.287 279.705 124.574 278.319 120.032 277.025C112.839 274.974 105.369 272.904 97.9741 274.02C96.6574 274.3 95.3112 274.418 93.9658 274.37C93.2909 274.337 92.6379 274.12 92.077 273.743C91.5162 273.366 91.0688 272.844 90.7831 272.232C90.5777 271.588 90.5315 270.904 90.6485 270.238C91.3445 264.811 96.4895 260.737 97.1454 255.306C97.6472 252.646 98.7879 250.147 100.469 248.025C101.783 246.032 102.983 243.966 104.061 241.837C106.716 237.107 109.071 232.214 111.11 227.188C113.019 221.816 114.563 216.322 115.733 210.743C116.98 205.389 117.575 199.905 118.472 194.48C119.124 190.541 120.139 186.662 121.167 182.793C124.187 171.366 127.229 159.871 132.196 149.16C135.468 150.252 138.869 150.915 142.312 151.132L142.306 151.132Z" fill="#E3E8F4"/>
<path d="M142.306 152.569C147.274 152.598 151.653 152.266 156.605 152.603C157.755 154.161 159.064 155.595 160.511 156.882C167.301 163.7 172.346 172.322 180.224 177.824C181.922 178.869 183.527 180.059 185.019 181.381C186.117 182.541 187.072 183.828 187.863 185.216C192.658 193.043 196.259 201.753 202.525 208.477C207.839 214.173 210.677 221.779 213.813 228.916C215.475 233.28 216.915 237.726 218.128 242.235C219.351 246.765 221.702 250.91 224.961 254.286C227.561 256.71 230.998 258.446 232.539 261.644C232.972 262.677 233.348 263.733 233.665 264.807C234.572 267.277 236.081 269.483 238.056 271.223C240.03 272.963 242.408 274.183 244.973 274.773C246.368 275.076 245.731 277.404 245.875 278.829C246.072 280.775 247.832 282.162 249.549 283.09C252.161 284.508 254.998 285.464 257.936 285.914C259.74 286.187 261.868 286.456 262.732 288.051C263.019 288.613 263.153 289.24 263.12 289.869C263.059 293.081 260.051 295.627 256.886 296.254C253.682 296.649 250.43 296.259 247.411 295.117C246.873 294.906 246.293 294.829 245.718 294.892C244.887 295.192 244.17 295.745 243.671 296.474C241.791 298.495 239.355 299.914 236.669 300.553C233.984 301.192 231.169 301.022 228.58 300.064C226.994 299.228 225.3 298.617 223.546 298.246C220.793 297.987 218.305 299.713 215.936 301.125C213.568 302.537 210.575 303.743 208.134 302.447C207.411 301.907 206.6 301.497 205.737 301.235C204.409 301.084 203.224 302.232 201.901 302.194C200.414 302.166 199.392 300.757 198.4 299.653C196.389 297.426 193.669 295.964 190.701 295.517C190.143 295.401 189.567 295.418 189.017 295.566C188.367 295.846 187.789 296.269 187.324 296.802C186.727 297.483 186 298.039 185.186 298.438C184.372 298.836 183.486 299.068 182.582 299.122C178.641 298.983 176.291 293.409 172.364 293.789C167.242 291.392 160.906 292.629 155.288 293.31C149.67 293.992 143.453 294.188 138.956 290.761C136.588 288.943 134.981 286.317 132.773 284.309C129.287 281.136 124.574 279.75 120.032 278.456C112.839 276.405 105.369 274.335 97.9742 275.45C96.6574 275.731 95.3112 275.848 93.9658 275.8C93.2909 275.767 92.6379 275.55 92.077 275.174C91.5162 274.797 91.0688 274.275 90.7831 273.663C90.5779 273.019 90.5317 272.335 90.6485 271.669C91.3439 266.242 96.4895 262.169 97.1454 256.737C97.647 254.077 98.7875 251.578 100.469 249.456C101.783 247.463 102.982 245.397 104.061 243.267C106.716 238.537 109.07 233.645 111.11 228.619C113.018 223.247 114.563 217.753 115.732 212.174C116.98 206.82 117.574 201.335 118.471 195.91C119.123 191.971 120.138 188.093 121.166 184.224C124.187 172.796 127.228 161.302 132.194 150.591C135.465 151.685 138.864 152.35 142.306 152.569Z" fill="#E3E8F4"/>
<path d="M142.306 151.612C147.277 151.64 151.653 151.309 156.605 151.645C157.756 153.203 159.065 154.637 160.511 155.925C167.301 162.742 172.346 171.364 180.224 176.866C181.922 177.911 183.527 179.101 185.019 180.423C186.117 181.583 187.072 182.871 187.862 184.258C192.658 192.086 196.259 200.796 202.525 207.52C207.839 213.216 210.677 220.821 213.813 227.958C215.475 232.322 216.915 236.768 218.128 241.278C219.351 245.807 221.702 249.953 224.962 253.328C227.561 255.752 230.998 257.488 232.54 260.686C232.972 261.719 233.348 262.775 233.665 263.85C234.572 266.32 236.081 268.525 238.056 270.265C240.03 272.005 242.407 273.225 244.973 273.815C246.367 274.118 245.731 276.447 245.875 277.871C246.072 279.818 247.831 281.204 249.549 282.133C252.16 283.551 254.998 284.506 257.936 284.956C259.739 285.229 261.867 285.501 262.731 287.094C263.018 287.655 263.152 288.282 263.119 288.912C263.058 292.124 260.05 294.669 256.886 295.296C253.682 295.691 250.43 295.301 247.41 294.16C246.873 293.949 246.292 293.871 245.718 293.935C244.886 294.234 244.17 294.787 243.67 295.516C241.79 297.537 239.354 298.957 236.669 299.596C233.983 300.235 231.169 300.065 228.58 299.107C226.994 298.271 225.299 297.659 223.545 297.289C220.793 297.03 218.304 298.755 215.936 300.167C213.567 301.579 210.575 302.785 208.134 301.49C207.411 300.95 206.599 300.539 205.736 300.278C204.408 300.126 203.223 301.274 201.9 301.237C200.413 301.208 199.392 299.799 198.399 298.696C196.389 296.469 193.668 295.007 190.7 294.561C190.143 294.444 189.566 294.461 189.016 294.609C188.367 294.889 187.788 295.312 187.324 295.845C186.726 296.527 185.999 297.083 185.185 297.481C184.371 297.879 183.486 298.112 182.581 298.165C178.641 298.026 176.29 292.452 172.363 292.835C167.242 290.438 160.905 291.675 155.287 292.357C149.67 293.038 143.453 293.233 138.956 289.807C136.587 287.989 134.98 285.363 132.772 283.355C129.286 280.183 124.573 278.796 120.031 277.502C112.838 275.451 105.368 273.381 97.9735 274.496C96.6568 274.777 95.3106 274.894 93.9652 274.846C93.2902 274.813 92.6372 274.596 92.0763 274.22C91.5155 273.843 91.0681 273.32 90.7825 272.708C90.5773 272.064 90.5311 271.38 90.6479 270.714C91.3432 265.288 96.4889 261.214 97.1448 255.783C97.6464 253.122 98.7869 250.624 100.468 248.502C101.782 246.508 102.981 244.442 104.06 242.312C106.715 237.582 109.069 232.69 111.109 227.664C113.017 222.292 114.561 216.798 115.731 211.219C116.979 205.865 117.573 200.381 118.47 194.955C119.122 191.016 120.137 187.138 121.165 183.269C124.186 171.841 127.227 160.347 132.193 149.636C135.466 150.729 138.866 151.393 142.309 151.611L142.306 151.612Z" fill="#F4F6FB"/>
<path d="M99.0599 173.608C97.4777 175.339 97.8365 178.093 98.7568 180.243C99.677 182.393 101.088 184.413 101.347 186.742C101.433 187.518 101.385 188.305 101.52 189.077C101.62 189.633 101.808 190.167 101.952 190.713C102.127 191.404 102.261 192.105 102.355 192.813C102.862 196.226 103.208 199.666 103.39 203.115C103.653 207.995 103.587 212.888 103.519 217.78C103.424 224.62 100.162 231.024 98.5749 237.676C98.296 238.705 98.1134 239.758 98.0293 240.821C98.0221 242.236 98.1616 243.648 98.4458 245.035C99.8468 253.76 99.5618 262.674 97.6062 271.293C98.3522 271.838 98.9395 272.572 99.3078 273.42C99.6761 274.267 99.8122 275.197 99.7019 276.114C102.794 276.657 106.031 277.188 109.009 276.205C110.72 275.405 112.482 274.717 114.283 274.145C115.721 273.881 117.386 274.016 118.405 272.971C118.818 272.483 119.119 271.91 119.287 271.294C122.797 261.084 121.813 249.969 121.618 239.176C121.512 233.376 121.618 227.571 121.398 221.776C120.965 211.444 119.343 201.196 116.565 191.234C115.471 186.395 113.695 181.736 111.291 177.396C110.76 176.413 110.008 175.566 109.094 174.922C108.044 174.382 106.889 174.076 105.708 174.025C103.265 173.762 101.506 173.887 99.0599 173.608Z" fill="#3F3D56"/>
<path opacity="0.05" d="M119.291 271.296C119.121 271.909 118.82 272.478 118.409 272.963C117.392 274.012 115.723 273.872 114.29 274.141C114.108 274.175 113.926 274.219 113.748 274.263C112.111 274.699 110.636 275.662 109.02 276.181C105.954 276.901 102.759 276.869 99.708 276.09C99.8183 275.172 99.6824 274.241 99.314 273.392C98.9456 272.544 98.358 271.809 97.6116 271.263C99.5689 262.646 99.8556 253.734 98.4561 245.01C98.1669 243.624 98.0247 242.212 98.0317 240.796C98.1178 239.734 98.3004 238.681 98.5774 237.651C100.154 230.993 103.427 224.589 103.521 217.749C103.588 212.86 103.656 207.965 103.397 203.087C103.208 199.635 102.861 196.201 102.355 192.785C102.261 192.078 102.128 191.377 101.957 190.685C101.786 190.147 101.642 189.601 101.525 189.049C101.386 188.282 101.435 187.491 101.348 186.714C101.09 184.384 99.6886 182.372 98.758 180.219C98.3696 179.333 98.1173 178.393 98.0093 177.432C97.8992 176.755 97.9355 176.062 98.1159 175.401C98.2963 174.739 98.6166 174.124 99.0551 173.597C100.699 173.779 102.026 173.774 103.467 173.839C104.171 173.868 104.905 173.916 105.705 174.008C106.887 174.053 108.045 174.359 109.095 174.905C110.007 175.548 110.758 176.395 111.286 177.379C111.545 177.796 111.789 178.218 112.024 178.644C114.017 182.647 115.539 186.866 116.56 191.219C119.338 201.181 120.96 211.429 121.393 221.761C121.636 227.556 121.509 233.361 121.615 239.166C121.823 249.976 122.801 261.082 119.291 271.296Z" fill="black"/>
<path d="M136.97 177.367V179.888C136.947 187.986 136.927 196.082 136.909 204.176C136.967 207.508 136.851 210.84 136.564 214.16C135.715 222.796 132.562 231.143 132.896 239.78C133.388 246.047 133.125 252.351 132.114 258.555C131.635 260.914 130.935 263.233 130.589 265.615C130.149 268.002 130.37 270.464 131.227 272.735C131.908 274.321 133.053 275.826 132.991 277.529C132.92 278.263 132.678 278.97 132.283 279.593C131.888 280.216 131.352 280.737 130.718 281.115C129.443 281.855 128.029 282.327 126.565 282.499C124.738 282.801 122.888 282.943 121.036 282.924C118.384 282.895 115.363 282.318 113.992 280.045C113.176 278.436 113.029 276.57 113.584 274.853C113.637 274.651 113.69 274.454 113.748 274.259C114.202 272.744 114.839 271.297 115.186 269.762C115.74 267.341 115.561 264.81 114.672 262.49C114.508 262.058 113.996 261.243 113.535 261.297C112.905 259.36 112.582 257.337 112.576 255.3L111.9 241.544C111.629 238.554 111.739 235.542 112.227 232.58C112.705 230.183 113.727 227.902 114.015 225.472C114.144 224.01 114.136 222.539 113.991 221.078C113.453 213.562 112.479 206.082 111.075 198.679C111.028 198.303 110.902 197.942 110.705 197.618C110.388 197.177 109.837 196.971 109.449 196.588C108.633 195.792 108.71 194.492 108.518 193.367C107.947 191.387 107.022 189.526 105.79 187.874C104.137 185.017 103.211 181.799 103.094 178.501C103.035 176.94 103.163 175.377 103.473 173.847C103.511 173.641 103.56 173.434 103.608 173.228C114.059 172.561 124.553 173.206 134.844 175.146C135.225 175.162 135.598 175.263 135.935 175.442C136.272 175.621 136.564 175.874 136.791 176.181C136.943 176.556 137.005 176.961 136.973 177.364L136.97 177.367Z" fill="#3F3D56"/>
<path d="M195.845 215.096C201.178 224.077 206 233.35 210.289 242.874C213.623 250.662 216.351 258.96 221.946 265.326C227.183 271.284 234.413 275.004 241.515 278.583L235.15 272.978C228.768 267.345 222.251 261.555 218.2 254.071C216.167 249.9 214.406 245.602 212.926 241.205C208.673 230.049 202.751 219.603 195.362 210.224C193.308 207.531 191.1 204.959 188.748 202.522C190.374 206.835 193.552 211.066 195.845 215.096Z" fill="#E3E8F4"/>
<path d="M169.523 277.298C170.93 280.564 172.782 283.619 175.027 286.377C175.229 284.795 174.145 283.377 173.286 282.035C171.836 279.543 170.68 276.89 169.843 274.131C168.97 271.615 168.16 268.144 166.304 266.155C165.358 269.562 168.086 274.366 169.523 277.298Z" fill="#E3E8F4"/>
<path d="M151.541 217.505C151.996 219.902 152.255 222.299 152.86 224.643C153.453 226.749 154.182 228.814 155.042 230.827L165.149 256.01C165.063 252.588 163.23 249.496 162.066 246.28C160.628 242.341 160.109 238.131 158.935 234.077C157.975 230.789 156.586 227.649 155.578 224.381C154.178 219.765 153.589 214.942 152.487 210.246C151.495 206.18 150.257 202.178 148.78 198.262C148.249 196.358 147.245 194.62 145.859 193.209C145.145 192.531 144.21 192.131 143.225 192.083C142.24 192.036 141.271 192.343 140.494 192.95C138.524 194.901 141.511 196.124 142.495 197.393C147.04 203.305 150.134 210.201 151.528 217.526L151.541 217.505Z" fill="#E3E8F4"/>
<path d="M165.104 165.478C165.64 166.019 166.108 166.625 166.495 167.281C166.903 168.342 167.383 169.374 167.933 170.369C166.732 168.686 165.361 167.131 163.841 165.729C162.921 164.938 161.923 164.258 160.998 163.467C160.294 162.861 157.209 160.246 157.815 159.354C160.57 160.974 163.033 163.044 165.104 165.478Z" fill="#E3E8F4"/>
<path d="M133.015 75.4213C132.802 76.4018 132.378 77.3242 131.772 78.124C130.248 80.6552 129.398 83.5343 129.303 86.4868C129.275 87.3531 129.313 88.2202 129.419 89.0805C129.457 89.4017 129.467 89.8047 129.188 89.9726C129.039 90.0413 128.871 90.0624 128.709 90.0331C128.384 90.0041 128.067 89.9665 127.75 89.912C122.625 89.0926 118.135 85.5972 112.976 84.7155C113.295 84.5651 113.577 84.3482 113.805 84.0796C114.032 83.811 114.199 83.4967 114.295 83.1581C114.434 82.7717 114.538 82.3738 114.607 81.9691C114.684 81.5419 114.742 81.1165 114.785 80.6965C114.928 77.673 114.822 74.6429 114.468 71.6368C114.271 67.9838 118.784 69.1874 121.43 69.1401C123.557 68.9991 125.693 69.1686 127.77 69.6431C128.809 69.887 129.783 70.3515 130.626 71.005C131.469 71.6586 132.161 72.4858 132.656 73.4306C132.951 74.0479 133.075 74.7327 133.015 75.414L133.015 75.4213Z" fill="#CB8C8E"/>
<path d="M129.188 89.9731C129.039 90.0419 128.871 90.0631 128.709 90.0337C128.384 90.0046 128.067 89.9671 127.75 89.9125C127.309 89.5004 126.881 89.0684 126.474 88.6187C125.578 87.4988 124.597 86.4493 123.54 85.4796C121.822 84.1455 119.721 83.3965 117.546 83.3423C116.459 83.3713 115.372 83.3105 114.295 83.1605C114.434 82.7738 114.538 82.3758 114.607 81.9709C114.685 81.5467 114.742 81.1183 114.785 80.7013C115.388 80.6238 115.995 80.5807 116.604 80.5722C117.315 80.4693 118.036 80.4547 118.751 80.5286C119.918 80.8088 121.031 81.2786 122.046 81.9194C123.565 82.5857 125.04 83.3478 126.462 84.201C126.886 84.504 127.286 84.8233 127.69 85.1597C128.235 85.6051 128.781 86.0565 129.326 86.4971C129.298 87.3633 129.336 88.2305 129.442 89.0908C129.456 89.3986 129.466 89.8065 129.188 89.9731Z" fill="#E3E8F4"/>
<path opacity="0.1" d="M136.97 177.365V179.886C134.976 179.947 132.937 180.236 130.952 180.367C129.086 180.501 127.216 180.506 125.344 180.482C123.881 180.518 122.419 180.357 120.999 180.003C119.977 179.7 119.018 179.215 118.003 178.912C116.054 178.404 114.021 178.309 112.033 178.633C110.384 178.826 108.72 179.114 107.074 179.262C106.009 179.411 104.923 179.299 103.91 178.936C103.626 178.807 103.354 178.655 103.094 178.482C102.691 178.212 102.271 177.969 101.836 177.755C100.615 177.322 99.3015 177.213 98.0251 177.438C97.9148 176.762 97.9511 176.069 98.1315 175.407C98.3119 174.746 98.6322 174.131 99.0708 173.604C100.715 173.785 102.041 173.781 103.482 173.846C103.521 173.64 103.569 173.434 103.618 173.228C114.069 172.561 124.562 173.205 134.853 175.146C135.235 175.162 135.608 175.263 135.945 175.442C136.282 175.621 136.574 175.873 136.801 176.18C136.949 176.557 137.007 176.962 136.97 177.365Z" fill="black"/>
<path d="M115.209 82.4139C114.152 82.4431 113.144 82.8676 112.384 83.6035C112.189 83.8183 112.064 84.087 112.025 84.3743C112.065 84.8229 112.151 85.2661 112.284 85.6966C112.294 86.2765 112.142 86.8477 111.843 87.3449C111.23 88.8234 110.346 90.1741 109.236 91.3276C108.757 91.773 108.21 92.1426 107.72 92.579C107.168 93.1004 106.661 93.6681 106.205 94.2758C105.098 95.4699 104.27 96.8941 103.78 98.4462C103.133 101.184 101.786 103.767 100.9 106.441C99.9078 109.086 99.5783 111.933 99.9408 114.734C100.167 116.048 100.622 117.31 100.938 118.602C101.445 120.677 101.59 122.824 102.128 124.891C102.469 126.18 102.957 127.427 103.327 128.726C104.132 131.509 104.349 134.429 103.965 137.301C103.605 139.923 104.207 142.712 103.15 145.133C102.714 146.025 102.234 146.895 101.712 147.739C101.035 148.981 100.431 150.261 99.9038 151.574L96.9454 158.553C96.3581 159.867 95.841 161.211 95.3965 162.58C94.3405 166.644 93.9818 170.858 94.3356 175.042C94.3563 175.173 94.3271 175.307 94.2537 175.417C94.1628 175.512 93.9506 175.483 93.9506 175.356C93.913 175.595 93.7585 176.012 93.7251 176.253C96.2428 177.344 99.34 175.692 101.849 176.809C102.576 177.135 103.196 177.677 103.929 177.994C104.941 178.36 106.028 178.474 107.094 178.324C110.752 178.021 114.506 176.887 118.016 177.97C119.038 178.282 119.986 178.77 121.012 179.068C122.434 179.422 123.897 179.583 125.362 179.547C127.232 179.575 129.102 179.571 130.969 179.431C134.983 179.139 139.197 178.262 142.895 179.856C143.399 179.388 143.782 178.807 144.015 178.161C144.247 177.514 144.32 176.822 144.229 176.141C144.318 173.361 144.408 170.584 144.497 167.808L145.49 137.156C145.63 135.044 145.552 132.924 145.255 130.829C144.338 127.073 142.711 123.528 140.46 120.385L130.923 105.046C130.289 104.029 130.923 102.893 131.359 101.776C131.968 100.174 132.381 98.503 132.587 96.801C132.73 96.1867 132.741 95.549 132.619 94.9301C132.498 94.3112 132.246 93.7251 131.882 93.2104C131.344 92.7502 130.776 92.3276 130.18 91.9457C129.442 91.2493 128.846 90.4177 128.422 89.4962C127.091 87.0967 125.159 85.0846 122.814 83.6574C120.489 82.4078 117.812 81.9702 115.209 82.4139Z" fill="#3F3D56"/>
<path opacity="0.1" d="M125.05 96.321C121.659 97.2554 119.559 100.698 118.628 104.087C117.455 108.884 117.511 113.899 118.792 118.668C120.076 123.414 121.785 128.034 123.899 132.473C124.367 133.571 124.893 134.643 125.476 135.685C127.089 138.504 129.553 140.741 132.515 142.074C135.496 143.389 138.861 143.537 141.946 142.49C142.514 142.308 143.048 142.036 143.528 141.684C145.226 140.38 145.49 137.965 145.614 135.827L146.041 128.336C146.085 127.941 146.065 127.541 145.984 127.152C145.791 126.621 145.496 126.133 145.115 125.715C143.711 123.898 142.669 121.827 142.046 119.617C141.721 118.043 141.274 116.496 140.708 114.992C140.305 114.11 139.749 113.304 139.314 112.438C138.476 110.519 137.887 108.501 137.564 106.432C137.171 104.648 136.701 102.881 136.154 101.13C135.902 100.161 135.488 99.2427 134.931 98.4117C133.401 96.779 131.332 95.7563 129.105 95.5332C128.081 95.2329 127.001 95.181 125.953 95.3817C124.801 95.8111 123.784 96.5371 123.003 97.4863" fill="black"/>
<path d="M125.53 95.8416C122.139 96.7767 120.038 100.219 119.108 103.608C117.934 108.404 117.99 113.42 119.272 118.189C120.555 122.935 122.265 127.555 124.379 131.994C124.846 133.092 125.372 134.164 125.955 135.206C127.568 138.025 130.032 140.261 132.995 141.594C135.975 142.909 139.341 143.057 142.426 142.01C142.993 141.829 143.527 141.556 144.008 141.204C145.705 139.9 145.969 137.485 146.093 135.347L146.518 127.856C146.561 127.461 146.542 127.061 146.46 126.671C146.268 126.14 145.973 125.651 145.591 125.233C144.187 123.416 143.145 121.346 142.522 119.136C142.197 117.561 141.749 116.015 141.184 114.51C140.781 113.628 140.225 112.822 139.79 111.956C138.951 110.037 138.363 108.019 138.039 105.95C137.646 104.167 137.176 102.399 136.63 100.648C136.377 99.6797 135.964 98.7609 135.406 97.9299C133.877 96.2973 131.807 95.2745 129.58 95.0514C128.556 94.7508 127.474 94.6988 126.425 94.8999C125.274 95.3292 124.256 96.055 123.476 97.0039" fill="#3F3D56"/>
<path d="M158.606 115.847C157.395 113.318 157.169 110.429 157.972 107.742C159.852 108.221 160.37 110.992 162.289 111.485C162.573 111.556 162.874 111.572 163.162 111.637C163.816 111.844 164.42 112.185 164.934 112.639C165.449 113.093 165.863 113.65 166.149 114.273C167.266 116.115 167.948 118.188 168.144 120.333C168.333 122.487 167.829 124.645 166.706 126.493C166.754 126.422 163.348 122.931 163.068 122.572C162.47 121.872 161.885 121.158 161.313 120.43C160.712 119.755 160.171 119.029 159.698 118.259C159.534 117.956 159.501 117.597 159.356 117.272C159.124 116.782 158.844 116.321 158.606 115.847Z" fill="#CB8C8E"/>
<path d="M149.865 144.04C149.28 148.641 147.183 152.919 143.904 156.2C143.58 156.603 143.173 156.93 142.711 157.161C142.25 157.392 141.743 157.521 141.227 157.539C140.12 157.423 139.357 156.417 138.566 155.621C136.986 154.34 135.333 153.154 133.613 152.069C132.787 151.389 132.006 150.658 131.273 149.879C128.848 147.558 126.643 145.018 124.685 142.292C123.718 140.664 122.644 139.102 121.472 137.614C120.48 136.487 119.285 135.559 118.239 134.484C117.132 133.458 116.359 132.122 116.023 130.65C115.76 129.088 114.105 128.074 113.065 126.873C111.782 125.355 110.856 123.569 110.354 121.646C109.852 119.724 109.787 117.713 110.164 115.762C110.195 115.336 110.332 114.924 110.563 114.565C110.794 114.206 111.112 113.91 111.487 113.706C111.807 113.609 112.146 113.588 112.475 113.645C114.499 113.929 116 115.606 117.309 117.178C118.206 118.206 119.031 119.295 119.778 120.437C121.237 123.118 122.263 126.012 122.818 129.012C123.234 130.742 124.961 132.023 126.204 133.297L129.322 136.493C130.064 137.251 130.808 138.022 131.625 138.708C133.927 140.508 136.48 141.962 139.203 143.022C139.441 142.158 139.798 141.332 140.264 140.567C140.501 140.191 140.815 139.869 141.185 139.621C141.555 139.374 141.973 139.206 142.411 139.13C143.676 139.15 144.882 139.667 145.769 140.568L149.436 143.447C149.625 143.611 149.893 143.793 149.865 144.04Z" fill="#FBBEBE"/>
<path opacity="0.1" d="M155.7 115.437C156.15 115.92 156.506 116.482 156.75 117.096C157.565 118.778 157.934 120.642 157.82 122.507C157.692 123.512 157.471 124.502 157.158 125.465L156.017 129.39C154.348 135.508 152.362 141.536 150.067 147.449C148.096 144.894 144.649 144.116 141.848 142.527C141.571 142.39 141.323 142.2 141.121 141.966C140.874 141.605 140.748 141.176 140.762 140.739C140.792 139.56 141.049 138.398 141.519 137.316C143.265 132.634 145.685 128.061 145.969 123.075C145.98 122.148 146.04 121.221 146.147 120.3C146.35 119.202 146.784 118.16 147.421 117.243C148.057 116.325 148.881 115.554 149.839 114.979C150.745 114.449 151.792 114.208 152.839 114.289C153.887 114.371 154.884 114.77 155.698 115.434L155.7 115.437Z" fill="black"/>
<path d="M155.22 114.32C155.669 114.804 156.025 115.366 156.27 115.979C157.086 117.661 157.454 119.525 157.34 121.391C157.216 122.408 156.994 123.411 156.678 124.385L155.537 128.311C153.868 134.431 151.882 140.46 149.587 146.373C147.616 143.823 144.168 143.04 141.367 141.45C141.091 141.315 140.845 141.126 140.643 140.894C140.398 140.533 140.272 140.103 140.284 139.667C140.314 138.487 140.571 137.323 141.042 136.24C142.788 131.557 145.208 126.989 145.491 121.999C145.502 121.073 145.561 120.148 145.668 119.228C145.87 118.129 146.304 117.085 146.941 116.167C147.578 115.249 148.403 114.477 149.362 113.902C150.264 113.365 151.309 113.117 152.356 113.191C153.404 113.266 154.403 113.659 155.22 114.319L155.22 114.32Z" fill="#F4F6FB"/>
<path d="M144.113 88.8484C144.977 89.9653 145.463 91.3289 145.498 92.7407C146.035 96.3407 145.795 100.014 144.795 103.514C144.283 105.258 143.41 106.876 142.233 108.261C141.056 109.647 139.6 110.77 137.961 111.557C142.603 112.315 148.115 112.78 151.263 109.285C151.801 108.537 152.438 107.866 153.158 107.291C156.492 105.191 160.72 110.727 164.335 109.156C166.732 108.121 166.911 104.881 166.732 102.292L166.076 92.705C165.741 87.8115 165.318 82.6393 162.508 78.6324C159.744 75.1284 155.924 72.6073 151.614 71.4422C148.583 70.483 145.208 69.8563 142.259 71.0683C138.494 72.6118 131.231 78.7767 131.273 83.3398C131.355 90.1046 140.942 85.502 144.113 88.8484Z" fill="#3F3D56"/>
<path d="M146.968 126.269C147.506 126.29 148.044 126.22 148.56 126.063C149.375 125.76 149.998 125.002 150.875 124.879C151.316 124.819 151.882 124.879 152.074 124.463C152.132 124.266 152.152 124.061 152.135 123.857C152.202 122.692 153.664 122.289 154.652 121.666C155.276 121.229 155.828 120.697 156.289 120.091L159.693 116.069C160.006 115.609 160.46 115.264 160.987 115.086C161.59 115.018 162.194 115.19 162.671 115.564C164.653 116.882 166.24 118.711 167.263 120.859C168.287 123.006 168.708 125.39 168.483 127.758C168.475 128.085 168.39 128.406 168.233 128.693C167.701 129.528 166.449 129.326 165.505 129.623C163.698 130.188 163.145 132.532 161.597 133.623C160.901 134.101 160.044 134.307 159.367 134.806C158.705 135.433 158.099 136.118 157.56 136.853C156.512 137.878 155.277 138.691 153.922 139.249L149.909 141.206C149.119 141.616 148.296 141.96 147.449 142.232C145.986 142.574 144.48 142.701 142.98 142.61L140.041 142.572C139.71 142.602 139.377 142.535 139.082 142.38C138.91 142.251 138.765 142.088 138.657 141.901C137.218 139.548 136.758 136.724 137.377 134.035C137.814 131.5 138.869 129.111 140.45 127.08C141.818 125.64 145.069 126.307 146.968 126.269Z" fill="#3F3D56"/>
<path d="M135.229 64.1617C135.141 63.706 135.202 63.2344 135.401 62.8154C135.601 62.3964 135.928 62.0518 136.337 61.8316L139.974 59.0937L139.225 58.0029L140.63 56.8C140.515 56.6401 140.356 56.517 140.172 56.4455C139.988 56.374 139.788 56.3571 139.595 56.397C139.816 54.9154 138.549 53.67 137.346 52.7822C134.968 50.8691 132.1 49.6618 129.069 49.2977C127.597 49.2026 126.12 49.4129 124.649 49.2977C122.663 49.1735 120.736 48.5021 118.746 48.4251C117.753 48.3181 116.75 48.4957 115.855 48.9373C114.959 49.3789 114.208 50.0662 113.689 50.9188C113.421 51.7272 113.197 52.5496 113.018 53.3822C112.197 55.0917 110.988 56.5858 109.488 57.7454C108.14 59.0725 106.888 60.8511 107.263 62.7006C107.41 63.2972 107.641 63.8701 107.948 64.4023L115.374 78.7493C115.623 78.284 115.979 77.8849 116.414 77.5855C116.848 77.286 117.348 77.095 117.872 77.0283C119.102 77.0688 120.323 77.2556 121.509 77.5846C122.427 77.6843 123.355 77.5621 124.215 77.2283C125.075 76.8945 125.843 76.3589 126.453 75.6666C128.09 73.7771 128.491 68.9552 131.339 68.4764C132.345 68.3037 133.958 69.5733 134.835 69.0703C135.875 68.5086 135.248 65.2258 135.229 64.1617Z" fill="#3F3D56"/>
<g opacity="0.1">
<path d="M140.842 110.092C142.48 109.302 143.935 108.178 145.111 106.792C146.288 105.406 147.162 103.789 147.676 102.045C148.677 98.5441 148.916 94.8694 148.376 91.2688C148.343 89.8566 147.857 88.4923 146.991 87.3764C143.826 84.021 134.236 88.6327 134.149 81.8939C134.096 78.0064 139.385 72.9554 143.259 70.5908C142.912 70.6835 142.57 70.7975 142.237 70.932C138.473 72.4755 131.209 78.6446 131.251 83.2035C131.338 89.9434 140.928 85.3457 144.093 88.6921C144.958 89.8086 145.444 91.1724 145.478 92.5844C146.016 96.1833 145.778 99.8558 144.778 103.355C144.266 105.1 143.393 106.717 142.215 108.104C141.038 109.49 139.583 110.614 137.944 111.403C142.036 112.065 146.81 112.505 150.037 110.2C146.996 110.777 143.869 110.74 140.842 110.092Z" fill="black"/>
<path d="M156.036 105.817C155.688 106.048 155.376 106.329 155.11 106.65C158.049 106.843 161.392 110.265 164.335 108.985C164.85 108.76 165.3 108.406 165.64 107.959C162.418 107.835 158.899 104.014 156.036 105.817Z" fill="black"/>
</g>
<g opacity="0.1">
<path d="M139.256 54.5463C139.185 54.4403 139.105 54.3355 139.031 54.2343C139.03 54.3447 139.021 54.455 139.007 54.5645C139.089 54.5487 139.173 54.5426 139.256 54.5463Z" fill="black"/>
<path d="M140.762 56.8037C140.646 56.6438 140.487 56.5207 140.304 56.4492C140.12 56.3776 139.919 56.3608 139.726 56.4007C139.78 56.0387 139.747 55.6691 139.631 55.322L138.639 56.1704L139.387 57.2539L135.75 59.9961C135.341 60.2162 135.014 60.5608 134.814 60.9798C134.615 61.3988 134.555 61.8705 134.642 62.3262C134.642 63.3867 135.289 66.6742 134.254 67.2632C133.381 67.7662 131.765 66.4967 130.768 66.6694C127.919 67.1481 127.522 71.9416 125.882 73.8596C125.272 74.5518 124.504 75.0874 123.644 75.4212C122.784 75.755 121.856 75.8772 120.938 75.7776C119.752 75.4502 118.531 75.2651 117.301 75.2261C116.777 75.2934 116.276 75.4846 115.841 75.7839C115.405 76.0832 115.047 76.482 114.797 76.9471L107.385 62.6292V62.7352C107.536 63.3312 107.769 63.9035 108.076 64.4363L115.502 78.7542C115.752 78.289 116.11 77.8901 116.545 77.5908C116.981 77.2915 117.482 77.1003 118.006 77.0332C119.236 77.0733 120.457 77.2599 121.643 77.5889C122.561 77.6885 123.489 77.5663 124.349 77.2325C125.209 76.8988 125.977 76.3632 126.587 75.6709C128.227 73.7814 128.626 68.9594 131.473 68.4807C132.475 68.308 134.092 69.5794 134.959 69.0746C135.994 68.4849 135.366 65.2022 135.347 64.1375C135.295 63.6482 135.367 63.1538 135.558 62.7001C135.785 62.3337 136.092 62.0231 136.455 61.7911L140.092 59.0538L139.344 57.966L140.762 56.8037Z" fill="black"/>
</g>
<path opacity="0.1" d="M98.7338 160.879C98.2548 162.926 97.9517 165.015 97.2958 167.015C97.0078 167.916 96.6532 168.794 96.3695 169.695C96.1149 170.515 95.9239 171.343 95.7269 172.179L94.9448 175.535C95.1816 175.523 95.4123 175.456 95.6188 175.339C95.8253 175.223 96.002 175.06 96.1349 174.864C96.3971 174.469 96.5959 174.036 96.7241 173.579L98.0336 169.687L98.9932 166.808C100.357 162.757 101.721 158.698 102.758 154.547C103.017 153.521 103.237 152.496 103.462 151.457C103.549 151.058 104.176 148.841 103.533 149.033C103.079 149.161 102.306 151.185 102.095 151.626C101.616 152.508 101.222 153.41 100.834 154.324C99.9466 156.445 99.2438 158.639 98.7338 160.881V160.879Z" fill="black"/>
<path d="M123.745 107.197C123.745 107.197 121.578 106.415 121.045 107.348C121.045 107.348 124.986 108.786 125.783 110.857C125.783 110.857 126.8 109.812 125.409 108.485L125.15 106.538L123.745 107.197Z" fill="#00A66C"/>
<path d="M127.342 104.26C127.342 104.26 127.463 103.272 126.963 103.169C126.464 103.106 125.958 103.166 125.488 103.345C125.019 103.525 124.6 103.817 124.271 104.196C123.941 104.575 123.71 105.03 123.598 105.519C123.486 106.009 123.496 106.519 123.628 107.004C124.171 110.747 128.073 109.343 128.073 109.343L129.786 107.349C129.896 106.65 129.752 105.934 129.379 105.332C129.006 104.731 128.429 104.283 127.753 104.071L127.342 104.26Z" fill="#F44336"/>
<path opacity="0.1" d="M124.623 102.226C123.747 102.735 123.102 103.561 122.82 104.533C122.537 105.505 122.64 106.548 123.107 107.447L124.215 106.804C124.215 106.804 125.6 103.563 124.623 102.226Z" fill="black"/>
<path d="M124.517 102.149C123.641 102.658 122.996 103.484 122.713 104.456C122.431 105.428 122.534 106.471 123.001 107.37L123.859 107.873C123.859 107.873 125.5 103.487 124.517 102.149Z" fill="#F44336"/>
<path opacity="0.1" d="M129.322 105.983C129.476 106.503 129.792 106.96 130.224 107.288C130.915 107.766 129.539 108.874 129.539 108.874C129.539 108.874 127.677 110.995 125.918 109.957C124.868 108.189 125.659 107.943 125.659 107.943C125.659 107.943 127.855 105.533 129.322 105.983Z" fill="black"/>
<path d="M129.394 106.085C129.548 106.604 129.864 107.061 130.295 107.39C130.98 107.868 129.604 108.975 129.604 108.975C129.604 108.975 127.749 111.096 125.984 110.059C124.218 109.022 125.724 108.05 125.724 108.05C125.724 108.05 127.902 105.635 129.394 106.085Z" fill="#F44336"/>
<path d="M122.718 102.191C122.718 102.191 120.542 102.948 120.717 104.009C120.717 104.009 124.688 102.645 126.61 103.754C126.61 103.754 126.739 102.317 124.826 102.144L123.388 100.793L122.718 102.191Z" fill="#5F3839"/>
<path d="M123.639 97.6391C123.639 97.6391 123.112 96.7949 122.68 97.0331C122.256 97.2986 121.904 97.6639 121.654 98.097C121.403 98.5302 121.263 99.0181 121.245 99.5179C121.227 100.018 121.332 100.514 121.551 100.964C121.769 101.414 122.095 101.804 122.498 102.099C125.266 104.66 127.428 101.141 127.428 101.141L127.477 98.5135C127.122 97.9023 126.56 97.4385 125.893 97.2064C125.225 96.9742 124.497 96.989 123.839 97.2482L123.639 97.6391Z" fill="#F44336"/>
<path opacity="0.1" d="M120.283 97.7826C119.923 98.7298 119.942 99.7798 120.337 100.713C120.733 101.646 121.474 102.391 122.405 102.791L122.86 101.597C122.86 101.597 121.875 98.2129 120.283 97.7826Z" fill="black"/>
<path d="M120.14 97.7869C119.781 98.7343 119.802 99.7833 120.197 100.716C120.592 101.649 121.331 102.393 122.261 102.795L123.245 102.644C123.245 102.644 121.746 98.2111 120.14 97.7869Z" fill="#F44336"/>
<path opacity="0.1" d="M126.284 97.7433C126.731 98.0518 127.265 98.2109 127.808 98.1978C128.653 98.1451 128.287 99.8643 128.287 99.8643C128.287 99.8643 128.172 102.678 126.153 102.985C124.235 102.272 124.686 101.585 124.686 101.585C124.686 101.585 124.862 98.319 126.284 97.7433Z" fill="black"/>
<path d="M126.391 97.7917C126.838 98.1017 127.372 98.2609 127.916 98.2462C128.76 98.1935 128.395 99.9127 128.395 99.9127C128.395 99.9127 128.284 102.726 126.273 103.034C124.261 103.341 124.806 101.634 124.806 101.634C124.806 101.634 124.968 98.3674 126.391 97.7917Z" fill="#F44336"/>
<path d="M115.32 103.092C115.32 103.092 116.011 102.486 116.39 103.284L116.069 105.068L114.088 122.727L112.822 125.042L115.32 103.092Z" fill="#00A66C"/>
<path d="M121.19 98.9856L112.894 125.922L113.652 126.339L121.88 99.1613L121.19 98.9856Z" fill="#00A66C"/>
<path d="M118.918 111.199C118.918 111.199 117.057 118.229 115.005 121.035C113.819 122.471 113.223 124.304 113.338 126.163L114.009 126.369L119.526 111.688L118.918 111.199Z" fill="#00A66C"/>
<path d="M125.702 105.01L113.867 125.614L114.432 125.917L126.635 105.162L125.702 105.01Z" fill="#00A66C"/>
<path d="M128.315 110.451L113.574 125.808L114.015 126.378L128.941 110.795L128.315 110.451Z" fill="#00A66C"/>
<path d="M129.259 111.592C129.259 111.592 129.062 110.729 128.401 110.892C127.741 111.054 114.711 125.516 114.711 125.516L115.263 125.948L129.259 111.592Z" fill="#00A66C"/>
<path d="M114.684 102.164C114.684 102.164 112.459 102.77 112.562 103.831C112.562 103.831 116.615 102.748 118.455 103.982C118.455 103.982 118.685 102.545 116.788 102.252L115.454 100.814L114.684 102.164Z" fill="#00A66C"/>
<path d="M115.93 97.6765C115.93 97.6765 115.451 96.799 114.995 97.0008C114.553 97.2351 114.175 97.5743 113.895 97.9886C113.614 98.4028 113.44 98.8795 113.387 99.3768C113.334 99.8741 113.404 100.377 113.591 100.841C113.777 101.305 114.075 101.716 114.458 102.038C117.035 104.78 119.446 101.405 119.446 101.405L119.7 98.7867C119.388 98.1513 118.859 97.6488 118.208 97.3708C117.557 97.0928 116.827 97.0576 116.152 97.2717L115.93 97.6765Z" fill="#F44336"/>
<path opacity="0.1" d="M112.548 97.5906C112.121 98.5092 112.066 99.557 112.393 100.515C112.721 101.474 113.406 102.269 114.306 102.734L114.842 101.574C114.842 101.574 114.117 98.122 112.548 97.5906Z" fill="black"/>
<path d="M112.419 97.5857C111.993 98.5042 111.938 99.5519 112.265 100.51C112.593 101.468 113.278 102.263 114.177 102.729L115.17 102.651C115.17 102.651 113.992 98.1172 112.419 97.5857Z" fill="#F44336"/>
<path opacity="0.1" d="M118.551 97.9692C118.979 98.3009 119.501 98.4886 120.043 98.5056C120.887 98.5056 120.388 100.198 120.388 100.198C120.388 100.198 120.085 102.998 118.048 103.168C116.174 102.323 116.684 101.668 116.684 101.668C116.684 101.668 117.095 98.4437 118.551 97.9692Z" fill="black"/>
<path d="M118.653 98.0269C119.079 98.3642 119.601 98.5588 120.144 98.5832C120.988 98.5832 120.489 100.275 120.489 100.275C120.489 100.275 120.186 103.07 118.149 103.237C116.112 103.404 116.785 101.742 116.785 101.742C116.785 101.742 117.195 98.5056 118.653 98.0269Z" fill="#F44336"/>
<path d="M120.355 98.0268C120.355 98.0268 118.131 98.6328 118.234 99.6933C118.234 99.6933 122.284 98.6098 124.126 99.8448C124.126 99.8448 124.361 98.4068 122.459 98.119L121.125 96.6815L120.355 98.0268Z" fill="#00A66C"/>
<path d="M121.596 93.5497C121.596 93.5497 121.117 92.6722 120.661 92.874C120.219 93.1084 119.841 93.4476 119.561 93.8619C119.281 94.2762 119.106 94.753 119.053 95.2503C119 95.7477 119.07 96.2504 119.257 96.7144C119.444 97.1785 119.742 97.5896 120.124 97.9117C122.701 100.654 125.112 97.2784 125.112 97.2784L125.367 94.6605C125.055 94.0249 124.525 93.5224 123.874 93.2443C123.223 92.9663 122.493 92.9312 121.818 93.1455L121.596 93.5497Z" fill="#F44336"/>
<path opacity="0.1" d="M118.216 93.4636C117.789 94.3822 117.734 95.4301 118.062 96.3885C118.389 97.3469 119.074 98.1418 119.974 98.6073L120.511 97.4469C120.511 97.4469 119.803 93.9957 118.216 93.4636Z" fill="black"/>
<path d="M118.085 93.4589C117.661 94.3778 117.607 95.4245 117.934 96.3821C118.261 97.3396 118.945 98.1345 119.843 98.602L120.835 98.5202C120.835 98.5202 119.659 93.9909 118.085 93.4589Z" fill="#F44336"/>
<path opacity="0.1" d="M124.224 93.8418C124.648 94.1792 125.169 94.3724 125.711 94.3933C126.555 94.3933 126.056 96.0852 126.056 96.0852C126.056 96.0852 125.753 98.8849 123.716 99.0546C121.846 98.2062 122.352 97.5548 122.352 97.5548C122.352 97.5548 122.762 94.3163 124.224 93.8418Z" fill="black"/>
<path d="M124.326 93.8951C124.75 94.2325 125.271 94.4257 125.813 94.4466C126.657 94.4466 126.158 96.1386 126.158 96.1386C126.158 96.1386 125.855 98.9383 123.818 99.1079C121.781 99.2776 122.454 97.6081 122.454 97.6081C122.454 97.6081 122.863 94.3696 124.326 93.8951Z" fill="#F44336"/>
<path d="M125.146 103.779C125.146 103.779 122.979 102.997 122.446 103.93C122.446 103.93 126.387 105.369 127.189 107.439C127.189 107.439 128.205 106.394 126.814 105.067L126.555 103.12L125.146 103.779Z" fill="#00A66C"/>
<path d="M128.742 100.827C128.742 100.827 128.863 99.8388 128.363 99.7357C127.864 99.6736 127.357 99.7347 126.887 99.9137C126.417 100.093 125.998 100.384 125.667 100.762C125.336 101.141 125.102 101.595 124.987 102.084C124.872 102.573 124.878 103.084 125.006 103.57C125.519 107.313 129.456 105.909 129.456 105.909L131.168 103.915C131.277 103.215 131.131 102.5 130.757 101.898C130.383 101.297 129.805 100.849 129.129 100.637L128.742 100.827Z" fill="#F44336"/>
<path opacity="0.1" d="M126.038 98.8129C125.161 99.3196 124.514 100.146 124.231 101.118C123.949 102.091 124.053 103.135 124.523 104.032L125.626 103.39C125.626 103.39 126.996 100.15 126.038 98.8129Z" fill="black"/>
<path d="M125.921 98.7358C125.045 99.2431 124.398 100.069 124.116 101.041C123.833 102.013 123.937 103.057 124.406 103.955L125.263 104.458C125.263 104.458 126.901 100.074 125.921 98.7358Z" fill="#F44336"/>
<path opacity="0.1" d="M130.723 102.571C130.879 103.09 131.194 103.546 131.624 103.875C132.315 104.354 130.939 105.461 130.939 105.461C130.939 105.461 129.078 107.582 127.318 106.545C126.272 104.781 127.059 104.531 127.059 104.531C127.059 104.531 129.254 102.117 130.723 102.571Z" fill="black"/>
<path d="M130.774 102.671C130.929 103.192 131.245 103.65 131.676 103.98C132.367 104.459 130.989 105.562 130.989 105.562C130.989 105.562 129.128 107.683 127.368 106.653C125.609 105.622 127.109 104.639 127.109 104.639C127.109 104.639 129.305 102.222 130.774 102.671Z" fill="#F44336"/>
<path d="M128.622 109.651C128.622 109.651 126.455 108.869 125.927 109.803C125.927 109.803 129.868 111.24 130.665 113.311C130.665 113.311 131.682 112.262 130.291 110.939L130.032 108.988L128.622 109.651Z" fill="#00A66C"/>
<path d="M132.216 106.69C132.216 106.69 132.338 105.702 131.837 105.599C131.339 105.535 130.832 105.595 130.362 105.774C129.892 105.953 129.474 106.245 129.144 106.624C128.814 107.004 128.583 107.459 128.471 107.949C128.359 108.439 128.37 108.949 128.503 109.434C129.046 113.182 132.948 111.777 132.948 111.777L134.661 109.777C134.769 109.078 134.623 108.364 134.249 107.763C133.875 107.163 133.298 106.716 132.622 106.505L132.216 106.69Z" fill="#F44336"/>
<path opacity="0.1" d="M129.499 104.68C128.62 105.188 127.972 106.015 127.69 106.988C127.407 107.962 127.512 109.007 127.983 109.906L129.086 109.263C129.086 109.263 130.482 106.018 129.499 104.68Z" fill="black"/>
<path d="M129.394 104.603C128.517 105.11 127.87 105.937 127.587 106.909C127.305 107.882 127.409 108.926 127.878 109.824L128.736 110.327C128.736 110.327 130.376 105.936 129.394 104.603Z" fill="#F44336"/>
<path opacity="0.1" d="M134.189 108.44C134.343 108.96 134.657 109.418 135.086 109.749C135.777 110.228 134.401 111.331 134.401 111.331C134.401 111.331 132.54 113.452 130.78 112.422C129.734 110.654 130.521 110.408 130.521 110.408C130.521 110.408 132.748 107.988 134.189 108.44Z" fill="black"/>
<path d="M134.251 108.543C134.406 109.063 134.721 109.519 135.153 109.847C135.844 110.326 134.468 111.433 134.468 111.433C134.468 111.433 132.607 113.554 130.847 112.517C129.088 111.479 130.588 110.503 130.588 110.503C130.588 110.503 132.784 108.094 134.251 108.543Z" fill="#F44336"/>
<path d="M129.061 111.621C129.061 111.621 126.894 110.839 126.362 111.772C126.362 111.772 130.302 113.21 131.1 115.281C131.1 115.281 132.121 114.231 130.73 112.908L130.466 110.957L129.061 111.621Z" fill="#00A66C"/>
<path d="M132.66 108.663C132.66 108.663 132.781 107.68 132.281 107.576C131.783 107.512 131.276 107.572 130.806 107.751C130.337 107.93 129.918 108.222 129.588 108.602C129.259 108.981 129.028 109.435 128.916 109.925C128.804 110.415 128.815 110.925 128.947 111.41C129.483 115.158 133.392 113.753 133.392 113.753L135.104 111.759C135.215 111.06 135.07 110.344 134.697 109.743C134.323 109.141 133.746 108.693 133.07 108.481L132.66 108.663Z" fill="#F44336"/>
<path opacity="0.1" d="M129.941 106.654C129.064 107.162 128.418 107.988 128.137 108.961C127.857 109.934 127.964 110.978 128.436 111.874L129.544 111.232C129.544 111.232 130.918 107.988 129.941 106.654Z" fill="black"/>
<path d="M129.835 106.573C128.96 107.082 128.314 107.908 128.032 108.88C127.75 109.852 127.853 110.895 128.319 111.793L129.177 112.301C129.177 112.301 130.832 107.911 129.835 106.573Z" fill="#F44336"/>
<path opacity="0.1" d="M134.641 110.407C134.796 110.927 135.111 111.385 135.543 111.716C136.234 112.194 134.856 113.297 134.856 113.297C134.856 113.297 132.995 115.418 131.235 114.385C130.185 112.617 130.977 112.371 130.977 112.371C130.977 112.371 133.174 109.957 134.641 110.407Z" fill="black"/>
<path d="M134.692 110.513C134.846 111.033 135.162 111.49 135.594 111.818C136.285 112.296 134.902 113.403 134.902 113.403C134.902 113.403 133.047 115.524 131.286 114.487C129.525 113.45 131.023 112.473 131.023 112.473C131.023 112.473 133.23 110.062 134.692 110.513Z" fill="#F44336"/>
<path d="M118.503 110.336C118.503 110.336 116.336 109.548 115.804 110.487C115.804 110.487 119.744 111.925 120.542 113.996C120.542 113.996 121.558 112.951 120.167 111.624L119.908 109.672L118.503 110.336Z" fill="#00A66C"/>
<path d="M122.101 107.373C122.101 107.373 122.223 106.39 121.723 106.282C121.224 106.219 120.717 106.279 120.248 106.458C119.778 106.638 119.36 106.93 119.031 107.309C118.701 107.688 118.47 108.143 118.358 108.632C118.246 109.122 118.256 109.632 118.388 110.117C118.934 113.86 122.833 112.46 122.833 112.46L124.546 110.466C124.656 109.767 124.512 109.052 124.139 108.45C123.766 107.848 123.189 107.4 122.514 107.188L122.101 107.373Z" fill="#F44336"/>
<path opacity="0.1" d="M119.38 105.365C118.505 105.874 117.861 106.702 117.582 107.674C117.303 108.647 117.411 109.691 117.884 110.586L118.992 109.943C118.992 109.943 120.359 106.703 119.38 105.365Z" fill="black"/>
<path d="M119.276 105.288C118.399 105.795 117.752 106.621 117.469 107.593C117.187 108.566 117.291 109.609 117.76 110.507L118.618 110.986C118.618 110.986 120.282 106.625 119.276 105.288Z" fill="#F44336"/>
<path opacity="0.1" d="M124.083 109.118C124.236 109.639 124.552 110.097 124.984 110.427C125.675 110.906 124.299 112.013 124.299 112.013C124.299 112.013 122.438 114.134 120.678 113.096C119.628 111.326 120.419 111.082 120.419 111.082C120.419 111.082 122.614 108.668 124.083 109.118Z" fill="black"/>
<path d="M124.12 109.224C124.274 109.743 124.589 110.2 125.021 110.529C125.706 111.007 124.33 112.115 124.33 112.115C124.33 112.115 122.475 114.236 120.709 113.198C118.944 112.16 120.45 111.185 120.45 111.185C120.45 111.185 122.682 108.774 124.12 109.224Z" fill="#F44336"/>
<path d="M119.689 103.879C119.689 103.879 117.517 103.091 116.989 104.031C116.989 104.031 120.93 105.468 121.727 107.539C121.727 107.539 122.743 106.494 121.352 105.167L121.093 103.215L119.689 103.879Z" fill="#00A66C"/>
<path d="M123.284 100.902C123.284 100.902 123.405 99.9431 122.905 99.814C122.405 99.7488 121.897 99.8078 121.425 99.9858C120.954 100.164 120.533 100.455 120.201 100.835C119.869 101.214 119.636 101.669 119.522 102.16C119.408 102.651 119.417 103.162 119.548 103.649C120.066 107.392 123.993 105.992 123.993 105.992L125.705 103.998C125.814 103.299 125.668 102.583 125.294 101.981C124.92 101.38 124.343 100.932 123.667 100.72L123.284 100.902Z" fill="#F44336"/>
<path opacity="0.1" d="M120.561 98.9086C119.684 99.4157 119.036 100.242 118.754 101.215C118.472 102.187 118.576 103.232 119.045 104.129L120.153 103.487C120.153 103.487 121.545 100.247 120.561 98.9086Z" fill="black"/>
<path d="M120.46 98.8329C119.582 99.3391 118.934 100.165 118.651 101.138C118.369 102.111 118.474 103.156 118.944 104.054L119.797 104.557C119.797 104.557 121.437 100.17 120.46 98.8329Z" fill="#F44336"/>
<path opacity="0.1" d="M125.265 102.662C125.42 103.183 125.736 103.641 126.167 103.971C126.858 104.45 125.482 105.558 125.482 105.558C125.482 105.558 123.621 107.679 121.861 106.641C120.811 104.873 121.602 104.627 121.602 104.627C121.602 104.627 123.792 102.211 125.265 102.662Z" fill="black"/>
<path d="M125.314 102.766C125.468 103.286 125.784 103.743 126.215 104.071C126.906 104.55 125.53 105.657 125.53 105.657C125.53 105.657 123.669 107.778 121.91 106.74C120.151 105.702 121.65 104.727 121.65 104.727C121.65 104.727 123.847 102.341 125.314 102.766Z" fill="#F44336"/>
<path d="M112.468 113.643C112.468 113.643 118.409 114.3 121.635 124.63C124.862 134.959 114.711 127.229 114.711 127.229C114.711 127.229 112.036 127.766 111.619 122.374C111.313 119.436 111.601 116.467 112.468 113.643Z" fill="#FBBEBE"/>
<path d="M113.308 121.145L111.523 121.936C111.457 121.965 111.427 122.043 111.456 122.109L111.615 122.468C111.645 122.535 111.722 122.565 111.789 122.535L113.574 121.744C113.64 121.714 113.67 121.637 113.641 121.57L113.481 121.211C113.452 121.145 113.374 121.115 113.308 121.145Z" fill="#E3E8F4"/>
<path opacity="0.1" d="M88.0084 82.9375L87.0505 82.0667C83.6072 78.9034 81.329 76.8551 81.329 74.2917C81.3202 73.8049 81.4094 73.3214 81.5911 72.8697C81.7729 72.418 82.0435 72.0074 82.387 71.6623C82.7305 71.3171 83.1398 71.0445 83.5907 70.8604C84.0416 70.6764 84.5248 70.5847 85.0118 70.5909C85.5864 70.5937 86.1535 70.7217 86.6736 70.9658C87.1937 71.21 87.6544 71.5645 88.0235 72.0047C88.3919 71.5638 88.8524 71.2088 89.3725 70.9646C89.8927 70.7203 90.46 70.5928 91.0347 70.5909C91.5213 70.5854 92.004 70.6775 92.4543 70.8618C92.9046 71.0462 93.3134 71.319 93.6563 71.6641C93.9993 72.0091 94.2695 72.4195 94.4509 72.8709C94.6324 73.3222 94.7214 73.8054 94.7126 74.2917C94.7126 76.8521 92.4393 78.9034 88.9917 82.0667L88.0084 82.9375Z" fill="#F44336"/>
<path opacity="0.1" d="M74.6241 28.5516L73.665 27.6741C70.2174 24.5157 67.9392 22.4625 67.9392 19.904C67.9305 19.4172 68.0197 18.9337 68.2014 18.482C68.3831 18.0303 68.6538 17.6198 68.9973 17.2746C69.3407 16.9294 69.75 16.6568 70.2009 16.4727C70.6518 16.2887 71.1351 16.197 71.622 16.2032C72.1966 16.2061 72.7635 16.3341 73.2835 16.5783C73.8035 16.8224 74.2641 17.1769 74.6332 17.617C75.0022 17.1766 75.4628 16.8219 75.9829 16.5777C76.5031 16.3336 77.0703 16.2057 77.6449 16.2032C78.1315 16.1977 78.6142 16.2898 79.0646 16.4741C79.5149 16.6585 79.9236 16.9313 80.2666 17.2764C80.6095 17.6214 80.8797 18.0318 81.0612 18.4832C81.2426 18.9345 81.3316 19.4177 81.3229 19.904C81.3229 22.4583 79.0495 24.5157 75.6019 27.6741L74.6241 28.5516Z" fill="#F44336"/>
<path opacity="0.1" d="M175.057 54.6239L174.098 53.7464C170.65 50.5879 168.377 48.5348 168.377 45.9763C168.368 45.4899 168.457 45.0068 168.639 44.5554C168.82 44.1041 169.091 43.6937 169.433 43.3486C169.776 43.0035 170.185 42.7307 170.635 42.5464C171.086 42.3621 171.569 42.2699 172.055 42.2754C172.422 42.7178 172.883 43.0738 173.403 43.3182C173.924 43.5625 174.492 43.6892 175.067 43.6892C175.642 43.6892 176.21 43.5625 176.73 43.3182C177.251 43.0738 177.711 42.7178 178.078 42.2754C178.565 42.2693 179.048 42.3609 179.499 42.545C179.95 42.729 180.359 43.0017 180.703 43.3469C181.046 43.692 181.317 44.1026 181.499 44.5543C181.68 45.006 181.77 45.4895 181.761 45.9763C181.761 48.5306 179.487 50.5879 176.04 53.7464L175.057 54.6239Z" fill="#F44336"/>
<path opacity="0.5" d="M239.648 21.2512C239.252 20.73 238.669 20.3833 238.022 20.2849C237.376 20.1864 236.716 20.3439 236.183 20.7238C235.651 21.1038 235.287 21.6763 235.17 22.3198C235.053 22.9633 235.191 23.6271 235.556 24.1703C236.036 24.8744 236.539 25.561 237.023 26.2125C242.933 34.1844 245.99 43.8622 248.628 53.4219C249.488 55.7188 249.672 58.2136 249.16 60.6121C250.077 54.3529 249.659 47.9706 247.934 41.8842C246.209 35.8179 243.992 29.9025 241.304 24.1969C240.857 23.1594 240.301 22.1725 239.645 21.253L239.648 21.2512Z" fill="#F44336"/>
<path d="M201.319 38.0162C197.334 37.895 196.833 43.9356 200.796 44.2477C201.837 44.3295 202.886 44.3538 203.883 44.3822C216.082 44.7125 227.618 49.1381 238.7 53.8922C241.428 55.0575 244.277 56.3659 245.893 58.8614C240.74 53.17 234.398 48.681 227.317 45.7124C220.227 42.7455 212.899 40.3789 205.413 38.6374C204.075 38.2816 202.702 38.0733 201.319 38.0162Z" fill="#F44336"/>
<path opacity="0.2" d="M202.433 52.8586C199.92 52.9538 200.487 56.5249 203.018 56.5492C203.681 56.5492 204.341 56.5249 204.975 56.4964C212.647 56.1844 220.549 58.3145 228.194 60.6427C230.127 61.0686 231.922 61.9717 233.416 63.2697C229.357 60.1364 224.758 57.7743 219.846 56.3007C215.009 54.859 210.073 53.7744 205.077 53.0556C204.205 52.9021 203.32 52.8345 202.435 52.8538L202.433 52.8586Z" fill="#F44336"/>
<path opacity="0.5" d="M253.918 119.298C254.632 121.695 257.951 120.257 257.346 117.816C257.195 117.174 256.992 116.541 256.81 115.938C254.6 108.562 254.705 100.408 255.07 92.4249C255.003 90.4479 255.431 88.4854 256.317 86.7164C254.291 91.4212 253.145 96.4576 252.937 101.576C252.742 106.616 252.915 111.663 253.456 116.678C253.523 117.564 253.677 118.441 253.918 119.296L253.918 119.298Z" fill="#F44336"/>
<path opacity="0.2" d="M207.017 17.9012C205.502 17.6376 205.387 19.8404 206.896 20.1737C207.295 20.2598 207.692 20.3253 208.071 20.3949C212.787 21.4507 217.294 23.2825 221.408 25.8156C222.509 26.316 223.468 27.0837 224.197 28.0487C222.171 25.6625 219.723 23.6699 216.975 22.1705C214.272 20.6904 211.464 19.4117 208.572 18.3448C208.071 18.1442 207.55 17.9956 207.017 17.9012Z" fill="#F44336"/>
<path d="M183.637 76.3423C179.801 78.3227 183.043 83.7476 186.994 81.9478C188.025 81.4691 189.037 80.951 189.996 80.448C201.741 74.3607 215.382 72.1155 228.795 70.3823C232.09 69.9581 235.6 69.5915 238.646 70.8956C230.267 68.7166 221.543 68.1923 212.963 69.3521C204.477 70.5101 196.091 72.3131 187.879 74.7455C186.415 75.1336 184.994 75.6686 183.637 76.3423Z" fill="#F44336"/>
<path opacity="0.5" d="M194.609 97.4687C191.847 100.044 196.157 103.086 199.053 100.614C199.811 99.9673 200.536 99.2807 201.225 98.6341C209.641 90.7397 220.761 85.1203 231.839 79.9408C234.558 78.6682 245.744 77.3653 248.727 77.4441C240.929 78.1398 224.996 80.5741 217.914 83.795C210.968 87.0958 204.252 90.8614 197.813 95.066C196.672 95.7646 195.599 96.568 194.608 97.4657L194.609 97.4687Z" fill="#F44336"/>
<path d="M214.31 131.19C213.505 134.871 218.78 134.924 219.757 131.243C220.012 130.284 220.236 129.325 220.413 128.364C222.849 117.105 228.8 106.176 234.963 95.6302C236.478 93.0426 244.941 85.6179 247.43 83.9768C241.413 88.9945 229.693 100.054 225.694 106.72C221.858 113.373 218.478 120.279 215.576 127.389C215.039 128.615 214.616 129.887 214.31 131.19Z" fill="#F44336"/>
<path d="M253.962 1.73742C252.083 -2.09674 246.708 1.05749 248.414 4.9874C248.86 6.0176 249.374 7.02478 249.852 7.98286C255.645 19.692 257.635 33.2391 259.121 46.5499C259.491 49.8223 259.797 53.2995 258.474 56.3065C260.736 48.0394 261.387 39.4147 260.393 30.9018C259.391 22.481 257.749 14.1487 255.482 5.97699C255.12 4.51628 254.611 3.09588 253.962 1.73742Z" fill="#F44336"/>
<path d="M224.001 8.26093C224.1 8.31844 224.212 8.35107 224.327 8.35607C224.533 8.35607 224.682 8.1458 224.768 7.95309C225.247 6.93622 224.97 5.61393 225.689 4.7522C226.423 5.63598 227.014 6.62909 227.441 7.69554L230.204 6.8429C230.334 7.37743 230.355 7.93267 230.265 8.47537C230.175 9.01807 229.977 9.53709 229.682 10.0014C230.165 10.2126 230.606 10.5116 230.98 10.8831C231.166 11.0718 231.297 11.3082 231.357 11.5663C231.417 11.8243 231.405 12.0939 231.321 12.3454C230.683 12.5005 230.026 12.5653 229.369 12.5381C229.473 13.7497 229.404 14.97 229.163 16.162C229.158 16.2535 229.135 16.3432 229.094 16.4255C229.054 16.5078 228.997 16.581 228.928 16.6407C228.815 16.6852 228.693 16.6979 228.574 16.6776C228.454 16.6573 228.343 16.6047 228.252 16.5256C227.297 15.9394 226.513 15.1129 225.978 14.1288L224.956 16.5389C224.878 16.7941 224.706 17.0105 224.476 17.1449C224.321 17.2004 224.151 17.2017 223.996 17.1487C223.84 17.0956 223.707 16.9913 223.618 16.8528C223.45 16.5687 223.346 16.2512 223.315 15.9226L222.931 13.5883C222.926 13.4682 222.884 13.3527 222.81 13.258C222.693 13.1879 222.556 13.1591 222.421 13.1762C221.462 13.1479 220.489 13.1384 219.501 13.1477C219.332 12.6296 219.851 12.1466 220.345 11.9357C220.839 11.7248 221.436 11.5521 221.688 11.0673C222.196 10.0838 220.877 8.71483 221.438 7.86037C222.088 6.85805 223.152 7.83673 224.001 8.26093Z" fill="#F44336"/>
<path opacity="0.5" d="M277.261 21.2512C277.66 20.7386 278.241 20.3999 278.884 20.306C279.526 20.2121 280.18 20.3703 280.709 20.7475C281.238 21.1247 281.6 21.6916 281.72 22.3297C281.84 22.9678 281.709 23.6275 281.353 24.1709C280.874 24.8751 280.393 25.5617 279.886 26.2131C273.975 34.185 270.918 43.8629 268.283 53.4225C267.423 55.7194 267.238 58.2144 267.751 60.6127C266.832 54.3522 267.249 47.9681 268.974 41.88C270.699 35.8136 272.917 29.8982 275.606 24.1927C276.053 23.157 276.608 22.171 277.261 21.2512Z" fill="#F44336"/>
<path d="M315.584 38.0162C319.568 37.895 320.07 43.9356 316.106 44.2477C315.065 44.3295 314.015 44.3538 313.018 44.3822C300.819 44.7125 289.282 49.1381 278.201 53.8922C275.473 55.0575 272.623 56.3659 271.008 58.8614C276.161 53.1698 282.502 48.6804 289.584 45.7112C296.673 42.7436 304 40.3767 311.486 38.6355C312.824 38.2807 314.197 38.0734 315.581 38.0174L315.584 38.0162Z" fill="#F44336"/>
<path opacity="0.5" d="M314.485 52.8587C316.997 52.9538 316.432 56.525 313.9 56.5492C313.237 56.5492 312.576 56.525 311.943 56.4959C304.244 56.1838 296.369 58.3139 288.724 60.6428C286.794 61.0741 285 61.9766 283.503 63.2698C287.562 60.1356 292.162 57.7734 297.074 56.3008C301.911 54.8597 306.847 53.7751 311.843 53.0556C312.715 52.9036 313.6 52.8376 314.485 52.8587Z" fill="#F44336"/>
<path opacity="0.2" d="M309.902 17.9012C311.417 17.6376 311.532 19.8404 310.023 20.1737C309.624 20.2598 309.227 20.3253 308.848 20.3949C304.132 21.4505 299.625 23.2824 295.511 25.8156C294.41 26.3162 293.451 27.0838 292.722 28.0487C294.748 25.6626 297.196 23.6699 299.944 22.1705C302.647 20.6872 305.457 19.4054 308.349 18.3357C308.85 18.1378 309.371 17.9916 309.902 17.8994L309.902 17.9012Z" fill="#F44336"/>
<path opacity="0.2" d="M270.471 123.876C270.131 125.371 268.046 124.634 268.324 123.106C268.395 122.707 268.486 122.315 268.573 121.94C269.419 117.188 269.466 112.328 268.712 107.56C268.673 106.352 268.333 105.173 267.724 104.129C269.143 106.914 270.038 109.936 270.365 113.045C270.683 116.108 270.776 119.19 270.644 122.266C270.639 122.807 270.581 123.347 270.471 123.876Z" fill="#F44336"/>
<path opacity="0.5" d="M308.929 113.911C310.112 115.915 307.207 115.781 305.931 113.772C305.596 113.25 305.288 112.722 304.996 112.219C301.39 106.093 295.886 100.035 290.39 94.1818C289.084 92.6617 287.558 91.3449 285.863 90.2749C290.18 93.213 294.16 96.617 297.732 100.425C301.275 104.131 304.401 107.99 307.471 111.842C308.003 112.498 308.49 113.19 308.929 113.911Z" fill="#F44336"/>
<path opacity="0.2" d="M203.712 113.911C202.528 115.915 205.434 115.781 206.714 113.772C207.045 113.249 207.352 112.722 207.649 112.219C211.25 106.093 216.73 100.034 222.254 94.1818C223.561 92.6614 225.087 91.3444 226.782 90.2743C222.46 93.2115 218.475 96.6155 214.9 100.425C211.356 104.13 208.231 107.989 205.161 111.842C204.632 112.498 204.148 113.19 203.712 113.911Z" fill="#F44336"/>
<path opacity="0.2" d="M242.185 123.876C242.526 125.371 244.582 124.634 244.332 123.106C244.261 122.707 244.17 122.315 244.082 121.94C243.236 117.188 243.189 112.328 243.942 107.56C243.981 106.352 244.321 105.173 244.93 104.129C243.508 106.918 242.611 109.945 242.284 113.058C241.966 116.121 241.873 119.203 242.005 122.28C242.013 122.816 242.072 123.351 242.182 123.876H242.185Z" fill="#F44336"/>
<path opacity="0.2" d="M297.779 32.95C299.294 32.6864 299.405 34.8965 297.894 35.2225C297.5 35.3134 297.106 35.374 296.724 35.4425C292.006 36.4986 287.497 38.3304 283.38 40.8632C282.282 41.3658 281.326 42.1332 280.598 43.0963C282.617 40.7149 285.055 38.7228 287.791 37.2181C290.499 35.7386 293.31 34.457 296.203 33.3833C296.713 33.1905 297.241 33.0464 297.779 32.953V32.95Z" fill="#F44336"/>
<path opacity="0.2" d="M283.634 3.40699C284.943 2.59677 285.874 4.6008 284.593 5.47344C284.257 5.70372 283.913 5.91401 283.585 6.11581C279.606 8.85886 276.109 12.2421 273.237 16.1281C272.402 17.0012 271.802 18.071 271.491 19.2381C272.473 16.2687 273.994 13.5054 275.977 11.0862C277.937 8.70757 280.067 6.47425 282.35 4.40385C282.745 4.03131 283.175 3.6975 283.634 3.40699Z" fill="#F44336"/>
<path d="M333.283 76.3424C337.119 78.3228 333.877 83.7477 329.926 81.9479C328.89 81.4691 327.883 80.951 326.919 80.448C315.181 74.3607 301.538 72.1155 288.12 70.3823C284.832 69.9581 281.322 69.5915 278.269 70.8956C286.648 68.7167 295.372 68.1924 303.952 69.3522C312.438 70.5101 320.823 72.3131 329.035 74.7456C330.501 75.1334 331.924 75.6683 333.283 76.3424Z" fill="#F44336"/>
<path opacity="0.5" d="M322.306 97.4687C325.067 100.044 320.757 103.086 317.861 100.614C317.103 99.9673 316.379 99.2807 315.689 98.6341C307.275 90.7397 296.153 85.1203 285.075 79.9408C282.356 78.6682 271.169 77.3653 268.182 77.4441C275.984 78.1398 291.919 80.5741 299.001 83.795C305.946 87.0959 312.661 90.8627 319.097 95.0696C320.238 95.7678 321.311 96.5716 322.302 97.4706L322.306 97.4687Z" fill="#F44336"/>
<path d="M289.771 135.413C290.111 139.171 284.864 138.565 284.357 134.791C284.228 133.803 284.147 132.822 284.064 131.871C283.063 120.368 278.526 108.772 273.731 97.5324C272.556 94.7769 265.092 86.3498 262.819 84.4082C268.166 90.1319 278.412 102.57 281.519 109.689C284.483 116.783 286.974 124.066 288.976 131.49C289.361 132.77 289.626 134.084 289.77 135.413H289.771Z" fill="#F44336"/>
<path d="M292.908 8.26094C292.808 8.31857 292.696 8.35141 292.582 8.35669C292.375 8.35669 292.227 8.1458 292.14 7.9537C291.661 6.93683 291.939 5.61454 291.221 4.75281C290.484 5.63612 289.891 6.62928 289.463 7.69616L286.7 6.84351C286.57 7.37804 286.549 7.93328 286.639 8.47599C286.729 9.01869 286.927 9.53771 287.223 10.002C286.739 10.2131 286.299 10.512 285.924 10.8837C285.738 11.0723 285.607 11.3087 285.547 11.5667C285.487 11.8248 285.499 12.0945 285.583 12.346C286.221 12.501 286.878 12.5659 287.535 12.5387C287.43 13.7503 287.5 14.9706 287.741 16.1626C287.746 16.2541 287.769 16.3437 287.809 16.4259C287.849 16.5082 287.906 16.5815 287.975 16.6413C288.088 16.6858 288.211 16.6986 288.33 16.6783C288.449 16.658 288.561 16.6054 288.652 16.5262C289.606 15.94 290.39 15.1135 290.925 14.1294L291.951 16.5401C292.029 16.7951 292.2 17.0114 292.43 17.1461C292.585 17.2016 292.754 17.203 292.91 17.1499C293.066 17.0968 293.199 16.9925 293.288 16.854C293.458 16.5711 293.562 16.2529 293.591 15.9238L293.975 13.5895C293.972 13.522 293.984 13.4547 294.011 13.3929C294.039 13.3311 294.08 13.2765 294.132 13.2333C294.184 13.1902 294.245 13.1596 294.311 13.1442C294.377 13.1287 294.445 13.1287 294.511 13.1441C295.47 13.1146 296.443 13.1051 297.431 13.1156C297.6 12.5975 297.082 12.1139 296.587 11.9036C296.092 11.6933 295.496 11.5206 295.245 11.0358C294.737 10.0523 296.051 8.68333 295.495 7.82887C294.826 6.85805 293.766 7.83674 292.908 8.26094Z" fill="#F44336"/>
<path opacity="0.2" d="M301.241 121.863C301.143 121.924 301.03 121.957 300.915 121.958C300.709 121.958 300.56 121.752 300.474 121.56C299.995 120.539 300.272 119.216 299.554 118.357C298.818 119.238 298.226 120.23 297.799 121.296L295.037 120.443C294.908 120.978 294.887 121.534 294.977 122.078C295.067 122.621 295.265 123.141 295.56 123.606C295.075 123.815 294.635 124.115 294.261 124.488C294.08 124.674 293.952 124.907 293.892 125.16C293.832 125.413 293.842 125.678 293.92 125.926C294.558 126.082 295.216 126.149 295.872 126.123C295.768 127.334 295.838 128.555 296.078 129.747C296.074 129.854 296.103 129.96 296.162 130.051C296.221 130.141 296.307 130.21 296.407 130.248C296.508 130.287 296.618 130.293 296.722 130.266C296.826 130.239 296.919 130.18 296.988 130.097C297.942 129.511 298.726 128.684 299.26 127.7L300.287 130.15C300.364 130.407 300.535 130.625 300.766 130.763C300.922 130.816 301.092 130.815 301.247 130.76C301.403 130.705 301.536 130.6 301.624 130.46C301.795 130.177 301.899 129.859 301.927 129.53L302.31 127.195C302.319 127.076 302.364 126.963 302.439 126.87C302.554 126.78 302.7 126.736 302.846 126.749C303.805 126.727 304.779 126.717 305.767 126.72C305.935 126.202 305.417 125.723 304.923 125.508C304.429 125.293 303.831 125.129 303.58 124.646C303.072 123.658 304.386 122.287 303.83 121.438C303.155 120.46 302.091 121.444 301.241 121.863Z" fill="#F44336"/>
<path d="M324.632 45.717C324.532 45.774 324.42 45.8068 324.305 45.8127C324.095 45.8127 323.951 45.6025 323.864 45.4098C323.385 44.3887 323.663 43.0657 322.938 42.2083C322.202 43.092 321.609 44.0853 321.18 45.1522L318.424 44.2947C318.294 44.8301 318.274 45.3861 318.364 45.9296C318.453 46.473 318.652 46.9929 318.947 47.458C318.463 47.668 318.022 47.9671 317.648 48.3398C317.462 48.5283 317.332 48.7647 317.272 49.0226C317.212 49.2806 317.224 49.5501 317.308 49.8014C317.946 49.9565 318.603 50.0213 319.26 49.9942C319.156 51.2058 319.225 52.426 319.466 53.618C319.469 53.7098 319.492 53.8 319.532 53.8825C319.572 53.965 319.63 54.038 319.701 54.0968C319.902 54.2252 320.181 54.0968 320.376 53.9865C321.331 53.4005 322.115 52.574 322.65 51.5897L323.676 54.0398C323.749 54.2927 323.91 54.5108 324.131 54.6537C324.288 54.7076 324.459 54.707 324.615 54.652C324.772 54.597 324.906 54.4909 324.995 54.3507C325.166 54.0682 325.27 53.7498 325.298 53.4205L325.681 51.0904C325.688 50.9695 325.733 50.8539 325.809 50.7601C325.926 50.6709 326.071 50.6278 326.218 50.6389C327.177 50.6167 328.15 50.607 329.138 50.6098C329.306 50.0917 328.788 49.613 328.29 49.3978C327.791 49.1827 327.198 49.0142 326.951 48.5294C326.444 47.5417 327.756 46.1709 327.201 45.3225C326.541 44.308 325.48 45.3007 324.632 45.717Z" fill="#F44336"/>
<path d="M231.132 133.258C230.995 133.342 230.838 133.389 230.677 133.393C230.384 133.393 230.198 133.1 230.059 132.837C229.407 131.399 229.78 129.572 228.774 128.374C227.75 129.604 226.925 130.987 226.328 132.471L222.492 131.282C222.312 132.026 222.283 132.798 222.408 133.553C222.533 134.308 222.809 135.03 223.219 135.676C222.541 135.968 221.924 136.386 221.401 136.907C221.14 137.169 220.958 137.498 220.873 137.858C220.788 138.218 220.805 138.594 220.921 138.945C221.809 139.161 222.722 139.251 223.635 139.213C223.494 140.902 223.59 142.603 223.923 144.265C223.946 144.514 224.064 144.745 224.254 144.908C224.537 145.085 224.905 144.908 225.213 144.756C226.543 143.933 227.634 142.776 228.377 141.401L229.816 144.814C229.916 145.167 230.143 145.47 230.454 145.666C230.671 145.741 230.907 145.741 231.124 145.666C231.341 145.592 231.527 145.447 231.653 145.254C231.892 144.862 232.038 144.419 232.077 143.96L232.614 140.711C232.616 140.536 232.679 140.367 232.791 140.232C232.952 140.108 233.154 140.049 233.356 140.069C234.715 140.028 236.072 140.014 237.427 140.026C237.662 139.306 236.948 138.636 236.248 138.334C235.548 138.033 234.732 137.798 234.383 137.122C233.673 135.747 235.504 133.839 234.728 132.654C233.798 131.302 232.317 132.67 231.132 133.258Z" fill="#F44336"/>
<path d="M192.233 47.9894C192.096 48.073 191.939 48.1196 191.779 48.1246C191.491 48.1246 191.3 47.8319 191.165 47.564C190.509 46.1266 190.888 44.2989 189.88 43.1008C188.848 44.337 188.016 45.7275 187.416 47.2216L183.58 46.0326C183.398 46.778 183.369 47.5522 183.494 48.3091C183.618 49.0659 183.894 49.7901 184.304 50.4383C183.63 50.7325 183.017 51.1501 182.496 51.6697C182.237 51.9313 182.055 52.2595 181.971 52.6179C181.886 52.9763 181.902 53.3511 182.017 53.701C182.907 53.9161 183.822 54.0078 184.736 53.9737C184.592 55.6615 184.689 57.3612 185.024 59.0217C185.033 59.1454 185.067 59.2661 185.124 59.3764C185.181 59.4868 185.259 59.5846 185.355 59.664C185.638 59.8458 186.006 59.664 186.289 59.5125C187.621 58.6911 188.712 57.5336 189.454 56.1565L190.892 59.5701C190.994 59.9221 191.219 60.2257 191.526 60.4258C191.744 60.5 191.98 60.4993 192.197 60.4238C192.415 60.3482 192.6 60.2022 192.725 60.0088C192.964 59.6157 193.109 59.1731 193.149 58.715L193.681 55.4657C193.691 55.2918 193.753 55.1249 193.859 54.9869C194.021 54.8629 194.225 54.8045 194.429 54.8233C195.788 54.7849 197.145 54.7722 198.499 54.7851C198.73 54.0609 198.02 53.3913 197.316 53.0883C196.612 52.7853 195.8 52.5562 195.45 51.8763C194.746 50.5128 196.578 48.5936 195.796 47.4089C194.901 46.029 193.416 47.3998 192.233 47.9894Z" fill="#F44336"/>
<path opacity="0.2" d="M310.271 100.793C310.198 100.837 310.114 100.862 310.028 100.864C309.877 100.864 309.769 100.712 309.703 100.561C309.357 99.803 309.551 98.8304 309.022 98.1929C308.479 98.8472 308.041 99.5817 307.723 100.37L305.68 99.737C305.584 100.133 305.568 100.544 305.634 100.945C305.7 101.347 305.846 101.732 306.063 102.076C305.705 102.234 305.38 102.456 305.104 102.732C304.967 102.872 304.871 103.046 304.827 103.236C304.782 103.427 304.792 103.626 304.854 103.811C305.324 103.926 305.808 103.974 306.291 103.955C306.217 104.852 306.268 105.756 306.444 106.639C306.456 106.772 306.519 106.894 306.621 106.98C306.772 107.076 306.966 106.98 307.1 106.898C307.806 106.462 308.385 105.847 308.777 105.115L309.535 106.933C309.586 107.121 309.706 107.283 309.871 107.388C309.987 107.428 310.113 107.428 310.228 107.388C310.344 107.347 310.443 107.27 310.509 107.167C310.637 106.959 310.714 106.725 310.735 106.482L311.018 104.752C311.024 104.663 311.057 104.578 311.113 104.509C311.199 104.442 311.308 104.411 311.417 104.423C312.135 104.399 312.855 104.394 313.58 104.399C313.701 104.015 313.321 103.661 312.952 103.497C312.583 103.333 312.147 103.214 311.96 102.86C311.586 102.126 312.566 101.114 312.147 100.463C311.684 99.7521 310.899 100.481 310.271 100.793Z" fill="#F44336"/>
<path opacity="0.2" d="M257.418 131.293C257.346 131.337 257.263 131.362 257.179 131.364C257.027 131.364 256.915 131.213 256.846 131.061C256.501 130.304 256.702 129.326 256.166 128.689C255.623 129.343 255.185 130.077 254.867 130.865L252.83 130.24C252.733 130.637 252.718 131.049 252.785 131.452C252.852 131.854 252.999 132.24 253.219 132.584C252.861 132.739 252.535 132.96 252.259 133.235C252.122 133.375 252.026 133.549 251.982 133.74C251.938 133.93 251.947 134.129 252.009 134.314C252.48 134.428 252.964 134.477 253.447 134.458C253.371 135.355 253.422 136.259 253.599 137.142C253.603 137.208 253.62 137.272 253.65 137.331C253.68 137.389 253.721 137.441 253.772 137.483C253.923 137.579 254.117 137.483 254.25 137.402C254.959 136.966 255.539 136.351 255.934 135.619L256.692 137.437C256.745 137.625 256.867 137.787 257.032 137.891C257.147 137.932 257.271 137.933 257.386 137.894C257.5 137.855 257.599 137.778 257.664 137.676C257.792 137.467 257.87 137.23 257.89 136.985L258.178 135.259C258.183 135.171 258.215 135.087 258.269 135.017C258.355 134.95 258.464 134.919 258.572 134.931C259.292 134.931 260.011 134.903 260.735 134.907C260.861 134.524 260.476 134.169 260.108 134.006C259.739 133.843 259.303 133.722 259.12 133.368C258.741 132.634 259.714 131.622 259.302 130.995C258.863 130.252 258.058 130.976 257.418 131.293Z" fill="#F44336"/>
<path opacity="0.5" d="M206.287 24.5412C206.214 24.5861 206.13 24.6106 206.044 24.6121C205.893 24.6121 205.781 24.4606 205.719 24.3091C205.369 23.5516 205.567 22.5742 205.033 21.9366C204.49 22.5925 204.052 23.3284 203.734 24.1182L201.691 23.485C201.595 23.8809 201.58 24.2922 201.647 24.6941C201.713 25.096 201.86 25.4803 202.079 25.8241C201.721 25.9793 201.396 26.2003 201.119 26.4756C200.984 26.6166 200.889 26.792 200.845 26.9829C200.801 27.1738 200.81 27.373 200.871 27.5591C201.341 27.6734 201.825 27.7218 202.309 27.7027C202.232 28.5989 202.283 29.5014 202.46 30.3831C202.452 30.4622 202.469 30.5419 202.51 30.6101C202.551 30.6782 202.614 30.731 202.688 30.7604C202.762 30.7898 202.843 30.7941 202.92 30.7727C202.997 30.7513 203.064 30.7053 203.112 30.6418C203.819 30.206 204.399 29.5928 204.794 28.8632L205.552 30.6812C205.602 30.8781 205.723 31.0491 205.894 31.16C206.009 31.199 206.135 31.1986 206.25 31.1588C206.365 31.119 206.464 31.042 206.531 30.94C206.656 30.729 206.733 30.4932 206.757 30.2492L207.07 28.5148C207.076 28.4262 207.11 28.3417 207.165 28.2724C207.253 28.2086 207.36 28.1781 207.469 28.1863H209.627C209.751 27.8027 209.368 27.4488 209.004 27.2852C208.64 27.1216 208.194 27.0016 208.012 26.6428C207.633 25.9156 208.606 24.8976 208.194 24.2704C207.703 23.5086 206.92 24.2382 206.287 24.5412Z" fill="#F44336"/>
<path opacity="0.5" d="M233.505 84.7014C233.432 84.7461 233.349 84.7706 233.263 84.7724C233.111 84.7724 232.999 84.6209 232.937 84.4694C232.587 83.7119 232.786 82.735 232.252 82.0726C231.707 82.7267 231.27 83.4631 230.957 84.2542L228.91 83.6409C228.815 84.037 228.801 84.448 228.867 84.8498C228.934 85.2516 229.08 85.6359 229.298 85.9801C228.941 86.1365 228.616 86.3573 228.339 86.6316C228.203 86.7724 228.108 86.9477 228.064 87.1387C228.02 87.3296 228.029 87.5289 228.089 87.7151C228.56 87.8294 229.044 87.8777 229.527 87.8587C229.451 88.7546 229.502 89.6568 229.679 90.5385C229.675 90.6182 229.696 90.6971 229.739 90.7641C229.783 90.8311 229.846 90.8826 229.921 90.9114C229.995 90.9401 230.077 90.9446 230.154 90.9242C230.231 90.9039 230.3 90.8596 230.351 90.7978C231.057 90.362 231.637 89.7488 232.033 89.0192L232.791 90.8372C232.848 91.0236 232.969 91.1843 233.132 91.2917C233.248 91.3307 233.373 91.3302 233.489 91.2901C233.604 91.2501 233.703 91.1728 233.77 91.0705C233.899 90.8614 233.976 90.6246 233.995 90.3797L234.279 88.6544C234.277 88.6044 234.286 88.5547 234.306 88.5089C234.327 88.4632 234.357 88.4228 234.395 88.3908C234.434 88.3588 234.479 88.3361 234.528 88.3246C234.577 88.313 234.627 88.3129 234.676 88.3241C235.396 88.3241 236.115 88.295 236.838 88.3241C236.96 87.9405 236.58 87.586 236.21 87.4224C235.84 87.2588 235.405 87.1388 235.217 86.78C234.843 86.0528 235.811 85.0348 235.399 84.4075C234.925 83.6476 234.138 84.39 233.505 84.7014Z" fill="#F44336"/>
<path opacity="0.5" d="M213.754 61.2535C213.681 61.2985 213.598 61.323 213.512 61.3244C213.36 61.3244 213.248 61.1729 213.182 61.0214C212.836 60.2639 213.038 59.2864 212.501 58.6489C211.957 59.3039 211.519 60.04 211.202 60.8305L209.159 60.1973C209.063 60.593 209.048 61.0039 209.114 61.4057C209.179 61.8075 209.325 62.192 209.542 62.5364C209.185 62.6924 208.86 62.9133 208.583 63.1879C208.445 63.3277 208.349 63.503 208.304 63.6943C208.26 63.8856 208.27 64.0854 208.333 64.2714C208.803 64.386 209.287 64.4345 209.771 64.4156C209.694 65.3115 209.745 66.2138 209.923 67.0954C209.915 67.1763 209.935 67.2574 209.978 67.3264C210.021 67.3954 210.085 67.4485 210.161 67.4778C210.237 67.5071 210.32 67.5109 210.398 67.4887C210.476 67.4665 210.545 67.4195 210.594 67.3547C211.3 66.92 211.879 66.3064 212.272 65.5761L213.029 67.3941C213.08 67.5903 213.202 67.7607 213.371 67.8729C213.486 67.9118 213.611 67.9112 213.726 67.8711C213.84 67.8311 213.938 67.7538 214.004 67.6517C214.133 67.4426 214.211 67.2058 214.23 66.9608L214.518 65.2349C214.515 65.185 214.524 65.1351 214.544 65.0891C214.563 65.0432 214.594 65.0025 214.632 64.9703C214.67 64.9382 214.716 64.9155 214.764 64.9041C214.813 64.8927 214.864 64.8929 214.912 64.9047C215.632 64.9047 216.35 64.8756 217.075 64.9047C217.199 64.5217 216.815 64.1672 216.447 64.0029C216.079 63.8387 215.641 63.7199 215.459 63.3606C215.08 62.6334 216.053 61.6153 215.641 60.9881C215.169 60.2124 214.382 60.9414 213.754 61.2535Z" fill="#F44336"/>
<path opacity="0.5" d="M298.595 66.7743C298.522 66.8189 298.438 66.8434 298.352 66.8452C298.201 66.8452 298.093 66.6937 298.026 66.5422C297.676 65.7847 297.875 64.8078 297.346 64.1697C296.8 64.8236 296.362 65.56 296.047 66.3513L294.004 65.718C293.909 66.1137 293.893 66.5247 293.959 66.9265C294.025 67.3283 294.171 67.7128 294.388 68.0572C294.031 68.2138 293.706 68.4347 293.429 68.7086C293.294 68.8498 293.199 69.025 293.155 69.2157C293.111 69.4063 293.119 69.6053 293.179 69.7915C293.65 69.9033 294.134 69.9516 294.617 69.9352C294.541 70.8313 294.591 71.7337 294.768 72.6155C294.763 72.6962 294.784 72.7763 294.828 72.8443C294.872 72.9123 294.936 72.9645 295.011 72.9934C295.087 73.0223 295.17 73.0263 295.248 73.0049C295.326 72.9834 295.395 72.9377 295.445 72.8743C296.15 72.4382 296.728 71.8249 297.122 71.0956L297.88 72.9136C297.934 73.1003 298.054 73.2615 298.216 73.3681C298.332 73.4072 298.458 73.4066 298.573 73.3666C298.689 73.3265 298.788 73.2493 298.854 73.147C298.983 72.9377 299.06 72.701 299.08 72.4561L299.364 70.7302C299.371 70.6416 299.404 70.5571 299.46 70.4878C299.547 70.4222 299.655 70.3913 299.763 70.4012C300.483 70.4012 301.201 70.3721 301.925 70.3769C302.047 69.9982 301.666 69.6394 301.296 69.4801C300.926 69.3207 300.49 69.1964 300.304 68.8377C299.929 68.1105 300.91 67.0924 300.486 66.4652C300.008 65.7332 299.228 66.4622 298.595 66.7743Z" fill="#F44336"/>
<path opacity="0.2" d="M257.425 62.1589C257.352 62.204 257.268 62.2287 257.182 62.2304C257.03 62.2304 256.918 62.0789 256.852 61.9274C256.506 61.1699 256.707 60.1973 256.171 59.5592C255.628 60.2129 255.19 60.9468 254.871 61.7347L252.834 61.1118C252.737 61.5077 252.722 61.9191 252.789 62.321C252.856 62.723 253.003 63.1074 253.222 63.4509C252.864 63.6082 252.539 63.8312 252.263 64.1084C252.126 64.2479 252.031 64.4224 251.987 64.6127C251.943 64.803 251.952 65.0018 252.014 65.1871C252.484 65.3017 252.968 65.3502 253.452 65.3314C253.375 66.2289 253.426 67.1327 253.604 68.0159C253.608 68.0815 253.625 68.1456 253.655 68.2043C253.685 68.2629 253.726 68.3149 253.776 68.3571C253.928 68.4522 254.122 68.3571 254.255 68.2753C254.978 67.8405 255.574 67.2223 255.981 66.4834L256.739 68.3014C256.794 68.4892 256.915 68.6507 257.08 68.7559C257.195 68.7959 257.32 68.796 257.435 68.7562C257.55 68.7163 257.648 68.639 257.714 68.5365C257.831 68.3198 257.895 68.0781 257.9 67.8317L258.188 66.1016C258.192 66.0143 258.224 65.9306 258.279 65.8622C258.366 65.7967 258.473 65.7644 258.582 65.7713C259.302 65.7713 260.021 65.7471 260.745 65.7713C260.869 65.3883 260.486 65.0338 260.118 64.8696C259.749 64.7054 259.311 64.586 259.129 64.2321C258.75 63.4988 259.723 62.4868 259.311 61.8353C258.863 61.1184 258.058 61.8468 257.425 62.1589Z" fill="#F44336"/>
<path opacity="0.3" d="M244.511 67.7765C244.438 67.8215 244.355 67.846 244.269 67.8474C244.117 67.8474 244.009 67.6959 243.943 67.5444C243.597 66.7869 243.791 65.8143 243.263 65.1768C242.72 65.8305 242.281 66.5644 241.963 67.3523L239.92 66.719C239.824 67.1147 239.809 67.5256 239.874 67.9275C239.94 68.3293 240.086 68.7138 240.304 69.0582C239.946 69.2155 239.621 69.4378 239.345 69.7139C239.208 69.8533 239.111 70.0275 239.067 70.2177C239.022 70.4078 239.03 70.6067 239.09 70.7926C239.56 70.9069 240.045 70.9554 240.528 70.9368C240.454 71.8343 240.505 72.7379 240.68 73.6214C240.692 73.7536 240.756 73.8758 240.857 73.9619C241.009 74.0577 241.203 73.9619 241.336 73.8801C242.042 73.4438 242.621 72.8288 243.013 72.0973L243.771 73.9153C243.823 74.1034 243.943 74.2655 244.108 74.3698C244.223 74.4107 244.349 74.4111 244.465 74.3709C244.581 74.3307 244.68 74.2523 244.745 74.1486C244.874 73.9408 244.952 73.7055 244.972 73.462L245.255 71.7367C245.261 71.6479 245.294 71.5631 245.35 71.4943C245.436 71.4268 245.545 71.3957 245.654 71.4076C246.374 71.3834 247.092 71.3792 247.817 71.3834C247.941 70.9998 247.557 70.6459 247.189 70.4823C246.821 70.3187 246.383 70.1987 246.197 69.8442C245.822 69.1109 246.803 68.0989 246.383 67.4474C245.916 66.7354 245.139 67.4644 244.511 67.7765Z" fill="#F44336"/>
<path opacity="0.2" d="M232.487 33.7936C232.414 33.8388 232.33 33.8635 232.244 33.8651C232.093 33.8651 231.985 33.7136 231.918 33.5621C231.568 32.8046 231.767 31.8271 231.238 31.1945C230.694 31.8471 230.256 32.5812 229.94 33.37L227.897 32.7367C227.801 33.1324 227.785 33.5433 227.851 33.9451C227.917 34.3469 228.063 34.7314 228.28 35.0759C227.922 35.2305 227.596 35.4516 227.321 35.7273C227.184 35.8678 227.088 36.0428 227.043 36.2337C226.998 36.4247 227.006 36.6242 227.066 36.8109C227.536 36.925 228.02 36.9733 228.504 36.9545C228.427 37.8504 228.478 38.7527 228.656 39.6342C228.668 39.7677 228.732 39.8912 228.833 39.9796C228.984 40.0748 229.178 39.9796 229.311 39.893C230.019 39.458 230.599 38.8435 230.993 38.112L231.75 39.93C231.798 40.1262 231.918 40.2972 232.087 40.4087C232.203 40.4489 232.329 40.4489 232.444 40.4088C232.56 40.3686 232.659 40.2907 232.725 40.1875C232.853 39.9802 232.931 39.7456 232.951 39.5027L233.234 37.7726C233.24 37.6841 233.274 37.5996 233.329 37.5302C233.417 37.468 233.524 37.4374 233.632 37.4435H235.794C235.916 37.0599 235.536 36.706 235.165 36.5424C234.795 36.3788 234.359 36.2588 234.173 35.9001C233.798 35.1729 234.779 34.1548 234.355 33.5276C233.884 32.7331 233.093 33.4651 232.487 33.7936Z" fill="#F44336"/>
<path opacity="0.3" d="M256.186 78.1464C256.114 78.1909 256.031 78.2156 255.947 78.2179C255.87 78.2019 255.799 78.1652 255.742 78.1118C255.684 78.0583 255.643 77.9903 255.621 77.9149C255.271 77.1574 255.469 76.1805 254.936 75.5466C254.393 76.2002 253.955 76.9341 253.637 77.7222L251.594 77.0889C251.499 77.4849 251.484 77.896 251.551 78.2978C251.617 78.6996 251.764 79.084 251.982 79.4281C251.625 79.5851 251.3 79.8058 251.022 80.0795C250.886 80.2206 250.792 80.396 250.748 80.5868C250.704 80.7777 250.713 80.9769 250.774 81.163C251.244 81.2776 251.728 81.3261 252.212 81.3073C252.135 82.2032 252.186 83.1055 252.364 83.987C252.357 84.0653 252.376 84.1436 252.417 84.2105C252.458 84.2775 252.52 84.3295 252.592 84.3589C252.665 84.3884 252.746 84.3938 252.822 84.3743C252.898 84.3548 252.966 84.3115 253.016 84.2506C253.721 83.8119 254.301 83.1973 254.698 82.4672L255.456 84.2852C255.511 84.473 255.632 84.6344 255.797 84.7397C255.913 84.7797 256.038 84.7796 256.154 84.7395C256.27 84.6994 256.369 84.6215 256.435 84.5185C256.559 84.3094 256.636 84.0757 256.66 83.8337L256.944 82.1036C256.942 82.0537 256.951 82.004 256.972 81.9584C256.992 81.9128 257.023 81.8725 257.061 81.8406C257.099 81.8086 257.145 81.786 257.193 81.7743C257.242 81.7626 257.292 81.7623 257.341 81.7733H259.499C259.62 81.3897 259.24 81.0352 258.877 80.8722C258.513 80.7092 258.065 80.5886 257.884 80.2298C257.509 79.5026 258.478 78.4845 258.065 77.8573C257.602 77.1029 256.82 77.8319 256.186 78.1464Z" fill="#F44336"/>
</g>
<defs>
<linearGradient id="paint0_linear_1_193" x1="171.94" y1="296.948" x2="171.94" y2="46.796" gradientUnits="userSpaceOnUse">
<stop stop-color="#808080" stop-opacity="0.251"/>
<stop offset="0.54" stop-color="#808080" stop-opacity="0.122"/>
<stop offset="1" stop-color="#808080" stop-opacity="0.102"/>
</linearGradient>
<clipPath id="clip0_1_193">
<rect width="335" height="303" fill="white"/>
</clipPath>
</defs>
</svg>
