<svg width="274" height="274" viewBox="0 0 274 274" fill="none" xmlns="http://www.w3.org/2000/svg">
<g clip-path="url(#clip0_1_346)">
<path d="M137 239.75C193.747 239.75 239.75 193.747 239.75 137C239.75 80.2527 193.747 34.25 137 34.25C80.2527 34.25 34.25 80.2527 34.25 137C34.25 193.747 80.2527 239.75 137 239.75Z" fill="#134F19" fill-opacity="0.05"/>
<path d="M137 274C212.663 274 274 212.663 274 137C274 61.337 212.663 0 137 0C61.337 0 0 61.337 0 137C0 212.663 61.337 274 137 274Z" fill="#134F19" fill-opacity="0.05"/>
<path d="M83.7476 165.449C85.9713 170.052 85.6294 175.897 86.0897 180.91C86.6346 186.137 87.5983 191.312 88.9716 196.385C91.7352 207.18 95.3208 218.037 96.3472 229.189C96.8952 235.11 96.1696 240.807 95.5252 246.703C95.5252 246.835 95.7619 247.071 95.8211 246.867C98.9447 236.294 96.7291 224.814 94.3015 214.366C91.7807 203.556 87.9852 192.939 86.8536 181.845C86.5445 178.752 86.3473 175.647 85.9982 172.554C85.7088 170.033 85.4189 167.482 84.0254 165.317C83.907 165.126 83.6418 165.251 83.7514 165.462L83.7476 165.449Z" fill="#E0E0E0"/>
<path d="M81.8855 167.674C82.8658 168.101 84.2605 169.549 83.2341 170.688C82.8622 170.995 82.4006 171.172 81.9189 171.194C81.5704 171.194 81.5704 171.24 81.9189 171.398L82.0175 172.181C80.6426 172.687 80.0447 173.615 80.2091 174.971C79.9026 175.353 79.5278 175.674 79.1038 175.918C78.9789 176.017 79.1038 176.307 79.2551 176.228C80.3998 175.662 81.9403 174.181 80.6892 172.898C80.3012 172.504 79.2551 172.148 79.0117 172.898C78.6369 173.994 80.7155 174.214 81.3276 174.056C82.6428 173.728 82.8867 172.227 82.4526 171.082C82.0844 170.115 80.7286 169.11 79.7417 170.056C79.0841 170.659 79.6102 171.371 80.3406 171.648C81.6104 172.168 83.7552 171.773 84.1564 170.293C84.5575 168.813 83.2352 167.663 81.9063 167.359C81.7024 167.313 81.7967 167.641 81.9063 167.694L81.8855 167.674Z" fill="#E0E0E0"/>
<path d="M64.7468 145.685C65.9704 149.145 66.8653 152.718 68.0348 156.211C69.0875 159.284 70.5742 162.185 71.7255 165.225C74.2847 172.028 75.4821 179.14 76.9036 186.239C77.5316 189.775 78.4107 193.262 79.534 196.673C80.6632 199.706 81.9658 202.672 83.4352 205.555C86.4289 211.674 89.4818 217.839 91.7582 224.267C93.0345 227.866 93.9294 231.583 94.8769 235.282C96.034 239.413 96.7377 243.657 96.9757 247.94C96.9757 248.125 97.2914 248.315 97.3045 248.059C97.5281 244.308 96.8376 240.65 95.9893 237.019C95.1799 233.663 94.3711 230.275 93.3589 226.972C91.339 220.439 88.3453 214.215 85.385 208.07C83.8917 204.971 82.3189 201.912 81.0295 198.721C79.7854 195.542 78.8233 192.26 78.1541 188.912C76.6345 181.892 75.6607 174.734 73.3712 167.898C72.1212 164.167 70.338 160.661 68.9828 157.003C67.6276 153.345 66.6867 149.325 65.0372 145.659C64.9517 145.468 64.6755 145.468 64.7632 145.705L64.7468 145.685Z" fill="#E0E0E0"/>
<path d="M69.5757 199.911C70.8909 202.069 71.6351 204.514 72.9509 206.688C73.9132 208.197 75.014 209.613 76.2389 210.918C79.7389 214.826 83.7065 218.399 86.6207 222.761C89.6473 227.327 91.2239 232.63 92.5419 237.893C93.1995 240.524 93.759 243.154 94.4303 245.723C94.6738 246.843 95.0401 247.933 95.5224 248.973C96.0617 250.032 96.7527 250.986 97.2267 252.078C97.378 252.427 98.0558 252.276 97.8843 251.875C97.4174 250.782 96.7198 249.835 96.1855 248.776C95.6514 247.588 95.2471 246.346 94.9799 245.072C94.3223 242.486 93.7562 239.874 93.1047 237.29C91.927 232.612 90.5192 227.928 88.0318 223.755C85.5445 219.582 82.1107 216.254 78.821 212.767C76.709 210.524 74.437 208.3 72.9788 205.53C71.9327 203.557 71.1627 201.53 69.8733 199.701C69.7484 199.523 69.4656 199.646 69.5993 199.858L69.5757 199.911Z" fill="#E0E0E0"/>
<path d="M69.465 202.043C69.6934 202.37 69.8605 202.735 69.9582 203.122C70.0503 203.556 69.9582 205.563 69.0699 205.674L67.7547 205.017C69.7275 205.492 70.4118 206.465 69.8075 207.938L69.0902 208.662C69.1686 208.876 69.203 209.104 69.1912 209.331C69.1793 209.559 69.1216 209.782 69.0214 209.987C68.9212 210.191 68.7807 210.374 68.6082 210.523C68.4357 210.672 68.2349 210.785 68.0178 210.854C67.7876 210.964 68.0178 211.302 68.2545 211.242C71.965 210.104 67.8402 206.031 66.7678 207.762C66.1102 208.814 67.8402 209.453 68.5762 209.373C68.8773 209.34 69.1686 209.247 69.4325 209.098C69.6965 208.949 69.9276 208.749 70.1119 208.509C70.2963 208.268 70.43 207.993 70.5051 207.699C70.5803 207.406 70.5952 207.1 70.549 206.801C70.4744 206.196 70.1922 205.636 69.7507 205.217C69.3091 204.797 68.7356 204.543 68.1279 204.499C67.2264 204.499 65.9107 205.212 66.753 206.184C67.5952 207.156 69.174 206.421 69.8125 205.717C70.8652 204.553 70.5429 202.98 69.6481 201.868C69.5231 201.717 69.3456 201.868 69.4442 202.033L69.465 202.043Z" fill="#E0E0E0"/>
<path d="M66.445 146.363C66.0965 145.198 62.7186 142.724 62.2605 142.863C61.8023 143.001 60.5617 146.808 60.9453 148.021C61.0389 148.257 61.1938 148.463 61.3938 148.619C61.5939 148.776 61.8319 148.876 62.0834 148.909C62.78 149.037 63.497 148.998 64.1753 148.794C64.8536 148.591 65.4738 148.229 65.9847 147.738C66.1786 147.572 66.3243 147.356 66.4064 147.115C66.4885 146.873 66.5041 146.613 66.4516 146.363L66.445 146.363Z" fill="#E53935"/>
<path opacity="0.1" d="M66.445 146.363C66.0965 145.198 62.7186 142.724 62.2605 142.863C61.8023 143.001 60.5617 146.808 60.9453 148.021C61.0389 148.257 61.1938 148.463 61.3938 148.619C61.5939 148.776 61.8319 148.876 62.0834 148.909C62.78 149.037 63.497 148.998 64.1753 148.794C64.8536 148.591 65.4738 148.229 65.9847 147.738C66.1786 147.572 66.3243 147.356 66.4064 147.115C66.4885 146.873 66.5041 146.613 66.4516 146.363L66.445 146.363Z" fill="black"/>
<path d="M77.5891 107.893C76.7381 105.097 74.858 102.727 72.3283 101.262H72.2735C70.7789 100.399 69.1228 99.8529 67.408 99.6571C65.6933 99.4613 63.9566 99.6202 62.3059 100.124C58.0951 101.387 55.3255 105.604 54.3649 109.993C54.2841 110.35 54.1098 110.679 53.86 110.947C53.6101 111.215 53.2936 111.411 52.9428 111.516C52.592 111.621 52.2196 111.631 51.8638 111.545C51.5079 111.459 51.1813 111.28 50.9174 111.026C47.6804 107.881 43.0224 105.887 38.8378 107.158C37.1832 107.648 35.6472 108.474 34.3251 109.583C33.003 110.692 31.9232 112.061 31.1527 113.605V113.66C29.8597 116.276 29.6035 119.285 30.4354 122.082C33.1326 131.056 44.4691 137.352 53.4957 141.056L63.003 144.931L68.7992 136.464C74.2995 128.368 80.2606 116.867 77.5891 107.893Z" fill="#E53935"/>
<path opacity="0.2" d="M77.5891 107.893C76.7381 105.097 74.858 102.727 72.3283 101.262H72.2735C70.7789 100.399 69.1228 99.8529 67.408 99.6571C65.6933 99.4613 63.9566 99.6202 62.3059 100.124C58.0951 101.387 55.3255 105.604 54.3649 109.993C54.2841 110.35 54.1098 110.679 53.86 110.947C53.6101 111.215 53.2936 111.411 52.9428 111.516C52.592 111.621 52.2196 111.631 51.8638 111.545C51.5079 111.459 51.1813 111.28 50.9174 111.026C47.6804 107.881 43.0224 105.887 38.8378 107.158C37.1832 107.648 35.6472 108.474 34.3251 109.583C33.003 110.692 31.9232 112.061 31.1527 113.605V113.66C29.8597 116.276 29.6035 119.285 30.4354 122.082C33.1326 131.056 44.4691 137.352 53.4957 141.056L63.003 144.931L68.7992 136.464C74.2995 128.368 80.2606 116.867 77.5891 107.893Z" fill="black"/>
<path opacity="0.1" d="M77.9776 116.111C77.0499 118.303 69.4245 133.217 58.345 133.921C45.1382 134.724 30.311 123.328 31.1593 113.637C29.8663 116.253 29.6101 119.262 30.4419 122.059C33.1392 131.033 44.4757 137.329 53.5023 141.033L63.0096 144.908L68.8058 136.441C72.7212 130.69 76.8855 123.197 77.9776 116.111Z" fill="black"/>
<path d="M71.7074 199.562C71.0498 198.529 67.1678 197.003 66.7595 197.253C66.3513 197.503 66.1019 201.477 66.799 202.582C66.9508 202.782 67.1517 202.939 67.3821 203.039C67.6126 203.138 67.8648 203.176 68.1142 203.149C68.8192 203.092 69.5008 202.869 70.1034 202.498C70.7059 202.128 71.2124 201.62 71.5814 201.017C71.726 200.805 71.812 200.559 71.8305 200.304C71.849 200.048 71.7993 199.793 71.6866 199.562H71.7074Z" fill="#E53935"/>
<path opacity="0.3" d="M71.7074 199.562C71.0498 198.529 67.1678 197.003 66.7595 197.253C66.3513 197.503 66.1019 201.477 66.799 202.582C66.9508 202.782 67.1517 202.939 67.3821 203.039C67.6126 203.138 67.8648 203.176 68.1142 203.149C68.8192 203.092 69.5008 202.869 70.1034 202.498C70.7059 202.128 71.2124 201.62 71.5814 201.017C71.726 200.805 71.812 200.559 71.8305 200.304C71.849 200.048 71.7993 199.793 71.6866 199.562H71.7074Z" fill="white"/>
<path d="M72.6029 159.528C71.068 157.042 68.6493 155.23 65.8329 154.455H65.7781C64.1116 154.004 62.3701 153.9 60.662 154.152C58.9539 154.403 57.3159 155.003 55.85 155.915C52.1 158.212 50.5075 162.995 50.7114 167.508C50.7253 167.875 50.6414 168.239 50.4682 168.562C50.295 168.886 50.0388 169.157 49.7259 169.349C49.413 169.54 49.0548 169.645 48.6879 169.652C48.3211 169.66 47.959 169.569 47.6387 169.39C43.6931 167.18 38.7173 166.442 34.9799 168.733C33.5057 169.63 32.2316 170.821 31.2368 172.231C30.2419 173.641 29.5476 175.241 29.1969 176.931V176.99C28.612 179.85 29.1364 182.825 30.6639 185.312C35.5718 193.293 48.1451 196.497 57.8233 197.734L68.0013 199.049L71.4356 189.384C74.6749 180.174 77.5107 167.502 72.6029 159.528Z" fill="#E53935"/>
<path opacity="0.5" d="M72.6029 159.528C71.068 157.042 68.6493 155.23 65.8329 154.455H65.7781C64.1116 154.004 62.3701 153.9 60.662 154.152C58.9539 154.403 57.3159 155.003 55.85 155.915C52.1 158.212 50.5075 162.995 50.7114 167.508C50.7253 167.875 50.6414 168.239 50.4682 168.562C50.295 168.886 50.0388 169.157 49.7259 169.349C49.413 169.54 49.0548 169.645 48.6879 169.652C48.3211 169.66 47.959 169.569 47.6387 169.39C43.6931 167.18 38.7173 166.442 34.9799 168.733C33.5057 169.63 32.2316 170.821 31.2368 172.231C30.2419 173.641 29.5476 175.241 29.1969 176.931V176.99C28.612 179.85 29.1364 182.825 30.6639 185.312C35.5718 193.293 48.1451 196.497 57.8233 197.734L68.0013 199.049L71.4356 189.384C74.6749 180.174 77.5107 167.502 72.6029 159.528Z" fill="white"/>
<path opacity="0.05" d="M75.0831 167.37C74.7543 169.719 71.234 186.112 60.6811 189.615C48.1281 193.786 30.8699 186.575 29.2057 176.989C28.6207 179.849 29.1451 182.825 30.6727 185.312C35.5806 193.293 48.1539 196.497 57.8321 197.734L68.0101 199.049L71.4378 189.384C73.7477 182.805 75.8459 174.495 75.0831 167.37Z" fill="black"/>
<path d="M86.5829 165.778C86.1686 164.633 82.6373 162.33 82.2208 162.49C81.8043 162.649 80.721 166.49 81.1615 167.707C81.268 167.938 81.4336 168.137 81.6415 168.284C81.8494 168.431 82.0923 168.52 82.3458 168.543C83.0483 168.633 83.7621 168.555 84.4289 168.316C85.0956 168.077 85.6963 167.684 86.1818 167.168C86.3666 166.992 86.5012 166.77 86.5717 166.525C86.6422 166.28 86.6461 166.021 86.5829 165.773V165.778Z" fill="#E53935"/>
<path opacity="0.1" d="M86.5829 165.778C86.1686 164.633 82.6373 162.33 82.2208 162.49C81.8043 162.649 80.721 166.49 81.1615 167.707C81.268 167.938 81.4336 168.137 81.6415 168.284C81.8494 168.431 82.0923 168.52 82.3458 168.543C83.0483 168.633 83.7621 168.555 84.4289 168.316C85.0956 168.077 85.6963 167.684 86.1818 167.168C86.3666 166.992 86.5012 166.77 86.5717 166.525C86.6422 166.28 86.6461 166.021 86.5829 165.773V165.778Z" fill="black"/>
<path d="M95.7159 126.783C94.7275 124.036 92.7368 121.765 90.1433 120.426L90.0885 120.393C88.5524 119.608 86.871 119.148 85.1494 119.042C83.4277 118.935 81.7025 119.185 80.0814 119.774C75.9364 121.248 73.3903 125.597 72.6533 130.051C72.592 130.412 72.4358 130.751 72.2006 131.031C71.9654 131.312 71.6597 131.526 71.3149 131.65C70.97 131.774 70.5985 131.803 70.2382 131.736C69.878 131.669 69.5421 131.508 69.265 131.268C65.8674 128.287 61.1464 126.538 57.0013 128.024C55.3747 128.599 53.8834 129.501 52.6202 130.676C51.357 131.851 50.3488 133.273 49.6581 134.854V134.913C48.502 137.592 48.401 140.61 49.3754 143.361C52.5335 152.183 64.1785 157.888 73.3832 161.125L83.0828 164.506L88.4319 155.749C93.4855 147.402 98.8734 135.605 95.7159 126.783Z" fill="#E53935"/>
<path opacity="0.1" d="M96.5313 134.974C95.7153 137.204 88.8861 152.514 77.8445 153.764C64.6859 155.251 49.297 144.632 49.6455 134.913C48.4894 137.592 48.3884 140.61 49.3627 143.361C52.5208 152.183 64.1664 157.888 73.3706 161.125L83.0702 164.506L88.4192 155.749C92.0305 149.796 95.8013 142.099 96.5313 134.974Z" fill="black"/>
<path d="M187.351 170.857C185.917 172.969 185.2 175.46 184.569 177.936C183.856 180.68 183.253 183.456 182.705 186.239C181.567 192.345 180.995 198.535 180.133 204.661C179.347 210.765 177.954 216.775 175.975 222.603C174.002 228.109 171.679 233.491 170.376 239.202C168.952 245.843 168.925 252.708 170.297 259.361C170.336 259.545 170.606 259.657 170.6 259.4C170.369 253.334 169.527 247.454 170.6 241.4C171.567 236.029 173.606 230.938 175.501 225.84C177.498 220.636 179.013 215.26 180.027 209.779C181.021 204.148 181.58 198.45 182.363 192.785C182.801 189.607 183.304 186.429 183.988 183.291C184.876 179.181 185.712 174.896 187.672 171.152C187.757 170.982 187.481 170.692 187.35 170.883L187.351 170.857Z" fill="#E0E0E0"/>
<path d="M189.412 172.936C187.965 173.205 186.617 174.541 187.306 176.1C187.846 177.311 189.649 177.64 190.82 177.337C191.602 177.127 192.333 176.357 191.587 175.693C190.6 174.811 189.278 175.588 188.863 176.608C188.402 177.759 188.64 179.238 189.955 179.634C190.568 179.812 192.383 179.713 192.291 178.746C192.212 177.884 191.08 178.009 190.592 178.45C189.23 179.694 190.954 181.286 192.02 181.871C192.191 181.97 192.21 181.681 192.099 181.602C190.783 180.67 192.059 181.155 190.783 179.128C189.592 178.819 189.114 178.251 189.349 177.424C189.333 177.312 189.345 177.198 189.385 177.092C189.426 176.987 189.493 176.893 189.579 176.821L189.073 176.766C187.88 176.393 187.477 175.685 187.863 174.641C188.24 173.987 188.847 173.496 189.566 173.266C189.724 173.2 189.566 172.904 189.415 172.937L189.412 172.936Z" fill="#E0E0E0"/>
<path d="M211.609 142.224C210.26 146.067 208.109 149.56 207.096 153.527C206.017 157.764 205.359 162.08 204.366 166.357C202.65 174.021 200.227 181.51 197.129 188.726C193.997 195.85 189.392 202.122 186.556 209.392C183.621 216.912 181.555 224.755 177.535 231.814C175.423 235.524 173.107 239.11 171.897 243.248C170.435 247.879 169.924 252.758 170.397 257.591C170.397 257.749 170.733 257.887 170.726 257.657C170.568 253.258 171.06 248.859 172.186 244.604C173.272 240.525 175.278 236.986 177.392 233.366C181.293 226.681 183.576 219.431 186.208 212.194C187.531 208.354 189.2 204.641 191.195 201.102C193.07 197.911 195.004 194.819 196.603 191.47C199.963 184.236 202.586 176.682 204.432 168.922C205.577 164.319 206.334 159.612 207.4 154.98C208.413 150.592 210.782 146.76 211.9 142.427C211.94 142.276 211.69 142.013 211.617 142.224L211.609 142.224Z" fill="#E0E0E0"/>
<path d="M201.979 204.852C199.525 209.346 195.11 212.089 191.807 215.879C188.355 219.825 185.944 224.57 183.537 229.209C182.26 231.669 180.984 234.13 179.53 236.492C178.076 238.855 176.407 241.032 174.978 243.394C171.859 248.559 170.523 254.23 169.845 260.177C169.799 260.565 170.503 260.677 170.55 260.282C171.207 254.414 172.522 248.774 175.622 243.663C178.168 239.452 181.01 235.531 183.307 231.162C185.53 226.919 187.629 222.57 190.445 218.662C192.708 215.53 195.61 213.07 198.34 210.398C199.969 208.904 201.307 207.12 202.285 205.137C202.364 204.953 202.066 204.664 201.957 204.868L201.979 204.852Z" fill="#E0E0E0"/>
<path d="M200.997 207.715C200.492 208.223 200.196 208.903 200.168 209.619C200.14 210.336 200.382 211.037 200.846 211.583C201.445 212.241 203.162 213.044 203.899 212.123C204.636 211.201 203.241 210.412 202.392 210.399C202.041 210.42 201.697 210.513 201.384 210.674C201.07 210.834 200.793 211.057 200.57 211.33C200.347 211.603 200.183 211.918 200.088 212.257C199.993 212.596 199.969 212.951 200.017 213.3C200.113 213.866 200.41 214.377 200.854 214.74C201.298 215.103 201.859 215.292 202.432 215.273C203.208 215.234 204.353 214.529 203.715 213.655C203.017 212.681 201.405 213.576 200.997 214.367C200.872 214.632 200.808 214.92 200.809 215.213C200.81 215.505 200.875 215.794 201.001 216.057C201.127 216.321 201.31 216.554 201.537 216.738C201.763 216.923 202.028 217.055 202.312 217.124C202.602 217.216 202.575 216.855 202.371 216.749C201.431 216.269 200.399 213.769 200.555 212.71C200.641 212.446 200.726 212.19 200.818 211.933C201.051 211.214 201.353 211.102 201.726 211.598C202.319 212.051 202.253 211.999 201.536 211.446C201.252 211.309 201.017 211.089 200.86 210.815C200.704 210.541 200.634 210.226 200.659 209.912C200.648 209.224 200.853 208.55 201.245 207.984C201.324 207.853 201.146 207.563 201.021 207.715H200.997Z" fill="#E0E0E0"/>
<path d="M208.972 142.501C209.287 141.323 212.597 138.757 213.057 138.884C213.517 139.011 214.865 142.759 214.524 144.009C214.434 144.247 214.284 144.457 214.088 144.619C213.891 144.781 213.656 144.888 213.405 144.93C212.71 145.077 211.99 145.057 211.304 144.872C210.619 144.686 209.986 144.341 209.46 143.864C209.262 143.703 209.111 143.491 209.022 143.252C208.933 143.013 208.91 142.754 208.953 142.503L208.972 142.501Z" fill="#E53935"/>
<path opacity="0.1" d="M208.972 142.501C209.287 141.323 212.597 138.757 213.057 138.884C213.517 139.011 214.865 142.759 214.524 144.009C214.434 144.247 214.284 144.457 214.088 144.619C213.891 144.781 213.656 144.888 213.405 144.93C212.71 145.077 211.99 145.057 211.304 144.872C210.619 144.686 209.986 144.341 209.46 143.864C209.262 143.703 209.111 143.491 209.022 143.252C208.933 143.013 208.91 142.754 208.953 142.503L208.972 142.501Z" fill="black"/>
<path d="M196.802 104.341C197.571 101.526 199.379 99.1066 201.861 97.5709L201.916 97.538C203.387 96.6339 205.027 96.0413 206.736 95.7969C208.445 95.5524 210.186 95.6614 211.851 96.117C216.101 97.2618 218.982 101.378 220.061 105.789C220.152 106.144 220.335 106.468 220.592 106.729C220.848 106.99 221.17 107.178 221.524 107.274C221.877 107.369 222.25 107.369 222.603 107.274C222.956 107.178 223.278 106.99 223.535 106.73C226.687 103.493 231.262 101.381 235.503 102.539C237.171 102.981 238.731 103.762 240.084 104.834C241.436 105.906 242.553 107.246 243.365 108.769V108.824C244.731 111.405 245.069 114.406 244.313 117.226C241.859 126.268 230.7 132.871 221.772 136.819L212.377 140.945L206.349 132.635C200.661 124.723 194.345 113.381 196.802 104.341Z" fill="#E53935"/>
<path opacity="0.2" d="M196.802 104.341C197.571 101.526 199.379 99.1066 201.861 97.5709L201.916 97.538C203.387 96.6339 205.027 96.0413 206.736 95.7969C208.445 95.5524 210.186 95.6614 211.851 96.117C216.101 97.2618 218.982 101.378 220.061 105.789C220.152 106.144 220.335 106.468 220.592 106.729C220.848 106.99 221.17 107.178 221.524 107.274C221.877 107.369 222.25 107.369 222.603 107.274C222.956 107.178 223.278 106.99 223.535 106.73C226.687 103.493 231.262 101.381 235.503 102.539C237.171 102.981 238.731 103.762 240.084 104.834C241.436 105.906 242.553 107.246 243.365 108.769V108.824C244.731 111.405 245.069 114.406 244.313 117.226C241.859 126.268 230.7 132.871 221.772 136.819L212.377 140.945L206.349 132.635C200.661 124.723 194.345 113.381 196.802 104.341Z" fill="black"/>
<path opacity="0.1" d="M196.635 112.571C197.615 114.729 205.629 129.46 216.735 129.833C229.959 130.287 244.473 118.49 243.361 108.826C244.726 111.406 245.065 114.408 244.308 117.228C241.854 126.27 230.696 132.873 221.768 136.821L212.374 140.948L206.346 132.638C202.28 127 197.918 119.645 196.635 112.571Z" fill="black"/>
<path d="M199.023 205.391C199.681 204.365 203.626 202.918 204.017 203.174C204.408 203.431 204.569 207.411 203.866 208.504C203.712 208.699 203.509 208.851 203.279 208.946C203.049 209.041 202.798 209.074 202.551 209.043C201.846 208.972 201.169 208.734 200.573 208.352C199.977 207.969 199.481 207.45 199.123 206.839C198.983 206.626 198.903 206.38 198.891 206.125C198.878 205.871 198.933 205.618 199.051 205.392L199.023 205.391Z" fill="#E53935"/>
<path opacity="0.1" d="M199.023 205.391C199.681 204.365 203.626 202.918 204.017 203.174C204.408 203.431 204.569 207.411 203.866 208.504C203.712 208.699 203.509 208.851 203.279 208.946C203.049 209.041 202.798 209.074 202.551 209.043C201.846 208.972 201.169 208.734 200.573 208.352C199.977 207.969 199.481 207.45 199.123 206.839C198.983 206.626 198.903 206.38 198.891 206.125C198.878 205.871 198.933 205.618 199.051 205.392L199.023 205.391Z" fill="black"/>
<path d="M198.925 165.337C200.512 162.894 202.966 161.143 205.793 160.436H205.852C207.523 160.02 209.261 159.952 210.958 160.236C212.656 160.52 214.277 161.15 215.721 162.087C219.425 164.455 220.927 169.271 220.629 173.778C220.604 174.146 220.678 174.514 220.843 174.844C221.008 175.174 221.258 175.454 221.567 175.655C221.876 175.856 222.233 175.971 222.602 175.988C222.97 176.005 223.336 175.923 223.662 175.751C227.608 173.614 232.643 172.975 236.34 175.357C237.795 176.285 239.044 177.502 240.009 178.933C240.974 180.363 241.636 181.977 241.952 183.673V183.732C242.474 186.605 241.889 189.57 240.314 192.029C235.254 199.924 222.613 202.838 212.918 203.911L202.713 205.016L199.477 195.281C196.444 185.93 193.858 173.219 198.925 165.337Z" fill="#E53935"/>
<path opacity="0.1" d="M196.286 173.133C196.576 175.49 199.767 191.95 210.248 195.661C222.748 200.076 240.114 193.207 241.973 183.654C242.495 186.527 241.91 189.492 240.335 191.951C235.275 199.846 222.634 202.761 212.939 203.833L202.734 204.938L199.497 195.201C197.318 188.595 195.4 180.239 196.286 173.133Z" fill="black"/>
<path d="M183.312 172.022C183.661 170.851 187.038 168.37 187.497 168.508C187.955 168.646 189.201 172.454 188.812 173.667C188.716 173.903 188.56 174.109 188.359 174.265C188.158 174.421 187.919 174.521 187.667 174.555C186.971 174.685 186.254 174.647 185.576 174.445C184.897 174.242 184.277 173.881 183.766 173.39C183.573 173.224 183.427 173.01 183.344 172.769C183.261 172.529 183.243 172.27 183.292 172.02L183.312 172.022Z" fill="#E53935"/>
<path opacity="0.3" d="M183.312 172.022C183.661 170.851 187.038 168.37 187.497 168.508C187.955 168.646 189.201 172.454 188.812 173.667C188.716 173.903 188.56 174.109 188.359 174.265C188.158 174.421 187.919 174.521 187.667 174.555C186.971 174.685 186.254 174.647 185.576 174.445C184.897 174.242 184.277 173.881 183.766 173.39C183.573 173.224 183.427 173.01 183.344 172.769C183.261 172.529 183.243 172.27 183.292 172.02L183.312 172.022Z" fill="white"/>
<path d="M172.114 133.566C172.953 130.77 174.822 128.397 177.344 126.927L177.399 126.894C178.892 126.029 180.546 125.48 182.26 125.282C183.974 125.084 185.71 125.241 187.36 125.744C191.58 126.994 194.354 131.204 195.321 135.613C195.403 135.969 195.578 136.298 195.829 136.565C196.079 136.832 196.396 137.028 196.747 137.133C197.097 137.238 197.47 137.249 197.826 137.163C198.182 137.077 198.509 136.899 198.773 136.645C201.997 133.487 206.629 131.487 210.84 132.75C212.496 133.237 214.034 134.06 215.358 135.167C216.683 136.274 217.765 137.641 218.537 139.185V139.24C219.835 141.854 220.096 144.863 219.268 147.661C216.583 156.635 205.261 162.958 196.24 166.677L186.739 170.568L180.923 162.094C175.436 154.041 169.43 142.547 172.114 133.566Z" fill="#E53935"/>
<path opacity="0.5" d="M172.114 133.566C172.953 130.77 174.822 128.397 177.344 126.927L177.399 126.894C178.892 126.029 180.546 125.48 182.26 125.282C183.974 125.084 185.71 125.241 187.36 125.744C191.58 126.994 194.354 131.204 195.321 135.613C195.403 135.969 195.578 136.298 195.829 136.565C196.079 136.832 196.396 137.028 196.747 137.133C197.097 137.238 197.47 137.249 197.826 137.163C198.182 137.077 198.509 136.899 198.773 136.645C201.997 133.487 206.629 131.487 210.84 132.75C212.496 133.237 214.034 134.06 215.358 135.167C216.683 136.274 217.765 137.641 218.537 139.185V139.24C219.835 141.854 220.096 144.863 219.268 147.661C216.583 156.635 205.261 162.958 196.24 166.677L186.739 170.568L180.923 162.094C175.436 154.041 169.43 142.547 172.114 133.566Z" fill="white"/>
<path opacity="0.05" d="M171.712 141.79C172.64 143.974 180.266 158.896 191.371 159.554C204.578 160.337 219.386 148.915 218.524 139.223C219.821 141.837 220.082 144.846 219.254 147.644C216.569 156.618 205.247 162.941 196.227 166.66L186.728 170.554L180.925 162.093C177.022 156.356 172.844 148.869 171.712 141.79Z" fill="black"/>
<path d="M183.088 25.3302C182.875 25.8058 182.531 26.21 182.094 26.4947C181.595 26.7973 181.032 26.9797 180.45 27.0274C179.711 27.169 178.945 27.0407 178.292 26.6657C177.995 26.4161 177.755 26.1052 177.589 25.7543C177.424 25.4034 177.336 25.0207 177.332 24.6326C177.299 24.3586 177.277 23.975 177.273 23.5339L177.309 21.3172L176.086 21.4816L175.69 19.0934L177.342 18.8633V17.6456L180.093 17.1787V18.4939L181.638 18.2747L182.224 20.7221L180.066 20.9522V22.8735C180.061 22.959 180.061 23.0446 180.066 23.13C180.085 23.4074 180.207 23.6676 180.408 23.8605C180.495 23.9424 180.599 24.0047 180.712 24.0432C180.826 24.0818 180.946 24.0957 181.065 24.0841C181.288 24.0445 181.495 23.9444 181.665 23.7946C181.834 23.6449 181.959 23.4513 182.026 23.2352L183.088 25.3302Z" fill="#455A64"/>
<path d="M193.155 25.2973L190.056 25.6722L189.358 21.6718C189.31 21.3134 189.162 20.9759 188.931 20.698C188.819 20.5725 188.676 20.478 188.517 20.4239C188.358 20.3697 188.188 20.3577 188.023 20.3889C187.325 20.4744 187.016 21.1259 187.088 22.3617L187.555 25.9867L184.417 26.3155L182.812 14.356H186.055L186.603 18.5471C187.151 17.9667 187.899 17.6162 188.696 17.5667C189.24 17.5047 189.792 17.5801 190.301 17.7859C190.875 18.0025 191.38 18.3719 191.76 18.8541C192.14 19.3364 192.382 19.9133 192.459 20.5226L193.155 25.2973Z" fill="#455A64"/>
<path d="M199.766 24.5028L199.7 23.9367C199.433 24.2525 199.103 24.51 198.732 24.6934C198.361 24.8767 197.956 24.9819 197.542 25.0026C196.895 25.0846 196.238 24.9579 195.667 24.6409C195.06 24.3143 194.548 23.8361 194.18 23.2528C193.774 22.643 193.515 21.947 193.424 21.2198C193.334 20.5 193.427 19.7693 193.693 19.0946C193.935 18.4408 194.335 17.8571 194.858 17.3958C195.322 16.965 195.908 16.6891 196.535 16.6061C196.923 16.5209 197.325 16.5246 197.712 16.6169C198.098 16.7092 198.458 16.8879 198.766 17.1393L198.7 16.5864L201.266 16.2773L202.581 24.1724L199.766 24.5028ZM198.977 21.6077C199.09 21.4543 199.17 21.2795 199.213 21.094C199.256 20.9084 199.261 20.7161 199.227 20.5287C199.215 20.3396 199.163 20.1553 199.073 19.9883C198.983 19.8214 198.859 19.6758 198.708 19.5615C198.555 19.4511 198.383 19.3722 198.2 19.3293C198.017 19.2864 197.827 19.2804 197.642 19.3116C197.462 19.3298 197.287 19.3838 197.128 19.4705C196.969 19.5572 196.829 19.6748 196.717 19.8165C196.604 19.9581 196.521 20.1208 196.472 20.2951C196.423 20.4694 196.41 20.6517 196.432 20.8312C196.47 21.0749 196.564 21.3063 196.708 21.5064C196.852 21.7064 197.042 21.8694 197.261 21.982C197.492 22.1015 197.754 22.1474 198.011 22.1135C198.198 22.1008 198.38 22.0498 198.546 21.9639C198.713 21.8779 198.86 21.7587 198.978 21.6138L198.977 21.6077Z" fill="#455A64"/>
<path d="M208.043 19.8097C208.028 19.4239 207.9 19.051 207.675 18.7373C207.579 18.6227 207.456 18.5347 207.317 18.4818C207.177 18.4288 207.026 18.4126 206.879 18.4348C206.731 18.4383 206.586 18.4817 206.461 18.5604C206.336 18.6391 206.234 18.7502 206.166 18.882C206.04 19.2479 206.013 19.6404 206.087 20.0202L206.521 23.7044L203.416 24.0792L202.405 16.0598L205.563 15.5118L205.635 16.1042C206.135 15.5758 206.797 15.2305 207.517 15.1238C207.963 15.0441 208.422 15.0809 208.849 15.2308C209.277 15.3807 209.659 15.6385 209.957 15.9792C210.633 16.8557 211.032 17.9143 211.102 19.019L211.602 23.0523L208.424 23.4359L208.043 19.8097Z" fill="#455A64"/>
<path d="M221.261 21.9151L218.149 22.4763L215.609 19.6404L215.958 22.5486L212.826 22.9563L211.379 10.9135L214.524 10.3802L215.3 16.9595L216.57 14.2886L219.728 14.1373L217.899 17.9465L221.261 21.9151Z" fill="#455A64"/>
<path d="M206.51 26.3829L205.195 34.4933C205.053 35.6604 204.599 36.7674 203.88 37.6975C203.292 38.4114 202.45 38.869 201.531 38.9738C201.109 39.0285 200.683 39.0285 200.261 38.9738C199.791 38.905 199.327 38.8017 198.873 38.6647L199.669 35.5987C199.865 35.7791 200.102 35.908 200.36 35.9735C200.616 36.0814 200.892 36.1351 201.17 36.1313C201.457 36.1083 201.725 35.9821 201.926 35.7762C202.121 35.5473 202.26 35.2773 202.334 34.9865L197.731 27.7491L200.935 27.3282L202.908 31.1177L203.441 26.9989L206.51 26.3829Z" fill="#455A64"/>
<path d="M209.659 33.89C208.948 33.5704 208.327 33.0801 207.851 32.4624C207.375 31.8461 207.077 31.1111 206.989 30.3373C206.895 29.6242 207.011 28.8992 207.324 28.2516C207.64 27.5778 208.128 26.999 208.739 26.5736C209.391 26.1136 210.149 25.8282 210.943 25.7445C211.7 25.6387 212.471 25.7331 213.18 26.0185C213.849 26.2947 214.429 26.7497 214.857 27.3337C215.289 27.9103 215.562 28.5909 215.647 29.3065C215.736 30.0711 215.629 30.8459 215.336 31.5575C215.042 32.2691 214.572 32.8939 213.969 33.3727C213.372 33.8433 212.657 34.1394 211.903 34.2281C211.138 34.3208 210.363 34.2039 209.659 33.89ZM212.435 30.8239C212.653 30.5328 212.75 30.1698 212.709 29.8091C212.667 29.4483 212.489 29.117 212.212 28.8829C212.07 28.7636 211.905 28.6756 211.727 28.6246C211.549 28.5737 211.362 28.5608 211.179 28.587C210.992 28.6027 210.811 28.6563 210.646 28.7446C210.48 28.8329 210.335 28.954 210.218 29.1005C210.053 29.3226 209.956 29.5886 209.941 29.8652C209.926 30.1418 209.993 30.4167 210.133 30.6555C210.274 30.8944 210.481 31.0864 210.73 31.2077C210.98 31.329 211.259 31.3741 211.533 31.3374C211.711 31.3178 211.883 31.2622 212.039 31.1739C212.194 31.0856 212.33 30.9665 212.438 30.8239H212.435Z" fill="#455A64"/>
<path d="M222.188 32.9754L222.116 32.3764C221.62 32.91 220.956 33.258 220.235 33.3628C219.789 33.4425 219.329 33.4057 218.902 33.2558C218.474 33.1059 218.093 32.8481 217.794 32.5074C217.117 31.629 216.718 30.568 216.649 29.4611L216.149 25.4344L219.328 25.0508L219.689 28.6676C219.702 29.057 219.83 29.434 220.057 29.7509C220.152 29.8659 220.275 29.9537 220.415 30.0057C220.555 30.0576 220.706 30.0718 220.853 30.0469C221 30.0442 221.144 30.0022 221.269 29.9251C221.394 29.8479 221.497 29.7386 221.565 29.6085C221.694 29.2432 221.721 28.8498 221.644 28.4703L221.216 24.7795L224.322 24.4047L225.328 32.4312L222.188 32.9754Z" fill="#455A64"/>
<path d="M226.208 28.1202L225.018 20.8827L228.306 20.4882L229.117 27.5343L226.208 28.1202ZM226.913 31.3703C226.569 31.0949 226.347 30.6957 226.294 30.2585C226.258 29.9625 226.311 29.6625 226.445 29.3964C226.58 29.1327 226.779 28.9067 227.024 28.7388C227.268 28.5692 227.55 28.4609 227.846 28.4232C228.05 28.394 228.258 28.4057 228.458 28.4576C228.658 28.5095 228.846 28.6007 229.01 28.7257C229.181 28.8581 229.322 29.0249 229.424 29.2153C229.526 29.4058 229.587 29.6155 229.603 29.831C229.636 30.0545 229.624 30.2824 229.569 30.5014C229.514 30.7205 229.415 30.9264 229.28 31.1073C229.153 31.2909 228.988 31.4448 228.796 31.5584C228.604 31.6719 228.39 31.7424 228.168 31.7649C227.943 31.792 227.714 31.7708 227.498 31.7028C227.281 31.6347 227.082 31.5214 226.913 31.3703Z" fill="#455A64"/>
<path d="M230.926 27.5343L229.735 20.2969L233.023 19.9023L233.852 26.9091L230.926 27.5343ZM231.649 30.8223C231.477 30.6884 231.333 30.5208 231.227 30.3297C231.12 30.1386 231.054 29.9279 231.031 29.7104C230.993 29.4173 231.043 29.1193 231.176 28.855C231.308 28.5888 231.508 28.362 231.755 28.1974C231.999 28.024 232.281 27.9134 232.577 27.8752C232.99 27.8192 233.408 27.9278 233.742 28.1777C233.913 28.3108 234.055 28.4787 234.157 28.6703C234.259 28.862 234.319 29.073 234.334 29.2896C234.367 29.512 234.355 29.7388 234.3 29.9567C234.244 30.1747 234.146 30.3795 234.011 30.5593C233.883 30.7414 233.718 30.8942 233.526 31.0075C233.334 31.1209 233.121 31.1923 232.899 31.2169C232.675 31.243 232.448 31.2215 232.233 31.1537C232.017 31.086 231.818 30.9737 231.649 30.824V30.8223Z" fill="#455A64"/>
<path d="M235.67 26.9754L234.479 19.7379L237.767 19.3434L238.596 26.3435L235.67 26.9754ZM236.382 30.2321C236.209 30.0964 236.066 29.9275 235.96 29.7354C235.854 29.5433 235.787 29.3319 235.764 29.1137C235.726 28.8205 235.777 28.5228 235.908 28.2582C236.041 27.9891 236.238 27.7573 236.483 27.5838C236.728 27.4103 237.012 27.3007 237.31 27.2647C237.519 27.2325 237.733 27.2441 237.938 27.2988C238.143 27.3534 238.334 27.4499 238.5 27.5822C238.666 27.7145 238.802 27.8797 238.901 28.0673C238.999 28.255 239.058 28.461 239.073 28.6725C239.136 29.1226 239.018 29.5792 238.744 29.9423C238.617 30.1256 238.452 30.2792 238.26 30.3928C238.069 30.5063 237.854 30.5769 237.633 30.5999C237.41 30.6314 237.183 30.6148 236.968 30.5513C236.752 30.4877 236.552 30.3787 236.383 30.2316L236.382 30.2321Z" fill="#455A64"/>
<path d="M166.39 41.2452C166.798 41.8179 167.705 41.9954 168.363 42.1598C168.829 42.2782 169.304 42.379 169.777 42.4623C170.659 42.6255 171.552 42.7266 172.448 42.7648C174.183 42.8149 175.916 42.6423 177.607 42.2514C179.147 41.9245 180.635 41.3866 182.028 40.6528C183.373 39.9125 184.611 38.9916 185.706 37.9156C187.033 36.7612 188.085 35.3247 188.785 33.7113C188.831 33.5922 188.833 33.4608 188.791 33.3404C188.749 33.22 188.665 33.1185 188.555 33.0537C188.371 32.9222 187.983 32.8104 187.805 33.0537C186.746 34.3103 185.832 35.6841 184.66 36.8431C183.652 37.8359 182.515 38.6879 181.278 39.376C178.648 40.7774 175.706 41.4882 172.726 41.442C171.808 41.44 170.892 41.3785 169.982 41.2578C169.528 41.1921 169.074 41.1132 168.627 41.0211C167.974 40.8175 167.297 40.7004 166.613 40.6726C166.339 40.6726 166.278 41.0342 166.416 41.2321L166.39 41.2452Z" fill="#E53935"/>
<path d="M218.603 8.30224C218.447 8.27715 218.305 8.19694 218.204 8.07622C218.102 7.95551 218.048 7.80234 218.05 7.64464L218.425 0.605031C218.424 0.519001 218.44 0.433626 218.473 0.354143C218.506 0.274661 218.555 0.202745 218.617 0.142803C218.678 0.0828608 218.752 0.0361574 218.832 0.00555392C218.913 -0.0250495 218.998 -0.0389075 219.084 -0.0351702C219.17 -0.0314329 219.255 -0.0101788 219.332 0.0272884C219.409 0.0647556 219.478 0.117647 219.535 0.18272C219.591 0.247793 219.633 0.323675 219.659 0.405717C219.685 0.487759 219.694 0.57423 219.686 0.659831L219.291 7.69286C219.277 7.8576 219.202 8.01111 219.08 8.12282C218.958 8.23453 218.799 8.29624 218.633 8.29566L218.603 8.30224Z" fill="#E53935"/>
<path d="M222.438 9.54017C222.331 9.5253 222.229 9.48357 222.143 9.41887C222.056 9.35417 221.987 9.26861 221.943 9.17016C221.898 9.0717 221.879 8.96355 221.888 8.85577C221.896 8.748 221.932 8.64411 221.991 8.55377L225.873 2.67867C225.907 2.58483 225.961 2.49986 226.032 2.43017C226.104 2.36048 226.19 2.3079 226.284 2.27639C226.379 2.24489 226.479 2.23529 226.578 2.24832C226.677 2.26135 226.771 2.29667 226.855 2.35161C226.938 2.40654 227.007 2.47966 227.058 2.56544C227.109 2.65122 227.139 2.7474 227.148 2.84674C227.156 2.94607 227.141 3.04595 227.105 3.13882C227.069 3.2317 227.012 3.31514 226.939 3.38285L223.063 9.25795C222.995 9.35798 222.901 9.43726 222.79 9.48706C222.68 9.53685 222.558 9.55523 222.438 9.54017Z" fill="#E53935"/>
<path d="M224.939 12.2966C224.796 12.2775 224.664 12.2106 224.564 12.1068C224.464 12.0031 224.402 11.8686 224.389 11.7252C224.375 11.5818 224.41 11.438 224.488 11.3172C224.567 11.1964 224.684 11.1057 224.82 11.0598L231.492 8.80312C231.638 8.79072 231.785 8.82786 231.908 8.90861C232.031 8.98935 232.123 9.10902 232.17 9.24849C232.217 9.38795 232.216 9.53914 232.167 9.67786C232.118 9.81658 232.024 9.93482 231.899 10.0137L225.231 12.2703C225.137 12.301 225.037 12.31 224.939 12.2966Z" fill="#E53935"/>
<path d="M205.8 49.4433C205.667 49.4402 205.539 49.397 205.431 49.3196C205.324 49.2421 205.242 49.134 205.197 49.0093L202.934 42.338C202.916 42.1886 202.951 42.0379 203.031 41.9107C203.111 41.7836 203.233 41.6879 203.375 41.6394C203.517 41.591 203.672 41.5928 203.813 41.6445C203.954 41.6962 204.073 41.7948 204.151 41.9237L206.407 48.5885C206.457 48.7491 206.442 48.9224 206.368 49.0729C206.293 49.2234 206.164 49.3397 206.006 49.3979C205.94 49.4229 205.87 49.4382 205.8 49.4433Z" fill="#E53935"/>
<path d="M198.108 49.9563C198.067 49.9627 198.024 49.9627 197.983 49.9563C197.82 49.9184 197.677 49.8197 197.584 49.6803C197.492 49.5409 197.455 49.3713 197.483 49.2061L198.891 42.3046C198.886 42.2046 198.904 42.1047 198.943 42.0126C198.982 41.9205 199.042 41.8386 199.118 41.7731C199.194 41.7077 199.283 41.6604 199.38 41.6349C199.477 41.6093 199.579 41.6063 199.677 41.6259C199.775 41.6455 199.867 41.6874 199.947 41.7481C200.027 41.8089 200.091 41.8871 200.136 41.9766C200.181 42.0662 200.205 42.1648 200.205 42.265C200.206 42.3651 200.184 42.4641 200.141 42.5545L198.733 49.456C198.699 49.5966 198.619 49.7218 198.506 49.8123C198.393 49.9027 198.253 49.9534 198.108 49.9563Z" fill="#E53935"/>
<path d="M190.825 46.0085C190.732 46.01 190.64 45.9907 190.556 45.952C190.472 45.9133 190.397 45.8562 190.338 45.7849C190.232 45.6547 190.179 45.4887 190.191 45.3211C190.204 45.1534 190.28 44.9968 190.404 44.8834L195.753 40.2802C195.885 40.2102 196.036 40.1871 196.183 40.2148C196.33 40.2425 196.463 40.3194 196.56 40.4327C196.657 40.5461 196.713 40.6891 196.718 40.8384C196.724 40.9877 196.678 41.1343 196.588 41.254L191.239 45.8572C191.123 45.9539 190.976 46.0074 190.825 46.0085Z" fill="#E53935"/>
<path d="M119.973 15.3896C118.924 14.3049 117.582 13.5483 116.111 13.2118C113.735 12.6753 111.255 12.837 108.969 13.6773C106.683 14.5176 104.689 16.0008 103.227 17.9482C100.661 21.4877 100.154 26.1391 100.516 30.4974C100.879 34.8556 102.003 39.1163 102.359 43.4718C102.681 47.3341 98.6219 50.5048 95.9175 52.6826C95.4177 53.0772 94.8648 53.663 95.1081 54.2482C95.2142 54.4223 95.3568 54.5712 95.5261 54.6847C95.6953 54.7982 95.8872 54.8737 96.0885 54.9058C98.3488 55.5383 100.743 55.5121 102.989 54.8304C105.235 54.1486 107.239 52.8395 108.766 51.0572L108.859 54.3452C109.739 54.1926 110.573 53.8429 111.299 53.3222C112.025 52.8014 112.623 52.1232 113.05 51.3384C113.895 49.7643 114.389 48.0254 114.497 46.242C115.076 40.3208 113.286 34.7016 113.135 28.8704C112.971 22.2911 115.214 17.4029 119.372 18.1526C121.063 18.4551 121.879 17.883 120.787 16.3891C120.539 16.0367 120.266 15.7025 119.971 15.389L119.973 15.3896Z" fill="#263238"/>
<path d="M118.644 16.5666C118.424 16.2707 117.071 9.43497 120.123 5.70419C123.175 1.9734 124.726 4.79615 124.433 8.09237C124.235 9.8709 123.604 11.5738 122.595 13.0513C121.585 14.5289 120.229 15.736 118.644 16.5666Z" fill="#E53935"/>
<path d="M119.611 16.4154C119.289 16.5864 112.328 16.9552 109.084 13.4014C105.841 9.84761 108.848 8.72366 112.071 9.45579C113.803 9.90738 115.397 10.7786 116.712 11.9924C118.027 13.2062 119.023 14.7253 119.611 16.4154Z" fill="#E53935"/>
<path d="M180.305 78.0631C177.825 75.5829 171.943 68.569 170.715 66.8785C169.169 64.7796 164.926 59.7205 162.359 57.8189C159.793 55.9174 154.425 54.9693 150.102 55.2861C149.76 60.5469 154.53 68.7932 154.53 68.7932L165.34 79.6162C171.669 85.2743 179.42 88.5179 188.246 89.9186C187.424 87.5046 182.792 80.5434 180.305 78.0631Z" fill="#FFA8A7"/>
<path d="M165.337 79.6354C166.6 79.8721 170.765 79.6025 173.601 80.1352C176.437 80.6678 181.595 82.8461 184.312 86.5829L165.337 79.6354Z" fill="#F28F8F"/>
<path d="M150.099 55.3053C151.579 55.2461 157.994 54.2986 161.942 57.2003C165.528 59.8307 168.219 63.602 171.1 67.1415C172.534 68.9044 174.732 71.7864 174.732 71.7864C174.732 71.7864 171.811 76.6285 164.613 80.1708L152.146 68.1833L150.099 55.3053Z" fill="#37474F"/>
<path d="M146.218 242.17C146.089 242.2 145.97 242.266 145.875 242.358C145.78 242.451 145.712 242.568 145.679 242.697C145.35 243.822 145.363 245.098 145.131 246.256C144.769 248.059 144.387 250.657 144.684 252.105C144.98 253.553 146.94 254.968 150.605 256.007C152.822 256.664 156.776 258.553 158.585 260.191C160.796 262.204 165.533 263.888 168.737 263.987C172.493 264.097 176.409 263.099 177.29 260.395C177.674 259.257 177.948 257.31 172.606 255.197C170.78 254.542 169.019 253.718 167.345 252.737C164.852 251.27 161.108 249.329 159.042 247.394C157.15 245.486 156.056 242.928 155.982 240.242C155.263 240.001 154.496 239.945 153.749 240.079C153.003 240.212 152.303 240.532 151.713 241.008C151.122 241.484 150.662 242.101 150.373 242.802C150.084 243.503 149.977 244.266 150.06 245.019C149.804 245.164 149.488 244.92 149.403 244.644C149.349 244.358 149.318 244.067 149.311 243.776C149.235 243.469 149.081 243.187 148.865 242.956C148.648 242.726 148.376 242.555 148.074 242.461C147.493 242.199 146.851 242.099 146.218 242.17Z" fill="#37474F"/>
<path d="M94.8336 242.288C95.1338 243.115 95.2895 243.988 95.2939 244.867C95.4474 245.592 95.5507 246.326 95.603 247.065C95.603 247.722 95.7542 248.499 96.3598 248.729C96.6069 248.796 96.8681 248.789 97.1115 248.71C97.3548 248.63 97.5697 248.482 97.7298 248.282C98.0424 247.877 98.3324 247.456 98.5983 247.019C98.9193 246.585 99.3312 246.227 99.8051 245.969C100.279 245.711 100.804 245.559 101.342 245.525C102.415 245.466 102.493 245.565 103.217 246.361L102.599 247.841C100.526 253.102 100.401 257.814 101.691 263.294C101.954 264.413 103.573 266.235 104.461 267.124C104.983 267.651 105.539 268.143 106.125 268.597C106.645 269.005 107.158 269.485 107.224 269.913C107.317 270.539 107.204 271.178 106.902 271.735C106.44 272.473 105.712 273.006 104.869 273.222C101.713 274.356 98.2438 274.244 95.1689 272.906C93.8621 272.267 92.7329 271.315 91.8809 270.136C90.078 266.998 90.2824 264.011 90.2556 261.307C90.2096 255.339 89.2226 252.26 88.7426 249.273C88.1557 245.683 93.7085 241.749 94.8336 242.288Z" fill="#37474F"/>
<path d="M158.508 245.531C156.297 243.143 155.878 240.841 156.179 236.406C156.48 231.972 158.7 192.772 159.6 183.114C161.12 166.863 161.89 121.197 160.541 109.927L117.217 113.335C114.072 121.23 111.756 130.882 112.25 146.08C112.618 157.673 112.348 189.115 112.348 189.115C112.348 189.115 107.087 193.718 103.282 202.859C99.9464 210.905 96.1033 238.729 96.1033 238.729C95.7713 239.938 95.3468 241.119 94.8336 242.262C93.8865 243.412 93.3391 244.84 93.274 246.328C93.2745 251.141 93.7857 255.94 94.7991 260.644C95.3268 263.086 96.8469 264.658 99.2746 265.625C99.813 265.843 100.394 265.937 100.973 265.899C101.275 265.9 101.566 265.793 101.795 265.597C102.21 265.183 101.835 264.209 101.756 263.722C101.634 262.933 101.561 262.138 101.537 261.34C101.491 259.774 101.537 257.866 101.642 256.307C101.849 252.811 102.414 249.345 103.326 245.964L104.168 243.958C104.168 243.958 122.972 206.041 128.314 196.804C132.558 189.566 135.38 161.394 138.394 146.004L143.473 182.802C143.473 182.802 141.243 189.447 140.657 194.533C139.867 201.356 144.69 228.087 146.131 237.614C146.394 239.379 146.414 241.172 146.19 242.943C146.696 247.062 149.795 248.332 152.993 250.67C154.578 251.828 161.546 256.078 165.796 256.934C169.231 257.631 171.869 255.572 169.742 254.248C165.752 251.513 160.719 247.939 158.508 245.531Z" fill="#FFA8A7"/>
<path d="M136.625 157.685C137.064 153.554 138.257 147.895 138.257 147.895L140.192 163.837L141.744 182.147C141.164 184.6 140.711 187.082 140.389 189.582C139.731 194.503 140.027 202.412 140.928 207.695C141.829 212.978 143.698 222.459 143.698 222.459C151.553 226.564 157.514 222.36 157.514 222.36C157.514 222.36 158.277 211.787 159.744 196.293C161.211 180.798 161.717 165.298 161.823 152.422C161.823 152.422 163.687 120.315 158.261 98.6494C151.886 103.136 132.951 104.038 125.312 97.9918C125.312 97.9918 122.246 103.058 115.562 114.355C110.301 123.232 111.851 137.48 111.759 149.396C111.62 167.779 111.719 188.536 111.719 188.536C109.3 191.244 107.137 194.171 105.258 197.28C101.913 202.675 100.196 214.667 100.196 214.667C100.196 214.667 103.577 221.857 115.124 222.167C115.124 222.167 126.349 201.739 129.165 197.1C131.981 192.461 136.185 161.824 136.625 157.685Z" fill="#E53935"/>
<path opacity="0.15" d="M138.257 147.895L142.477 131.671C142.477 131.671 150.554 130.826 156.837 126.223C156.837 126.223 155.522 132.144 144.422 133.901L139.632 149.829L140.191 163.87L138.257 147.895Z" fill="black"/>
<path d="M160.626 68.1411C155.366 61.2331 153.6 58.8449 150.099 55.3048L130.919 54.5085C129.426 54.6401 120.84 56.0216 120.84 56.0216C118.695 56.9691 116.34 62.0682 116.894 66.1075C117.487 70.3271 117.973 74.5029 119.026 79.6672C120.079 84.8316 121.723 88.8451 122.099 90.5034C122.836 93.8259 123.191 97.2799 121.441 100.609C117.81 107.55 114.862 112.03 113.618 117.86C115.691 117.29 117.582 116.198 119.112 114.689C121.454 112.445 122.862 111.401 124.737 108.768C124.737 108.768 124.928 112.713 128.847 117.886C129.846 119.217 130.994 120.429 132.269 121.498C139.308 127.419 160.481 129.953 161.171 111.485C161.171 111.485 159.099 103.056 158.691 98.0433C158.283 93.0302 158.198 90.0102 158.243 88.7207C166.87 82.53 164.054 72.6221 160.626 68.1411Z" fill="#455A64"/>
<path d="M81.2278 84.3395C83.5503 80.3062 86.5571 79.2798 90.386 76.405C94.2149 73.5302 102.091 67.2534 106.939 63.9572C112.446 60.2132 116.776 56.8584 120.881 56.8913C120.881 56.8913 121.539 56.7663 122.704 60.0297C123.869 63.293 123.75 71.2867 121.099 73.4118C118.447 75.537 96.9724 87.4406 96.9724 87.4406L81.2284 84.3417" fill="#FFA8A7"/>
<path d="M107.282 81.657L105.729 78.5844C104.269 79.5779 101.88 80.4859 97.9988 80.7095C94.1173 80.9331 87.1692 80.7752 83.3206 83.0845C83.072 83.247 82.877 83.4794 82.76 83.7524C82.643 84.0253 82.6093 84.3268 82.663 84.6189L96.9861 87.4411C96.9861 87.4411 101.874 84.7214 107.282 81.657Z" fill="#F28F8F"/>
<path d="M120.833 55.9893C118.485 55.9893 115.215 57.4365 112.394 59.5156C108.907 62.0879 99.7354 69.1413 99.7354 69.1413C99.7354 69.1413 101.591 79.0102 107.946 81.5261C107.946 81.5261 119.848 74.9468 120.796 74.2294C121.743 73.5121 123.394 71.9333 123.697 66.3344C124 60.7355 122.105 58.1736 120.833 55.9893Z" fill="#37474F"/>
<path d="M146.666 85.7144C146.666 85.7144 141.448 90.3176 135.048 88.5042C132.599 87.8575 130.441 86.3984 128.929 84.3657C128.861 84.2819 128.765 84.2251 128.659 84.2054C128.553 84.1857 128.444 84.2044 128.35 84.2583C128.257 84.3121 128.185 84.3975 128.149 84.4992C128.113 84.6008 128.114 84.712 128.153 84.8129C129.054 86.9249 131.008 89.3854 135.232 90.4052C143.003 92.2673 146.666 85.7144 146.666 85.7144Z" fill="#37474F"/>
<path d="M126.256 10.2898C132.835 7.69119 137.631 8.18439 140.895 8.9083C154.494 2.7707 165.646 20.955 153.474 29.9619C153.474 29.9619 152.908 44.1206 142.138 47.5154L130.295 49.9814C128.505 45.067 118.163 43.4679 115.386 32.5068C112.15 22.1458 119.249 13.0599 126.256 10.2898Z" fill="#263238"/>
<path d="M147.191 15.4087C149.625 16.3759 153.264 21.5671 154.823 33.3897C156.138 43.4099 153.289 46.3838 151.777 47.3445C150.265 48.3051 147.06 48.3643 143.934 48.3309L144.875 55.2456C144.875 55.2456 148.079 57.1866 148.737 60.5612C149.27 63.3044 141.849 65.0416 136.782 61.9887C134.41 60.6266 132.459 58.637 131.144 56.2385L129.25 41.8387C129.25 41.8387 127.625 43.9376 124.646 42.4043C121.423 40.7603 120.732 37.0224 122.383 34.7323C124.035 32.4422 127.918 32.8965 129.127 35.5219C129.127 35.5219 133.41 34.5744 139.048 29.6731C145.125 24.363 146.106 19.8694 147.191 15.4087Z" fill="#FFA8A7"/>
<path d="M141.448 32.6592C141.488 32.9046 141.454 33.1563 141.352 33.3829C141.25 33.6095 141.083 33.8011 140.873 33.934C140.663 34.0668 140.418 34.1351 140.17 34.1303C139.921 34.1255 139.68 34.0478 139.475 33.9069C139.27 33.766 139.111 33.5681 139.018 33.3377C138.924 33.1073 138.901 32.8545 138.95 32.6108C138.999 32.3671 139.118 32.1431 139.293 31.9666C139.468 31.7901 139.691 31.6689 139.935 31.618C140.273 31.5597 140.62 31.636 140.903 31.8305C141.186 32.025 141.382 32.3224 141.448 32.6592Z" fill="#263238"/>
<path d="M142.534 39.5146L147.508 40.4753C147.46 40.8068 147.346 41.1253 147.172 41.4116C146.998 41.6978 146.768 41.9458 146.496 42.1407C146.224 42.3356 145.915 42.4734 145.588 42.5456C145.26 42.6178 144.922 42.623 144.593 42.561C143.92 42.4228 143.328 42.0267 142.943 41.4574C142.558 40.8881 142.411 40.1908 142.534 39.5146Z" fill="#B16668"/>
<path d="M144.593 42.561C144.999 42.6393 145.419 42.6098 145.81 42.4755C145.775 42.1268 145.653 41.7925 145.455 41.5031C145.257 41.2138 144.99 40.9786 144.678 40.819C144.366 40.6593 144.019 40.5804 143.668 40.5894C143.318 40.5984 142.975 40.695 142.672 40.8704C142.817 41.2952 143.071 41.6747 143.408 41.9712C143.745 42.2678 144.153 42.4711 144.593 42.561Z" fill="#F28F8F"/>
<path d="M151.863 27.3392L149.047 25.9692C149.127 25.7812 149.244 25.6115 149.392 25.4706C149.54 25.3296 149.715 25.2204 149.907 25.1495C150.098 25.0787 150.302 25.0477 150.506 25.0585C150.71 25.0693 150.91 25.1217 151.093 25.2124C151.469 25.401 151.759 25.7267 151.902 26.1223C152.045 26.518 152.031 26.9535 151.863 27.3392Z" fill="#263238"/>
<path d="M151.738 30.3762C151.779 30.6233 151.746 30.877 151.644 31.1057C151.542 31.3345 151.375 31.5281 151.164 31.6626C150.953 31.797 150.706 31.8663 150.456 31.8617C150.205 31.8572 149.962 31.7791 149.756 31.6372C149.549 31.4952 149.389 31.2957 149.295 31.0634C149.202 30.8312 149.178 30.5764 149.228 30.331C149.278 30.0856 149.399 29.8603 149.576 29.6832C149.754 29.5061 149.979 29.385 150.224 29.335C150.563 29.2767 150.91 29.353 151.193 29.5476C151.476 29.7421 151.671 30.0395 151.738 30.3762Z" fill="#263238"/>
<path d="M145.612 30.1855L146.987 37.7123L150.777 35.8634L145.612 30.1855Z" fill="#F28F8F"/>
<path d="M143.934 48.332C140.646 48.4109 133.756 47.5357 132.322 45.0884C132.941 46.3461 133.931 47.384 135.158 48.0624C137.395 49.4439 144.204 50.3322 144.204 50.3322L143.934 48.332Z" fill="#F28F8F"/>
<path d="M188.246 89.9389C182.693 85.2349 180.97 82.5305 165.34 79.6365C165.34 79.6365 156.741 77.0061 155.675 76.2482C154.609 75.4903 152.438 75.4191 150.865 74.8404C149.292 74.2617 143.588 72.21 142.097 71.2022C140.606 70.1945 139.952 69.5445 137.384 69.3796C134.816 69.2146 131.351 68.8009 130.522 68.8864C129.694 68.9719 128.95 70.7879 128.121 72.1744C127.292 73.5608 126.877 73.7729 127.522 76.5628C127.943 78.4051 128.535 78.6221 128.535 78.6221C128.982 78.8128 129.607 77.9645 129.607 77.9645C130.509 78.2079 130.634 77.1973 130.634 77.1973C131.338 77.1973 132.674 74.9078 132.674 74.9078L134.022 74.5724C135.2 74.9078 137.687 76.954 136.858 78.8468C136.028 80.7396 133.048 81.4772 131.278 82.7924C129.508 84.1076 129.306 86.9835 130.107 87.3956C130.581 87.6324 131.167 86.6783 132.738 85.6059C134.154 84.7039 135.686 83.9958 137.29 83.5004C140.791 82.428 143.778 83.1782 146.758 83.0138C149.739 82.8494 150.649 81.6986 160.72 87.9814C164.871 90.5669 168.411 92.863 171.819 94.107C175.681 95.4219 179.727 96.1148 183.806 96.1598C188.582 96.4261 189.075 92.3731 188.246 89.9389Z" fill="#FFA8A7"/>
<path d="M148.863 80.8263C147.48 80.493 146.185 79.8645 145.067 78.9839C143.843 78.1022 142.514 76.4313 141.547 75.5496C140.581 74.6678 139.225 75.5496 138.442 75.5496C138.199 75.5478 137.96 75.4871 137.746 75.3725C137.531 75.258 137.348 75.093 137.212 74.892C138.462 74.6421 138.442 73.9056 138.442 73.9056C137.695 74.2423 136.853 74.3006 136.067 74.07C135.541 73.7872 135.514 72.9384 135.514 72.9384C135.455 73.6508 134.747 74.0174 133.843 74.1292C132.939 74.241 132.672 73.8201 132.672 73.8201C132.752 74.1797 132.752 74.5526 132.672 74.9123L134.021 74.5769C134.189 74.6283 134.352 74.6966 134.507 74.7807C135.764 75.4383 137.58 77.1952 136.856 78.8535C136.516 79.5208 135.994 80.0777 135.349 80.4591C138.586 79.5275 139.192 77.4193 140.014 77.1037C140.593 76.8801 141.384 77.0445 143.113 78.4852C144.718 79.8797 146.74 80.7029 148.863 80.8263Z" fill="#F28F8F"/>
<path d="M137.777 71.5228C136.505 71.4904 135.233 71.5432 133.968 71.6806C133.42 71.7858 131.442 73.1805 131.093 73.3975C130.743 73.6145 130.58 74.9834 130.29 75.8635C130 76.7436 130.125 76.9096 130.494 77.1787C130.494 77.1787 129.664 77.0691 130.039 75.784C130.414 74.499 130.526 73.2972 130.941 72.9613C131.873 72.3215 132.864 71.7711 133.9 71.3173C134.316 71.2203 137.777 71.5228 137.777 71.5228Z" fill="#F28F8F"/>
<path d="M132.671 69.1938C131.947 69.0842 131.73 69.4306 131.177 70.0624C130.34 71.111 129.567 72.209 128.862 73.3504C128.768 73.8968 128.768 74.4551 128.862 75.0015C128.862 75.6137 128.941 77.0609 129.605 77.9821C129.605 77.9821 129.29 77.9361 128.948 77.0609C128.692 76.0892 128.548 75.0914 128.52 74.0869C128.454 73.5345 128.52 73.3696 129.033 72.5936C129.703 71.5839 130.435 70.617 131.225 69.6985C131.75 69.161 131.941 68.9834 132.671 69.1938Z" fill="#F28F8F"/>
<path d="M151.791 83.3065C151.292 82.5826 151.06 81.7086 151.133 80.8328C151.133 79.6354 151.034 79.3724 150.817 80.3001C150.599 81.2279 149.447 82.8396 148.494 82.8659C149.612 82.7771 150.736 82.9273 151.791 83.3065Z" fill="#F28F8F"/>
<path d="M81.2273 84.34C78.9049 88.3733 78.1546 91.5117 79.6551 93.222C80.813 94.5372 82.9431 94.3668 85.945 94.5372C88.8335 94.6819 94.1754 94.0374 97.9062 91.9386C103.347 88.8725 106.21 87.2214 110.664 86.8197C114.894 86.4449 116.756 85.4251 119.092 85.2146C121.842 84.9713 124.743 84.8924 126.645 85.8722C127.521 86.3342 128.359 86.8643 129.152 87.4576C129.349 87.5497 129.632 87.348 129.691 86.7271C129.731 86.0097 129.567 85.2954 129.217 84.6677C128.474 83.3191 126.296 82.4637 123.956 82.0373C121.617 81.611 119.93 80.452 119.581 79.0568C119.316 77.9701 119.44 76.8251 119.93 75.8197C120.384 75.9531 120.845 76.0606 121.311 76.142C121.953 76.225 122.599 76.2711 123.246 76.28C123.702 76.8912 124.23 77.4456 124.818 77.9317C125.371 78.3153 125.891 78.4797 126.134 78.2408C126.425 78.7284 126.898 79.0809 127.449 79.2212C128.193 79.3066 128.337 78.9384 128.337 78.9384C128.337 78.9384 128.094 77.5109 128.022 76.9108C127.949 76.3107 127.956 75.3846 127.87 74.938C127.785 74.4914 127.39 74.1746 126.272 72.9652C125.153 71.7558 124.64 70.6822 124.101 70.5704C123.583 70.5226 123.061 70.5596 122.555 70.68C122.185 70.6133 121.806 70.6133 121.436 70.68C120.548 70.7655 119.305 70.9102 117.874 71.0088C116.444 71.1075 114.788 71.0549 114.387 71.456C113.986 71.8571 113.354 72.8309 112.466 73.8573C111.206 75.2309 109.868 76.5314 108.459 77.7525C107.746 78.3538 106.999 78.9141 106.222 79.4305C105.408 79.9849 104.524 80.4272 103.592 80.7457C102 81.2131 99.6461 81.3052 96.5981 81.5617C91.4453 81.959 83.3656 81.8724 81.2273 84.34Z" fill="#FFA8A7"/>
<path d="M122.703 81.6812C121.045 81.1216 119.874 80.155 119.598 79.0508C119.333 77.9641 119.456 76.8191 119.946 75.8137C119.76 76.0092 119.537 76.1652 119.289 76.2726C119.042 76.38 118.775 76.4366 118.506 76.439C117.657 76.4325 116.824 76.2178 116.078 75.8137C116.261 76.1059 116.508 76.3533 116.799 76.5378C117.091 76.7222 117.42 76.839 117.762 76.8796C116.906 77.3261 116.009 77.6918 115.085 77.9717C113.539 78.4392 113.243 79.9445 112.69 81.5113C112.138 83.078 111.993 84.6497 110.19 85.6037C110.19 85.6037 111.96 85.3341 113.611 83.0972C115.263 80.8603 116.368 80.235 118.059 80.2021C119.75 80.1692 120.835 81.4718 122.662 81.6817L122.703 81.6812Z" fill="#F28F8F"/>
<path d="M126.178 78.1947C126.561 77.8593 126.726 77.7475 126.25 77.142C125.774 76.5364 125.099 75.6289 124.757 75.247C124.288 74.7957 123.736 74.4403 123.132 74.2008C122.296 73.7866 121.954 73.4441 121.099 73.3849C121.582 73.351 122.066 73.4297 122.513 73.615C123.092 73.9175 124.486 74.648 124.803 74.8584C125.322 75.3791 125.783 75.955 126.178 76.5759C126.408 76.9178 126.882 77.5168 126.835 77.7267C126.789 77.9366 126.178 78.1947 126.178 78.1947Z" fill="#F28F8F"/>
<path d="M126.177 78.193C126.366 78.3583 126.595 78.4698 126.842 78.5161C127.088 78.5624 127.342 78.5416 127.578 78.4561C128.032 78.193 127.993 77.9892 127.723 77.3771C127.462 76.7024 127.242 76.0125 127.065 75.3111C126.999 74.7158 126.712 74.1668 126.262 73.7712C125.243 72.975 122.861 70.9764 122.565 70.6394C122.565 70.6394 124.934 72.416 125.354 72.6988C126.078 73.1854 127.019 73.8173 127.138 74.2842C127.256 74.751 127.74 76.6197 127.835 76.863C128.058 77.2652 128.171 77.7186 128.164 78.1782C128 78.5498 127.48 79.2803 126.177 78.193Z" fill="#F28F8F"/>
<path d="M110.44 86.8318C109.07 86.7222 108.374 85.687 107.775 85.3522C107.177 85.0174 107.847 85.9511 107.775 86.5364C107.714 86.8971 107.516 87.2202 107.222 87.4379C108.272 87.1423 109.347 86.9405 110.433 86.8351L110.44 86.8318Z" fill="#F28F8F"/>
</g>
<defs>
<clipPath id="clip0_1_346">
<rect width="274" height="274" fill="white"/>
</clipPath>
</defs>
</svg>
