<svg xmlns="http://www.w3.org/2000/svg" width="151" height="137" viewBox="0 0 151 137" fill="none">
  <g clip-path="url(#clip0_1_910)">
    <path d="M76.2089 42.5074L66.8162 43.9687L62.0034 44.4254L60.7195 44.5478C60.7195 44.5478 58.4268 44.9131 58.204 44.5478C57.9811 44.1825 53.5645 44.5478 53.5645 44.5478C53.5645 44.5478 50.8811 41.363 44.5066 43.0454C43.8629 43.4252 43.1377 43.6469 42.3909 43.692C42.39 43.6792 42.39 43.6664 42.3909 43.6536C42.4417 42.7479 42.2561 41.8446 41.852 41.0316C41.448 40.2186 40.8393 39.5238 40.0853 39.0148C39.449 39.0802 38.8316 39.2685 38.2677 39.5692L38.2163 39.5975L38.0678 39.6889L38.0485 39.7108C38.1144 39.4218 38.1592 39.1285 38.1824 38.8331C38.1805 38.7221 38.1848 38.6111 38.1953 38.5006C38.4521 38.4294 38.6767 38.2727 38.8317 38.0567C38.8956 37.929 38.9232 37.7862 38.9115 37.6439V37.4896C38.9106 37.4786 38.9106 37.4676 38.9115 37.4567V37.4667C38.8745 36.9469 38.7978 36.4306 38.6822 35.9223L39.3737 36.3789C39.4515 36.4456 39.5428 36.4947 39.6414 36.523C39.74 36.5512 39.8436 36.5578 39.945 36.5424C40.0084 36.52 40.0656 36.4832 40.1121 36.4348C40.1586 36.3864 40.1931 36.3279 40.2128 36.2639C40.3357 35.9305 40.2458 35.5332 40.5099 35.2592C40.5714 35.1944 40.6493 35.1414 40.7025 35.0765C40.7744 34.9829 40.8091 34.8661 40.7997 34.7486C40.8005 34.6804 40.7953 34.6123 40.7842 34.545V34.5587C40.7385 34.387 40.7313 34.2074 40.7631 34.0326C40.8553 34.068 40.9567 34.0727 41.0519 34.046C41.147 34.0193 41.231 33.9627 41.2913 33.8846C41.3861 33.7366 41.4328 33.5632 41.4252 33.3878C41.4408 33.0919 41.4536 32.7877 41.4463 32.4854C41.4471 32.4797 41.4471 32.4738 41.4463 32.4681C41.4745 31.7496 41.2453 31.0446 40.7997 30.4788C40.9281 29.6568 40.0349 28.7691 39.0371 28.6567C38.7923 28.6302 38.4869 28.6156 38.3814 28.4348C38.345 28.3482 38.3287 28.2545 38.3337 28.1608C38.2698 27.8413 38.1151 27.5468 37.888 27.3123C37.8047 27.1991 37.7045 27.0994 37.5909 27.0164C37.2144 26.8461 36.7889 26.8166 36.3923 26.9333C35.6501 27.0636 34.9121 27.2088 34.1785 27.3689C34.0904 27.0156 34.0958 26.6455 34.1941 26.2948C34.262 26.1192 34.3034 25.9346 34.3169 25.7468C34.3203 25.6877 34.3138 25.6285 34.2977 25.5715V25.5943C34.2876 25.5651 34.276 25.5364 34.2628 25.5085C34.2274 25.4444 34.1767 25.39 34.1151 25.3502C34.0535 25.3103 33.9829 25.2863 33.9098 25.2801C33.815 25.2773 33.7214 25.3016 33.6402 25.3502C33.5589 25.3988 33.4933 25.4695 33.4512 25.5541C33.0319 26.1623 32.7411 26.849 32.5965 27.5726C32.3168 27.3784 31.9928 27.2568 31.6539 27.2188C31.3151 27.1809 30.972 27.2278 30.656 27.3552C30.4969 27.4405 30.325 27.4997 30.147 27.5306C29.9989 27.5306 29.8534 27.4923 29.7247 27.4192C29.5961 27.3462 29.4887 27.241 29.4133 27.1141C29.2107 26.8136 29.1208 26.4556 28.7292 26.2574C28.6419 26.2129 28.5453 26.1897 28.4472 26.1897C28.3491 26.1897 28.2525 26.2129 28.1652 26.2574C28.1196 26.2813 28.0793 26.314 28.0467 26.3537C28.0141 26.3934 27.9898 26.4392 27.9754 26.4885C27.9762 26.4797 27.9762 26.4708 27.9754 26.462C27.9729 26.4866 27.9729 26.5114 27.9754 26.536V26.6063C27.9616 26.9451 28.1982 27.3844 27.9295 27.6511C27.8222 27.741 27.6973 27.8075 27.5627 27.8466L26.6034 28.1891C26.0914 28.4011 25.5499 28.5338 24.9976 28.5827C24.4951 28.6001 23.9888 28.4914 23.4918 28.5024C23.4685 28.4904 23.4461 28.4766 23.4248 28.4613C23.3144 28.4671 23.2044 28.4799 23.0956 28.4996C23.1063 28.5132 23.118 28.526 23.1305 28.538H23.0956C23.3483 28.8173 23.6814 29.0122 24.0494 29.096C24.2768 29.1527 24.5162 29.17 24.7372 29.2403C24.8433 29.2626 24.942 29.3114 25.0242 29.382C25.1063 29.4526 25.1691 29.5427 25.2067 29.644C25.2111 29.8059 25.1722 29.966 25.0939 30.108L25.0847 30.0943C25.0619 30.1566 25.0507 30.2225 25.0517 30.2888C25.0478 30.3192 25.0478 30.3499 25.0517 30.3802C25.0904 30.4907 25.1681 30.5835 25.2703 30.6413C25.3725 30.6991 25.4923 30.7179 25.6075 30.6944L24.474 31.4059C24.3897 31.4563 24.3108 31.515 24.2383 31.5812L24.2062 31.5721C24.1738 31.6036 24.1483 31.6415 24.1313 31.6833C24.1143 31.7251 24.106 31.7699 24.1072 31.815C24.1036 31.8497 24.108 31.8846 24.12 31.9173L24.4868 32.0205L23.4909 33.3905C23.4302 33.4704 23.3771 33.5557 23.3322 33.6453L23.3221 33.628C23.2994 33.6837 23.2872 33.7432 23.2864 33.8034C23.2827 33.8337 23.2827 33.8643 23.2864 33.8947C23.295 33.9439 23.3141 33.9908 23.3424 34.032C23.3707 34.0733 23.4076 34.1081 23.4505 34.1341C23.4934 34.16 23.5413 34.1765 23.5912 34.1825C23.641 34.1885 23.6915 34.1837 23.7394 34.1687C23.5206 34.3865 23.3443 34.643 23.2194 34.9249L23.2038 34.9149L23.1882 34.9514C23.1635 35.0066 23.151 35.0664 23.1516 35.1268C23.1442 35.173 23.1536 35.2202 23.1782 35.2601C23.2229 35.3071 23.2783 35.3426 23.3398 35.3638C23.4012 35.3849 23.4669 35.391 23.5312 35.3816C23.7762 35.3881 24.0166 35.3144 24.2154 35.1716C24.4142 35.0289 24.5605 34.8251 24.6317 34.5916C24.794 34.7669 24.6189 34.9761 24.4657 35.1569C23.8112 35.8347 23.275 36.6166 22.8792 37.4704C22.7635 37.7625 22.6933 38.0705 22.671 38.3837V38.4312C22.6267 39.0135 22.8111 39.5902 23.1855 40.0396C23.3229 40.1791 23.4458 40.3321 23.5523 40.4963C23.7495 40.8616 23.6367 41.3301 23.9439 41.6398C24.1913 40.9827 24.4906 40.3463 24.839 39.7364C24.8334 39.9013 24.8084 40.0649 24.7647 40.2241V40.2104C24.7647 40.2524 24.7509 40.2935 24.7473 40.3328C24.7454 40.3632 24.7454 40.3937 24.7473 40.4241C24.739 40.5299 24.7648 40.6357 24.8209 40.726C24.8769 40.8162 24.9603 40.8865 25.0591 40.9264C25.2179 40.955 25.3816 40.9384 25.5313 40.8784C25.681 40.8185 25.8108 40.7177 25.9055 40.5876C25.9349 40.6616 25.9661 40.741 25.9972 40.8159C26.6534 42.2693 27.8389 43.4206 29.3143 44.0373L29.3427 44.0948C28.1505 44.7971 25.3865 46.5051 25.2067 47.1599C24.9756 47.9956 25.0582 50.1913 26.7153 50.6397C27.0735 50.737 27.4451 50.7762 27.8158 50.7557C27.7455 50.8665 27.6767 50.9774 27.6095 51.0882C27.2327 51.6551 26.9115 52.2567 26.6502 52.8847C26.3155 53.9606 23.1846 55.2594 23.1846 55.2594C21.2748 57.0043 20.0471 59.3663 19.7189 61.9267C19.7189 61.9267 16.699 65.8349 15.0226 66.6496C13.3462 67.4643 10.4372 72.4575 10.4372 72.4575C10.4372 72.4575 7.55853 74.4668 6.94776 76.4304C6.80646 76.9715 6.54218 77.4729 6.17534 77.8961C5.8085 78.3192 5.34891 78.6528 4.83207 78.8709C4.83207 78.8709 4.96964 78.9376 5.18515 79.0709C5.11637 79.1074 5.04392 79.1503 4.9623 79.1987C3.59494 80.0125 0.575011 82.2301 1.24264 85.6953C1.89193 89.0308 5.67853 85.7866 7.51818 83.9691L7.68417 83.8038C7.65595 83.9907 7.61707 84.1757 7.56771 84.3582C7.96702 83.7389 8.46225 83.1865 9.03503 82.7215C9.65052 82.227 10.1561 81.6106 10.5198 80.9113C10.6547 80.6189 10.85 80.3583 11.0931 80.1465C11.3362 79.9346 11.6214 79.7763 11.9302 79.6819C13.4388 79.3029 21.101 73.4411 22.7765 70.4006C23.9872 68.4567 25.8169 66.9728 27.9735 66.1856L29.5885 71.2135C29.8342 71.9812 29.8775 72.799 29.7141 73.5881C29.3611 75.3016 28.919 78.6115 29.9893 81.188C29.9893 81.188 30.0379 81.1423 30.1287 81.0665C30.2772 81.7196 30.4616 82.5781 30.6312 83.422C30.6725 83.6294 30.711 83.8357 30.7477 84.0403C30.855 84.6139 30.9449 85.1528 30.9962 85.5839C31.2191 87.4325 31.8353 91.6648 32.3379 92.0996C32.8405 92.5343 35.6871 101.324 35.6871 101.324C35.6871 101.324 38.2026 107.078 37.8128 109.63C37.7773 109.942 37.7825 110.258 37.8284 110.569C37.9151 111.204 38.0434 111.832 38.2127 112.45C38.2613 112.632 38.3117 112.825 38.3677 113.019C38.4135 113.185 38.4594 113.356 38.5126 113.525C39.7314 117.643 42.0607 123.147 42.0607 123.147C42.0607 123.147 42.2542 123.647 42.5064 124.316C42.5899 124.538 42.6825 124.784 42.7733 125.035C43.1281 125.902 43.4129 126.795 43.6252 127.706C43.6252 127.771 43.717 127.843 43.8664 127.917C43.467 128.578 43.1134 129.265 42.8081 129.974C42.3329 130.855 41.6871 131.634 40.908 132.266C40.908 132.266 39.2297 132.74 39.2297 134.198V135.31C40.8137 135.261 42.3991 135.347 43.9682 135.569C44.8861 135.727 45.8294 135.647 46.7075 135.338L47.0423 134.906C47.0423 134.906 51.1086 135.081 51.3617 134.075C51.4364 133.52 51.4398 132.958 51.3718 132.402C51.295 131.488 51.1596 130.579 50.9664 129.682C51.2342 129.672 51.4176 129.654 51.4176 129.654C51.4176 129.654 53.2738 130.849 53.471 132.029C53.5305 132.376 53.6651 132.706 53.8654 132.996C54.0657 133.287 54.327 133.53 54.6311 133.71C56.4405 134.329 58.3755 134.492 60.2637 134.186C62.2033 133.981 62.5656 132.999 62.3895 132.123C62.2281 131.322 61.6072 130.613 61.3119 130.671C60.6984 130.793 58.2232 127.25 58.2232 127.25L56.9659 124.617C57.0787 123.212 56.7477 122.546 56.2818 122.265C56.6009 119.304 56.6431 115.334 56.6431 115.334C56.8035 112.314 56.8035 109.288 56.6431 106.268C56.3634 101.975 56.3634 93.5664 55.4087 90.7415C54.7066 87.9243 54.1613 85.0707 53.7754 82.1936C53.7332 81.9269 53.6911 81.6675 53.6525 81.3981C53.5186 80.5331 53.393 79.6865 53.2765 78.8928C53.3316 78.8663 53.3875 78.8398 53.437 78.8124L53.1399 76.2076L53.0977 75.8477C53.1078 75.8578 53.1225 75.8651 53.1326 75.8742C54.1413 76.7958 52.7978 71.6939 52.7978 71.6939C52.7978 71.6939 52.1935 65.8266 52.2338 62.451C52.2375 61.2503 52.1732 60.0504 52.0412 58.857C51.9564 58.215 52.0697 57.5625 52.366 56.9862C52.6623 56.4099 53.1276 55.9369 53.7002 55.6302C54.1005 55.3786 54.4761 55.0899 54.8218 54.768C55.2464 54.3835 56.1736 53.8903 58.171 53.8328C60.5015 53.6535 62.7751 53.0257 64.8656 51.9842C64.8656 51.9842 68.7265 52.2015 70.5084 49.921C72.2902 47.6404 76.7702 47.0997 76.7702 47.0997L76.2089 42.5074ZM7.14219 81.0236L6.64697 80.3322C6.83093 80.5486 6.99657 80.7799 7.14219 81.0236ZM49.3056 109.267C49.2772 109.618 49.257 110.03 49.2533 110.496C49.2133 112.276 49.4798 114.05 50.0411 115.74L49.7614 123.035H49.7385C49.5028 123.01 49.2799 123.755 49.1112 124.736C48.9708 124.331 48.7968 123.938 48.5912 123.561C48.2565 123.073 48.5362 120.365 48.5362 120.365C47.9707 119.495 47.4667 118.587 47.0276 117.648C46.9185 117.159 45.2365 109.233 45.2365 109.233C45.2365 109.233 45.1256 103.046 44.5102 101.469C43.8949 99.8931 43.728 93.054 43.728 93.054C43.728 93.054 46.8029 97.9924 47.0294 100.49L49.4322 108.145C49.4322 108.145 49.3551 108.561 49.3056 109.267Z" fill="url(#paint0_linear_1_910)"/>
    <path d="M56.0296 115.128C56.0296 115.128 55.9379 123.812 55.0208 124.992C54.1037 126.171 49.2983 125.046 49.2983 125.046L49.6513 115.501C49.1067 113.825 48.8491 112.069 48.8893 110.308C48.8893 109.851 48.9122 109.43 48.9378 109.091C48.9892 108.389 49.0598 107.974 49.0598 107.974L46.7378 100.394C46.5214 97.9176 43.5528 93.0194 43.5528 93.0194C43.5528 93.0194 43.7142 99.7945 44.3085 101.353C44.9027 102.911 45.0137 109.043 45.0137 109.043C45.0137 109.043 46.6342 116.898 46.7415 117.379C47.1661 118.307 47.6532 119.205 48.1996 120.067C48.1996 120.067 47.93 122.755 48.2546 123.239C48.5793 123.723 49.9274 127.488 49.6027 128.186C49.2781 128.885 43.4492 127.912 43.4492 127.379C43.2435 126.476 42.9675 125.59 42.6238 124.73L42.3661 124.018C42.1222 123.352 41.9342 122.861 41.9342 122.861C41.9342 122.861 39.6855 117.408 38.5089 113.329C38.4603 113.154 38.4172 112.992 38.3677 112.829C38.3154 112.636 38.2649 112.448 38.2191 112.263C38.0578 111.651 37.9352 111.029 37.8523 110.402C37.8082 110.094 37.8029 109.782 37.8367 109.472C38.2136 106.944 35.7843 101.245 35.7843 101.245C35.7843 101.245 33.033 92.5335 32.5442 92.1033C32.0554 91.6731 31.4639 87.4809 31.2484 85.6515C31.1998 85.2231 31.1127 84.6907 31.0081 84.1226C30.9724 83.9208 30.9339 83.7153 30.8953 83.5079C30.5661 81.8137 30.1617 80.0601 30.1617 80.0601L36.2144 76.0807L52.1412 74.36C52.1412 74.36 52.5869 77.7612 53.1445 81.505C53.183 81.7644 53.2243 82.031 53.2637 82.2932C53.6333 85.1417 54.1596 87.9678 54.8401 90.7589C55.7572 93.5555 55.7572 101.889 56.0324 106.139C56.1862 109.134 56.1852 112.134 56.0296 115.128Z" fill="#63667E"/>
    <path opacity="0.1" d="M40.3623 79.3303L42.367 89.5213H43.319L41.4151 78.975L40.3623 79.3303Z" fill="black"/>
    <path opacity="0.1" d="M31.0109 84.128C30.976 83.9262 30.9366 83.7207 30.8981 83.5134C31.8307 83.3234 33.9419 82.5516 33.6126 79.4463H34.2592C34.2592 79.4463 34.8718 83.5343 31.0109 84.128Z" fill="black"/>
    <path opacity="0.1" d="M53.2701 82.3032C52.0605 82.5252 48.2812 83.1718 47.4925 82.7471C46.5498 82.2366 45.6171 79.4673 45.6171 79.4673L46.481 79.3322C46.481 79.3322 45.7189 83.3938 53.1527 81.5178L53.2701 82.3032Z" fill="black"/>
    <path d="M52.9464 78.954C51.8569 79.5842 49.2992 79.8883 46.3224 80.0071C46.0472 80.0171 45.7776 80.0281 45.497 80.0354C40.6704 80.1834 35.035 79.9139 32.7891 79.7861C32.1563 79.7513 31.7932 79.7267 31.7932 79.7267L33.7639 78.3695L37.004 77.1821L43.8187 75.8514L52.5521 75.6085L52.6438 76.3547L52.9464 78.954Z" fill="#33363D"/>
    <path d="M46.3196 80.0144C46.0445 80.0244 45.7749 80.0354 45.4942 80.0427C45.1181 78.7581 44.6429 77.5043 44.0728 76.2926L44.9899 76.1711L46.3196 80.0144Z" fill="#63667E"/>
    <path d="M9.54859 83.0074C9.54859 83.0074 9.168 83.4467 8.5829 84.0422C6.80653 85.8424 3.14832 89.0564 2.52379 85.7529C1.87725 82.3279 4.79447 80.1331 6.11414 79.3239C6.48097 79.0937 6.73225 78.9732 6.73225 78.9732L9.54859 83.0074Z" fill="#FFA2A2"/>
    <path d="M42.2661 44.314C42.2661 44.314 40.2018 43.0235 39.8157 43.1449C39.4296 43.2664 39.8157 44.9935 39.8157 44.9935C39.3181 45.9398 38.5308 46.7038 37.568 47.1746C36.4644 47.7505 35.396 48.391 34.3683 49.0926C33.5728 49.0153 32.7699 49.1044 32.011 49.3544C31.2522 49.6043 30.5541 50.0094 29.9618 50.5438C29.5475 50.8211 29.079 51.0076 28.587 51.091C28.095 51.1745 27.5908 51.1529 27.1078 51.0279C25.5066 50.584 25.4277 48.4085 25.6497 47.581C25.8257 46.9316 28.4926 45.2456 29.6444 44.5441C29.9618 44.3514 30.1644 44.2336 30.1644 44.2336C30.1644 44.2336 35.3505 44.0583 36.5207 41.8589C36.882 41.1776 37.4204 40.6054 38.0797 40.2022L38.109 40.1866L38.2576 40.0953L38.3053 40.0688C38.8503 39.7709 39.4496 39.5846 40.0679 39.5208C42.5972 41.1274 42.2661 44.314 42.2661 44.314Z" fill="#CED7E7"/>
    <path opacity="0.1" d="M42.2661 44.314C42.2661 44.314 40.2018 43.0235 39.8157 43.1449C39.4296 43.2664 39.8157 44.9935 39.8157 44.9935C39.3181 45.9398 38.5308 46.7038 37.568 47.1746C36.4644 47.7505 35.396 48.391 34.3683 49.0926C33.5728 49.0153 32.7699 49.1044 32.011 49.3544C31.2522 49.6043 30.5541 50.0094 29.9618 50.5438C29.5475 50.8211 29.079 51.0076 28.587 51.091C28.095 51.1745 27.5908 51.1529 27.1078 51.0279C25.5066 50.584 25.4277 48.4085 25.6497 47.581C25.8257 46.9316 28.4926 45.2456 29.6444 44.5441C29.9618 44.3514 30.1644 44.2336 30.1644 44.2336C30.1644 44.2336 35.3505 44.0583 36.5207 41.8589C36.882 41.1776 37.4204 40.6054 38.0797 40.2022L38.109 40.1866L38.2576 40.0953L38.3053 40.0688C38.8503 39.7709 39.4496 39.5846 40.0679 39.5208C42.5972 41.1274 42.2661 44.314 42.2661 44.314Z" fill="black"/>
    <path opacity="0.1" d="M52.6392 76.3647C51.668 75.4514 45.6208 77.1164 45.6208 77.1164C43.2215 77.7941 40.7662 78.2572 38.2842 78.5001C37.8516 78.5286 37.4178 78.5338 36.9847 78.5156C35.61 78.5284 34.2647 78.9133 33.0926 79.6289L32.7955 79.8043C32.1627 79.7696 31.7996 79.744 31.7996 79.744L33.7704 78.3868L37.0104 77.1995L43.8261 75.8688L52.5594 75.6258L52.6392 76.3647Z" fill="black"/>
    <path opacity="0.1" d="M8.58291 84.0404C8.68451 83.0985 8.50448 82.1476 8.06544 81.3073C7.62639 80.4669 6.94788 79.7744 6.11506 79.3166C6.48189 79.0865 6.73317 78.9659 6.73317 78.9659L9.555 83.0038C9.555 83.0038 9.168 83.4458 8.58291 84.0404Z" fill="black"/>
    <path d="M75.4743 47.5399C75.4743 47.5399 71.154 48.066 69.4271 50.3347C67.7003 52.6034 63.9733 52.3788 63.9733 52.3788C61.9558 53.4067 59.7542 54.0275 57.4951 54.2054C55.5692 54.2684 54.6732 54.7534 54.2651 55.1306C53.9326 55.4493 53.5703 55.7356 53.183 55.9855C52.6253 56.2973 52.1745 56.7687 51.889 57.3387C51.6035 57.9087 51.4964 58.5509 51.5818 59.1822C51.7073 60.3654 51.7685 61.5544 51.7652 62.7442C51.7267 66.0797 52.3099 71.8976 52.3099 71.8976C52.3099 71.8976 53.6058 76.952 52.6318 76.0387C51.6579 75.1253 45.6153 76.7876 45.6153 76.7876C43.2159 77.4651 40.7607 77.9285 38.2787 78.1722C37.8461 78.2002 37.4123 78.2048 36.9792 78.1859C35.6042 78.1986 34.2587 78.5841 33.0871 79.3011C32.0828 79.8651 31.1433 80.5367 30.2855 81.304C29.2529 78.7531 29.683 75.4715 30.0214 73.7754C30.1796 72.9927 30.1386 72.1829 29.9021 71.4199L28.3431 66.4377C26.2447 67.221 24.4748 68.6894 23.3221 70.6034C21.7017 73.6174 14.3055 79.4226 12.8455 79.7989C12.5449 79.8934 12.2677 80.0501 12.0321 80.2586C11.7965 80.4671 11.6077 80.7229 11.4781 81.009C11.1312 81.699 10.6444 82.3098 10.0484 82.8028C9.49588 83.2659 9.01992 83.8127 8.63793 84.423C9.61095 80.7697 5.99401 78.9905 5.99401 78.9905C6.49779 78.7699 6.94431 78.4375 7.29953 78.0189C7.65474 77.6002 7.90926 77.1063 8.04367 76.5748C8.63793 74.6431 11.3928 72.6475 11.3928 72.6475C11.3928 72.6475 14.2009 67.7008 15.8214 66.8934C17.4418 66.0861 20.3572 62.2163 20.3572 62.2163C20.6617 59.6892 21.8469 57.3488 23.7064 55.6028C23.7064 55.6028 26.7327 54.3123 27.0555 53.2474C27.3072 52.627 27.617 52.0316 27.9809 51.4691C28.3936 50.7777 28.8622 50.0416 29.2428 49.4671C29.6234 48.8926 29.9196 48.4505 29.9196 48.4505L34.7672 48.4049L35.6485 48.3957L38.231 43.5551C38.231 43.5551 39.1481 42.6417 40.741 43.7167C41.1985 44.0211 41.7424 44.1704 42.2918 44.1423C43.0134 44.0957 43.7131 43.8764 44.3314 43.503C50.4877 41.8353 53.0785 44.9917 53.0785 44.9917C53.0785 44.9917 57.3429 44.6319 57.5574 44.9917C57.772 45.3516 59.9868 44.9917 59.9868 44.9917L65.8726 44.4154L74.9443 42.965L75.4743 47.5399Z" fill="#F44336"/>
    <path d="M40.0523 45.926L37.3011 50.4416C37.3011 50.4416 29.7967 55.8741 30.8816 51.6289C31.0561 50.9142 31.1179 50.1769 31.065 49.4433C31.0494 49.1574 31.0164 48.8706 30.9733 48.5884C30.7774 47.4169 30.4313 46.2754 29.9434 45.1917C29.8884 45.0611 29.8324 44.9369 29.7673 44.8145C29.683 44.6391 29.5995 44.4629 29.517 44.2967C29.1694 43.596 28.7741 42.9197 28.3339 42.2727C28.3339 42.2727 36.4867 35.6593 36.7564 39.7994C36.8154 40.7348 37.0298 41.6539 37.391 42.5193L37.4542 42.6673C37.9082 43.6879 38.5609 44.6086 39.3746 45.3762C39.5861 45.5764 39.8127 45.7602 40.0523 45.926Z" fill="#FFA2A2"/>
    <path d="M29.1474 50.121L30.4166 53.883L35.5798 54.7169L38.5419 51.4718C38.5419 51.4718 40.2431 49.0524 40.3504 48.9985C40.5242 48.218 40.65 47.4277 40.7273 46.632L41.0446 45.326L39.0472 44.6602L36.2391 47.697L35.0909 48.3993L33.8162 48.708L29.5839 49.9374L29.1474 50.121Z" fill="#F44336"/>
    <path opacity="0.1" d="M42.2643 44.6364C41.6672 44.6216 41.0698 44.6574 40.4788 44.7433C40.2065 44.8663 39.9761 45.0656 39.8157 45.3169C39.3182 46.2635 38.5309 47.0278 37.568 47.4988C36.4644 48.0748 35.3959 48.7152 34.3683 49.4168C33.5726 49.3389 32.7694 49.4278 32.0103 49.6778C31.2512 49.9278 30.5531 50.3332 29.9608 50.8681C29.37 51.2629 28.6749 51.4743 27.9634 51.4755C28.3761 50.7841 28.8448 50.0488 29.2253 49.4734C30.9678 49.2844 34.6526 48.6112 34.6526 48.6112L34.7498 48.4112C35.0919 47.7089 36.2492 45.337 36.6757 44.6209C37.1736 43.7852 38.7308 41.174 38.7849 41.0918L37.2543 42.4855L38.0714 40.5228L38.1008 40.5073L38.2494 40.4159L38.297 40.3894C38.842 40.0916 39.4413 39.9052 40.0597 39.8414C40.7569 40.3233 41.3246 40.9684 41.713 41.7199C42.1014 42.4714 42.2986 43.3063 42.2872 44.1514C42.2883 44.3141 42.28 44.4766 42.2625 44.6383L42.2643 44.6364Z" fill="black"/>
    <path opacity="0.1" d="M29.6417 44.2218L30.0415 45.0995C30.0415 45.0995 30.0085 45.1278 29.9379 45.1799C29.8829 45.0502 29.8269 44.926 29.7618 44.8027C29.6775 44.6273 29.594 44.451 29.5115 44.2848C29.5537 44.2601 29.5922 44.2336 29.6307 44.2108L29.6417 44.2218Z" fill="black"/>
    <path opacity="0.1" d="M39.3774 45.3698C38.8914 45.9903 38.2743 46.4967 37.5698 46.8531C36.466 47.4287 35.3976 48.0692 34.3701 48.7711C33.224 48.6581 32.0703 48.8917 31.0595 49.4415C31.0439 49.1556 31.0109 48.8688 30.9678 48.5866C32.702 48.3199 34.6535 47.9637 34.6535 47.9637C34.6535 47.9637 36.1731 44.8191 36.6775 43.9706C36.8536 43.6857 37.1434 43.1897 37.4561 42.6609C37.9103 43.6815 38.5633 44.6023 39.3774 45.3698Z" fill="black"/>
    <path d="M42.2671 44.314C41.6693 44.2993 41.0714 44.335 40.4797 44.4209C40.207 44.5438 39.9769 44.7443 39.8185 44.9972C39.3208 45.9436 38.5336 46.7075 37.5707 47.1783C36.4671 47.7542 35.3987 48.3946 34.3711 49.0963C33.5763 49.0179 32.7738 49.1058 32.0152 49.3543C31.2565 49.6028 30.5583 50.0064 29.9654 50.5393C29.5512 50.8166 29.0826 51.003 28.5906 51.0865C28.0987 51.1699 27.5945 51.1484 27.1115 51.0234C25.5103 50.5795 25.4314 48.404 25.6533 47.5765C25.8294 46.9271 28.4963 45.2411 29.6481 44.5396L30.048 45.4274C29.2142 46.0637 28.3409 46.647 27.4334 47.1737C25.7111 48.2012 26.5814 49.31 26.5814 49.31C27.2014 49.2031 27.831 49.1621 28.4596 49.1876C29.351 49.2479 34.6553 48.2807 34.6553 48.2807C34.6553 48.2807 36.1749 45.1342 36.6793 44.2876C37.1837 43.4409 38.7345 40.8406 38.7886 40.7593L37.258 42.164L38.0751 40.2013L38.1045 40.1858L38.253 40.0944L38.3007 40.068C38.8457 39.7701 39.445 39.5838 40.0633 39.52C42.5981 41.132 42.2671 44.314 42.2671 44.314Z" fill="#F44336"/>
    <path opacity="0.1" d="M37.3946 42.5175C36.6013 43.7378 35.3988 44.638 34.0014 45.0578C32.6039 45.4776 31.1022 45.3898 29.7637 44.81C29.3563 43.9258 28.8769 43.0763 28.3303 42.27C28.3303 42.27 36.4831 35.6566 36.7527 39.7967C36.814 40.7328 37.0309 41.6522 37.3946 42.5175Z" fill="black"/>
    <path d="M38.2246 38.866C38.2246 39.0194 38.2194 39.1716 38.209 39.3226C38.094 40.9285 37.3509 42.4253 36.1393 43.4911C34.9277 44.5569 33.3446 45.1067 31.7303 45.0221C30.116 44.9374 28.5995 44.2253 27.5069 43.0387C26.4144 41.8521 25.8331 40.2858 25.888 38.6768C25.943 37.0678 26.6297 35.5445 27.8007 34.4346C28.9716 33.3246 30.5332 32.7167 32.1495 32.7415C33.7659 32.7662 35.3079 33.4218 36.444 34.5671C37.58 35.7124 38.2194 37.256 38.2246 38.866Z" fill="#FFA2A2"/>
    <path opacity="0.1" d="M22.2381 58.6168C23.0321 60.0746 24.0537 61.3974 25.2645 62.5359C26.3706 63.5352 27.2689 64.7411 27.9084 66.0851C27.9084 66.0851 27.4205 61.8966 22.2381 58.6168Z" fill="black"/>
    <path opacity="0.1" d="M20.1307 64.9626C20.1307 64.9626 24.8903 63.7753 27.2839 64.9626H20.1307Z" fill="black"/>
    <path opacity="0.1" d="M18.4039 72.0136L23.5266 70.2582C23.5266 70.2582 20.2444 72.5963 18.4039 72.0136Z" fill="black"/>
    <path opacity="0.1" d="M9.54859 78.8873C9.54859 78.8873 11.7624 78.7796 12.464 79.4792C12.464 79.4792 10.3052 79.6408 9.54859 78.8873Z" fill="black"/>
    <path opacity="0.1" d="M61.2147 44.8739C61.2147 44.8739 56.2524 47.8093 56.0296 52.5404L61.2147 44.8739Z" fill="black"/>
    <path opacity="0.1" d="M67.2097 49.3136C67.2097 49.3136 61.0533 50.5512 60.0281 51.1951C59.0051 51.6816 57.9128 52.0079 56.7899 52.1623C56.7899 52.1623 65.6974 50.9813 67.2097 49.3136Z" fill="black"/>
    <path opacity="0.1" d="M49.1543 75.2633C48.7086 75.7272 43.1805 77.0324 38.2411 78.1247C37.7926 78.1542 37.3429 78.1593 36.8939 78.1403C35.4699 78.1543 34.076 78.5503 32.8588 79.2865C31.3676 79.6025 30.4038 79.8044 30.4038 79.8044C30.4038 79.8044 28.7796 78.5257 31.0191 75.6523C33.2586 72.779 33.6511 68.2352 33.6511 68.2352L43.6151 65.6934C43.6151 65.6934 46.304 69.3805 47.5907 69.9723C48.8773 70.5642 49.9824 74.4102 49.1543 75.2633Z" fill="black"/>
    <path d="M48.8021 75.392C48.3683 75.8487 43.0401 77.1127 38.2769 78.1749C37.8443 78.2029 37.4105 78.2075 36.9774 78.1886C35.6024 78.2013 34.2568 78.5868 33.0853 79.3038C31.6473 79.6089 30.7156 79.8025 30.7156 79.8025C30.7156 79.8025 29.1501 78.5649 31.3098 75.7646C33.4696 72.9644 33.8474 68.5575 33.8474 68.5575L43.4583 66.0851C43.4583 66.0851 46.05 69.6672 47.2899 70.2426C48.5298 70.818 49.5954 74.5664 48.8021 75.392Z" fill="#F44336"/>
    <path opacity="0.1" d="M40.9988 110.638L38.2237 112.274C38.0624 111.662 37.9398 111.04 37.8568 110.413C38.2567 110.749 40.9988 110.638 40.9988 110.638Z" fill="black"/>
    <path opacity="0.1" d="M38.3759 112.839C39.9234 112.562 41.4543 112.2 42.9613 111.754C41.5692 112.497 40.0739 113.029 38.5245 113.334C38.4676 113.17 38.4218 113.002 38.3759 112.839Z" fill="black"/>
    <path opacity="0.1" d="M43.7775 111.34C43.5377 111.533 43.259 111.672 42.9604 111.747C43.4565 111.515 43.7775 111.34 43.7775 111.34Z" fill="black"/>
    <path opacity="0.1" d="M45.4557 124.857C44.5135 124.89 43.5701 124.85 42.6339 124.739L42.3762 124.027C43.3961 124.176 44.4317 124.184 45.4539 124.052C46.3536 123.785 46.6277 124.765 45.4557 124.857Z" fill="black"/>
    <path opacity="0.1" d="M52.4768 110.572C52.3466 110.554 50.2493 110.319 48.9003 110.312C48.9003 109.856 48.9232 109.435 48.9489 109.096C49.8788 109.484 52.3374 110.522 52.4768 110.572Z" fill="black"/>
    <path d="M50.9316 133.69C50.6876 134.689 46.7607 134.512 46.7607 134.512L46.4361 134.94C45.5901 135.246 44.6783 135.325 43.7922 135.169C42.2742 134.95 40.7398 134.865 39.2068 134.915V133.811C39.2068 132.373 40.8273 131.902 40.8273 131.902C41.5833 131.273 42.2066 130.501 42.6614 129.63C42.9558 128.923 43.2977 128.236 43.6849 127.574C43.6849 127.574 42.4175 126.042 45.818 125.643C49.1671 125.257 47.8539 128.285 47.8172 128.369C47.8722 128.32 49.1286 127.194 49.8274 127.547C50.3318 127.805 50.7885 130.249 50.9279 132.022C51.0002 132.576 51.0014 133.136 50.9316 133.69Z" fill="#CED7E7"/>
    <path opacity="0.1" d="M50.9316 133.694C50.6876 134.693 46.7607 134.516 46.7607 134.516L46.4361 134.944C45.5901 135.25 44.6783 135.328 43.7922 135.172C42.2742 134.953 40.7398 134.868 39.2068 134.918V133.865C41.2858 133.968 45.4429 134.105 46.3747 133.625C46.8478 133.515 47.3086 133.357 47.7503 133.155C47.9667 132.995 50.2484 132.253 50.9233 132.033C50.9998 132.584 51.0026 133.142 50.9316 133.694Z" fill="black"/>
    <path d="M59.5301 133.801C57.7056 134.099 55.8353 133.937 54.09 133.329C53.7937 133.149 53.5402 132.906 53.347 132.618C53.1537 132.331 53.0252 132.005 52.9703 131.663C52.7813 130.494 50.9857 129.312 50.9857 129.312C50.9857 129.312 48.7728 129.527 48.5023 128.88C48.4369 128.606 48.4119 128.324 48.428 128.043C48.428 126.308 48.8627 122.671 49.3662 122.724C49.9604 122.789 51.79 125.204 51.9734 125.446C51.8129 125.187 50.2199 122.481 53.7553 122.158C53.7553 122.158 56.6431 120.532 56.3469 124.323L57.562 126.93C57.562 126.93 59.9519 130.441 60.5444 130.319C60.8278 130.261 61.4257 130.963 61.5834 131.757C61.7531 132.623 61.3972 133.597 59.5301 133.801Z" fill="#CED7E7"/>
    <path opacity="0.1" d="M38.2246 38.8659C38.2246 39.0194 38.2194 39.1716 38.209 39.3226L38.0604 39.3793L37.4808 39.5902C37.3832 39.6334 37.2785 39.6585 37.1718 39.6642C37.089 39.6605 37.0082 39.6381 36.9353 39.5989C36.8624 39.5597 36.7994 39.5046 36.7509 39.4377C36.6674 39.3106 36.6077 39.1695 36.5748 39.0212L36.1355 37.3407C36.1152 37.1613 36.0496 36.9899 35.9449 36.8425C35.8402 36.6951 35.6998 36.5765 35.5366 36.4977C35.427 36.4749 35.3191 36.4444 35.2138 36.4063C34.9791 36.2958 34.9305 36.041 34.847 35.8145C34.6091 35.2883 34.2023 34.8559 33.6906 34.5852C33.3462 34.3451 32.937 34.2143 32.5167 34.2098C32.2917 34.2136 32.0743 34.2917 31.8986 34.4317C31.5318 34.7423 31.5813 35.1624 31.6235 35.6044C31.7213 36.0506 31.7322 36.5114 31.6556 36.9617C31.5266 37.2367 31.4229 37.5229 31.3456 37.8165C31.3172 38.0567 31.397 38.3006 31.3823 38.5417C31.3787 38.6711 31.3316 38.7955 31.2484 38.8949C31.1652 38.9943 31.0509 39.0629 30.9238 39.0897C30.9008 38.9417 30.6871 38.897 30.545 38.8157C30.4124 38.7156 30.3113 38.5797 30.2536 38.4242C30.1959 38.2687 30.184 38.1 30.2194 37.938C30.2442 37.4603 30.2671 36.9808 30.2901 36.5031C30.1476 37.5712 29.9266 38.6275 29.6289 39.6633C29.5919 39.8433 29.5077 40.0103 29.3849 40.1474C29.3126 40.219 29.2205 40.2675 29.1203 40.2866C29.0201 40.3056 28.9165 40.2944 28.8227 40.2542C28.7138 40.1858 28.6332 40.0809 28.5953 39.9583C28.3711 39.4019 28.2944 38.7974 28.3725 38.2029C28.2058 38.994 27.948 39.7632 27.604 40.4953C27.5417 40.6568 27.4419 40.8013 27.3128 40.9171C27.1837 41.0328 27.0289 41.1164 26.8611 41.1612C26.7488 41.1649 26.6375 41.1833 26.5301 41.216C26.4871 41.2365 26.4482 41.2646 26.4154 41.2991C26.0566 40.4639 25.8887 39.5598 25.9239 38.6521C25.959 37.7443 26.1964 36.8558 26.6187 36.0506C27.0411 35.2455 27.6378 34.5439 28.3659 33.9967C29.0939 33.4495 29.935 33.0702 30.8282 32.8865C31.7215 32.7028 32.6446 32.7191 33.5307 32.9343C34.4169 33.1495 35.2439 33.5582 35.9519 34.1308C36.66 34.7034 37.2314 35.4257 37.6248 36.2452C38.0181 37.0648 38.2236 37.9612 38.2264 38.8696L38.2246 38.8659Z" fill="black"/>
    <path d="M31.8986 34.1094C32.074 33.9688 32.2916 33.8906 32.5167 33.8874C32.937 33.8925 33.3459 34.0233 33.6906 34.2628C34.204 34.5313 34.6114 34.9644 34.847 35.4921C34.9268 35.7095 34.9736 35.9717 35.2001 36.084C35.3055 36.1207 35.413 36.1512 35.522 36.1753C35.6855 36.2535 35.8264 36.372 35.9312 36.5195C36.036 36.667 36.1012 36.8387 36.1208 37.0183L36.5665 38.698C36.5954 38.8461 36.6523 38.9875 36.7344 39.1144C36.7827 39.1816 36.8456 39.2371 36.9185 39.2766C36.9914 39.3162 37.0724 39.3388 37.1553 39.3428C37.2623 39.3374 37.3674 39.3124 37.4653 39.2688L38.0449 39.0578C38.3534 38.9856 38.6275 38.8094 38.8207 38.5591C38.8936 38.3939 38.9181 38.2115 38.8913 38.0331C38.8583 37.4966 38.7838 36.9634 38.6685 36.4384L39.337 36.8896C39.4115 36.9546 39.4992 37.0028 39.5943 37.0307C39.6893 37.0586 39.7892 37.0656 39.8872 37.0512C39.9488 37.0286 40.0043 36.9921 40.0493 36.9446C40.0944 36.897 40.1277 36.8398 40.1468 36.7772C40.266 36.4475 40.1798 36.052 40.4302 35.7798C40.4907 35.7168 40.5641 35.662 40.6136 35.5972C40.841 35.3058 40.5714 34.9113 40.6649 34.5697C40.7551 34.6046 40.8543 34.6091 40.9473 34.5824C41.0403 34.5556 41.1218 34.4992 41.1794 34.4217C41.2709 34.2745 41.3157 34.1033 41.3078 33.9304C41.4846 32.9305 41.2682 31.9013 40.7034 31.0561C40.8291 30.2423 39.9643 29.3619 39.0087 29.2513C38.7712 29.223 38.4795 29.2093 38.3759 29.0294C38.3392 28.9429 38.3229 28.8492 38.3282 28.7554C38.2671 28.4409 38.118 28.1499 37.8981 27.916C37.8185 27.8025 37.7209 27.7026 37.6092 27.6201C37.2466 27.4534 36.8352 27.4248 36.4528 27.5398C35.7344 27.6676 35.0213 27.811 34.3133 27.9699C34.2299 27.6228 34.2353 27.2605 34.3289 26.9159C34.4511 26.6717 34.4731 26.3897 34.3903 26.1296C34.3562 26.0646 34.3058 26.0095 34.2439 25.9698C34.182 25.9301 34.1107 25.9071 34.0372 25.9031C33.9442 25.9006 33.8525 25.9251 33.7733 25.9738C33.6941 26.0225 33.631 26.0931 33.5915 26.1771C33.1856 26.7812 32.905 27.46 32.7662 28.1736C32.4996 27.9857 32.1898 27.8678 31.8653 27.8309C31.5408 27.794 31.2122 27.8393 30.91 27.9626C30.7577 28.0479 30.5922 28.1072 30.4203 28.138C30.2768 28.1362 30.1364 28.0971 30.0127 28.0247C29.889 27.9523 29.7864 27.8491 29.7151 27.7252C29.5216 27.4292 29.4326 27.0721 29.0557 26.8767C28.9717 26.8325 28.8782 26.8095 28.7833 26.8095C28.6884 26.8095 28.5949 26.8325 28.5109 26.8767C28.012 27.1662 28.6338 27.8813 28.2642 28.2613C28.1613 28.3493 28.0411 28.415 27.9112 28.454L26.9858 28.7929C26.4927 29.0028 25.9693 29.1338 25.4351 29.181C24.8258 29.1182 24.2123 29.106 23.6009 29.1445C23.8435 29.4197 24.1658 29.6131 24.5235 29.698C24.7418 29.7528 24.9729 29.7719 25.1865 29.8395C25.2899 29.8625 25.3857 29.9112 25.465 29.9812C25.5442 30.0512 25.6043 30.1401 25.6396 30.2396C25.6873 30.4871 25.447 30.7264 25.4947 30.9702C25.5309 31.0766 25.6042 31.1664 25.7014 31.2234C25.7985 31.2804 25.9129 31.3007 26.0238 31.2808L24.9298 31.9831C24.7326 32.1092 24.5116 32.2937 24.5859 32.4937L24.9389 32.596L23.9888 33.9532C23.8655 34.0908 23.795 34.2675 23.7898 34.4519C23.7989 34.4993 23.8177 34.5444 23.845 34.5842C23.8724 34.6241 23.9077 34.658 23.9487 34.6837C23.9897 34.7094 24.0356 34.7264 24.0836 34.7336C24.1315 34.7409 24.1804 34.7383 24.2273 34.7259C23.9994 34.9632 23.82 35.2424 23.699 35.5479C23.6768 35.5877 23.6644 35.6323 23.6628 35.6778C23.6612 35.7234 23.6705 35.7687 23.6899 35.81C23.7316 35.8552 23.7836 35.8898 23.8415 35.9109C23.8994 35.9321 23.9616 35.9391 24.0228 35.9315C24.2622 35.9389 24.4971 35.8654 24.6893 35.7229C24.8814 35.5805 25.0195 35.3775 25.0811 35.1469C25.2379 35.3223 25.071 35.5296 24.9206 35.7068C24.2873 36.3827 23.7691 37.157 23.3863 37.9993C23.2053 38.4106 23.1371 38.8624 23.1885 39.3086C23.2399 39.7547 23.4091 40.1794 23.6789 40.5392C23.8114 40.6795 23.9296 40.8325 24.0319 40.9959C24.2218 41.3612 24.1127 41.8179 24.4089 42.1284C24.647 41.4783 24.9359 40.8477 25.2728 40.2424C25.2543 40.4552 25.2236 40.6669 25.181 40.8763C25.1659 40.9877 25.187 41.1011 25.2413 41.1997C25.2956 41.2983 25.3802 41.377 25.4828 41.4243C25.7927 41.5366 26.1155 41.2964 26.3182 41.0726C26.3687 41.0063 26.4332 40.9517 26.5071 40.9128C26.6141 40.8808 26.7247 40.8624 26.8364 40.858C27.0042 40.8133 27.1589 40.7296 27.288 40.6139C27.4172 40.4982 27.5169 40.3537 27.5792 40.1922C27.9249 39.4594 28.1828 38.6888 28.3477 37.896C28.2699 38.4909 28.3483 39.0957 28.5751 39.6515C28.611 39.7737 28.6902 39.8789 28.798 39.9474C28.892 39.9868 28.9956 39.9975 29.0956 39.9782C29.1957 39.9588 29.2878 39.9103 29.3602 39.8387C29.4834 39.7019 29.5676 39.5348 29.6041 39.3546C29.9011 38.3186 30.1221 37.2625 30.2653 36.1945L30.1947 37.6294C30.1791 37.9527 30.1947 38.3317 30.5193 38.5071C30.6679 38.5865 30.8724 38.6331 30.8999 38.7811C31.0278 38.7558 31.1431 38.6876 31.2265 38.5878C31.31 38.4881 31.3565 38.3629 31.3585 38.2331C31.3741 37.9901 31.2952 37.749 31.3236 37.5024C31.4023 37.2092 31.506 36.9232 31.6336 36.6475C31.7118 36.198 31.701 35.7375 31.6015 35.2921C31.5399 35.0866 31.535 34.8683 31.5873 34.6602C31.6396 34.4521 31.7471 34.2618 31.8986 34.1094Z" fill="#896363"/>
    <path opacity="0.1" d="M59.5301 133.801C57.7056 134.098 55.8353 133.936 54.09 133.328C53.7937 133.148 53.5402 132.905 53.3469 132.618C53.1537 132.33 53.0252 132.004 52.9702 131.662C52.7813 130.493 50.9857 129.312 50.9857 129.312C50.9857 129.312 48.7728 129.526 48.5022 128.88C48.437 128.605 48.4119 128.323 48.428 128.042C49.2451 128.237 51.1306 128.681 51.7138 128.851C52.4723 129.066 54.6833 132.642 54.6833 132.642C56.8146 133.759 60.3417 132.326 61.5797 131.764C61.7531 132.623 61.3972 133.598 59.5301 133.801Z" fill="black"/>
    <path opacity="0.1" d="M43.6894 127.575C43.6894 127.575 42.6 129.239 47.8218 128.379L43.6894 127.575Z" fill="black"/>
    <path opacity="0.1" d="M51.9743 125.445C51.9743 125.445 57.4813 126.637 56.346 124.324L51.9743 125.445Z" fill="black"/>
    <g opacity="0.1">
      <path d="M25.5323 30.6761C25.502 30.7537 25.4922 30.8376 25.5038 30.92C25.515 30.9671 25.5354 31.0116 25.5638 31.0508C25.5923 31.09 25.6284 31.1231 25.6698 31.1484L26.0367 30.9091C25.9388 30.9255 25.8383 30.912 25.7482 30.8704C25.6582 30.8289 25.5829 30.7611 25.5323 30.6761Z" fill="black"/>
      <path d="M24.5244 29.6459C24.7473 29.7007 24.9756 29.7199 25.193 29.7875C25.371 29.8347 25.5234 29.9494 25.6176 30.1072C25.6481 30.03 25.6579 29.9463 25.646 29.8642C25.6108 29.7647 25.5508 29.6757 25.4715 29.6057C25.3922 29.5358 25.2964 29.487 25.193 29.4642C24.9802 29.3938 24.7473 29.3728 24.5244 29.3226C24.3095 29.2692 24.1058 29.1783 23.9228 29.0541C23.8156 29.0581 23.7088 29.0709 23.6037 29.0924C23.8458 29.3672 24.1675 29.5605 24.5244 29.6459Z" fill="black"/>
      <path d="M25.2957 39.8634C24.9582 40.4686 24.6687 41.0992 24.43 41.7494C24.1328 41.4426 24.2466 40.9786 24.053 40.6169C23.9514 40.453 23.8331 40.2999 23.7 40.1602C23.3997 39.793 23.226 39.3392 23.2048 38.866C23.1559 39.4484 23.3331 40.0274 23.7 40.4835C23.8331 40.6232 23.9515 40.7763 24.053 40.9402C24.2429 41.3055 24.1365 41.7622 24.43 42.0728C24.6538 41.4648 24.9217 40.8738 25.2315 40.3045C25.2704 40.1605 25.2919 40.0125 25.2957 39.8634Z" fill="black"/>
      <path d="M23.8375 34.1815C23.8064 34.2511 23.7937 34.3276 23.8008 34.4034C23.8111 34.4572 23.8339 34.5079 23.8673 34.5513C23.9007 34.5948 23.9439 34.6299 23.9934 34.6537C24.0671 34.5471 24.1489 34.4463 24.2383 34.3523C24.162 34.3754 24.0799 34.371 24.0066 34.3397C23.9333 34.3085 23.8734 34.2525 23.8375 34.1815Z" fill="black"/>
      <path d="M34.272 27.2667C34.2796 27.129 34.3014 26.9925 34.3371 26.8593C34.4313 26.6453 34.4658 26.4099 34.4371 26.178C34.4123 26.2967 34.3701 26.4182 34.3371 26.5296C34.2716 26.7695 34.2496 27.0191 34.272 27.2667Z" fill="black"/>
      <path d="M28.3349 27.0694C28.3151 27.2737 28.3313 27.4798 28.3825 27.6786C28.4029 27.4743 28.3867 27.2681 28.3349 27.0694Z" fill="black"/>
      <path d="M25.0967 34.7679C25.0301 34.9956 24.8908 35.1955 24.6998 35.3371C24.5087 35.4787 24.2765 35.5543 24.0384 35.5524C23.9277 35.5621 23.8176 35.5294 23.7302 35.4611L23.7146 35.4958C23.6928 35.5358 23.6806 35.5802 23.6788 35.6257C23.6771 35.6712 23.6859 35.7164 23.7045 35.7579C23.747 35.8026 23.7994 35.8367 23.8576 35.8573C23.9158 35.8779 23.978 35.8846 24.0393 35.8767C24.2486 35.8736 24.4535 35.816 24.6335 35.7095C24.7372 35.5817 24.8436 35.4547 24.9472 35.3305C25.0013 35.2673 25.0509 35.2005 25.0958 35.1305C25.0996 35.1185 25.1027 35.1063 25.1049 35.0939V35.1031C25.1417 35.0553 25.161 34.9965 25.1595 34.9363C25.158 34.8761 25.1358 34.8183 25.0967 34.7725V34.7679Z" fill="black"/>
      <path d="M24.6803 32.1466C24.6399 32.1832 24.6106 32.2303 24.5957 32.2826C24.5808 32.3349 24.5809 32.3903 24.5959 32.4425L24.7619 32.49L24.9454 32.2215L24.6803 32.1466Z" fill="black"/>
      <path d="M40.6218 35.2282C40.5655 35.2914 40.5041 35.3501 40.4384 35.4036C40.1871 35.6776 40.2743 36.0694 40.155 36.4009C40.1357 36.4634 40.1023 36.5205 40.0573 36.568C40.0123 36.6155 39.9569 36.6521 39.8955 36.6749C39.7975 36.6893 39.6975 36.6823 39.6025 36.6544C39.5075 36.6265 39.4197 36.5783 39.3453 36.5133L38.6767 36.0621C38.7033 36.1845 38.7281 36.3096 38.751 36.4274L39.3453 36.8275C39.4194 36.8931 39.5071 36.9418 39.6022 36.97C39.6972 36.9983 39.7973 37.0054 39.8955 36.991C39.9568 36.9679 40.012 36.9312 40.057 36.8838C40.1019 36.8363 40.1355 36.7793 40.155 36.717C40.2743 36.3873 40.1871 35.9918 40.4384 35.7196C40.4989 35.6548 40.5723 35.6018 40.6218 35.5369C40.6678 35.466 40.6982 35.3862 40.711 35.3028C40.7238 35.2194 40.7187 35.1342 40.6961 35.0529C40.6855 35.1163 40.6601 35.1764 40.6218 35.2282Z" fill="black"/>
      <path d="M38.8959 37.9554C38.8885 38.0357 38.8658 38.1138 38.8289 38.1856C38.6353 38.4362 38.3605 38.6124 38.0513 38.6842L37.4726 38.8952C37.3745 38.9379 37.2695 38.963 37.1626 38.9692C37.0797 38.9652 36.9988 38.9426 36.9259 38.9031C36.853 38.8635 36.79 38.8081 36.7417 38.7409C36.6577 38.614 36.598 38.4728 36.5656 38.3244L36.1245 36.6448C36.1046 36.4652 36.0392 36.2937 35.9344 36.1462C35.8297 35.9988 35.689 35.8802 35.5257 35.8018C35.4163 35.7778 35.3085 35.7472 35.2029 35.7104C34.9681 35.5981 34.9195 35.3451 34.8498 35.1186C34.6124 34.5921 34.2054 34.1595 33.6933 33.8892C33.3485 33.65 32.9397 33.5193 32.5195 33.5139C32.2943 33.5171 32.0768 33.5952 31.9014 33.7358C31.7777 33.8501 31.6855 33.9941 31.6334 34.154C31.5814 34.3138 31.5714 34.4843 31.6042 34.6491C31.6104 34.5355 31.6399 34.4243 31.691 34.3225C31.7422 34.2207 31.8137 34.1304 31.9014 34.0573C32.0775 33.9181 32.2946 33.8401 32.5195 33.8354C32.9394 33.8424 33.3478 33.973 33.6933 34.2107C34.206 34.4802 34.6132 34.913 34.8498 35.4401C34.9241 35.6575 34.9763 35.9178 35.2029 36.0319C35.3085 36.0688 35.4163 36.0992 35.5257 36.1232C35.689 36.2017 35.8297 36.3202 35.9344 36.4677C36.0392 36.6152 36.1046 36.7867 36.1245 36.9663L36.5656 38.645C36.5975 38.7936 36.6572 38.9349 36.7417 39.0614C36.7894 39.1294 36.8522 39.1855 36.9252 39.2254C36.9982 39.2653 37.0794 39.288 37.1626 39.2916C37.2694 39.2846 37.3742 39.2595 37.4726 39.2176L38.0476 39.0103C38.3569 38.9385 38.6316 38.7623 38.8253 38.5116C38.8995 38.3468 38.9252 38.1644 38.8996 37.9855C38.9012 37.9771 38.9012 37.9684 38.8996 37.96L38.8959 37.9554Z" fill="black"/>
      <path d="M41.3161 33.5614C41.3239 33.7343 41.2791 33.9055 41.1877 34.0527C41.1302 34.1303 41.0486 34.1868 40.9556 34.2136C40.8626 34.2403 40.7633 34.2358 40.6732 34.2007C40.6477 34.3166 40.6477 34.4365 40.6732 34.5523V34.5277C40.7633 34.5628 40.8626 34.5673 40.9556 34.5406C41.0486 34.5138 41.1302 34.4573 41.1877 34.3797C41.2789 34.2324 41.3237 34.0612 41.3161 33.8883C41.3317 33.6025 41.3445 33.3093 41.3372 33.0198C41.3353 33.196 41.3252 33.3897 41.3161 33.5614Z" fill="black"/>
      <path d="M28.3715 37.5125C28.2064 38.3051 27.9485 39.0757 27.603 39.8086C27.5403 39.9706 27.4398 40.1154 27.3099 40.2312C27.18 40.3469 27.0242 40.4303 26.8556 40.4744C26.7437 40.479 26.6328 40.4974 26.5255 40.5292C26.4537 40.569 26.3912 40.6235 26.3421 40.689C26.1394 40.9174 25.8138 41.1575 25.5066 41.0406C25.434 41.0123 25.3699 40.9659 25.3203 40.906C25.2707 40.8461 25.2373 40.7745 25.2232 40.6981C25.2232 40.7401 25.2095 40.7813 25.2058 40.8205C25.1906 40.9313 25.2117 41.044 25.2661 41.1418C25.3205 41.2395 25.4052 41.3172 25.5075 41.3631C25.8175 41.4772 26.1403 41.2352 26.343 41.0114C26.3927 40.9468 26.4551 40.8931 26.5264 40.8534C26.6331 40.82 26.7439 40.8016 26.8556 40.7986C27.0242 40.7545 27.18 40.6712 27.3099 40.5554C27.4398 40.4397 27.5403 40.2948 27.603 40.1328C27.9333 39.4377 28.1814 38.7067 28.3422 37.9545C28.3423 37.8067 28.3521 37.659 28.3715 37.5125Z" fill="black"/>
      <path d="M30.2919 35.8164C30.1488 36.8844 29.9278 37.9405 29.6307 38.9765C29.5945 39.157 29.5099 39.3242 29.3858 39.4606C29.3136 39.5324 29.2216 39.581 29.1214 39.6004C29.0213 39.6198 28.9176 39.6089 28.8237 39.5693C28.7164 39.5001 28.6374 39.3953 28.6008 39.2734C28.455 38.9086 28.3716 38.5221 28.3541 38.1299C28.3319 38.6294 28.4179 39.1278 28.6063 39.5912C28.6432 39.7129 28.7222 39.8178 28.8292 39.8871C28.9233 39.9258 29.0267 39.9361 29.1266 39.9168C29.2266 39.8975 29.3186 39.8494 29.3913 39.7784C29.5151 39.6419 29.5996 39.4747 29.6362 39.2944C29.9198 38.3091 30.1343 37.3053 30.2782 36.2904L30.2919 35.8164Z" fill="black"/>
      <path d="M31.6556 36.2722C31.528 36.5477 31.4246 36.8337 31.3465 37.127C31.3351 37.2232 31.3351 37.3204 31.3465 37.4166C31.4286 37.136 31.5297 36.8614 31.6492 36.5946C31.7052 36.3907 31.7239 36.1785 31.7042 35.968C31.6984 36.0708 31.6821 36.1727 31.6556 36.2722Z" fill="black"/>
      <path d="M30.9265 38.4048C30.9017 38.2605 30.6908 38.213 30.5459 38.1308C30.4456 38.0661 30.3635 37.9771 30.3072 37.8721C30.2509 37.7672 30.2223 37.6497 30.224 37.5307V37.5709C30.2084 37.8942 30.224 38.2732 30.5487 38.4486C30.6936 38.5281 30.9018 38.5737 30.9293 38.7226C31.0567 38.6966 31.1715 38.6281 31.2549 38.5286C31.3382 38.429 31.3851 38.3042 31.3878 38.1746C31.3918 38.0914 31.3887 38.008 31.3786 37.9253C31.3655 38.0432 31.3147 38.1539 31.2336 38.2409C31.1525 38.3279 31.0455 38.3866 30.9283 38.4084L30.9265 38.4048Z" fill="black"/>
    </g>
    <path d="M85.873 136.906H65.3379C65.0953 136.907 64.8553 136.856 64.6337 136.757C64.4122 136.659 64.2142 136.515 64.0528 136.334C63.8914 136.154 63.7703 135.941 63.6975 135.711C63.6247 135.48 63.6018 135.237 63.6303 134.997L68.6293 92.6869L68.7329 91.7936C68.7821 91.3772 68.9833 90.9934 69.2981 90.7151C69.6129 90.4367 70.0195 90.2833 70.4405 90.2839H81.2216C81.6454 90.2838 82.0543 90.4398 82.3696 90.7219C82.6848 91.004 82.8842 91.3922 82.9292 91.8119L83.0209 92.6604L87.5861 135.015C87.6117 135.254 87.5866 135.495 87.5125 135.723C87.4383 135.952 87.3168 136.162 87.1557 136.341C86.9947 136.519 86.7978 136.662 86.5777 136.759C86.3577 136.857 86.1195 136.908 85.8785 136.908L85.873 136.906Z" fill="#4E5A86"/>
    <path opacity="0.1" d="M70.048 95.3401C70.048 95.3401 70.8027 114.534 67.8892 121.85C67.8892 121.85 68.1918 123.409 69.0117 121.85C69.8316 120.291 72.6397 104.051 71.2897 95.6105C71.2897 95.6078 71.0128 94.6944 70.048 95.3401Z" fill="black"/>
    <path opacity="0.1" d="M73.6649 95.3401C73.6649 95.3401 74.4188 114.534 71.5061 121.85C71.5061 121.85 71.8088 123.409 72.6286 121.85C73.4485 120.291 76.2566 104.051 74.9067 95.6105C74.9067 95.6078 74.637 94.6944 73.6649 95.3401Z" fill="black"/>
    <path opacity="0.1" d="M82.4716 95.3401C82.4716 95.3401 81.7151 114.534 84.6304 121.85C84.6304 121.85 84.3251 123.409 83.5052 121.85C82.6853 120.291 79.8736 104.05 81.2226 95.6086C81.2226 95.6086 81.495 94.6944 82.4716 95.3401Z" fill="black"/>
    <path opacity="0.1" d="M78.8473 95.3401C78.8473 95.3401 78.0907 114.534 81.0061 121.85C81.0061 121.85 80.7007 123.409 79.8809 121.85C79.061 120.291 76.2547 104.05 77.6038 95.6086C77.6056 95.6077 77.8743 94.6944 78.8473 95.3401Z" fill="black"/>
    <path d="M80.6365 0H70.877V84.8012H80.6365V0Z" fill="#4E5A86"/>
    <path opacity="0.1" d="M83.0173 92.6604C82.9075 92.6895 82.7943 92.7043 82.6807 92.7043H68.8329C68.765 92.7046 68.6972 92.6994 68.6302 92.6887L68.7338 91.7955C68.7831 91.3791 68.9842 90.9953 69.2991 90.7169C69.6139 90.4386 70.0204 90.2851 70.4414 90.2858H81.2226C81.6464 90.2856 82.0552 90.4416 82.3705 90.7237C82.6857 91.0058 82.8851 91.3941 82.9301 91.8138L83.0173 92.6604Z" fill="black"/>
    <path opacity="0.1" d="M80.7365 83.1078H70.877V84.8021H80.7365V83.1078Z" fill="black"/>
    <path d="M79.4819 83.4302H72.0307C69.5484 83.4302 67.5361 85.4341 67.5361 87.906C67.5361 90.3779 69.5484 92.3818 72.0307 92.3818H79.4819C81.9642 92.3818 83.9765 90.3779 83.9765 87.906C83.9765 85.4341 81.9642 83.4302 79.4819 83.4302Z" fill="#4E5A86"/>
    <path opacity="0.1" d="M72.9359 0H71.5327V80.7697H72.9359V0Z" fill="black"/>
    <path opacity="0.1" d="M75.2836 0H73.8804V80.7697H75.2836V0Z" fill="black"/>
    <path opacity="0.1" d="M77.6322 0H76.2291V80.7697H77.6322V0Z" fill="black"/>
    <path opacity="0.1" d="M79.9817 0H78.5786V80.7697H79.9817V0Z" fill="black"/>
    <path d="M81.2455 40.4899C81.2455 40.4899 78.0357 39.4944 78.5199 43.0162C79.0042 46.538 80.2477 46.7545 80.2477 46.7545C80.5979 46.6437 80.9041 46.4255 81.1223 46.1311C81.3406 45.8366 81.4597 45.481 81.4628 45.115C81.4963 43.5702 81.4237 42.0249 81.2455 40.4899Z" fill="#FFA2A2"/>
    <g opacity="0.1">
      <path d="M79.8359 103.614C79.8359 103.614 90.6914 76.0505 111.445 65.6248C120.18 61.3086 127.272 54.2854 131.655 45.6109C133.705 41.4785 135.37 37.1679 136.63 32.733" stroke="#535461" stroke-width="2" stroke-miterlimit="10"/>
      <path d="M149.669 26.0802C147.526 28.8312 136.31 32.9394 136.31 32.9394C136.31 32.9394 137.526 21.0989 139.67 18.3498C140.699 17.0296 142.213 16.1708 143.878 15.9622C145.543 15.7535 147.223 16.2122 148.549 17.2373C149.874 18.2625 150.737 19.77 150.946 21.4284C151.156 23.0868 150.695 24.7601 149.666 26.0802H149.669Z" fill="#E53935"/>
      <path d="M146.06 47.7053C142.758 48.8533 131.102 46.2311 131.102 46.2311C131.102 46.2311 138.586 36.9526 141.885 35.8045C143.47 35.2532 145.21 35.3514 146.722 36.0776C148.234 36.8038 149.394 38.0984 149.948 39.6766C150.501 41.2549 150.403 42.9875 149.673 44.4933C148.944 45.9992 147.644 47.1549 146.06 47.7062V47.7053Z" fill="#E53935"/>
      <path d="M125.408 73.454C121.976 72.7881 113.245 64.6622 113.245 64.6622C113.245 64.6622 124.409 60.4134 127.839 61.0828C129.487 61.4037 130.939 62.3631 131.876 63.7501C132.813 65.1371 133.158 66.8379 132.836 68.4786C132.514 70.1192 131.55 71.5652 130.158 72.4984C128.765 73.4317 127.057 73.7757 125.41 73.4549L125.408 73.454Z" fill="#E53935"/>
      <path d="M105.376 89.4336C101.881 89.3533 91.8945 82.8147 91.8945 82.8147C91.8945 82.8147 102.175 76.7511 105.671 76.8296C107.349 76.8689 108.943 77.5704 110.102 78.78C111.261 79.9896 111.889 81.6082 111.85 83.2796C111.811 84.951 111.106 86.5383 109.892 87.6924C108.677 88.8465 107.052 89.4729 105.374 89.4336H105.376Z" fill="#E53935"/>
      <path d="M120.195 38.6605C120.681 42.1074 128.362 51.2252 128.362 51.2252C128.362 51.2252 133.223 40.3511 132.733 36.9023C132.617 36.0825 132.34 35.2935 131.918 34.5803C131.496 33.867 130.937 33.2436 130.273 32.7455C129.609 32.2474 128.853 31.8844 128.048 31.6773C127.243 31.4702 126.406 31.423 125.582 31.5383C124.759 31.6537 123.967 31.9294 123.251 32.3498C122.535 32.7701 121.909 33.3268 121.408 33.988C120.908 34.6493 120.544 35.4022 120.336 36.2038C120.128 37.0053 120.08 37.8398 120.196 38.6596L120.195 38.6605Z" fill="#E53935"/>
      <path d="M97.0017 57.6286C98.5021 60.7768 108.557 67.1857 108.557 67.1857C108.557 67.1857 109.924 55.3617 108.422 52.218C107.702 50.7079 106.408 49.5447 104.827 48.9843C103.245 48.4239 101.505 48.5121 99.9887 49.2296C98.4724 49.9471 97.3044 51.235 96.7417 52.8102C96.1789 54.3853 96.2675 56.1185 96.988 57.6286H97.0017Z" fill="#E53935"/>
      <path d="M77.0068 79.1595C77.9523 82.5105 86.7864 90.5269 86.7864 90.5269C86.7864 90.5269 90.1356 79.1029 89.1947 75.7519C88.7408 74.1421 87.6635 72.7779 86.1996 71.9592C84.7358 71.1406 83.0053 70.9346 81.389 71.3866C79.7726 71.8386 78.4028 72.9116 77.5808 74.3695C76.7588 75.8273 76.552 77.5507 77.0058 79.1604L77.0068 79.1595Z" fill="#E53935"/>
    </g>
    <g opacity="0.1">
      <path d="M78.0394 53.9716C78.0394 53.9716 81.9617 44.0162 89.4588 40.2478C92.614 38.688 95.176 36.1511 96.7605 33.0179C97.5014 31.525 98.1034 29.9676 98.5589 28.3654" stroke="#535461" stroke-width="2" stroke-miterlimit="10"/>
      <path d="M103.273 25.9651C102.497 26.9589 98.4461 28.4421 98.4461 28.4421C98.4461 28.4421 98.8854 24.165 99.6603 23.1749C99.834 22.9119 100.06 22.6875 100.325 22.5158C100.59 22.3441 100.888 22.2288 101.2 22.1772C101.512 22.1256 101.831 22.1388 102.137 22.2159C102.444 22.2931 102.731 22.4325 102.981 22.6254C103.231 22.8183 103.438 23.0606 103.589 23.3371C103.74 23.6135 103.832 23.9181 103.86 24.2318C103.887 24.5454 103.849 24.8613 103.748 25.1596C103.647 25.4579 103.485 25.7321 103.273 25.9651Z" fill="#E53935"/>
      <path d="M101.965 33.776C100.773 34.1897 96.5615 33.249 96.5615 33.249C96.5615 33.249 99.2642 29.8952 100.456 29.4778C100.746 29.3524 101.058 29.2878 101.373 29.288C101.689 29.2882 102.001 29.3533 102.29 29.4791C102.579 29.6049 102.838 29.7887 103.053 30.0191C103.267 30.2495 103.432 30.5215 103.536 30.8181C103.64 31.1146 103.681 31.4294 103.658 31.7427C103.634 32.0559 103.546 32.361 103.398 32.6387C103.251 32.9164 103.047 33.1608 102.801 33.3567C102.554 33.5525 102.27 33.6956 101.965 33.7769V33.776Z" fill="#E53935"/>
      <path d="M94.5027 43.0773C93.2692 42.8344 90.1099 39.898 90.1099 39.898C90.1099 39.898 94.1451 38.3636 95.3813 38.6066C95.6936 38.6451 95.9947 38.7472 96.2657 38.9066C96.5367 39.066 96.7719 39.2793 96.9565 39.5331C97.1412 39.787 97.2714 40.076 97.339 40.3821C97.4066 40.6883 97.4102 41.005 97.3496 41.3126C97.2889 41.6202 97.1653 41.9121 96.9865 42.17C96.8076 42.428 96.5774 42.6465 96.3101 42.812C96.0428 42.9774 95.7441 43.0863 95.4327 43.1318C95.1212 43.1773 94.8038 43.1585 94.5 43.0764L94.5027 43.0773Z" fill="#E53935"/>
      <path d="M87.267 48.846C86.0051 48.8167 82.3982 46.4549 82.3982 46.4549C82.3982 46.4549 86.1106 44.2629 87.3725 44.2921C87.951 44.3451 88.4878 44.6148 88.8744 45.0468C89.2609 45.4789 89.4683 46.0409 89.4546 46.6194C89.441 47.1979 89.2073 47.7496 88.8009 48.1631C88.3945 48.5766 87.8456 48.821 87.2652 48.8469L87.267 48.846Z" fill="#E53935"/>
      <path d="M92.6181 30.5017C92.7942 31.7465 95.5683 35.0419 95.5683 35.0419C95.5683 35.0419 97.331 31.1145 97.1549 29.866C97.1332 29.5533 97.0472 29.2484 96.902 28.9703C96.7569 28.6922 96.5558 28.4468 96.3113 28.2494C96.0668 28.0521 95.7842 27.9069 95.4809 27.8231C95.1777 27.7393 94.8603 27.7185 94.5487 27.7621C94.237 27.8058 93.9377 27.9128 93.6694 28.0766C93.4011 28.2405 93.1695 28.4575 92.9891 28.7143C92.8087 28.9712 92.6833 29.2622 92.6207 29.5694C92.5581 29.8766 92.5598 30.1933 92.6255 30.4998L92.6181 30.5017Z" fill="#E53935"/>
      <path d="M84.2343 37.3599C84.7772 38.4961 88.4134 40.8132 88.4134 40.8132C88.4134 40.8132 88.9067 36.5425 88.3647 35.4054C88.0756 34.91 87.6101 34.541 87.0605 34.3716C86.511 34.2022 85.9175 34.2448 85.398 34.4908C84.8785 34.7369 84.4708 35.1685 84.2559 35.7C84.041 36.2314 84.0346 36.8239 84.2379 37.3599H84.2343Z" fill="#E53935"/>
      <path d="M77.0178 45.1369C77.3598 46.3471 80.543 49.2469 80.543 49.2469C80.543 49.2469 81.7664 45.1196 81.4142 43.9085C81.3482 43.6041 81.2203 43.3163 81.0385 43.063C80.8566 42.8096 80.6246 42.596 80.3568 42.4352C80.089 42.2744 79.791 42.1699 79.4812 42.1281C79.1713 42.0863 78.8561 42.108 78.555 42.192C78.2538 42.276 77.9731 42.4205 77.7302 42.6165C77.4872 42.8125 77.287 43.056 77.142 43.3319C76.997 43.6078 76.9102 43.9104 76.8869 44.221C76.8637 44.5315 76.9044 44.8435 77.0068 45.1378L77.0178 45.1369Z" fill="#E53935"/>
    </g>
    <g opacity="0.1">
      <path d="M111.072 136.577C111.072 136.577 111.238 125.882 116.933 119.737C119.34 117.177 120.847 113.908 121.228 110.421C121.396 108.764 121.41 107.095 121.272 105.435" stroke="#535461" stroke-width="2" stroke-miterlimit="10"/>
      <path d="M124.839 101.541C124.463 102.736 121.191 105.545 121.191 105.545C121.191 105.545 120.098 101.384 120.474 100.183C120.688 99.6486 121.097 99.2146 121.618 98.9674C122.139 98.7202 122.735 98.6779 123.286 98.8491C123.837 99.0203 124.303 99.3923 124.591 99.8907C124.879 100.389 124.967 100.977 124.839 101.538V101.541Z" fill="#E53935"/>
      <path d="M126.366 109.311C125.394 110.116 121.118 110.7 121.118 110.7C121.118 110.7 122.469 106.616 123.44 105.811C123.911 105.473 124.493 105.327 125.068 105.4C125.643 105.472 126.169 105.76 126.54 106.204C126.911 106.648 127.1 107.215 127.067 107.792C127.035 108.368 126.785 108.911 126.366 109.311H126.366Z" fill="#E53935"/>
      <path d="M122.662 120.628C121.416 120.835 117.429 119.188 117.429 119.188C117.429 119.188 120.665 116.342 121.909 116.135C122.486 116.081 123.063 116.247 123.522 116.599C123.981 116.951 124.289 117.463 124.385 118.032C124.48 118.602 124.355 119.186 124.036 119.667C123.716 120.149 123.226 120.492 122.662 120.628Z" fill="#E53935"/>
      <path d="M117.904 128.563C116.712 128.975 112.5 128.024 112.5 128.024C112.5 128.024 115.215 124.683 116.406 124.262C116.696 124.135 117.009 124.069 117.326 124.069C117.642 124.068 117.956 124.133 118.246 124.259C118.536 124.385 118.797 124.57 119.012 124.801C119.227 125.033 119.391 125.306 119.495 125.604C119.599 125.902 119.639 126.218 119.614 126.533C119.589 126.847 119.499 127.153 119.349 127.431C119.2 127.709 118.994 127.953 118.745 128.148C118.496 128.342 118.21 128.484 117.904 128.563Z" fill="#E53935"/>
      <path d="M116.463 109.512C117.065 110.621 120.825 112.734 120.825 112.734C120.825 112.734 121.083 108.441 120.471 107.336C120.158 106.851 119.673 106.501 119.112 106.358C118.551 106.215 117.956 106.288 117.447 106.564C116.939 106.839 116.553 107.296 116.369 107.843C116.185 108.39 116.215 108.986 116.454 109.511L116.463 109.512Z" fill="#E53935"/>
      <path d="M111.027 118.858C111.935 119.736 116.158 120.633 116.158 120.633C116.158 120.633 115.118 116.462 114.208 115.586C113.762 115.224 113.197 115.043 112.623 115.077C112.049 115.111 111.509 115.359 111.11 115.771C110.711 116.182 110.482 116.729 110.468 117.301C110.454 117.873 110.656 118.43 111.035 118.86L111.027 118.858Z" fill="#E53935"/>
      <path d="M107.01 128.665C107.753 129.68 111.769 131.277 111.769 131.277C111.769 131.277 111.45 126.984 110.711 125.973C110.336 125.534 109.807 125.252 109.232 125.185C108.657 125.117 108.077 125.269 107.61 125.61C107.142 125.951 106.822 126.456 106.713 127.023C106.604 127.589 106.714 128.176 107.022 128.665H107.01Z" fill="#E53935"/>
    </g>
    <g opacity="0.1">
      <path d="M84.6396 134.898C84.6396 134.898 84.8055 124.201 90.5006 118.057C92.9073 115.496 94.4144 112.227 94.7953 108.741C94.9627 107.084 94.9774 105.416 94.8393 103.756" stroke="#535461" stroke-width="2" stroke-miterlimit="10"/>
      <path d="M98.4049 99.8584C98.0289 101.059 94.7577 103.865 94.7577 103.865C94.7577 103.865 93.6645 99.7058 94.0405 98.5057C94.1111 98.1991 94.2445 97.9103 94.4324 97.6575C94.6203 97.4047 94.8586 97.1932 95.1325 97.0364C95.4063 96.8796 95.7096 96.7809 96.0236 96.7463C96.3375 96.7118 96.6552 96.7423 96.9568 96.8358C97.2584 96.9293 97.5373 97.0838 97.776 97.2898C98.0148 97.4957 98.2083 97.7485 98.3443 98.0323C98.4804 98.3162 98.5561 98.625 98.5667 98.9394C98.5772 99.2538 98.5225 99.567 98.4058 99.8593L98.4049 99.8584Z" fill="#E53935"/>
      <path d="M99.9354 107.628C98.9643 108.435 94.687 109.017 94.687 109.017C94.687 109.017 96.0379 104.934 97.0091 104.129C97.4799 103.795 98.0602 103.65 98.6337 103.724C99.2072 103.798 99.7315 104.085 100.102 104.527C100.472 104.97 100.66 105.535 100.629 106.11C100.599 106.685 100.351 107.227 99.9354 107.628Z" fill="#E53935"/>
      <path d="M96.2204 118.948C94.9741 119.153 90.9866 117.507 90.9866 117.507C90.9866 117.507 94.223 114.661 95.4675 114.455C95.7736 114.381 96.0917 114.371 96.402 114.425C96.7123 114.48 97.008 114.597 97.2708 114.77C97.5335 114.943 97.7577 115.168 97.9293 115.431C98.1009 115.694 98.2162 115.989 98.268 116.299C98.3199 116.608 98.3072 116.925 98.2307 117.229C98.1542 117.533 98.0155 117.819 97.8234 118.067C97.6313 118.316 97.3898 118.522 97.114 118.674C96.8382 118.825 96.534 118.919 96.2204 118.948Z" fill="#E53935"/>
      <path d="M91.4772 126.879C90.2851 127.293 86.0739 126.341 86.0739 126.341C86.0739 126.341 88.782 122.993 89.9733 122.577C90.2626 122.452 90.5747 122.388 90.89 122.388C91.2053 122.389 91.5171 122.455 91.8058 122.581C92.0946 122.707 92.3541 122.891 92.5682 123.122C92.7822 123.352 92.9462 123.624 93.0499 123.921C93.1536 124.217 93.1948 124.532 93.1708 124.845C93.1469 125.158 93.0584 125.463 92.9108 125.741C92.7632 126.018 92.5597 126.262 92.313 126.458C92.0664 126.654 91.7819 126.796 91.4772 126.878V126.879Z" fill="#E53935"/>
      <path d="M90.0292 107.829C90.6327 108.938 94.3908 111.051 94.3908 111.051C94.3908 111.051 94.6503 106.759 94.0377 105.653C93.9116 105.362 93.7258 105.1 93.4921 104.884C93.2584 104.667 92.982 104.502 92.6806 104.399C92.3793 104.295 92.0594 104.255 91.7417 104.281C91.4239 104.308 91.1152 104.4 90.8352 104.552C90.5552 104.704 90.3101 104.912 90.1155 105.164C89.921 105.415 89.7813 105.705 89.7054 106.013C89.6294 106.321 89.6189 106.642 89.6745 106.955C89.7301 107.268 89.8506 107.565 90.0283 107.829H90.0292Z" fill="#E53935"/>
      <path d="M84.5983 117.175C85.5062 118.053 89.7284 118.95 89.7284 118.95C89.7284 118.95 88.6884 114.777 87.7787 113.903C87.5701 113.664 87.3139 113.471 87.0264 113.335C86.7388 113.2 86.4262 113.126 86.1084 113.118C85.7905 113.11 85.4744 113.167 85.1801 113.287C84.8859 113.407 84.6198 113.587 84.399 113.814C84.1781 114.042 84.0072 114.313 83.8972 114.61C83.7871 114.907 83.7404 115.224 83.7598 115.54C83.7792 115.856 83.8645 116.165 84.0101 116.446C84.1557 116.728 84.3585 116.976 84.6056 117.175H84.5983Z" fill="#E53935"/>
      <path d="M80.5723 126.983C81.3151 127.997 85.3319 129.595 85.3319 129.595C85.3319 129.595 85.0128 125.302 84.2746 124.291C84.1073 124.025 83.8867 123.796 83.6267 123.619C83.3667 123.442 83.0729 123.32 82.7635 123.261C82.454 123.202 82.1357 123.207 81.8284 123.276C81.521 123.345 81.2312 123.476 80.9771 123.662C80.7229 123.847 80.5099 124.083 80.3512 124.354C80.1925 124.625 80.0917 124.925 80.0549 125.237C80.0181 125.549 80.0463 125.865 80.1375 126.165C80.2287 126.465 80.3811 126.744 80.5852 126.983H80.5723Z" fill="#E53935"/>
    </g>
    <path d="M72.5984 10.1919C72.9515 11.2733 71.9959 15.0371 71.9959 15.0371C71.9959 15.0371 69.02 12.5318 68.6706 11.445C68.5754 11.185 68.5338 10.9086 68.5485 10.6323C68.5631 10.3559 68.6337 10.0854 68.7558 9.83687C68.8779 9.58833 69.0492 9.36691 69.2593 9.18586C69.4694 9.00481 69.714 8.86787 69.9785 8.78323C70.2431 8.6986 70.522 8.668 70.7987 8.6933C71.0754 8.7186 71.3441 8.79926 71.5887 8.93045C71.8333 9.06164 72.0488 9.24066 72.2223 9.45678C72.3958 9.67291 72.5237 9.92168 72.5984 10.1882V10.1919Z" fill="#E53935"/>
    <path d="M57.9683 34.2674C58.3214 35.3488 57.3658 39.1126 57.3658 39.1126C57.3658 39.1126 54.3871 36.6073 54.0377 35.5259C53.9442 35.2662 53.9042 34.9904 53.9199 34.7149C53.9357 34.4395 54.0069 34.17 54.1294 33.9225C54.2519 33.675 54.4231 33.4546 54.6329 33.2744C54.8427 33.0941 55.0867 32.9578 55.3505 32.8735C55.6143 32.7891 55.8924 32.7585 56.1684 32.7834C56.4443 32.8084 56.7123 32.8883 56.9566 33.0185C57.2008 33.1487 57.4163 33.3266 57.5901 33.5415C57.7639 33.7563 57.8925 34.0038 57.9683 34.2692V34.2674Z" fill="#E53935"/>
    <path d="M88.792 23.6553C89.1451 24.7367 88.1877 28.5006 88.1877 28.5006C88.1877 28.5006 85.2109 25.9971 84.8615 24.9157C84.6942 24.3965 84.7408 23.8324 84.9911 23.3474C85.2414 22.8624 85.6749 22.4963 86.1963 22.3296C86.7176 22.163 87.2841 22.2094 87.7711 22.4587C88.2581 22.708 88.6257 23.1398 88.793 23.659L88.792 23.6553Z" fill="#E53935"/>
    <path d="M104.739 41.8489C105.092 42.9285 104.137 46.6896 104.137 46.6896C104.137 46.6896 101.158 44.1861 100.805 43.1048C100.717 42.8465 100.682 42.5734 100.701 42.3014C100.72 42.0294 100.794 41.764 100.917 41.5205C101.04 41.2771 101.211 41.0605 101.419 40.8833C101.627 40.7062 101.869 40.572 102.129 40.4887C102.39 40.4053 102.665 40.3744 102.938 40.3978C103.21 40.4212 103.476 40.4984 103.718 40.6249C103.961 40.7514 104.176 40.9247 104.35 41.1347C104.525 41.3447 104.656 41.5872 104.735 41.848L104.739 41.8489Z" fill="#E53935"/>
    <path d="M93.9781 11.9711C93.3985 12.9483 89.943 14.7385 89.943 14.7385C89.943 14.7385 89.8458 10.8586 90.4263 9.88136C90.7113 9.42517 91.1643 9.09815 91.6882 8.97026C92.2122 8.84237 92.7657 8.92375 93.2302 9.197C93.6947 9.47025 94.0334 9.91367 94.1739 10.4324C94.3143 10.9512 94.2454 11.5041 93.9818 11.9729L93.9781 11.9711Z" fill="#E53935"/>
    <path d="M132.984 9.04198C132.404 10.0192 128.949 11.8094 128.949 11.8094C128.949 11.8094 128.857 7.92771 129.434 6.95227C129.726 6.51152 130.176 6.19938 130.693 6.08052C131.209 5.96165 131.752 6.04516 132.208 6.31376C132.664 6.58235 132.999 7.01544 133.144 7.52333C133.288 8.03121 133.231 8.57497 132.984 9.04198Z" fill="#E53935"/>
    <path d="M54.444 16.5743C53.3435 16.8601 49.6174 15.6966 49.6174 15.6966C49.6174 15.6966 52.2989 12.8789 53.404 12.5912C53.6665 12.5233 53.94 12.5075 54.2086 12.5448C54.4773 12.5821 54.736 12.6717 54.9698 12.8085C55.2037 12.9454 55.4083 13.1267 55.5718 13.3423C55.7353 13.5579 55.8545 13.8034 55.9228 14.0649C55.991 14.3263 56.0068 14.5986 55.9694 14.8662C55.932 15.1338 55.842 15.3914 55.7046 15.6243C55.5671 15.8573 55.385 16.0609 55.1686 16.2238C54.9521 16.3866 54.7056 16.5054 54.443 16.5733L54.444 16.5743Z" fill="#E53935"/>
    <path d="M90.1787 61.0052C89.5991 61.9825 86.1436 63.7726 86.1436 63.7726C86.1436 63.7726 86.0464 59.8928 86.6259 58.9155C86.7604 58.6763 86.9415 58.4664 87.1586 58.2979C87.3757 58.1294 87.6244 58.0059 87.8902 57.9345C88.1559 57.8632 88.4333 57.8454 88.706 57.8823C88.9787 57.9192 89.2413 58.0101 89.4783 58.1495C89.7152 58.2888 89.9218 58.474 90.0859 58.6941C90.25 58.9141 90.3683 59.1646 90.4338 59.4308C90.4993 59.697 90.5107 59.9736 90.4674 60.2443C90.424 60.515 90.3269 60.7743 90.1815 61.007L90.1787 61.0052Z" fill="#E53935"/>
    <path d="M69.0777 119.886C97.5519 119.886 120.635 96.8972 120.635 68.5393C120.635 40.1813 97.5519 17.1926 69.0777 17.1926C40.6036 17.1926 17.5207 40.1813 17.5207 68.5393C17.5207 96.8972 40.6036 119.886 69.0777 119.886Z" fill="#134F19" fill-opacity="0.05"/>
    <path d="M68.7421 137C106.707 137 137.484 106.349 137.484 68.5384C137.484 30.728 106.707 0.0767212 68.7421 0.0767212C30.7769 0.0767212 0 30.728 0 68.5384C0 106.349 30.7769 137 68.7421 137Z" fill="#134F19" fill-opacity="0.05"/>
  </g>
  <defs>
    <linearGradient id="paint0_linear_1_910" x1="38.9589" y1="135.648" x2="38.9589" y2="25.2799" gradientUnits="userSpaceOnUse">
      <stop stop-color="#808080" stop-opacity="0.251"/>
      <stop offset="0.54" stop-color="#808080" stop-opacity="0.122"/>
      <stop offset="1" stop-color="#808080" stop-opacity="0.102"/>
    </linearGradient>
    <clipPath id="clip0_1_910">
      <rect width="151" height="137" fill="white"/>
    </clipPath>
  </defs>
</svg>