<svg xmlns="http://www.w3.org/2000/svg" width="203" height="203" viewBox="0 0 203 203" fill="none">
  <path d="M100.627 7.23265C100.627 7.23265 101.343 8.05276 100.117 9.63859C98.892 11.2244 99.881 14.6657 102.209 14.7542C104.537 14.8427 105.667 15.8171 105.105 17.1016C104.544 18.3862 103.87 21.4393 106.405 20.974C108.94 20.5088 109.741 21.5197 109.289 22.2952C108.837 23.0706 110.419 20.7524 110.419 20.7524C110.419 20.7524 111.832 22.8636 113.566 21.3833C115.301 19.903 115.99 6.55139 112.457 6.32484C108.924 6.09829 100.627 7.23265 100.627 7.23265Z" fill="#2F2E41"/>
  <path d="M118.551 70.7614L119.356 76.4007H122.982L121.773 69.9551L118.551 70.7614Z" fill="#9F616A"/>
  <path d="M123.385 72.9775C123.385 72.9775 128.219 77.4094 127.011 77.8113C125.804 78.2133 121.372 83.0479 120.566 83.4507C119.845 83.8112 112.106 86.2707 113.315 83.4507C114.203 81.6166 115.602 80.0778 117.344 79.0188L118.149 74.185L123.385 72.9775Z" fill="#F2F2F2"/>
  <path opacity="0.1" d="M123.385 72.9775C123.385 72.9775 128.219 77.4094 127.011 77.8113C125.804 78.2133 121.372 83.0479 120.566 83.4507C119.845 83.8112 112.106 86.2707 113.315 83.4507C114.203 81.6166 115.602 80.0778 117.344 79.0188L118.149 74.185L123.385 72.9775Z" fill="black"/>
  <path d="M123.386 66.5316L124.191 72.1709H127.816L126.608 65.7253L123.386 66.5316Z" fill="#9F616A"/>
  <path d="M108.236 51.5594L113.513 34.1015C113.513 34.1015 104.651 26.0449 110.693 23.6267C116.736 21.2086 118.347 33.2952 118.347 33.2952L116.333 54.2446H108.279L108.236 51.5594Z" fill="#FFB8B8"/>
  <path d="M120.562 38.7355C120.562 38.7355 110.15 52.0903 111.73 54.0749C113.309 56.0594 116.13 68.1451 116.13 68.1451C116.13 68.1451 115.724 72.9789 117.339 72.9789C118.954 72.9789 122.978 72.1734 122.978 70.9643C122.978 69.7553 119.352 54.4476 119.352 54.4476L129.827 40.75L120.562 38.7355Z" fill="#E53935"/>
  <path d="M121.372 39.5432L131.847 33.9039C131.847 33.9039 139.098 37.5303 137.083 40.7523C135.069 43.9743 125.803 52.4353 125.803 52.4353C125.803 52.4353 128.623 66.1328 128.22 66.5356C127.818 66.9383 123.387 68.5502 122.177 68.1474C120.967 67.7447 114.523 52.0334 116.133 51.2279C117.743 50.4224 122.982 41.9622 122.982 41.9622L121.372 39.5432Z" fill="#E53935"/>
  <path d="M92.768 187.389C92.768 187.389 100.019 191.821 100.825 191.821C101.63 191.821 112.508 194.64 107.673 196.655C102.838 198.67 84.307 195.849 84.7106 194.64C85.1141 193.431 84.7105 186.181 85.516 186.181C86.3215 186.181 92.768 187.389 92.768 187.389Z" fill="#2F2E41"/>
  <path d="M100.825 193.029C100.825 193.029 108.076 197.46 108.882 197.46C109.687 197.46 120.565 200.281 115.73 202.295C110.896 204.31 92.3643 201.49 92.7687 200.28C93.1731 199.071 92.7687 191.82 93.5742 191.82C94.3797 191.82 100.825 193.029 100.825 193.029Z" fill="#2F2E41"/>
  <path d="M93.1712 107.619C93.9092 111.206 94.9882 114.713 96.3933 118.094C98.4078 122.526 95.9872 143.474 94.7814 146.697C93.5756 149.919 81.891 188.19 85.5157 188.596C89.1394 188.811 92.7728 188.811 96.3965 188.596L108.079 151.936L106.065 102.787L93.1712 107.619Z" fill="#575A88"/>
  <path opacity="0.1" d="M93.1712 107.619C93.9092 111.206 94.9882 114.713 96.3933 118.094C98.4078 122.526 95.9872 143.474 94.7814 146.697C93.5756 149.919 81.891 188.19 85.5157 188.596C89.1394 188.811 92.7728 188.811 96.3965 188.596L108.079 151.936L106.065 102.787L93.1712 107.619Z" fill="black"/>
  <path d="M95.5928 108.026C95.5928 108.026 97.2046 118.907 100.829 121.321C104.454 123.735 103.247 126.155 103.247 126.155L101.636 147.506C101.636 147.506 85.9236 186.18 90.7549 191.015C95.5863 195.851 100.021 193.835 102.035 193.432C104.05 193.03 107.674 184.57 105.662 182.152C103.649 179.735 109.691 165.233 111.301 162.815C112.911 160.398 111.301 157.176 113.315 156.37C115.33 155.563 119.761 150.326 119.761 146.701C119.761 143.077 125.4 104.401 121.776 101.985C118.151 99.5683 94.9091 106.976 94.9091 106.976L95.5928 108.026Z" fill="#575A88"/>
  <path d="M87.9351 51.6278C92.83 51.6278 96.7981 47.6598 96.7981 42.7649C96.7981 37.87 92.83 33.902 87.9351 33.902C83.0403 33.902 79.0722 37.87 79.0722 42.7649C79.0722 47.6598 83.0403 51.6278 87.9351 51.6278Z" fill="#FFB8B8"/>
  <path d="M108.076 17.7852C112.081 17.7852 115.327 14.5388 115.327 10.5341C115.327 6.52939 112.081 3.28296 108.076 3.28296C104.071 3.28296 100.825 6.52939 100.825 10.5341C100.825 14.5388 104.071 17.7852 108.076 17.7852Z" fill="#9F616A"/>
  <path d="M93.977 42.7627C93.977 42.7627 98.8116 51.6256 101.228 51.6256C103.645 51.6256 91.5597 60.8913 91.5597 60.8913C91.5597 60.8913 87.5306 49.2083 86.7259 48.7999C85.9212 48.3914 93.977 42.7627 93.977 42.7627Z" fill="#FFB8B8"/>
  <path d="M95.5887 50.8212C95.5887 50.8212 85.1139 54.4475 85.5199 55.655C85.9259 56.8624 82.6999 59.6841 82.6999 60.8915C82.6999 62.099 81.8936 72.9829 86.729 81.841C91.5644 90.699 99.2175 97.1487 95.5919 101.178C91.9664 105.207 86.3262 112.059 92.3691 112.059C98.412 112.059 108.08 103.196 116.943 106.419C125.805 109.643 123.791 97.5563 123.791 97.5563C123.791 97.5563 124.999 88.2907 122.582 85.4657C120.165 82.6408 111.701 62.5033 111.701 60.0852C111.701 57.6671 103.644 48.4022 101.632 48.4022C99.6211 48.4022 95.5887 50.8212 95.5887 50.8212Z" fill="#8985A8"/>
  <path d="M110.091 14.9676C110.091 14.9676 113.371 21.2054 113.544 22.3162C113.717 23.427 119.357 14.9676 119.357 14.9676L112.912 10.5358L110.091 14.9676Z" fill="#9F616A"/>
  <path d="M111.301 19.8013L118.149 12.5502L126.206 16.1765C126.206 16.1765 133.72 32.6933 134.193 33.9016C134.665 35.1098 122.175 40.7499 120.968 40.7499C119.76 40.7499 111.299 28.2615 111.299 28.2615C111.299 28.2615 109.286 22.2186 111.301 19.8013Z" fill="#F2F2F2"/>
  <path d="M108.077 29.47V36.7211H112.911L111.321 29.47H108.077Z" fill="#9F616A"/>
  <path d="M110.836 34.9075C110.225 34.8993 109.626 35.0775 109.119 35.4184C108.612 35.7594 108.221 36.2468 107.998 36.8157C107.683 37.6675 107.789 38.5631 109.285 38.9366C112.507 39.7421 112.911 38.9366 112.911 38.9366C112.911 38.9366 118.506 38.1311 117.319 36.5193C116.133 34.9075 112.911 34.9075 112.911 34.9075H110.836Z" fill="#9F616A"/>
  <path d="M128.22 69.755C128.22 69.755 133.054 74.1869 131.846 74.5888C130.639 74.9908 126.207 79.8254 125.401 80.2281C124.68 80.5887 116.94 83.0482 118.149 80.2281C119.038 78.3941 120.437 76.8553 122.179 75.7962L122.985 70.9624L128.22 69.755Z" fill="#F2F2F2"/>
  <path d="M84.7769 35.9414C85.3315 35.6166 85.986 35.2106 85.9949 34.5691C85.98 34.3332 85.8968 34.1066 85.7554 33.9172C85.6139 33.7277 85.4204 33.5835 85.1983 33.5022C84.7515 33.348 84.2784 33.2843 83.8066 33.3146C83.6255 33.3052 83.4441 33.323 83.2683 33.3674C82.8095 33.5095 82.5448 33.9756 82.1834 34.2914C81.6105 34.6927 80.9523 34.9559 80.2606 35.0604C79.1301 35.3524 78.0457 35.8003 77.0386 36.3913C76.8396 36.4915 76.6651 36.6346 76.5279 36.8102C76.3695 37.1339 76.2987 37.4933 76.3225 37.8528C76.0687 39.2014 75.5516 40.4866 74.8008 41.6351C74.4307 42.2126 74.2099 42.8731 74.1582 43.5571C74.1064 44.2411 74.2254 44.9272 74.5044 45.5538C74.7893 45.9168 75.0552 46.2944 75.301 46.6849C75.8101 47.7454 75.1743 49.0511 75.5446 50.1684C75.7104 50.6089 75.9761 51.005 76.3208 51.3255C77.0283 52.0378 77.9 52.5653 78.8591 52.8618C79.7743 53.1435 80.9102 53.3311 81.2683 54.2194C81.3479 54.6213 81.4614 55.0157 81.6077 55.3984C81.7712 55.5938 81.973 55.7537 82.2006 55.8682C82.4283 55.9827 82.6769 56.0494 82.9313 56.0643C83.4932 56.1928 84.0716 56.2347 84.6462 56.1885C84.9334 56.1636 85.2126 56.0806 85.4668 55.9445C85.721 55.8084 85.9449 55.6221 86.1249 55.3968C86.287 55.0773 86.4883 54.7791 86.7241 54.5093C87.3071 54.0221 88.1938 54.407 88.9425 54.2779C89.246 54.2205 89.5269 54.0777 89.7521 53.8663C89.9773 53.6548 90.1376 53.3835 90.214 53.0842C90.2347 52.7654 90.3227 52.4547 90.4723 52.1724C90.9368 51.5764 92.1621 51.997 92.469 51.3068C92.6687 50.8634 92.2473 50.3844 91.8478 50.1058C91.1566 49.7022 90.4936 49.2521 89.8633 48.7587C89.5502 48.5077 89.3078 48.1794 89.1602 47.8062C89.0125 47.4331 88.9646 47.0278 89.0212 46.6305C89.2989 45.462 90.8239 44.8189 90.8734 43.6196C90.852 43.2756 90.7484 42.9418 90.5714 42.6461C90.3944 42.3504 90.1491 42.1015 89.856 41.9201C89.2679 41.5664 88.7037 41.1744 88.167 40.7468C87.8057 40.3976 87.5337 39.9583 87.1407 39.6441C86.3657 39.1601 85.4689 38.9066 84.5553 38.9133C84.0681 38.863 82.1347 38.6388 82.2111 37.9007C82.2768 37.2869 84.2849 36.2313 84.7769 35.9414Z" fill="#2F2E41"/>
  <path d="M111.299 19.3977C111.299 19.3977 106.867 21.0095 106.867 23.0224C106.867 25.0354 104.853 31.4826 106.867 31.4826C108.939 31.2264 110.97 30.708 112.911 29.9398L111.299 19.3977Z" fill="#F2F2F2"/>
  <path d="M110.091 48.4039C110.091 48.4039 121.774 44.3748 122.182 44.3748C122.591 44.3748 128.226 41.152 127.822 39.9429L126.21 29.8742C126.21 29.8742 119.759 16.5753 124.191 16.5753C128.623 16.5753 131.04 27.05 131.04 27.05C131.04 27.05 140.708 45.1786 135.472 49.207C130.235 53.2353 108.48 60.4872 107.272 59.2757C106.064 58.0642 110.091 48.4039 110.091 48.4039Z" fill="#FFB8B8"/>
  <path d="M121.371 22.2178L124.09 24.8381L120.565 28.2599C120.565 28.2599 115.731 26.2453 116.133 27.4544C116.535 28.6635 118.952 32.289 120.565 32.289C122.177 32.289 130.563 27.0524 130.599 25.4406C130.636 23.8288 125.403 18.1895 124.19 17.7868C122.978 17.384 121.371 22.2178 121.371 22.2178Z" fill="#9F616A"/>
  <path d="M116.258 19.4108C116.258 19.4108 122.177 24.6368 122.982 24.6368C123.788 24.6368 125.256 16.7865 125.256 16.7865C125.256 16.7865 120.48 13.6749 118.711 14.5234C116.942 15.372 116.258 19.4108 116.258 19.4108Z" fill="#F2F2F2"/>
  <path d="M95.5892 53.2374C95.5892 53.2374 95.5892 47.5981 107.681 47.5981H112.917L110.5 60.8929L102.443 63.3102L95.5892 53.2374Z" fill="#8985A8"/>
  <path d="M121.983 7.59966C120.799 7.593 119.615 7.51899 118.439 7.37799C117.515 5.14582 116.339 3.27335 115.066 2.57503C114.037 1.78645 112.894 1.15916 111.677 0.714753C108.992 -0.42204 104.524 0.285215 104.262 1.58197C98.9845 4.10565 100.315 8.53833 100.315 8.53833C101.136 10.2736 102.978 9.5046 104.538 8.7194C104.682 9.34651 105.019 9.9127 105.502 10.3387C105.984 10.7647 106.588 11.0293 107.228 11.0953C109.807 11.1927 111.058 12.2719 110.436 13.6937C109.814 15.1155 109.067 18.4983 111.878 17.9843C114.689 17.4703 115.575 18.5892 115.077 19.4459C114.58 20.3025 116.33 17.7366 116.33 17.7366C116.33 17.7366 117.894 20.0662 119.816 18.4366C120.011 18.2496 120.149 18.0123 120.217 17.7512C120.82 18.1075 121.532 18.2322 122.22 18.102C124.522 17.0724 123.092 14.6543 123.092 14.6543C123.092 14.6543 126.164 14.1825 125.174 14.2613C124.183 14.34 123.558 13.0563 125.233 10.7437C126.908 8.43114 123.537 7.64838 121.983 7.59966Z" fill="#2F2E41"/>
  <path d="M106.405 5.78245L105.257 5.40039L104.111 8.84182L105.259 9.22388L106.405 5.78245Z" fill="#E53935"/>
  <path d="M35.0822 70.1708C19.4107 70.2431 6.65186 70.4745 6.65186 70.4745C6.65186 70.4745 21.8159 50.3874 35.0262 57.8285C44.1151 62.7622 53.6114 66.9051 63.4103 70.2114C63.4103 70.2114 50.7554 70.0985 35.0822 70.1708Z" fill="#F2F2F2"/>
  <path d="M173.905 75.9283C189.577 76.0005 202.336 76.2319 202.336 76.2319C202.336 76.2319 187.169 56.1408 173.961 63.5876C164.873 68.5212 155.376 72.6641 145.577 75.9705C145.577 75.9705 158.232 75.856 173.905 75.9283Z" fill="#F2F2F2"/>
  <path d="M101.428 202.856C157.445 202.856 202.856 157.445 202.856 101.428C202.856 45.4108 157.445 0 101.428 0C45.4108 0 0 45.4108 0 101.428C0 157.445 45.4108 202.856 101.428 202.856Z" fill="#134F19" fill-opacity="0.05"/>
  <path d="M101.428 182.556C146.234 182.556 182.556 146.234 182.556 101.428C182.556 56.6219 146.234 20.2997 101.428 20.2997C56.6219 20.2997 20.2997 56.6219 20.2997 101.428C20.2997 146.234 56.6219 182.556 101.428 182.556Z" fill="#134F19" fill-opacity="0.05"/>
</svg>