<svg xmlns="http://www.w3.org/2000/svg" width="187" height="187" viewBox="0 0 187 187" fill="none">
  <path d="M93.4095 186.819C144.998 186.819 186.819 144.998 186.819 93.4095C186.819 41.8209 144.998 0 93.4095 0C41.8209 0 0 41.8209 0 93.4095C0 144.998 41.8209 186.819 93.4095 186.819Z" fill="#134F19" fill-opacity="0.05"/>
  <path d="M93.4094 168.119C134.67 168.119 168.119 134.67 168.119 93.4093C168.119 52.1484 134.67 18.6998 93.4094 18.6998C52.1485 18.6998 18.6999 52.1484 18.6999 93.4093C18.6999 134.67 52.1485 168.119 93.4094 168.119Z" fill="#134F19" fill-opacity="0.05"/>
  <path d="M133.045 51.3599C133.045 51.3599 130.748 46.8255 131.058 45.4776C131.368 44.1297 129.442 41.2507 129.442 41.2507L129.566 36.4747C129.566 36.4747 129.299 36.9624 127.913 37.3902C127.796 37.2345 127.671 37.0847 127.539 36.9414C127.036 36.4185 126.478 35.9526 125.873 35.5524L123.431 30.2835L121.068 26.6677C121.068 26.6677 117.345 19.0986 113.499 17.4284L112.894 16.2435C112.914 16.2318 112.929 16.2131 112.936 16.1911C112.942 16.1691 112.941 16.1454 112.931 16.1246L112.313 14.9203C112.302 14.8997 112.284 14.8839 112.262 14.8757C112.24 14.8676 112.216 14.8678 112.194 14.8762L111.607 13.7235C111.383 12.2299 110.796 10.8139 109.899 9.59904C109.838 9.51377 109.771 9.43597 109.709 9.35444L110.666 9.32078C111.085 9.35855 111.508 9.31331 111.91 9.18766C112.311 9.06201 112.684 8.8584 113.007 8.58849C113.209 8.35465 113.358 8.07982 113.444 7.78289C113.517 7.54884 113.565 7.30759 113.586 7.06332V6.3602C113.578 6.27788 113.564 6.19619 113.545 6.1156C113.548 6.08247 113.541 6.04915 113.526 6.01986C113.506 5.92414 113.481 5.82951 113.451 5.73637C113.444 5.71792 113.438 5.69891 113.434 5.67952C113.4 5.57704 113.363 5.48429 113.321 5.38855C113.315 5.37604 113.309 5.36304 113.304 5.34965C113.26 5.25391 113.211 5.1619 113.161 5.07139L113.146 5.04147C113.129 5.00354 113.108 4.96681 113.086 4.93152C112.325 3.94859 111.313 3.18934 110.156 2.73389C109.124 2.19112 108.065 1.70202 106.982 1.26856C102.957 -0.241027 98.5105 -0.178263 94.5294 1.44434C94.1362 1.59326 93.7637 1.79184 93.4209 2.03526C92.9433 2.43981 92.5352 2.91991 92.2129 3.45646L90.3204 6.25248C90.0546 6.593 89.8464 6.97481 89.7041 7.38271C89.3495 8.71116 90.4611 10.0419 90.3369 11.4114C90.2733 12.0929 89.9075 12.7175 89.8365 13.3989C89.8342 14.2897 90.0836 15.163 90.5561 15.9181L93.2638 21.2895C93.1202 21.9956 92.9609 22.7175 92.7881 23.4161C92.0356 24.0749 91.4286 24.8832 91.0056 25.7895L90.969 25.809C90.722 25.9686 90.5096 26.1761 90.3444 26.4193L87.7757 28.9191C87.7757 28.9191 83.302 30.0815 82.3722 31.5536C82.3722 31.5536 75.3522 31.2454 75.4158 41.0495C75.4158 41.0495 75.1076 44.7266 74.9281 45.2166C74.7486 45.7065 74.9281 50.668 74.9281 50.668L74.8451 60.7174C74.7054 63.1252 74.7054 65.539 74.8451 67.9468C75.1129 69.8467 75.4233 77.0724 75.4233 77.0724C75.4233 77.0724 77.101 84.1186 76.4802 86.6281C75.8818 89.0337 76.4802 94.2921 77.4571 94.3146C77.6433 94.6975 77.855 94.886 78.0869 94.7791C78.1872 94.7354 78.2901 94.698 78.3951 94.6669V100.671C78.3951 100.671 77.187 109.083 78.5447 110.682C77.7099 111.974 76.9673 113.324 76.3224 114.721L66.8228 114.207L65.6147 114.546L64.5062 114.854L63.833 130.302L64.1008 130.321L64.0813 130.792L64.7164 130.839L63.833 146.397L76.9746 147.481C76.6015 148.486 76.0929 149.435 75.4629 150.302C74.9752 150.546 73.9108 149.814 73.661 150.115C73.4157 150.345 73.1168 150.51 72.7916 150.595C72.4663 150.681 72.125 150.683 71.7984 150.603C70.9293 150.417 70.3705 151.4 70.3705 151.4C70.3705 151.4 70.4977 151.512 70.6877 151.719C69.2292 151.708 67.7931 152.078 66.5221 152.794C66.0875 153.014 65.816 153.177 65.816 153.177H63.2488L64.6573 162.164L65.6506 162.843L65.8952 169.925C65.8952 169.925 69.8709 182.179 71.6922 182.099C71.8111 182.095 71.9278 182.066 72.0342 182.013C72.1406 181.959 72.2342 181.884 72.3086 181.791C73.2855 180.661 72.6078 176.788 72.6078 176.788V170.338C72.6078 170.338 74.0978 169.683 73.931 169.192C73.7642 168.7 76.3336 163.335 76.5632 162.843C76.5698 162.839 76.5751 162.833 76.5785 162.826C76.5819 162.819 76.5834 162.811 76.5827 162.804C76.5827 162.252 77.7002 161.638 77.6381 161.395C77.576 161.152 80.372 159.618 80.568 158.269C80.764 156.921 82.6168 157.653 82.6168 157.653L84.9782 154.946C84.9274 157.022 85.0736 159.099 85.4151 161.148C86.2009 163.493 86.7218 165.919 86.9679 168.38C86.9679 168.38 86.285 171.746 86.9679 172.854C87.5761 173.601 88.2731 174.27 89.0436 174.848C88.3375 176.987 88.4385 181.534 88.4385 181.534V184.146L93.6558 185.612C93.6558 185.612 93.8188 184.306 94.0664 184.306C94.314 184.306 97.6284 186.838 97.6284 186.838C97.6284 186.838 110.383 187.001 113.612 186.838C114.832 186.777 115.164 186.252 114.976 185.617C114.637 184.927 114.131 184.334 113.503 183.891C112.875 183.448 112.146 183.17 111.383 183.083C108.897 182.92 105.75 180.308 105.75 180.308C105.75 180.308 105.995 179.735 104.673 178.919C103.76 178.358 101.232 176.084 99.6704 174.754C99.7452 174.651 99.82 174.553 99.8903 174.446C99.8903 174.446 97.778 171.515 98.2156 170.216C98.435 169.16 98.3702 168.065 98.0278 167.043C97.4342 165.273 97.0386 163.444 96.8482 161.587C96.8482 160.422 96.6725 153.799 96.5453 149.1L97.6344 149.191L97.6561 148.723L98.1438 148.767L102.761 149.191L102.619 144.259C104.302 143.58 105.923 142.754 107.461 141.791C108.857 140.67 110.532 139.951 112.306 139.708C112.306 139.708 117.585 136.891 118.392 135.726C119.199 134.561 119.124 126.106 119.124 126.106L118.69 107.984V107.972C118.69 107.972 118.316 99.2117 117.572 97.3118C117.299 96.6087 116.622 94.2644 115.883 91.5888C116.307 91.545 116.735 91.5629 117.154 91.6419C117.181 92.2964 117.198 92.7452 117.198 92.8993C117.198 93.9391 118.688 94.8239 118.688 94.8239L117.633 71.3846V55.4387C120.885 56.4747 128.75 56.7964 128.75 56.7964C134.411 56.5166 133.045 51.3599 133.045 51.3599ZM102.368 31.2215H102.351C102.466 30.6072 102.616 30.0001 102.8 29.4031L102.368 31.2215ZM81.0235 111.617C82.9504 111.935 85.1742 111.842 85.3388 111.468C85.356 111.431 85.3776 111.365 85.4076 111.28C85.4682 111.382 85.5265 111.498 85.5886 111.61L85.4009 115.146V115.226L79.0518 114.884C79.2581 113.58 79.9656 112.407 81.0235 111.617ZM102.192 129.456L102.029 123.73C102.312 122.675 102.566 121.718 102.783 120.898C102.885 121.579 102.964 122.207 103.027 122.785C103.626 128.218 102.737 129.278 102.188 129.456H102.192ZM120.26 43.6129C119.896 43.7512 118.513 42.8806 117.198 41.977C117.198 41.8102 117.21 41.6471 117.218 41.4893C117.404 37.7493 111.316 35.4305 109.454 34.9944C109.001 34.8779 108.563 34.7145 108.145 34.5067C107.15 34.0149 106.184 33.4693 105.249 32.8723L105.274 32.8013C105.274 32.8013 102.872 31.2806 102.82 29.3829C103.368 27.6577 104.059 25.9814 104.885 24.3713C104.932 24.2756 104.989 24.1761 105.035 24.0803C106.171 23.7272 107.231 23.1659 108.161 22.425C108.535 27.3087 115.601 31.511 115.601 31.511L116.355 32.7317L116.533 33.0197C116.151 33.2441 115.969 33.4243 116.098 33.5336C117.021 34.7449 117.816 36.0483 118.471 37.4231C118.621 37.7014 118.716 37.8719 118.716 37.8719C118.716 37.8719 119.871 41.0135 120.533 43.6443C120.445 43.6073 120.348 43.5969 120.255 43.6143L120.26 43.6129Z" fill="url(#paint0_linear_1_1661)"/>
  <path d="M122.979 30.9485L122.896 31.0584L122.612 31.4369L117.18 35.2757L116.028 33.381L115.295 32.1602C115.295 32.1602 104.467 25.6653 109.124 19.4053C113.781 13.1453 120.659 27.3401 120.659 27.3401L122.979 30.9485Z" fill="#FFC5D3"/>
  <path d="M111.958 15.6013L111.912 15.6245C111.879 15.6412 111.865 15.6817 111.882 15.7149L112.51 16.96C112.526 16.9932 112.567 17.0066 112.6 16.9898L112.646 16.9666C112.679 16.9499 112.693 16.9094 112.676 16.8762L112.048 15.6311C112.032 15.5979 111.991 15.5845 111.958 15.6013Z" fill="#3A3768"/>
  <path d="M105.87 17.325L105.845 17.3378C105.826 17.3473 105.818 17.3702 105.828 17.389L106.02 17.7705C106.03 17.7893 106.053 17.7968 106.071 17.7874L106.097 17.7746C106.116 17.7651 106.123 17.7422 106.114 17.7233L105.921 17.3419C105.912 17.3231 105.889 17.3155 105.87 17.325Z" fill="#3A3768"/>
  <path d="M106.288 18.1441L106.259 18.1585C106.238 18.1691 106.229 18.1948 106.24 18.2158L106.596 18.9225C106.607 18.9436 106.632 18.952 106.653 18.9414L106.682 18.927C106.703 18.9164 106.712 18.8907 106.701 18.8697L106.345 18.163C106.334 18.1419 106.309 18.1335 106.288 18.1441Z" fill="#3A3768"/>
  <path d="M106.817 19.202L106.79 19.2155C106.77 19.2257 106.762 19.2505 106.772 19.2707L107.132 19.9862C107.143 20.0064 107.167 20.0146 107.188 20.0044L107.214 19.9909C107.235 19.9807 107.243 19.956 107.233 19.9357L106.872 19.2203C106.862 19.2 106.837 19.1918 106.817 19.202Z" fill="#3A3768"/>
  <path d="M109.155 13.8059L106.609 15.0887C105.783 15.5051 105.451 16.5126 105.867 17.3389L110.031 25.6019C110.447 26.4283 111.455 26.7606 112.281 26.3442L114.827 25.0614C115.653 24.645 115.985 23.6375 115.569 22.8111L111.405 14.5482C110.989 13.7218 109.981 13.3894 109.155 13.8059Z" fill="#3A3768"/>
  <path d="M109.579 13.9524C109.552 13.9649 109.528 13.9827 109.508 14.0047C109.489 14.0266 109.473 14.0523 109.464 14.0803C109.454 14.1082 109.45 14.1377 109.453 14.1672C109.455 14.1966 109.463 14.2253 109.476 14.2516L109.496 14.2927C109.521 14.346 109.525 14.4074 109.506 14.4635C109.487 14.5195 109.446 14.5657 109.393 14.5919L107.044 15.7738C107.018 15.7872 106.989 15.7952 106.96 15.7973C106.931 15.7994 106.901 15.7956 106.873 15.786C106.845 15.7764 106.819 15.7614 106.797 15.7417C106.775 15.7219 106.758 15.698 106.745 15.6713L106.723 15.6302C106.697 15.577 106.651 15.5365 106.595 15.5173C106.539 15.4981 106.478 15.5018 106.424 15.5277L105.968 15.7596C105.918 15.7843 105.873 15.8187 105.837 15.8608C105.8 15.9029 105.772 15.9519 105.755 16.0048C105.737 16.0578 105.731 16.1137 105.735 16.1694C105.739 16.225 105.755 16.2792 105.78 16.3288L110.771 26.2346C110.822 26.3349 110.911 26.4109 111.018 26.4461C111.125 26.4813 111.242 26.4727 111.342 26.4223L115.44 24.3593C115.54 24.3081 115.616 24.2193 115.651 24.1122C115.687 24.0052 115.678 23.8886 115.628 23.7878L110.634 13.8768C110.609 13.8269 110.574 13.7824 110.532 13.7459C110.49 13.7094 110.44 13.6816 110.387 13.6641C110.334 13.6467 110.278 13.6399 110.222 13.6442C110.167 13.6485 110.112 13.6637 110.063 13.6891L109.579 13.9524Z" fill="#E53935"/>
  <path d="M108.236 14.6913L107.577 15.0235C107.545 15.0395 107.532 15.0782 107.548 15.1099L107.57 15.152C107.586 15.1837 107.624 15.1965 107.656 15.1805L108.315 14.8483C108.347 14.8323 108.36 14.7936 108.344 14.7619L108.323 14.7198C108.307 14.6881 108.268 14.6753 108.236 14.6913Z" fill="#E6E8EC"/>
  <path d="M108.533 14.7286C108.588 14.7286 108.632 14.6843 108.632 14.6296C108.632 14.5749 108.588 14.5305 108.533 14.5305C108.478 14.5305 108.434 14.5749 108.434 14.6296C108.434 14.6843 108.478 14.7286 108.533 14.7286Z" fill="#E6E8EC"/>
  <path d="M113.096 51.9463L111.57 92.8978C111.57 92.8978 116.696 91.1894 117.491 92.4707C118.285 93.752 116.636 71.9605 116.636 71.9605L113.096 51.9463Z" fill="#5F5570"/>
  <path opacity="0.15" d="M113.096 51.9463L111.57 92.8978C111.57 92.8978 116.696 91.1894 117.491 92.4707C118.285 93.752 116.636 71.9605 116.636 71.9605L113.096 51.9463Z" fill="black"/>
  <path d="M113.339 186.928C110.166 187.091 97.6314 186.928 97.6314 186.928C97.6314 186.928 94.3747 184.405 94.1301 184.405C93.8855 184.405 93.7254 185.707 93.7254 185.707L88.5986 184.241V181.639C88.5986 181.639 88.4355 174.229 89.9809 173.906C91.5262 173.583 98.366 173.906 98.366 173.906C98.6106 173.826 103.25 178.222 104.55 179.033C105.851 179.845 105.607 180.418 105.607 180.418C105.607 180.418 108.701 183.021 111.143 183.186C111.897 183.274 112.617 183.551 113.236 183.992C113.854 184.433 114.351 185.023 114.68 185.708C114.865 186.344 114.538 186.867 113.339 186.928Z" fill="#BC8487"/>
  <path opacity="0.1" d="M113.339 186.928C110.166 187.091 97.6315 186.928 97.6315 186.928C97.6315 186.928 94.3747 184.405 94.1301 184.405C93.8855 184.405 93.7239 185.707 93.7239 185.707L88.5971 184.242V181.691L93.397 183.429L97.2231 185.707H114.678C114.865 186.344 114.536 186.869 113.339 186.928Z" fill="black"/>
  <g opacity="0.1">
    <path d="M99.0887 183.103C99.0887 183.103 102.993 179.363 105.608 180.418L99.0887 183.103Z" fill="black"/>
    <path d="M99.0887 183.103C99.0887 183.103 102.993 179.363 105.608 180.418" stroke="black" stroke-miterlimit="10"/>
  </g>
  <path d="M74.3536 169.346C74.5167 169.833 73.0521 170.486 73.0521 170.486V176.915C73.0521 176.915 73.7156 180.775 72.7529 181.902C72.6814 181.993 72.5909 182.068 72.4876 182.121C72.3842 182.175 72.2706 182.205 72.1545 182.21C70.3645 182.29 66.4585 170.086 66.4585 170.086L66.2139 163.032L65.237 162.359L63.8532 153.406H66.3747C66.3747 153.406 66.641 153.242 67.0681 153.023C68.2889 152.4 70.8448 151.314 72.2353 152.35L76.9552 162.982C76.9552 162.982 74.1928 168.859 74.3536 169.346Z" fill="#BC8487"/>
  <path opacity="0.1" d="M72.7561 181.903C72.6846 181.995 72.594 182.07 72.4907 182.123C72.3874 182.176 72.2738 182.206 72.1577 182.211C70.3678 182.291 66.4617 170.087 66.4617 170.087L66.2171 163.033L65.2402 162.36L63.8564 153.406H66.3749C66.3749 153.406 66.6412 153.243 67.0683 153.023L67.6764 162.197L68.0011 170.091C68.0011 170.091 71.0724 178.676 72.7561 181.903Z" fill="black"/>
  <path d="M118.04 135.998C117.247 137.158 112.056 139.962 112.056 139.962C110.308 140.201 108.66 140.92 107.295 142.038C105.969 143.049 101.362 145.054 97.2261 146.755C93.3612 148.344 89.9017 149.667 89.9017 149.667L85.9171 154.305L82.8817 157.838C82.8817 157.838 81.0506 157.106 80.8666 158.449C80.6826 159.791 77.9359 161.317 77.998 161.562C78.0601 161.807 76.9605 162.417 76.9605 162.965C76.9605 163.514 72.8712 159.001 72.9318 156.25C72.9085 155.379 72.7131 154.52 72.3568 153.724C72.0006 152.929 71.4906 152.211 70.8561 151.613C70.8561 151.613 71.4059 150.636 72.2594 150.82C72.5809 150.9 72.9175 150.897 73.2376 150.812C73.5578 150.726 73.8512 150.561 74.0905 150.332C74.3351 150.024 75.3725 150.759 75.861 150.516C76.3494 150.272 78.3025 145.449 78.3025 145.449L85.9126 140.344L101.05 130.196L101.749 129.728C101.749 129.728 103.762 130.652 102.945 123.089C102.787 121.624 102.52 119.845 102.115 117.677C99.6122 104.309 108.588 102.779 108.588 102.779L116.462 105.404L118.355 108.334V108.349L118.782 126.402C118.782 126.402 118.837 134.843 118.04 135.998Z" fill="#433A59"/>
  <path opacity="0.1" d="M97.1664 144.546C97.1664 144.546 97.1911 145.413 97.227 146.76C93.3613 148.349 89.9018 149.673 89.9018 149.673L85.9172 154.31C85.8514 150.464 85.8656 145.474 85.9172 140.349L101.056 130.204C99.1808 137.145 97.1664 144.546 97.1664 144.546Z" fill="black"/>
  <path opacity="0.1" d="M118.345 108.348V108.363L106.503 108.592C106.503 108.592 104.427 116.709 104.122 118.42C104.047 118.84 103.588 120.634 102.938 123.1C102.778 121.634 102.512 119.855 102.108 117.687C99.6047 104.319 108.581 102.789 108.581 102.789L116.455 105.414L118.345 108.348Z" fill="black"/>
  <path d="M87.1519 86.1897L85.626 115.49C85.626 115.49 84.5279 158.524 85.626 161.332C86.3985 163.67 86.9102 166.085 87.1519 168.535C87.1519 168.535 86.4787 171.893 87.1519 172.991C87.8251 174.089 89.9599 175.309 89.8985 175.921C89.8372 176.533 96.4301 179.826 99.8469 174.575C99.8469 174.575 97.7713 171.645 98.2014 170.362C98.4146 169.306 98.3515 168.213 98.0181 167.188C97.4334 165.423 97.0443 163.599 96.8579 161.748C96.8579 159.91 96.4308 144.534 96.4308 144.534C96.4308 144.534 103.088 120.117 103.387 118.408C103.686 116.7 105.768 108.58 105.768 108.58L118.342 108.336C118.342 108.336 117.975 99.6021 117.244 97.7141C116.512 95.8262 112.91 81.965 112.91 81.965L87.1519 86.1897Z" fill="#433A59"/>
  <path d="M66.1676 114.914L65.0763 115.222L65.0321 116.3L97.7549 116.723V116.299L66.1676 114.914Z" fill="#7B728F"/>
  <path d="M104.764 25.0556C100.003 34.7138 102.959 36.7319 103.428 36.9803C102.419 36.512 89.3122 30.3545 91.0364 28.7912C92.1584 27.7731 93.1173 23.3457 93.6813 20.1697C94.0164 18.275 94.2116 16.8276 94.2116 16.8276L107.965 19.3499C106.803 21.1967 105.734 23.101 104.764 25.0556Z" fill="#FFC5D3"/>
  <path opacity="0.1" d="M122.911 31.0581L122.627 31.4359L117.182 35.2746L116.029 33.3799C118.208 32.3485 120.448 31.4515 122.737 30.6938L122.911 31.0581Z" fill="black"/>
  <path d="M127.925 39.8608C127.438 41.5692 119.192 39.8608 119.192 39.8608L118.337 38.5144C118.337 38.5144 118.252 38.3438 118.108 38.0656C117.464 36.698 116.683 35.3997 115.776 34.1909C115.102 33.6411 122.978 30.9558 122.978 30.9558L125.39 36.2053C125.985 36.6049 126.534 37.069 127.026 37.5891C127.352 37.8632 127.605 38.214 127.762 38.6101C127.918 39.0061 127.974 39.4348 127.924 39.8578L127.925 39.8608Z" fill="#E5E8EF"/>
  <path d="M114.256 40.6462C114.256 40.6462 119.14 44.4992 119.872 44.2209C120.604 43.9427 132.446 51.9396 132.446 51.9396C132.446 51.9396 133.792 57.0663 128.233 57.3715C128.233 57.3715 116.452 56.8838 115.966 55.1739C115.48 53.464 114.256 40.6462 114.256 40.6462Z" fill="#5F5570"/>
  <path opacity="0.1" d="M100.949 32.9021L95.6381 38.3917L103.085 85.758L106.015 84.0496C106.015 84.0496 113.584 87.4074 114.195 84.2942C114.805 81.181 114.637 68.9123 114.637 68.9123L113.645 46.7468C113.645 46.7468 110.167 38.9946 110.167 38.75C110.167 38.5054 105.148 34.7212 105.148 34.7212L102.78 32.8901L100.949 32.9021Z" fill="black"/>
  <path d="M100.949 32.169L95.6381 37.6586L103.085 85.0249L106.015 83.315C106.015 83.315 113.584 86.6728 114.195 83.5596C114.805 80.4464 114.637 68.1777 114.637 68.1777L113.645 46.0122C113.645 46.0122 110.167 38.2599 110.167 38.0154C110.167 37.7708 105.148 33.9866 105.148 33.9866L102.78 32.1555L100.949 32.169Z" fill="#E5E8EF"/>
  <path opacity="0.1" d="M101.254 32.9627L99.7886 35.9547L101.254 37.4956C101.254 37.4956 106.503 48.097 105.467 54.3839L106.565 75.0773L110.106 78.5563L112.914 75.3137L111.567 56.5112C111.567 56.5112 107.966 41.0067 104.181 36.1851L103.083 31.9117L101.254 32.9627Z" fill="black"/>
  <path d="M101.254 32.4743L99.7886 35.4663L101.254 37.0072C101.254 37.0072 106.503 47.6086 105.467 53.8955L106.565 74.5889L110.106 78.0679L112.914 74.8253L111.567 56.0228C111.567 56.0228 107.966 40.5183 104.181 35.6967L103.083 31.4233L101.254 32.4743Z" fill="#BC8487"/>
  <path opacity="0.1" d="M107.967 19.3515C106.631 21.4997 105.584 23.3907 104.763 25.058C103.899 25.3126 103.003 25.4416 102.102 25.4409C99.0849 25.4409 97.3458 23.3533 95.6366 21.1362C95.2462 20.6328 93.9619 20.751 93.6844 20.1593C94.0195 18.2646 94.2147 16.8173 94.2147 16.8173L107.967 19.3515Z" fill="black"/>
  <path d="M111.462 15.8343C111.462 18.0632 110.666 20.2189 109.218 21.9134C107.77 23.6079 105.765 24.73 103.563 25.0777C101.362 25.4255 99.1081 24.976 97.2083 23.8103C95.3085 22.6445 93.8871 20.839 93.2 18.7186C92.5128 16.5982 92.605 14.3022 93.4599 12.2437C94.3148 10.1853 95.8763 8.49948 97.8634 7.48976C99.8506 6.48003 102.133 6.21266 104.3 6.73575C106.466 7.25885 108.375 8.53806 109.683 10.3432C110.839 11.9404 111.462 13.8621 111.462 15.8343Z" fill="#FFC5D3"/>
  <path opacity="0.1" d="M99.1172 36.6864L91.4255 27.4112C91.4255 27.4112 90.7141 27.1254 93.1159 24.6136C93.1159 24.6136 101.93 31.484 102.477 32.6517C103.024 33.8193 99.1172 36.6864 99.1172 36.6864Z" fill="black"/>
  <path d="M98.874 36.1985L91.1823 26.9233C91.1823 26.9233 90.4709 26.6375 92.872 24.1257C92.872 24.1257 101.686 30.9961 102.233 32.1637C102.78 33.3314 98.874 36.1985 98.874 36.1985Z" fill="#E5E8EF"/>
  <path d="M118.348 95.2452C118.348 95.2452 116.883 94.3655 116.883 93.3288C116.883 92.2921 116.15 77.6417 116.15 77.6417C116.15 77.6417 115.075 68.8984 113.953 61.9494C113.293 57.8549 112.617 54.3804 112.138 53.6915L112.119 53.6616C110.837 52.016 111.081 43.9563 103.084 32.1753C104.646 33.2732 106.277 34.2686 107.968 35.1553C108.379 35.3617 108.81 35.5251 109.255 35.643C111.086 36.0701 117.063 38.3897 116.884 42.1162C116.705 45.8428 117.312 54.3834 117.312 54.3834V71.8979L118.348 95.2452Z" fill="#5F5570"/>
  <path opacity="0.1" d="M127.929 39.8624C127.441 41.5708 119.195 39.8624 119.195 39.8624L118.34 38.516C118.34 38.516 118.255 38.3455 118.111 38.0672C118.106 38.0577 118.102 38.0477 118.098 38.0373C122.886 38.3724 125.556 38.0231 127.03 37.5885C127.357 37.8631 127.61 38.2148 127.767 38.6118C127.924 39.0088 127.98 39.4386 127.929 39.8624Z" fill="black"/>
  <path d="M118.345 38.5174C118.345 38.5174 120.914 45.598 120.543 47.3677C120.172 49.1375 126.464 56.1014 126.464 56.1014L132.448 51.9507C132.448 51.9507 130.187 47.4298 130.496 46.0939C130.804 44.758 128.908 41.8812 128.908 41.8812L129.03 37.1246C129.03 37.1246 127.928 39.1816 118.345 38.5174Z" fill="#5F5570"/>
  <path opacity="0.1" d="M109.683 10.344L105.045 10.5197C104.591 10.5163 104.138 10.5729 103.699 10.688C102.939 10.9995 102.294 11.5365 101.85 12.2265C101.406 12.9165 101.184 13.7262 101.215 14.5462C101.155 16.1305 100.238 17.9062 98.464 18.0446C98.2873 18.0747 98.1058 18.0345 97.9584 17.9324C97.8457 17.8126 97.771 17.6622 97.7437 17.5001C97.489 16.5768 97.0956 15.6976 96.5768 14.8925C96.2134 14.9911 95.8842 15.1881 95.6257 15.4619C95.3671 15.7356 95.1892 16.0754 95.1115 16.4439C94.9691 17.1846 94.9231 17.9406 94.9746 18.6931C94.9768 19.6514 94.8843 20.6075 94.6986 21.5475C93.9573 20.5637 93.4176 19.4431 93.1103 18.2502C92.8031 17.0573 92.7344 15.8154 92.9082 14.5959C93.082 13.3763 93.4948 12.2031 94.123 11.1435C94.7513 10.0839 95.5825 9.15871 96.5691 8.42108C97.5557 7.68345 98.6782 7.14786 99.8723 6.84503C101.066 6.54221 102.308 6.47811 103.527 6.65641C104.746 6.83471 105.918 7.25191 106.975 7.88406C108.032 8.51622 108.955 9.3509 109.689 10.3402L109.683 10.344Z" fill="black"/>
  <path d="M103.455 10.4436C103.894 10.3285 104.347 10.2719 104.801 10.2753L110.434 10.0696C111.266 10.1429 112.093 9.88421 112.735 9.34998C112.933 9.1158 113.08 8.84191 113.164 8.54663C113.309 8.0743 113.352 7.57634 113.289 7.08613C113.227 6.59592 113.06 6.12476 112.8 5.70423C112.053 4.727 111.057 3.96811 109.916 3.5066C108.902 2.965 107.862 2.47591 106.798 2.04127C102.846 0.540919 98.4715 0.603784 94.5649 2.21705C94.1788 2.36516 93.813 2.56117 93.4758 2.80049C93.005 3.20391 92.6042 3.68234 92.2895 4.21646L90.4397 7.01248C90.1838 7.35424 89.9866 7.7362 89.8562 8.14271C89.5069 9.46816 90.5885 10.7944 90.4726 12.1587C90.409 12.8379 90.05 13.4602 89.9849 14.1387C89.9825 15.0241 90.227 15.8926 90.691 16.6467L93.9478 23.2172C94.4738 21.6851 94.7405 20.076 94.7369 18.4561C94.6818 17.7036 94.7278 16.9472 94.8738 16.2069C94.9524 15.8383 95.1305 15.4984 95.3889 15.2241C95.6473 14.9498 95.9759 14.7516 96.3391 14.6511C96.8593 15.4557 97.2535 16.335 97.5083 17.2586C97.535 17.4209 97.6098 17.5715 97.7229 17.6909C97.8703 17.7932 98.0518 17.8335 98.2286 17.8031C100.013 17.6647 100.914 15.9062 100.98 14.3047C100.946 13.4848 101.165 12.6743 101.608 11.9835C102.051 11.2926 102.696 10.755 103.455 10.4436Z" fill="#8F7080"/>
  <path d="M65.0761 115.226L67.3568 114.573L101.743 116.444L97.959 116.932L65.0761 115.226Z" fill="#7B728F"/>
  <path opacity="0.1" d="M65.0761 115.226L67.3568 114.573L101.743 116.444L97.959 116.932L65.0761 115.226Z" fill="black"/>
  <path d="M102.677 149.409L98.1402 148.987L96.5485 148.838V123.609L96.9688 117.752L97.0616 116.448H101.743L102.677 149.409Z" fill="#7B728F"/>
  <path opacity="0.1" d="M101.436 148.514L97.8177 148.113L96.5461 147.975V124.051L96.8812 118.503L96.956 117.271H100.688L101.436 148.514Z" fill="black"/>
  <path d="M76.6216 115.227C76.6216 115.227 78.8821 110.272 79.8276 110.12C80.721 110.037 81.6202 110.037 82.5136 110.12L82.3595 111.558C82.3595 111.558 80.0407 111.741 79.3077 115.615L76.6216 115.227Z" fill="#7B728F"/>
  <path opacity="0.1" d="M76.6216 115.227C76.6216 115.227 78.8821 110.272 79.8276 110.12C80.721 110.037 81.6202 110.037 82.5136 110.12L82.3595 111.558C82.3595 111.558 80.0407 111.741 79.3077 115.615L76.6216 115.227Z" fill="black"/>
  <path d="M85.3829 109.6C85.3829 109.6 91.4552 112.621 90.6623 116.161L87.3658 115.978C87.3658 115.978 85.7786 110.699 84.5287 110.423C83.2788 110.148 85.3829 109.6 85.3829 109.6Z" fill="#7B728F"/>
  <path d="M107.969 61.7787V61.9567L107.847 82.2881C107.847 82.2881 104.734 99.3799 103.883 100.051C103.031 100.722 84.2851 98.8907 84.2851 98.8907L75.8005 41.6949C75.7399 31.9275 82.6373 32.2342 82.6373 32.2342C83.5528 30.7688 87.9481 29.6087 87.9481 29.6087L90.3895 27.2278L90.4643 27.1178C90.6268 26.8758 90.8365 26.6689 91.0807 26.5097C91.5841 26.2187 91.9035 26.6025 92.0868 26.981C92.169 27.1584 92.2326 27.3439 92.2767 27.5345C102.168 34.7863 107.969 61.7787 107.969 61.7787Z" fill="#5F5570"/>
  <path opacity="0.1" d="M107.724 62.018V62.196C104.657 56.58 92.8264 35.3039 89.595 34.2492L90.8404 33.3942C90.8404 33.3942 91.6707 32.9065 90.1448 32.4174C90.1448 32.4174 87.7639 32.7255 87.7033 29.8487L90.2226 27.3579L90.8389 26.7498L91.845 27.2217C91.9273 27.3992 91.991 27.5847 92.035 27.7753C101.926 35.0301 107.724 62.018 107.724 62.018Z" fill="black"/>
  <path d="M107.967 61.7735V61.9515C104.9 56.3355 93.0694 35.0594 89.838 34.0047L91.0834 33.1497C91.0834 33.1497 91.9137 32.662 90.3878 32.1728C90.3878 32.1728 88.0069 32.481 87.9463 29.6042L90.4656 27.1134L91.0819 26.5052L92.088 26.9772C92.1703 27.1547 92.234 27.3402 92.278 27.5308C102.169 34.7856 107.967 61.7735 107.967 61.7735Z" fill="#433A59"/>
  <path opacity="0.1" d="M112.379 53.9299L112.36 53.9C111.077 52.2544 111.322 44.1947 103.325 32.4137C104.887 33.5112 106.518 34.5064 108.209 35.393L107.64 37.2525L108.861 37.904L112.379 53.9299Z" fill="black"/>
  <path d="M112.136 53.6854L112.117 53.6555C110.834 52.0099 111.079 43.9502 103.082 32.1692C104.644 33.2668 106.275 34.262 107.966 35.1485L107.397 37.008L108.618 37.6595L112.136 53.6854Z" fill="#433A59"/>
  <path opacity="0.1" d="M102.736 30.2885L102.235 32.403C102.355 33.0125 102.669 33.5666 103.131 33.9817C103.593 34.3967 104.178 34.6502 104.796 34.7039L105.151 33.6956C105.151 33.6956 102.779 32.1734 102.736 30.2885Z" fill="black"/>
  <path d="M102.736 30.0455L102.235 32.1601C102.355 32.7696 102.669 33.3237 103.131 33.7388C103.593 34.1538 104.178 34.4073 104.796 34.461L105.151 33.4527C105.151 33.4527 102.779 31.9305 102.736 30.0455Z" fill="#E5E8EF"/>
  <path opacity="0.1" d="M99.5762 116.79L98.1378 148.987L96.5461 148.838V123.609L96.9664 117.752L99.5762 116.79Z" fill="black"/>
  <path d="M65.4025 129.225L64.4256 146.642L97.6323 149.409L99.0872 116.79L65.4025 129.225Z" fill="#7B728F"/>
  <path opacity="0.1" d="M64.6702 131.096L65.3195 115.715L99.3288 117.277L97.7094 133.539L64.6702 131.096Z" fill="black"/>
  <path d="M64.4256 130.609L65.0749 115.227L99.0842 116.79L97.4648 133.052L64.4256 130.609Z" fill="#7B728F"/>
  <path d="M82.8181 130.628H78.7288V135.389H82.8181V130.628Z" fill="#C3BBC8"/>
  <path d="M79.34 99.4369L78.7296 101.082C78.7296 101.082 77.4476 110.117 79.0378 111.216C80.628 112.314 85.3247 112.376 85.5693 111.826C85.8139 111.276 87.5216 105.051 87.5216 105.051C87.5216 105.051 89.0475 109.629 89.8404 109.263C90.6333 108.898 88.0093 100.195 88.0093 100.195L79.34 99.4369Z" fill="#FFC5D3"/>
  <path opacity="0.1" d="M78.7288 92.6001V101.334C78.7288 101.334 85.202 102.555 88.004 100.445C88.004 100.445 85.3785 91.9928 86.3584 89.8625C87.3383 87.7322 78.7288 92.6001 78.7288 92.6001Z" fill="black"/>
  <path d="M78.7288 92.3553V101.089C78.7288 101.089 85.202 102.31 88.004 100.2C88.004 100.2 85.3785 91.7479 86.3584 89.6176C87.3383 87.4873 78.7288 92.3553 78.7288 92.3553Z" fill="#E5E8EF"/>
  <path opacity="0.1" d="M77.9981 41.2641L76.2882 42.1819C76.2882 42.1819 75.98 45.8471 75.7998 46.3326C75.7079 48.1421 75.7079 49.9551 75.7998 51.7646L75.7167 61.775C75.5797 64.1739 75.5797 66.5787 75.7167 68.9775C75.9808 70.87 76.2755 78.0725 76.2755 78.0725C76.2755 78.0725 77.9256 85.0925 77.3152 87.5953C76.7048 90.0981 77.3758 95.7126 78.4133 95.2249C79.4507 94.7372 89.0349 92.844 89.5233 92.4782C90.0118 92.1124 89.7679 88.6941 89.5233 88.2655C89.2787 87.8369 87.8149 82.0391 87.9361 80.6964C88.0573 79.3538 87.509 67.5728 87.509 67.5728C87.509 67.5728 88.4245 54.9989 88.791 52.0682C89.1575 49.1376 88.0587 40.5318 87.0811 40.4099C86.1035 40.288 83.2476 33.6345 77.9981 41.2641Z" fill="black"/>
  <path d="M77.5089 40.7755L75.7989 41.6933C75.7989 41.6933 75.4908 45.3585 75.3113 45.8439C75.2192 47.6534 75.2192 49.4664 75.3113 51.2759L75.2282 61.2864C75.091 63.6853 75.091 66.09 75.2282 68.4889C75.4923 70.3813 75.787 77.5838 75.787 77.5838C75.787 77.5838 77.4371 84.6038 76.8267 87.1066C76.2163 89.6094 76.8873 95.2239 77.9248 94.7362C78.9622 94.2485 88.5464 92.3553 89.0348 91.9896C89.5233 91.6238 89.2794 88.2054 89.0348 87.7768C88.7902 87.3482 87.3264 81.5505 87.4475 80.2078C87.5687 78.8651 87.0204 67.0841 87.0204 67.0841C87.0204 67.0841 87.936 54.5103 88.3025 51.5796C88.669 48.6489 87.5702 40.0432 86.5941 39.9213C85.6179 39.7993 82.7583 33.1459 77.5089 40.7755Z" fill="#5F5570"/>
  <g opacity="0.1">
    <path d="M95.9702 13.7324C95.6066 13.8317 95.2775 14.0295 95.0193 14.3041C94.7611 14.5787 94.5838 14.9193 94.5071 15.2883C94.3646 16.029 94.3186 16.785 94.3702 17.5375C94.3749 19.1572 94.1092 20.7663 93.584 22.2985L90.325 15.7281C90.2614 15.5987 90.1956 15.4641 90.132 15.3302C90.2827 15.782 90.4696 16.221 90.6908 16.6429L93.9491 23.2156C94.4743 21.6834 94.74 20.0743 94.7352 18.4546C94.6813 17.7021 94.7273 16.9457 94.8721 16.2053C94.9501 15.8365 95.1281 15.4963 95.3866 15.2219C95.645 14.9475 95.974 14.7495 96.3374 14.6495C96.5737 15.0199 96.7849 15.4057 96.9695 15.8044C96.7216 15.0757 96.3863 14.3797 95.9709 13.7317L95.9702 13.7324Z" fill="black"/>
    <path d="M112.858 5.80971C113.002 6.41018 112.981 7.03803 112.8 7.6281C112.715 7.92365 112.567 8.19756 112.368 8.43145C112.05 8.69666 111.684 8.89672 111.289 9.02019C110.894 9.14366 110.479 9.18812 110.067 9.15103L104.437 9.35672C103.982 9.35357 103.53 9.41016 103.09 9.52503C102.331 9.83647 101.686 10.3735 101.242 11.0635C100.798 11.7535 100.576 12.5632 100.607 13.3832C100.546 14.9675 99.63 16.7432 97.855 16.8816C97.6783 16.9117 97.4968 16.8715 97.3494 16.7694C97.4062 16.928 97.4593 17.0888 97.5057 17.2571C97.5308 17.4195 97.6049 17.5704 97.7181 17.6894C97.8656 17.7914 98.047 17.8317 98.2238 17.8016C100.012 17.6633 100.91 15.9047 100.976 14.3033C100.945 13.4833 101.166 12.6735 101.61 11.9835C102.055 11.2935 102.7 10.7565 103.459 10.4451C103.899 10.3302 104.351 10.2736 104.805 10.2768L110.436 10.0711C111.268 10.1444 112.095 9.88572 112.736 9.35149C112.936 9.11756 113.084 8.84366 113.169 8.54814C113.307 8.09474 113.352 7.61775 113.299 7.14662C113.246 6.67549 113.096 6.22023 112.861 5.80896L112.858 5.80971Z" fill="black"/>
  </g>
  <path opacity="0.1" d="M103.69 105.953C104.603 105.449 105.593 105.099 106.62 104.916C107.436 104.976 114.759 114.289 114.759 114.289L103.69 105.953Z" fill="black"/>
  <path opacity="0.1" d="M82.0057 42.9299C82.0057 42.9299 78.14 44.58 78.2432 45.7207C78.3465 46.8614 82.0057 42.9299 82.0057 42.9299Z" fill="black"/>
  <path opacity="0.1" d="M80.1185 48.3258C80.1185 48.3258 76.0629 53.5117 76.959 53.6852C77.8551 53.8588 80.1185 48.3258 80.1185 48.3258Z" fill="black"/>
  <path opacity="0.1" d="M93.6834 56.0977C93.6834 56.0977 94.0574 67.6954 91.0811 69.1607L93.6834 56.0977Z" fill="black"/>
  <path opacity="0.1" d="M78.2284 87.0641C78.2284 87.0641 81.0903 85.438 81.744 85.7626C82.3978 86.0872 78.2284 87.0641 78.2284 87.0641Z" fill="black"/>
  <path opacity="0.1" d="M78.7288 89.3133C79.6244 89.3884 80.5262 89.3056 81.3932 89.0688C82.2496 88.6962 78.7288 89.3133 78.7288 89.3133Z" fill="black"/>
  <path opacity="0.1" d="M121.861 46.6071C121.861 46.6071 124.105 53.0451 125.394 53.0451L121.861 46.6071Z" fill="black"/>
  <path opacity="0.1" d="M89.9878 169.919C89.9878 169.919 94.1923 168.779 94.8169 169.919C95.4415 171.06 89.9878 169.919 89.9878 169.919Z" fill="black"/>
  <path opacity="0.1" d="M76.6216 153.014C76.6216 153.014 75.5744 154.617 76.959 155.108C78.3435 155.599 76.6216 153.014 76.6216 153.014Z" fill="black"/>
  <path opacity="0.1" d="M104.551 130.628C104.551 130.628 107.724 133.456 109.223 133.539C110.722 133.623 104.551 130.628 104.551 130.628Z" fill="black"/>
  <path d="M53.3064 141.042C53.3064 141.658 53.2384 142.16 53.1523 142.16C53.0663 142.16 52.9983 141.672 52.9983 141.042C52.9983 140.412 53.0835 140.715 53.1688 140.715C53.2541 140.715 53.3064 140.425 53.3064 141.042Z" fill="#FFD037"/>
  <path d="M54.1638 141.78C53.6215 142.074 53.1473 142.253 53.1084 142.181C53.0695 142.108 53.4719 141.807 54.0142 141.507C54.5565 141.208 54.3441 141.427 54.383 141.507C54.4219 141.587 54.7061 141.49 54.1638 141.78Z" fill="#FFD037"/>
  <defs>
    <linearGradient id="paint0_linear_1_1661" x1="98.2194" y1="186.91" x2="98.2194" y2="0.180176" gradientUnits="userSpaceOnUse">
      <stop stop-color="#808080" stop-opacity="0.251"/>
      <stop offset="0.54" stop-color="#808080" stop-opacity="0.122"/>
      <stop offset="1" stop-color="#808080" stop-opacity="0.102"/>
    </linearGradient>
  </defs>
</svg>