<svg xmlns="http://www.w3.org/2000/svg" width="131" height="130" viewBox="0 0 131 130" fill="none">
  <g clip-path="url(#clip0_1_1595)">
    <path d="M66.717 112.302C93.2652 112.302 114.787 90.7535 114.787 64.1723C114.787 37.5911 93.2652 16.0428 66.717 16.0428C40.1689 16.0428 18.6474 37.5911 18.6474 64.1723C18.6474 90.7535 40.1689 112.302 66.717 112.302Z" fill="#134F19" fill-opacity="0.05"/>
    <path d="M66.6893 128.345C102.087 128.345 130.782 99.6137 130.782 64.1723C130.782 28.7309 102.087 0 66.6893 0C31.292 0 2.59677 28.7309 2.59677 64.1723C2.59677 99.6137 31.292 128.345 66.6893 128.345Z" fill="#134F19" fill-opacity="0.05"/>
    <path d="M130.177 74.6694H4.89145V78.7159H24.4304V117.157L28.5973 116.949L28.4701 78.7159H104.573V117.157L108.512 118.197L108.614 78.7168H130.177V74.6694Z" fill="#E6E6E6"/>
    <path d="M130.423 62.563H5.13815V66.6095H130.423V62.563Z" fill="#E6E6E6"/>
    <path d="M130.423 52.4472H5.13815V56.4937H130.423V52.4472Z" fill="#E6E6E6"/>
    <path d="M130.423 42.3306H5.13815V46.3771H130.423V42.3306Z" fill="#E6E6E6"/>
    <path d="M130.177 74.6694H4.89145V78.7159H24.4304V117.157L28.5973 116.949L28.4701 78.7159H104.573V117.157L108.512 118.197L108.614 78.7168H130.177V74.6694Z" fill="#E6E6E6"/>
    <path d="M130.423 62.563H5.13815V66.6095H130.423V62.563Z" fill="#E6E6E6"/>
    <path d="M130.423 52.4472H5.13815V56.4937H130.423V52.4472Z" fill="#E6E6E6"/>
    <path d="M130.423 42.3306H5.13815V46.3771H130.423V42.3306Z" fill="#E6E6E6"/>
    <path d="M37.1476 31.9688L20.7793 35.7214L13.8641 22.6625L27.8599 17.1912L37.1476 31.9688Z" fill="#2F2E41"/>
    <path d="M94.7465 41.1216H47.842V42.9165H94.7465V41.1216Z" fill="#3F3D56"/>
    <path d="M86.3815 35.139H85.5427C85.7008 34.8666 85.7842 34.5571 85.7842 34.242V31.2512C85.7842 30.7751 85.5953 30.3186 85.2591 29.982C84.923 29.6454 84.467 29.4563 83.9916 29.4563H83.2896C83.358 29.2644 83.3931 29.0621 83.3935 28.8583V25.8674C83.3935 25.3914 83.2046 24.9349 82.8684 24.5983C82.5322 24.2617 82.0763 24.0726 81.6008 24.0726H61.2854C60.81 24.0726 60.354 24.2617 60.0178 24.5983C59.6817 24.9349 59.4928 25.3914 59.4928 25.8674V28.8583C59.493 29.0621 59.5282 29.2644 59.5967 29.4563H58.8938C58.4184 29.4563 57.9624 29.6454 57.6262 29.982C57.29 30.3186 57.1012 30.7751 57.1012 31.2512V34.242C57.1011 34.5574 57.1844 34.8672 57.3427 35.1399H56.5039C56.0285 35.1399 55.5725 35.329 55.2363 35.6656C54.9002 36.0022 54.7113 36.4587 54.7113 36.9348V39.9256C54.7113 40.4017 54.9002 40.8582 55.2363 41.1948C55.5725 41.5314 56.0285 41.7205 56.5039 41.7205H86.3789C86.8543 41.7205 87.3102 41.5314 87.6464 41.1948C87.9826 40.8582 88.1715 40.4017 88.1715 39.9256V36.9348C88.1718 36.459 87.9833 36.0027 87.6477 35.666C87.3121 35.3292 86.8566 35.1397 86.3815 35.139Z" fill="#E53935"/>
    <path d="M82.7962 24.5206C82.7962 23.777 77.7134 23.1747 71.4431 23.1747C65.1728 23.1747 60.0909 23.7814 60.0909 24.5206C60.0909 24.8898 61.346 25.2244 63.3801 25.4679V26.6899C63.3806 26.7888 63.4201 26.8836 63.4899 26.9535C63.5598 27.0235 63.6544 27.063 63.7532 27.0634H63.903C64.0019 27.0632 64.0968 27.0238 64.1669 26.9538C64.2369 26.8838 64.2764 26.789 64.2769 26.6899V25.5632C64.7452 25.6083 65.2446 25.6499 65.7709 25.6854V26.6882C65.7714 26.7871 65.8108 26.8818 65.8807 26.9518C65.9506 27.0217 66.0452 27.0612 66.144 27.0617H66.2937C66.3925 27.0612 66.4872 27.0217 66.557 26.9518C66.6269 26.8818 66.6664 26.7871 66.6668 26.6882V25.74C68.0371 25.8154 69.5553 25.8596 71.1558 25.864C71.1506 25.8888 71.1479 25.914 71.1479 25.9394V27.2853C71.1484 27.3842 71.1879 27.479 71.2577 27.5489C71.3276 27.6189 71.4222 27.6584 71.521 27.6588H71.6708C71.7696 27.6586 71.8644 27.6192 71.9343 27.5492C72.0042 27.4792 72.0436 27.3843 72.0439 27.2853V25.9394C72.0439 25.9137 72.0412 25.8882 72.036 25.8631C73.4123 25.8544 74.7194 25.8172 75.9312 25.7556V26.9863C75.9316 27.0852 75.9711 27.18 76.041 27.2499C76.1108 27.3199 76.2055 27.3594 76.3043 27.3598H76.4532C76.5521 27.3596 76.6469 27.3202 76.717 27.2502C76.7871 27.1802 76.8266 27.0854 76.8271 26.9863V25.7045C78.0839 25.6239 79.1971 25.5164 80.1163 25.3882V26.3935C80.1168 26.4924 80.1562 26.5872 80.2261 26.6571C80.296 26.7271 80.3906 26.7666 80.4894 26.767H80.6383C80.7373 26.7668 80.8321 26.7274 80.9021 26.6574C80.9722 26.5875 81.0118 26.4926 81.0122 26.3935V25.2495C82.1366 25.0363 82.7962 24.7876 82.7962 24.5206Z" fill="#E6E6E6"/>
    <path d="M83.3935 29.1564H59.4937V29.7544H83.3935V29.1564Z" fill="#3F3D56"/>
    <path d="M85.4856 34.84H57.4024V35.438H85.4856V34.84Z" fill="#3F3D56"/>
    <path d="M87.8755 40.2238H55.3112V40.8218H87.8755V40.2238Z" fill="#3F3D56"/>
    <path d="M71.7426 19.2851H70.8467V24.3698H71.7426V19.2851Z" fill="#E6E6E6"/>
    <path d="M72.5684 18.649C72.5684 19.6682 72.0006 19.689 71.3003 19.689C70.6 19.689 69.4506 19.487 70.0331 18.649C70.6468 17.7667 71.6993 16.0845 71.3003 15.9952C71.3003 15.9952 72.5684 17.6254 72.5684 18.649Z" fill="#F9A825"/>
    <path opacity="0.5" d="M71.7443 19.2764C71.7443 19.6803 71.5201 19.6872 71.2423 19.6872C70.9644 19.6872 70.51 19.6075 70.7403 19.2764C70.9835 18.9298 71.3998 18.2615 71.2423 18.226C71.4902 18.5315 71.6622 18.8915 71.7443 19.2764Z" fill="#FF6584"/>
    <path d="M76.8211 19.585H75.9252V24.6697H76.8211V19.585Z" fill="#E6E6E6"/>
    <path d="M77.6477 18.948C77.6477 19.9672 77.0798 19.988 76.3796 19.988C75.6793 19.988 74.5307 19.7861 75.1124 18.948C75.7261 18.0657 76.7786 16.3835 76.3796 16.2943C76.3796 16.2943 77.6477 17.9288 77.6477 18.948Z" fill="#F9A825"/>
    <path opacity="0.5" d="M76.8254 19.5754C76.8254 19.9793 76.6012 19.9862 76.3242 19.9862C76.0472 19.9862 75.5919 19.9065 75.8221 19.5754C76.0654 19.2288 76.4817 18.5606 76.3242 18.525C76.5718 18.8306 76.7436 19.1906 76.8254 19.5754Z" fill="#FF6584"/>
    <path d="M66.962 19.585H66.0661V24.6697H66.962V19.585Z" fill="#E6E6E6"/>
    <path d="M67.7878 18.948C67.7878 19.9672 67.22 19.988 66.5206 19.988C65.8212 19.988 64.6708 19.7861 65.2534 18.948C65.8671 18.0657 66.9196 16.3835 66.5206 16.2943C66.5206 16.2943 67.7878 17.9288 67.7878 18.948Z" fill="#F9A825"/>
    <path opacity="0.5" d="M66.9672 19.5754C66.9672 19.9793 66.743 19.9862 66.4651 19.9862C66.1873 19.9862 65.7328 19.9065 65.9631 19.5754C66.2063 19.2288 66.6227 18.5606 66.4651 18.525C66.7131 18.8305 66.8852 19.1905 66.9672 19.5754Z" fill="#FF6584"/>
    <path d="M121.593 35.646L105.876 32.8034C104.778 28.4362 103.264 23.823 105.692 19.8727C106.402 16.8896 109.587 16.0368 112.825 15.2993C114.414 14.9201 116.078 15.0134 117.615 15.5676C119.151 16.1218 120.493 17.1129 121.475 18.4193C122.15 19.2867 122.611 20.3014 122.82 21.3807C123.029 22.4601 122.98 23.5736 122.678 24.6307C124.238 26.9482 123.493 32.624 121.593 35.646Z" fill="#2F2E41"/>
    <path d="M98.0609 125.897L91.2184 121.217L100.221 89.8014L109.712 74.0957L92.1298 84.8042L93.0465 105.717L84.1889 110.215L81.8189 84.2738C81.6712 82.656 81.9909 81.0298 82.7399 79.5887C83.489 78.1477 84.6357 76.9524 86.0438 76.1453L100.535 67.8383L101.681 55.9078L117.671 53.45C123.853 61.432 127.137 68.7561 124.298 74.6928L109.885 93.2915L98.0609 125.897Z" fill="#2F2E41"/>
    <path d="M94.7076 122.505C94.7076 122.505 93.4854 120.041 92.2138 120.824C90.5645 122.153 89.0121 123.598 87.5682 125.148C87.5682 125.148 81.3585 126.925 85.6449 128.672C89.9313 130.42 91.4625 130.059 91.5447 129.718C91.6269 129.376 92.5549 128.51 92.5549 128.51L94.1848 129.261L96.7435 129.147C96.7435 129.147 99.2727 123.081 98.1873 123.081C97.1018 123.081 94.8011 123.613 94.7076 122.505Z" fill="#2F2E41"/>
    <path d="M88.51 107.214C88.51 107.214 85.7808 106.895 85.7401 108.388C85.9523 110.497 86.3145 112.587 86.8238 114.644C86.8238 114.644 84.9195 120.825 88.7281 118.181C92.5367 115.538 93.0638 114.057 92.8214 113.802C92.5925 113.326 92.4378 112.818 92.3627 112.295L93.8801 111.342L95.1785 109.132C95.1785 109.132 91.4789 103.699 90.8869 104.609C90.2948 105.519 89.4942 107.737 88.51 107.214Z" fill="#2F2E41"/>
    <path d="M111.499 29.0983C114.773 29.0983 117.428 26.4408 117.428 23.1625C117.428 19.8843 114.773 17.2267 111.499 17.2267C108.225 17.2267 105.571 19.8843 105.571 23.1625C105.571 26.4408 108.225 29.0983 111.499 29.0983Z" fill="#A0616A"/>
    <path d="M114.869 42.4433L100.327 42.3653C101.92 38.2131 103.627 34.392 106.629 34.3764C108.998 32.1733 108.739 29.1972 107.614 25.9697L115.014 26.8875C114.668 29.023 115.163 30.7875 117.028 31.9445C115.149 35.5585 114.099 39.0928 114.869 42.4433Z" fill="#A0616A"/>
    <path d="M122.456 60.6147L102.288 62.1106L100.76 52.6387C96.5487 48.6122 97.0551 44.5554 100.944 40.4786L102.364 35.2231L105.469 34.2698C105.117 34.8118 104.934 35.4459 104.943 36.0919C104.951 36.738 105.151 37.3671 105.516 37.8996C105.882 38.4322 106.397 38.8444 106.996 39.084C107.595 39.3237 108.252 39.3801 108.883 39.2461L110.021 39.0052C110.442 38.9159 110.842 38.7439 111.197 38.4993C111.551 38.2546 111.854 37.942 112.088 37.5796L116.18 31.2303L118.312 31.4947C118.554 31.5246 118.78 31.6293 118.96 31.7941C119.139 31.9589 119.262 32.1757 119.313 32.4142L121.291 41.7742C118.81 45.4342 122.472 55.6339 122.456 60.6147Z" fill="#575A89"/>
    <path d="M104.483 71.1543L106.511 74.8289C106.709 75.188 106.829 75.585 106.862 75.9938C106.896 76.4026 106.842 76.8139 106.705 77.2005C106.568 77.587 106.351 77.9401 106.067 78.2363C105.784 78.5325 105.441 78.7651 105.061 78.9187C104.616 79.0993 104.133 79.1662 103.655 79.1132C103.178 79.0603 102.721 78.8893 102.326 78.6155C101.931 78.3418 101.61 77.974 101.392 77.5452C101.175 77.1164 101.067 76.6401 101.079 76.1593L101.176 72.2315L96.9745 57.1602L97.4186 46.7602L101.82 47.4708L101.728 57.1108L104.483 71.1543Z" fill="#A0616A"/>
    <path d="M116.198 68.0707L114.302 71.8155C114.117 72.1813 114.011 72.5823 113.992 72.992C113.973 73.4016 114.041 73.8107 114.192 74.1921C114.343 74.5735 114.572 74.9185 114.866 75.2044C115.16 75.4903 115.511 75.7106 115.895 75.8507C116.347 76.0149 116.832 76.064 117.307 75.9939C117.782 75.9237 118.232 75.7364 118.616 75.4488C119.001 75.1612 119.308 74.7823 119.51 74.3462C119.713 73.9102 119.803 73.4307 119.774 72.9508L119.538 69.0283L123.203 53.8175L122.391 43.4365L118.017 44.3032L118.45 53.9336L116.198 68.0707Z" fill="#A0616A"/>
    <path d="M102.952 48.4147L96.2241 46.8096L98.6988 38.5104C98.9634 37.6237 99.4638 36.8258 100.147 36.2021C100.829 35.5785 101.669 35.1526 102.575 34.9701L104.198 34.6433L102.952 48.4147Z" fill="#575A89"/>
    <path d="M116.276 46.1639L116.41 40.9449L117.676 32.4377C117.717 32.1623 117.855 31.9106 118.064 31.7276C118.274 31.5446 118.541 31.4424 118.819 31.4393C119.055 31.4368 119.285 31.5053 119.481 31.636L125.075 44.675C124.049 47.0531 117.596 43.3325 116.276 46.1639Z" fill="#575A89"/>
    <path d="M50.7478 124.719L56.8822 119.138L43.6534 89.2606L32.0943 75.0143L50.9806 83.1991L52.9455 104.04L62.3371 107.275L61.1201 81.2543C61.0442 79.6317 60.5042 78.0651 59.5644 76.741C58.6246 75.4169 57.3247 74.3909 55.8193 73.7854L40.3252 67.5541L37.5553 55.8939L21.3792 55.6625C16.3527 64.4159 14.1082 72.1292 17.7342 77.6161L34.5595 94.0498L50.7478 124.719Z" fill="#2F2E41"/>
    <path d="M53.6068 120.896C53.6068 120.896 54.4784 118.287 55.8452 118.888C57.6607 119.976 59.3963 121.192 61.0387 122.528C61.0387 122.528 67.4338 123.433 63.4287 125.753C59.4236 128.073 57.8569 127.929 57.7288 127.601C57.6007 127.273 56.5619 126.545 56.5619 126.545L55.0515 127.513L52.5015 127.752C52.5015 127.752 49.1629 122.089 50.2371 121.939C51.3113 121.789 53.6631 122.008 53.6068 120.896Z" fill="#2F2E41"/>
    <path d="M57.6413 104.896C57.6413 104.896 60.3004 104.203 60.5437 105.676C60.6232 107.794 60.5518 109.915 60.3298 112.023C60.3298 112.023 63.0617 117.882 58.9337 115.788C54.8057 113.693 54.0725 112.3 54.2768 112.013C54.4383 111.51 54.5217 110.986 54.5243 110.458L52.8892 109.718L51.2974 107.709C51.2974 107.709 54.2153 101.816 54.9268 102.638C55.6383 103.459 56.7402 105.55 57.6413 104.896Z" fill="#2F2E41"/>
    <path d="M23.3216 30.7476C26.5958 30.7476 29.25 28.0901 29.25 24.8118C29.25 21.5336 26.5958 18.876 23.3216 18.876C20.0474 18.876 17.3932 21.5336 17.3932 24.8118C17.3932 28.0901 20.0474 30.7476 23.3216 30.7476Z" fill="#FFB9B9"/>
    <path d="M22.6326 44.3725L37.0238 42.2925C34.8754 38.3995 32.6604 34.8505 29.6836 35.2474C27.0349 33.3919 26.8826 30.4079 27.5526 27.053L20.3491 28.9814C20.9827 31.0492 20.7378 32.8658 19.0508 34.268C21.4086 37.5926 22.9355 40.9483 22.6326 44.3725Z" fill="#FFB9B9"/>
    <path d="M21.5445 57.0102C26.6584 63.6766 31.903 66.3104 37.5415 56.7814L38.0063 52.5296C41.6244 47.9605 40.565 44.0128 36.1531 40.5098L34.0246 35.5004L30.8219 34.9804C31.2443 35.4689 31.5126 36.0717 31.5929 36.7127C31.6733 37.3538 31.5621 38.0043 31.2734 38.5821C30.9847 39.1598 30.5314 39.639 29.9708 39.959C29.4102 40.2789 28.7675 40.4254 28.1239 40.3798L26.9648 40.2974C26.5353 40.267 26.116 40.1518 25.731 39.9584C25.3461 39.7651 25.0032 39.4974 24.7221 39.1708L19.796 33.4456L17.7186 34.0011C17.4832 34.0639 17.2733 34.1986 17.1181 34.3866C16.9629 34.5747 16.8702 34.8065 16.853 35.0498L16.1805 44.5909C19.139 47.8816 20.8442 52.0798 21.5445 57.0102Z" fill="#E53935"/>
    <path d="M19.2559 52.9481L7.92966 50.6454L15.4525 43.6367L12.5891 38.4523L0.430193 51.4011C0.223124 51.6394 0.0849862 51.9297 0.0307083 52.2408C-0.0235696 52.5519 0.00807244 52.8719 0.122212 53.1663C0.236352 53.4607 0.428646 53.7183 0.678342 53.9113C0.928038 54.1042 1.22565 54.2252 1.53902 54.2611L18.006 56.0872L18.682 59.0712C18.7718 59.4681 18.9558 59.8376 19.2184 60.1483C19.4809 60.4591 19.8144 60.7019 20.1905 60.8564C20.5666 61.0109 20.9744 61.0724 21.3792 61.0357C21.7841 60.9991 22.1742 60.8654 22.5166 60.6459C22.8335 60.4429 23.1013 60.1717 23.3004 59.8521C23.4995 59.5324 23.625 59.1724 23.6677 58.7981C23.7104 58.4238 23.6692 58.0447 23.5472 57.6884C23.4252 57.332 23.2254 57.0074 22.9624 56.7381L19.2559 52.9481Z" fill="#FFB9B9"/>
    <path d="M36.8655 71.3813L35.3619 75.3004C35.2151 75.6832 35.1512 76.0929 35.1742 76.5024C35.1972 76.9118 35.3068 77.3117 35.4956 77.6756C35.6844 78.0396 35.9482 78.3593 36.2696 78.6136C36.5909 78.8679 36.9624 79.051 37.3597 79.1509C37.8253 79.2679 38.3126 79.2672 38.7778 79.1488C39.243 79.0303 39.6716 78.798 40.0248 78.4725C40.3781 78.1471 40.645 77.7389 40.8015 77.2845C40.9581 76.8302 40.9993 76.344 40.9216 75.8697L40.2854 71.9923L42.3767 56.4859L40.507 46.2427L36.2448 47.5531L37.6609 57.0865L36.8655 71.3813Z" fill="#FFB9B9"/>
    <path d="M35.2572 48.6469L41.7015 46.1335L38.1101 38.2538C37.7261 37.4117 37.1204 36.6901 36.358 36.1664C35.5955 35.6428 34.7051 35.3367 33.7822 35.2811L32.1298 35.1806L35.2572 48.6469Z" fill="#E53935"/>
    <path d="M14.0303 45.4315L20.9005 43.1028L18.4769 34.8513C18.3984 34.5842 18.2275 34.3539 17.9948 34.2016C17.7621 34.0493 17.4828 33.9849 17.2071 34.0201C16.9736 34.05 16.7546 34.1497 16.5786 34.3062L9.56042 40.541C10.9038 42.7527 12.3338 42.8081 14.0303 45.4315Z" fill="#E53935"/>
    <path d="M27.26 15.1702C27.26 15.1702 30.886 15.8531 31.7247 20.3806C31.8559 21.1443 31.8798 21.9225 31.7957 22.6928C31.7091 23.5647 31.8338 25.4055 33.7233 27.5731C34.9567 28.9789 36.1059 30.4565 37.1649 31.9982L33.3762 33.0079L31.6832 26.7229C30.8624 23.6759 29.5981 20.7664 27.9308 18.0883L27.8962 18.0319C27.8962 18.0319 26.6376 21.398 23.2653 21.86L24.304 20.4889C22.3277 21.6451 20.2621 22.6412 18.1272 23.4677C17.8732 23.5484 17.6459 23.6967 17.4696 23.8966C17.2932 24.0966 17.1744 24.3408 17.1258 24.6031C17.0772 24.8654 17.1006 25.1359 17.1936 25.3859C17.2866 25.6359 17.4456 25.856 17.6537 26.0226L17.7021 26.0599C19.3468 27.3096 22.6966 30.2909 21.3731 33.1743C20.0496 36.0577 21.593 36.5847 21.593 36.5847L18.7452 35.4996L17.4416 34.9406L17.5732 35.9052L11.2111 36.0387C11.2111 36.0387 9.49203 36.0283 12.5458 31.4332C12.9547 30.4692 13.0014 29.3896 12.6774 28.3938C12.1913 27.3961 11.9495 26.2969 11.972 25.1871C12.1658 20.5635 14.1151 11.1385 27.26 15.1702Z" fill="#2F2E41"/>
    <path d="M106.274 18.4878L111.751 21.9778L112.249 20.9812C115.555 23.3732 114.846 29.491 113.245 36.4356C113.245 36.4356 119.031 38.5615 119.718 36.4356C120.94 32.6526 119.967 23.7224 119.967 23.7224L117.976 18.4878L114.74 16.7432L112.001 16.4936C112.001 16.4936 109.51 15.2473 106.274 18.4878Z" fill="#2F2E41"/>
    <path d="M114.738 26.2141C115.151 26.2141 115.485 25.7679 115.485 25.2174C115.485 24.667 115.151 24.2208 114.738 24.2208C114.326 24.2208 113.991 24.667 113.991 25.2174C113.991 25.7679 114.326 26.2141 114.738 26.2141Z" fill="#A0616A"/>
    <path d="M68.3097 6.27039C68.7328 6.27039 69.0757 5.92699 69.0757 5.50339C69.0757 5.07979 68.7328 4.73639 68.3097 4.73639C67.8866 4.73639 67.5436 5.07979 67.5436 5.50339C67.5436 5.92699 67.8866 6.27039 68.3097 6.27039Z" fill="#E6E6E6"/>
    <path d="M120.571 18.1853L119.54 15.9008L118.723 14.086L117.537 11.4548L116.717 9.6391L115.604 7.16563C115.586 7.12538 115.557 7.09062 115.522 7.06484C115.486 7.03906 115.444 7.02316 115.4 7.01876C115.356 7.01437 115.312 7.02164 115.272 7.03982C115.231 7.05799 115.197 7.08644 115.171 7.12231L114.023 8.7239L113.134 9.96064L111.85 11.759L110.963 12.9983L109.676 14.7914L108.79 16.0282L108.13 16.9468C108.104 16.9818 108.088 17.0235 108.084 17.0673C108.079 17.1108 108.086 17.1546 108.103 17.1947C108.121 17.2348 108.15 17.2694 108.186 17.295C108.221 17.3206 108.263 17.3362 108.307 17.3403L120.321 18.5406C120.359 18.5452 120.396 18.5408 120.432 18.5277C120.467 18.5145 120.499 18.4931 120.524 18.4652C120.533 18.4568 120.541 18.4476 120.549 18.4375C120.574 18.4018 120.589 18.3603 120.594 18.317C120.599 18.2719 120.592 18.226 120.571 18.1853Z" fill="#E53935"/>
    <path d="M117.537 11.4539L113.135 9.96151L114.024 8.72565L116.715 9.63824L117.537 11.4539Z" fill="#E6E6E6"/>
    <path d="M119.54 15.8999L110.963 12.994L111.85 11.7546L118.723 14.0842L119.54 15.8999Z" fill="#E6E6E6"/>
    <path d="M120.524 18.4609C120.498 18.4886 120.467 18.5098 120.432 18.5228C120.396 18.5357 120.359 18.5401 120.321 18.5355L114.479 17.9522L108.79 16.0238L109.676 14.7871L120.524 18.4609Z" fill="#E6E6E6"/>
    <path d="M115.5 8.02362C116.6 8.02362 117.492 7.13078 117.492 6.02942C117.492 4.92805 116.6 4.03522 115.5 4.03522C114.4 4.03522 113.508 4.92805 113.508 6.02942C113.508 7.13078 114.4 8.02362 115.5 8.02362Z" fill="#E53935"/>
    <path d="M28.3757 15.6208L27.1232 13.4498L26.1295 11.7252L24.6883 9.22481L23.6929 7.50015L22.3409 5.15234C22.3189 5.11438 22.2873 5.08286 22.2493 5.06096C22.2113 5.03905 22.1683 5.02753 22.1245 5.02753C22.0806 5.02753 22.0376 5.03905 21.9996 5.06096C21.9616 5.08286 21.9301 5.11438 21.9081 5.15234L20.9247 6.85967L20.163 8.17874L19.0603 10.0906L18.3012 11.4114L17.1984 13.3233L16.4393 14.6415L15.874 15.6208C15.8509 15.6583 15.8389 15.7016 15.8394 15.7456C15.8394 15.7892 15.8505 15.8322 15.8714 15.8704C15.8933 15.9085 15.9248 15.9401 15.9628 15.962C16.0009 15.9839 16.044 15.9954 16.0878 15.9952H28.1628C28.2003 15.996 28.2375 15.9879 28.2712 15.9715C28.3049 15.9551 28.3342 15.9308 28.3567 15.9007C28.3651 15.8917 28.3726 15.8818 28.3792 15.8713C28.4002 15.833 28.4112 15.7901 28.4112 15.7465C28.4117 15.702 28.3994 15.6584 28.3757 15.6208Z" fill="#E53935"/>
    <path d="M24.6892 9.22397L20.163 8.17704L20.9247 6.85797L23.6946 7.49844L24.6892 9.22397Z" fill="#E6E6E6"/>
    <path d="M27.1232 13.4498L18.3003 11.4106L19.0594 10.0898L26.1295 11.7252L27.1232 13.4498Z" fill="#E6E6E6"/>
    <path d="M28.3558 15.8999C28.3334 15.93 28.3041 15.9543 28.2704 15.9708C28.2366 15.9872 28.1994 15.9953 28.1619 15.9944H22.2915L16.4384 14.6406L17.1975 13.3224L28.3558 15.8999Z" fill="#E6E6E6"/>
    <path d="M22.1245 6.02423C23.2245 6.02423 24.1162 5.13139 24.1162 4.03003C24.1162 2.92866 23.2245 2.03583 22.1245 2.03583C21.0245 2.03583 20.1328 2.92866 20.1328 4.03003C20.1328 5.13139 21.0245 6.02423 22.1245 6.02423Z" fill="#E53935"/>
  </g>
  <defs>
    <clipPath id="clip0_1_1595">
      <rect width="131" height="130" fill="white"/>
    </clipPath>
  </defs>
</svg>