<svg xmlns="http://www.w3.org/2000/svg" width="136" height="136" viewBox="0 0 136 136" fill="none">
  <g clip-path="url(#clip0_1_1064)">
    <path d="M67.9996 118.995C96.1658 118.995 118.999 96.1785 118.999 68.0335C118.999 39.8885 96.1658 17.0725 67.9996 17.0725C39.8333 17.0725 17.0001 39.8885 17.0001 68.0335C17.0001 96.1785 39.8333 118.995 67.9996 118.995Z" fill="#134F19" fill-opacity="0.05"/>
    <path d="M67.9995 135.979C105.555 135.979 135.999 105.558 135.999 68.0308C135.999 30.504 105.555 0.0824585 67.9995 0.0824585C30.4444 0.0824585 0 30.504 0 68.0308C0 105.558 30.4444 135.979 67.9995 135.979Z" fill="#134F19" fill-opacity="0.05"/>
    <path d="M103.494 57.6287L104.329 101.965L106.104 102.173L105.435 57.4546L103.494 57.6287Z" fill="#F5C5CC"/>
    <path d="M99.2033 56.7946L100.038 101.131L101.813 101.339L101.144 56.6205L99.2033 56.7946Z" fill="#F5C5CC"/>
    <path d="M100.252 54.4771L100.343 102.831L102.158 102.658L101.466 53.5278L100.252 54.4771Z" fill="#CC929B"/>
    <path d="M50.1982 46.4041L50.9604 86.5885L52.7352 86.7753L52.14 46.2418L50.1982 46.4041Z" fill="#F5C5CC"/>
    <path d="M51.2226 45.6525L52.101 87.478L52.7361 86.7771L52.1391 46.2419L51.2226 45.6525Z" fill="#CC929B"/>
    <path d="M53.9746 47.4214L54.7404 87.6067L56.5152 87.7935L55.9173 47.2592L53.9746 47.4214Z" fill="#F5C5CC"/>
    <path d="M54.999 46.668L55.8782 88.4934L56.5134 87.7926L55.9155 47.2582L54.999 46.668Z" fill="#CC929B"/>
    <path d="M57.6657 48.523L58.4316 88.7101L60.2063 88.8969L59.6084 48.3625L57.6657 48.523Z" fill="#F5C5CC"/>
    <path d="M58.6901 47.7733L59.5694 89.5969L60.2045 88.896L59.6066 48.3617L58.6901 47.7733Z" fill="#CC929B"/>
    <path d="M61.257 48.747L62.0455 90.3448L63.8203 90.538L63.1978 48.5811L61.257 48.747Z" fill="#F5C5CC"/>
    <path d="M62.2796 47.97L63.187 91.2633L63.8221 90.538L63.1997 48.5811L62.2796 47.97Z" fill="#CC929B"/>
    <path d="M65.1505 49.0679L65.9399 90.664L67.7146 90.8571L67.0922 48.9002L65.1505 49.0679Z" fill="#F5C5CC"/>
    <path d="M66.1758 48.2946L67.0831 91.5861L67.7183 90.8607L67.0958 48.9038L66.1758 48.2946Z" fill="#CC929B"/>
    <path d="M68.9767 50.4307L69.7644 92.0285L71.5391 92.2217L70.9185 50.2648L68.9767 50.4307Z" fill="#F5C5CC"/>
    <path d="M70.0003 49.6536L70.9076 92.947L71.5428 92.2216L70.9221 50.2647L70.0003 49.6536Z" fill="#CC929B"/>
    <path d="M73.3556 51.3282L74.1641 94.0867L75.9388 94.2852L75.2974 51.1578L73.3556 51.3282Z" fill="#F5C5CC"/>
    <path d="M74.3791 50.5313L75.3037 95.0323L75.9388 94.2861L75.2974 51.1578L74.3791 50.5313Z" fill="#CC929B"/>
    <path d="M77.1665 51.7834L77.9732 94.5418L79.7497 94.7404L79.1064 51.613L77.1665 51.7834Z" fill="#F5C5CC"/>
    <path d="M78.19 50.9837L79.1146 95.4865L79.7498 94.7403L79.1064 51.612L78.19 50.9837Z" fill="#CC929B"/>
    <path d="M81.2042 52.9258L82.0127 95.6842L83.7875 95.8845L83.1469 52.7571L81.2042 52.9258Z" fill="#F5C5CC"/>
    <path d="M82.2286 52.1252L83.1514 96.628L83.7865 95.8818L83.145 52.7544L82.2286 52.1252Z" fill="#CC929B"/>
    <path d="M46.7394 46.3343L46.6487 43.7893L47.547 43.2988L111.999 56.5081L112.118 59.7394L46.7394 46.3343Z" fill="#F5C5CC"/>
    <path d="M47.5524 43.297L112.241 56.4954L112.176 57.7057L46.7866 43.7132" fill="#CC929B"/>
    <path d="M50.2209 109.679L48.4062 110.339H46.6823L46.5915 42.2054L47.5424 40.8862L48.4598 40.6142L49.6157 40.4401L50.2209 109.679Z" fill="#F5C5CC"/>
    <path d="M50.2209 109.679L48.4062 110.339L48.2937 42.3387L48.4598 40.616L49.6184 40.4456L50.2209 109.679Z" fill="#CC929B"/>
    <path d="M85.5903 54.1888L86.3997 96.9454L88.1745 97.1457L87.533 54.0183L85.5903 54.1888Z" fill="#F5C5CC"/>
    <path d="M86.6129 53.3891L87.5375 97.8919L88.1727 97.1457L87.5311 54.0183L86.6129 53.3891Z" fill="#CC929B"/>
    <path d="M90.0091 54.8634L90.833 98.5357L92.6078 98.7397L91.949 54.6911L90.0091 54.8634Z" fill="#F5C5CC"/>
    <path d="M94.5595 55.663L95.3942 99.999L97.169 100.208L96.5021 55.489L94.5595 55.663Z" fill="#F5C5CC"/>
    <path d="M95.583 54.8362L96.5348 100.979L97.1699 100.206L96.5031 55.4872L95.583 54.8362Z" fill="#CC929B"/>
    <path d="M25.0746 96.6136L23.2599 96.7867L23.1755 49.0915V48.4333L24.385 47.4831L24.4041 48.8059L25.0746 96.6136Z" fill="#F5C5CC"/>
    <path d="M31.4696 93.9371L29.6549 94.1093L29.5705 47.193V45.7559L30.78 44.8057L30.8082 46.7333L31.4696 93.9371Z" fill="#F5C5CC"/>
    <path d="M42.0112 89.6195L40.1965 89.7918L40.114 43.4674V41.4383L41.3235 40.4882L41.3616 43.1782L42.0112 89.6195Z" fill="#F5C5CC"/>
    <path d="M46.5915 87.8923L44.7768 88.0646L44.6952 42.8717L44.6897 39.7111L45.8992 38.7609L45.9618 43.151L46.5915 87.8923Z" fill="#F5C5CC"/>
    <path d="M28.2721 96.0958L26.4574 96.2681L26.3667 48.2601V47.9146L27.5762 46.9645L27.588 47.8711L28.2721 96.0958Z" fill="#F5C5CC"/>
    <path d="M37.6042 91.7783L35.7895 91.9505L35.7051 44.8474V43.5971L36.9146 42.6469L36.9391 44.4185L37.6042 91.7783Z" fill="#F5C5CC"/>
    <path d="M34.58 92.6414L32.7653 92.8137L32.6828 45.9952V44.4602L33.8923 43.5101L33.9204 45.5102L34.58 92.6414Z" fill="#F5C5CC"/>
    <path d="M23.1402 88.6458L22.7083 89.5524C21.9601 90.8472 21.6128 92.3345 21.7102 93.8264C21.8399 96.4168 19.9009 103.281 19.9009 103.281C20.8777 103.732 21.9357 103.982 23.0113 104.015C24.3506 103.924 27.2459 105.353 27.2459 105.353L33.2462 107.213L45.3866 110.063C45.3866 110.063 52.5156 114.035 54.4601 114.035C56.4045 114.035 64.1379 116.664 64.1379 116.664C64.1379 116.664 74.5933 118.953 75.4144 119.816C76.2356 120.679 79.6971 121.842 80.0419 121.889C80.3867 121.936 85.6584 122.45 85.6584 122.45C85.6584 122.45 91.7939 123.874 92.6577 122.359C93.1628 121.51 93.5015 120.572 93.6558 119.597C93.6558 119.597 96.3778 120.2 97.1119 119.295C97.8459 118.389 97.8895 116.445 98.7542 116.532C99.6189 116.619 103.161 117.698 103.55 117.309C103.938 116.92 106.012 112.344 107.481 113.035C108.95 113.726 111.499 114.805 111.499 114.805L110.03 99.8676L109.382 95.7667C109.382 95.7667 85.8353 105.351 85.0142 105.351C84.193 105.351 23.1402 88.6458 23.1402 88.6458Z" fill="#E53935"/>
    <path d="M109.253 75.5644L109.123 96.6326L84.6639 106.005L22.7073 89.5561C22.7073 89.5561 18.5163 83.6419 22.4052 78.1148C22.4052 78.1148 17.3939 71.207 23.6147 66.7171L23.768 66.6809L47.292 61.0187L57.7528 62.9291L103.974 71.3774C103.974 71.3774 108.514 73.0602 109.253 75.5644Z" fill="#E53935"/>
    <path opacity="0.1" d="M56.9235 64.9437C55.7567 65.5485 47.2884 67.7544 45.6034 69.0881C43.9185 70.4218 32.2527 71.4663 32.2527 71.4663L30.957 71.7256C30.957 71.7256 31.0477 70.8624 25.9021 68.3582C25.0808 67.9546 24.3532 67.3835 23.7662 66.6818L47.2893 61.0197L57.7501 62.93C57.8159 63.3094 57.7732 63.6996 57.627 64.0558C57.4807 64.412 57.2369 64.7197 56.9235 64.9437Z" fill="black"/>
    <path d="M21.3681 56.6151C21.3681 56.6151 20.9362 64.9908 26.0772 67.4951C31.2183 69.9993 31.1375 70.8588 31.1375 70.8588L32.4332 70.5995C32.4332 70.5995 27.94 65.5911 28.2422 64.7279C28.5443 63.8648 24.2244 59.5037 23.6147 59.3314C23.0049 59.1592 21.3681 56.6151 21.3681 56.6151Z" fill="#E53935"/>
    <path opacity="0.1" d="M21.4597 56.7411C21.4597 56.7411 21.0278 65.1169 26.1689 67.6211C31.3099 70.1253 31.2237 70.9884 31.2237 70.9884L32.5194 70.7291C32.5194 70.7291 28.0262 65.7207 28.3284 64.8576C28.6305 63.9944 24.3052 59.6334 23.7009 59.4611C23.0966 59.2888 21.4597 56.7411 21.4597 56.7411Z" fill="black"/>
    <path opacity="0.1" d="M22.6692 60.2816C22.6692 60.2816 26.8167 66.5376 27.5517 66.7579C28.2867 66.9782 23.6583 60.3677 22.6692 60.2816Z" fill="black"/>
    <path d="M20.7683 55.4427C20.7683 55.4427 23.4468 53.2839 23.7925 52.8523C24.1382 52.4208 27.94 52.2476 28.0698 52.2476C30.0351 51.1769 32.1432 50.392 34.3305 49.9166C37.5706 49.3553 38.8672 49.1006 38.8672 49.1006C38.8672 49.1006 43.62 47.115 43.8795 46.6825C44.139 46.25 46.342 45.7758 49.0641 47.8911C51.7861 50.0063 57.7919 59.5046 57.8345 60.5409C57.8772 61.5772 58.2664 63.4767 57.0995 64.0769C55.9327 64.6771 47.4644 66.8875 45.7795 68.2212C44.0945 69.555 32.4242 70.5994 32.4242 70.5994L28.0271 65.8077L25.6943 62.0514L21.8054 57.9496L20.7683 55.4427Z" fill="#E53935"/>
    <path opacity="0.1" d="M27.9918 92.733C27.9918 92.733 26.3794 93.0784 27.3003 94.0023C28.2213 94.9262 27.9918 92.733 27.9918 92.733Z" fill="black"/>
    <path opacity="0.1" d="M33.6382 94.5763C33.6382 94.5763 31.9142 96.6489 32.2554 97.2237C32.5966 97.7986 33.6382 94.5763 33.6382 94.5763Z" fill="black"/>
    <path opacity="0.1" d="M43.7778 97.2238C43.7778 97.2238 42.0539 99.2964 42.395 99.8712C42.7362 100.446 43.7778 97.2238 43.7778 97.2238Z" fill="black"/>
    <path opacity="0.1" d="M56.1051 100.677C56.1051 100.677 54.3811 102.75 54.7223 103.325C55.0634 103.9 56.1051 100.677 56.1051 100.677Z" fill="black"/>
    <path opacity="0.1" d="M72.696 104.822C72.696 104.822 70.972 106.894 71.3132 107.469C71.6543 108.044 72.696 104.822 72.696 104.822Z" fill="black"/>
    <path opacity="0.1" d="M38.5932 95.1511C38.5932 95.1511 36.8693 97.2237 37.2104 97.7986C37.5516 98.3734 38.5932 95.1511 38.5932 95.1511Z" fill="black"/>
    <path opacity="0.1" d="M62.6725 102.404C62.6725 102.404 60.9485 104.475 61.2897 105.051C61.6308 105.627 62.6725 102.404 62.6725 102.404Z" fill="black"/>
    <path opacity="0.1" d="M67.7409 104.016C67.7409 104.016 66.017 106.088 66.3582 106.665C66.6993 107.241 67.7409 104.016 67.7409 104.016Z" fill="black"/>
    <path opacity="0.1" d="M48.271 98.6046C48.271 98.6046 46.5471 100.677 46.8882 101.252C47.2294 101.827 48.271 98.6046 48.271 98.6046Z" fill="black"/>
    <path opacity="0.1" d="M91.822 111.155L93.6504 119.601C93.6504 119.601 93.664 113.686 91.822 111.155Z" fill="black"/>
    <path opacity="0.1" d="M97.4667 112.42L98.7488 116.539C98.5394 115.108 98.1067 113.718 97.4667 112.42Z" fill="black"/>
    <path opacity="0.1" d="M103.55 117.312C103.55 117.312 100.814 107.355 100.237 106.664C99.6597 105.973 101.903 116.68 103.55 117.312Z" fill="black"/>
    <path opacity="0.1" d="M106.799 112.65C106.799 112.65 103.574 107.009 104.841 105.973C106.107 104.937 106.799 112.65 106.799 112.65Z" fill="black"/>
    <path opacity="0.1" d="M22.4052 78.113L85.0233 92.16L109.104 85.1369L84.7937 91.47C84.7937 91.47 24.3061 77.5373 22.4052 78.113Z" fill="black"/>
    <path d="M24.297 62.8529L24.3878 103.046L26.1589 103.262L26.2497 62.7233L24.297 62.8529Z" fill="#F5C5CC"/>
    <path d="M25.3341 62.1185L25.5065 103.953L26.1544 103.262L26.2451 62.7232L25.3341 62.1185Z" fill="#CC929B"/>
    <path d="M28.0562 63.9318L28.1469 104.125L29.9181 104.341L30.0088 63.8022L28.0562 63.9318Z" fill="#F5C5CC"/>
    <path d="M29.0933 63.1983L29.2666 105.033L29.9144 104.342L30.0052 63.8031L29.0933 63.1983Z" fill="#CC929B"/>
    <path d="M31.7291 65.0978L31.8199 105.291L33.591 105.507L33.6818 64.9681L31.7291 65.0978Z" fill="#F5C5CC"/>
    <path d="M32.7653 64.3634L32.9377 106.198L33.5856 105.507L33.6763 64.9682L32.7653 64.3634Z" fill="#CC929B"/>
    <path d="M35.315 65.3816L35.4057 106.987L37.1769 107.21L37.2676 65.2474L35.315 65.3816Z" fill="#F5C5CC"/>
    <path d="M36.3521 64.6227L36.5254 107.925L37.1732 107.21L37.264 65.2474L36.3521 64.6227Z" fill="#CC929B"/>
    <path d="M39.203 65.7715L39.2937 107.377L41.0649 107.6L41.1556 65.6373L39.203 65.7715Z" fill="#F5C5CC"/>
    <path d="M40.2401 65.0117L40.4125 108.314L41.0603 107.599L41.1511 65.6363L40.2401 65.0117Z" fill="#CC929B"/>
    <path d="M43.0048 67.1958L43.0955 108.8L44.8667 109.023L44.9574 67.0607L43.0048 67.1958Z" fill="#F5C5CC"/>
    <path d="M44.0419 66.436L44.2143 109.738L44.8621 109.024L44.9529 67.0616L44.0419 66.436Z" fill="#CC929B"/>
    <path d="M48.4062 67.3853L48.5795 111.896L49.2274 111.161L49.3181 68.0282L48.4062 67.3853Z" fill="#CC929B"/>
    <path d="M51.1709 68.6837L51.2617 111.449L53.0328 111.679L53.1236 68.5458L51.1709 68.6837Z" fill="#F5C5CC"/>
    <path d="M52.208 67.9039L52.3804 112.415L53.0283 111.68L53.119 68.5468L52.208 67.9039Z" fill="#CC929B"/>
    <path d="M55.1887 69.8932L55.2794 112.658L57.0506 112.887L57.1413 69.7545L55.1887 69.8932Z" fill="#F5C5CC"/>
    <path d="M56.2258 69.1125L56.3991 113.624L57.0469 112.888L57.1377 69.7554L56.2258 69.1125Z" fill="#CC929B"/>
    <path d="M59.553 71.2314L59.6438 113.997L61.4149 114.226L61.5056 71.0936L59.553 71.2314Z" fill="#F5C5CC"/>
    <path d="M60.5901 70.4507L60.7625 114.962L61.4104 114.226L61.5011 71.0936L60.5901 70.4507Z" fill="#CC929B"/>
    <path d="M63.96 71.9867L64.0508 115.663L65.8219 115.898L65.9127 71.8452L63.96 71.9867Z" fill="#F5C5CC"/>
    <path d="M64.9971 71.1852L65.1695 116.646L65.8174 115.896L65.9081 71.8425L64.9971 71.1852Z" fill="#CC929B"/>
    <path d="M68.4968 72.858L68.5875 117.199L70.3587 117.438L70.4494 72.7147L68.4968 72.858Z" fill="#CC929B"/>
    <path d="M73.1197 74.0674L73.2104 118.409L74.9816 118.647L75.0723 73.9242L73.1197 74.0674Z" fill="#F5C5CC"/>
    <path d="M74.1559 73.2569L74.3283 119.406L74.9762 118.645L75.0669 73.9215L74.1559 73.2569Z" fill="#CC929B"/>
    <path d="M77.397 74.9741L77.4877 119.316L79.2589 119.554L79.3496 74.8309L77.397 74.9741Z" fill="#CC929B"/>
    <path d="M21.9642 110.86L20.1495 111.551H18.4256L18.3348 48.1749L19.2857 46.7931L20.2031 46.512L21.5323 46.1031L21.9642 110.86Z" fill="#F5C5CC"/>
    <path d="M21.9642 110.86L20.1495 111.551L20.037 48.3136L20.2031 46.5102L21.5323 46.1013L21.9642 110.86Z" fill="#CC929B"/>
    <path d="M20.3228 113.538C21.4684 113.538 22.397 112.61 22.397 111.466C22.397 110.321 21.4684 109.393 20.3228 109.393C19.1773 109.393 18.2486 110.321 18.2486 111.466C18.2486 112.61 19.1773 113.538 20.3228 113.538Z" fill="#40414D"/>
    <path d="M114.77 120.562L112.955 121.222H111.231L111.14 51.535L112.091 51.7698L113.009 51.4978L114.338 51.1079L114.77 120.562Z" fill="#F5C5CC"/>
    <path d="M114.77 120.562L112.955 121.222L112.843 53.2223L113.009 51.4996L114.338 51.1097L114.77 120.562Z" fill="#CC929B"/>
    <path d="M89.6235 107.493L87.8088 107.665L87.7262 61.1094V59.3114L88.9357 58.3613L88.9702 60.8428L89.6235 107.493Z" fill="#F5C5CC"/>
    <path d="M96.0176 104.816L94.2029 104.988L94.1213 59.2924L94.1158 56.635L95.3253 55.6848L95.3698 58.8382L96.0176 104.816Z" fill="#F5C5CC"/>
    <path d="M106.56 100.5L104.745 100.672L104.664 55.0828L104.658 52.3183L105.868 51.3682L105.913 54.5651L106.56 100.5Z" fill="#F5C5CC"/>
    <path d="M109.239 50.592L109.329 98.9455L111.144 98.7732L110.453 49.6428L109.239 50.592Z" fill="#F5C5CC"/>
    <path d="M92.821 106.975L91.0063 107.148L90.9237 60.3279V58.7947L92.1332 57.8445L92.1623 59.9534L92.821 106.975Z" fill="#F5C5CC"/>
    <path d="M99.1289 103.521L97.3142 103.694L97.2371 58.1174L97.2316 55.3384L98.4411 54.3882L98.4856 57.6142L99.1289 103.521Z" fill="#F5C5CC"/>
    <path d="M102.642 102.369L100.827 102.542L100.746 56.9677V56.6957L100.74 54.1879L101.95 53.2386L101.992 56.1843V56.4645L102.642 102.369Z" fill="#F5C5CC"/>
    <path d="M85.9941 107.177L111.053 96.5274L112.777 96.93L112.834 100.902L86.4569 111.09L85.9941 107.177Z" fill="#F5C5CC"/>
    <path d="M111.053 96.5274L85.9941 107.177L112.688 96.9073" fill="#CC929B"/>
    <path d="M21.0705 101.535L84.2656 120.704L84.1495 123.812L20.8409 104.298L21.0705 101.535Z" fill="#F5C5CC"/>
    <path d="M87.0312 131.584L85.2165 132.275H83.4926L83.4018 61.2989V60.9534L83.537 60.7567L84.3536 59.5717L85.2709 59.2897L86.6002 58.8808L86.6139 61.2989L87.0312 131.584Z" fill="#F5C5CC"/>
    <path d="M87.0321 131.584L85.2174 132.275L85.1049 61.0931L85.271 59.2906L86.6002 58.8817L87.0321 131.584Z" fill="#CC929B"/>
    <path opacity="0.1" d="M86.5993 58.8808L86.6129 61.2989C86.1127 61.3718 85.6091 61.419 85.104 61.4403C84.5329 61.4999 83.9556 61.4526 83.4018 61.3007C83.4018 61.2762 83.4499 61.0831 83.537 60.7567L84.3536 59.5717L85.2709 59.2906L86.5993 58.8808Z" fill="black"/>
    <path opacity="0.1" d="M88.9321 58.3622L88.9666 60.8437C88.5208 60.9471 88.1071 61.0356 87.7254 61.1094V59.3115L88.9321 58.3622Z" fill="black"/>
    <path opacity="0.1" d="M92.1296 57.8445L92.1587 59.9534C91.7286 60.0894 91.3157 60.2145 90.9229 60.3279V58.7947L92.1296 57.8445Z" fill="black"/>
    <path opacity="0.1" d="M95.3271 55.6857L95.3716 58.8391C94.9391 58.9992 94.5226 59.1503 94.1222 59.2924V56.6349L95.3271 55.6857Z" fill="black"/>
    <path opacity="0.1" d="M98.4384 54.391L98.4838 57.6169L97.4857 58.0177L97.2316 58.1192V55.3403L98.4384 54.391Z" fill="black"/>
    <path opacity="0.1" d="M105.914 54.5651L104.665 55.0828V52.3202L105.874 51.37L105.914 54.5651Z" fill="black"/>
    <path opacity="0.1" d="M101.994 56.1852L100.749 56.703V54.1951L101.958 53.2449L101.994 56.1852Z" fill="black"/>
    <path d="M115.374 52.6638C114.016 52.6817 112.658 52.595 111.313 52.4045C110.449 52.1452 108.634 53.1815 97.4875 57.6713C90.7477 60.3913 87.0058 61.0178 85.1049 61.0922C84.5338 61.1518 83.9565 61.1044 83.4027 60.9525C83.4027 60.9525 85.6784 50.5186 92.9299 48.5693C93.7382 48.3494 94.5329 48.0824 95.3099 47.7696L95.4496 47.7161C96.0583 47.4805 96.6825 47.2872 97.3179 47.1377C99.6443 46.6036 101.305 45.5836 105.509 45.5519C108.118 45.5082 110.665 46.3523 112.73 47.9455C113.51 48.4697 114.156 49.1699 114.615 49.9895C115.075 50.8091 115.335 51.7252 115.374 52.6638Z" fill="#CC929B"/>
    <path d="M95.759 47.6553C86.7899 51.5205 85.4207 58.7439 85.1049 61.0921C84.5338 61.1517 83.9565 61.1044 83.4027 60.9525C83.4027 60.9525 85.6784 50.5186 92.9299 48.5684C93.7382 48.3485 94.5329 48.0814 95.3099 47.7687L95.4496 47.7152C95.5494 47.7007 95.6529 47.6798 95.759 47.6553Z" fill="#F5C5CC"/>
    <path opacity="0.1" d="M24.3832 47.4831L24.4023 48.8059C23.9649 48.9147 23.5575 49.0099 23.1755 49.0906V48.4324L24.3832 47.4831Z" fill="black"/>
    <path opacity="0.1" d="M27.5807 46.9654L27.5925 47.8721C27.1691 48.0123 26.7617 48.1408 26.3703 48.2574V47.912L27.5807 46.9654Z" fill="black"/>
    <path opacity="0.1" d="M30.7773 44.8066L30.8054 46.7342C30.382 46.8968 29.9701 47.05 29.5696 47.1938V45.7568L30.7773 44.8066Z" fill="black"/>
    <path opacity="0.1" d="M33.8895 43.511L33.9167 45.5111C33.5193 45.6646 33.108 45.8263 32.6828 45.9962V44.4612L33.8895 43.511Z" fill="black"/>
    <path opacity="0.1" d="M36.9128 42.6478L36.9373 44.4195C36.5453 44.5506 36.1346 44.6933 35.7051 44.8474V43.5971L36.9128 42.6478Z" fill="black"/>
    <path opacity="0.1" d="M41.3198 40.4891L41.3579 43.1801C40.9759 43.2599 40.5631 43.3523 40.114 43.4684V41.4393L41.3198 40.4891Z" fill="black"/>
    <path opacity="0.1" d="M45.9618 43.1456C45.554 42.992 45.1262 42.8976 44.6916 42.8655V39.7048L45.901 38.7546L45.9618 43.1456Z" fill="black"/>
    <path d="M50.3071 43.1665C48.9487 43.1845 47.5909 43.0978 46.2458 42.9072C45.382 42.6479 43.5673 41.267 32.4205 45.7568C25.6807 48.4768 21.9388 49.1033 20.0379 49.1777C19.4668 49.2373 18.8895 49.19 18.3357 49.038C18.3357 49.038 20.0515 39.9714 27.6198 38.4418C28.0421 38.3596 28.4592 38.2531 28.8692 38.1227C29.3337 37.9704 30.0669 37.7527 31.0523 37.527C35.1065 36.6505 39.2613 36.3299 43.4022 36.5741C45.3423 36.6465 47.1824 37.4525 48.5505 38.829C49.1227 39.3949 49.5735 40.0714 49.8755 40.8171C50.1775 41.5628 50.3244 42.3622 50.3071 43.1665Z" fill="#CC929B"/>
    <path d="M31.0513 37.5261C22.0822 41.3912 20.3537 46.8285 20.0379 49.1776C19.4668 49.2373 18.8895 49.1899 18.3357 49.038C18.3357 49.038 20.0515 39.9714 27.6198 38.4418C28.0421 38.3597 28.4592 38.2531 28.8692 38.1227C29.3328 37.9649 30.066 37.7518 31.0513 37.5261Z" fill="#F5C5CC"/>
    <path d="M20.8409 62.7232L20.7974 60.1764L21.7047 59.7013L83.7475 73.6032L83.5751 76.8409L20.8409 62.7232Z" fill="#F5C5CC"/>
    <path d="M21.7047 59.7013L83.7475 73.6032L83.6568 74.8118L20.928 60.1057" fill="#CC929B"/>
    <path d="M112.955 123.295C114.101 123.295 115.029 122.367 115.029 121.222C115.029 120.078 114.101 119.15 112.955 119.15C111.81 119.15 110.881 120.078 110.881 121.222C110.881 122.367 111.81 123.295 112.955 123.295Z" fill="#40414D"/>
    <path d="M85.476 135.038C86.6216 135.038 87.5502 134.11 87.5502 132.965C87.5502 131.821 86.6216 130.893 85.476 130.893C84.3305 130.893 83.4018 131.821 83.4018 132.965C83.4018 134.11 84.3305 135.038 85.476 135.038Z" fill="#40414D"/>
    <path d="M23.2027 90.3676C22.1774 91.5243 21.3589 92.8485 20.7829 94.2825C20.2076 96.1249 21.4742 103.033 21.4742 103.033C22.1238 101.883 22.5903 100.64 22.8571 99.3472C23.3171 97.1612 23.2027 90.3676 23.2027 90.3676Z" fill="#E53935"/>
    <path d="M110.708 107.58C110.708 107.58 111.831 113.279 111.917 114.142C112.003 115.005 109.065 113.711 109.065 113.711L110.708 107.58Z" fill="#E53935"/>
    <path d="M76.6602 37.0682H76.6312C76.6241 37.0096 76.6023 36.9537 76.5676 36.9059C76.4887 36.8137 76.391 36.7395 76.2809 36.6883L75.4707 36.235L76.1702 36.4888C76.1374 36.4325 76.101 36.3783 76.0613 36.3265L76.143 36.3719L76.0877 36.2939L76.0132 36.2676C75.8064 36.057 75.5565 35.8935 75.2805 35.7883C75.0046 35.6831 74.7092 35.6388 74.4145 35.6583H74.4245C74.5025 35.6484 74.5814 35.6411 74.6595 35.6357C74.4867 35.6248 74.3132 35.63 74.1414 35.6511C74.1608 35.6595 74.1812 35.6652 74.2022 35.6683C74.1444 35.671 74.0869 35.6767 74.0298 35.6855C73.9407 35.7098 73.8467 35.7098 73.7576 35.6855C73.7028 35.6578 73.6552 35.6176 73.6188 35.5682C73.5824 35.5187 73.5582 35.4614 73.548 35.4008C73.5159 35.039 73.5466 34.6743 73.6387 34.3228C73.6582 34.1535 73.6399 33.982 73.5852 33.8205V33.7172C73.5566 33.6408 73.5104 33.5723 73.4504 33.5171C73.3903 33.462 73.318 33.4218 73.2395 33.3998C73.2387 33.4131 73.2387 33.4264 73.2395 33.4397L73.2105 33.4279V34.3573C72.942 34.1459 72.7042 33.8985 72.5036 33.622C72.4679 33.5798 72.4435 33.5293 72.4329 33.4751C72.4156 33.3182 72.6143 33.2094 72.6279 33.0499C72.6273 32.9988 72.6102 32.9493 72.5791 32.9088C72.548 32.8683 72.5047 32.8389 72.4555 32.825L72.5073 32.806C72.4457 32.7775 72.3779 32.7657 72.3104 32.7715C72.1623 32.8053 72.0168 32.8492 71.8748 32.903L71.9202 32.912C71.8868 32.9229 71.8529 32.932 71.8186 32.9392C71.3849 33.0299 71.002 32.6836 70.6853 32.3708L70.6182 32.3037C70.4694 31.0035 70.2298 29.5129 70.2298 29.5129C70.1201 28.6292 69.9469 27.7544 69.7117 26.8954C69.4095 25.9806 68.974 24.364 68.974 24.364C68.6324 23.6462 68.2276 22.9602 67.7645 22.314C67.6811 22.2724 67.5999 22.2264 67.5214 22.1762C67.4275 21.882 67.3694 21.5776 67.3481 21.2695C67.2945 19.5532 69.1301 18.3337 69.4059 16.6328C69.6319 15.2511 68.7608 13.8702 68.8878 12.4694C68.9977 11.8642 69.1443 11.2662 69.327 10.6788C69.4533 10.0958 69.4702 9.49446 69.3769 8.90532C69.3326 8.58969 69.237 8.28343 69.0938 7.99865C69.3449 7.67426 69.5543 7.31971 69.7171 6.94329C69.8195 6.53098 69.8314 6.10144 69.7521 5.68409C69.6729 5.26674 69.5043 4.87143 69.258 4.52521C68.4982 3.33267 67.4849 2.32192 66.2901 1.56476C65.0954 0.807604 63.7484 0.322602 62.3449 0.144199C61.2715 0.0453726 60.1954 0.0263307 59.1202 0.00910401C57.8861 -0.0970814 56.6433 0.0529409 55.4699 0.449744C53.2016 1.39812 52.1291 3.93134 50.7517 5.97588C49.614 7.66691 48.1571 9.11994 46.4627 10.2535C45.666 10.7857 44.7387 11.3515 44.5482 12.2963C44.5307 12.386 44.5197 12.4769 44.5155 12.5683C44.4922 12.4853 44.4731 12.4011 44.4583 12.3162C44.2696 13.3027 44.9665 14.2202 45.3221 15.1568C45.5083 15.6486 45.6158 16.1666 45.6406 16.6918C45.6545 16.4432 45.6545 16.1941 45.6406 15.9456C45.9863 17.7381 45.3521 19.6629 44.9601 21.4944C44.9302 21.6295 44.9084 21.7664 44.8803 21.8988C44.5589 21.9885 44.253 22.1264 43.9729 22.3077C43.3576 22.7168 42.6607 22.9878 41.9305 23.1019C40.9507 23.2559 40.0694 23.785 39.4733 24.5771C39.3627 24.7257 39.2556 24.8273 39.1621 24.8382C38.7729 24.8835 36.6061 31.6454 36.6061 31.6454C36.6061 31.6454 36.1524 34.4307 36.1524 35.0835C36.1524 35.7363 35.373 40.451 35.373 40.451C35.2449 40.845 35.1866 41.2582 35.2007 41.6723C35.2009 42.1445 35.1399 42.6147 35.0192 43.0712C34.9721 43.0513 34.9307 43.0202 34.8985 42.9806C34.7687 42.7195 32.3842 42.9806 33.1219 44.7268C33.3053 45.1967 33.5904 45.6202 33.9567 45.9671C33.7056 46.5063 33.5127 47.0708 33.3814 47.6508C33.3814 47.6508 33.3814 48.2746 33.4368 49.0444C32.9305 49.3898 32.5158 49.7008 32.5158 49.7008C32.4795 50.6537 33.1156 50.806 33.7135 50.7716C33.8668 51.3237 34.0919 51.7626 34.4221 51.8822C35.5055 52.2757 36.1987 52.1016 36.5463 52.3999C37.2499 52.7624 37.9867 53.0566 38.7466 53.2785C39.5334 53.3971 40.3261 53.4727 41.1211 53.5052L41.4387 53.6638L41.4006 53.4916C41.5022 53.4725 41.4559 53.3519 41.328 53.1461C41.2708 52.8823 41.1982 52.5368 41.1175 52.1424L41.5929 51.9702L41.7227 52.1615C41.5494 53.0681 41.4396 53.6693 41.4396 53.6693C41.4396 53.6693 40.5758 56.7674 40.9623 57.2479C41.067 57.41 41.1227 57.5989 41.1227 57.7919C41.1227 57.9848 41.067 58.1737 40.9623 58.3359C40.9623 58.3359 40.8716 59.1201 41.0939 59.1201C41.3162 59.1201 41.5693 60.1238 41.3534 60.1683C41.1374 60.2127 40.1439 61.0405 40.4896 61.2146C40.8353 61.3886 40.4896 61.7812 40.4896 62.1747C40.4896 62.4612 41.0186 62.8864 41.3062 63.095C41.2545 63.2817 41.2009 63.4803 41.151 63.6752C41.0138 64.1075 40.9371 64.5566 40.9233 65.0099C41.014 65.4895 40.7074 66.8422 40.7936 67.2765C40.8798 67.7108 41.1837 68.6719 40.9659 69.0654C40.8631 69.6293 40.8779 70.2084 41.0095 70.7663L41.3997 74.4736C41.3997 74.4736 41.1402 75.5218 41.3997 75.7829C41.6592 76.044 41.8769 79.1004 42.1355 79.4494C42.5429 80.3204 42.6639 81.298 42.4812 82.242C42.1754 82.8531 42.8714 84.117 42.8714 84.117C42.8714 84.117 42.8278 85.6003 42.8278 85.9919C42.8855 86.3501 43.0181 86.6921 43.2171 86.9956C43.3895 87.8599 43.5049 88.7346 43.5628 89.6141C43.5683 90.0497 43.6564 90.4804 43.8223 90.8834C43.9369 91.5028 44.0096 92.1292 44.04 92.7584C44.0667 93.0637 44.1875 93.3532 44.3857 93.5871C44.6163 94.0941 44.7342 94.645 44.7315 95.2019C44.7088 95.3742 44.724 95.5495 44.7762 95.7153C44.8284 95.8812 44.9163 96.0336 45.0336 96.162C45.0336 96.162 44.9901 97.2083 44.9901 97.3407C45.2601 97.7574 45.5636 98.1516 45.8974 98.5193C45.8974 98.5193 45.5072 99.3054 45.725 99.6073C45.9428 99.9093 45.8974 101.003 46.2431 101.354C46.5888 101.704 46.5026 103.141 46.9345 103.404C47.3664 103.666 47.7574 103.884 47.8418 104.45C47.9262 105.016 48.2755 105.847 48.6666 105.979C48.7406 106.03 48.8049 106.093 48.8563 106.167L48.6839 106.901L48.1494 109.12C48.1494 109.12 47.6313 112.348 47.6722 112.827C47.713 113.307 47.1541 113.788 47.1541 113.788C47.1541 113.788 46.6768 116.58 46.5906 116.929C46.5508 117.264 46.5655 117.603 46.6342 117.933C46.6342 117.933 46.332 119.591 46.5434 119.679C46.9447 119.984 47.3215 120.319 47.6703 120.683H47.7411L47.6504 121.011L46.1551 126.312C46.1551 126.312 44.7723 128.624 47.977 129.802C48.0841 130.01 48.183 130.014 48.0678 129.974C48.173 130.065 50.3144 131.878 50.4877 132.722C50.661 133.565 52.1345 134.466 52.6544 134.554C53.1743 134.642 56.6413 137.433 57.898 134.685C59.1547 131.938 55.6877 130.148 55.6877 130.148L53.0491 128.45C53.0491 128.45 51.7063 126.486 51.4939 126.138C51.2816 125.79 50.8869 124.086 51.1482 123.826C51.5201 123.029 51.8298 122.205 52.0746 121.36C52.1091 121.251 52.1454 121.144 52.1799 121.037C52.7088 121.122 53.2508 121.063 53.7487 120.865L55.6786 117.822L56.0243 117.288L56.086 117.412C56.086 117.412 57.6902 117.544 58.4696 117.675C58.7173 117.686 58.9651 117.655 59.2028 117.585C59.2318 117.648 59.2617 117.714 59.2935 117.78C59.4825 118.184 59.643 118.601 59.7735 119.028C59.9033 119.595 60.0348 121.601 60.0348 121.601C60.0348 121.601 59.171 124.482 58.9514 125.005C58.7319 125.528 59.1674 129.892 63.4582 128.146C63.4582 128.146 63.9763 127.318 64.4563 127.318C64.9308 127.139 65.3195 126.786 65.5441 126.332C65.7686 125.878 65.8121 125.355 65.6658 124.87C65.2285 123.6 63.4192 119.722 64.6677 117.672C65.6767 116.021 65.596 113.807 64.2395 112.776C64.1823 112.732 64.1215 112.694 64.0662 112.657C64.0808 112.437 64.0808 112.217 64.0662 111.997C63.7622 107.809 61.8196 107.59 61.8196 107.59C61.8196 107.59 60.6926 107.329 60.5629 106.899C59.9993 105.989 59.3777 105.116 58.7019 104.286C58.7301 104.24 58.7554 104.195 58.7818 104.151C58.7818 104.135 58.799 104.12 58.8063 104.104C58.8444 104.034 58.8807 103.961 58.9151 103.885C59.3394 102.654 59.4874 101.345 59.3489 100.05C59.3053 99.5693 59.3489 98.9618 59.3489 98.2609C59.3489 97.5601 60.0403 96.5147 59.9559 96.123C59.8715 95.7313 60.7797 94.1166 60.7797 93.7222C60.7797 93.3278 61.4149 90.9714 61.4149 90.9714C61.4149 90.9714 62.6716 88.265 62.932 87.4798C63.1806 86.7272 67.6185 73.0012 67.9787 71.8851C67.9856 71.8605 67.9937 71.8363 68.0032 71.8126C68.0032 71.8126 69.4205 67.1795 68.4714 64.1367C68.4098 63.9357 68.3352 63.7388 68.2482 63.5474C68.5385 63.4078 68.739 63.3053 68.739 63.3053C68.4658 62.5829 68.3619 61.8075 68.4351 61.0387C68.5878 60.4549 68.6187 59.846 68.5258 59.2498C68.5258 59.2498 67.4887 58.6387 67.4442 58.3776C67.3998 58.1165 66.967 57.7665 67.0985 57.4174C67.2301 57.0684 67.9623 57.2452 67.8779 56.4573C67.7936 55.6694 66.8799 54.8425 66.9706 54.3629C67.0613 53.8832 67.4025 53.011 66.9706 52.4879C66.5635 51.8964 66.3377 51.1991 66.3209 50.4814C66.3091 50.3092 66.3472 49.7996 66.4117 49.1278C66.8736 49.4152 67.3507 49.6776 67.8408 49.9139C67.8408 49.9139 69.7035 50.1759 69.7925 50.0045C69.9591 49.7823 70.1479 49.5775 70.3559 49.3934C72.696 48.8268 71.6553 44.5582 71.6553 44.5582C71.6553 44.5582 71.6208 44.2454 71.5645 43.7313C71.6233 43.7164 71.6785 43.6899 71.7269 43.6533C71.9256 43.5083 71.9737 43.2317 72.0953 43.0187C72.2328 42.8129 72.3939 42.624 72.5753 42.4556C72.9775 41.9641 73.2915 41.4067 73.5035 40.8082C73.6587 40.4356 73.8184 40.062 73.9753 39.6876C74.0865 39.2188 74.3641 38.8063 74.7566 38.5265C75.149 38.2468 75.6297 38.1187 76.1094 38.1662C76.0892 37.7786 75.9444 37.4078 75.6966 37.109C75.8485 37.0626 76.0089 37.0509 76.166 37.0748C76.323 37.0986 76.4727 37.1574 76.6039 37.2468C76.6109 37.2351 76.6173 37.223 76.623 37.2105H76.6339C76.6576 37.1671 76.6668 37.1172 76.6602 37.0682ZM39.6539 49.0163C39.6639 48.9256 39.6802 48.844 39.6984 48.7569C39.7828 48.6772 39.8853 48.5847 39.9942 48.4976L40.5994 48.5566C40.4506 48.6772 40.3208 48.7878 40.2156 48.8775C40.1188 48.8434 40.0142 48.8385 39.9146 48.8633C39.8151 48.8881 39.7251 48.9416 39.6557 49.0172L39.6539 49.0163ZM40.8634 47.8195C40.949 47.8132 41.0332 47.7952 41.1139 47.766H41.6428C41.3543 47.9682 41.0621 48.1921 40.8026 48.4006L40.8634 47.8321V47.8195ZM41.8615 39.0121C41.8615 39.0121 41.8216 40.2524 41.9096 41.4991C41.7744 41.5897 41.6374 41.6976 41.4968 41.8064L41.8025 38.9314L41.8615 39.0121Z" fill="url(#paint0_linear_1_1064)"/>
    <path d="M64.4346 127.137C63.9591 127.137 63.4365 127.952 63.4365 127.952C59.1592 129.675 58.7273 125.362 58.9433 124.843C59.1592 124.325 60.024 121.476 60.024 121.476C60.024 121.476 59.8942 119.491 59.7644 118.929C59.6337 118.507 59.4739 118.095 59.2862 117.694C58.9959 117.034 58.6847 116.382 58.6847 116.382C58.6847 116.382 60.542 111.806 63.0055 112.237C63.4443 112.31 63.8591 112.488 64.215 112.755C65.5678 113.774 65.6495 115.965 64.6423 117.59C63.3893 119.619 65.204 123.462 65.6404 124.714C65.7845 125.195 65.7401 125.713 65.5162 126.163C65.2923 126.613 64.9056 126.961 64.4346 127.137Z" fill="#FDC2CC"/>
    <path d="M57.9107 134.433C56.6577 137.153 53.2016 134.39 52.6826 134.304C52.1636 134.218 50.6955 133.353 50.5222 132.49C50.3489 131.627 48.2111 129.861 48.1023 129.77C48.2184 129.807 48.1195 129.801 48.0115 129.598C44.814 128.432 46.1968 126.145 46.1968 126.145L47.6867 120.898L48.0977 119.452L52.7642 119.151C52.7642 119.151 52.4448 120.171 52.0882 121.243C51.8446 122.079 51.5361 122.895 51.1655 123.683C50.906 123.942 51.2952 125.626 51.5112 125.971C51.7271 126.317 53.0664 128.26 53.0664 128.26L55.6977 129.944C55.6977 129.944 59.1638 131.713 57.9107 134.433Z" fill="#FDC2CC"/>
    <path opacity="0.1" d="M52.7697 119.15C52.7697 119.15 52.4503 120.171 52.0937 121.242C51.8499 121.172 51.6333 121.03 51.4731 120.833L47.7139 120.924L47.6912 120.901L48.1023 119.456L52.7697 119.15Z" fill="black"/>
    <path d="M67.9778 72.2215C67.975 72.2464 67.9673 72.2704 67.9551 72.2922C67.5922 73.392 63.1715 86.9711 62.9229 87.7201C62.6634 88.4971 61.4104 91.1736 61.4104 91.1736C61.4104 91.1736 60.7625 93.5046 60.7625 93.8936C60.7625 94.2825 59.8552 95.8792 59.9459 96.2681C60.0366 96.6571 59.3407 97.6925 59.3407 98.3834C59.3407 99.0743 59.2971 99.6781 59.3407 100.153C59.4783 101.436 59.3302 102.733 58.907 103.952C58.7702 104.278 58.5672 104.572 58.3108 104.815C58.241 104.879 58.1664 104.937 58.0877 104.988C56.5325 106.025 56.4027 116.645 56.4027 116.645L56.3301 116.76L55.695 117.747L53.7632 120.751C53.7632 120.751 52.208 121.398 51.4731 120.492L47.7139 120.582C47.3665 120.22 46.9909 119.887 46.5906 119.585C46.3747 119.494 46.6813 117.862 46.6813 117.862C46.6123 117.534 46.5976 117.197 46.6378 116.865C46.7285 116.519 47.1995 113.757 47.1995 113.757C47.1995 113.757 47.7611 113.282 47.7175 112.807C47.674 112.332 48.193 109.137 48.193 109.137L48.7256 106.942L48.9878 105.86L49.5322 103.615L53.2043 71.1924L57.8708 69.7681L66.8536 70.1996L67.8389 71.9785L67.9778 72.2215Z" fill="#5F5D7E"/>
    <path opacity="0.1" d="M55.3193 88.1525C55.1997 89.0846 55.1421 90.0235 55.1469 90.9632C55.3341 92.2931 55.4208 93.6351 55.4064 94.9779C55.2767 95.4965 55.8819 96.1004 56.0978 96.3597C56.3138 96.619 56.1886 97.396 56.2276 97.9998C56.3063 98.4408 56.5174 98.8475 56.8328 99.1658C56.8328 99.1658 56.1849 100.548 56.6604 100.763C57.1358 100.979 58.1294 102.966 58.1294 102.966C58.1294 102.966 58.4633 103.385 58.9052 103.955C58.7367 104.371 58.4535 104.73 58.0886 104.991C56.5334 106.027 56.4036 116.648 56.4036 116.648L56.331 116.762L55.3665 114.835C55.3665 114.835 49.6203 106.157 49.2319 106.027C49.1381 105.991 49.0548 105.931 48.9896 105.854L49.5341 103.609L53.2061 71.1861L57.8726 69.7617L66.8554 70.1933L62.1235 70.6684C62.1235 70.6684 60.0203 72.1762 60.0067 72.2224L56.2267 73.8199L55.5353 84.1732C55.5353 84.1732 55.3638 87.332 55.3193 88.1525Z" fill="black"/>
    <path opacity="0.1" d="M67.8399 71.9722C67.721 72.4518 55.2758 71.0138 55.2758 71.0138L55.3665 74.3377L54.6751 84.6991C54.6751 84.6991 54.5027 87.8506 54.4592 88.6712C54.3396 89.6032 54.282 90.5422 54.2868 91.4818C54.4739 92.8117 54.5607 94.1537 54.5463 95.4965C54.4165 96.0143 55.0217 96.619 55.2377 96.8783C55.4536 97.1376 55.3284 97.9146 55.3674 98.5194C55.446 98.9604 55.6571 99.3671 55.9726 99.6853C55.9726 99.6853 55.3248 101.067 55.8002 101.283C56.2757 101.499 57.2692 103.485 57.2692 103.485C57.2692 103.485 57.7447 104.085 58.3063 104.82C58.2365 104.883 58.1618 104.94 58.0831 104.992C56.5279 106.028 56.3982 116.649 56.3982 116.649L56.3256 116.763L55.7013 117.754L54.5036 115.363C54.5036 115.363 50.0712 108.668 48.7274 106.95L48.9906 105.868L49.535 103.623L53.207 71.2006L57.8735 69.7762L66.8563 70.2078L67.8399 71.9722Z" fill="black"/>
    <path opacity="0.1" d="M64.2241 112.753C64.0517 115.844 60.7916 117.357 59.2899 117.699C58.9995 117.038 58.6883 116.386 58.6883 116.386C58.6883 116.386 60.5457 111.81 63.0091 112.242C63.4493 112.312 63.866 112.488 64.2241 112.753Z" fill="black"/>
    <path d="M54.8003 88.1516C54.6804 89.0837 54.6226 90.0226 54.627 90.9623C54.8142 92.2921 54.901 93.6342 54.8865 94.977C54.7568 95.4947 55.362 96.0995 55.5779 96.3588C55.7939 96.6181 55.6686 97.3951 55.7077 97.999C55.7864 98.4399 55.9975 98.8466 56.3129 99.1649C56.3129 99.1649 55.665 100.547 56.1405 100.762C56.6159 100.978 57.6095 102.965 57.6095 102.965C57.6095 102.965 60.4223 106.501 60.5475 106.937C60.6727 107.373 61.8005 107.628 61.8005 107.628C61.8005 107.628 63.745 107.844 64.0471 111.988C64.3493 116.132 59.2518 117.73 58.4733 117.6C57.6948 117.471 56.0969 117.341 56.0969 117.341L54.8439 114.837C54.8439 114.837 49.0976 106.159 48.7084 106.029C48.3191 105.9 47.9743 105.08 47.8918 104.518C47.8092 103.956 47.4163 103.741 46.9844 103.482C46.5525 103.222 46.6387 101.798 46.293 101.452C45.9473 101.107 45.9909 100.028 45.7749 99.7298C45.559 99.4315 45.9473 98.6508 45.9473 98.6508C45.6138 98.2873 45.3104 97.8974 45.04 97.4849C45.04 97.3552 45.0835 96.3189 45.0835 96.3189C44.9667 96.1922 44.8791 96.0415 44.8269 95.8773C44.7747 95.7131 44.7592 95.5395 44.7814 95.3687C44.7832 94.8175 44.6652 94.2724 44.4356 93.7712C44.2385 93.5416 44.1177 93.2564 44.09 92.9551C44.06 92.332 43.9878 91.7117 43.874 91.0983C43.7094 90.701 43.6214 90.2762 43.6145 89.8462C43.5558 88.9762 43.4403 88.1109 43.2688 87.2559C43.0696 86.9548 42.9369 86.6148 42.8795 86.2585C42.8795 85.8696 42.9231 84.4017 42.9231 84.4017C42.9231 84.4017 42.2317 83.1496 42.5339 82.5457C42.7148 81.6112 42.5937 80.6434 42.1881 79.7822C41.9286 79.4368 41.7127 76.4148 41.4541 76.1555C41.1955 75.8962 41.4541 74.8608 41.4541 74.8608L41.0648 71.1906C40.9342 70.6384 40.9194 70.0652 41.0213 69.5069C41.2372 69.118 40.9306 68.1687 40.8489 67.7371C40.7673 67.3056 41.0648 65.9673 40.9786 65.4922C40.9929 65.0435 41.0692 64.599 41.2055 64.1712C41.4096 63.3833 41.6701 62.5564 41.6701 62.5564C41.6701 62.5564 63.8775 60.4838 67.0759 62.6471C67.7513 63.1315 68.2395 63.8332 68.4587 64.6345C69.4041 67.6465 67.9905 72.2333 67.9905 72.2333L55.714 73.82L55.0226 84.1814C55.0226 84.1814 54.843 87.3293 54.8003 88.1516Z" fill="#5F5D7E"/>
    <path opacity="0.1" d="M51.2571 103.521C51.2571 103.521 55.1025 102.355 56.0098 103.133C56.9172 103.911 51.2571 103.521 51.2571 103.521Z" fill="black"/>
    <path opacity="0.1" d="M52.6399 108.444C53.0144 108.073 53.4743 107.801 53.9791 107.651C54.4839 107.5 55.0181 107.476 55.5344 107.581C56.5481 107.817 57.6116 107.71 58.5586 107.279L52.6399 108.444Z" fill="black"/>
    <path opacity="0.1" d="M56.7012 109.867C56.7012 109.867 59.8552 109.436 59.9849 109.824C60.1147 110.212 56.7012 109.867 56.7012 109.867Z" fill="black"/>
    <path opacity="0.1" d="M55.7939 112.415C55.7939 112.415 59.2935 111.379 59.4659 111.81C59.6383 112.242 55.6206 112.371 55.6206 112.371L55.7939 112.415Z" fill="black"/>
    <path opacity="0.1" d="M59.7254 89.1444C59.7254 89.1444 56.4417 92.0367 56.9127 92.3395C57.3836 92.6423 59.7254 89.1444 59.7254 89.1444Z" fill="black"/>
    <path opacity="0.1" d="M57.0469 96.3116C57.0469 96.3116 59.3371 96.3117 58.9052 96.8303C58.4733 97.3489 57.0469 96.3116 57.0469 96.3116Z" fill="black"/>
    <path opacity="0.1" d="M58.4297 98.3408C58.4297 98.3408 57.5224 99.1178 57.7383 99.29C57.9543 99.4623 58.4297 98.3408 58.4297 98.3408Z" fill="black"/>
    <path opacity="0.1" d="M48.4489 116.862C48.4489 116.862 51.3007 117.812 51.3433 118.416C51.386 119.02 48.4489 116.862 48.4489 116.862Z" fill="black"/>
    <path d="M62.2751 26.5835L61.3677 31.98C61.3677 31.98 53.5046 36.1243 53.3749 36.1243C53.2451 36.1243 47.6286 35.1742 47.4127 35.1742C47.1967 35.1742 43.5238 24.0784 46.1161 23.3875C47.0939 23.0763 48.0415 22.6769 48.947 22.1943C51.9412 20.6974 55.6215 18.4226 55.6215 18.4226C55.6215 18.4226 61.1082 17.8178 59.769 21.6177C59.5363 22.1546 59.4395 22.7404 59.487 23.3235C59.5344 23.9067 59.7248 24.4692 60.0412 24.9615C60.6052 25.7147 61.3838 26.2801 62.2751 26.5835Z" fill="#FDC2CC"/>
    <path opacity="0.1" d="M62.2751 26.588L61.3677 31.9845C61.3677 31.9845 53.5046 36.1289 53.3749 36.1289C53.2451 36.1289 47.6286 35.1787 47.4127 35.1787C47.1967 35.1787 43.5238 24.0829 46.1161 23.392C47.0939 23.0808 48.0415 22.6814 48.947 22.1989C49.6538 22.2451 50.1338 22.3131 50.1338 22.3131C50.9039 25.1567 51.5241 28.0387 51.9921 30.9473C52.1218 32.9764 56.6195 33.1922 56.9172 33.1061C57.2148 33.0199 58.4724 28.055 58.4724 28.055C58.4724 28.055 58.3426 26.3324 58.7319 26.3324C59.0567 26.3324 59.8071 25.296 60.0403 24.9724C60.6055 25.7234 61.3843 26.2865 62.2751 26.588Z" fill="black"/>
    <path opacity="0.1" d="M68.446 64.6245C67.6959 65.0511 66.8769 65.3433 66.0261 65.4877C65.4838 65.3966 64.9345 65.3532 64.3847 65.358C64.3847 65.358 63.6933 66.1351 62.9592 65.9619C61.7519 65.8635 60.5392 65.8489 59.3298 65.9184C59.3298 65.9184 54.1452 66.1341 53.1517 65.7887C51.6558 65.4705 50.1401 65.2542 48.6149 65.1413C46.7128 64.945 44.8231 64.6423 42.9549 64.2347C42.7235 64.1338 42.4693 64.0965 42.2187 64.1268C41.968 64.1571 41.7301 64.2538 41.5294 64.407C41.5294 64.407 41.3788 64.3081 41.1937 64.1649C41.3979 63.377 41.6583 62.5501 41.6583 62.5501C41.6583 62.5501 63.8657 60.4775 67.0641 62.6408C67.7412 63.1217 68.2297 63.823 68.446 64.6245Z" fill="black"/>
    <path d="M50.1338 22.6586C50.1338 22.6586 45.7704 22.0538 44.0419 23.2198C43.4277 23.6253 42.7332 23.8934 42.0058 24.0059C41.031 24.157 40.1528 24.6799 39.5559 25.4647C39.4452 25.6134 39.3382 25.7131 39.2465 25.724C38.8573 25.7675 36.6978 32.4587 36.6978 32.4587L41.9259 39.7547C41.9259 39.7547 41.7962 43.8129 42.5311 44.5899C43.2661 45.367 41.494 54.2605 41.494 54.2605C41.494 54.2605 40.6302 57.3259 41.0186 57.7964C41.1243 57.9565 41.1807 58.1441 41.1807 58.3359C41.1807 58.5277 41.1243 58.7153 41.0186 58.8754C41.0186 58.8754 40.9278 59.6524 41.1483 59.6524C41.3688 59.6524 41.6238 60.6497 41.4078 60.6887C41.1919 60.7277 40.1983 61.5519 40.544 61.725C40.8897 61.8982 40.544 62.2863 40.544 62.6752C40.544 63.0642 41.5421 63.7115 41.5421 63.7115C41.7428 63.5584 41.9807 63.4617 42.2314 63.4314C42.482 63.4011 42.7362 63.4384 42.9676 63.5393C44.8358 63.9469 46.7255 64.2496 48.6276 64.4459C50.1528 64.5588 51.6685 64.7751 53.1644 65.0933C54.1625 65.4387 59.3425 65.2229 59.3425 65.2229C60.5519 65.1535 61.7646 65.1681 62.9719 65.2665C63.7069 65.4396 64.3974 64.6617 64.3974 64.6617C64.9472 64.6568 65.4965 64.7002 66.0388 64.7914C66.5142 64.921 68.7173 63.7941 68.7173 63.7941C68.7173 63.7941 68.1556 62.1539 68.4151 61.5491C68.5679 60.9719 68.5988 60.3692 68.5058 59.7793C68.5058 59.7793 67.4687 59.1746 67.4261 58.9162C67.3834 58.6578 66.9507 58.3114 67.0804 57.966C67.2102 57.6205 67.9442 57.7937 67.858 57.0158C67.7718 56.2379 66.8599 55.4183 66.9507 54.9432C67.0414 54.4681 67.3825 53.6049 66.9507 53.0863C66.5445 52.5022 66.3192 51.8117 66.3028 51.1007C66.2602 50.4534 66.9507 44.5818 66.9507 44.5818L65.3519 32.7525L70.2343 30.3344C70.1245 29.4596 69.9514 28.5939 69.7163 27.7441C69.4141 26.8374 68.9813 25.2399 68.9813 25.2399C68.6399 24.5286 68.2351 23.8495 67.7718 23.2107C67.5559 23.1201 65.2657 21.6132 64.7476 21.829C64.2295 22.0448 60.1201 25.1963 60.1201 25.1963C60.1201 25.1963 59.122 26.6642 58.7373 26.6642C58.3526 26.6642 58.4778 28.3869 58.4778 28.3869C58.4778 28.3869 57.2248 33.3518 56.9226 33.4379C56.6205 33.5241 52.1264 33.3083 51.9975 31.2792C51.5273 28.3751 50.9053 25.4976 50.1338 22.6586Z" fill="#D39999"/>
    <path d="M43.3595 48.1849C42.7603 48.3167 42.15 48.392 41.5367 48.4097C40.6502 48.4342 39.8708 48.319 39.6784 48.0017C39.3312 47.2127 39.1547 46.3594 39.1603 45.4975C39.1603 45.4975 41.504 46.0415 43.1209 46.6281L43.3931 46.7288C43.8538 46.85 44.2723 47.0956 44.6026 47.4387C44.7496 47.7306 44.1707 48.0035 43.3595 48.1849Z" fill="#FDC2CC"/>
    <path opacity="0.1" d="M60.3306 24.17C64.6973 24.17 68.2373 20.6327 68.2373 16.2693C68.2373 11.9059 64.6973 8.36859 60.3306 8.36859C55.9639 8.36859 52.424 11.9059 52.424 16.2693C52.424 20.6327 55.9639 24.17 60.3306 24.17Z" fill="black"/>
    <path d="M60.3306 23.8245C64.6973 23.8245 68.2373 20.2873 68.2373 15.9238C68.2373 11.5604 64.6973 8.02313 60.3306 8.02313C55.9639 8.02313 52.424 11.5604 52.424 15.9238C52.424 20.2873 55.9639 23.8245 60.3306 23.8245Z" fill="#FDC2CC"/>
    <path opacity="0.1" d="M42.8324 58.5789C43.8732 58.5695 44.9132 58.6417 45.9428 58.7947C46.8275 58.9507 47.723 59.0374 48.6213 59.054C46.6837 59.0154 44.7503 58.8567 42.8324 58.5789Z" fill="black"/>
    <path opacity="0.1" d="M42.9186 59.9597C42.9186 59.9597 45.813 60.1755 45.8566 60.6071C45.9001 61.0387 42.9186 59.9597 42.9186 59.9597Z" fill="black"/>
    <path opacity="0.1" d="M64.9536 54.6494C64.9536 54.6494 66.7247 55.2967 66.6775 55.5125C66.6304 55.7283 65.126 55.1671 64.9536 54.6494Z" fill="black"/>
    <path d="M37.8202 31.6817L36.6969 32.4587C36.6969 32.4587 36.2214 35.2213 36.2214 35.8696C36.2214 36.5179 35.4438 41.1799 35.4438 41.1799C35.3172 41.5699 35.2586 41.9787 35.2705 42.3885C35.2261 43.1034 35.1103 43.812 34.9248 44.5038C34.3616 45.7405 33.8711 47.0089 33.4558 48.3027C33.5466 48.5185 40.8435 49.2094 40.8435 49.2094L41.8806 39.5389L37.8202 31.6817Z" fill="#D39999"/>
    <path d="M34.5365 47.1376L33.4567 48.3036C33.4567 48.3036 33.4132 52.1025 34.4938 52.4915C35.5745 52.8805 36.265 52.7073 36.6107 53.0092C37.3143 53.3698 38.0523 53.659 38.8137 53.8724C39.6838 54.0134 40.5636 54.0856 41.445 54.0882C42.0502 53.9975 37.9064 50.6773 40.6284 47.8711L34.5365 47.1376Z" fill="#D39999"/>
    <path d="M68.7127 28.6598L70.2253 30.3435C70.4987 31.8547 70.6577 33.3843 70.7008 34.9194C70.5275 35.4806 71.6081 45.2373 71.6081 45.2373C71.6081 45.2373 72.6452 49.4687 70.3124 50.0299C70.1052 50.212 69.917 50.4146 69.7507 50.6347C69.66 50.8069 67.8063 50.544 67.8063 50.544L64.9545 31.8504L68.7127 28.6598Z" fill="#D39999"/>
    <path opacity="0.1" d="M48.1467 44.1158C48.1467 44.1158 53.8068 40.7484 54.8439 40.5798C55.881 40.4111 62.3186 37.342 62.3186 37.342C62.3186 37.342 65.5161 38.9822 65.8183 40.2343C66.1204 41.4864 64.479 46.4903 64.479 46.4903C64.479 46.4903 59.2083 50.1596 58.9052 50.933C58.6021 51.7064 54.0663 53.9984 54.0663 54.3865C54.0663 54.7745 46.8982 59.0059 43.7406 55.2931C40.5831 51.5803 40.6302 50.5014 40.6302 50.5014L48.6231 48.6455L49.4007 45.192L48.1467 44.1158Z" fill="black"/>
    <path d="M48.1467 43.7703C48.1467 43.7703 53.8068 40.4029 54.8439 40.2343C55.881 40.0657 62.3186 36.9966 62.3186 36.9966C62.3186 36.9966 65.5161 38.6367 65.8183 39.8889C66.1204 41.141 64.479 46.1448 64.479 46.1448C64.479 46.1448 59.2083 49.8141 58.9052 50.5875C58.6021 51.3609 54.0663 53.653 54.0663 54.041C54.0663 54.4291 46.8982 58.665 43.7406 54.9477C40.5831 51.2304 40.6302 50.156 40.6302 50.156L48.6231 48.2991L49.4007 44.8456L48.1467 43.7703Z" fill="#C4C8E2"/>
    <path d="M39.4189 45.2853L39.1594 47.4441L37.1043 47.2936L35.0981 47.1449C35.0981 47.1449 33.9313 47.1449 33.1927 45.4222C32.4541 43.6995 34.835 43.4366 34.9638 43.6996C36.1924 44.2633 37.4636 44.7293 38.7656 45.0931L39.4189 45.2853Z" fill="#FDC2CC"/>
    <path opacity="0.1" d="M39.4189 45.2817L39.1594 47.4405L37.1043 47.2899C37.44 46.7922 38.1414 45.8828 38.772 45.0813L39.4189 45.2817Z" fill="black"/>
    <path opacity="0.1" d="M39.1603 45.4975C39.1603 45.4975 41.504 46.0415 43.1209 46.6281C42.7062 47.3138 42.1689 47.9174 41.5358 48.4088C40.6493 48.4333 39.8699 48.3182 39.6775 48.0008C39.3307 47.2121 39.1545 46.359 39.1603 45.4975Z" fill="black"/>
    <path opacity="0.1" d="M43.3595 48.1849L43.3214 47.8866C43.3214 47.8866 43.3042 47.8222 43.2888 47.7261C43.2314 47.4794 43.2636 47.2205 43.3795 46.9953C43.4639 46.8765 43.4448 46.7913 43.3895 46.7314C43.8502 46.8527 44.2686 47.0983 44.599 47.4414C44.7496 47.7306 44.1707 48.0035 43.3595 48.1849Z" fill="black"/>
    <path d="M50.6964 46.7713C49.783 47.6458 48.9489 48.5995 48.2039 49.621C48.0587 50.1233 43.6245 50.1387 43.6245 50.1387L43.3224 47.7206C43.3224 47.7206 43.3051 47.6562 43.2897 47.5601C43.2324 47.3135 43.2645 47.0545 43.3804 46.8294C43.5964 46.5274 43.1345 46.4404 43.1345 46.4404C43.1345 46.4404 41.9386 48.4106 40.9315 48.4695C40.9315 48.4695 39.5351 49.4759 39.5487 49.6781C39.1631 50.037 38.9179 50.5214 38.8573 51.0445C38.8437 51.7925 37.979 52.0962 37.3447 51.8804C36.4739 51.5559 35.5626 51.3524 34.6363 51.2757C34.1318 51.3482 32.5348 51.8197 32.592 50.34C32.592 50.34 34.6662 48.786 35.1843 48.8286C35.5574 48.8011 35.9203 48.6945 36.2489 48.5158C36.5775 48.3371 36.8641 48.0904 37.0897 47.7923C37.2621 47.3172 40.2002 43.6905 40.2002 43.6905C40.2002 43.6905 42.0584 41.9343 42.8061 41.7611C42.8061 41.7611 44.3041 40.5951 46.5652 42.3658C47.6843 43.0282 48.7618 43.7582 49.7918 44.5518C49.8716 44.7558 50.778 45.6262 50.8543 46.2745C50.8726 46.3639 50.8678 46.4565 50.8401 46.5435C50.8125 46.6305 50.763 46.7089 50.6964 46.7713Z" fill="#FDC2CC"/>
    <path opacity="0.1" d="M43.3641 43.3387C43.4775 43.9314 43.5165 44.536 43.4802 45.1384C43.3659 45.6135 43.1345 46.4331 43.1345 46.4331C43.1345 46.4331 44.5309 44.2454 43.3641 43.3387Z" fill="black"/>
    <path opacity="0.1" d="M43.4648 46.5628C43.4648 46.5628 44.1852 45.7704 44.3449 45.9726C44.5046 46.1748 43.4648 46.5628 43.4648 46.5628Z" fill="black"/>
    <path d="M72.9691 38.4826C72.9692 39.5814 72.6108 40.6502 71.9484 41.5271C71.2859 42.4041 70.3555 43.0413 69.298 43.3424C68.8554 43.4693 68.3974 43.5343 67.937 43.5355H67.9106C67.2468 43.5353 66.5896 43.4044 65.9764 43.1503C65.3632 42.8962 64.8061 42.524 64.3368 42.0548C63.8676 41.5856 63.4955 41.0286 63.2417 40.4157C62.9879 39.8028 62.8573 39.1459 62.8576 38.4826C62.8569 38.1861 62.8837 37.8902 62.9374 37.5986C63.1346 36.4941 63.6948 35.4868 64.5294 34.7362C65.3639 33.9856 66.425 33.5345 67.545 33.4543C67.6656 33.4443 67.7882 33.4388 67.9079 33.4388C69.2484 33.4372 70.5346 33.9676 71.4838 34.9135C72.4329 35.8593 72.9672 37.1432 72.9691 38.4826Z" fill="#F8BDC5"/>
    <path d="M75.6349 37.8625C75.8817 38.1575 76.0259 38.5247 76.0459 38.9087C75.5688 38.8606 75.0904 38.9866 74.699 39.2634C74.3076 39.5402 74.0296 39.9491 73.9164 40.4147C73.7585 40.784 73.6018 41.1537 73.4464 41.5236C73.2346 42.1167 72.9217 42.6688 72.5217 43.1556C72.3408 43.3217 72.1798 43.5082 72.0418 43.7114C71.9229 43.9271 71.8694 44.2001 71.6788 44.346C71.5814 44.4055 71.4708 44.4399 71.3568 44.4463C71.2428 44.4526 71.1289 44.4306 71.0255 44.3823C70.8132 44.3025 70.6227 44.1701 70.4104 44.0849C70.2737 44.0323 70.1316 43.9952 69.9866 43.9743C69.3507 44.0041 68.7154 43.9029 68.1202 43.6769C68.0578 43.6357 67.9997 43.5883 67.9469 43.5355C67.7367 43.3298 67.5847 43.0724 67.5059 42.7893C67.4664 42.6746 67.4522 42.5527 67.4642 42.4321C67.489 42.3217 67.5378 42.2181 67.6071 42.1286C67.6764 42.0392 67.7645 41.966 67.8653 41.9143C67.8943 41.8971 67.9242 41.8799 67.956 41.8645C68.4741 41.5925 69.1954 41.529 69.4667 41.0013C69.5529 40.7327 69.5557 40.4443 69.4747 40.174C69.3937 39.9037 69.2328 39.6643 69.0131 39.4872C68.8261 39.2968 68.6056 39.081 68.631 38.8154C68.6546 38.5805 68.8642 38.4164 69.0384 38.2596C69.5324 37.8133 69.8653 37.2167 69.9857 36.5623C70.0317 36.3602 70.0283 36.1499 69.9757 35.9494C69.9221 35.8055 69.8481 35.6699 69.7562 35.5468L69.1963 34.7181C69.0236 34.4254 68.7873 34.175 68.5049 33.9855C68.2717 33.8459 68.0041 33.797 67.7691 33.6591C67.6796 33.6101 67.6045 33.5385 67.5513 33.4515C67.5215 33.403 67.5115 33.3449 67.5232 33.2892C67.5522 33.1514 67.6956 33.0834 67.8398 33.0444C68.211 32.9367 68.5991 32.8998 68.984 32.9356C69.106 32.9615 69.2322 32.9615 69.3542 32.9356C69.4144 32.9193 69.4668 32.882 69.502 32.8305C69.5371 32.7789 69.5526 32.7165 69.5457 32.6546C69.9712 32.5439 70.3732 32.8758 70.6844 33.1868C70.9956 33.4978 71.3758 33.8378 71.8149 33.7498C71.9719 33.719 72.1171 33.6292 72.2768 33.612C72.4365 33.5948 72.6325 33.7027 72.6225 33.8586C72.6125 34.0146 72.412 34.1225 72.4292 34.2784C72.4396 34.3322 72.464 34.3822 72.5 34.4235C72.6996 34.6967 72.9363 34.9408 73.2032 35.1488V34.2303C73.5489 34.321 73.675 34.7589 73.6351 35.1162C73.5446 35.4642 73.5139 35.825 73.5443 36.1833C73.5548 36.243 73.579 36.2995 73.6151 36.3483C73.6512 36.397 73.6981 36.4368 73.7521 36.4644C73.8412 36.4886 73.9352 36.4886 74.0243 36.4644C74.4157 36.3769 74.8241 36.4055 75.1995 36.5465C75.5749 36.6876 75.9009 36.9351 76.1376 37.2586L75.4461 37.0084L76.25 37.4472C76.36 37.4978 76.4578 37.5714 76.5368 37.663C76.5752 37.7096 76.5978 37.7671 76.6016 37.8273C76.6053 37.8876 76.59 37.9475 76.5576 37.9985C76.424 37.9079 76.2716 37.8486 76.1118 37.8251C75.952 37.8015 75.789 37.8143 75.6349 37.8625Z" fill="#585268"/>
    <g opacity="0.1">
      <path d="M74.1133 36.4245C74.2024 36.4486 74.2964 36.4486 74.3855 36.4245C74.4635 36.4136 74.5415 36.4073 74.6205 36.4019C74.4477 36.3909 74.2742 36.396 74.1024 36.4173L74.1133 36.4245Z" fill="black"/>
      <path d="M75.8 36.973L76.0976 37.1371L76.0423 37.0592L75.8 36.973Z" fill="black"/>
      <path d="M73.5707 35.108V34.5033C73.5408 34.428 73.4941 34.3605 73.4342 34.306C73.3743 34.2515 73.3028 34.2114 73.225 34.1887V34.7961C73.3336 34.9072 73.449 35.0114 73.5707 35.108Z" fill="black"/>
      <path d="M76.1457 37.8027C76.2984 37.8288 76.4435 37.8875 76.5713 37.9749C76.6018 37.935 76.6173 37.8855 76.6149 37.8353C76.4627 37.7907 76.3026 37.7796 76.1457 37.8027Z" fill="black"/>
      <path d="M71.4058 44.3551C71.1934 44.2753 71.0029 44.1429 70.7906 44.0577C70.6539 44.0052 70.5117 43.9681 70.3668 43.9471C69.7309 43.977 69.0955 43.8757 68.5004 43.6497C68.438 43.6085 68.38 43.5611 68.3271 43.5083C68.1171 43.3026 67.965 43.0452 67.8862 42.7621C67.8465 42.6474 67.8323 42.5255 67.8444 42.4048C67.8692 42.2944 67.9179 42.1909 67.9872 42.1014C68.0565 42.0119 68.1447 41.9388 68.2455 41.8871C68.2745 41.8699 68.3044 41.8527 68.3362 41.8373C68.8634 41.5653 69.5756 41.5018 69.8469 40.9741C69.9331 40.7055 69.9359 40.4171 69.8549 40.1468C69.774 39.8765 69.613 39.6371 69.3932 39.46C69.2063 39.2696 68.9859 39.0538 69.0113 38.7882C69.0358 38.5533 69.2444 38.3892 69.4187 38.2324C69.9127 37.7861 70.2456 37.1896 70.3659 36.5351C70.4116 36.3329 70.4079 36.1226 70.355 35.9222C70.3013 35.7783 70.2273 35.6428 70.1354 35.5196L69.5757 34.6909C69.4029 34.3982 69.1666 34.1478 68.8842 33.9584C68.651 33.8187 68.3834 33.7698 68.1475 33.632C68.058 33.5829 67.9829 33.5113 67.9297 33.4243C67.8999 33.3758 67.8898 33.3177 67.9016 33.262C67.9306 33.1242 68.083 33.0562 68.2182 33.0163C68.4438 32.9531 68.6757 32.9148 68.9097 32.9021C68.56 32.8816 68.2094 32.9202 67.8725 33.0163C67.7383 33.0562 67.5858 33.1233 67.5559 33.262C67.5439 33.3176 67.5536 33.3757 67.5831 33.4243C67.6363 33.5113 67.7114 33.5829 67.8008 33.632C68.0358 33.7698 68.3035 33.8187 68.5367 33.9584C68.8191 34.1478 69.0554 34.3981 69.2281 34.6909L69.7879 35.5196C69.8797 35.6428 69.9536 35.7783 70.0075 35.9222C70.0603 36.1227 70.0638 36.333 70.0175 36.5351C69.8972 37.1896 69.5643 37.7861 69.0703 38.2324C68.8979 38.3892 68.6864 38.5533 68.6619 38.7882C68.6356 39.0538 68.857 39.2696 69.0439 39.46C69.2637 39.6371 69.4246 39.8765 69.5056 40.1468C69.5866 40.4171 69.5838 40.7055 69.4976 40.9741C69.2254 41.5009 68.514 41.5644 67.9869 41.8373C67.956 41.8527 67.927 41.8699 67.8961 41.8871C67.7954 41.9387 67.7072 42.0119 67.6378 42.1013C67.5685 42.1908 67.5198 42.2944 67.4951 42.4048C67.483 42.5255 67.4973 42.6474 67.5368 42.7621C67.6157 43.0452 67.7677 43.3026 67.9778 43.5083C68.0306 43.5611 68.0887 43.6085 68.1511 43.6497C68.6883 43.9951 69.3851 43.8537 70.0175 43.9471C70.1625 43.9681 70.3046 44.0052 70.4413 44.0577C70.6536 44.142 70.8441 44.2753 71.0564 44.3551C71.2108 44.4184 71.3808 44.433 71.5437 44.3968C71.4968 44.3861 71.4507 44.3722 71.4058 44.3551Z" fill="black"/>
      <path d="M72.1833 33.7063C72.2898 33.6793 72.3944 33.6453 72.4964 33.6048C72.4353 33.575 72.3672 33.5624 72.2995 33.5685C72.1529 33.6033 72.0087 33.6472 71.8676 33.7C71.9711 33.7254 72.0789 33.7276 72.1833 33.7063Z" fill="black"/>
      <path d="M69.3524 32.9012C69.4748 32.9241 69.6006 32.921 69.7217 32.8921C69.7819 32.876 69.8345 32.839 69.8697 32.7876C69.905 32.7362 69.9207 32.6739 69.914 32.612C69.8007 32.5826 69.6817 32.5826 69.5684 32.612C69.5753 32.6739 69.5598 32.7363 69.5247 32.7879C69.4896 32.8395 69.4372 32.8767 69.3769 32.893L69.3406 32.9021L69.3524 32.9012Z" fill="black"/>
    </g>
    <path d="M63.3548 35.7227C62.5644 36.2027 61.6609 36.4648 60.7362 36.4825C59.9973 36.541 59.2549 36.541 58.5159 36.4825L56.8518 35.8578C56.8518 35.8578 56.987 35.5858 57.2148 35.2358C57.6685 34.5314 58.4951 33.4832 59.3579 33.5259C60.6545 33.5893 62.0156 33.6537 62.1453 33.6537C62.2751 33.6537 64.802 34.6402 63.3548 35.7227Z" fill="#FDC2CC"/>
    <path d="M59.1456 1.15243C57.9186 1.04617 56.6829 1.19496 55.5162 1.58944C53.2479 2.52693 52.1772 5.03477 50.8053 7.05301C49.6672 8.72724 48.2146 10.1646 46.528 11.2853C45.7332 11.803 44.8104 12.3733 44.6226 13.3054C44.4184 14.2918 45.1234 15.2094 45.4864 16.1396C46.2558 18.127 45.4864 20.3293 45.0327 22.4119C44.8202 23.4121 44.6834 24.4268 44.6235 25.4475C44.5738 25.9201 44.6045 26.3977 44.7142 26.8601C45.0599 28.0795 46.3665 28.9599 46.3765 30.2274C46.3765 31.0906 45.7686 31.9057 45.9464 32.7452C46.176 33.8178 47.4789 34.2041 48.5596 34.389C48.8183 34.4599 49.0924 34.4514 49.3462 34.3645C49.5186 34.282 49.6611 34.1225 49.8371 34.0345C50.4369 33.7371 51.102 34.3645 51.7725 34.3518C52.6145 34.3364 53.0873 33.3436 53.1081 32.5022C52.9989 31.6679 53.0323 30.8211 53.207 29.998C53.6099 28.9617 54.7622 28.4694 55.7349 27.9254C56.2938 27.6626 56.7953 27.292 57.2106 26.8351C57.6259 26.3781 57.9467 25.8437 58.1548 25.2625C58.3031 24.5151 58.313 23.7468 58.1839 22.9958C58.0632 21.8353 57.9679 20.6693 57.9017 19.5061C57.858 18.8062 57.9646 18.1051 58.2142 17.4498C58.4639 16.7944 58.8509 16.2 59.3492 15.7063C59.8476 15.2126 60.4458 14.831 61.1038 14.5873C61.7618 14.3435 62.4643 14.2431 63.1643 14.2927H63.2196C64.0834 14.3635 65.1033 14.4469 65.7139 13.8177C65.9562 13.5674 66.1096 13.222 66.4054 13.0488C66.9824 12.7206 67.7754 13.1884 68.3562 12.8675C68.5624 12.7091 68.7178 12.4939 68.8031 12.2484C68.8884 12.0028 68.8999 11.7377 68.8361 11.4857C68.7025 10.9835 68.6502 10.4631 68.681 9.94437C68.8189 9.22448 69.474 8.70949 69.7181 8.0168C69.8208 7.61001 69.8335 7.18571 69.7551 6.77354C69.6768 6.36136 69.5093 5.97125 69.2644 5.63045C68.503 4.44683 67.4907 3.44473 66.2991 2.69493C65.1076 1.94512 63.7658 1.46591 62.3685 1.29115C61.2915 1.18144 60.2181 1.16966 59.1456 1.15243Z" fill="#865A61"/>
    <path opacity="0.1" d="M57.2148 35.2277C58.4304 35.517 59.6113 35.9362 60.7371 36.478C59.9982 36.5364 59.2558 36.5364 58.5168 36.478L56.8528 35.8524C56.9629 35.6382 57.0837 35.4297 57.2148 35.2277Z" fill="black"/>
    <path opacity="0.1" d="M69.9821 43.9725C69.3462 44.0022 68.7109 43.901 68.1157 43.6751C68.0537 43.6338 67.9959 43.5864 67.9433 43.5337H67.917C67.2526 43.5346 66.5945 43.4047 65.9804 43.1513C65.3662 42.8979 64.8082 42.5259 64.338 42.0568C63.8679 41.5877 63.4949 41.0305 63.2404 40.4172C62.9859 39.804 62.8549 39.1466 62.8549 38.4826C62.8542 38.1861 62.881 37.8902 62.9347 37.5986C64.2352 38.2209 65.4149 39.0688 66.419 40.1028C66.8277 40.7574 67.3089 41.3638 67.8535 41.9107C68.3353 42.4284 68.8516 42.9262 69.2953 43.3424C69.5611 43.5863 69.8007 43.802 69.9821 43.9725Z" fill="black"/>
    <path d="M70.2679 44.5473C70.2679 44.5473 67.114 41.8273 66.2493 40.2732C65.3846 38.7192 53.2442 32.1132 54.8003 37.1217C56.3564 42.1301 61.7134 42.6043 61.7134 42.6043C61.7134 42.6043 63.4374 44.5473 63.6189 45.4966C63.8067 46.2955 64.067 47.0758 64.3965 47.8276L67.2909 49.1232L68.6302 48.8213C68.6302 48.8213 71.7805 47.0941 70.2679 44.5473Z" fill="#FDC2CC"/>
    <path opacity="0.1" d="M64.2186 47.6562C64.2186 47.6562 69.317 50.5485 69.8351 43.7703L71.1317 44.2018L69.8351 48.7778L67.6321 50.3753C67.6321 50.3753 64.5634 48.951 64.2186 47.6562Z" fill="black"/>
    <path d="M64.3919 47.8285C64.3919 47.8285 69.4903 50.7208 70.0084 43.9426L71.3041 44.3742L70.0084 48.9501L67.8045 50.5476C67.8045 50.5476 64.7367 49.1233 64.3919 47.8285Z" fill="#D39999"/>
    <path d="M68.8933 13.4795C69.0038 12.8804 69.1493 12.2882 69.3288 11.706C69.4565 11.1297 69.4741 10.5345 69.3806 9.95162C69.329 9.53069 69.173 9.1293 68.9269 8.78383C68.7536 8.56804 68.2355 8.09295 67.9288 8.30692C67.7555 8.42932 67.7092 9.13924 67.6402 9.34324C67.3972 10.0275 67.0718 10.6796 66.6712 11.2853C67.5258 12.4638 68.038 13.8552 68.1512 15.3061C68.2644 16.757 67.9743 18.211 67.3128 19.5076C66.6514 20.8041 65.6444 21.8929 64.4028 22.6537C63.1613 23.4145 61.7335 23.8178 60.2771 23.8191C60.0884 23.8191 59.9024 23.81 59.7173 23.7964C59.5449 24.0965 59.387 24.4012 59.2282 24.7031C59.0405 25.0116 58.9138 25.3532 58.8553 25.7095C58.8413 26.0487 58.8934 26.3874 59.0086 26.7068C59.3304 27.7617 59.7747 28.7753 60.3324 29.7269C60.5269 30.0224 60.6865 30.3394 60.8079 30.6717C60.9068 30.9908 60.924 31.3326 61.052 31.6409C61.4332 32.2889 62.0512 32.7638 62.7759 32.9655C63.1756 33.1697 63.6182 33.2757 64.0671 33.2747C64.1089 33.2779 64.1509 33.2723 64.1903 33.2583C64.2298 33.2443 64.2659 33.2222 64.2963 33.1934C64.3267 33.1646 64.3508 33.1298 64.3669 33.0912C64.3831 33.0526 64.391 33.011 64.3901 32.9692C64.4148 32.7875 64.3964 32.6025 64.3364 32.4293C64.2763 32.256 64.1763 32.0993 64.0444 31.9718C64.6307 32.1555 65.246 32.2287 65.8591 32.1876C65.9139 32.199 65.9709 32.1945 66.0232 32.1745C66.0756 32.1545 66.121 32.1198 66.1542 32.0747C66.1873 32.0296 66.2069 31.976 66.2104 31.9201C66.2139 31.8643 66.2013 31.8086 66.174 31.7597C66.0138 31.1081 65.7697 30.48 65.4481 29.891C65.1332 29.3108 64.7322 28.6353 65.0198 28.0432C65.2206 27.724 65.5057 27.4665 65.8437 27.2989C66.4033 26.9947 66.8744 26.5509 67.2112 26.0106C67.548 25.4704 67.7389 24.8521 67.7655 24.2162C67.721 23.5253 67.3717 22.8671 67.3508 22.1717C67.2973 20.4744 69.1256 19.2604 69.4023 17.583C69.6319 16.2239 68.7581 14.8667 68.8933 13.4795Z" fill="#865A61"/>
    <g opacity="0.1">
      <path d="M46.2776 29.5374C46.2676 28.2681 44.9619 27.3895 44.6153 26.17C44.5617 25.9779 44.5286 25.7807 44.5164 25.5816C44.478 26.0106 44.5115 26.4429 44.6153 26.8609C44.9338 27.9752 46.0462 28.8075 46.2486 29.9109C46.2694 29.7875 46.2791 29.6625 46.2776 29.5374Z" fill="black"/>
      <path d="M51.6718 33.6627C51.0012 33.6745 50.3361 33.048 49.7364 33.3454C49.564 33.436 49.4252 33.592 49.2455 33.6754C48.9917 33.7623 48.7176 33.7709 48.4589 33.6999C47.3818 33.5186 46.0825 33.1296 45.8493 32.0679C45.8053 32.2924 45.8053 32.5234 45.8493 32.7479C46.0789 33.8205 47.3818 34.2067 48.4625 34.3917C48.7212 34.4627 48.9953 34.4541 49.2492 34.3672C49.4225 34.2847 49.564 34.1251 49.74 34.0372C50.3398 33.7398 51.0049 34.3672 51.6754 34.3554C52.5174 34.34 52.9902 33.3472 53.011 32.5058C53.011 32.3335 53.011 32.1604 52.9992 31.9881C52.913 32.7842 52.4566 33.6473 51.6718 33.6627Z" fill="black"/>
      <path d="M58.0595 24.5725C57.6367 25.7448 56.7667 26.7022 55.6396 27.2354C54.6669 27.7794 53.5137 28.2717 53.1108 29.308C52.9626 29.7554 52.9118 30.2293 52.962 30.6979C52.9771 30.4589 53.0273 30.2234 53.1108 29.9989C53.5137 28.9626 54.666 28.4702 55.6396 27.9262C56.1985 27.6634 56.7 27.2928 57.1152 26.8359C57.5305 26.3789 57.8514 25.8445 58.0595 25.2634C58.1691 24.8115 58.2058 24.345 58.1684 23.8816C58.1549 24.1149 58.1184 24.3463 58.0595 24.5725Z" fill="black"/>
      <path d="M67.5214 12.2853C67.1197 12.192 66.6996 12.2172 66.3119 12.3579C66.0098 12.5301 65.8582 12.8756 65.6205 13.1267C65.0107 13.755 64 13.6707 63.1271 13.6018H63.0717C62.3718 13.5524 61.6694 13.653 61.0116 13.8969C60.3537 14.1408 59.7556 14.5224 59.2573 15.016C58.7591 15.5096 58.372 16.1039 58.1223 16.7592C57.8725 17.4144 57.7657 18.1154 57.8091 18.8152V18.8841C57.8502 18.2363 58.0192 17.603 58.3065 17.0209C58.5938 16.4388 58.9936 15.9192 59.4829 15.4923C59.9722 15.0653 60.5412 14.7395 61.1572 14.5334C61.7731 14.3274 62.4238 14.2452 63.0717 14.2918H63.1271C63.9909 14.3625 65.0107 14.445 65.6205 13.8167C65.8627 13.5665 66.0161 13.221 66.3119 13.0478C66.6994 12.9065 67.1197 12.8813 67.5214 12.9753C67.8538 13.8008 68.0437 14.6767 68.083 15.5656C68.083 15.4532 68.0921 15.3408 68.0921 15.2202C68.0921 14.2144 67.8996 13.2179 67.525 12.2844L67.5214 12.2853Z" fill="black"/>
      <path d="M45.7114 17.6628C45.763 16.9119 45.6551 16.1586 45.3947 15.4523C45.0406 14.7748 44.7514 14.0654 44.5309 13.3334C44.3422 14.309 45.0391 15.2121 45.3947 16.1441C45.5794 16.6306 45.6863 17.1431 45.7114 17.6628Z" fill="black"/>
      <path d="M69.3397 10.355C69.3239 10.5778 69.2914 10.799 69.2426 11.0169C69.0629 11.5991 68.9175 12.1912 68.8071 12.7903C68.7862 13.0062 68.7862 13.2236 68.8071 13.4395C68.9196 12.858 69.0631 12.283 69.2371 11.7169C69.3377 11.2704 69.3723 10.8115 69.3397 10.355Z" fill="black"/>
      <path d="M69.3188 16.9084C69.0466 18.5849 67.2138 19.7989 67.2673 21.4971C67.2701 21.5881 67.2779 21.6789 67.2909 21.7691C67.5086 20.2821 69.0657 19.1334 69.3179 17.5984C69.3608 17.3199 69.3666 17.037 69.3351 16.757C69.3332 16.8078 69.3277 16.8584 69.3188 16.9084Z" fill="black"/>
      <path d="M69.6337 7.31681C69.4704 7.6869 69.2613 8.03506 69.0113 8.35314C69.0827 8.49227 69.1405 8.63802 69.1837 8.78833C69.3657 8.5461 69.5149 8.28087 69.6273 7.99954C69.7351 7.6786 69.7625 7.33617 69.7072 7.0022C69.692 7.10903 69.6674 7.21431 69.6337 7.31681Z" fill="black"/>
      <path d="M67.6611 24.0439C67.5372 24.5814 67.3041 25.0878 66.9763 25.5316C66.6486 25.9755 66.2331 26.3474 65.7556 26.6243C65.4188 26.7938 65.1339 27.051 64.9309 27.3686C64.8175 27.6233 64.8011 27.9105 64.8846 28.1765C64.8967 28.136 64.9122 28.0965 64.9309 28.0586C65.1319 27.7393 65.4173 27.4817 65.7556 27.3142C66.3152 27.0101 66.7864 26.5663 67.1232 26.0261C67.4601 25.4858 67.651 24.8675 67.6774 24.2316C67.6783 24.1681 67.6702 24.1064 67.6611 24.0439Z" fill="black"/>
      <path d="M64.205 32.5194C64.1409 32.5685 64.0625 32.5952 63.9818 32.5956C63.5328 32.5974 63.09 32.4913 62.6906 32.2864C61.9653 32.086 61.3468 31.6107 60.9666 30.9617C60.8387 30.6544 60.8215 30.3126 60.7235 29.9925C60.6021 29.6603 60.4426 29.3432 60.248 29.0478C59.6901 28.0962 59.2458 27.0826 58.9242 26.0277C58.8741 25.8683 58.8326 25.7064 58.7999 25.5426C58.7881 25.5997 58.7772 25.6586 58.7709 25.7149C58.7572 26.0541 58.8095 26.3929 58.9251 26.7122C59.2468 27.7671 59.6911 28.7807 60.2489 29.7323C60.4435 30.0277 60.6031 30.3448 60.7244 30.6771C60.8233 30.9962 60.8405 31.338 60.9675 31.6463C61.3488 32.2943 61.9668 32.7692 62.6915 32.9709C63.0912 33.1751 63.5338 33.281 63.9827 33.2801C64.0244 33.2833 64.0664 33.2777 64.1059 33.2637C64.1453 33.2497 64.1815 33.2276 64.2119 33.1988C64.2423 33.17 64.2664 33.1352 64.2825 33.0966C64.2987 33.058 64.3066 33.0164 64.3057 32.9745C64.3286 32.8003 64.3109 32.6231 64.254 32.4568C64.2417 32.4806 64.2251 32.5018 64.205 32.5194Z" fill="black"/>
      <path d="M65.9979 31.4595C65.9273 31.4932 65.8502 31.5114 65.772 31.513C65.1589 31.5541 64.5436 31.4809 63.9573 31.2972C64.1716 31.5044 64.2986 31.7856 64.3121 32.0833C64.79 32.1958 65.282 32.2364 65.772 32.2039C65.8267 32.2151 65.8836 32.2104 65.9358 32.1903C65.988 32.1702 66.0332 32.1356 66.0663 32.0905C66.0993 32.0455 66.1188 31.9919 66.1223 31.9361C66.1257 31.8804 66.1131 31.8248 66.0859 31.776C66.0605 31.669 66.0297 31.5629 65.9979 31.4595Z" fill="black"/>
    </g>
    <path opacity="0.1" d="M41.8815 35.2648C41.8815 35.2648 41.7091 38.8008 42.2272 39.0638C42.7453 39.3267 41.8815 35.2648 41.8815 35.2648Z" fill="black"/>
    <path opacity="0.1" d="M51.6899 44.5908C51.8623 44.5908 52.5537 44.9363 52.6408 45.3243C52.7279 45.7124 51.6899 44.5908 51.6899 44.5908Z" fill="black"/>
    <path opacity="0.1" d="M51.2571 45.152C51.4304 45.152 52.1209 45.4975 52.208 45.8864C52.2951 46.2754 51.2571 45.152 51.2571 45.152Z" fill="black"/>
    <path opacity="0.1" d="M52.8559 46.7061C53.0283 46.7061 53.7197 47.0515 53.8068 47.4405C53.8939 47.8294 52.8559 46.7061 52.8559 46.7061Z" fill="black"/>
    <path opacity="0.1" d="M50.6955 46.7714C49.7821 47.6459 48.948 48.5995 48.203 49.621C48.0578 50.1233 43.6236 50.1387 43.6236 50.1387L43.3214 47.7206C43.3214 47.7206 43.3042 47.6572 43.2888 47.5602C44.5137 47.2456 48.487 45.7795 50.8515 46.2999C50.8658 46.3853 50.859 46.4728 50.8318 46.5549C50.8046 46.6371 50.7578 46.7113 50.6955 46.7714Z" fill="black"/>
    <path d="M40.0114 49.7425C40.0114 49.7425 42.2734 47.7424 42.9648 47.7859C43.6562 47.8294 52.081 44.2499 52.6427 48.261C53.2043 52.2721 41.8842 52.4915 41.8842 52.4915L40.1602 53.1388C40.1602 53.1388 38.713 50.0009 40.0114 49.7425Z" fill="#FDC2CC"/>
    <path d="M39.3473 50.0299C39.3473 50.0299 40.3844 48.591 40.7001 50.3464C41.0159 52.1017 41.4931 54.2613 41.4931 54.2613L39.1739 53.1099L39.3473 50.0299Z" fill="#D39999"/>
  </g>
  <defs>
    <linearGradient id="paint0_linear_1_1064" x1="54.5883" y1="135.892" x2="54.5883" y2="-0.0239868" gradientUnits="userSpaceOnUse">
      <stop stop-color="#808080" stop-opacity="0.251"/>
      <stop offset="0.54" stop-color="#808080" stop-opacity="0.122"/>
      <stop offset="1" stop-color="#808080" stop-opacity="0.102"/>
    </linearGradient>
    <clipPath id="clip0_1_1064">
      <rect width="136" height="136" fill="white"/>
    </clipPath>
  </defs>
</svg>