<svg xmlns="http://www.w3.org/2000/svg" width="134" height="134" viewBox="0 0 134 134" fill="none">
  <g clip-path="url(#clip0_1_1276)">
    <path d="M67 117.245C94.7522 117.245 117.25 94.7642 117.25 67.0331C117.25 39.302 94.7522 16.8215 67 16.8215C39.2478 16.8215 16.7502 39.302 16.7502 67.0331C16.7502 94.7642 39.2478 117.245 67 117.245Z" fill="#134F19" fill-opacity="0.05"/>
    <path d="M67 133.979C104.003 133.979 134 104.005 134 67.0304C134 30.0554 104.003 0.0812988 67 0.0812988C29.9969 0.0812988 0 30.0554 0 67.0304C0 104.005 29.9969 133.979 67 133.979Z" fill="#134F19" fill-opacity="0.05"/>
    <path d="M52.4383 49.1003C52.4383 49.1003 51.8036 54.2995 56.8396 54.831L57.5977 51.2326L56.0117 49.1003L53.7382 48.3311L52.4383 49.1003Z" fill="#E53935"/>
    <path opacity="0.1" d="M53.7382 48.3311L52.4383 49.0985C52.4383 49.0985 51.8036 54.2977 56.8396 54.8292" fill="black"/>
    <path d="M61.576 19.7051C61.576 19.7051 58.1788 19.9133 54.7699 20.4778C54.4213 20.5374 54.0744 20.6005 53.7293 20.6672C53.5281 20.7048 53.3314 20.745 53.1339 20.7887C51.6109 21.031 50.138 21.5211 48.7738 22.2395C47.6366 22.9685 47.254 21.0049 47.2218 18.2758C47.2066 17.3154 47.2387 16.2622 47.2897 15.1983C47.3559 13.9672 47.4524 12.721 47.5579 11.5999C47.7832 9.11465 48.0433 7.18327 48.0433 7.18327C48.0433 7.18327 49.2333 7.18326 50.8237 7.12787L51.3351 7.10911C51.8331 7.09035 52.3623 7.06356 52.8952 7.0314C53.1473 7.018 53.4012 7.00281 53.6533 6.98405C54.6617 6.91169 55.6568 6.80538 56.4963 6.67763C57.1953 6.60358 57.8767 6.41146 58.5114 6.10947C60.3065 5.04015 61.576 19.7051 61.576 19.7051Z" fill="#F8BDC5"/>
    <path d="M76.718 38.9011L76.0546 43.3008C76.0546 43.3008 74.609 45.0999 74.7976 46.0996C74.9863 47.0992 76.6554 91.2924 76.6554 91.2924C76.6554 91.2924 79.9247 109.955 78.7894 112.355C77.654 114.754 78.7232 120.354 78.7232 120.354L85.5266 119.289L87.801 37.7004L76.718 38.9011Z" fill="#474463"/>
    <path opacity="0.1" d="M76.718 38.9011L76.0546 43.3008C76.0546 43.3008 74.609 45.0999 74.7976 46.0996C74.9863 47.0992 76.6554 91.2924 76.6554 91.2924C76.6554 91.2924 79.9247 109.955 78.7894 112.355C77.654 114.754 78.7232 120.354 78.7232 120.354L85.5266 119.289L87.801 37.7004L76.718 38.9011Z" fill="black"/>
    <path d="M91.7275 121.487C91.5235 122.238 91.4763 123.023 91.589 123.794C91.6417 124.565 91.7275 125.223 91.7275 125.223V129.755C91.7275 129.755 84.4565 127.222 80.454 124.557C78.8028 123.456 78.3334 122.433 78.4237 121.615C78.5179 121.122 78.7645 120.671 79.1288 120.326C79.4931 119.981 79.9566 119.759 80.454 119.691C81.053 119.691 82.9447 118.647 84.4949 117.725C85.7134 117.003 86.7299 116.358 86.7299 116.358C86.7299 116.358 92.1271 120.821 91.7275 121.487Z" fill="#575988"/>
    <path opacity="0.1" d="M91.7266 121.487C91.5224 122.238 91.4753 123.023 91.5881 123.794C89.9717 123.036 84.9652 118.184 84.4941 117.719C85.7126 116.997 86.7291 116.351 86.7291 116.351C86.7291 116.351 92.1262 120.821 91.7266 121.487Z" fill="black"/>
    <path d="M106.67 41.9679L104.936 48.3677C104.451 49.2778 104.07 50.239 103.798 51.2335C103.574 52.065 103.214 52.8535 102.731 53.5669C102.31 54.4882 102.083 55.4862 102.064 56.4988C101.998 58.2998 100.737 66.631 99.3293 68.0309L98.9958 73.4302C98.8177 73.5511 98.6657 73.7065 98.5488 73.8872C98.4318 74.0678 98.3524 74.2701 98.3151 74.4821C98.2778 74.694 98.2835 74.9112 98.3318 75.1209C98.3801 75.3306 98.47 75.5285 98.5962 75.7028C99.5233 77.0428 99.197 80.5018 99.197 80.5018C99.197 80.5018 97.9293 81.5015 98.7303 82.502C99.5313 83.5025 98.9985 86.4327 98.9985 86.4327C98.9985 86.4327 98.2645 87.3644 98.5989 87.8986C98.9333 88.4328 98.269 102.163 98.269 102.163L96.6661 108.895C96.6661 108.895 95.9303 114.495 95.5288 116.162C95.2713 117.389 95.1374 118.639 95.1293 119.893C95.1293 119.893 93.3948 123.556 92.1271 123.361C90.8594 123.166 84.7238 117.161 84.7238 117.161L85.5901 96.8954C85.5901 96.8954 86.3241 88.297 85.8583 86.6301C85.3925 84.9631 85.0582 76.6319 85.0582 76.6319L84.124 63.4999L74.7949 48.8349C74.7949 48.8349 74.1181 44.5684 76.0519 43.3025L76.4023 40.9977L76.7188 38.9028L87.7939 37.7022L104.736 33.3043C105.686 34.003 106.385 34.9902 106.726 36.1183C107.302 38.0287 107.283 40.0689 106.67 41.9679Z" fill="#474463"/>
    <path d="M77.1917 48.7108C77.1917 48.7108 69.3245 58.3695 69.6535 55.6708C69.8618 53.9734 68.7854 51.9054 67.9477 50.5966C67.6681 50.1524 67.3665 49.7225 67.0439 49.3084C67.0439 49.3084 71.8465 40.5109 72.1138 41.7097C72.463 42.5139 72.9189 43.2675 73.4691 43.9502C74.9755 46.0308 77.1917 48.7108 77.1917 48.7108Z" fill="#FFC1C8"/>
    <path opacity="0.3" d="M91.7275 128.808V129.755C91.7275 129.755 84.4565 127.223 80.454 124.556C78.8028 123.455 78.3334 122.433 78.4237 121.615C81.0248 122.871 83.551 124.276 85.9897 125.823C87.8171 126.974 89.7362 127.972 91.7275 128.808Z" fill="white"/>
    <path d="M90.0155 132.406C91.2434 132.406 92.2389 131.412 92.2389 130.185C92.2389 128.958 91.2434 127.963 90.0155 127.963C88.7875 127.963 87.7921 128.958 87.7921 130.185C87.7921 131.412 88.7875 132.406 90.0155 132.406Z" fill="#474463"/>
    <path d="M67.3058 129.287C68.5337 129.287 69.5292 128.292 69.5292 127.065C69.5292 125.838 68.5337 124.843 67.3058 124.843C66.0778 124.843 65.0824 125.838 65.0824 127.065C65.0824 128.292 66.0778 129.287 67.3058 129.287Z" fill="#474463"/>
    <path d="M100.285 127.855C100.273 128.013 100.228 128.167 100.154 128.308L98.8278 129.753L80.2832 129.456L75.2965 129.374C75.2965 129.374 64.7998 127.465 62.7552 126.575C60.7106 125.684 52.6699 124.055 52.6699 124.055C52.6699 124.055 47.8136 123.241 47.1011 120.887C46.9894 120.6 46.9443 120.291 46.9693 119.984C46.9942 119.677 47.0885 119.38 47.245 119.114C47.6359 118.606 48.2035 118.264 48.8355 118.154C51.0269 117.507 53.3698 117.594 55.5075 118.401L86.5914 126.392L87.0733 126.515C87.0733 126.515 98.1537 126.308 98.3772 126.348C100.077 126.654 100.324 127.38 100.285 127.855Z" fill="#E53935"/>
    <path opacity="0.3" d="M100.285 127.855C98.4201 127.612 95.1677 127.254 94.33 127.599C94.33 127.599 88.4143 126.869 80.2761 129.456L75.2964 129.374C75.2964 129.374 64.7998 127.465 62.7552 126.575C60.7106 125.684 52.6699 124.055 52.6699 124.055C52.6699 124.055 47.8136 123.241 47.1011 120.887C46.9893 120.6 46.9442 120.291 46.9691 119.984C46.9941 119.677 47.0884 119.38 47.245 119.114C47.5767 120.08 48.2159 121.48 49.2351 121.872C50.8363 122.488 57.4189 123.742 57.4189 123.742L70.4473 126.929C70.4473 126.929 77.9695 128.56 80.8983 127.497C82.7579 126.962 84.6603 126.588 86.5842 126.38L87.0661 126.503C87.0661 126.503 98.1465 126.297 98.37 126.336C100.077 126.658 100.324 127.379 100.285 127.855Z" fill="white"/>
    <path d="M82.2921 125.455C82.2763 125.735 82.2413 126.012 82.1875 126.287C78.4497 126.434 74.7063 126.332 70.982 125.982C70.2365 125.951 69.5336 125.627 69.0259 125.081C68.893 124.889 68.8107 124.668 68.7864 124.436C68.7622 124.204 68.7969 123.97 68.8873 123.755C68.9296 123.631 68.9836 123.512 69.0482 123.398C69.3343 122.898 69.7742 122.544 70.0147 122.594C70.6816 122.729 71.8268 121.361 71.8268 121.361C71.7374 120.526 73.0489 120.225 73.2572 120.361C73.2938 120.389 73.3369 120.407 73.3824 120.414C73.4279 120.42 73.4743 120.415 73.5171 120.398C73.5599 120.381 73.5977 120.354 73.6268 120.318C73.656 120.283 73.6756 120.241 73.6837 120.195C73.6971 120.133 73.7007 119.832 73.7007 119.481C73.7007 118.894 73.6837 118.155 73.6837 118.155L81.0906 119.055L81.3847 120.469C81.6529 121.73 82.0293 123.463 82.1893 124.055C82.3005 124.513 82.3353 124.986 82.2921 125.455Z" fill="#474463"/>
    <path opacity="0.1" d="M82.2921 125.455C82.2762 125.735 82.2413 126.012 82.1875 126.287C78.4497 126.434 74.7062 126.332 70.9819 125.982C70.2365 125.951 69.5336 125.627 69.0258 125.081C70.0443 124.986 71.0708 125.02 72.0807 125.183C73.2107 125.463 79.9686 125.463 82.2921 125.455Z" fill="black"/>
    <path d="M69.0419 123.394C69.0503 123.463 69.0397 123.532 69.0113 123.595C68.983 123.658 68.9379 123.712 68.881 123.752C67.9486 124.472 63.4731 123.689 63.4731 123.689C63.4731 123.689 54.3301 123.121 52.9631 122.189C52.8398 122.108 52.7367 122 52.6618 121.873C52.0933 120.847 54.1513 119.123 54.3301 119.123C54.5089 119.123 56.9665 118.788 57.131 118.756C58.2682 118.527 59.4054 117.823 59.5949 118.024C59.7845 118.225 60.7321 117.756 61.1943 117.69C61.3633 117.665 61.441 117.427 61.4697 117.122C61.4962 116.71 61.4821 116.296 61.4276 115.886L68.7308 117.851L68.7952 119.013L69.0053 122.884L69.0321 123.36C69.0366 123.371 69.0399 123.382 69.0419 123.394Z" fill="#474463"/>
    <path opacity="0.1" d="M63.4812 123.688C63.4812 123.688 54.3381 123.12 52.9712 122.188C52.8479 122.107 52.7448 121.999 52.6699 121.872C54.5214 122.024 57.6093 122.279 58.1663 122.421C58.9709 122.611 63.4732 122.888 63.4732 122.888H69.016L69.0428 123.363C69.2806 124.703 63.4812 123.688 63.4812 123.688Z" fill="black"/>
    <path d="M56.1726 129.287C57.4006 129.287 58.396 128.292 58.396 127.065C58.396 125.838 57.4006 124.843 56.1726 124.843C54.9447 124.843 53.9492 125.838 53.9492 127.065C53.9492 128.292 54.9447 129.287 56.1726 129.287Z" fill="#474463"/>
    <path d="M80.319 133.899C81.547 133.899 82.5424 132.904 82.5424 131.677C82.5424 130.45 81.547 129.456 80.319 129.456C79.0911 129.456 78.0956 130.45 78.0956 131.677C78.0956 132.904 79.0911 133.899 80.319 133.899Z" fill="#474463"/>
    <path d="M57.7076 51.4998C57.7076 51.4998 57.2866 52.2573 56.6536 53.3821C55.1338 56.0567 52.4097 60.7967 51.2368 62.2966C49.5685 64.429 49.7036 62.4306 47.9012 57.9648C46.5602 54.6425 50.6816 50.8423 52.8845 49.1146C53.6426 48.5143 54.1736 48.1677 54.1736 48.1677L57.7076 51.4998Z" fill="#F8BDC5"/>
    <path d="M65.7779 56.632C65.7779 56.632 60.2413 57.0974 59.1747 57.4306C57.1599 57.6653 55.1246 57.6653 53.1097 57.4306C52.7137 57.2984 44.8365 59.0976 48.4394 60.8967C52.0423 62.6959 54.3149 60.8967 54.3149 60.8967C54.3149 60.8967 58.9852 60.6287 60.1903 61.3648C61.3955 62.1009 65.7931 61.6981 65.7931 61.6981L65.7779 56.632Z" fill="#FFC1C8"/>
    <path opacity="0.1" d="M54.2764 15.8388C54.5585 16.6315 54.6558 17.4782 54.5609 18.3141C54.4659 19.1501 54.1812 19.9534 53.7284 20.6628C51.9985 20.9071 50.3219 21.4398 48.7684 22.2386C45.7663 24.1727 48.0353 7.17436 48.0353 7.17436C48.0353 7.17436 49.4872 7.17437 51.3271 7.10022C50.7701 9.63997 52.8818 12.278 54.2764 15.8388Z" fill="black"/>
    <path d="M54.4472 15.46C54.4436 18.2517 53.4116 20.9444 51.5482 23.0244C49.6848 25.1044 47.1203 26.4262 44.3439 26.7376C41.5676 27.049 38.7736 26.3283 36.4951 24.7129C34.2165 23.0975 32.6128 20.7005 31.9898 17.9791C31.3669 15.2577 31.7683 12.4024 33.1175 9.95779C34.4667 7.51322 36.6692 5.65048 39.305 4.72489C41.9408 3.7993 44.8253 3.87565 47.4084 4.93936C49.9914 6.00308 52.0922 7.97972 53.31 10.4922C54.0606 12.0408 54.4494 13.7394 54.4472 15.46Z" fill="#F8BDC5"/>
    <path opacity="0.1" d="M106.725 36.1166C106.365 36.641 105.824 37.0151 105.206 37.168C102.603 37.9006 84.258 42.3003 83.0583 42.0332C81.9989 41.7982 77.4519 41.1452 76.4033 40.9951L76.7197 38.9002L87.7948 37.6996L104.737 33.3017C105.686 34.0014 106.384 34.9887 106.725 36.1166Z" fill="black"/>
    <path opacity="0.1" d="M61.5761 19.7042C59.4077 19.8342 57.2473 20.0745 55.1034 20.4243C55.1337 20.3267 55.1296 20.2217 55.0918 20.1268L59.527 19.5792C59.527 19.5792 58.8788 9.1629 56.4945 6.66603C57.1935 6.59201 57.8749 6.39989 58.5096 6.09787C60.3101 5.04195 61.5761 19.7042 61.5761 19.7042Z" fill="black"/>
    <path d="M55.7748 4.06021C55.7748 4.06021 59.7085 3.70288 60.2449 3.03913C60.7813 2.37539 64.5817 2.17349 64.5817 2.17349C65.3851 2.05647 66.1578 1.78333 66.8561 1.36949C67.2637 0.901384 77.3947 0.302845 78.3951 0.833485C79.1815 1.28594 80.0392 1.60161 80.9314 1.76702C81.5322 1.83491 86.2008 5.16169 86.6665 5.16169C87.1323 5.16169 99.9337 17.2279 99.9337 17.2279C99.9337 17.2279 101.26 20.2939 101.803 20.427C102.346 20.5601 107.14 32.6915 107.14 32.6915C107.14 32.6915 107.807 35.6235 105.207 36.3542C102.606 37.085 84.2589 41.4864 83.0592 41.2193C81.8594 40.9522 76.1887 40.1527 76.1887 40.1527C76.1887 40.1527 76.2549 40.1527 76.1225 39.4201C75.9902 38.6876 75.789 38.8841 76.0545 38.2195C76.3201 37.5549 76.591 37.6192 76.2557 37.2198C75.9205 36.8205 76.2557 36.6195 75.1892 35.9531C74.3567 35.504 73.5739 34.9683 72.854 34.3549C72.7932 34.1557 71.8527 32.8211 71.387 32.755C70.9212 32.6889 57.8444 29.0217 57.8444 29.0217L54.7762 28.0221C54.7762 28.0221 53.3091 27.0225 53.639 26.4239C53.9689 25.8254 55.1043 20.4109 55.1043 20.4109L59.7952 19.8329C59.7952 19.8329 59.0961 8.54475 56.4686 6.65088C53.841 4.75701 55.7748 4.06021 55.7748 4.06021Z" fill="#E53935"/>
    <path opacity="0.1" d="M57.7076 51.4998C57.7076 51.4998 57.2866 52.2574 56.6536 53.3821C56.5553 49.9052 54.1218 49.2308 52.8835 49.1155C53.6417 48.5152 54.1727 48.1686 54.1727 48.1686L57.7076 51.4998Z" fill="black"/>
    <path d="M54.4472 26.2372L54.769 28.0364C54.769 28.0364 56.0367 29.5702 56.0367 30.0365C56.0367 30.5028 57.5038 31.8357 57.9052 32.5691C58.3066 33.3026 59.7058 33.4365 59.1711 34.7033C58.6365 35.97 55.57 45.635 55.57 45.635L52.4348 49.1011C52.4348 49.1011 57.6379 48.633 56.836 54.8319L63.5741 48.9609L68.8488 39.3683C68.8488 39.3683 63.7127 29.6372 63.5134 28.8377C63.314 28.0382 54.4472 26.2372 54.4472 26.2372Z" fill="#E53935"/>
    <path opacity="0.1" d="M70.0477 29.5702C70.0477 29.5702 74.3157 26.5704 74.3157 26.2372C74.3157 25.904 70.0477 29.5702 70.0477 29.5702Z" fill="black"/>
    <path opacity="0.1" d="M77.1918 33.3035C77.1918 33.3035 79.4661 32.7675 79.6557 31.5704C79.8452 30.3734 77.1918 33.3035 77.1918 33.3035Z" fill="black"/>
    <path opacity="0.1" d="M79.0531 36.3694C79.0531 36.3694 82.2564 34.7846 82.1214 34.5095C81.9864 34.2343 79.0531 36.3694 79.0531 36.3694Z" fill="black"/>
    <path opacity="0.1" d="M96.1967 26.2158C96.1967 26.2158 94.87 27.0814 95.2642 27.8916C95.6585 28.7019 96.1967 26.2158 96.1967 26.2158Z" fill="black"/>
    <path opacity="0.1" d="M100.126 26.5704C100.126 26.5704 96.3469 30.1688 97.2015 30.2331C98.0562 30.2974 100.126 26.5704 100.126 26.5704Z" fill="black"/>
    <path opacity="0.1" d="M91.5282 82.3618C91.5282 82.3618 96.3969 83.2953 96.5301 83.6285C96.6634 83.9617 91.5282 82.3618 91.5282 82.3618Z" fill="black"/>
    <path opacity="0.1" d="M93.2625 85.5599C93.2625 85.5599 95.8632 87.1599 95.9294 87.6262C95.9955 88.0925 93.2625 85.5599 93.2625 85.5599Z" fill="black"/>
    <path opacity="0.1" d="M92.6617 89.16C92.6617 89.16 93.0614 90.9592 93.7283 91.2263C94.3952 91.4934 92.6617 89.16 92.6617 89.16Z" fill="black"/>
    <path opacity="0.1" d="M53.3216 10.4342C53.323 10.4543 53.3197 10.4745 53.3118 10.4931C53.3022 10.789 53.2145 11.0771 53.0575 11.3281C52.9004 11.5791 52.6797 11.7842 52.4178 11.9224C52.0815 12.0181 51.7217 11.9863 51.4075 11.8331C50.4599 11.4186 49.6195 10.4225 48.6039 10.6628C48.3709 10.7318 48.1557 10.8506 47.9731 11.0108C47.7905 11.1711 47.6449 11.369 47.5463 11.591C47.3807 11.914 47.2535 12.2552 47.1673 12.6076C46.9114 13.3351 46.8936 14.125 47.1163 14.8633C47.164 14.9788 47.2212 15.0903 47.2871 15.1965C47.5553 15.6262 47.9352 15.9916 48.2007 16.4257C48.3932 16.6776 48.4892 16.99 48.4711 17.3064C48.4531 17.6229 48.3223 17.9224 48.1024 18.1508C47.9735 18.2354 47.8274 18.2904 47.6746 18.3118C47.5219 18.3331 47.3663 18.3202 47.2191 18.274C46.8429 18.156 46.4813 17.9959 46.1409 17.797C45.826 17.588 45.4627 17.4632 45.0858 17.4348C44.7088 17.4063 44.3309 17.475 43.9881 17.6344C43.7682 17.7711 43.5921 17.9676 43.382 18.1115C42.9446 18.382 42.4258 18.4898 41.9167 18.4161C40.7116 18.2928 40.2601 17.5299 39.3393 16.9385C38.6643 16.5026 37.2544 16.3132 36.8521 17.2065C36.5946 17.7747 36.9773 18.4902 36.7252 19.07C36.4731 19.6498 35.6711 19.8275 35.3001 20.3653C34.8111 21.0737 35.2661 22.0984 34.9076 22.8845C34.8527 23.0063 34.7791 23.1187 34.6895 23.2178C32.68 21.0551 31.5882 18.1979 31.6439 15.2473C31.6996 12.2967 32.8984 9.48265 34.9882 7.39726C37.0779 5.31187 39.8957 4.11769 42.8486 4.06596C45.8015 4.01423 48.6594 5.10897 50.8211 7.11988L51.3333 7.10112C51.8322 7.08236 52.3606 7.05556 52.8934 7.0234C53.0194 7.28994 53.118 7.56861 53.1875 7.85509C53.3934 8.6988 53.439 9.57366 53.3216 10.4342Z" fill="black"/>
    <path d="M36.583 16.9412C36.3238 17.5093 36.7064 18.2249 36.4561 18.8029C36.2058 19.3809 35.3985 19.5604 35.031 20.0982C34.5402 20.8129 34.9953 21.8331 34.6386 22.6174C34.2291 23.5108 32.9936 23.6537 32.0459 23.3919C31.2363 23.1609 30.4933 22.7406 29.8783 22.1659C29.2633 21.5911 28.794 20.8784 28.5092 20.0866C27.8664 18.2588 28.2821 16.2453 28.1149 14.3175C28.0438 13.4903 27.8653 12.6759 27.5839 11.8947C27.2473 11.1571 26.9991 10.3823 26.8446 9.58636C26.7807 8.90341 26.9231 8.217 27.2534 7.61572C27.5838 7.01444 28.0869 6.52589 28.6978 6.21313C29.4792 5.83436 30.4394 5.72626 31.008 5.07681C31.3724 4.51809 31.6211 3.89203 31.7393 3.23565C32.0041 2.37515 32.5287 1.61753 33.2412 1.06659C33.9538 0.515638 34.8194 0.198321 35.7194 0.158122C37.1561 0.169735 38.5624 1.01573 39.9669 0.682513C40.7607 0.493127 41.4867 -0.0750367 42.302 0.00625665C42.6942 0.0678535 43.07 0.207592 43.407 0.417182C45.5871 1.5937 47.6614 2.95602 49.607 4.48899C50.0093 4.83579 50.4499 5.13552 50.9203 5.38233C51.2232 5.50035 51.5188 5.63639 51.8054 5.7897C52.3915 6.2262 52.7877 6.87083 52.9122 7.59065C53.1216 8.43405 53.1693 9.30947 53.0525 10.1706C53.0496 10.4771 52.9645 10.7772 52.8062 11.0397C52.6478 11.3022 52.4221 11.5175 52.1523 11.6634C51.8146 11.7575 51.454 11.7231 51.1402 11.5669C50.1926 11.1559 49.3522 10.1599 48.3393 10.3984C47.5132 10.5878 47.1145 11.5231 46.8991 12.3432C46.6412 13.0709 46.6234 13.862 46.8481 14.6006C47.1707 15.1463 47.5326 15.6679 47.9307 16.1613C48.2553 16.7044 48.3473 17.5174 47.8324 17.8863C47.2638 18.2973 46.4914 17.8595 45.8656 17.5344C45.551 17.3254 45.1881 17.2006 44.8115 17.1718C44.4349 17.1431 44.0573 17.2113 43.7146 17.37C43.4964 17.5067 43.3203 17.7032 43.1084 17.8488C42.6707 18.1169 42.1532 18.224 41.6449 18.1516C40.438 18.0284 39.9865 17.2655 39.0675 16.6741C38.3934 16.2354 36.9871 16.0496 36.583 16.9412Z" fill="#474463"/>
    <path opacity="0.1" d="M73.4709 43.9404C73.4199 44.2245 73.0292 44.2566 72.9497 44.5335C72.6446 45.8624 72.0339 47.1019 71.1659 48.1539C70.298 49.2058 69.1968 50.0413 67.9495 50.5939C67.4551 49.8158 67.0456 49.3066 67.0456 49.3066C67.0456 49.3066 71.8482 40.5091 72.1156 41.7079C72.4668 42.5086 72.9225 43.2592 73.4709 43.9404Z" fill="black"/>
    <path d="M73.6139 42.1028C73.6069 44.1298 72.8972 46.0917 71.6056 47.6547C70.314 49.2178 68.5203 50.2853 66.5297 50.6756C64.5391 51.066 62.4747 50.755 60.6877 49.7957C58.9008 48.8364 57.5017 47.288 56.7285 45.414C55.9554 43.54 55.856 41.4562 56.4472 39.5172C57.0385 37.5782 58.2839 35.9038 59.9715 34.779C61.659 33.6542 63.6845 33.1485 65.7032 33.3479C67.7219 33.5473 69.6091 34.4395 71.0436 35.8727C71.8607 36.6915 72.5082 37.6631 72.9493 38.7321C73.3903 39.8011 73.6162 40.9465 73.6139 42.1028Z" fill="#FFC1C8"/>
    <path opacity="0.1" d="M68.746 117.853L68.8104 119.014C68.0389 119.185 66.5753 119.408 65.7171 118.886C64.6121 118.209 62.9805 118.045 61.4848 117.124C61.5113 116.711 61.4973 116.297 61.4428 115.887L68.746 117.853Z" fill="black"/>
    <path opacity="0.1" d="M81.3829 120.469C81.3319 120.728 81.2845 120.888 81.2845 120.888C81.2845 120.888 75.3993 120.286 73.7033 119.473C73.7033 118.886 73.6863 118.147 73.6863 118.147L81.0932 119.047L81.3829 120.469Z" fill="black"/>
    <path d="M80.0535 94.026C79.6539 95.0927 79.4527 95.2928 79.8541 95.8252C80.2555 96.3577 80.0535 99.1582 79.4161 99.4235C78.7786 99.6889 76.3835 101.289 76.3835 101.289C76.3835 101.289 77.7103 103.022 77.7496 103.751C77.7848 104.217 77.9652 104.66 78.2655 105.018C78.2655 105.018 80.3217 109.417 80.7294 110.817C81.137 112.217 81.5143 114.415 81.5143 114.415C81.5143 114.415 80.7991 116.416 81.2926 117.55C81.5655 118.463 81.5655 119.436 81.2926 120.349C81.2926 120.349 74.1262 119.616 73.3359 118.675C72.5456 117.733 73.0677 115.616 73.0677 115.616C72.9036 114.673 72.564 113.768 72.0664 112.95C71.2618 111.683 72.2559 110.351 72.0664 110.283C71.4575 109.728 70.9781 109.045 70.6619 108.285C70.0593 107.086 69.6838 107.55 69.6838 107.55C69.6838 107.55 70.4643 114.283 69.6838 114.884C68.9033 115.484 68.797 115.217 68.9981 116.02C69.1537 116.791 69.265 117.57 69.3316 118.353C69.3316 118.353 66.9302 119.087 65.7305 118.353C64.5307 117.62 62.7248 117.486 61.138 116.353C59.5511 115.22 61.8532 113.287 62.2564 113.02C62.6596 112.753 62.124 108.888 62.124 108.888L61.5876 105.088C61.5876 105.088 63.3882 105.488 62.7973 104.022C62.2063 102.556 61.5215 97.4895 61.188 96.6899C60.8545 95.8904 62.3252 94.8229 62.1223 94.2905C61.9193 93.758 62.9886 90.6921 62.9886 90.6921C62.9886 90.6921 63.0565 88.1604 63.7217 87.6852C64.0338 87.3048 64.2186 86.8361 64.25 86.3452C64.3667 85.6233 64.4356 84.8945 64.4565 84.1636C64.4565 84.1636 79.7316 83.097 82.1991 84.563C83.3095 85.2223 83.2317 86.4389 82.7677 87.6655C82.1937 88.9158 81.5145 90.1151 80.7374 91.2504C80.1885 92.2706 80.454 92.9603 80.0535 94.026Z" fill="#575988"/>
    <path opacity="0.1" d="M82.7508 87.6628C80.8554 88.1988 78.3307 88.9769 77.9231 89.4262C77.2561 90.1614 74.9871 85.2937 74.9871 85.2937C74.9871 85.2937 75.1221 88.9563 72.1191 87.4225C69.5202 86.0968 65.3247 86.271 64.242 86.3425C64.3587 85.6206 64.4277 84.8918 64.4485 84.1609C64.4485 84.1609 79.7236 83.0942 82.1911 84.5602C83.2979 85.2195 83.2201 86.4335 82.7508 87.6628Z" fill="black"/>
    <path d="M74.9836 47.3672C74.9836 47.3672 76.3103 45.7673 76.5847 46.3676C77.1095 47.0519 77.7293 47.6577 78.4255 48.1668C78.4255 48.1668 78.8725 49.5666 79.6646 49.7676C80.4567 49.9686 86.3912 57.9666 86.3912 57.9666L84.2563 62.2957L82.5219 72.8281C82.5785 73.6067 82.4425 74.3872 82.1258 75.1008C81.6538 75.7065 79.8515 75.5662 80.6874 76.2996C81.5233 77.033 82.723 77.6995 83.3899 81.0343C83.7228 82.8292 84.2138 84.5911 84.8571 86.2996C84.8571 86.2996 78.5873 87.8996 77.9195 88.633C77.2517 89.3664 74.9836 84.5004 74.9836 84.5004C74.9836 84.5004 75.1186 88.1577 72.1156 86.6292C69.1126 85.1008 63.98 85.5671 63.98 85.5671V81.6275C63.98 81.6275 64.9814 80.0936 64.4485 79.027C63.9157 77.9603 64.8124 75.961 64.8124 75.961C64.653 74.846 64.3739 73.7513 63.98 72.6959C63.4436 71.4971 63.6466 65.8307 63.6466 65.8307C63.4308 63.9929 63.4188 62.1369 63.6108 60.2964C63.9244 58.6778 64.4783 57.1151 65.2541 55.66C65.9871 54.2307 66.452 52.8988 66.2527 52.3645C66.0533 51.8303 68.0138 50.6753 68.0138 50.6753L69.1001 52.4306L69.3763 53.4794C69.3763 53.4794 75.1186 49.3674 74.9836 47.3672Z" fill="#DCE6F2"/>
    <path d="M84.5835 56.632C84.5835 56.632 88.3195 60.2946 88.7192 60.8967C89.1188 61.4989 90.459 64.6184 88.7246 65.5653C86.9902 66.5122 80.1957 67.9728 79.5207 67.469C78.8457 66.9652 74.7824 68.0371 74.7824 68.0371C74.7824 68.0371 67.9879 69.7041 69.4532 66.9705C70.9185 64.2369 74.3908 64.6979 74.3908 64.6979C74.3908 64.6979 79.9972 64.688 80.5962 64.1297C81.1952 63.5714 85.7135 62.3725 84.6899 59.9025C83.6663 57.4324 84.5835 56.632 84.5835 56.632Z" fill="#FFC1C8"/>
    <path opacity="0.1" d="M73.613 73.03C73.613 73.03 64.9116 80.5626 65.7779 80.5626C66.6442 80.5626 73.613 73.03 73.613 73.03Z" fill="black"/>
    <path opacity="0.1" d="M79.4169 76.0959C79.4169 76.0959 76.6518 76.7606 77.1819 77.1617C77.7121 77.5628 79.4169 76.0959 79.4169 76.0959Z" fill="black"/>
    <path opacity="0.1" d="M69.665 57.8308C69.665 57.8308 73.1159 58.1399 72.508 59.219C71.9001 60.2982 69.665 57.8308 69.665 57.8308Z" fill="black"/>
    <path opacity="0.1" d="M67.5141 90.2035C67.2633 90.8753 67.2633 91.6149 67.5141 92.2867C67.9826 93.0139 67.5141 94.7487 67.5141 94.7487V100.809C67.5141 100.809 67.4497 105.209 69.0473 106.741L67.5141 90.2035Z" fill="black"/>
    <path opacity="0.1" d="M62.9439 109.09C63.3577 109.677 63.7151 110.302 64.0113 110.956C64.1454 111.456 62.9439 109.09 62.9439 109.09Z" fill="black"/>
    <path opacity="0.1" d="M63.1772 106.357C63.1772 106.357 65.3452 105.957 65.6804 106.19C66.0157 106.422 63.1772 106.357 63.1772 106.357Z" fill="black"/>
    <path opacity="0.1" d="M62.5443 114.522C62.5443 114.522 61.9087 114.588 63.1773 115.279C64.4459 115.971 66.9133 116.845 66.9455 116.546C66.9777 116.247 62.5443 114.522 62.5443 114.522Z" fill="black"/>
    <path opacity="0.1" d="M71.8259 107.89C72.0494 107.89 74.8414 107.723 74.6805 108.158C74.5196 108.592 71.8259 107.89 71.8259 107.89Z" fill="black"/>
    <path opacity="0.1" d="M75.6183 103.99C75.6183 103.99 76.2513 102.891 76.4846 103.358C76.7179 103.824 75.6183 103.99 75.6183 103.99Z" fill="black"/>
    <path opacity="0.1" d="M73.6139 42.1001C73.6149 42.918 73.5015 43.7319 73.2769 44.5184C73.07 44.6747 72.8215 44.7665 72.5626 44.7824C72.3037 44.7983 72.0459 44.7375 71.8214 44.6077C71.3165 44.2667 70.8981 43.8128 70.5993 43.282C70.299 42.7521 69.8452 42.3255 69.2976 42.0582C68.9297 41.9535 68.5417 41.9394 68.1671 42.0172C67.7925 42.095 67.4424 42.2623 67.1466 42.5048C66.5208 42.9515 66.0282 43.5429 65.4408 44.0235C65.1633 44.2843 64.8349 44.4852 64.4762 44.6136C64.1175 44.7419 63.7362 44.795 63.356 44.7694C62.8765 44.6594 62.4248 44.4517 62.0293 44.1593C61.4645 43.7209 60.8613 43.3343 60.227 43.0042C59.6012 42.7639 59.0898 43.1936 58.4962 43.1936C58.0241 43.3642 57.5127 43.7519 57.6021 44.2432C57.6528 44.4252 57.7348 44.5969 57.8444 44.7507C58.0349 45.1257 58.1101 45.5486 58.0604 45.9662C58.0108 46.3839 57.8386 46.7774 57.5655 47.0974C56.7798 45.9624 56.2723 44.6586 56.0841 43.2913C55.8958 41.9241 56.032 40.5318 56.4817 39.2269C56.9314 37.9219 57.682 36.741 58.6728 35.7795C59.6637 34.818 60.8669 34.1028 62.1854 33.6918C63.5039 33.2808 64.9007 33.1854 66.2629 33.4135C67.6251 33.6415 68.9145 34.1865 70.0269 35.0045C71.1394 35.8224 72.0437 36.8904 72.6668 38.1221C73.2899 39.3538 73.6144 40.7146 73.6139 42.0948V42.1001Z" fill="black"/>
    <path d="M58.4926 42.9354C58.0206 43.106 57.5092 43.4937 57.5986 43.9868C57.6512 44.1678 57.7337 44.3387 57.8427 44.4924C57.9687 44.7422 58.0442 45.0144 58.0648 45.2934C58.0854 45.5724 58.0507 45.8528 57.9626 46.1183C57.8746 46.3839 57.735 46.6295 57.5518 46.841C57.3686 47.0526 57.1454 47.2259 56.895 47.3511C56.7332 47.4353 56.5483 47.4644 56.3684 47.4342C56.2257 47.39 56.0957 47.3122 55.9894 47.2073C55.434 46.7112 55.051 46.0513 54.896 45.3232C54.8076 44.5487 54.7593 43.7702 54.7512 42.9908C54.668 42.2127 54.4007 41.4453 54.3042 40.6609C54.2386 40.2734 54.2801 39.8753 54.424 39.5094C54.549 39.2683 54.7099 39.0475 54.9014 38.8546C55.4757 38.2985 55.9361 37.6358 56.2567 36.9036C56.6796 35.7065 56.372 34.1816 57.2973 33.3052C57.7728 32.9597 58.2983 32.6886 58.8556 32.5012C59.3551 32.2363 59.8333 31.9331 60.286 31.5945C62.0016 30.4162 64.0865 29.5113 66.1257 29.9276C66.9407 30.1247 67.721 30.4439 68.4403 30.8745C69.776 31.6103 71.0444 32.4619 72.2309 33.4196C72.7439 33.7987 73.192 34.2585 73.5576 34.781C73.8301 35.2285 74.0262 35.7182 74.1378 36.23C74.4102 37.3465 74.4476 38.5073 74.2478 39.639C73.9513 40.7259 73.7385 41.8339 73.6113 42.9532C73.6566 43.3323 73.5998 43.7166 73.4468 44.0663C73.2582 44.3033 72.9892 44.4628 72.6907 44.5145C72.3922 44.5662 72.0851 44.5066 71.8277 44.3468C71.322 44.0073 70.9039 43.553 70.6074 43.0211C70.3079 42.4913 69.8537 42.0653 69.3057 41.7999C68.9377 41.6952 68.5498 41.6812 68.1752 41.759C67.8006 41.8368 67.4505 42.0041 67.1547 42.2466C66.5289 42.6933 66.0381 43.2847 65.4489 43.7653C65.1716 44.0265 64.8433 44.2275 64.4845 44.3559C64.1257 44.4843 63.7443 44.5371 63.3641 44.5112C62.8847 44.4017 62.433 44.1946 62.0374 43.9028C61.4738 43.4637 60.8711 43.077 60.2368 42.7478C59.6164 42.5003 59.0836 42.9354 58.4926 42.9354Z" fill="#794F6A"/>
    <path d="M78.7187 56.632C78.7187 56.632 68.9141 65.6957 70.914 70.2285C72.9139 74.7613 81.7173 66.7624 81.7173 66.7624L84.8561 59.5049L78.7187 56.632Z" fill="#F8BDC5"/>
    <g opacity="0.1">
      <path d="M56.8923 46.816C56.7311 46.9001 56.5468 46.9293 56.3675 46.8991C56.2242 46.8554 56.0939 46.7768 55.9884 46.6704C55.433 46.1747 55.0495 45.5156 54.8933 44.7881C54.8063 44.0108 54.7582 43.2297 54.7494 42.4476C54.6662 41.6695 54.3971 40.9039 54.3024 40.1178C54.3037 40.0785 54.3004 40.0392 54.2925 40.0007C54.2721 40.2175 54.2754 40.4359 54.3024 40.652C54.3918 41.4363 54.66 42.1939 54.7494 42.9818C54.7579 43.7633 54.8059 44.5439 54.8933 45.3205C55.049 46.0488 55.4326 46.7086 55.9884 47.2046C56.0945 47.3098 56.2246 47.3877 56.3675 47.4315C56.5468 47.4617 56.7311 47.4325 56.8923 47.3484C57.2894 47.1496 57.615 46.8326 57.8241 46.441C58.0332 46.0495 58.1156 45.6027 58.0599 45.1624C58.0203 45.514 57.8926 45.8498 57.6885 46.1389C57.4843 46.428 57.2105 46.6609 56.8923 46.816Z" fill="black"/>
      <path d="M74.2335 39.0985C73.9364 40.1852 73.7242 41.2933 73.5987 42.4128C73.6444 42.7924 73.5866 43.1772 73.4315 43.5268C73.2435 43.7635 72.9749 43.9229 72.6768 43.9747C72.3788 44.0264 72.0721 43.9668 71.8152 43.8073C71.3089 43.4678 70.8901 43.0135 70.5931 42.4815C70.294 41.9508 69.8394 41.5244 69.2905 41.2595C68.9233 41.1555 68.5364 41.1417 68.1628 41.2195C67.7892 41.2973 67.4399 41.4643 67.1448 41.7062C66.519 42.1528 66.0264 42.7424 65.4391 43.2248C65.1615 43.4858 64.8332 43.6868 64.4745 43.8155C64.1159 43.9441 63.7345 43.9976 63.3542 43.9725C62.875 43.8616 62.4235 43.6539 62.0275 43.3624C61.4635 42.9238 60.8608 42.5372 60.227 42.2073C59.6012 41.967 59.0898 42.3967 58.4962 42.3967C58.0241 42.5691 57.5127 42.955 57.6021 43.4499C57.6138 43.5033 57.6309 43.5554 57.6531 43.6054C57.8388 43.2819 58.1405 43.0409 58.4971 42.9309C59.088 42.9309 59.6119 42.5066 60.2279 42.7415C60.8629 43.0693 61.4657 43.4561 62.0284 43.8966C62.4233 44.1895 62.8753 44.3964 63.3551 44.5041C63.7355 44.5319 64.1175 44.4799 64.4765 44.3515C64.8356 44.223 65.1638 44.0209 65.44 43.7581C66.0238 43.2748 66.5253 42.679 67.1457 42.2395C67.4418 41.9995 67.7911 41.8338 68.1644 41.7561C68.5376 41.6784 68.924 41.691 69.2914 41.7928C69.8393 42.0587 70.2935 42.4845 70.594 43.014C70.8957 43.5426 71.3135 43.9959 71.816 44.3397C72.0722 44.502 72.3796 44.5632 72.6785 44.5113C72.9773 44.4595 73.2461 44.2983 73.4325 44.0592C73.5813 43.7079 73.6388 43.3247 73.5996 42.9452C73.7225 41.8253 73.9347 40.717 74.2344 39.6309C74.3344 39.0611 74.3751 38.4824 74.3559 37.9041C74.3437 38.3047 74.3028 38.7038 74.2335 39.0985Z" fill="black"/>
    </g>
    <path opacity="0.1" d="M66.9794 10.5056C66.9794 10.5056 63.3783 17.0376 68.3061 20.3707C73.2339 23.7037 73.7096 23.3705 73.7096 23.3705C73.6747 23.7028 73.6747 24.0378 73.7096 24.3701C73.7775 24.5711 75.0363 25.0348 75.0363 25.0348C75.9777 26.4964 77.2588 27.7089 78.7706 28.5688C79.4426 28.9404 80.0242 29.4555 80.4741 30.0775C80.9239 30.6995 81.2309 31.413 81.3731 32.1671C81.4213 32.5138 81.549 32.8445 81.7463 33.1337C81.9435 33.4228 82.205 33.6625 82.5102 33.8341C83.6474 34.6336 84.5235 36.967 84.5235 36.967V39.1012C84.5235 39.4344 84.9232 40.4269 84.0578 40.5305C83.1924 40.6342 83.9236 42.6308 83.9236 42.6308C83.9236 42.6308 82.9912 43.7671 83.1897 44.2977C83.3881 44.8284 82.79 45.8959 82.79 45.8959C82.79 45.8959 82.057 46.9625 82.1231 47.1626C82.1893 47.3627 81.323 48.0962 81.5223 48.5625C81.7217 49.0288 80.5237 49.6291 80.7222 50.1625C80.9207 50.6958 79.8693 50.962 79.8693 50.962L76.9861 57.6289C76.9861 57.6289 83.0511 58.9546 84.6165 62.2939L92.2621 48.2963C92.2621 48.2963 96.5301 37.8327 96.6651 37.1653C96.8001 36.498 95.7291 34.1021 95.7291 34.1021L90.5269 24.6328L82.7221 13.6349C82.7221 13.6349 76.5185 0.441303 66.9794 10.5056Z" fill="black"/>
    <path opacity="0.1" d="M74.6805 13.2615C74.6805 13.2615 65.3094 16.5472 70.2453 19.8811C75.1811 23.2151 75.6487 22.8791 75.6487 22.8791C75.6149 23.2115 75.6149 23.5464 75.6487 23.8788C75.7148 24.078 76.9754 24.5452 76.9754 24.5452C77.9178 26.0067 79.1994 27.2191 80.7115 28.0792C81.3839 28.4507 81.966 28.9659 82.4162 29.5881C82.8663 30.2102 83.1735 30.924 83.3157 31.6785C83.364 32.0251 83.4917 32.3559 83.689 32.645C83.8862 32.9342 84.1477 33.1739 84.4529 33.3454C85.5901 34.145 86.4546 36.4784 86.4546 36.4784V38.6107C86.4546 38.944 86.8542 39.9365 85.9862 40.0401C85.1181 40.1437 85.8538 42.1403 85.8538 42.1403C85.8538 42.1403 84.9196 43.2766 85.1207 43.8055C85.3219 44.3343 84.7211 45.4054 84.7211 45.4054C84.7211 45.4054 83.9871 46.4721 84.0542 46.6722C84.1212 46.8723 83.2496 47.6057 83.4534 48.072C83.6572 48.5384 82.4521 49.1387 82.6532 49.672C82.8544 50.2053 81.7986 50.4715 81.7986 50.4715L78.9181 57.1358C78.9181 57.1358 83.9147 57.3931 85.4909 60.7341L94.1923 47.8121C94.1923 47.8121 98.4621 37.3485 98.5953 36.6812C98.7285 36.0138 97.6646 33.6072 97.6646 33.6072L92.4615 24.1379L80.5926 17.2967C80.5926 17.2967 84.2196 3.19545 74.6805 13.2615Z" fill="black"/>
    <path d="M67.5141 10.5056C67.5141 10.5056 63.913 17.0377 68.8408 20.3707C73.7686 23.7037 74.2442 23.3705 74.2442 23.3705C74.2103 23.7028 74.2103 24.0378 74.2442 24.3701C74.3104 24.5711 75.5709 25.0348 75.5709 25.0348C76.5133 26.4963 77.795 27.7087 79.307 28.5688C79.979 28.9404 80.5606 29.4555 81.0105 30.0775C81.4603 30.6995 81.7673 31.413 81.9094 32.1671C81.9577 32.5138 82.0855 32.8445 82.2827 33.1337C82.48 33.4228 82.7414 33.6625 83.0467 33.8341C84.1838 34.6336 85.0573 36.967 85.0573 36.967V39.1012C85.0573 39.4344 85.4578 40.4269 84.5888 40.5305C83.7198 40.6342 84.4565 42.6308 84.4565 42.6308C84.4565 42.6308 83.5223 43.7671 83.7225 44.2977C83.9228 44.8284 83.3229 45.8959 83.3229 45.8959C83.3229 45.8959 82.5898 46.9625 82.656 47.1627C82.7221 47.3628 81.8514 48.0962 82.0552 48.5625C82.259 49.0288 81.0539 49.6291 81.255 50.1625C81.4562 50.6958 80.4004 50.962 80.4004 50.962L77.519 57.6289C77.519 57.6289 83.5732 58.9546 85.1476 62.2939L92.7932 48.2963C92.7932 48.2963 97.063 37.8327 97.1962 37.1653C97.3294 36.498 96.2619 34.0994 96.2619 34.0994L91.0606 24.6328L83.2576 13.6385C83.2576 13.6385 77.0514 0.441305 67.5141 10.5056Z" fill="#E53935"/>
    <g opacity="0.1">
      <path d="M28.1149 13.7868C28.0447 12.9589 27.8662 12.1438 27.5839 11.3623C27.2472 10.6247 26.999 9.84983 26.8445 9.05394V8.98157C26.8247 9.18298 26.8247 9.38585 26.8445 9.58726C26.9999 10.3829 27.248 11.1577 27.5839 11.8956C27.8662 12.6765 28.0448 13.491 28.1149 14.3183C28.1417 14.6292 28.1525 14.9437 28.1569 15.2653C28.1623 14.7614 28.1569 14.2728 28.1149 13.7868Z" fill="black"/>
      <path d="M34.6394 22.0823C34.2318 22.9756 32.9944 23.1185 32.0468 22.855C31.2375 22.6231 30.495 22.2025 29.8801 21.6279C29.2653 21.0533 28.7957 20.341 28.5101 19.5497C28.2466 18.7357 28.1185 17.8841 28.131 17.0287C28.0741 18.0609 28.2025 19.095 28.5101 20.0821C28.7958 20.8734 29.2655 21.5856 29.8803 22.1602C30.4951 22.7348 31.2376 23.1554 32.0468 23.3874C32.9944 23.6492 34.2318 23.5089 34.6394 22.6129C34.78 22.2119 34.8303 21.7849 34.7869 21.3622C34.7838 21.6094 34.7337 21.8537 34.6394 22.0823Z" fill="black"/>
      <path d="M53.0525 9.63459C53.0496 9.94072 52.9644 10.2404 52.8061 10.5025C52.6478 10.7646 52.422 10.9794 52.1523 11.1247C51.8154 11.2187 51.4555 11.185 51.142 11.03C50.1944 10.6173 49.354 9.62119 48.3393 9.8615C47.5132 10.0509 47.1172 10.9844 46.899 11.8063C46.7405 12.3269 46.6719 12.8707 46.6961 13.4143C46.7323 13.0517 46.8002 12.693 46.899 12.3423C47.1172 11.5222 47.5132 10.594 48.3393 10.3975C49.3513 10.159 50.1872 11.155 51.142 11.566C51.4551 11.7223 51.8152 11.7567 52.1523 11.6625C52.4223 11.5169 52.6483 11.3017 52.8067 11.0391C52.965 10.7765 53.0499 10.4763 53.0525 10.1697C53.1048 9.78254 53.124 9.39163 53.1098 9.00122C53.1008 9.21026 53.082 9.42734 53.0525 9.63459Z" fill="black"/>
      <path d="M47.8324 17.3512C47.2638 17.7621 46.4914 17.3244 45.8655 16.9938C45.551 16.785 45.1881 16.6602 44.8115 16.6315C44.4349 16.6027 44.0572 16.6709 43.7145 16.8295C43.4964 16.9662 43.3203 17.1627 43.1084 17.3083C42.6714 17.5782 42.1532 17.6855 41.6449 17.6111C40.4371 17.4879 39.9865 16.7249 39.0675 16.1336C38.3925 15.6994 36.9826 15.5145 36.5812 16.4016C36.4848 16.6636 36.458 16.9462 36.5034 17.2216C36.516 17.1232 36.5422 17.027 36.5812 16.9358C36.9853 16.0424 38.3934 16.2292 39.0675 16.6678C39.9865 17.2583 40.438 18.0221 41.6449 18.1453C42.1534 18.2182 42.6713 18.1104 43.1084 17.8407C43.3203 17.6969 43.4973 17.4995 43.7145 17.3637C44.0573 17.2054 44.435 17.1374 44.8115 17.1662C45.188 17.195 45.5508 17.3195 45.8655 17.5281C46.4914 17.8541 47.2566 18.2856 47.8324 17.88C47.9866 17.751 48.1004 17.5805 48.1605 17.3887C48.2206 17.197 48.2243 16.992 48.1712 16.7982C48.1333 17.0191 48.0121 17.217 47.8324 17.3512Z" fill="black"/>
      <path d="M36.4561 18.2704C36.1968 18.8654 35.3984 19.028 35.031 19.564C34.8057 19.9909 34.7209 20.4779 34.7887 20.9558C34.7851 20.6526 34.8693 20.3548 35.031 20.0982C35.3984 19.5622 36.1932 19.3978 36.4561 18.8028C36.5466 18.545 36.5715 18.2687 36.5285 17.9988C36.5164 18.0921 36.492 18.1835 36.4561 18.2704Z" fill="black"/>
    </g>
  </g>
  <defs>
    <clipPath id="clip0_1_1276">
      <rect width="134" height="134" fill="white"/>
    </clipPath>
  </defs>
</svg>