<svg xmlns="http://www.w3.org/2000/svg" width="137" height="126" viewBox="0 0 137 126" fill="none">
  <g clip-path="url(#clip0_1_1559)">
    <path d="M62.8542 109.284C88.7834 109.284 109.803 88.3149 109.803 62.4481C109.803 36.5814 88.7834 15.6122 62.8542 15.6122C36.9249 15.6122 15.9051 36.5814 15.9051 62.4481C15.9051 88.3149 36.9249 109.284 62.8542 109.284Z" fill="#134F19" fill-opacity="0.05"/>
    <path d="M62.5991 124.896C97.1716 124.896 125.198 96.9373 125.198 62.4481C125.198 27.959 97.1716 0 62.5991 0C28.0266 0 0 27.959 0 62.4481C0 96.9373 28.0266 124.896 62.5991 124.896Z" fill="#134F19" fill-opacity="0.05"/>
    <path d="M101.634 118.748C101.796 118.086 102.118 117.474 102.572 116.965C103.026 116.455 103.598 116.064 104.238 115.825C104.877 115.586 105.566 115.507 106.244 115.595C106.921 115.682 107.567 115.933 108.125 116.327L108.293 116.453C111.985 119.213 109.794 124.275 108.293 124.386C106.793 124.498 103.908 124.624 103.908 124.624C103.908 124.624 100.511 123.231 101.634 118.748Z" fill="#192534"/>
    <path d="M134.934 115.308V116.233C134.934 116.233 119.931 117.267 118.331 117.267H115.332C115.332 117.267 115.287 117.313 115.215 117.396C115.092 117.535 114.878 117.777 114.65 118.083C114.113 118.718 113.716 119.459 113.485 120.257C113.444 120.601 113.33 120.933 113.151 121.23C112.973 121.527 112.733 121.784 112.448 121.982L109.45 121.179L106.557 117.728L106.136 117.323L104.936 116.179L103.911 115.198L103.962 114.648V114.564C104.207 113.382 104.521 112.216 104.902 111.07C104.907 111.037 104.918 111.005 104.933 110.975C105.765 108.483 107.151 105.458 109.152 104.557C109.305 104.489 109.463 104.423 109.632 104.363L109.835 104.293C113.67 103.012 120.915 103.52 120.915 103.52C120.915 103.52 126.449 105.131 126.912 105.822C127.375 106.514 132.618 112.206 132.618 112.206C133.077 112.553 133.5 112.944 133.881 113.375C134.41 113.906 134.775 114.577 134.934 115.308Z" fill="#E53935"/>
    <path opacity="0.1" d="M103.454 122.901C104.346 122.901 105.069 121.768 105.069 120.37C105.069 118.973 104.346 117.839 103.454 117.839C102.562 117.839 101.839 118.973 101.839 120.37C101.839 121.768 102.562 122.901 103.454 122.901Z" fill="white"/>
    <path opacity="0.1" d="M110.143 105.416C110.143 105.416 108.82 107.44 107.421 110.036C107.421 110.043 107.421 110.049 107.421 110.056C107.049 110.747 106.668 111.476 106.307 112.222L106.292 112.257C106.292 112.257 105.527 111.652 104.924 111.062C104.929 111.028 104.939 110.996 104.954 110.967C105.786 108.475 107.172 105.449 109.172 104.548C109.325 104.48 109.482 104.414 109.653 104.354L110.143 105.416Z" fill="black"/>
    <path opacity="0.1" d="M106.223 112.203C106.223 112.203 114.41 114.624 116.023 113.583C116.023 113.583 116.601 106.221 112.795 105.761C112.795 105.761 110.606 105.184 110.148 105.541C109.69 105.898 106.223 112.203 106.223 112.203Z" fill="white"/>
    <path opacity="0.1" d="M116.83 106.795C116.83 106.795 118.445 112.891 119.599 113.011C120.754 113.131 132.398 112.894 131.937 112.087C131.475 111.28 126.402 106.108 126.402 106.108L116.83 106.795Z" fill="white"/>
    <path d="M114.85 117.824C114.85 117.824 116.945 115.078 120.636 117.838C124.327 120.597 122.134 125.66 120.636 125.772C119.138 125.883 116.266 126 116.266 126C116.266 126 111.714 124.14 114.85 117.824Z" fill="#192534"/>
    <path d="M136.618 118.527C136.464 118.092 136.222 117.694 135.906 117.358C135.591 117.022 135.209 116.754 134.785 116.573C134.36 116.391 133.903 116.299 133.441 116.303C132.979 116.307 132.523 116.406 132.102 116.595C131.69 116.788 131.3 117.025 130.937 117.301C127.649 119.757 129.614 124.262 130.937 124.366C131.416 124.402 132.054 124.443 132.675 124.472C133.309 124.506 133.943 124.392 134.526 124.14C135.109 123.887 135.626 123.504 136.035 123.019C136.444 122.534 136.735 121.96 136.885 121.344C137.034 120.728 137.039 120.086 136.897 119.467C136.822 119.149 136.729 118.834 136.618 118.527Z" fill="#192534"/>
    <path opacity="0.1" d="M115.794 124.281C116.685 124.281 117.409 123.148 117.409 121.75C117.409 120.353 116.685 119.22 115.794 119.22C114.902 119.22 114.178 120.353 114.178 121.75C114.178 123.148 114.902 124.281 115.794 124.281Z" fill="white"/>
    <path opacity="0.1" d="M120.289 116.92C120.289 116.92 120.068 113.583 123.634 114.963C127.199 116.343 124.903 117.84 124.903 117.84L120.289 116.92Z" fill="white"/>
    <path opacity="0.1" d="M134.934 115.309V115.767L134.358 115.987L133.179 115.767C133.179 115.767 132.926 113.884 133.891 113.346C134.408 113.896 134.767 114.574 134.93 115.309H134.934Z" fill="white"/>
    <path opacity="0.1" d="M134.934 115.33V116.228C134.934 116.228 119.931 117.263 118.331 117.263H118.317C117.974 117.036 117.585 116.887 117.177 116.828C116.769 116.768 116.353 116.8 115.959 116.92C115.749 117.008 115.55 117.123 115.37 117.263C115.317 117.305 115.266 117.347 115.217 117.393C114.997 117.593 114.807 117.825 114.652 118.079C114.004 119.396 113.724 120.862 113.84 122.324C110.842 123.248 107.729 120.83 107.729 120.83C107.356 119.594 106.827 118.411 106.154 117.309C105.872 116.821 105.455 116.424 104.954 116.164L103.911 115.198L103.962 114.648L112.331 120.718C112.331 120.718 113.139 115.541 114.978 115.887C116.814 116.125 118.663 116.24 120.513 116.232L134.934 115.33Z" fill="black"/>
    <path d="M103.454 114.618C103.454 114.618 102.761 116.343 103.454 116.46C104.147 116.577 105.702 115.14 107.721 121.177C107.721 121.177 110.836 123.599 113.832 122.671C113.832 122.671 113.475 118.303 115.961 117.264C118.448 116.225 122.595 121.406 122.595 121.406V122.557L132.397 121.52C132.397 121.52 135.395 119.22 135.281 115.655L120.521 116.579C118.671 116.587 116.822 116.471 114.987 116.233C113.143 115.888 112.339 121.075 112.339 121.075L103.454 114.618Z" fill="#E53935"/>
    <path d="M68.1127 89.3114C68.1127 85.9122 65.3505 83.1567 61.9431 83.1567C58.5358 83.1567 55.7736 85.9122 55.7736 89.3114C55.7736 92.7105 58.5358 95.466 61.9431 95.466C65.3505 95.466 68.1127 92.7105 68.1127 89.3114Z" fill="#192534"/>
    <path d="M58.7123 105.15C59.5737 104.463 60.3354 103.661 60.9756 102.766C61.4888 101.898 61.8828 100.966 62.1469 99.9936C63.0097 97.2496 63.7532 94.4729 64.3774 91.6633C60.9823 91.1459 58.447 88.1538 55.1243 87.2769C55.0477 87.255 52.5056 102.477 52.3204 103.867C52.1672 105.016 50.8528 110.503 52.3507 110.534C53.1515 110.552 54.8237 108.551 55.4149 108.027L58.7123 105.15Z" fill="#3F3D56"/>
    <path opacity="0.1" d="M58.7123 105.15C59.5737 104.463 60.3354 103.661 60.9756 102.766C61.4888 101.898 61.8828 100.966 62.1469 99.9936C63.0097 97.2496 63.7532 94.4729 64.3774 91.6633C60.9823 91.1459 58.447 88.1538 55.1243 87.2769C55.0477 87.255 52.5056 102.477 52.3204 103.867C52.1672 105.016 50.8528 110.503 52.3507 110.534C53.1515 110.552 54.8237 108.551 55.4149 108.027L58.7123 105.15Z" fill="black"/>
    <path d="M16.7531 66.7439C16.3739 66.761 16.0039 66.8654 15.6719 67.0488C15.2307 67.3538 15.1178 67.9291 14.9073 68.4264C14.6322 69.0648 14.1661 69.6029 13.5727 69.967C13.0675 70.2719 12.452 70.4819 12.1497 70.9884C11.9786 71.3296 11.8972 71.7085 11.9131 72.0897C11.8736 73.2173 11.9249 74.3462 12.0663 75.4656C12.1752 76.0211 12.1908 76.5909 12.1126 77.1515C11.928 77.7856 11.6125 78.3742 11.1864 78.8794C10.1524 80.0864 9.48851 81.5649 9.27414 83.1382C9.33536 83.9289 9.3145 84.7239 9.21185 85.5103C8.85651 86.8728 7.40905 87.7615 7.12697 89.1391C7.09233 89.552 7.01847 89.9607 6.90636 90.3597C6.62849 91.0199 5.86223 91.3811 5.66688 92.0607C5.61397 92.5886 5.64237 93.1214 5.75109 93.6407C5.69752 94.4201 5.42787 95.1692 4.97222 95.8045L2.67769 99.6996C1.8386 100.91 1.28 102.291 1.04245 103.743C1.00991 105.048 1.26068 106.345 1.77755 107.545C2.76441 110.263 4.2287 113.141 6.93078 114.187C8.57097 114.681 10.3018 114.798 11.9939 114.531C14.3294 114.414 16.648 114.071 18.9171 113.508C20.0311 113.193 21.1232 112.772 22.2482 112.548C23.0051 112.443 23.7545 112.29 24.4921 112.09C25.2742 111.81 25.9663 111.325 26.4958 110.686C27.0253 110.047 27.3727 109.278 27.5016 108.459C28.464 108.84 29.354 107.579 29.2185 106.557C29.0829 105.536 28.3933 104.672 28.1154 103.68C27.8033 102.277 28.04 100.807 28.7773 99.5711C29.4391 98.3111 30.3527 97.1989 31.0718 95.9725C31.8755 94.6002 32.434 93.0989 32.7222 91.5357C33.0259 89.4091 33.0774 87.2542 32.8754 85.1156L32.4216 76.9306C32.4357 75.4222 32.1495 73.9261 31.5795 72.529C30.7526 71.0993 29.5985 69.885 28.2114 68.985C26.2611 67.5055 24.2159 66.1547 22.089 64.9413C20.7173 64.1785 20.8142 64.4725 19.7187 65.3814C18.8731 66.0967 17.8476 66.5678 16.7531 66.7439Z" fill="#3F3D56"/>
    <path d="M35.3013 89.5188C33.6884 90.6813 32.2302 92.0435 30.9615 93.5726C29.5113 95.4939 28.6882 97.8135 28.6038 100.217C28.5901 101.342 28.6692 102.465 28.8404 103.577C29.077 105.392 29.5022 107.415 31.0356 108.419C32.0022 109.05 33.3293 109.209 33.9894 110.155C34.1589 110.475 34.3496 110.784 34.5603 111.079C35.0489 111.502 35.6823 111.721 36.3286 111.69C37.2779 111.744 38.2302 111.716 39.1746 111.606C40.2411 111.386 41.335 111.331 42.4181 111.443C44.4963 111.833 46.0473 113.789 48.1532 114.051C49.903 114.271 51.5415 113.257 53.0067 112.287C54.5173 111.29 56.0952 110.222 56.9137 108.609C57.7094 107.043 57.6665 105.198 57.6016 103.439C57.61 101.483 57.3878 99.5321 56.9398 97.6273C56.777 97.1335 56.6523 96.6281 56.5668 96.1153C56.4135 94.7949 57.008 93.4962 57.4492 92.2329C58.1372 90.3118 58.4361 87.943 57.072 86.4251C56.4657 85.8076 55.7125 85.3533 54.8827 85.1046C51.2974 83.8194 47.3398 84.3083 43.6618 84.8845C40.1522 85.4171 38.0505 87.3541 35.3013 89.5188Z" fill="#3F3D56"/>
    <path d="M65.6994 81.9093C64.2193 83.9941 62.9233 86.2032 61.8261 88.5117C61.1252 90.2031 60.5345 91.9379 60.0578 93.7054C58.6415 98.5874 57.2362 103.579 54.4078 107.806C53.9401 108.372 53.6305 109.051 53.5102 109.774C53.535 110.459 53.7432 111.124 54.1131 111.702C54.7344 113.015 55.5058 114.253 56.4118 115.39C57.3747 116.438 58.4519 117.376 59.6234 118.185C61.9861 119.949 64.6115 121.813 67.5653 121.68C68.1837 121.7 68.7849 121.476 69.2376 121.055C69.4192 120.821 69.5483 120.55 69.6161 120.262C69.6839 119.974 69.6889 119.675 69.6308 119.384C69.4094 117.573 68.0428 116.149 66.8016 114.807C65.5605 113.466 64.3152 111.896 64.4145 110.064C64.4911 108.552 65.4847 107.263 66.4354 106.083C67.5224 104.731 68.6137 103.382 69.6351 101.984C73.9704 95.852 77.4004 89.1303 79.8203 82.0252C80.8913 79.0499 81.8639 75.9217 81.5304 72.7852C79.1029 72.1913 74.2502 70.2056 72.2007 72.251C70.9587 73.4925 70.0805 75.3321 69.1122 76.7953L65.6994 81.9093Z" fill="#FBBEBE"/>
    <path d="M86.1902 61.247C84.6527 63.9221 83.4495 66.775 82.6074 69.7419C82.3529 70.446 82.2743 71.2014 82.3784 71.9427C82.6338 72.698 83.006 73.4088 83.4814 74.0494C83.7171 74.3723 83.8695 74.7481 83.9253 75.1436C83.9811 75.5391 83.9385 75.9422 83.8014 76.3174C82.0712 76.3497 80.3488 76.0793 78.7122 75.5186L73.4966 74.0688C73.065 73.9857 72.6602 73.7985 72.3178 73.5236C72.0659 73.1939 71.8949 72.8101 71.8183 72.4027C71.7417 71.9954 71.7616 71.5758 71.8765 71.1775C72.8979 64.4734 76.1785 58.2936 77.4079 51.6273C77.4622 50.6412 77.8639 49.7058 78.5421 48.9863C80.7482 47.2475 85.7431 48.7201 86.8857 51.2376C88.1581 54.0255 87.6352 58.7362 86.1902 61.247Z" fill="#E53935"/>
    <path d="M58.271 38.3343C58.0748 38.4359 57.8542 38.5543 57.7945 38.7618C57.7813 38.8744 57.793 38.9884 57.8288 39.0959C57.8646 39.2035 57.9235 39.3019 58.0016 39.3843L60.2279 42.5124C62.3636 45.6409 64.6788 48.6436 67.162 51.5055C69.0777 53.6257 71.1758 55.5744 73.4326 57.3292C74.1144 57.7641 74.6733 58.3659 75.0561 59.0772C73.6686 54.9789 73.9149 50.5051 75.744 46.583C76.4715 45.0416 77.4339 43.6136 78.1909 42.0823C78.2625 41.9982 78.311 41.897 78.3318 41.7887C78.3526 41.6803 78.345 41.5684 78.3096 41.4638C78.2743 41.3593 78.2124 41.2656 78.1301 41.1919C78.0478 41.1182 77.9478 41.067 77.8398 41.0432C75.9116 40.0512 73.7981 39.454 71.8833 38.4493C70.403 37.6175 68.9918 36.6689 67.663 35.6126C66.4564 34.708 64.8506 33.1103 63.3611 32.7298C61.7553 32.3165 61.8168 33.7798 61.2965 34.9978C60.7009 36.4229 59.6329 37.6007 58.271 38.3343Z" fill="#FBBEBE"/>
    <path opacity="0.1" d="M58.271 38.3343C58.0748 38.4359 57.8542 38.5543 57.7945 38.7618C57.7813 38.8744 57.793 38.9884 57.8288 39.0959C57.8646 39.2035 57.9235 39.3019 58.0016 39.3843L60.2279 42.5124C62.3636 45.6409 64.6788 48.6436 67.162 51.5055C69.0777 53.6257 71.1758 55.5744 73.4326 57.3292C74.1144 57.7641 74.6733 58.3659 75.0561 59.0772C73.6686 54.9789 73.9149 50.5051 75.744 46.583C76.4715 45.0416 77.4339 43.6136 78.1909 42.0823C78.2625 41.9982 78.311 41.897 78.3318 41.7887C78.3526 41.6803 78.345 41.5684 78.3096 41.4638C78.2743 41.3593 78.2124 41.2656 78.1301 41.1919C78.0478 41.1182 77.9478 41.067 77.8398 41.0432C75.9116 40.0512 73.7981 39.454 71.8833 38.4493C70.403 37.6175 68.9918 36.6689 67.663 35.6126C66.4564 34.708 64.8506 33.1103 63.3611 32.7298C61.7553 32.3165 61.8168 33.7798 61.2965 34.9978C60.7009 36.4229 59.6329 37.6007 58.271 38.3343Z" fill="black"/>
    <path d="M71.9212 50.7898C70.8192 49.7445 69.627 48.7981 68.3586 47.9615C66.693 46.5397 65.2193 44.9086 63.9741 43.1088C61.5693 39.8891 59.1451 35.9445 60.3424 32.1048C59.0693 31.9822 57.9721 33.0289 57.3709 34.1494C56.8968 35.3311 56.3432 36.4795 55.7138 37.5867C54.5771 39.1558 52.6446 39.8866 50.8452 40.604C46.8881 42.1838 43.0649 44.0791 39.4129 46.2715C37.908 47.0911 36.5418 48.1419 35.3645 49.3853C34.1637 50.7587 33.4126 52.4664 32.3929 53.9742C30.3451 56.9344 27.4269 59.1876 24.0408 60.4229C22.8996 60.7655 21.8017 61.2379 20.7687 61.8308C19.7476 62.6007 18.9698 63.6472 18.5278 64.8455C18.0857 66.0439 17.9982 67.3437 18.2754 68.5902C18.891 71.0862 20.4058 73.269 22.5311 74.7223C24.615 76.1265 26.887 77.2308 29.2799 78.0025C31.2626 78.7305 33.2577 79.4229 35.2651 80.0798C36.7422 80.5886 38.2524 80.9963 39.7851 81.3003C42.6068 81.8177 45.5109 81.6892 48.3603 82.0042C50.9706 82.2907 53.5287 82.9484 56.1483 83.1306C58.7678 83.3129 61.5373 82.9626 63.6735 81.4448C65.2973 80.1262 66.6183 78.4751 67.5469 76.603C70.2546 71.9393 72.6729 67.1142 74.7883 62.155C75.4122 60.6875 81.2054 52.3715 79.7639 51.298C72.4988 45.8909 74.9104 54.4824 74.2174 53.8222C73.2903 52.9402 72.759 51.734 71.9212 50.7898Z" fill="#E53935"/>
    <path d="M62.9224 45.817C61.4457 42.6475 60.2213 39.367 59.2604 36.0058C58.8757 35.1107 58.7815 34.1179 58.991 33.1666C59.3657 32.0654 60.5664 31.1262 60.2145 30.0233C57.408 30.9036 54.1518 32.2838 53.5961 35.1692C53.5543 35.8073 53.4219 36.4363 53.2029 37.0373C52.632 38.1512 51.1753 38.3881 49.9375 38.5779C46.3369 39.1525 42.7583 40.6006 40.292 43.2819C39.905 43.7581 39.4604 44.1847 38.9683 44.552C38.5933 44.7724 38.1945 44.9496 37.7794 45.0803C35.3661 45.9455 32.8855 47.0233 31.3303 49.0594C30.5295 50.1069 30.0176 51.3644 29.1242 52.3396C27.915 53.6601 26.135 54.3228 24.8298 55.5509C23.9823 56.4037 23.2755 57.3849 22.7357 58.4582C20.4942 62.5011 18.8506 67.237 20.0412 71.7033C20.6618 74.0385 22.0292 76.1183 22.7609 78.4166C23.7714 81.5523 23.6737 85.1298 25.5733 87.8246C26.8655 89.4641 28.5742 90.7284 30.5219 91.4861C34.7441 93.3601 39.3826 94.1049 43.9809 93.6474C45.6858 93.4498 47.3794 93.165 49.055 92.794C53.0547 91.9708 57.0964 91.0754 60.7298 89.2131C66.9238 86.0371 71.3865 80.3637 75.6421 74.8592C76.4897 73.8373 77.229 72.7307 77.8482 71.5571C78.3715 70.3946 78.803 69.1931 79.1391 67.9636C80.4299 63.8678 82.2453 59.7896 82.0752 55.5022C82.082 54.9887 81.9805 54.4796 81.7772 54.0078C81.6088 53.655 81.3359 53.3476 81.1877 52.9931C81.0345 52.324 80.9221 51.6463 80.8509 50.9637C80.323 49.1157 77.8878 48.7629 75.957 48.7797L75.339 59.6274C75.2447 61.2562 75.0696 63.0605 73.8545 64.1542C73.3344 64.6005 72.6853 64.8698 72.0014 64.9231C71.3175 64.9764 70.6343 64.811 70.051 64.4507C68.7509 63.6107 68.5708 62.1483 68.58 60.7472C68.6383 59.0329 68.4039 57.3212 67.887 55.6853C66.7166 52.1792 64.5593 49.1073 62.9224 45.817Z" fill="#192534"/>
    <path d="M63.6895 76.7298C71.3722 80.614 79.0987 84.5276 85.9722 89.6986C87.5602 90.8914 89.107 92.1548 90.7835 93.2199C95.5949 96.2716 101.566 97.7559 105.278 102.069C105.994 103.025 106.777 103.928 107.622 104.773C108.403 105.414 109.276 105.933 110.212 106.315C113.195 107.628 116.425 108.29 119.685 108.254C120.541 108.288 121.393 108.138 122.185 107.814C124.25 106.814 124.722 104.138 124.932 101.856C125.002 101.083 125.016 100.176 124.409 99.6921C124.058 99.4654 123.654 99.3319 123.236 99.304C116.528 98.2473 110.336 95.025 104.73 91.198C99.1238 87.371 93.9858 82.9022 88.457 78.9651C86.5127 77.5808 84.523 76.262 82.5333 74.944L76.0935 70.6785C72.6875 68.4231 69.1004 66.1013 65.0317 65.6738C64.8003 65.6334 64.5626 65.6493 64.3387 65.72C64.0011 65.9053 63.7419 66.206 63.6087 66.5667C62.3753 68.8403 61.0024 71.0357 59.4979 73.1405C58.7148 74.2896 58.6264 74.5904 59.977 75.2002C61.1904 75.7588 62.4778 76.1175 63.6895 76.7298Z" fill="#FBBEBE"/>
    <path d="M81.1978 53.1913C92.8522 53.1913 102.3 43.7664 102.3 32.1401C102.3 20.5138 92.8522 11.0889 81.1978 11.0889C69.5435 11.0889 60.0957 20.5138 60.0957 32.1401C60.0957 43.7664 69.5435 53.1913 81.1978 53.1913Z" fill="#FBBEBE"/>
    <path d="M64.6115 40.3494C64.9862 38.4594 67.162 37.5035 69.0877 37.3742C71.0366 37.2697 72.9787 37.6793 74.7184 38.5617C76.4581 39.4441 77.9341 40.7683 78.9976 42.4007C79.4439 41.2209 79.7447 39.9914 79.8935 38.7392L83.4233 39.0004C83.8173 39.0613 84.2203 39.0252 84.5971 38.8954C85.0327 38.6445 85.3738 38.2579 85.568 37.795C87.1131 34.918 88.1446 31.3866 91.0412 29.8721V33.8336C91.8348 33.6795 92.5823 33.3455 93.226 32.8574C93.8697 32.3694 94.3924 31.7403 94.7537 31.0187C94.9529 32.1154 95.2696 33.1875 95.6984 34.2166C95.7692 34.3846 95.8669 34.5778 96.0471 34.6215C96.1343 34.6278 96.2219 34.6156 96.3041 34.5856C96.3862 34.5556 96.461 34.5086 96.5236 34.4476C97.8754 33.4243 99.0984 32.242 100.166 30.9263L104.365 38.1738C106.786 32.0731 106.919 25.3051 104.737 19.1148C102.556 12.9244 98.2077 7.72775 92.492 4.48059C91.5226 3.92355 90.5111 3.44301 89.4666 3.04336C86.6967 2.11346 83.8055 1.59192 80.8846 1.49523C76.7485 1.21383 72.3801 1.22476 68.751 3.20296C66.8443 4.35022 65.1142 5.76688 63.6145 7.40884C61.4968 9.53488 59.3792 11.7819 58.2517 14.5614C57.5529 16.5128 57.1218 18.5495 56.9701 20.6162C56.7455 21.8514 56.7716 23.119 57.0467 24.3441C57.2934 25.174 57.7591 25.9199 58.0723 26.7272C58.5013 28.1034 58.7708 29.5241 58.8756 30.9616C59.3214 34.1133 60.3535 37.1542 61.9187 39.9278C62.0482 40.2394 62.2405 40.5211 62.4837 40.7555C62.7269 40.9899 63.0158 41.1719 63.3325 41.2902C63.9926 41.4431 64.785 40.7132 64.4356 40.1411" fill="#192534"/>
    <path d="M64.6115 40.3494C64.9862 38.4594 67.162 37.5035 69.0877 37.3742C71.0366 37.2697 72.9787 37.6793 74.7184 38.5617C76.4581 39.4441 77.9341 40.7683 78.9976 42.4007C79.4439 41.2209 79.7447 39.9914 79.8935 38.7392L83.4233 39.0004C83.8173 39.0613 84.2203 39.0252 84.5971 38.8954C85.0327 38.6445 85.3738 38.2579 85.568 37.795C87.1131 34.918 88.1446 31.3866 91.0412 29.8721V33.8336C91.8348 33.6795 92.5823 33.3455 93.226 32.8574C93.8697 32.3694 94.3924 31.7403 94.7537 31.0187C94.9529 32.1154 95.2696 33.1875 95.6984 34.2166C95.7692 34.3846 95.8669 34.5778 96.047 34.6215C96.1343 34.6278 96.2219 34.6156 96.3041 34.5856C96.3862 34.5556 96.461 34.5086 96.5236 34.4476C97.8754 33.4243 99.0984 32.242 100.166 30.9263L104.365 38.1738C106.786 32.0731 106.919 25.3051 104.737 19.1148C102.556 12.9244 98.2077 7.72775 92.492 4.48059C91.5226 3.92355 90.5111 3.44301 89.4666 3.04336C86.6967 2.11346 83.8055 1.59192 80.8846 1.49523C76.7485 1.21383 72.3801 1.22476 68.751 3.20296C66.8443 4.35022 65.1142 5.76688 63.6145 7.40884C61.4968 9.53488 59.3792 11.7819 58.2517 14.5614C57.5529 16.5128 57.1218 18.5495 56.9701 20.6162C56.7455 21.8514 56.7716 23.119 57.0467 24.3441C57.2934 25.174 57.7591 25.9199 58.0723 26.7272C58.5013 28.1034 58.7708 29.5241 58.8756 30.9616C59.3214 34.1133 60.3535 37.1542 61.9187 39.9278C62.0482 40.2394 62.2405 40.5211 62.4837 40.7555C62.7269 40.9899 63.0158 41.1719 63.3325 41.2902C63.9926 41.4431 64.785 40.7132 64.4356 40.1411" stroke="black" stroke-miterlimit="10"/>
    <path d="M40.3922 60.5539C41.2444 62.8891 43.384 64.4734 45.4132 65.9173L50.708 69.6856C52.1815 70.596 53.462 71.7858 54.4769 73.1875C53.8289 73.4971 53.3171 74.033 53.0386 74.6937C52.7601 75.3544 52.734 76.0941 52.9654 76.7727C53.2254 77.4415 53.6384 78.0404 54.1716 78.5217C54.7048 79.0029 55.3434 79.3532 56.0363 79.5447C57.4233 79.9198 58.8677 80.0362 60.297 79.8882C61.9527 79.9174 63.5851 79.4954 65.0183 78.6677L62.0358 76.8365C61.2502 76.3501 60.3517 75.5765 60.6346 74.7004L63.7788 74.6701C64.1121 74.7035 64.4472 74.6261 64.7319 74.4501C64.9613 74.2266 65.122 73.9425 65.1951 73.631C65.6625 72.4207 66.4604 71.3651 67.4985 70.584C68.5366 69.8029 69.7732 69.3276 71.0682 69.2118C71.8454 69.1547 72.7388 69.1875 73.2744 68.6104C73.5818 68.1884 73.7515 67.6821 73.7602 67.1605C73.928 66.1886 73.9404 65.1963 73.7972 64.2205C73.7205 63.7335 73.5311 63.2711 73.2438 62.87C72.9566 62.4688 72.5796 62.14 72.1427 61.9097C71.4471 61.6841 70.7225 61.5602 69.9913 61.5418C66.6627 61.1016 64.3547 58.0902 62.5671 55.2544C60.7795 52.4185 58.8622 49.2786 55.6768 48.2219C54.6821 47.9245 53.6509 47.7665 52.6126 47.7523C50.3108 47.5694 47.9981 47.9267 45.8595 48.7956C41.9626 50.5773 38.8741 56.3993 40.3922 60.5539Z" fill="#E53935"/>
    <path opacity="0.1" d="M104.381 34.2595L100.19 27.0119C99.1226 28.3281 97.8995 29.5104 96.5472 30.5332C96.4851 30.595 96.4104 30.6427 96.3281 30.6731C96.2459 30.7035 96.1581 30.716 96.0706 30.7096C95.8921 30.6651 95.7919 30.4761 95.722 30.3047C95.2931 29.2747 94.9764 28.2018 94.7773 27.1043C94.4163 27.8264 93.8938 28.456 93.2501 28.9445C92.6063 29.433 91.8587 29.7674 91.0648 29.9217V25.9602C88.1657 27.4815 87.1418 31.0112 85.5916 33.8831C85.3957 34.3447 85.0554 34.7307 84.6215 34.9835C84.2447 35.1134 83.8417 35.1495 83.4478 35.0885L79.9171 34.8273C79.7685 36.0795 79.468 37.309 79.0221 38.4889C77.9585 36.8564 76.4825 35.5322 74.7428 34.6498C73.0031 33.7674 71.061 33.3578 69.1122 33.4623C67.1856 33.59 65.0107 34.545 64.6351 36.4376L64.4482 36.2309C64.8027 36.8055 64.007 37.5312 63.3443 37.3817C63.0274 37.2637 62.7383 37.0819 62.4951 36.8475C62.2518 36.613 62.0596 36.3311 61.9305 36.0193C60.3686 33.2428 59.3406 30.1996 58.8992 27.0464C58.7945 25.6089 58.5249 24.1881 58.0959 22.8119C57.7826 22.0038 57.3178 21.2579 57.0694 20.4289C57.0652 20.4001 57.0579 20.372 57.0476 20.3448C57.0273 20.5128 57.008 20.675 56.9903 20.8396C56.7665 22.0783 56.7926 23.3491 57.0669 24.5776C57.3136 25.4075 57.7793 26.1534 58.0934 26.9582C58.5221 28.3353 58.7913 29.7569 58.8958 31.1951C59.3367 34.3476 60.3649 37.3901 61.9272 40.1655C62.0566 40.4774 62.2488 40.7595 62.492 40.9943C62.7352 41.2291 63.0241 41.4116 63.3409 41.5305C64.001 41.6834 64.7943 40.9534 64.4448 40.3797L64.6317 40.5838C65.0064 38.6955 67.1823 37.7379 69.1088 37.6127C71.0575 37.5074 72.9996 37.9163 74.7394 38.7983C76.4792 39.6804 77.9552 41.0043 79.0187 42.6368C79.465 41.457 79.7656 40.2275 79.9137 38.9752L83.4435 39.2356C83.8375 39.2972 84.2406 39.2611 84.6173 39.1306C85.0526 38.8795 85.3934 38.493 85.5874 38.0302C87.1308 35.1507 88.1648 31.6219 91.0606 30.1073V34.0738C91.8544 33.9195 92.6021 33.5851 93.2459 33.0966C93.8896 32.6081 94.4121 31.9785 94.7731 31.2564C94.9723 32.3538 95.2888 33.4267 95.717 34.4568C95.7868 34.6248 95.8854 34.818 96.0656 34.86C96.1529 34.8674 96.2408 34.8556 96.3231 34.8256C96.4054 34.7955 96.4801 34.748 96.5421 34.6862C97.8944 33.6634 99.1175 32.481 100.185 31.1649L104.376 38.4124C105.888 34.5656 106.511 30.4281 106.197 26.308C105.995 29.0344 105.383 31.715 104.381 34.2595Z" fill="black"/>
  </g>
  <defs>
    <clipPath id="clip0_1_1559">
      <rect width="137" height="126" fill="white"/>
    </clipPath>
  </defs>
</svg>