<svg xmlns="http://www.w3.org/2000/svg" width="215" height="187" viewBox="0 0 215 187" fill="none">
  <path d="M104.01 186.7C155.29 186.7 196.86 145.13 196.86 93.8501C196.86 42.5704 155.29 1 104.01 1C52.7303 1 11.1599 42.5704 11.1599 93.8501C11.1599 145.13 52.7303 186.7 104.01 186.7Z" fill="#134F19" fill-opacity="0.05"/>
  <path d="M104.01 168.1C145.017 168.1 178.26 134.857 178.26 93.85C178.26 52.8428 145.017 19.5999 104.01 19.5999C63.0027 19.5999 29.7598 52.8428 29.7598 93.85C29.7598 134.857 63.0027 168.1 104.01 168.1Z" fill="#134F19" fill-opacity="0.05"/>
  <path d="M145.887 25.8656C146.082 22.1455 147.697 18.6419 150.399 16.0776C153.101 13.5132 156.684 12.0837 160.409 12.0838C160.851 12.0838 161.287 12.1076 161.72 12.1448C163.418 9.22211 165.854 6.79625 168.784 5.10953C171.713 3.42282 175.034 2.5343 178.415 2.53272C181.795 2.53114 185.117 3.41655 188.048 5.10053C190.979 6.7845 193.417 9.20808 195.118 12.1292C195.483 12.1017 195.849 12.0831 196.221 12.0831C199.946 12.0829 203.529 13.5125 206.232 16.0768C208.934 18.6412 210.549 22.1447 210.743 25.8649" fill="#F2F2F2"/>
  <path d="M148.915 24.7459C149.11 21.0258 150.725 17.5222 153.427 14.9579C156.129 12.3935 159.712 10.964 163.438 10.9641C163.88 10.9641 164.316 10.9879 164.748 11.0251C166.446 8.10278 168.882 5.67723 171.812 3.99076C174.741 2.30428 178.062 1.41589 181.442 1.41431C184.822 1.41273 188.144 2.29801 191.075 3.98175C194.006 5.66548 196.444 8.08874 198.145 11.0095C198.509 10.982 198.876 10.9634 199.248 10.9634C202.973 10.9632 206.556 12.3928 209.258 14.9571C211.96 17.5215 213.575 21.0251 213.77 24.7452" stroke="#3F3D56" stroke-miterlimit="10"/>
  <path d="M40.2191 94.9838C40.4137 91.2637 42.0286 87.7602 44.7307 85.1958C47.4328 82.6315 51.016 81.2019 54.7412 81.2021C55.1824 81.2021 55.6191 81.2259 56.0514 81.2631C57.75 78.3407 60.1857 75.9151 63.1151 74.2285C66.0445 72.542 69.3651 71.6535 72.7453 71.6519C76.1255 71.6502 79.447 72.5354 82.3781 74.2191C85.3091 75.9028 87.7471 78.326 89.4487 81.2467C89.8132 81.2192 90.1793 81.2006 90.5513 81.2006C94.2765 81.2004 97.8597 82.63 100.562 85.1943C103.264 87.7587 104.879 91.2622 105.073 94.9824" fill="#F2F2F2"/>
  <path d="M43.2477 93.8648C43.4423 90.1447 45.0571 86.6411 47.7592 84.0768C50.4613 81.5124 54.0445 80.0829 57.7697 80.083C58.2109 80.083 58.6477 80.1061 59.0799 80.144C60.7786 77.2217 63.2143 74.7961 66.1438 73.1097C69.0732 71.4232 72.3939 70.5348 75.7741 70.5332C79.1543 70.5316 82.4758 71.4169 85.4068 73.1006C88.3378 74.7844 90.7758 77.2076 92.4772 80.1284C92.8418 80.1009 93.2078 80.0823 93.5798 80.0823C97.3046 80.0823 100.887 81.5118 103.589 84.0758C106.291 86.6398 107.906 90.1429 108.1 93.8626" stroke="#3F3D56" stroke-miterlimit="10"/>
  <path d="M73.3597 51.6319C73.3597 51.6319 99.4963 64.6109 104.183 62.8067C108.869 61.0025 110.491 44.9627 110.491 44.9627L91.2052 41.3573L73.3597 51.6319Z" fill="#E53935"/>
  <path opacity="0.1" d="M73.3597 51.6319C73.3597 51.6319 99.4963 64.6109 104.183 62.8067C108.869 61.0025 110.491 44.9627 110.491 44.9627L91.2052 41.3573L73.3597 51.6319Z" fill="black"/>
  <path d="M127.525 32.256H110.401V47.2163H127.525V32.256Z" fill="#FF6584"/>
  <path opacity="0.1" d="M127.525 32.256H110.401V47.2163H127.525V32.256Z" fill="black"/>
  <path d="M94.8098 95.9711C94.8098 95.9711 94.0896 111.653 98.956 111.292C103.823 110.931 98.956 96.5119 98.956 96.5119L94.8098 95.9711Z" fill="#FBBEBE"/>
  <path d="M114.817 34.5078C114.817 34.5078 115.898 41.3526 113.916 42.258C111.934 43.1635 110.671 43.8799 110.671 43.8799L115.177 46.9459L123.469 47.4868L125.631 45.8649L127.613 44.0622C127.613 44.0622 124.369 43.3405 124.369 41.7186C124.369 40.0967 124.189 35.2295 124.189 35.2295L114.817 34.5078Z" fill="#FBBEBE"/>
  <path opacity="0.1" d="M114.817 34.5078C114.817 34.5078 115.898 41.3526 113.916 42.258C111.934 43.1635 110.671 43.8799 110.671 43.8799L115.177 46.9459L123.469 47.4868L125.631 45.8649L127.613 44.0622C127.613 44.0622 124.369 43.3405 124.369 41.7186C124.369 40.0967 124.189 35.2295 124.189 35.2295L114.817 34.5078Z" fill="black"/>
  <path d="M103.459 98.6777C103.459 98.6777 98.2314 115.438 98.2314 127.701C98.2314 127.701 89.5795 147.169 89.9403 156.724L87.7782 169.883L90.8442 170.964L93.1878 168.981C93.1878 168.981 93.9087 161.951 96.2538 158.526C98.5989 155.102 104.004 138.88 104.004 138.88C104.004 138.88 118.424 108.599 117.883 104.273C117.342 99.9463 103.459 98.6777 103.459 98.6777Z" fill="#FFE8E8"/>
  <path d="M135.366 94.8923C135.366 94.8923 138.788 96.5142 133.924 125.355C133.924 125.355 136.628 144.465 134.285 154.916L133.924 165.37H130.142L129.422 164.289C129.422 164.289 129.242 154.915 127.98 152.393C126.718 149.871 125.637 135.269 125.637 135.269C125.637 135.269 119.869 105.53 121.131 103.004C122.393 100.478 135.366 94.8923 135.366 94.8923Z" fill="#FFE8E8"/>
  <path d="M87.2389 166.811C87.2389 166.811 88.5037 169.695 90.8428 168.974C91.7757 168.631 92.7424 168.39 93.7266 168.253C93.7266 168.253 92.1046 176.544 92.6455 180.511C93.1864 184.477 92.2847 187 88.68 187C85.0754 187 84.5337 182.674 84.5337 182.674L86.1564 172.4L87.2389 166.811Z" fill="#2F2E41"/>
  <path d="M128.696 162.305C128.696 162.305 129.961 164.828 131.94 164.287C132.963 164.081 133.903 163.579 134.645 162.845C134.645 162.845 134.465 168.433 135.185 170.955C135.905 173.476 137.529 180.688 133.743 181.049C132.704 181.175 131.651 180.962 130.742 180.443C129.833 179.923 129.116 179.124 128.697 178.164L128.696 162.305Z" fill="#2F2E41"/>
  <path d="M119.684 39.1953C124.064 39.1953 127.615 35.6444 127.615 31.2643C127.615 26.8841 124.064 23.3333 119.684 23.3333C115.304 23.3333 111.753 26.8841 111.753 31.2643C111.753 35.6444 115.304 39.1953 119.684 39.1953Z" fill="#FBBEBE"/>
  <path d="M134.284 45.5006C134.284 45.5006 128.002 43.0335 125.736 43.366C124.759 44.1959 123.621 44.8141 122.393 45.1815C121.165 45.5489 119.874 45.6576 118.602 45.5006C114.276 44.9597 112.585 42.8832 112.585 42.8832C112.585 42.8832 100.935 45.5006 101.66 46.5816C102.384 47.6626 105.625 65.3303 105.625 65.3303C105.625 65.3303 107.789 80.6515 105.264 85.8788C102.74 91.1061 101.483 99.758 102.561 100.479C103.638 101.2 115.718 104.444 117.161 105.345C118.604 106.246 119.144 103.182 120.045 103.724C120.946 104.265 122.928 105.165 124.191 104.445C125.454 103.725 137.709 97.2351 137.349 95.9733C136.988 94.7115 132.301 79.3904 130.679 76.3266C129.057 73.2628 130.319 66.7737 131.22 65.5111C132.122 64.2485 133.924 62.8067 134.286 59.2028C134.649 55.5988 134.284 45.5006 134.284 45.5006Z" fill="#2F2E41"/>
  <path d="M102.056 46.0273C101.022 46.9203 100.312 48.1301 100.036 49.4683C99.4955 51.8119 98.7716 70.5569 98.7716 70.5569C98.7716 70.5569 92.1024 96.3327 93.5443 96.8729C94.9862 97.413 99.1324 98.4948 99.6763 97.9539C100.22 97.413 106.346 75.6027 105.808 73.2591C105.27 70.9155 106.529 64.0618 106.529 64.0618L102.056 46.0273Z" fill="#2F2E41"/>
  <path d="M135.365 79.5703C135.365 79.5703 125.632 74.7038 124.55 77.9484C123.467 81.193 134.824 84.6176 134.824 84.6176C134.824 84.6176 138.789 83.1757 138.789 82.274C138.789 81.3723 135.365 79.5703 135.365 79.5703Z" fill="#FBBEBE"/>
  <path d="M132.301 46.2251L134.284 45.5034C134.284 45.5034 135.365 44.7817 136.628 47.4862C137.89 50.1906 151.588 66.0541 149.065 71.0984C146.542 76.1427 138.25 86.4188 137.889 85.6956C137.529 84.9724 133.383 79.5636 134.108 79.0264C134.834 78.4893 143.121 71.0954 142.039 70.0136C140.958 68.9319 136.451 59.7398 133.93 59.379C131.409 59.0181 132.301 46.2251 132.301 46.2251Z" fill="#2F2E41"/>
  <path d="M110.942 30.9935C110.942 30.9935 83.4512 19.9421 59.6634 9.30743C59.6634 9.30743 47.226 6.24142 40.7368 12.0119C40.7368 12.0119 46.1442 11.2902 46.1442 14.3555C46.1442 14.3555 50.8314 20.4875 36.2312 21.5655C26.063 22.3185 22.0149 28.4043 20.4934 32.0306C19.3059 34.9413 17.2185 37.3959 14.5362 39.0353C12.3906 40.4099 9.93027 41.2156 7.38714 41.3765C4.84401 41.5374 2.30178 41.0482 0 39.9549C0 39.9549 0.337039 40.4757 0.976133 41.3365C12.4218 56.7945 55.0484 70.2475 70.1009 58.2721C79.4009 50.8723 94.1506 41.518 104.721 46.2298C121.304 53.6192 124.368 50.3761 124.368 50.3761L125.088 48.3933C125.088 48.3933 109.044 44.0677 108.686 38.4803C108.328 32.8929 110.942 30.9935 110.942 30.9935Z" fill="#E53935"/>
  <path d="M126.984 32.4359C128.247 33.051 129.332 33.978 130.137 35.1292C130.941 36.2804 131.439 37.6179 131.583 39.0151C131.583 39.0151 135.729 47.1246 131.042 49.1089C126.355 51.0931 125.454 50.5507 125.454 50.5507V49.6535C125.454 49.6535 130.501 46.5875 129.419 44.2461C128.337 41.9048 126.984 32.4359 126.984 32.4359Z" fill="#E53935"/>
  <path d="M120.044 55.4173C120.044 55.4173 121.309 52.1727 120.945 52.1727C120.581 52.1727 122.411 50.1766 123.12 50.9079C123.829 51.6393 125.09 53.7976 123.649 54.3385C122.207 54.8794 120.044 55.4173 120.044 55.4173Z" fill="#E53935"/>
  <path d="M128.925 53.4917C128.925 53.4917 125.631 52.3675 125.645 52.7284C125.66 53.0892 123.589 51.3475 124.286 50.6087C124.983 49.8699 127.09 48.5181 127.692 49.9354C128.294 51.3527 128.925 53.4917 128.925 53.4917Z" fill="#E53935"/>
  <path d="M123.649 48.5671C124.074 48.3132 124.578 48.2268 125.064 48.3247C125.549 48.4227 125.981 48.698 126.274 49.0969C127.255 50.5499 125.091 53.0728 123.649 53.0728C122.207 53.0728 122.207 50.0068 122.207 50.0068L123.649 48.5671Z" fill="#E53935"/>
  <path opacity="0.1" d="M123.649 48.5671C124.074 48.3132 124.578 48.2268 125.064 48.3247C125.549 48.4227 125.981 48.698 126.274 49.0969C127.255 50.5499 125.091 53.0728 123.649 53.0728C122.207 53.0728 122.207 50.0068 122.207 50.0068L123.649 48.5671Z" fill="black"/>
  <path d="M112.808 18.3223C111.827 19.0729 110.998 20.0034 110.365 21.0639C110.056 21.6699 109.796 22.3005 109.591 22.9492C108.862 25.0473 107.05 27.1721 107.816 29.2553C108.135 29.807 108.262 30.4481 108.18 31.0796C108.005 31.6153 107.465 31.927 107.08 32.3332C106.345 33.3045 105.982 34.5071 106.058 35.7229C106.125 38.1192 107.043 40.4133 108.649 42.1934C108.968 42.5047 109.263 42.8392 109.533 43.1941C109.715 43.477 109.834 43.7957 109.881 44.1286C109.929 44.4615 109.905 44.8007 109.81 45.1233L111.949 44.6769C112.026 45.4667 112.051 46.2609 112.023 47.054C112.53 47.1091 113.04 46.9881 113.468 46.7111C113.896 46.4341 114.216 46.0182 114.373 45.5332C114.494 46.0989 114.692 46.6453 114.961 47.1574C115.588 46.3725 116.07 45.4811 116.381 44.5259C116.791 43.3024 116.879 41.9942 116.637 40.727C116.41 39.8016 116.103 38.8981 115.717 38.0271C114.96 36.1172 114.344 34.1583 113.727 32.1956C113.34 31.1981 113.154 30.1338 113.179 29.0641L113.94 28.9815C113.948 28.562 114.029 28.1471 114.18 27.7554C114.625 27.8497 115.054 28.011 115.451 28.2338L116.327 26.01C116.957 26.5617 117.714 26.9481 118.531 27.1342L121.551 28.0858L121.57 27.4906C122.845 28.6192 124.297 29.5301 125.868 30.1868C125.779 30.0798 125.714 29.9551 125.678 29.821C125.641 29.687 125.633 29.5466 125.655 29.4093C125.951 30.1142 126.103 30.8713 126.101 31.6358C126.099 32.4003 125.943 33.1566 125.643 33.8599C125.036 35.2653 124.735 36.7836 124.759 38.3142C124.898 39.4473 125.475 40.5321 125.372 41.6689C125.32 42.2292 125.101 42.7611 125.032 43.3206C125.021 44.6715 125.447 45.9899 126.246 47.0793L127.56 45.2743C128.002 44.5857 128.564 43.9811 129.217 43.4887C129.977 43.1355 130.704 42.7181 131.392 42.2411C132.479 41.2121 132.342 39.4585 131.987 38.004C131.745 37.2445 131.628 36.4507 131.641 35.6537C131.758 34.3101 132.692 33.1985 133.217 31.9553C133.592 31.0493 133.755 30.0694 133.692 29.0908C133.63 28.1122 133.344 27.1609 132.857 26.3099C132.204 25.1857 131.22 24.2884 130.603 23.1479C129.985 22.0073 129.757 20.6614 128.918 19.6816C128.508 19.2359 128.031 18.8566 127.504 18.5574C125.119 17.1249 122.441 16.2514 119.67 16.0025C118.428 15.8922 117.177 16.0415 115.995 16.4409C114.814 16.8402 113.728 17.4809 112.808 18.3223Z" fill="#FF6584"/>
</svg>