<svg xmlns="http://www.w3.org/2000/svg" width="140" height="140" viewBox="0 0 140 140" fill="none">
  <g clip-path="url(#clip0_1_1033)">
    <path d="M70 122.5C98.9949 122.5 122.5 98.9949 122.5 70C122.5 41.0051 98.9949 17.5 70 17.5C41.0051 17.5 17.5 41.0051 17.5 70C17.5 98.9949 41.0051 122.5 70 122.5Z" fill="#134F19" fill-opacity="0.05"/>
    <path d="M70 140C108.66 140 140 108.66 140 70C140 31.3401 108.66 0 70 0C31.3401 0 0 31.3401 0 70C0 108.66 31.3401 140 70 140Z" fill="#134F19" fill-opacity="0.05"/>
    <path d="M87.5019 14.1167C86.1075 18.2449 83.9702 22.0062 79.6124 22.0062C77.5333 21.9637 75.5512 21.1189 74.0807 19.6485C72.6103 18.178 71.7654 16.1958 71.723 14.1167C71.4094 8.55781 75.1548 6.20487 79.6124 6.22727C84.8783 6.25527 89.1567 9.21767 87.5019 14.1167Z" fill="#2F2E41"/>
    <path d="M87.2947 13.4942H71.7239V33.2165H87.2947V13.4942Z" fill="#2F2E41"/>
    <path d="M24.3199 66.6382L23.3278 66.3134C19.7876 65.1197 17.4609 64.3534 16.633 62.4867C16.4692 62.1342 16.3777 61.7523 16.3641 61.3638C16.3505 60.9753 16.4149 60.588 16.5536 60.2249C16.6924 59.8617 16.9026 59.5301 17.1717 59.2496C17.4409 58.9691 17.7636 58.7455 18.1207 58.5919C18.5321 58.796 18.9834 58.9069 19.4426 58.9167C19.9017 58.9266 20.3573 58.8351 20.7771 58.6489C21.1969 58.4626 21.5705 58.1862 21.8713 57.8392C22.1721 57.4922 22.3928 57.0832 22.5177 56.6413C22.8712 56.4795 23.2536 56.3903 23.6423 56.3789C24.0309 56.3676 24.4179 56.4343 24.7803 56.5752C25.1427 56.7161 25.4731 56.9283 25.752 57.1992C26.0309 57.4701 26.2527 57.7942 26.4041 58.1523C27.2329 60.019 26.237 62.259 24.7455 65.6815L24.3199 66.6382Z" fill="#FF6584"/>
    <path d="M25.0376 35.9576L24.6297 35.6496C23.1784 34.5296 22.2217 33.8109 22.134 32.8132C22.1141 32.6239 22.1323 32.4326 22.1877 32.2504C22.243 32.0683 22.3343 31.8991 22.4561 31.7528C22.5779 31.6066 22.7278 31.4862 22.8969 31.3989C23.066 31.3115 23.2509 31.259 23.4407 31.2443C23.5989 31.4043 23.7905 31.5275 24.0018 31.605C24.2131 31.6826 24.4388 31.7126 24.663 31.693C24.8872 31.6734 25.1044 31.6046 25.299 31.4916C25.4936 31.3785 25.6609 31.224 25.7889 31.0389C25.9785 31.0201 26.17 31.0395 26.3519 31.096C26.5339 31.1525 26.7026 31.2449 26.8482 31.3678C26.9938 31.4907 27.1133 31.6416 27.1995 31.8114C27.2858 31.9813 27.3371 32.1668 27.3504 32.3568C27.4372 33.3545 26.6206 34.2319 25.3848 35.5834L25.0376 35.9576Z" fill="#FF6584"/>
    <path d="M31.318 19.5281L30.9101 19.2201C29.4588 18.1001 28.5022 17.3815 28.4144 16.3837C28.3945 16.1944 28.4128 16.0031 28.4681 15.8209C28.5234 15.6388 28.6147 15.4696 28.7365 15.3234C28.8583 15.1771 29.0082 15.0567 29.1773 14.9694C29.3464 14.882 29.5313 14.8295 29.7211 14.8148C29.8793 14.9748 30.0709 15.098 30.2822 15.1756C30.4935 15.2531 30.7192 15.2832 30.9434 15.2635C31.1676 15.2439 31.3848 15.1752 31.5794 15.0621C31.774 14.9491 31.9412 14.7945 32.0693 14.6095C32.2591 14.5903 32.4509 14.6094 32.6332 14.6657C32.8155 14.722 32.9846 14.8143 33.1305 14.9373C33.2764 15.0602 33.3961 15.2112 33.4825 15.3812C33.569 15.5513 33.6203 15.737 33.6336 15.9273C33.7204 16.9251 32.9037 17.8024 31.668 19.1539L31.318 19.5281Z" fill="#FF6584"/>
    <path d="M32.7852 49.5722L32.634 48.7126C32.1179 45.6326 31.7632 43.6147 32.8142 42.267C33.0092 42.0066 33.2547 41.7881 33.5359 41.6244C33.8171 41.4608 34.1284 41.3554 34.4511 41.3144C34.7739 41.2735 35.1016 41.2979 35.4148 41.3862C35.7279 41.4745 36.0202 41.6248 36.2741 41.8283C36.2857 42.2123 36.3818 42.589 36.5556 42.9316C36.7294 43.2742 36.9766 43.5743 37.2796 43.8105C37.5826 44.0467 37.934 44.2131 38.3087 44.298C38.6833 44.3829 39.0721 44.3841 39.4474 44.3016C39.7065 44.4982 39.9235 44.7449 40.0854 45.0271C40.2473 45.3092 40.3509 45.621 40.3899 45.9439C40.4289 46.2669 40.4025 46.5943 40.3125 46.9069C40.2224 47.2195 40.0704 47.5107 39.8655 47.7634C38.8146 49.1111 36.7724 49.2567 33.6579 49.5096L32.7852 49.5722Z" fill="#FF6584"/>
    <path d="M87.7511 28.1876H89.0755C90.0543 29.5827 90.719 31.1734 91.0238 32.85C91.3287 34.5267 91.2665 36.2496 90.8414 37.8999C89.3695 43.4915 90.5474 44.5219 90.5474 44.5219C90.5474 44.5219 92.4625 50.5774 90.4027 59.7007C88.3428 68.824 92.3132 71.3039 92.3132 71.3039L88.634 63.9464L86.5742 44.5228L87.7511 28.1876Z" fill="#E53935"/>
    <path opacity="0.1" d="M87.7511 28.1951H89.0755C90.0548 29.5906 90.7198 31.182 91.0247 32.8593C91.3296 34.5367 91.267 36.2603 90.8414 37.9111C89.3695 43.5027 90.5474 44.5331 90.5474 44.5331C90.5474 44.5331 92.4625 50.5886 90.4027 59.7119C88.3428 68.8353 92.3132 71.3151 92.3132 71.3151L88.634 63.9577L86.5742 44.5341L87.7511 28.1951Z" fill="black"/>
    <path d="M83.1152 21.0505C83.1152 21.0505 81.9383 25.7591 82.5263 25.7591C83.1143 25.7591 85.1751 28.2604 85.1751 28.2604L86.4995 33.1138L85.4728 36.6455L81.9411 35.91L77.5264 31.0567L76.202 29.7323L75.0251 25.4651C75.0251 25.4651 76.4969 23.6992 75.4665 22.2274C74.4361 20.7555 83.1152 21.0505 83.1152 21.0505Z" fill="#FBBEBE"/>
    <path opacity="0.1" d="M83.1152 21.0505C83.1152 21.0505 81.9383 25.7591 82.5263 25.7591C83.1143 25.7591 85.1751 28.2604 85.1751 28.2604L86.4995 33.1138L85.4728 36.6455L81.9411 35.91L77.5264 31.0567L76.202 29.7323L75.0251 25.4651C75.0251 25.4651 76.4969 23.6992 75.4665 22.2274C74.4361 20.7555 83.1152 21.0505 83.1152 21.0505Z" fill="black"/>
    <path d="M47.5058 34.1479L44.268 28.8503C44.268 28.8503 40.7736 21.1186 38.2713 23.9139C35.7691 26.7093 42.0607 32.382 42.0607 32.382L45.2984 36.6493L47.5058 34.1479Z" fill="#FBBEBE"/>
    <path d="M90.4736 80.206L88.1198 97.4204C88.1198 97.4204 88.4138 98.7448 85.471 103.601C82.5282 108.457 74.5818 119.052 74.5818 119.052L72.227 114.638C72.227 114.638 75.027 100.658 79.8803 97.7154L79.2914 76.5287L90.4736 80.206Z" fill="#FBBEBE"/>
    <path opacity="0.1" d="M90.4736 80.206L88.1198 97.4204C88.1198 97.4204 88.4138 98.7448 85.471 103.601C82.5282 108.457 74.5818 119.052 74.5818 119.052L72.227 114.638C72.227 114.638 75.027 100.658 79.8803 97.7154L79.2914 76.5287L90.4736 80.206Z" fill="black"/>
    <path d="M72.2307 112.874L75.4684 119.054C75.4684 119.054 72.8196 126.559 73.85 127.295C74.8804 128.03 76.2048 134.652 73.4086 133.917C70.6123 133.181 68.4059 130.237 68.4059 129.797C68.4059 129.356 70.0243 123.175 69.1413 121.703C68.7628 120.986 68.2651 120.339 67.6695 119.79L65.4622 123.469L64.7267 123.027L68.404 116.847C68.8624 115.946 69.6544 115.259 70.6113 114.933L72.2307 112.874Z" fill="#2F2E41"/>
    <path opacity="0.1" d="M72.2307 112.874L75.4684 119.054C75.4684 119.054 72.8196 126.559 73.85 127.295C74.8804 128.03 76.2048 134.652 73.4086 133.917C70.6123 133.181 68.4059 130.237 68.4059 129.797C68.4059 129.356 70.0243 123.175 69.1413 121.703C68.7628 120.986 68.2651 120.339 67.6695 119.79L65.4622 123.469L64.7267 123.027L68.404 116.847C68.8624 115.946 69.6544 115.259 70.6113 114.933L72.2307 112.874Z" fill="black"/>
    <path d="M79.324 77.7635C79.324 77.7635 80.4664 94.039 77.9651 98.3062V119.493L74.5808 119.934C74.5808 119.934 68.8418 108.454 71.3431 97.4204C73.8444 86.3866 67.6639 76.525 67.6639 76.525L79.324 77.7635Z" fill="#E2ABAB"/>
    <path d="M78.4812 24.6568C81.8946 24.6568 84.6618 21.8897 84.6618 18.4763C84.6618 15.0629 81.8946 12.2958 78.4812 12.2958C75.0678 12.2958 72.3007 15.0629 72.3007 18.4763C72.3007 21.8897 75.0678 24.6568 78.4812 24.6568Z" fill="#FBBEBE"/>
    <path d="M84.7355 34.7378L78.555 26.9388L75.0232 24.584L73.5514 26.4974L69.4317 27.6743C69.4317 27.6743 66.7828 28.2632 63.9865 31.501C61.1903 34.7387 56.1877 36.6511 56.1877 36.6511L52.0679 35.9157C52.0679 35.9157 47.2146 33.7083 47.2146 33.1157C47.2146 32.523 42.9474 37.0888 43.9768 38.8547C45.2559 40.7275 46.7363 42.4545 48.3915 44.0048C49.5684 45.1818 50.0099 48.567 57.2208 47.5366C64.4318 46.5062 67.0796 42.9744 67.0796 42.9744C67.0796 42.9744 68.404 49.7439 72.2298 51.0674C76.0555 52.3908 88.5631 53.2747 88.5631 53.2747L91.2119 44.4454C91.2119 44.4454 94.1547 40.6187 90.1852 35.028C90.141 33.2823 89.9729 31.542 89.6822 29.82C89.6164 29.2002 89.3835 28.6098 89.0083 28.112C87.9816 27.2291 82.5338 25.7572 82.5338 25.7572C82.5338 25.7572 83.4167 28.7001 83.8582 28.8475C84.2996 28.995 85.3235 34.0004 84.7355 34.7378Z" fill="#E53935"/>
    <path d="M64.9423 78.6605C72.353 78.1453 76.6678 79.3595 78.5923 80.2854C78.9501 80.4474 79.2869 80.652 79.5956 80.8948C79.7365 81.0143 79.8046 81.1067 79.8046 81.1627C79.8046 81.6042 89.9584 82.4871 93.6367 81.6042C97.3149 80.7213 91.1353 61.7382 89.516 60.1198C87.8967 58.5014 88.7694 52.5766 88.7694 52.5766C88.7694 52.5766 85.5419 51.8794 84.6627 52.1734C83.7835 52.4674 79.2185 51.7319 77.5992 50.849C75.9799 49.9661 73.92 50.555 72.5956 50.26C72.4067 50.1845 72.1968 50.1807 72.0054 50.2495C71.8139 50.3183 71.6543 50.4549 71.5568 50.6334C71.3255 51.0614 70.9763 51.4141 70.5507 51.6498C67.4268 53.4493 64.9189 65.8925 63.0308 72.7721C60.9691 80.2798 64.9423 78.6605 64.9423 78.6605Z" fill="#2F2E41"/>
    <path d="M78.555 118.171L79.1439 121.409C79.1439 121.409 82.2342 125.824 81.3512 129.502C81.3512 129.502 82.0867 134.355 84.7355 135.682C87.3843 137.01 85.177 140.097 82.6756 139.95C80.1743 139.802 77.8223 140.097 77.5255 139.361C77.2287 138.624 75.4656 131.414 75.4656 131.414L74.9822 139.852L73.5103 139.999L73.9938 130.237C73.9938 130.237 72.8168 128.03 74.4352 124.352L74.0264 118.705C74.0264 118.705 78.1135 119.643 78.555 118.171Z" fill="#2F2E41"/>
    <path opacity="0.1" d="M78.5914 80.2854C78.9491 80.4474 79.286 80.652 79.5947 80.8948C79.6722 79.5041 80.123 71.0948 79.5826 71.2301L78.5914 80.2854Z" fill="black"/>
    <path d="M75.922 9.96522C75.922 9.96522 75.8539 9.58443 73.1771 10.5878C70.5003 11.5911 68.8959 18.9999 70.2343 23.3492C70.4796 23.9969 70.5519 24.6973 70.444 25.3814C70.3362 26.0656 70.0519 26.7098 69.6192 27.2506C68.9808 28.0128 68.5273 28.9125 68.2945 29.8792C68.0616 30.8459 68.0555 31.8533 68.2768 32.8227C68.4981 33.7921 68.9407 34.6972 69.5699 35.4671C70.1992 36.2369 70.998 36.8508 71.904 37.2606C72.0148 37.3085 72.1274 37.3561 72.2419 37.4034L73.9153 38.4076C73.2804 37.4844 72.856 36.4331 72.672 35.3279C72.488 34.2227 72.5489 33.0906 72.8504 32.0115C73.7781 28.9515 73.8926 25.7026 73.1827 22.5848C73.0604 22.0594 72.9213 21.5171 72.7636 20.9646C71.4252 16.2802 72.0757 16.8206 76.7601 12.1362C78.3303 13.3025 80.0116 14.3113 81.7796 15.148C84.1223 16.1523 86.1298 17.1556 84.4564 20.5016C82.7829 23.8476 78.7677 26.8595 81.4445 31.2088C84.1213 35.5582 84.4564 33.8856 84.1213 35.5591L83.7872 37.2326L85.7948 35.225L84.4564 37.9018C84.4564 37.9018 88.8067 37.9018 90.1451 34.5558L90.8143 35.225C90.8143 35.225 93.491 30.5406 88.4716 26.1903C88.4716 26.1903 86.7991 25.186 89.1408 21.84C91.4825 18.494 89.684 11.2999 86.6721 9.96149C83.6603 8.62309 75.922 9.96522 75.922 9.96522Z" fill="#2F2E41"/>
    <path d="M79.6133 7.88953C81.3335 7.88953 82.7279 6.4951 82.7279 4.77499C82.7279 3.05489 81.3335 1.66046 79.6133 1.66046C77.8932 1.66046 76.4988 3.05489 76.4988 4.77499C76.4988 6.4951 77.8932 7.88953 79.6133 7.88953Z" fill="#2F2E41"/>
    <path d="M75.8763 3.11457C75.8763 2.34299 76.1627 1.59887 76.68 1.02639C77.1973 0.45391 77.9087 0.0938255 78.6763 0.0159045C78.5736 0.00563784 78.47 3.94366e-05 78.3655 3.94366e-05C77.952 -0.00711914 77.5413 0.0681416 77.1572 0.221424C76.7731 0.374707 76.4234 0.602943 76.1284 0.89282C75.8335 1.1827 75.5992 1.52841 75.4393 1.90979C75.2794 2.29116 75.197 2.70056 75.197 3.11411C75.197 3.52765 75.2794 3.93705 75.4393 4.31843C75.5992 4.69981 75.8335 5.04552 76.1284 5.3354C76.4234 5.62527 76.7731 5.85351 77.1572 6.00679C77.5413 6.16007 77.952 6.23533 78.3655 6.22817C78.4709 6.22817 78.5746 6.22257 78.6763 6.2123C77.9088 6.1344 77.1975 5.77445 76.6802 5.20217C76.163 4.62988 75.8765 3.88599 75.8763 3.11457Z" fill="#2F2E41"/>
    <path d="M39.2896 26.292L38.8818 25.984C37.4304 24.864 36.4738 24.1454 36.386 23.1476C36.3661 22.9583 36.3844 22.767 36.4397 22.5848C36.495 22.4027 36.5862 22.2335 36.7081 22.0872C36.8299 21.941 36.9797 21.8206 37.1489 21.7333C37.318 21.6459 37.5029 21.5934 37.6927 21.5787C37.8509 21.7387 38.0425 21.8619 38.2538 21.9394C38.465 22.017 38.6908 22.047 38.915 22.0274C39.1392 22.0078 39.3563 21.939 39.5509 21.826C39.7456 21.7129 39.9129 21.5584 40.041 21.3734C40.2306 21.3545 40.422 21.3739 40.6039 21.4304C40.7859 21.4869 40.9547 21.5794 41.1003 21.7022C41.2459 21.8251 41.3653 21.976 41.4516 22.1458C41.5378 22.3157 41.5891 22.5012 41.6024 22.6912C41.6892 23.689 40.8725 24.5663 39.6368 25.9178L39.2896 26.292Z" fill="#FF6584"/>
  </g>
  <defs>
    <clipPath id="clip0_1_1033">
      <rect width="140" height="140" fill="white"/>
    </clipPath>
  </defs>
</svg>