<svg width="95" height="95" viewBox="0 0 95 95" fill="none" xmlns="http://www.w3.org/2000/svg">
<path d="M16.2715 85.7082L15.8498 85.7259C15.8209 85.0558 13.7003 83.4541 12.3832 82.8037C11.5823 82.4311 10.8524 81.9259 10.2253 81.3103C9.82319 80.9324 9.51464 80.4688 9.32334 79.9552C9.13204 79.4415 9.06311 78.8915 9.12185 78.3475C9.37935 76.0973 7.53625 73.2657 7.51758 73.2378L7.87164 73.0117C7.95147 73.1321 9.81776 75.9947 9.54094 78.3951C9.35682 79.9898 10.3778 81.3489 12.5724 82.4338C13.6076 82.9437 16.2271 84.6689 16.2715 85.7082Z" fill="#D4D5E0"/>
<path d="M9.95582 67.4709C8.19834 64.5772 4.77285 63.4074 2.30465 64.8584C-0.163554 66.3093 -0.739725 69.8313 1.01711 72.725C2.72374 75.5344 6.00244 76.7188 8.45069 75.4572C8.59526 75.7709 8.64467 76.1191 8.59296 76.4598C8.46936 77.0342 9.72083 75.7967 9.72083 75.7967C9.45762 75.5986 9.22872 75.3599 9.04296 75.0898C11.1944 73.516 11.6206 70.2119 9.95582 67.4709Z" fill="#E53935"/>
<path opacity="0.2" d="M3.68083 74.0645C2.62248 73.2069 2.25103 71.9111 2.80724 71.1074C2.77698 71.1378 2.74802 71.1708 2.7197 71.2024C2.05469 71.9979 2.41068 73.3678 3.51539 74.2621C4.5879 75.1304 5.97201 75.2317 6.66019 74.5091C6.15977 74.6456 5.63567 74.6766 5.12223 74.6C4.60879 74.5233 4.11759 74.3408 3.68083 74.0645Z" fill="white"/>
<path d="M30.1556 42.1593L29.7346 42.177C29.7056 41.507 27.5851 39.9053 26.2679 39.2549C25.467 38.8823 24.7371 38.3771 24.11 37.7615C23.7079 37.3836 23.3993 36.92 23.208 36.4063C23.0167 35.8927 22.9478 35.3427 23.0066 34.7987C23.2641 32.5485 21.421 29.7169 21.4023 29.689L21.7564 29.4629C21.8362 29.5839 23.7025 32.4459 23.4257 34.8462C23.2416 36.441 24.2626 37.8001 26.4572 38.885C27.4917 39.3954 30.1112 41.12 30.1556 42.1593Z" fill="#D4D5E0"/>
<path d="M23.8386 23.922C22.0811 21.0283 18.6557 19.8586 16.1875 21.3095C13.7193 22.7605 13.1431 26.2825 14.8999 29.1762C16.6066 31.9856 19.8853 33.17 22.3335 31.9084C22.478 32.2221 22.5274 32.5702 22.4758 32.9109C22.3522 33.4854 23.6036 32.2478 23.6036 32.2478C23.3405 32.0499 23.1116 31.8114 22.9258 31.5417C25.0772 29.9672 25.5034 26.6631 23.8386 23.922Z" fill="#E53935"/>
<path opacity="0.2" d="M17.562 30.5156C16.503 29.6587 16.1322 28.3623 16.6884 27.5586C16.6581 27.589 16.6285 27.6219 16.6008 27.6536C15.9352 28.4491 16.2918 29.819 17.3965 30.7132C18.469 31.5815 19.8532 31.6828 20.5413 30.9602C20.0409 31.0968 19.5168 31.1278 19.0034 31.0512C18.4899 30.9745 17.9987 30.792 17.562 30.5156Z" fill="white"/>
<path d="M25.3086 60.5841L24.887 60.6019C24.858 59.9318 22.7374 58.3301 21.4203 57.6797C20.6194 57.3071 19.8894 56.8019 19.2624 56.1863C18.8603 55.8084 18.5517 55.3448 18.3604 54.8312C18.1691 54.3175 18.1002 53.7675 18.159 53.2235C18.4165 50.9733 16.5734 48.1417 16.5547 48.1138L16.9088 47.8877C16.9886 48.008 18.8549 50.8707 18.578 53.271C18.3939 54.8658 19.4149 56.2249 21.6095 57.3098C22.6447 57.8203 25.2642 59.5448 25.3086 60.5841Z" fill="#D4D5E0"/>
<path d="M18.9929 42.3468C17.2354 39.4531 13.81 38.2834 11.3418 39.7343C8.87356 41.1853 8.29738 44.7073 10.0542 47.601C11.7608 50.4105 15.0396 51.5948 17.4878 50.3332C17.6323 50.6469 17.6817 50.9951 17.6301 51.3358C17.5065 51.9102 18.7579 50.6727 18.7579 50.6727C18.4948 50.4747 18.2659 50.2363 18.0801 49.9665C20.2315 48.392 20.6577 45.0879 18.9929 42.3468Z" fill="#E53935"/>
<path opacity="0.2" d="M12.716 48.9404C11.657 48.0829 11.2862 46.7871 11.8424 45.9834C11.8119 46.0134 11.7828 46.045 11.7549 46.0784C11.0898 46.8739 11.4458 48.2438 12.5505 49.138C13.6231 50.0063 15.0072 50.1076 15.6954 49.385C15.1949 49.5216 14.6708 49.5526 14.1574 49.476C13.6439 49.3994 13.1527 49.2168 12.716 48.9404Z" fill="white"/>
<path d="M83.4475 84.967L83.1797 84.6465C83.7063 84.2209 83.7314 81.5907 83.4681 80.1644C83.2887 79.31 83.2599 78.4317 83.3831 77.5677C83.4481 77.0244 83.6391 76.503 83.9412 76.0437C84.2433 75.5844 84.6486 75.1995 85.1258 74.9185C87.1092 73.769 88.2989 70.6157 88.3105 70.584L88.7064 70.7259C88.6562 70.8608 87.4543 74.0502 85.3395 75.2757C83.9335 76.0902 83.4436 77.709 83.8833 80.089C84.09 81.2107 84.2644 84.3039 83.4475 84.967Z" fill="#D4D5E0"/>
<path d="M94.4598 69.0335C95.7524 65.9118 94.6419 62.5159 91.9793 61.4481C89.3167 60.3803 86.1095 62.0459 84.8168 65.1676C83.5614 68.1988 84.5721 71.4877 87.07 72.6536C86.9021 72.9561 86.6491 73.2043 86.3412 73.3687C85.8004 73.6169 87.5579 73.8563 87.5579 73.8563C87.5605 73.5304 87.6166 73.207 87.724 72.8987C90.2927 73.6404 93.2353 71.9905 94.4598 69.0335Z" fill="#E53935"/>
<path opacity="0.2" d="M85.3305 68.0665C85.3897 66.7188 86.217 65.6491 87.2064 65.6016C87.1633 65.5959 87.1202 65.5921 87.0777 65.5902C86.0315 65.5458 85.1335 66.6497 85.0717 68.0557C85.0118 69.4212 85.7618 70.5694 86.7629 70.6765C86.3506 70.3653 86.0099 69.9719 85.7631 69.5221C85.5162 69.0723 85.3688 68.5763 85.3305 68.0665Z" fill="white"/>
<path opacity="0.1" d="M49.3786 88.9426C71.254 88.9426 88.9876 87.6462 88.9876 86.047C88.9876 84.4478 71.254 83.1514 49.3786 83.1514C27.5031 83.1514 9.76953 84.4478 9.76953 86.047C9.76953 87.6462 27.5031 88.9426 49.3786 88.9426Z" fill="#E53935"/>
<path d="M46.041 10.6052V15.1569H46.5264V10.3848L46.041 10.6052Z" fill="#53425A"/>
<path d="M55.9668 11.8167V16.0385H56.6389L56.4895 11.3398L55.9668 11.8167Z" fill="#53425A"/>
<path d="M36.8667 12.624L36.416 13.1016V17.2131H36.8667V12.624Z" fill="#53425A"/>
<path d="M38.7288 24.7376H35.8184V16.5156H38.0574C38.0342 16.579 38.0169 16.6443 38.0059 16.7107C37.9283 17.5041 37.9354 18.3033 38.0271 19.0952C38.2216 21.5418 38.7288 24.7376 38.7288 24.7376Z" fill="#E53935"/>
<path d="M48.878 24.7377L45.2207 25.181V14.46H47.5364C47.5209 14.5809 47.5106 14.719 47.5048 14.8716C47.4979 15.6803 47.5461 16.4886 47.649 17.291C47.7276 17.9876 47.8299 18.7394 47.9432 19.4848C48.0301 20.0631 48.1248 20.6381 48.2175 21.1853C48.5522 23.1487 48.878 24.7377 48.878 24.7377Z" fill="#E53935"/>
<path d="M58.7284 23.6359L55.1465 23.9297V15.3398H57.6089C57.5079 15.6233 57.4641 15.9234 57.4801 16.2233C57.4962 16.9319 57.5608 17.6386 57.6733 18.3387C58.0242 20.7447 58.7284 23.6359 58.7284 23.6359Z" fill="#E53935"/>
<path d="M37.46 4.29102C37.46 4.29102 37.6841 5.17198 35.3356 7.59448C32.9871 10.017 33.9193 14.8993 36.4177 14.7511C36.4177 14.7511 38.7546 15.1311 39.5954 13.5649C39.7702 13.2271 39.8486 12.849 39.8223 12.4708C39.796 12.0926 39.666 11.7285 39.4461 11.4173C38.6735 10.2982 37.1832 7.94598 37.4619 6.82181L37.46 4.29102Z" fill="#FFC13D"/>
<path opacity="0.5" d="M36.9874 7.62109C36.9874 7.62109 37.1272 8.17146 35.6587 9.68449C34.1903 11.1975 34.7729 14.2445 36.3347 14.1552C36.3347 14.1552 37.8269 14.3971 38.3368 13.3813C38.4371 13.1724 38.4796 12.9412 38.46 12.7109C38.4403 12.4807 38.3592 12.2597 38.2248 12.0703C37.769 11.4091 36.916 10.0651 36.9681 9.32667C36.9765 9.2114 36.9874 9.09612 36.9874 8.98022V7.62109Z" fill="white"/>
<path d="M56.8585 3.18652C56.8585 3.18652 57.0825 4.06749 54.734 6.48999C52.3856 8.91249 53.3177 13.7949 55.8162 13.6467C55.8162 13.6467 58.1531 14.0267 58.9938 12.4604C59.1686 12.1226 59.2471 11.7445 59.2208 11.3663C59.1945 10.9881 59.0644 10.624 58.8445 10.3128C58.072 9.19369 56.5816 6.84149 56.8604 5.71732L56.8585 3.18652Z" fill="#FFC13D"/>
<path opacity="0.5" d="M56.5609 8.4375C56.5609 8.4375 56.6658 8.8498 55.5656 9.98346C54.4654 11.1171 54.9019 13.4035 56.0723 13.3338C56.0723 13.3338 57.1667 13.5111 57.5594 12.779C57.6413 12.6209 57.678 12.444 57.6658 12.267C57.6535 12.09 57.5927 11.9196 57.4899 11.7739C57.1281 11.2501 56.4309 10.1494 56.5615 9.62056L56.5609 8.4375Z" fill="white"/>
<path d="M46.9636 0C46.9636 0 47.2359 1.0716 44.3776 4.01723C41.5192 6.96286 42.6536 12.9004 45.6934 12.7218C45.6934 12.7218 48.535 13.1828 49.556 11.2797C49.7688 10.8689 49.8644 10.4091 49.8325 9.94913C49.8007 9.48918 49.6426 9.04635 49.3751 8.6678C48.4359 7.30676 46.6237 4.44663 46.9629 3.0799L46.9636 0Z" fill="#FFC13D"/>
<path opacity="0.5" d="M46.6623 5.31738C46.6623 5.31738 46.8143 5.91525 45.2197 7.55875C43.6251 9.20225 44.2579 12.5146 45.9536 12.4152C45.9536 12.4152 47.5392 12.6723 48.1095 11.6102C48.2281 11.3811 48.2814 11.1246 48.2636 10.8681C48.2458 10.6116 48.1576 10.3646 48.0085 10.1535C47.4844 9.39352 46.4737 7.79815 46.6623 7.03625V5.31738Z" fill="white"/>
<path opacity="0.5" d="M38.0271 19.0954C37.2358 19.9779 36.4983 20.9057 35.8184 21.8739V18.9688C36.5092 18.1807 37.2397 17.4271 38.0072 16.7109C37.9292 17.5043 37.9359 18.3035 38.0271 19.0954Z" fill="white"/>
<path opacity="0.5" d="M47.6477 17.2904C46.7932 17.9635 45.9826 18.6889 45.2207 19.4621V16.685C45.91 15.9979 46.6758 15.3895 47.5035 14.8711C47.4966 15.6798 47.5447 16.4881 47.6477 17.2904Z" fill="white"/>
<path d="M48.2161 21.1849C47.3148 21.9601 46.0801 23.0627 45.2207 23.8309V21.8435C46.1188 21.031 47.2164 20.0949 47.9419 19.4844C48.0288 20.0626 48.1228 20.637 48.2161 21.1849Z" fill="#E53935"/>
<path opacity="0.5" d="M57.6752 18.3389C56.8119 19.0501 55.8083 20.028 55.1465 20.7012V17.9297C55.8551 17.2724 56.6391 16.6985 57.4827 16.2197C57.4984 16.9296 57.5627 17.6375 57.6752 18.3389Z" fill="white"/>
<path d="M66.041 26.7197H29.5117V43.1655H66.041V26.7197Z" fill="#C99398"/>
<path opacity="0.1" d="M66.0401 26.7197V29.1954C65.2312 29.2736 64.415 29.1622 63.6582 28.8705C63.2054 28.7201 62.7238 28.6725 62.2496 28.7313C61.7754 28.7901 61.3209 28.9537 60.9202 29.21C58.8157 30.5634 57.1729 30.2772 56.0276 29.6046C55.46 29.2637 54.8185 29.0599 54.1554 29.0095C53.4924 28.9592 52.8267 29.064 52.2126 29.3151C51.6768 29.5321 51.1007 29.6361 50.5215 29.6204C49.8443 29.6113 49.1785 29.7919 48.6018 30.141C47.9028 30.5268 47.1084 30.7134 46.3076 30.6799C45.5068 30.6463 44.7314 30.3939 44.0683 29.951C43.3591 29.549 42.5201 29.43 41.7244 29.6185C41.3839 29.6993 41.0327 29.7275 40.6834 29.7021C39.8842 29.6283 39.0813 29.7986 38.3839 30.1897C35.5307 31.8294 34.5856 29.8382 34.0262 29.5456C33.3915 29.215 33.3181 30.3532 33.1307 30.3532C32.9434 30.3532 32.3099 28.849 32.1599 29.362C32.0904 29.6033 31.5033 29.8927 30.8982 30.1327C30.4587 30.3074 29.978 30.3563 29.5115 30.274V26.7197H66.0401Z" fill="black"/>
<path d="M30.9688 23.4405C30.9688 23.4405 24.9818 26.0689 28.1768 29.3533C28.5226 29.7029 28.9665 29.9429 29.4518 30.0425C29.9371 30.1422 30.4416 30.0969 30.9006 29.9126C31.5045 29.6732 32.0922 29.3831 32.1624 29.1424C32.3117 28.6288 32.9459 30.1336 33.1326 30.1336C33.3193 30.1336 33.3939 28.9936 34.028 29.3261C34.59 29.6187 35.5325 31.6105 38.385 29.9702C39.0828 29.5793 39.8858 29.4091 40.6852 29.4825C41.0343 29.5083 41.3854 29.4801 41.7256 29.3989C42.5215 29.2105 43.3606 29.3295 44.0701 29.7314C44.7332 30.1743 45.5086 30.4267 46.3094 30.4603C47.1102 30.4938 47.9046 30.3073 48.6036 29.9214C49.1804 29.5717 49.8464 29.3907 50.5239 29.3996C51.103 29.4158 51.679 29.3118 52.2144 29.0943C52.8286 28.8435 53.4944 28.7389 54.1575 28.7892C54.8206 28.8395 55.4621 29.0432 56.03 29.3837C57.1766 30.0576 58.8201 30.3432 60.9227 28.9904C61.3231 28.7339 61.7775 28.57 62.2516 28.5111C62.7257 28.4522 63.2073 28.4998 63.66 28.6503C65.1902 29.157 67.3165 29.4737 67.1234 27.2716C66.8247 23.8579 62.7207 22.8667 61.0038 22.83C58.4202 22.6426 55.8261 22.6426 53.2425 22.83C50.0334 23.1606 43.5037 23.1239 43.5037 23.1239C43.5037 23.1239 32.5409 22.6938 30.9688 23.4405Z" fill="#F8F8FA"/>
<path d="M74.1566 43.166H22.0488V63.3003H74.1566V43.166Z" fill="#C99398"/>
<path opacity="0.1" d="M66.0416 39.7305V43.165H45.7289C45.6941 43.1606 45.6593 43.1574 45.6246 43.1549C45.453 43.1423 45.2805 43.1457 45.1096 43.165H29.5137V40.1022C31.2033 40.358 32.9074 40.5103 34.6161 40.5582C36.8584 40.5481 39.0736 40.0902 41.3203 40.2137C49.1743 40.6431 57.1731 40.771 64.9968 39.8559C65.3444 39.8153 65.6933 39.7723 66.0416 39.7305Z" fill="black"/>
<path opacity="0.1" d="M74.1579 43.166V44.9817C73.5911 44.877 73.0356 44.7199 72.4989 44.5124C72.0144 44.3195 71.4838 44.2672 70.9699 44.3617C70.706 44.4307 70.4652 44.5675 70.2045 44.6467C69.1139 44.9817 67.9771 44.2844 66.8338 44.28C65.7007 44.2756 64.6881 44.9475 63.5821 45.192C61.8729 45.572 60.1257 44.907 58.4879 44.292C58.1766 44.1254 57.8326 44.0262 57.4791 44.0011C57.1256 43.976 56.7707 44.0255 56.4382 44.1464C56.1659 44.2952 55.9612 44.5397 55.6959 44.7005C54.9202 45.1717 53.905 44.8038 53.1312 44.3281C52.6419 44.0273 52.0496 43.6739 51.534 43.9272C51.2902 44.0935 51.0704 44.2914 50.8805 44.5156C50.1821 45.1312 49.0825 44.9659 48.2263 44.5916C47.3701 44.2173 46.5583 43.6644 45.6248 43.596C44.3083 43.4978 43.1554 44.3712 42.0069 45.0109C40.8584 45.6505 39.2657 46.0293 38.3284 45.1135C38.0181 44.8107 37.7889 44.3725 37.3627 44.268C36.661 44.0963 36.1338 44.9507 35.4263 45.1008C34.554 45.2857 33.8446 44.3731 32.9703 44.1932C32.0658 44.007 31.2238 44.6258 30.4262 45.0799C29.6285 45.534 28.4685 45.7943 27.8897 45.0862C27.705 44.8601 27.6045 44.5567 27.3515 44.4066C27.1586 44.3137 26.9418 44.2795 26.729 44.3085C25.9717 44.3496 25.2281 44.5245 24.5338 44.8246C23.7368 45.1704 22.9656 45.6892 22.0958 45.6727C22.0804 45.6727 22.0643 45.6727 22.0488 45.6727V43.1641L74.1579 43.166Z" fill="black"/>
<path d="M34.6134 40.7787C30.6162 40.7952 26.4878 39.322 22.7198 40.6324C21.3524 41.108 19.9658 42.2341 20.11 43.6534C20.1739 44.1349 20.4077 44.579 20.7706 44.9082C21.1335 45.2374 21.6023 45.4308 22.0953 45.4546C22.9657 45.4711 23.7369 44.9518 24.5333 44.6066C25.2277 44.3057 25.9715 44.1304 26.7292 44.0892C26.942 44.0608 27.1587 44.0952 27.3517 44.188C27.604 44.3368 27.7051 44.6414 27.8899 44.8675C28.4693 45.5756 29.6281 45.3178 30.4263 44.8606C31.2246 44.4033 32.0666 43.7839 32.9711 43.9701C33.8447 44.15 34.5548 45.0632 35.4271 44.8776C36.1353 44.7275 36.6612 43.8738 37.3636 44.0455C37.7884 44.1493 38.0176 44.5876 38.3292 44.8909C39.2652 45.8067 40.8586 45.428 42.007 44.7877C43.1555 44.1474 44.3085 43.2747 45.625 43.3722C46.5591 43.4413 47.3709 43.9942 48.2271 44.3685C49.0833 44.7428 50.1829 44.9074 50.8807 44.2925C51.0712 44.0684 51.2911 43.8703 51.5348 43.7034C52.0498 43.4501 52.6433 43.8048 53.132 44.105C53.9045 44.5806 54.921 44.9486 55.6974 44.4768C55.962 44.3159 56.1673 44.0714 56.439 43.9232C56.7714 43.8022 57.1264 43.7526 57.4799 43.7778C57.8335 43.8029 58.1774 43.9022 58.4888 44.0689C60.1259 44.6832 61.8743 45.3463 63.5835 44.9682C64.6889 44.7238 65.7028 44.0524 66.8352 44.0569C67.9772 44.0613 69.1154 44.758 70.2059 44.4236C70.4635 44.3438 70.7074 44.2076 70.9707 44.1386C71.4847 44.0435 72.0157 44.0958 72.5003 44.2893C73.1356 44.554 73.8089 44.7196 74.496 44.7801C74.841 44.8025 75.1841 44.7146 75.4742 44.5295C75.7642 44.3444 75.9857 44.0719 76.1054 43.7528C76.1427 43.4953 76.124 43.2328 76.0504 42.9829C75.9768 42.733 75.8501 42.5013 75.6786 42.3031C75.0751 41.5669 74.3231 40.9616 73.4699 40.5256C72.6167 40.0896 71.6809 39.8322 70.7216 39.7698C68.8062 39.6556 66.8838 39.758 64.9921 40.0751C57.1684 40.9896 49.1702 40.8623 41.3163 40.4329C39.0721 40.3113 36.8563 40.768 34.6134 40.7787Z" fill="#F8F8FA"/>
<path d="M76.1393 61.4824H18.5234V84.829H76.1393V61.4824Z" fill="#C99398"/>
<path opacity="0.1" d="M76.3943 60.8429C73.5124 61.4546 70.5932 61.8814 67.6551 62.1204C66.6689 61.9512 65.6554 62.0271 64.7067 62.3414C64.6887 62.3471 64.6706 62.3522 64.6532 62.3591C62.8378 62.9925 61.2748 64.4903 59.3493 64.4656C57.8126 64.446 56.4839 63.4472 55.0071 63.0286C54.585 62.909 54.15 62.8392 53.7112 62.8208C53.4129 62.8057 53.1139 62.8137 52.817 62.8449C51.0318 62.8911 49.246 62.9082 47.4608 62.8734C44.8413 62.8215 42.2276 62.6511 39.6139 62.4814L31.2321 61.9361L23.346 61.4237L21.4095 61.2971C20.7143 61.2521 20.1979 61.3996 19.9173 60.7904C19.7925 60.439 19.761 60.0621 19.8257 59.6954C19.8904 59.3286 20.0491 58.9842 20.2868 58.6947C20.6383 58.701 20.9911 58.7257 21.3413 58.7498C26.6631 59.1188 31.9849 59.5005 37.3067 59.8948L36.4885 60.0367C42.0468 59.1756 47.6753 58.8331 53.2991 59.0139C55.9197 59.2055 58.5518 59.1901 61.1698 58.9676C63.0014 58.7365 64.7955 58.2476 66.636 58.0943C69.1744 57.991 71.7157 58.2085 74.1977 58.7415C74.724 58.8232 75.2455 58.9321 75.7602 59.0677C75.8553 59.6937 76.0704 60.2961 76.3943 60.8429Z" fill="black"/>
<path opacity="0.1" d="M76.1386 61.4824V63.6776C75.4201 63.5731 74.7159 63.4692 74.2794 63.9715C74.0747 64.2083 73.9949 64.53 73.7959 64.772C73.5604 64.9962 73.2568 65.1386 72.9313 65.1773C72.6059 65.2161 72.2765 65.1491 71.9934 64.9867C71.4368 64.6503 70.9212 64.2523 70.4567 63.8004C69.6533 63.1654 68.6996 62.7405 67.6845 62.5655C66.6693 62.3904 65.6257 62.4708 64.6506 62.7991C62.8352 63.4325 61.2721 64.9303 59.3466 64.9056C57.8099 64.886 56.4812 63.8872 55.0044 63.4686C54.1689 63.2379 53.2918 63.1923 52.4363 63.3354C51.5807 63.4784 50.7681 63.8064 50.057 64.2957C49.0116 65.0259 48.024 66.159 46.7513 66.0146C46.0953 65.8645 45.482 65.571 44.9571 65.1558C43.8172 64.4427 42.5364 63.9758 41.1994 63.7859C40.6189 63.6689 40.0166 63.7147 39.4613 63.9182C38.784 64.2191 38.3463 64.8828 37.7173 65.273C36.2566 66.1774 34.3627 65.361 32.8569 64.5319C31.3511 63.7029 29.4861 62.8536 27.9945 63.7086C27.6655 63.9429 27.3235 64.1592 26.9703 64.3565C24.8716 65.2628 22.8109 61.7706 20.6568 62.5426C20.1708 62.7168 19.7839 63.0924 19.3049 63.2862C19.0568 63.3852 18.7877 63.4222 18.5215 63.3938V61.4856L76.1386 61.4824Z" fill="black"/>
<path d="M37.3103 60.1137C31.9885 59.7197 26.6667 59.3382 21.3449 58.9692C20.4237 58.8512 19.4886 58.8967 18.5837 59.1035C18.1324 59.2123 17.7182 59.4366 17.3832 59.7534C17.0481 60.0702 16.8041 60.4684 16.6756 60.9078C16.6366 61.2403 16.6824 61.577 16.809 61.8876C16.9356 62.1982 17.139 62.4729 17.4007 62.6867C17.6623 62.9005 17.9741 63.0467 18.3077 63.1121C18.6413 63.1775 18.9862 63.16 19.3112 63.0612C19.7895 62.8674 20.1764 62.4912 20.6631 62.3176C22.8165 61.5469 24.8779 65.041 26.9759 64.1315C27.3293 63.9349 27.6712 63.7191 28.0001 63.4849C29.493 62.6324 31.3567 63.4849 32.8625 64.3082C34.3683 65.1315 36.2622 65.9549 37.7236 65.0486C38.3525 64.6591 38.7896 63.9953 39.4675 63.6951C40.0227 63.491 40.6252 63.4451 41.2057 63.5628C42.543 63.7521 43.8241 64.2191 44.964 64.9327C45.4891 65.3475 46.1023 65.6408 46.7582 65.7909C48.0309 65.9359 49.0184 64.8016 50.0633 64.072C50.7746 63.5828 51.5873 63.2549 52.4429 63.1119C53.2985 62.9689 54.1757 63.0143 55.0113 63.2448C56.4874 63.6635 57.8168 64.6629 59.3529 64.6825C61.2784 64.7072 62.8414 63.2081 64.6562 62.5754C65.6314 62.2474 66.6751 62.1673 67.6903 62.3423C68.7055 62.5174 69.6592 62.942 70.463 63.5767C70.9273 64.0286 71.4429 64.4264 71.9996 64.7623C72.2828 64.9249 72.6122 64.9919 72.9376 64.9531C73.2631 64.9143 73.5667 64.7719 73.8022 64.5476C74.0011 64.3057 74.0803 63.9833 74.2857 63.7471C75.1258 62.7806 76.956 64.058 77.9751 63.2746C78.2111 63.0803 78.3752 62.8147 78.4418 62.519C78.5238 62.0075 78.4475 61.4834 78.2228 61.0151C77.9981 60.5467 77.6355 60.1556 77.182 59.8926C76.265 59.3836 75.2516 59.065 74.2045 58.9565C71.7228 58.423 69.1817 58.205 66.6435 58.308C64.8036 58.4613 63.0088 58.9509 61.1773 59.182C58.5594 59.4042 55.9276 59.4197 53.3072 59.2283C47.6832 59.0473 42.0545 59.3896 36.4959 60.2505" fill="#F8F8FA"/>
<path opacity="0.1" d="M76.1393 78.4726V83.9572C73.9341 84.0683 71.7286 84.1787 69.5226 84.2884C65.9607 84.467 62.3955 84.645 58.8303 84.5766C55.8169 84.5184 52.8105 84.2846 49.7983 84.1922C43.4649 83.9984 37.1161 84.4335 30.7975 83.9344C28.7761 83.7748 26.7611 83.5202 24.7358 83.4068C22.6655 83.2941 20.5896 83.3236 18.5234 83.4949V78.3269C18.7136 78.3115 18.9044 78.307 19.0951 78.3136C20.0942 78.3459 21.076 78.5794 21.9798 78.9995C22.6503 79.3956 23.372 79.7009 24.1255 79.907C26.1289 80.2471 27.8696 78.387 29.8982 78.2363C31.5314 78.1172 32.9992 79.1141 34.4 79.9463C34.6528 80.1342 34.9634 80.2314 35.2801 80.2218C35.5351 80.1563 35.7701 80.0309 35.965 79.8564C36.9865 79.1538 38.2191 78.8108 39.4633 78.883C40.7076 78.9551 41.8907 79.4383 42.8211 80.2541C42.9979 80.4549 43.2221 80.61 43.4739 80.7057C43.9889 80.84 44.4492 80.4017 44.8561 80.0647C47.0636 78.2338 50.4652 78.7841 52.9984 80.1496C53.4313 80.4655 53.9686 80.6108 54.5048 80.5568C54.8407 80.4309 55.1451 80.2352 55.3971 79.983C57.5544 78.242 60.7983 78.5657 63.3225 79.7361C63.5548 79.873 63.821 79.9442 64.0918 79.9419C64.4045 79.8615 64.6872 79.6945 64.9062 79.4606C65.5108 78.9777 66.2412 78.6717 67.0141 78.5774C67.7869 78.4831 68.5712 78.6043 69.2774 78.9273C69.6593 79.1462 70.0574 79.3368 70.4683 79.4973C71.6741 79.8595 72.8985 79.123 74.1017 78.7493C74.7607 78.5468 75.4492 78.4533 76.1393 78.4726Z" fill="black"/>
<path d="M82.2116 83.8744C77.9825 84.0855 73.7532 84.2966 69.5236 84.5078C65.9617 84.6864 62.3965 84.8643 58.8313 84.7966C55.8178 84.7383 52.8114 84.5046 49.7992 84.4121C43.4659 84.2183 37.1171 84.6534 30.7985 84.1543C28.7771 83.9947 26.7621 83.7402 24.7368 83.6268C22.4581 83.5039 20.1733 83.5513 17.9019 83.7687C17.3438 83.8994 16.7716 83.9632 16.1979 83.9587C15.6906 83.8573 15.8843 83.7997 16.0504 83.3253C16.1 83.1849 16.1419 83.042 16.176 82.8972C16.2913 82.3156 16.3653 81.7269 16.3974 81.1352C16.3854 80.7434 16.4529 80.3531 16.596 79.9872C16.739 79.6213 16.9547 79.2871 17.2305 79.0041C17.7748 78.6308 18.4375 78.4627 19.0974 78.5304C20.0965 78.5626 21.0783 78.796 21.9821 79.2162C22.6525 79.6124 23.3743 79.9177 24.1278 80.1238C26.1318 80.4639 27.8719 78.6038 29.9004 78.4531C31.5337 78.334 33.0008 79.3309 34.4023 80.1631C34.6551 80.351 34.9656 80.4483 35.2823 80.4386C35.5374 80.3732 35.7725 80.2478 35.9673 80.0731C36.9888 79.3705 38.2214 79.0275 39.4656 79.0997C40.7098 79.1719 41.8929 79.655 42.8234 80.4709C43.0002 80.6716 43.2243 80.8267 43.4762 80.9224C43.9912 81.0567 44.4515 80.6184 44.8583 80.2815C47.0658 78.4499 50.4675 79.0009 53.0007 80.3664C53.4336 80.6823 53.9709 80.8276 54.5071 80.7736C54.843 80.6477 55.1474 80.452 55.3994 80.1998C57.5566 78.4588 60.8006 78.7824 63.3248 79.9534C63.5571 80.0903 63.8233 80.1616 64.0941 80.1593C64.4074 80.0781 64.6903 79.9099 64.9091 79.6748C65.5138 79.192 66.2442 78.8861 67.0171 78.7919C67.7899 78.6978 68.5741 78.8191 69.2803 79.1421C69.6623 79.3611 70.0604 79.5516 70.4713 79.7121C71.677 80.0744 72.9015 79.3379 74.1047 78.9642C75.6768 78.4758 77.381 78.6141 78.8505 79.3492C80.3201 80.0844 81.4375 81.3578 81.9625 82.8953C82.0738 83.2141 82.1572 83.5416 82.2116 83.8744Z" fill="#F8F8FA"/>
<path opacity="0.1" d="M82.2116 83.8747C77.9825 84.0858 73.7532 84.2969 69.5236 84.508C65.9617 84.6866 62.3965 84.8646 58.8313 84.7968C55.8178 84.7386 52.8114 84.5049 49.7992 84.4124C43.4659 84.2186 37.1171 84.6537 30.7985 84.1547C28.7771 83.9951 26.7621 83.7405 24.7368 83.6271C22.4581 83.5042 20.1733 83.5516 17.9019 83.769C17.3438 83.8998 16.7716 83.9636 16.1979 83.9589C15.6906 83.8576 15.8843 83.8006 16.0504 83.3256C16.1 83.1852 16.1419 83.0423 16.176 82.8975H81.9625C82.0736 83.214 82.1572 83.5392 82.2122 83.8696L82.2116 83.8747Z" fill="black"/>
<path d="M14.5418 83.0117H82.9523C83.5439 83.0117 84.1113 83.2429 84.5296 83.6545C84.948 84.066 85.183 84.6242 85.183 85.2062V85.4894H12.3086V85.2062C12.3086 84.9178 12.3664 84.6323 12.4786 84.3659C12.5909 84.0995 12.7554 83.8574 12.9629 83.6536C13.1703 83.4498 13.4165 83.2882 13.6874 83.1781C13.9583 83.0679 14.2487 83.0114 14.5418 83.0117Z" fill="#D4D5E0"/>
<path d="M31.4925 25.5431C31.5251 25.4362 31.4635 25.3236 31.3549 25.2915C31.2463 25.2594 31.1318 25.32 31.0991 25.4269L30.8912 26.1081C30.8586 26.215 30.9202 26.3276 31.0289 26.3597C31.1375 26.3918 31.252 26.3312 31.2846 26.2243L31.4925 25.5431Z" fill="#E53935"/>
<path d="M25.5257 41.7081C25.5583 41.6013 25.4967 41.4886 25.3881 41.4565C25.2795 41.4244 25.165 41.4851 25.1323 41.5919L24.9244 42.2731C24.8918 42.38 24.9534 42.4926 25.0621 42.5247C25.1707 42.5568 25.2852 42.4962 25.3178 42.3893L25.5257 41.7081Z" fill="#E53935"/>
<path d="M19.1351 60.4269C19.1677 60.32 19.1061 60.2074 18.9975 60.1753C18.8888 60.1432 18.7743 60.2038 18.7417 60.3107L18.5338 60.9919C18.5012 61.0987 18.5628 61.2114 18.6714 61.2435C18.7801 61.2756 18.8946 61.2149 18.9272 61.1081L19.1351 60.4269Z" fill="#E53935"/>
<path d="M35.1139 61.6701C35.1465 61.5632 35.0849 61.4505 34.9762 61.4185C34.8676 61.3864 34.7531 61.447 34.7205 61.5539L34.5126 62.235C34.48 62.3419 34.5416 62.4546 34.6502 62.4866C34.7588 62.5187 34.8733 62.4581 34.906 62.3512L35.1139 61.6701Z" fill="#E53935"/>
<path d="M44.6019 60.9699C44.6345 60.863 44.5729 60.7503 44.4643 60.7183C44.3556 60.6862 44.2411 60.7468 44.2085 60.8537L44.0006 61.5348C43.968 61.6417 44.0296 61.7544 44.1382 61.7864C44.2469 61.8185 44.3614 61.7579 44.394 61.651L44.6019 60.9699Z" fill="#E53935"/>
<path d="M57.9769 62.3898C58.0095 62.2829 57.9479 62.1703 57.8393 62.1382C57.7306 62.1061 57.6161 62.1667 57.5835 62.2736L57.3756 62.9548C57.343 63.0616 57.4046 63.1743 57.5132 63.2064C57.6219 63.2385 57.7364 63.1778 57.769 63.071L57.9769 62.3898Z" fill="#E53935"/>
<path d="M67.1253 60.3146C67.1579 60.2077 67.0963 60.0951 66.9877 60.063C66.8791 60.0309 66.7646 60.0915 66.732 60.1984L66.5241 60.8796C66.4914 60.9864 66.5531 61.0991 66.6617 61.1312C66.7703 61.1633 66.8848 61.1026 66.9174 60.9958L67.1253 60.3146Z" fill="#E53935"/>
<path d="M26.9496 61.2003C26.9822 61.0935 26.9205 60.9808 26.8119 60.9487C26.7033 60.9166 26.5888 60.9773 26.5562 61.0841L26.3483 61.7653C26.3157 61.8722 26.3773 61.9848 26.4859 62.0169C26.5945 62.049 26.709 61.9884 26.7416 61.8815L26.9496 61.2003Z" fill="#E53935"/>
<path d="M46.3421 63.0861C46.3747 62.9792 46.3131 62.8666 46.2045 62.8345C46.0959 62.8024 45.9814 62.863 45.9488 62.9699L45.7409 63.6511C45.7082 63.7579 45.7699 63.8706 45.8785 63.9027C45.9871 63.9347 46.1016 63.8741 46.1342 63.7673L46.3421 63.0861Z" fill="#E53935"/>
<path d="M54.346 60.9699C54.3787 60.863 54.317 60.7503 54.2084 60.7183C54.0998 60.6862 53.9853 60.7468 53.9527 60.8537L53.7448 61.5348C53.7121 61.6417 53.7738 61.7544 53.8824 61.7864C53.991 61.8185 54.1055 61.7579 54.1381 61.651L54.346 60.9699Z" fill="#E53935"/>
<path d="M71.2464 60.3146C71.279 60.2077 71.2174 60.0951 71.1088 60.063C71.0002 60.0309 70.8857 60.0915 70.8531 60.1984L70.6451 60.8796C70.6125 60.9864 70.6741 61.0991 70.7828 61.1312C70.8914 61.1633 71.0059 61.1026 71.0385 60.9958L71.2464 60.3146Z" fill="#E53935"/>
<path d="M52.0005 25.2295C51.9091 25.1634 51.7805 25.1828 51.7134 25.2727C51.6462 25.3626 51.6659 25.4891 51.7573 25.5552L52.34 25.9762C52.4314 26.0423 52.56 26.0229 52.6271 25.933C52.6943 25.843 52.6746 25.7166 52.5832 25.6505L52.0005 25.2295Z" fill="#E53935"/>
<path d="M47.018 24.8633C46.9266 24.7972 46.7981 24.8166 46.7309 24.9065C46.6638 24.9964 46.6835 25.1229 46.7749 25.1889L47.3576 25.61C47.449 25.676 47.5775 25.6567 47.6447 25.5668C47.7118 25.4768 47.6922 25.3504 47.6007 25.2843L47.018 24.8633Z" fill="#E53935"/>
<path d="M38.9262 24.8633C38.8348 24.7972 38.7063 24.8166 38.6392 24.9065C38.572 24.9964 38.5917 25.1229 38.6831 25.1889L39.2658 25.61C39.3572 25.676 39.4857 25.6567 39.5529 25.5668C39.62 25.4768 39.6004 25.3504 39.5089 25.2843L38.9262 24.8633Z" fill="#E53935"/>
<path d="M28.147 41.0742C28.0555 41.0081 27.927 41.0275 27.8599 41.1174C27.7927 41.2074 27.8124 41.3338 27.9038 41.3999L28.4865 41.8209C28.5779 41.887 28.7065 41.8676 28.7736 41.7777C28.8407 41.6878 28.8211 41.5613 28.7296 41.4952L28.147 41.0742Z" fill="#E53935"/>
<path d="M28.7622 42.7119C28.6708 42.6458 28.5422 42.6652 28.4751 42.7551C28.4079 42.8451 28.4276 42.9715 28.519 43.0376L29.1017 43.4586C29.1931 43.5247 29.3217 43.5053 29.3888 43.4154C29.456 43.3255 29.4363 43.199 29.3449 43.1329L28.7622 42.7119Z" fill="#E53935"/>
<path d="M42.063 41.2041C41.9716 41.138 41.843 41.1574 41.7759 41.2473C41.7087 41.3373 41.7284 41.4637 41.8198 41.5298L42.4025 41.9508C42.4939 42.0169 42.6225 41.9975 42.6896 41.9076C42.7568 41.8176 42.7371 41.6912 42.6457 41.6251L42.063 41.2041Z" fill="#E53935"/>
<path d="M36.7876 62.5195C36.6962 62.4535 36.5676 62.4728 36.5005 62.5627C36.4333 62.6527 36.453 62.7791 36.5444 62.8452L37.1271 63.2662C37.2185 63.3323 37.3471 63.3129 37.4142 63.223C37.4814 63.1331 37.4617 63.0066 37.3703 62.9406L36.7876 62.5195Z" fill="#E53935"/>
<path d="M56.4692 42.0488C56.3778 41.9828 56.2493 42.0021 56.1821 42.092C56.115 42.182 56.1347 42.3084 56.2261 42.3745L56.8088 42.7955C56.9002 42.8616 57.0287 42.8422 57.0959 42.7523C57.163 42.6624 57.1433 42.5359 57.0519 42.4699L56.4692 42.0488Z" fill="#E53935"/>
<path d="M62.395 42.8222C62.3036 42.7562 62.175 42.7755 62.1079 42.8655C62.0408 42.9554 62.0604 43.0819 62.1518 43.1479L62.7345 43.569C62.826 43.635 62.9545 43.6157 63.0216 43.5257C63.0888 43.4358 63.0691 43.3094 62.9777 43.2433L62.395 42.8222Z" fill="#E53935"/>
<path d="M60.602 60.2236C60.5106 60.1576 60.3821 60.1769 60.3149 60.2668C60.2478 60.3568 60.2675 60.4832 60.3589 60.5493L60.9416 60.9703C61.033 61.0364 61.1615 61.017 61.2287 60.9271C61.2958 60.8372 61.2761 60.7107 61.1847 60.6447L60.602 60.2236Z" fill="#E53935"/>
<path d="M72.813 62.2939C72.7216 62.2279 72.593 62.2472 72.5259 62.3372C72.4587 62.4271 72.4784 62.5535 72.5698 62.6196L73.1525 63.0407C73.2439 63.1067 73.3725 63.0874 73.4396 62.9974C73.5068 62.9075 73.4871 62.781 73.3957 62.715L72.813 62.2939Z" fill="#E53935"/>
<path d="M31.397 61.1084C31.3055 61.0423 31.177 61.0617 31.1099 61.1516C31.0427 61.2415 31.0624 61.368 31.1538 61.4341L31.7365 61.8551C31.8279 61.9212 31.9565 61.9018 32.0236 61.8119C32.0907 61.7219 32.0711 61.5955 31.9796 61.5294L31.397 61.1084Z" fill="#E53935"/>
<path d="M22.5063 60.3359C22.4149 60.2699 22.2864 60.2892 22.2192 60.3792C22.1521 60.4691 22.1718 60.5955 22.2632 60.6616L22.8459 61.0826C22.9373 61.1487 23.0658 61.1293 23.133 61.0394C23.2001 60.9495 23.1804 60.823 23.089 60.757L22.5063 60.3359Z" fill="#E53935"/>
<path d="M40.1509 61.6885C40.0594 61.6224 39.9309 61.6418 39.8638 61.7317C39.7966 61.8216 39.8163 61.9481 39.9077 62.0141L40.4904 62.4352C40.5818 62.5012 40.7104 62.4819 40.7775 62.392C40.8446 62.302 40.825 62.1756 40.7336 62.1095L40.1509 61.6885Z" fill="#E53935"/>
<path d="M49.6704 61.1084C49.579 61.0423 49.4504 61.0617 49.3833 61.1516C49.3161 61.2415 49.3358 61.368 49.4272 61.4341L50.0099 61.8551C50.1014 61.9212 50.2299 61.9018 50.297 61.8119C50.3642 61.7219 50.3445 61.5955 50.2531 61.5294L49.6704 61.1084Z" fill="#E53935"/>
<path d="M62.2573 26.0588C62.3499 25.9943 62.3718 25.8682 62.3062 25.7772C62.2406 25.6861 62.1125 25.6646 62.0199 25.7291L61.43 26.1402C61.3374 26.2047 61.3156 26.3308 61.3811 26.4218C61.4467 26.5129 61.5748 26.5344 61.6674 26.4699L62.2573 26.0588Z" fill="#E53935"/>
<path d="M51.7573 27.5783C51.8499 27.5138 51.8718 27.3877 51.8062 27.2967C51.7406 27.2056 51.6125 27.1841 51.5199 27.2486L50.93 27.6597C50.8374 27.7242 50.8156 27.8503 50.8811 27.9413C50.9467 28.0324 51.0748 28.0539 51.1674 27.9894L51.7573 27.5783Z" fill="#E53935"/>
<path d="M34.3921 42.5373C34.4846 42.4728 34.5065 42.3467 34.441 42.2557C34.3754 42.1646 34.2472 42.1431 34.1547 42.2076L33.5648 42.6187C33.4722 42.6832 33.4503 42.8093 33.5159 42.9003C33.5814 42.9914 33.7096 43.0129 33.8022 42.9484L34.3921 42.5373Z" fill="#E53935"/>
<path d="M39.6421 43.0451C39.7346 42.9806 39.7565 42.8545 39.691 42.7635C39.6254 42.6724 39.4972 42.6509 39.4047 42.7154L38.8148 43.1265C38.7222 43.191 38.7003 43.3171 38.7659 43.4081C38.8314 43.4992 38.9596 43.5207 39.0522 43.4562L39.6421 43.0451Z" fill="#E53935"/>
<path d="M49.7925 43.0451C49.885 42.9806 49.9069 42.8545 49.8414 42.7635C49.7758 42.6724 49.6476 42.6509 49.5551 42.7154L48.9652 43.1265C48.8726 43.191 48.8507 43.3171 48.9163 43.4081C48.9818 43.4992 49.11 43.5207 49.2026 43.4562L49.7925 43.0451Z" fill="#E53935"/>
<path d="M52.9644 41.9865C53.0569 41.922 53.0788 41.7959 53.0132 41.7049C52.9477 41.6138 52.8195 41.5923 52.727 41.6568L52.137 42.0679C52.0445 42.1324 52.0226 42.2585 52.0882 42.3495C52.1537 42.4406 52.2819 42.4621 52.3744 42.3976L52.9644 41.9865Z" fill="#E53935"/>
<path d="M60.4741 42.382C60.5667 42.3175 60.5886 42.1915 60.523 42.1004C60.4574 42.0094 60.3293 41.9878 60.2367 42.0523L59.6468 42.4634C59.5542 42.5279 59.5324 42.654 59.5979 42.745C59.6635 42.8361 59.7916 42.8576 59.8842 42.7931L60.4741 42.382Z" fill="#E53935"/>
<path d="M65.9546 41.5383C66.0471 41.4738 66.069 41.3477 66.0035 41.2567C65.9379 41.1656 65.8097 41.1441 65.7172 41.2086L65.1273 41.6197C65.0347 41.6842 65.0128 41.8103 65.0784 41.9013C65.1439 41.9923 65.2721 42.0139 65.3647 41.9494L65.9546 41.5383Z" fill="#E53935"/>
<path d="M73.394 41.9865C73.4866 41.922 73.5085 41.7959 73.4429 41.7049C73.3774 41.6138 73.2492 41.5923 73.1566 41.6568L72.5667 42.0679C72.4742 42.1324 72.4523 42.2585 72.5178 42.3495C72.5834 42.4406 72.7116 42.4621 72.8041 42.3976L73.394 41.9865Z" fill="#E53935"/>
<path d="M50.4496 24.7238C50.4822 24.6169 50.4205 24.5043 50.3119 24.4722C50.2033 24.4401 50.0888 24.5007 50.0562 24.6076L49.8483 25.2888C49.8157 25.3956 49.8773 25.5083 49.9859 25.5403C50.0945 25.5724 50.209 25.5118 50.2416 25.405L50.4496 24.7238Z" fill="#E53935"/>
<path d="M56.6041 24.4542C56.6367 24.3474 56.5751 24.2347 56.4665 24.2026C56.3578 24.1705 56.2433 24.2312 56.2107 24.338L56.0028 25.0192C55.9702 25.1261 56.0318 25.2387 56.1404 25.2708C56.2491 25.3029 56.3636 25.2423 56.3962 25.1354L56.6041 24.4542Z" fill="#E53935"/>
<path d="M48.1566 26.9025C48.1892 26.7956 48.1276 26.683 48.019 26.6509C47.9103 26.6188 47.7958 26.6794 47.7632 26.7863L47.5553 27.4675C47.5227 27.5743 47.5843 27.687 47.6929 27.7191C47.8016 27.7511 47.9161 27.6905 47.9487 27.5837L48.1566 26.9025Z" fill="#E53935"/>
<path d="M36.1195 27.337C36.1521 27.2302 36.0905 27.1175 35.9818 27.0854C35.8732 27.0534 35.7587 27.114 35.7261 27.2208L35.5182 27.902C35.4856 28.0089 35.5472 28.1215 35.6558 28.1536C35.7645 28.1857 35.879 28.1251 35.9116 28.0182L36.1195 27.337Z" fill="#E53935"/>
<path d="M57.5492 26.3595C57.5818 26.2526 57.5202 26.14 57.4115 26.1079C57.3029 26.0758 57.1884 26.1364 57.1558 26.2433L56.9479 26.9245C56.9153 27.0314 56.9769 27.144 57.0855 27.1761C57.1941 27.2082 57.3086 27.1476 57.3413 27.0407L57.5492 26.3595Z" fill="#E53935"/>
<path d="M35.1139 24.7238C35.1465 24.6169 35.0849 24.5043 34.9762 24.4722C34.8676 24.4401 34.7531 24.5007 34.7205 24.6076L34.5126 25.2888C34.48 25.3956 34.5416 25.5083 34.6502 25.5403C34.7588 25.5724 34.8733 25.5118 34.906 25.405L35.1139 24.7238Z" fill="#E53935"/>
<path d="M41.4359 25.8165C41.4685 25.7097 41.4069 25.597 41.2982 25.5649C41.1896 25.5328 41.0751 25.5935 41.0425 25.7003L40.8346 26.3815C40.802 26.4884 40.8636 26.601 40.9722 26.6331C41.0809 26.6652 41.1954 26.6046 41.228 26.4977L41.4359 25.8165Z" fill="#E53935"/>
<path d="M37.5746 41.7081C37.6072 41.6013 37.5455 41.4886 37.4369 41.4565C37.3283 41.4244 37.2138 41.4851 37.1812 41.5919L36.9733 42.2731C36.9407 42.38 37.0023 42.4926 37.1109 42.5247C37.2195 42.5568 37.334 42.4962 37.3666 42.3893L37.5746 41.7081Z" fill="#E53935"/>
<path d="M47.0199 41.7081C47.0525 41.6013 46.9909 41.4886 46.8822 41.4565C46.7736 41.4244 46.6591 41.4851 46.6265 41.5919L46.4186 42.2731C46.386 42.38 46.4476 42.4926 46.5562 42.5247C46.6648 42.5568 46.7793 42.4962 46.812 42.3893L47.0199 41.7081Z" fill="#E53935"/>
<path d="M68.9515 42.1398C68.9841 42.0329 68.9225 41.9203 68.8139 41.8882C68.7052 41.8561 68.5907 41.9167 68.5581 42.0236L68.3502 42.7048C68.3176 42.8116 68.3792 42.9243 68.4879 42.9564C68.5965 42.9885 68.711 42.9278 68.7436 42.821L68.9515 42.1398Z" fill="#E53935"/>
<path d="M71.2464 42.1398C71.279 42.0329 71.2174 41.9203 71.1088 41.8882C71.0002 41.8561 70.8857 41.9167 70.8531 42.0236L70.6451 42.7048C70.6125 42.8116 70.6741 42.9243 70.7828 42.9564C70.8914 42.9885 71.0059 42.9278 71.0385 42.821L71.2464 42.1398Z" fill="#E53935"/>
<path d="M43.9613 27.337C43.9939 27.2302 43.9323 27.1175 43.8236 27.0854C43.715 27.0534 43.6005 27.114 43.5679 27.2208L43.36 27.902C43.3274 28.0089 43.389 28.1215 43.4976 28.1536C43.6062 28.1857 43.7207 28.1251 43.7534 28.0182L43.9613 27.337Z" fill="#E53935"/>
<path d="M40.8817 49.956L39.215 53.4431C39.1196 53.7198 38.9834 53.9812 38.8107 54.219C38.4769 54.9307 38.19 55.6629 37.9519 56.4109L36.1629 59.1235L36.0406 59.3084L35.3389 59.1184L34.8477 57.3103L34.8773 56.7859L34.8818 56.7225C35.297 56.2781 35.7492 55.8686 36.2337 55.4983C36.2337 55.4983 36.4268 55.5205 36.7951 54.6382C37.1633 53.756 37.4968 53.5654 37.4968 53.5654L37.6899 52.9263L39.7609 49.6824C39.7609 49.6824 41.4991 47.2333 41.9697 48.3201C42.4403 49.4069 40.8817 49.956 40.8817 49.956Z" fill="#FFD2C6"/>
<path d="M20.7164 53.6221C20.6268 53.8073 20.5619 54.0032 20.5232 54.2047C20.5123 54.256 20.5007 54.3099 20.4878 54.365C20.3726 54.9457 20.2947 55.6779 20.2548 56.1016C20.2348 56.3156 20.2252 56.4524 20.2252 56.4524C20.2252 56.4524 16.0407 56.1763 16.7636 55.486C16.9508 55.2947 17.0839 55.0587 17.1499 54.8013C17.1709 54.7283 17.1892 54.6538 17.2046 54.5778C17.2383 54.4055 17.2598 54.2311 17.269 54.0559C17.269 54.0116 17.2735 53.9679 17.2748 53.9235C17.2834 53.6385 17.2694 53.3533 17.2329 53.0704C17.2329 53.0704 18.5951 53.0622 19.6213 53.1781C20.3095 53.256 20.8483 53.3896 20.7164 53.6221Z" fill="#D38884"/>
<path d="M33.9534 74.7243C33.9483 74.7835 33.9291 74.8408 33.8973 74.8914C33.7042 75.1676 32.6175 80.8093 32.6175 80.8093C32.6352 81.3221 32.527 81.8316 32.3021 82.2945C32.0957 82.9989 31.9257 83.7131 31.7929 84.4345C31.7929 84.4345 31.706 88.2978 31.4787 88.9027C31.3694 89.5341 31.3942 90.1811 31.5515 90.8027C31.5823 91.3595 31.7756 91.8958 32.1083 92.3474C32.1238 92.3683 32.1379 92.3892 32.1502 92.4069C32.2203 92.5063 32.2667 92.5627 32.2667 92.5627C32.3265 92.678 32.4102 92.7796 32.5126 92.861C32.528 92.8737 32.5448 92.8857 32.5615 92.8984C32.8599 93.0951 33.1938 93.2338 33.5452 93.3069L33.5787 93.3138C33.719 93.3442 33.8104 93.3569 33.8104 93.3569L33.8973 93.8237L32.9684 94.0137L31.1974 94.134C31.1974 94.134 29.1097 94.2904 29.5835 93.374C29.6162 93.3126 29.6448 93.2491 29.6691 93.184C29.6858 93.1397 29.7025 93.0941 29.7167 93.0472C29.8844 92.4114 29.916 91.7482 29.8094 91.0997L29.4052 87.9774C28.7401 85.0786 29.9298 81.8511 29.9298 81.8511C29.8728 81.5412 29.9165 81.2214 30.0547 80.9373C30.176 80.2457 30.176 79.5388 30.0547 78.8473C30.0547 78.8473 29.9324 77.0005 29.774 76.0866C29.7113 75.7024 29.6897 75.3129 29.7096 74.9244C29.7176 74.6964 29.7391 74.469 29.774 74.2435L33.7731 73.7217C33.8906 74.0434 33.9516 74.3824 33.9534 74.7243Z" fill="#FFD2C6"/>
<path opacity="0.1" d="M33.8995 93.8202L32.9705 94.0102L31.1995 94.1305C31.1995 94.1305 29.1118 94.2863 29.5856 93.3705C29.6184 93.308 29.647 93.2435 29.6712 93.1773C29.688 93.133 29.7047 93.0874 29.7188 93.0405C30.0808 93.0517 30.4384 93.1226 30.7765 93.2502C30.9672 93.3009 31.169 93.2934 31.3552 93.2285C31.5413 93.1637 31.7031 93.0447 31.8188 92.8873L32.1079 92.3451L32.1497 92.2666C32.2199 92.366 32.2662 92.4224 32.2662 92.4224C32.3356 92.556 32.4367 92.6712 32.5611 92.7581L32.5121 92.8588L32.2315 93.4401C32.2315 93.4401 32.5907 93.4763 33.0819 93.5535C33.1767 93.5788 33.2778 93.5671 33.364 93.5208C33.4502 93.4746 33.515 93.3973 33.5447 93.3052L33.5782 93.3122C33.7186 93.3426 33.81 93.3546 33.81 93.3546L33.8995 93.8202Z" fill="black"/>
<path d="M34.7597 94.2547C34.6895 94.565 32.7337 94.6607 32.7337 94.6607C32.7337 94.6607 31.6464 94.5568 31.3406 94.8069C31.0348 95.0571 30.138 94.997 30.1033 94.997C30.0685 94.997 29.5954 94.9792 29.41 94.1438C29.2303 93.3294 29.6513 93.1875 29.6726 93.1805C30.0511 93.1854 30.4256 93.2569 30.7786 93.3914C30.9693 93.4422 31.1712 93.4347 31.3575 93.3699C31.5438 93.3051 31.7056 93.186 31.8215 93.0285L32.1524 92.4072C32.2226 92.5067 32.2689 92.563 32.2689 92.563C32.3383 92.6967 32.4394 92.8118 32.5638 92.8987L32.2341 93.5808C32.2341 93.5808 32.5934 93.6169 33.0846 93.6942C33.1433 93.7073 33.2042 93.7075 33.263 93.6947C33.3218 93.6818 33.377 93.6563 33.4245 93.6199C33.472 93.5836 33.5108 93.5373 33.538 93.4844C33.5651 93.4315 33.58 93.3734 33.5816 93.3142C33.5842 93.2967 33.5857 93.2792 33.5861 93.2616C33.5861 93.2616 33.8919 93.3484 34.2698 93.4516C34.4383 93.5016 34.5818 93.6116 34.6723 93.7601C34.7629 93.9085 34.794 94.0849 34.7597 94.2547Z" fill="#626696"/>
<path d="M38.4413 78.8363C38.395 79.1124 38.3473 79.8262 38.3473 79.8262C38.3859 80.5086 38.2987 81.1922 38.0898 81.844L37.8793 82.6559C37.8203 83.8619 37.626 85.0577 37.2999 86.2216C37.2999 86.2216 36.8493 88.5681 36.615 89.5814C36.476 90.1443 36.5187 90.7358 36.7373 91.2737C36.7489 91.3016 36.7553 91.3149 36.7553 91.3149C36.7598 91.3345 36.7637 91.3522 36.7695 91.3712C36.7763 91.3989 36.7847 91.4261 36.7946 91.4529C36.8465 91.594 36.9244 91.7246 37.0244 91.838C37.0637 91.8836 37.1068 91.926 37.1531 91.9647C37.1531 91.9647 37.157 91.9704 37.1602 91.9716C37.3799 92.1636 37.632 92.3165 37.9051 92.4232C37.9459 92.4397 37.9851 92.4548 38.0229 92.4688C38.1445 92.5141 38.2688 92.5524 38.395 92.5834C38.4214 92.5904 38.4368 92.5929 38.4368 92.5929L38.3428 93.1357L37.1036 92.8234L35.444 92.2934L34.627 91.8335C34.627 91.8335 34.6354 91.7892 34.6521 91.7069C34.6521 91.7031 34.6521 91.6974 34.6521 91.693C34.6592 91.6569 34.6663 91.6144 34.6759 91.5663C34.9423 90.1922 35.0385 88.7914 34.9624 87.3945C34.7648 85.5781 35.5334 83.0695 35.7214 82.4716C35.8326 82.1298 35.8802 81.7711 35.8618 81.4127C35.5573 80.9751 35.4871 79.2277 35.4871 79.2277C35.4871 79.2277 34.9257 78.0997 34.4616 76.9027C34.3083 76.5121 34.1963 76.1069 34.1274 75.6937C34.0743 75.4012 34.0527 75.104 34.0631 74.807C34.0631 74.807 37.8291 71.425 38.243 74.6993C38.2572 74.8095 38.2701 74.916 38.2823 75.0198C38.6519 78.0187 38.4858 78.5697 38.4413 78.8363Z" fill="#FFD2C6"/>
<path opacity="0.1" d="M38.442 92.5945L38.348 93.1366L37.1087 92.825L35.4491 92.295L34.6328 91.8351C34.6328 91.8351 34.6412 91.7908 34.6579 91.7085C34.6579 91.704 34.6579 91.699 34.6579 91.6946C34.665 91.6585 34.6721 91.616 34.6818 91.5679L34.7983 91.5571H34.8079C35.0436 91.5351 35.2813 91.5667 35.5025 91.6496C35.7736 91.749 36.127 91.8637 36.1998 91.8149C36.3249 91.7619 36.4609 91.7383 36.597 91.7459L36.7695 91.3747L36.7946 91.3184C36.8467 91.4594 36.9246 91.5899 37.0244 91.7034C37.0652 91.7513 37.1098 91.796 37.1577 91.837L37.1506 91.9682L37.141 92.1544C37.3264 92.2704 37.5269 92.3614 37.7371 92.4248C37.7914 92.4379 37.8482 92.4379 37.9025 92.4248C37.9433 92.4413 37.9826 92.4564 38.0203 92.4704C38.1418 92.5157 38.2658 92.554 38.3918 92.585C38.4266 92.5914 38.442 92.5945 38.442 92.5945Z" fill="black"/>
<path d="M37.8259 93.7512C37.4809 93.653 36.6459 93.4978 36.5114 93.6188C36.0829 93.68 35.6478 93.68 35.2193 93.6188C35.0982 93.6167 34.9796 93.5839 34.8751 93.5234C34.7707 93.4629 34.6839 93.3769 34.6232 93.2737C34.4897 92.764 34.4738 92.2315 34.5768 91.715L34.6624 91.7068L34.8054 91.6928H34.815C35.0507 91.6709 35.2884 91.7025 35.5097 91.7853C35.7807 91.8847 36.1341 91.9994 36.2069 91.9513C36.332 91.8983 36.468 91.8746 36.6041 91.8822L36.8024 91.4541C36.8543 91.5952 36.9322 91.7257 37.0322 91.8391C37.073 91.8873 37.1175 91.9322 37.1654 91.9734L37.1487 92.2901C37.3341 92.4062 37.5346 92.4972 37.7448 92.5605C37.7959 92.5797 37.852 92.5813 37.9041 92.5649C37.9561 92.5486 38.001 92.5153 38.0313 92.4706C38.0402 92.4558 38.0474 92.4401 38.0526 92.4237C38.2083 92.4974 38.3729 92.5512 38.5425 92.584C38.7577 92.5643 38.9729 92.622 39.1483 92.7463C39.3236 92.8707 39.4474 93.0533 39.4965 93.2604C39.671 93.7917 38.1678 93.8481 37.8259 93.7512Z" fill="#626696"/>
<path opacity="0.1" d="M33.9554 74.7241C33.8781 74.7463 33.8079 74.7666 33.7423 74.7875C33.574 74.8376 33.4017 74.8736 33.2273 74.8951C32.0597 74.9972 30.8857 75.0055 29.7168 74.9198C29.7249 74.6921 29.7464 74.465 29.7812 74.2397L33.7803 73.7178C33.8965 74.041 33.9557 74.3813 33.9554 74.7241Z" fill="black"/>
<path d="M37.4434 73.7688C37.4434 73.7688 35.9756 73.9924 34.7815 74.2495C34.383 74.335 34.0141 74.4249 33.7418 74.5117C33.5735 74.5619 33.4012 74.5979 33.2268 74.6193C31.998 74.7203 30.763 74.725 29.5335 74.6333C28.8852 72.5629 30.3221 69.9567 30.3221 69.9567C30.372 69.6604 30.473 69.3747 30.6208 69.1119L30.6266 69.091L30.8313 68.3525H36.2853L36.3497 68.6692L36.4887 69.3152L37.3443 73.3153L37.4434 73.7688Z" fill="#626696"/>
<path opacity="0.1" d="M38.2876 75.023L38.2554 75.037L37.6168 75.3156C36.926 75.6291 34.8582 75.6887 34.1353 75.6956C34.0821 75.4031 34.0605 75.1059 34.0709 74.809C34.0709 74.809 37.8369 71.427 38.2509 74.7013C38.2625 74.8134 38.2747 74.9198 38.2876 75.023Z" fill="black"/>
<path d="M38.3891 74.7026L38.2559 74.7609L37.6173 75.0396C36.9143 75.3562 34.7802 75.4152 34.0965 75.4196C34.0135 75.4196 33.9523 75.4196 33.9169 75.4196C33.7888 75.4093 33.6648 75.3696 33.5551 75.3036C33.4454 75.2376 33.353 75.1471 33.2854 75.0396C33.2854 74.9984 33.2532 74.7938 33.2249 74.6184C33.201 74.4778 33.1798 74.3562 33.1798 74.3562C32.4463 74.0463 31.7363 73.685 31.0554 73.2751C30.5191 72.916 30.6536 70.3669 30.7579 69.0844C30.7946 68.641 30.8268 68.3516 30.8268 68.3516L36.3484 68.6682L37.1209 68.7126L37.5645 68.8095L37.6823 68.8342C37.7817 69.6664 37.9402 70.4907 38.1568 71.301C38.3138 71.491 38.2102 72.1294 38.1915 72.4923C38.1906 72.6486 38.1732 72.8044 38.1394 72.9572C38.2569 73.2767 38.3158 73.6142 38.3132 73.954C38.2898 74.206 38.3156 74.4601 38.3891 74.7026Z" fill="#626696"/>
<path d="M13.4666 73.2224C12.0393 73.1755 13.0919 70.2546 13.2561 69.8594C13.4202 69.4642 13.0121 68.5053 13.0121 68.5053C13.0121 68.5053 12.5305 65.7186 12.5305 65.5375C12.5058 65.1579 12.4514 64.7808 12.3677 64.4095C12.3144 64.0312 12.3796 63.646 12.5544 63.305C12.6701 62.8929 12.7175 62.4652 12.6947 62.0383V60.7267L13.0121 60.3125L13.8258 61.0687L14.0518 61.2783L14.449 62.7445L14.3086 64.844L14.2385 66.8909L14.7296 69.7207C14.7296 69.7207 14.8938 73.268 13.4666 73.2224Z" fill="#D38884"/>
<path opacity="0.1" d="M13.912 61.4209L12.6953 60.925V60.7306L13.0127 60.3164L13.8264 61.0732L13.912 61.4209Z" fill="black"/>
<path d="M13.35 58.4297C13.1942 58.8075 13.0811 59.2011 13.0127 59.6032C12.9499 59.9895 12.8435 60.3676 12.6953 60.7306L14.0517 61.2829L13.35 58.4297Z" fill="#4C4981"/>
<path opacity="0.05" d="M13.35 58.4297C13.1942 58.8075 13.0811 59.2011 13.0127 59.6032C12.9499 59.9895 12.8435 60.3676 12.6953 60.7306L14.0517 61.2829L13.35 58.4297Z" fill="black"/>
<path d="M24.113 87.4831L24.0009 87.7181C24.0009 87.7181 23.8786 88.4996 23.8786 88.5174C23.8786 88.5351 23.5278 89.057 23.5278 89.057L22.6452 89.2419L22.2705 89.1976C22.2515 88.9831 22.2182 88.77 22.1707 88.5598C22.1566 88.5003 22.1424 88.4395 22.1256 88.3774C21.9946 87.8906 21.7867 87.4271 21.5096 87.0037C21.2679 86.381 20.9706 85.7805 20.6212 85.2095C20.3868 85.0024 19.4984 82.9086 19.5911 82.4032C19.6243 81.7419 19.6121 81.0792 19.5545 80.4196C19.5165 79.7862 19.4746 79.2562 19.4746 79.2562L21.6956 77.9629L21.9531 78.3644C21.9528 78.3651 21.9526 78.3659 21.9526 78.3666C21.9526 78.3674 21.9528 78.3682 21.9531 78.3689L22.1076 78.6076C22.1076 78.6076 22.1076 78.6532 22.0993 78.7292C22.0993 78.7374 22.0993 78.7469 22.0993 78.7571C22.0736 79.0822 22.0072 79.403 21.9016 79.7121C21.9016 79.7121 21.7349 80.8857 21.9016 81.0928C22.2974 82.4852 22.5692 83.9088 22.7141 85.3475C22.7186 85.3874 22.7211 85.4261 22.7237 85.4634C22.8084 86.0352 23.0861 86.5624 23.5123 86.96L23.5168 86.9638C23.5407 86.9885 23.5658 87.0138 23.5909 87.0385C23.7548 87.1978 23.9292 87.3464 24.113 87.4831Z" fill="#D38884"/>
<path opacity="0.1" d="M22.2705 89.1978L22.6451 89.2421L23.5278 89.0572C23.5278 89.0572 23.8786 88.5341 23.8786 88.5176C23.8786 88.5011 24.0009 87.7183 24.0009 87.7183L24.1129 87.484L24.1271 87.4549C23.9115 87.3073 23.7082 87.143 23.5194 86.9634L23.5149 86.9589C23.4936 86.9399 23.4743 86.9203 23.4505 86.8994C23.4838 87.1156 23.4494 87.3367 23.3519 87.5332C23.2544 87.7298 23.0984 87.8924 22.9046 87.9995C22.5788 88.1635 22.311 88.2909 22.123 88.3795L22.2705 89.1978Z" fill="black"/>
<path d="M24.2673 87.5926L24.1385 87.856C24.1385 87.856 24.0162 88.6375 24.0162 88.6553C24.0162 88.673 23.6654 89.1949 23.6654 89.1949L22.7828 89.3798L22.2761 89.3203C22.2703 89.2196 22.2594 89.0771 22.2323 88.9048C22.2169 88.7997 22.1957 88.6838 22.168 88.5596C22.3559 88.4741 22.6592 88.3316 23.0448 88.1372C23.2386 88.0301 23.3946 87.8674 23.4921 87.6709C23.5897 87.4744 23.624 87.2533 23.5907 87.0371C23.7363 87.1803 23.8904 87.3148 24.0523 87.4399C24.1482 87.5102 24.2222 87.5615 24.2673 87.5926Z" fill="#CEDDF9"/>
<path opacity="0.1" d="M24.2674 87.5921L24.1386 87.8555C24.1386 87.8555 24.0163 88.6365 24.0163 88.6548C24.0163 88.6732 23.6655 89.1944 23.6655 89.1944L22.7828 89.3793L22.2762 89.3198C22.2704 89.2191 22.2595 89.0766 22.2324 88.9043C22.3409 88.9085 22.4487 88.923 22.5543 88.9474C22.5543 88.9474 23.7594 89.2007 23.8174 88.2628C23.8509 87.7301 23.9635 87.5212 24.053 87.4395C24.1483 87.5104 24.2223 87.5617 24.2674 87.5921Z" fill="black"/>
<path d="M24.1807 87.5297C24.1807 87.5297 23.88 87.4664 23.8221 88.4012C23.7642 89.336 22.559 89.0858 22.559 89.0858C22.559 89.0858 21.9687 88.9421 21.9629 89.1834C21.9824 89.4065 22.0356 89.6255 22.1206 89.8332C22.1281 90.0699 22.1776 90.3035 22.2668 90.5235C22.3775 90.6559 22.308 91.1505 22.308 91.1505C22.308 91.1505 22.355 91.5185 23.2845 91.1505C23.9227 90.954 24.4642 90.5318 24.8045 89.9655C24.8277 89.9307 24.7227 89.8275 25.3246 89.6147C25.9266 89.4019 27.6519 88.0389 27.5173 87.3714C27.5047 87.261 27.4592 87.1568 27.3866 87.0717C27.314 86.9867 27.2175 86.9246 27.1092 86.8932C27.019 86.8692 26.9248 86.863 26.8322 86.8752C26.7395 86.8874 26.6503 86.9177 26.5697 86.9642C26.407 87.0504 26.2391 87.1268 26.0669 87.1928C25.8374 87.2843 25.5952 87.3411 25.3485 87.3612C25.1594 87.3771 24.9725 87.4125 24.791 87.467C24.5967 87.5405 24.3862 87.5621 24.1807 87.5297Z" fill="#CC8294"/>
<path d="M17.3599 81.0847C17.2275 81.1944 17.1134 81.3239 17.0219 81.4685C16.6807 81.979 16.4773 82.6927 16.2462 83.0005C16.038 83.3613 15.9095 83.7612 15.869 84.1741C15.4787 85.4475 14.9859 86.6884 14.3954 87.8848C14.1113 88.4635 13.8745 89.0634 13.6872 89.6791C13.4939 89.9737 13.4184 90.3284 13.4754 90.6746C13.4812 90.7133 13.4851 90.7437 13.4883 90.7646C13.4915 90.7855 13.4954 90.8007 13.4954 90.8007L13.4883 90.8133L13.0827 91.491L11.7952 91.3156L11.1289 90.8722C11.1835 90.7856 11.2317 90.6952 11.2731 90.6018C11.5453 89.8955 11.7496 89.1657 11.8834 88.4219C12.0385 87.7741 12.1497 87.117 12.2162 86.4548C12.2249 85.9467 12.2599 85.4393 12.3212 84.9347C12.3212 84.9347 13.3299 81.8814 13.6473 81.3805C13.7827 81.1853 13.8665 80.96 13.8913 80.725C13.8955 80.6776 13.8932 80.6299 13.8842 80.5831L14.3207 80.1562C14.3207 80.1562 17.9213 80.6452 17.3599 81.0847Z" fill="#D38884"/>
<path opacity="0.1" d="M13.4934 90.6621C13.4934 90.6621 13.4889 90.7007 13.4864 90.7641V90.8122L13.0808 91.4899L11.7933 91.3144L11.127 90.8711C11.1816 90.7845 11.2297 90.6941 11.2712 90.6007C11.6344 90.5834 11.9974 90.6404 12.3372 90.7679C12.3372 90.7679 13.1387 90.9186 13.4754 90.6767C13.4821 90.6727 13.4882 90.6678 13.4934 90.6621Z" fill="black"/>
<path d="M13.1787 92.4735L11.8712 92.7858L10.6699 91.9136L10.7343 91.4222C10.8182 91.3686 10.8926 91.3019 10.9545 91.2246C11.0421 91.1228 11.1019 91.0008 11.1283 90.8699C11.1985 90.5083 12.3392 90.9048 12.3392 90.9048C12.3392 90.9048 13.1729 91.0606 13.498 90.8015C13.4764 91.0399 13.4982 91.2801 13.5624 91.5109C13.5935 91.6235 13.6613 91.723 13.7555 91.794C14.0819 92.0163 13.1787 92.4735 13.1787 92.4735Z" fill="#CEDDF9"/>
<path opacity="0.1" d="M13.1787 92.4732L11.8712 92.7854L10.6699 91.9127L10.7343 91.4212C10.8181 91.3676 10.8925 91.3008 10.9545 91.2236C11.0414 91.2236 11.1367 91.2236 11.2171 91.2306C11.4193 91.2483 11.8918 92.0945 11.8918 92.0945C13.0789 92.1717 13.4323 91.7905 13.5585 91.5093C13.5897 91.6219 13.6575 91.7213 13.7516 91.7923C14.0819 92.0165 13.1787 92.4732 13.1787 92.4732Z" fill="black"/>
<path d="M11.8885 92.2319C11.8885 92.2319 11.4147 91.3864 11.2132 91.3693C11.0438 91.36 10.874 91.36 10.7046 91.3693C10.518 91.8407 10.2767 92.2894 9.98555 92.7063C9.78768 92.9073 9.62729 93.141 9.51172 93.3967C9.51172 93.3967 10.901 94.7165 12.2452 94.4664C12.6734 94.4724 13.0945 94.5757 13.4754 94.7685C14.0979 95.0851 16.6942 94.8464 17.0097 94.2852C17.2466 93.8647 17.3399 93.5588 17.132 93.3352C17.0699 93.2716 16.9931 93.2236 16.9082 93.1953C16.8233 93.167 16.7327 93.1591 16.644 93.1725C16.3188 93.209 15.9895 93.1595 15.6901 93.0293C15.3907 92.8991 15.132 92.6927 14.9406 92.4315C14.5341 92.0524 14.1066 91.6958 13.6602 91.363C13.5636 91.3605 13.7374 92.3523 11.8885 92.2319Z" fill="#CC8294"/>
<path opacity="0.1" d="M22.1121 78.7453C22.1093 78.7494 22.106 78.7532 22.1025 78.7568C21.8606 79.0394 21.5833 79.2907 21.2772 79.5047C20.9897 79.6114 20.7085 79.7341 20.4351 79.872C20.4351 79.872 20.0843 80.3331 19.8036 80.3553C19.719 80.3668 19.636 80.3881 19.5564 80.4186C19.5184 79.7853 19.4766 79.2552 19.4766 79.2552L21.6975 77.9619L21.9551 78.3634L21.9546 78.3657L21.9551 78.3679C22.0143 78.5306 22.08 78.6801 22.1012 78.7283L22.1121 78.7453Z" fill="black"/>
<path d="M14.028 69.8603C13.7727 70.2438 13.6367 70.6923 13.6367 71.1507C13.6367 71.6091 13.7727 72.0576 14.028 72.4411C14.4938 73.2679 15.0942 74.0139 15.8054 74.6496L18.752 80.6542C19.084 80.468 19.4373 80.3213 19.8045 80.2172C20.0852 80.1944 20.4361 79.7339 20.4361 79.7339C20.7096 79.596 20.9907 79.4732 21.2781 79.366C21.5879 79.1476 21.869 78.8923 22.115 78.606C22.115 78.606 21.7931 77.9157 21.8646 77.732C21.936 77.5483 21.6541 77.0879 21.6541 77.0879C21.5684 76.8567 21.5056 76.6179 21.4667 76.3748C21.4041 76.1514 21.3012 75.941 21.1629 75.7535C21.0143 75.538 20.911 75.2956 20.859 75.0403C20.7523 74.6129 20.6035 74.1967 20.4148 73.7977L20.2976 69.4277L14.028 69.8603Z" fill="#CEDDF9"/>
<path opacity="0.05" d="M22.1122 78.6066C21.8659 78.8927 21.5848 79.1479 21.2753 79.3666C20.9878 79.4734 20.7067 79.5961 20.4333 79.734C20.4333 79.734 20.0824 80.195 19.8017 80.2172C19.6014 80.2588 19.4078 80.3269 19.2262 80.4198C18.9751 80.5332 18.7492 80.6542 18.7492 80.6542L15.8027 74.6496C15.5448 74.4281 15.3055 74.1866 15.0868 73.9276C14.6872 73.4651 14.3316 72.9676 14.0246 72.4411C13.687 71.9074 13.5671 71.2677 13.6892 70.6507C13.7439 70.3675 13.8582 70.0988 14.0246 69.8616L16.1207 69.7165L20.2923 69.4277L20.3277 70.7197L20.4088 73.7977C20.4088 73.7977 20.4777 73.9522 20.562 74.1555C20.6948 74.4386 20.7927 74.7363 20.8536 75.0422C20.9053 75.2977 21.0084 75.5404 21.1568 75.756C21.2953 75.9435 21.3984 76.1539 21.4613 76.3773C21.5002 76.6205 21.5627 76.8596 21.648 77.0911C21.648 77.0911 21.9287 77.5508 21.8586 77.7345C21.7884 77.9182 22.1122 78.6066 22.1122 78.6066Z" fill="black"/>
<path opacity="0.1" d="M17.3585 81.0853C17.226 81.195 17.112 81.3245 17.0205 81.4691C15.9315 81.4597 14.8591 81.2047 13.886 80.7237C13.8903 80.6761 13.8879 80.6281 13.8789 80.5812L14.3154 80.1543C14.3154 80.1543 17.9211 80.6464 17.3585 81.0853Z" fill="black"/>
<path d="M21.1125 71.2218C21.1125 71.2218 20.9258 71.8652 20.855 72.1414C20.7842 72.4175 20.6445 73.776 20.6445 73.776L20.5634 74.156L19.2276 80.4203L18.9372 81.7826C18.4222 82.0587 17.1347 81.3215 17.1347 81.3215C15.9708 81.3325 14.8218 81.0643 13.7871 80.54C13.9414 80.0717 14.0204 79.5826 14.0214 79.0903C14.0196 78.9226 14.0566 78.7566 14.1295 78.605C14.2024 78.4534 14.3095 78.32 14.4424 78.215C14.4567 77.4244 14.5584 76.6376 14.7457 75.8685C14.7457 75.8685 14.8397 75.156 15.1905 74.9711C15.5414 74.7862 15.1442 74.5113 15.0502 74.3498C15.0173 74.2089 15.029 74.0615 15.0836 73.9274C15.1139 73.8212 15.1496 73.7165 15.1905 73.6139C14.4745 72.7739 14.1067 71.6992 14.1605 70.6042C14.1583 70.4186 14.1667 70.2329 14.1856 70.0482L16.1169 69.7157L20.34 68.9893L20.7694 70.292L20.8775 70.6188L21.1125 71.2218Z" fill="#CEDDF9"/>
<path opacity="0.1" d="M20.7197 53.6217C20.6301 53.807 20.5652 54.0028 20.5266 54.2044C20.515 54.2557 20.504 54.3095 20.4912 54.3646C20.1412 54.5848 19.7239 54.6773 19.3118 54.6262C19.1322 54.6262 19.0324 54.2886 18.8612 54.2538C18.8612 54.2538 18.6036 53.3507 18.5335 54.1119C18.0436 54.0125 17.6213 54.3893 17.2743 54.0606L17.2685 54.0549C17.2685 54.0106 17.273 53.9669 17.2743 53.9226C17.2829 53.6375 17.2689 53.3523 17.2324 53.0695C17.2324 53.0695 18.5946 53.0612 19.6208 53.1771C20.3103 53.2557 20.8485 53.3893 20.7197 53.6217Z" fill="black"/>
<path d="M21.682 52.0729C21.682 52.4533 21.5959 52.829 21.43 53.1727C21.2641 53.5163 21.0225 53.8194 20.7228 54.0598C20.4231 54.3002 20.0727 54.472 19.6971 54.5626C19.3216 54.6533 18.9302 54.6606 18.5514 54.584C18.0689 54.4861 17.6245 54.2555 17.2698 53.9191C16.9151 53.5827 16.6646 53.1542 16.5474 52.6835C16.4302 52.2127 16.4511 51.7188 16.6077 51.2593C16.7643 50.7997 17.0501 50.3932 17.432 50.087C17.8139 49.7808 18.2763 49.5874 18.7654 49.5293C19.2545 49.4711 19.7504 49.5506 20.1954 49.7585C20.6405 49.9664 21.0165 50.2942 21.2799 50.7038C21.5432 51.1135 21.6831 51.5882 21.6833 52.0729H21.682Z" fill="#D38884"/>
<path opacity="0.1" d="M20.2548 56.101C20.2348 56.3151 20.2252 56.4519 20.2252 56.4519C20.2252 56.4519 16.0407 56.1758 16.7636 55.4854C16.9496 55.2938 17.0816 55.0579 17.1467 54.8008L18.9621 55.0934C18.9621 55.0934 19.4771 55.4854 19.8743 55.8534C19.9885 55.9533 20.1166 56.0367 20.2548 56.101Z" fill="black"/>
<path opacity="0.1" d="M20.8784 70.7607C20.6946 70.784 20.508 70.77 20.3299 70.7196C20.252 70.6963 20.1772 70.6637 20.1072 70.6227C19.7563 70.4156 18.5872 70.6696 18.5872 70.6696C18.5872 70.6696 15.4064 70.8767 15.266 70.6696C15.1862 70.5511 14.6262 70.5688 14.1659 70.6062C13.9792 70.6214 13.8079 70.6392 13.6914 70.6518C13.7461 70.3685 13.8604 70.0995 14.0268 69.862L16.1229 69.717L20.3409 68.9912L20.7703 70.2946C20.8192 70.5619 20.8784 70.7607 20.8784 70.7607Z" fill="black"/>
<path d="M18.9622 55.2312L16.6794 54.8633C16.6392 54.9517 16.5799 55.0304 16.5056 55.0939C16.4313 55.1575 16.3439 55.2043 16.2493 55.2312C15.3692 55.5641 14.5889 56.1102 13.9807 56.819L13.373 57.6449C13.373 57.6449 12.8818 58.2427 13.0453 58.726C13.2042 59.4242 13.3213 60.1309 13.3962 60.8426L13.6298 62.6603C13.8493 63.2651 13.9524 63.9049 13.9337 64.547C13.8786 65.5443 13.902 66.5444 14.0039 67.5382L13.5358 70.5288C13.5358 70.5288 15.126 70.3217 15.2663 70.5288C15.4066 70.7359 18.5868 70.5288 18.5868 70.5288C18.5868 70.5288 19.7559 70.2755 20.1068 70.4826C20.3429 70.608 20.6134 70.6563 20.8793 70.6206C20.731 70.1441 20.691 69.6415 20.7621 69.1481C20.8666 68.6568 20.906 68.1541 20.8793 67.6528C20.9861 67.1072 21.0255 66.5509 20.9965 65.996C20.8793 65.7427 21.254 64.8225 21.254 64.8225L22.4932 58.4036C22.4932 58.4036 22.3432 57.2535 21.6814 56.8621C21.0196 56.4707 20.2716 56.3554 19.8737 55.9881C19.4759 55.6207 18.9622 55.2312 18.9622 55.2312Z" fill="#4C4981"/>
<path d="M20.0156 61.5591V62.3191L20.7373 64.2287L20.9948 66.002C21.208 66.5527 21.3646 67.123 21.4622 67.7044C21.4622 68.1414 22.6081 70.258 22.6081 70.258C22.6081 70.258 22.9203 70.9711 22.7645 71.1092C22.6087 71.2473 21.2517 74.2841 22.9576 74.1923C24.6636 74.1004 24.1267 70.9255 24.1267 70.9255L23.893 69.5448C23.893 69.5448 23.5654 66.0938 23.5654 65.8405C23.5654 65.8405 23.1443 64.368 23.0973 64.0462C23.0504 63.7245 22.7465 62.0905 22.7465 62.0905L22.489 61.0322L20.0156 61.5591Z" fill="#D38884"/>
<path opacity="0.1" d="M19.2039 63.9512L16.6604 65.3831L15.8711 66.5567L16.9237 65.5041L19.2039 63.9512Z" fill="black"/>
<path opacity="0.1" d="M18.4298 66.6943C17.914 67.0429 17.3371 67.2945 16.7283 67.4366C16.1843 67.4366 14.9219 68.7134 14.9219 68.7134C15.5398 68.3035 16.185 67.9349 16.8532 67.6102C17.4034 67.348 17.9307 67.0417 18.4298 66.6943Z" fill="black"/>
<path opacity="0.1" d="M15.4662 67.0918C15.4662 67.0918 14.3789 68.0583 14.6596 68.1615C14.9403 68.2647 16.3977 67.0918 16.3977 67.0918H15.4662Z" fill="black"/>
<path opacity="0.1" d="M20.2724 63.6406C20.2724 63.6406 19.4304 64.7622 19.6583 64.7451C19.8862 64.728 20.5351 64.0896 20.5351 64.0896L20.2724 63.6406Z" fill="black"/>
<path opacity="0.1" d="M20.3973 64.7422C20.3973 64.7422 19.4851 65.7599 19.5205 66.019C19.5559 66.278 20.3973 64.7422 20.3973 64.7422Z" fill="black"/>
<path opacity="0.1" d="M20.6216 65.2539C20.6216 65.2539 20.0074 66.3306 20.2707 66.5567C20.534 66.7828 20.6216 65.2539 20.6216 65.2539Z" fill="black"/>
<path opacity="0.1" d="M19.8325 62.4844C19.8325 62.4844 19.3767 63.2444 19.7095 63.2957C20.0423 63.347 20.0758 63.2957 20.0758 63.2957L19.8325 62.4844Z" fill="black"/>
<path opacity="0.1" d="M19.9562 59.709C19.8421 60.1732 19.6856 60.6264 19.4888 61.0631C19.4151 60.8403 19.3543 60.6136 19.3066 60.3841C19.5001 60.1386 19.7176 59.9125 19.9562 59.709Z" fill="black"/>
<path opacity="0.1" d="M21.3488 50.8185C21.3031 50.9156 21.2435 51.0058 21.1718 51.0864C21.0521 51.1927 20.9456 51.3126 20.8544 51.4436C20.7835 51.6396 20.7451 51.8455 20.7405 52.0535C20.707 52.258 20.575 52.4854 20.3645 52.4924C20.2564 52.4822 20.1514 52.4512 20.0555 52.4012C20.0079 52.3764 19.9545 52.3642 19.9007 52.3659C19.8469 52.3676 19.7944 52.383 19.7484 52.4107C19.6871 52.4715 19.6519 52.5531 19.65 52.6387C19.6236 52.8169 19.6132 52.997 19.619 53.177C19.619 53.2486 19.6248 53.3189 19.6319 53.3911C19.6854 53.6185 19.6709 53.8562 19.5901 54.0757C19.4895 54.2342 19.3372 54.3544 19.1581 54.4164C18.9637 54.4966 18.76 54.5527 18.5517 54.5836C18.1552 54.6318 17.7551 54.6447 17.3562 54.6223C17.3199 54.6231 17.2837 54.6175 17.2493 54.6058C17.2323 54.5988 17.2166 54.5889 17.203 54.5767C17.2456 54.361 17.2695 54.1421 17.2745 53.9224C17.0038 53.6675 16.7922 53.3581 16.6541 53.0154C16.516 52.6727 16.4547 52.3048 16.4743 51.9366C16.4939 51.5685 16.594 51.2089 16.7678 50.8823C16.9416 50.5557 17.1849 50.2698 17.4812 50.0441C17.7776 49.8185 18.1199 49.6583 18.4848 49.5747C18.8498 49.491 19.2287 49.4858 19.5959 49.5594C19.9631 49.6329 20.3098 49.7835 20.6125 50.0009C20.9151 50.2184 21.1665 50.4974 21.3495 50.8191L21.3488 50.8185Z" fill="black"/>
<path d="M20.2574 48.6426C20.0177 48.6569 19.7817 48.7084 19.5583 48.7952C19.0622 48.8098 18.5659 48.7729 18.0776 48.685C17.6497 48.7084 17.2333 48.8305 16.8622 49.0416C16.5613 49.181 16.2868 49.3699 16.0504 49.6002C15.813 49.8336 15.6749 50.1473 15.6642 50.4773C15.6965 50.6647 15.6906 50.8566 15.6468 51.0417C15.5958 51.1352 15.5365 51.2242 15.4698 51.3076C15.4077 51.4046 15.3681 51.5138 15.3537 51.6276C15.3394 51.7413 15.3506 51.8567 15.3867 51.9657C15.4855 52.1821 15.6204 52.3808 15.7858 52.5534C16.1077 52.9594 16.3067 53.4401 16.5938 53.8714C16.7189 54.0581 16.86 54.2339 17.0154 54.397C17.0401 54.4266 17.0708 54.4508 17.1056 54.468C17.1396 54.4799 17.1756 54.4855 17.2118 54.4844C17.8207 54.5441 18.4355 54.4739 19.0143 54.2786C19.1937 54.2167 19.3463 54.0965 19.4469 53.9379C19.5276 53.7182 19.5424 53.4803 19.4894 53.2526C19.4651 53.002 19.471 52.7495 19.5068 52.5002C19.5097 52.415 19.5449 52.334 19.6053 52.2729C19.6515 52.2454 19.7042 52.2301 19.7582 52.2284C19.8122 52.2267 19.8658 52.2388 19.9137 52.2634C20.009 52.3137 20.1136 52.3445 20.2214 52.3539C20.4325 52.347 20.5645 52.1202 20.5986 51.915C20.6028 51.707 20.6413 51.501 20.7126 51.3051C20.8031 51.1739 20.9095 51.054 21.0293 50.9479C21.1736 50.7672 21.2726 50.5556 21.3183 50.3303C21.3641 50.105 21.3552 49.8722 21.2926 49.6509C21.2251 49.4082 21.094 49.1873 20.9123 49.0104C20.7306 48.8334 20.5047 48.7065 20.2574 48.6426Z" fill="#1E1637"/>
<path d="M32.4796 55.7902C33.7294 55.7902 34.7425 54.7935 34.7425 53.5641C34.7425 52.3346 33.7294 51.3379 32.4796 51.3379C31.2299 51.3379 30.2168 52.3346 30.2168 53.5641C30.2168 54.7935 31.2299 55.7902 32.4796 55.7902Z" fill="#FFD2C6"/>
<path d="M31.3748 54.4925C31.3748 54.4925 31.5325 56.6002 31.0941 57.0835C30.5936 57.5767 30.0667 58.0433 29.5156 58.4812L29.8665 59.9132L31.8486 60.1374L34.1662 57.7041L33.6402 57.0657C33.6402 57.0657 33.2366 55.7199 33.57 55.0467C33.9035 54.3734 31.3748 54.4925 31.3748 54.4925Z" fill="#FFD2C6"/>
<path opacity="0.1" d="M36.1616 59.1236L36.0393 59.3085L35.3376 59.1185L34.8496 57.3103L34.8792 56.7859L35.0241 56.582C35.0241 56.582 35.7966 56.5998 35.7619 57.2901C35.7974 57.918 35.9323 58.5366 36.1616 59.1236Z" fill="black"/>
<path opacity="0.1" d="M37.6865 69.1132C37.6865 69.1132 37.1284 69.2361 36.4897 69.3178C35.9343 69.4378 35.3572 69.4207 34.8102 69.2678C34.3022 68.9726 31.5507 69.0568 30.7608 69.0872C30.7048 69.0872 30.6598 69.0917 30.625 69.093L30.8298 68.3545H36.2837L36.3481 68.6712L37.1206 68.7155L37.5642 68.8124C37.6421 68.9897 37.6865 69.1132 37.6865 69.1132Z" fill="black"/>
<path d="M34.8822 56.7217C34.8822 56.7217 35.6547 56.7388 35.6187 57.4291C35.6612 58.0735 35.8032 58.7078 36.0397 59.3101L35.8645 59.7072C35.8645 59.7072 35.6193 60.6737 35.8118 60.915C36.0043 61.1563 36.7066 61.1563 36.303 63.1412C36.2508 63.7993 36.2922 64.4614 36.4259 65.1083C36.6364 65.5915 36.6364 66.7474 36.9519 67.2306C37.2384 67.7464 37.4846 68.2829 37.6883 68.8355C37.6883 68.8355 35.4081 69.3358 34.812 68.9906C34.2159 68.6455 30.5503 68.8184 30.5503 68.8184C30.5503 68.8184 30.5676 68.2142 30.5503 68.1451C30.5338 68.0698 30.5331 67.9919 30.5482 67.9162C30.5632 67.8406 30.5937 67.7687 30.6378 67.705C30.7608 67.5409 30.9533 67.2648 30.8483 67.0235C30.7434 66.7822 31.1116 66.4269 30.9185 66.0519C30.7254 65.677 30.4904 65.6036 30.538 65.399C30.5483 65.2815 30.5346 65.1632 30.4975 65.051C30.4605 64.9388 30.4009 64.8351 30.3224 64.746C30.182 64.5731 29.2351 62.7497 29.2351 62.7497L29.0773 61.8986C29.0773 61.8986 27.8542 61.0189 27.8793 60.6047C27.9552 60.2453 28.1128 59.9076 28.3402 59.6167L29.5151 58.4824C29.5151 58.4824 30.164 59.1727 30.7955 58.9308C31.5073 58.5358 32.1739 58.067 32.7841 57.5324C32.7841 57.5324 33.2695 57.2733 33.3043 57.084C33.3391 56.8946 33.6378 57.0669 33.6378 57.0669C33.6378 57.0669 34.0762 56.83 34.1637 56.9142C34.3118 56.9905 34.4717 57.0421 34.6369 57.0669L34.8822 56.7217Z" fill="#FFCDE5"/>
<path d="M28.2517 60.3164L27.8784 60.604C27.5964 61.194 27.4372 61.8335 27.4103 62.4849C27.311 63.4644 27.1528 64.4372 26.9365 65.3983L26.2 66.6954C25.6883 67.7267 25.2316 68.7837 24.832 69.862C24.6138 70.4901 24.3194 71.0899 23.9552 71.6486C23.9552 71.6486 21.5173 73.802 23.2188 74.1928C24.9202 74.5835 24.973 72.4771 24.973 72.4771C25.1721 72.2665 25.3287 72.0206 25.4346 71.7525C25.499 71.4593 27.6569 67.7062 27.6569 67.7062C27.6569 67.7062 28.4114 66.6966 28.253 66.1621C28.6696 65.2472 28.9985 64.296 29.2354 63.321C29.2172 62.8443 29.1645 62.3696 29.0777 61.9004L29.2354 60.7097L28.2517 60.3164Z" fill="#FFD2C6"/>
<path opacity="0.1" d="M33.3026 65.0723C32.6397 65.4261 31.9541 65.7373 31.2503 66.0039C30.9175 66.0508 32.7059 65.8139 32.7059 65.8139L33.3026 65.0723Z" fill="black"/>
<path opacity="0.1" d="M34.7058 65.7598C34.7058 65.7598 32.4256 66.5198 31.4258 66.3811C31.4258 66.3836 33.9165 66.8497 34.7058 65.7598Z" fill="black"/>
<path opacity="0.1" d="M34.8466 66.0107C34.8466 66.0107 32.7943 67.2819 31.584 67.0748C31.584 67.0748 34.4082 67.627 34.8466 67.3338L33.5835 66.9886C33.5835 66.9886 34.9869 66.2584 34.8466 66.0107Z" fill="black"/>
<path opacity="0.1" d="M32.4827 49.6474C32.1883 49.5767 31.8818 49.5689 31.584 49.6244C31.2862 49.6799 31.004 49.7974 30.7562 49.9691C30.4047 50.2408 30.171 50.6569 29.7744 50.8602C29.5645 50.9466 29.3495 51.0206 29.1306 51.0819C28.7463 51.2364 28.4258 51.5136 28.2209 51.8689C28.016 52.2242 27.9385 52.6369 28.0008 53.0408C28.0652 53.3822 28.2255 53.6988 28.306 54.0364C28.409 54.6491 28.3616 55.2771 28.1676 55.868C27.7358 57.5319 27.0803 59.1317 26.2182 60.625C26.1502 60.7166 26.1161 60.8283 26.1217 60.9416C26.1422 61.0188 26.1833 61.0892 26.2408 61.1456C26.6847 61.5723 27.2122 61.9058 27.7912 62.1258C28.3702 62.3459 28.9887 62.4478 29.609 62.4255C30.0657 62.4699 30.5264 62.3948 30.9441 62.2077C31.2025 62.0612 31.4248 61.8603 31.595 61.6193C32.0247 61.0394 32.2379 60.3314 32.1988 59.6148C32.081 59.0476 32.0532 58.4658 32.1164 57.8902C32.1323 57.812 32.1684 57.7391 32.2214 57.6787C32.3546 57.5444 32.5767 57.5799 32.766 57.5584C33.0179 57.4964 33.2426 57.3557 33.4063 57.1575C33.5701 56.9593 33.6641 56.7141 33.6743 56.4589C33.6829 55.9496 33.6594 55.4403 33.6042 54.9338C33.6017 54.2601 33.8157 53.6029 34.2158 53.056C34.4195 52.8404 34.5732 52.5839 34.6664 52.3042C34.6773 52.1373 34.654 51.9699 34.5978 51.812C34.5416 51.6542 34.4537 51.509 34.3393 51.3853C34.1302 50.902 33.837 50.4584 33.4728 50.0743C33.1812 49.8578 32.8421 49.7116 32.4827 49.6474Z" fill="black"/>
<path d="M32.3415 49.5097C32.047 49.4391 31.7406 49.4312 31.4428 49.4867C31.145 49.5422 30.8627 49.6597 30.6149 49.8314C30.2634 50.1031 30.0297 50.5192 29.6331 50.7225C29.4232 50.8089 29.2082 50.8829 28.9894 50.9442C28.605 51.0987 28.2846 51.3759 28.0797 51.7312C27.8748 52.0865 27.7972 52.4992 27.8596 52.9031C27.9239 53.2445 28.0842 53.5611 28.1647 53.8987C28.268 54.5113 28.2207 55.1393 28.0269 55.7303C27.5951 57.394 26.9395 58.9935 26.0776 60.4866C26.0096 60.5782 25.9755 60.69 25.981 60.8033C26.0016 60.8805 26.0427 60.9509 26.1001 61.0072C26.5442 61.4338 27.0718 61.7671 27.6507 61.9871C28.2297 62.207 28.8481 62.3089 29.4683 62.2866C29.9251 62.331 30.3857 62.2558 30.8035 62.0687C31.0619 61.9222 31.2841 61.7213 31.4544 61.4803C31.884 60.9004 32.0973 60.1924 32.0582 59.4758C31.9404 58.9086 31.9126 58.3269 31.9758 57.7513C31.9916 57.673 32.0277 57.6001 32.0807 57.5397C32.214 57.4055 32.4361 57.4409 32.6254 57.4194C32.8773 57.3574 33.102 57.2168 33.2657 57.0185C33.4295 56.8203 33.5235 56.5752 33.5337 56.3199C33.5423 55.8106 33.5189 55.3013 33.4636 54.7949C33.4611 54.1212 33.6752 53.4639 34.0751 52.917C34.2788 52.7017 34.4326 52.4454 34.5258 52.1659C34.5368 51.999 34.5135 51.8316 34.4573 51.6737C34.4011 51.5158 34.3132 51.3707 34.1987 51.2469C33.9897 50.7636 33.6964 50.32 33.3322 49.9359C33.0404 49.7196 32.701 49.5736 32.3415 49.5097Z" fill="#985C7E"/>
<path opacity="0.1" d="M22.7619 59.5555C22.7105 59.8678 22.7105 60.1862 22.7619 60.4985C22.7381 60.7518 22.7619 62.1553 22.7619 62.1553C21.9894 61.9248 20.0259 62.3858 20.0259 62.3858L19.7916 61.6955C19.6587 61.5253 19.5598 61.3319 19.4999 61.1255C19.4263 60.9028 19.3655 60.6761 19.3178 60.4466C19.2158 59.969 19.1391 59.4866 19.0879 59.0013C18.9914 58.2698 20.0967 57.4813 20.933 57.0456C21.7692 56.6098 22.5044 58.4718 22.5044 58.4718C22.6794 58.8068 22.7678 59.1789 22.7619 59.5555Z" fill="black"/>
<path d="M22.7619 59.4178C22.7105 59.7301 22.7105 60.0485 22.7619 60.3608C22.7381 60.6141 22.7619 62.0176 22.7619 62.0176C21.9894 61.7871 20.0259 62.2482 20.0259 62.2482L19.7916 61.5578C19.6587 61.3876 19.5598 61.1942 19.4999 60.9878C19.4263 60.7651 19.3655 60.5384 19.3178 60.3089C19.2158 59.8314 19.1391 59.349 19.0879 58.8636C18.9914 58.1321 20.0967 57.3436 20.933 56.9079C21.7692 56.4722 22.5044 58.3335 22.5044 58.3335C22.6794 58.6687 22.7679 59.0411 22.7619 59.4178Z" fill="#4C4981"/>
<path opacity="0.1" d="M31.584 71.085C31.584 71.085 32.0346 73.1553 32.7827 73.719L31.584 71.085Z" fill="black"/>
<path opacity="0.2" d="M21.2776 49.6505C21.2362 49.5206 21.178 49.3965 21.1044 49.2812C21.1167 49.3129 21.1282 49.3446 21.1372 49.3744C21.1998 49.5957 21.2086 49.8285 21.1629 50.0538C21.1171 50.2791 21.0182 50.4907 20.874 50.6714C20.7539 50.7775 20.6473 50.8974 20.5566 51.0286C20.4853 51.2245 20.4468 51.4305 20.4426 51.6385C20.4091 51.8437 20.2765 52.0705 20.0654 52.0774C19.9576 52.068 19.853 52.0372 19.7577 51.9869C19.7097 51.9623 19.6562 51.9502 19.6022 51.9519C19.5482 51.9536 19.4955 51.9689 19.4493 51.9964C19.3889 52.0575 19.3538 52.1385 19.3508 52.2237C19.3149 52.473 19.3091 52.7255 19.3334 52.9761C19.3863 53.2038 19.3716 53.4417 19.2909 53.6614C19.1902 53.82 19.0377 53.9402 18.8583 54.0021C18.2795 54.1973 17.6647 54.2675 17.0558 54.208C17.0197 54.2093 16.9836 54.2039 16.9495 54.1921C16.9148 54.1749 16.8842 54.1507 16.8594 54.1212C16.7042 53.958 16.5633 53.7822 16.4384 53.5955C16.1513 53.1668 15.9504 52.6835 15.6305 52.2776C15.5429 52.1667 15.4457 52.0591 15.3652 51.9438C15.3652 51.9514 15.3691 51.959 15.3717 51.9666C15.4704 52.1831 15.6053 52.3817 15.7708 52.5543C16.0927 52.9603 16.2916 53.441 16.5787 53.8723C16.7039 54.059 16.845 54.2348 17.0004 54.398C17.0251 54.4275 17.0558 54.4516 17.0905 54.4689C17.1246 54.4809 17.1606 54.4865 17.1968 54.4854C17.8057 54.545 18.4205 54.4748 18.9993 54.2795C19.1787 54.2176 19.3312 54.0974 19.4319 53.9388C19.5127 53.7191 19.5274 53.4812 19.4744 53.2535C19.4501 53.0029 19.456 52.7504 19.4918 52.5011C19.4948 52.4159 19.5299 52.3349 19.5903 52.2738C19.6365 52.2463 19.6892 52.231 19.7432 52.2293C19.7972 52.2276 19.8507 52.2397 19.8986 52.2643C19.994 52.3145 20.0986 52.3453 20.2064 52.3548C20.4175 52.3478 20.5495 52.1211 20.5836 51.9159C20.5879 51.7079 20.6263 51.5019 20.6976 51.306C20.7884 51.1748 20.8949 51.0549 21.0149 50.9488C21.1592 50.7679 21.2582 50.5561 21.3038 50.3305C21.3495 50.105 21.3405 49.872 21.2776 49.6505Z" fill="black"/>
<g opacity="0.1">
<path d="M27.9932 53.3683C27.9694 53.2872 27.9424 53.2068 27.9141 53.127C27.9398 53.2049 27.9668 53.2853 27.9932 53.3683Z" fill="black"/>
<path d="M34.3949 51.5586C34.4007 51.624 34.3974 51.6898 34.3852 51.7543C34.292 52.0338 34.1383 52.2901 33.9346 52.5054C33.5347 53.0523 33.3206 53.7095 33.323 54.3833C33.3784 54.8899 33.4019 55.3994 33.3932 55.909C33.383 56.164 33.289 56.409 33.1254 56.6071C32.9617 56.8052 32.7372 56.9458 32.4855 57.0078C32.2962 57.0293 32.0741 56.9939 31.9409 57.1281C31.8879 57.1883 31.8518 57.261 31.8359 57.339C31.7727 57.9146 31.8005 58.4964 31.9183 59.0636C31.9575 59.7802 31.7442 60.4882 31.3145 61.0681C31.1443 61.3091 30.9221 61.51 30.6636 61.6565C30.2459 61.8435 29.7853 61.9187 29.3285 61.8743C28.7185 61.8943 28.1106 61.7953 27.5397 61.5831C26.9689 61.371 26.4463 61.0498 26.0021 60.6381C25.9804 60.6908 25.9735 60.7483 25.9822 60.8046C26.0027 60.8818 26.0438 60.9522 26.1013 61.0086C26.5453 61.4353 27.0728 61.7688 27.6518 61.9888C28.2308 62.2088 28.8492 62.3108 29.4694 62.2885C29.9262 62.333 30.3869 62.2578 30.8046 62.0707C31.063 61.9243 31.2852 61.7236 31.4555 61.4829C31.8851 60.903 32.0984 60.195 32.0593 59.4784C31.9416 58.9112 31.9137 58.3294 31.9769 57.7538C31.9927 57.6756 32.0288 57.6027 32.0818 57.5423C32.2151 57.4081 32.4372 57.4435 32.6265 57.422C32.8784 57.36 33.103 57.2193 33.2668 57.0211C33.4306 56.8229 33.5246 56.5778 33.5348 56.3225C33.5435 55.8132 33.52 55.3039 33.4647 54.7974C33.4621 54.1237 33.6762 53.4665 34.0762 52.9196C34.2799 52.7042 34.4336 52.448 34.5269 52.1685C34.5621 51.9561 34.515 51.7384 34.3949 51.5586Z" fill="black"/>
</g>
<path d="M55.1604 60.6154L54.8926 60.295C55.4192 59.8694 55.4443 57.2391 55.181 55.8129C55.0016 54.9585 54.9729 54.0801 55.096 53.2162C55.161 52.6729 55.352 52.1515 55.6541 51.6922C55.9562 51.2329 56.3615 50.8479 56.8387 50.567C58.8221 49.4175 60.0118 46.2641 60.0234 46.2324L60.4193 46.3749C60.3691 46.5098 59.1672 49.6993 57.0524 50.9242C55.6464 51.7386 55.1565 53.3574 55.5956 55.7375C55.8035 56.8591 55.9773 59.9555 55.1604 60.6154Z" fill="#D4D5E0"/>
<path d="M66.1726 44.6829C67.4653 41.5612 66.3548 38.1653 63.6922 37.0975C61.0296 36.0297 57.823 37.6954 56.5297 40.8171C55.2743 43.8482 56.285 47.1371 58.7829 48.3031C58.615 48.6055 58.362 48.8538 58.0541 49.0181C57.5133 49.2664 59.2708 49.5058 59.2708 49.5058C59.2734 49.1798 59.3295 48.8565 59.4369 48.5482C62.0062 49.2898 64.9475 47.64 66.1726 44.6829Z" fill="#E53935"/>
<path opacity="0.2" d="M57.0434 43.7149C57.1027 42.3672 57.9299 41.2975 58.9194 41.25C58.8769 41.2443 58.8338 41.2405 58.7906 41.2386C57.7445 41.1943 56.8465 42.2975 56.7847 43.7042C56.7242 45.0696 57.4748 46.2179 58.4758 46.3243C58.0636 46.0132 57.7229 45.6199 57.4761 45.1703C57.2292 44.7206 57.0818 44.2246 57.0434 43.7149Z" fill="white"/>
<path d="M71.2678 81.7453L71 81.4248C71.5266 80.9992 71.5517 78.369 71.2884 76.9427C71.109 76.0883 71.0803 75.21 71.2034 74.3461C71.2684 73.8027 71.4594 73.2813 71.7615 72.822C72.0637 72.3627 72.4689 71.9778 72.9461 71.6968C74.9296 70.5473 76.1192 67.394 76.1308 67.3623L76.5268 67.5048C76.4765 67.6397 75.2746 70.8285 73.1598 72.054C71.7538 72.8685 71.2639 74.4873 71.703 76.8674C71.9103 77.989 72.0848 81.0853 71.2678 81.7453Z" fill="#D4D5E0"/>
<path d="M82.28 65.8129C83.5734 62.6912 82.4629 59.2953 79.7996 58.2281C77.1364 57.1609 73.9298 58.826 72.6371 61.9477C71.3817 64.9788 72.3925 68.2677 74.8903 69.4337C74.7224 69.7361 74.4694 69.9844 74.1615 70.1487C73.6208 70.397 75.3782 70.6364 75.3782 70.6364C75.3808 70.3104 75.4369 69.9871 75.5443 69.6788C78.1136 70.4198 81.055 68.77 82.28 65.8129Z" fill="#E53935"/>
<path opacity="0.2" d="M73.1508 64.8448C73.21 63.4971 74.0373 62.4274 75.0267 62.3799C74.9842 62.3742 74.9411 62.3704 74.898 62.3685C73.8519 62.3241 72.9538 63.4274 72.892 64.834C72.8321 66.1995 73.5821 67.3477 74.5832 67.4548C74.171 67.1436 73.8303 66.7502 73.5834 66.3004C73.3366 65.8507 73.1891 65.3546 73.1508 64.8448Z" fill="white"/>
<path d="M46.6467 40.9035L46.3789 40.583C46.9055 40.1574 46.9306 37.5272 46.6673 36.1009C46.4879 35.2466 46.4591 34.3682 46.5823 33.5043C46.6474 32.9609 46.8383 32.4395 47.1404 31.9802C47.4426 31.5209 47.8478 31.136 48.325 30.855C50.3085 29.7055 51.4981 26.5522 51.5097 26.5205L51.9063 26.663C51.8561 26.7979 50.6541 29.9874 48.5387 31.2123C47.1327 32.0267 46.6429 33.6455 47.0826 36.0256C47.2892 37.1472 47.4637 40.2436 46.6467 40.9035Z" fill="#D4D5E0"/>
<path d="M57.6589 24.97C58.9516 21.8483 57.8412 18.4524 55.1785 17.3846C52.5159 16.3168 49.3087 17.9825 48.016 21.1042C46.7607 24.1353 47.7714 27.4242 50.2692 28.5902C50.1013 28.8926 49.8482 29.1408 49.5404 29.3052C48.9997 29.5535 50.7572 29.7929 50.7572 29.7929C50.7597 29.4669 50.8158 29.1436 50.9232 28.8353C53.4925 29.5769 56.4339 27.9271 57.6589 24.97Z" fill="#E53935"/>
<path opacity="0.2" d="M48.5297 24.003C48.589 22.6553 49.4162 21.5856 50.4057 21.5381C50.3632 21.5324 50.3201 21.5286 50.2769 21.5267C49.2308 21.4823 48.3327 22.5856 48.2709 23.9922C48.2111 25.3577 48.9611 26.5059 49.9621 26.6123C49.5499 26.3013 49.2093 25.908 48.9624 25.4583C48.7156 25.0086 48.5681 24.5127 48.5297 24.003Z" fill="white"/>
</svg>
