<svg xmlns="http://www.w3.org/2000/svg" width="210" height="203" viewBox="0 0 210 203" fill="none">
  <path d="M104.712 202.561C162.542 202.561 209.423 157.216 209.423 101.28C209.423 45.3448 162.542 0 104.712 0C46.881 0 0 45.3448 0 101.28C0 157.216 46.881 202.561 104.712 202.561Z" fill="#134F19" fill-opacity="0.05"/>
  <path d="M104.712 182.261C150.951 182.261 188.436 146.005 188.436 101.28C188.436 56.5561 150.951 20.2999 104.712 20.2999C58.4724 20.2999 20.9879 56.5561 20.9879 101.28C20.9879 146.005 58.4724 182.261 104.712 182.261Z" fill="#134F19" fill-opacity="0.05"/>
  <path d="M56.9724 183.919C56.9566 184.53 57.1341 185.131 57.4811 185.643C58.5809 187.385 60.7896 188.201 62.8909 188.354C64.9922 188.506 67.0985 188.11 69.1998 188.014C69.8311 187.988 70.4591 187.984 71.0887 187.949C74.3535 187.759 77.4689 186.641 80.5525 185.535C81.0562 185.356 81.6438 185.066 81.6723 184.551C81.6596 184.373 81.6064 184.2 81.5164 184.045C81.4264 183.889 81.3019 183.754 81.1519 183.651C80.7496 183.31 80.2968 183.03 79.8086 182.819C78.0977 182.088 76.0468 182.282 74.4224 181.385C74.0639 181.187 73.7365 180.943 73.3621 180.779C72.9238 180.608 72.4607 180.505 71.9895 180.473C69.9558 180.25 67.8994 180.316 65.8854 180.668C64.3682 181.021 62.8322 181.294 61.2841 181.484C60.694 181.534 60.0997 181.496 59.5211 181.374C59.1266 181.286 58.6262 180.943 58.2518 181.172C57.8774 181.401 57.6641 182.129 57.4903 182.453C57.2134 182.901 57.037 183.4 56.9724 183.919Z" fill="#3F3D56"/>
  <path opacity="0.05" d="M56.9724 183.919C56.9566 184.53 57.1341 185.131 57.4811 185.643C58.5809 187.385 60.7896 188.201 62.8909 188.354C64.9922 188.506 67.0985 188.11 69.1998 188.014C69.8311 187.988 70.4591 187.984 71.0887 187.949C74.3535 187.759 77.4689 186.641 80.5525 185.535C81.0562 185.356 81.6438 185.066 81.6723 184.551C81.6596 184.373 81.6064 184.2 81.5164 184.045C81.4264 183.889 81.3019 183.754 81.1519 183.651C80.7496 183.31 80.2968 183.03 79.8086 182.819C78.0977 182.088 76.0468 182.282 74.4224 181.385C74.0639 181.187 73.7365 180.943 73.3621 180.779C72.9238 180.608 72.4607 180.505 71.9895 180.473C69.9558 180.25 67.8994 180.316 65.8854 180.668C64.3682 181.021 62.8322 181.294 61.2841 181.484C60.694 181.534 60.0997 181.496 59.5211 181.374C59.1266 181.286 58.6262 180.943 58.2518 181.172C57.8774 181.401 57.6641 182.129 57.4903 182.453C57.2134 182.901 57.037 183.4 56.9724 183.919Z" fill="black"/>
  <path d="M69.3215 186.779C69.3037 187.391 69.4814 187.993 69.8302 188.503C70.93 190.246 73.1345 191.062 75.24 191.215C77.3455 191.368 79.4476 190.972 81.5489 190.876C82.1794 190.849 82.8082 190.846 83.4378 190.811C86.7026 190.62 89.8181 189.503 92.9016 188.397C93.4053 188.214 93.9929 187.927 94.0215 187.408C94.0082 187.232 93.9546 187.06 93.8646 186.905C93.7746 186.751 93.6505 186.618 93.501 186.515C93.0996 186.174 92.6467 185.893 92.1578 185.684C90.4469 184.953 88.3959 185.142 86.7715 184.246C86.413 184.051 86.0856 183.803 85.7103 183.643C85.272 183.474 84.8094 183.369 84.3386 183.335C82.3048 183.112 80.2483 183.179 78.2345 183.533C76.7177 183.886 75.1815 184.158 73.6332 184.345C73.0434 184.397 72.4487 184.362 71.8702 184.238C71.4757 184.151 70.9753 183.807 70.6009 184.036C70.2265 184.265 70.0132 184.994 69.8395 185.318C69.5615 185.764 69.3849 186.262 69.3215 186.779Z" fill="#3F3D56"/>
  <path d="M62.8666 44.0065C62.7232 43.6224 62.462 43.2897 62.1178 43.0532C61.2934 42.6107 60.3195 43.4348 59.9611 44.2623C59.6026 45.0897 59.4842 46.1047 58.7782 46.7031C58.3484 47.0848 57.7574 47.222 57.315 47.5801C56.3294 48.3848 56.4276 49.8683 56.6601 51.0887C57.5316 55.6651 59.0578 60.1124 59.6647 64.7238C59.8216 66.5421 60.0848 68.3503 60.453 70.1398C60.6598 71.2064 61.2123 72.1816 62.0304 72.9241C62.4481 73.282 62.9816 73.488 63.5392 73.5068C64.0968 73.5256 64.6438 73.3561 65.0863 73.0273C63.6172 69.1762 62.8836 65.099 62.9212 60.9943C62.9447 58.3244 63.3158 55.6546 63.3905 52.9555C63.4744 50.6007 63.351 48.2378 63.2284 45.8806C63.2395 45.275 63.1212 44.6738 62.8809 44.1145C62.7535 43.8383 62.5442 43.6049 62.2795 43.444C62.0148 43.2831 61.7066 43.2019 61.3941 43.2107" fill="#FBBEBE"/>
  <path d="M80.5757 26.0536C86.0569 26.0536 90.5004 21.7558 90.5004 16.4542C90.5004 11.1525 86.0569 6.85474 80.5757 6.85474C75.0945 6.85474 70.651 11.1525 70.651 16.4542C70.651 21.7558 75.0945 26.0536 80.5757 26.0536Z" fill="#CB8C8E"/>
  <path d="M93.9501 45.3153C99.449 45.3153 103.907 41.0036 103.907 35.685C103.907 30.3663 99.449 26.0547 93.9501 26.0547C88.4513 26.0547 83.9936 30.3663 83.9936 35.685C83.9936 41.0036 88.4513 45.3153 93.9501 45.3153Z" fill="#FBBEBE"/>
  <path d="M98.048 45.01C98.1319 45.7725 98.4425 46.6616 99.1956 46.8557C99.5449 46.8961 99.8965 46.9154 100.248 46.9134C100.528 46.9636 100.792 47.0777 101.018 47.2462C101.243 47.4146 101.424 47.6326 101.545 47.8821C101.783 48.3868 101.877 48.9438 101.817 49.4955C101.752 50.3333 101.473 51.1424 101.005 51.8503C100.117 53.0797 98.8332 53.9893 97.3537 54.4365C95.885 54.8745 94.3683 55.1446 92.8346 55.2412C92.1546 55.3473 91.4599 55.3267 90.7879 55.1803C90.3653 55.0468 89.9663 54.8512 89.605 54.6005C88.4823 53.8726 87.4989 52.9615 86.6987 51.9079C86.1105 51.1748 85.685 50.3323 85.4486 49.433C85.2222 48.5299 85.353 47.5776 85.8155 46.7631C85.9575 46.4932 86.1914 46.2789 86.4779 46.1566C87.3216 45.8626 88.0864 46.8736 88.9821 46.8963C89.3341 46.8549 89.6675 46.7206 89.9457 46.508C90.224 46.2954 90.4364 46.0129 90.5596 45.6913C90.7863 45.0434 91.0965 44.4257 91.483 43.8529C92.0741 43.2842 92.8307 42.9038 93.6515 42.7624C95.0734 42.2938 96.5659 42.0567 98.0681 42.0608C98.8237 42.1331 98.3284 42.5684 98.1521 43.0945C97.9797 43.719 97.9443 44.3715 98.048 45.01Z" fill="#FBBEBE"/>
  <path d="M88.6626 55.0601C89.8731 54.5339 90.5439 53.264 91.6235 52.5121C92.5929 51.9757 93.6257 51.5545 94.6994 51.2575C95.7519 50.8512 96.7153 50.2558 97.5387 49.5028C98.1915 48.7365 98.9958 48.1038 99.9044 47.6417C100.631 47.4183 101.41 47.4183 102.137 47.6417C103.144 47.9697 104.068 48.4997 104.85 49.1969C105.631 49.8941 106.251 50.7429 106.67 51.6879C107.494 53.5827 108.035 55.5809 108.279 57.6227L108.792 60.6742C109.173 62.5379 109.356 64.4342 109.34 66.3339C109.319 68.2483 108.694 70.111 107.551 71.6736C107.088 72.3346 106.706 73.0449 106.411 73.7904C106.234 74.1296 106.121 74.4963 106.076 74.8736C106.079 75.1971 106.109 75.5197 106.166 75.8383C106.334 77.4785 105.378 79.0051 105.007 80.6169C104.815 81.6958 104.757 82.7929 104.833 83.8852C104.823 84.0272 104.852 84.1693 104.917 84.2969C105.002 84.4115 105.118 84.5012 105.253 84.5559C105.513 84.6891 105.781 84.8149 106.042 84.9375C103.865 85.4051 101.64 85.6329 99.4099 85.6164C95.502 85.5287 91.6864 84.4722 87.8054 84.0338C87.6593 82.3099 88.1488 80.6469 88.2587 78.9231C88.2811 77.7979 88.2087 76.6728 88.0421 75.559C87.7174 72.5141 87.7478 69.4436 88.1328 66.4053C88.2671 65.3375 88.4485 64.273 88.4997 63.1979C88.5585 61.9239 88.4409 60.6466 88.5349 59.3815C88.6256 58.1725 88.9295 56.9748 88.9606 55.7617C88.9972 55.6293 88.9879 55.4889 88.9341 55.3622C88.8803 55.2354 88.7849 55.1293 88.6626 55.0601Z" fill="#F4F6FB"/>
  <path d="M93.0638 82.1612C97.1488 82.184 100.749 82.2985 104.823 82.5672C105.541 83.7113 103.821 86.7969 104.795 87.7429C110.379 93.1549 111.621 100.428 118.103 104.81C119.446 105.718 123.229 106.454 124.412 107.575C125.335 108.464 123.923 107.831 124.609 108.91C128.555 115.134 137.444 121.278 142.598 126.629C146.964 131.164 149.302 137.213 151.88 142.892C153.426 146.29 154.246 149.957 155.429 153.491C156.612 157.026 158.241 160.547 161.048 163.079C163.185 165.009 166.013 166.39 167.278 168.934C167.633 169.756 167.941 170.596 168.201 171.451C168.947 173.416 170.188 175.171 171.812 176.555C173.435 177.94 175.39 178.911 177.5 179.38C178.647 179.624 178.123 181.474 178.241 182.607C178.403 184.155 179.849 185.254 181.263 185.998C183.41 187.127 185.743 187.888 188.158 188.247C189.641 188.465 191.392 188.678 192.104 189.952C192.339 190.398 192.449 190.895 192.423 191.394C192.372 193.95 189.899 195.971 187.297 196.474C184.694 196.978 182.036 196.299 179.505 195.57C179.063 195.402 178.586 195.341 178.113 195.391C177.429 195.629 176.84 196.07 176.429 196.65C174.884 198.258 172.881 199.387 170.672 199.896C168.464 200.404 166.149 200.269 164.021 199.506C162.648 198.987 161.347 198.198 159.88 198.064C157.613 197.859 155.57 199.232 153.622 200.352C151.675 201.473 149.214 202.435 147.207 201.408C146.613 200.977 145.946 200.649 145.235 200.439C144.144 200.317 143.169 201.233 142.08 201.202C140.858 201.179 140.018 200.058 139.201 199.181C137.541 197.411 135.298 196.253 132.853 195.904C132.395 195.812 131.921 195.825 131.469 195.942C130.935 196.166 130.459 196.502 130.077 196.927C129.001 197.922 127.663 198.834 126.176 198.772C122.931 198.662 121.003 194.225 117.774 194.531C113.563 192.624 108.35 193.608 103.732 194.149C99.1149 194.691 94.0007 194.847 90.3001 192.119C88.3525 190.677 87.0311 188.584 85.2135 186.986C82.3433 184.462 78.4706 183.359 74.7365 182.329C68.8213 180.696 62.6787 179.05 56.5981 179.938C55.5151 180.161 54.4079 180.255 53.3014 180.216C52.7464 180.189 52.2097 180.016 51.7491 179.715C51.2884 179.415 50.9212 178.999 50.6871 178.511C50.5185 177.999 50.4808 177.454 50.5772 176.925C51.1489 172.607 55.38 169.365 55.9198 165.044C56.332 162.927 57.2698 160.939 58.6524 159.251C59.7327 157.665 60.7188 156.021 61.6058 154.327C63.7875 150.563 65.7222 146.67 67.3984 142.671C68.9677 138.397 70.2377 134.025 71.1997 129.585C72.2247 125.325 72.7108 120.962 73.4512 116.644C73.9877 113.505 74.8272 110.424 75.6675 107.346C78.1516 98.2518 80.6516 89.1079 84.7342 80.5795C87.4013 81.303 90.3312 82.1458 93.0638 82.1612Z" fill="#E3E8F4"/>
  <path d="M93.0637 83.3059C97.1487 83.3287 100.749 83.0623 104.823 83.3327C105.768 84.5724 106.843 85.7137 108.032 86.7383C113.616 92.1575 117.764 99.023 124.243 103.401C125.64 104.233 126.96 105.179 128.189 106.231C129.091 107.154 129.876 108.179 130.527 109.283C134.472 115.511 137.431 122.437 142.585 127.792C146.951 132.327 149.289 138.376 151.868 144.055C153.413 147.453 154.234 151.119 155.416 154.654C156.599 158.188 158.228 161.71 161.035 164.242C163.173 166.172 166 167.552 167.265 170.096C167.62 170.918 167.929 171.759 168.189 172.613C168.934 174.579 170.175 176.333 171.799 177.718C173.423 179.102 175.378 180.073 177.487 180.543C178.635 180.786 178.11 182.637 178.228 183.769C178.39 185.318 179.838 186.417 181.251 187.16C183.398 188.288 185.731 189.048 188.147 189.406C189.63 189.624 191.381 189.838 192.093 191.108C192.328 191.553 192.438 192.05 192.412 192.549C192.361 195.104 189.888 197.126 187.286 197.63C184.683 198.133 182.025 197.454 179.494 196.726C179.052 196.558 178.575 196.496 178.102 196.546C177.418 196.785 176.829 197.225 176.418 197.805C174.873 199.413 172.869 200.542 170.661 201.051C168.453 201.559 166.138 201.424 164.01 200.662C162.637 200.143 161.336 199.353 159.869 199.219C157.602 199.014 155.559 200.386 153.611 201.508C151.664 202.629 149.203 203.59 147.196 202.563C146.602 202.132 145.935 201.804 145.224 201.594C144.133 201.473 143.158 202.388 142.07 202.357C140.848 202.334 140.007 201.213 139.191 200.335C137.538 198.563 135.3 197.4 132.859 197.044C132.401 196.951 131.926 196.965 131.474 197.082C130.94 197.306 130.465 197.642 130.083 198.066C129.006 199.062 127.669 199.974 126.182 199.912C122.937 199.802 121.009 195.365 117.78 195.671C113.569 193.764 108.355 194.748 103.738 195.289C99.1207 195.831 94.0064 195.987 90.3059 193.259C88.3582 191.817 87.0368 189.724 85.2193 188.126C82.349 185.601 78.4764 184.499 74.7423 183.469C68.8271 181.837 62.6844 180.189 56.6039 181.078C55.5209 181.301 54.4137 181.394 53.3071 181.356C52.7522 181.329 52.2156 181.156 51.7549 180.855C51.2943 180.555 50.9271 180.138 50.6929 179.651C50.5243 179.139 50.4865 178.594 50.5829 178.064C51.1546 173.747 55.3858 170.505 55.9256 166.184C56.3378 164.067 57.2756 162.079 58.6582 160.39C59.7385 158.805 60.7246 157.161 61.6115 155.466C63.7933 151.703 65.728 147.81 67.4041 143.811C68.9735 139.537 70.2434 135.165 71.2054 130.726C72.2305 126.465 72.7165 122.102 73.457 117.785C73.9934 114.646 74.8329 111.564 75.6733 108.487C78.1574 99.3924 80.6574 90.2485 84.74 81.7201C87.4012 82.4476 90.3311 83.2905 93.0637 83.3059Z" fill="#E3E8F4"/>
  <path d="M93.0637 82.5428C97.1487 82.5655 100.749 82.2992 104.823 82.5696C105.768 83.8093 106.843 84.9506 108.032 85.9751C113.616 91.3944 117.764 98.2598 124.243 102.638C125.64 103.469 126.961 104.416 128.189 105.468C129.091 106.391 129.876 107.415 130.527 108.519C134.472 114.747 137.431 121.678 142.585 127.029C146.951 131.564 149.289 137.612 151.868 143.292C153.413 146.69 154.234 150.356 155.416 153.891C156.599 157.425 158.228 160.946 161.035 163.479C163.173 165.409 166 166.789 167.265 169.333C167.62 170.155 167.929 170.996 168.189 171.85C168.934 173.816 170.175 175.57 171.799 176.955C173.423 178.339 175.378 179.31 177.487 179.779C178.635 180.023 178.11 181.874 178.228 183.006C178.39 184.555 179.838 185.653 181.251 186.396C183.398 187.525 185.731 188.285 188.147 188.643C189.63 188.861 191.381 189.074 192.093 190.348C192.328 190.793 192.438 191.291 192.412 191.79C192.361 194.345 189.888 196.366 187.286 196.87C184.683 197.373 182.025 196.694 179.494 195.966C179.052 195.798 178.575 195.736 178.102 195.786C177.418 196.025 176.829 196.465 176.418 197.045C174.873 198.653 172.87 199.782 170.661 200.291C168.453 200.799 166.138 200.664 164.01 199.902C162.637 199.383 161.336 198.593 159.869 198.46C157.602 198.254 155.559 199.627 153.611 200.748C151.664 201.87 149.203 202.831 147.196 201.804C146.602 201.373 145.935 201.045 145.224 200.835C144.133 200.714 143.158 201.629 142.07 201.598C140.848 201.575 140.007 200.454 139.191 199.577C137.538 197.804 135.3 196.641 132.859 196.285C132.401 196.192 131.926 196.205 131.474 196.323C130.94 196.546 130.465 196.883 130.083 197.307C129.006 198.303 127.669 199.215 126.182 199.153C122.937 199.042 121.009 194.606 117.78 194.912C113.569 193.004 108.355 193.989 103.738 194.53C99.1207 195.072 94.0064 195.229 90.3059 192.5C88.3582 191.058 87.0368 188.965 85.2193 187.367C82.349 184.842 78.4764 183.74 74.7423 182.71C68.8271 181.078 62.6844 179.43 56.6039 180.319C55.5209 180.542 54.4137 180.635 53.3071 180.597C52.7526 180.57 52.2162 180.398 51.7556 180.098C51.2949 179.798 50.9275 179.383 50.6929 178.896C50.5243 178.383 50.4865 177.839 50.5829 177.309C51.1546 172.992 55.3858 169.75 55.9256 165.429C56.3379 163.312 57.2756 161.324 58.6582 159.635C59.7386 158.05 60.7246 156.406 61.6115 154.711C63.7933 150.948 65.728 147.055 67.4041 143.056C68.9735 138.781 70.2435 134.41 71.2054 129.97C72.2305 125.71 72.7165 121.346 73.457 117.029C73.9934 113.89 74.8329 110.808 75.6733 107.731C78.1574 98.6366 80.6574 89.4926 84.74 80.9642C87.4012 81.6845 90.3311 82.5273 93.0637 82.5428Z" fill="#F4F6FB"/>
  <path d="M57.5002 100.046C56.199 101.426 56.4928 103.612 57.2559 105.324C58.019 107.036 59.1725 108.643 59.3849 110.496C59.4563 111.113 59.4168 111.739 59.5268 112.353C59.6107 112.795 59.7635 113.218 59.8819 113.652C60.0257 114.202 60.1364 114.76 60.2135 115.322C60.6332 118.037 60.9153 120.776 61.0656 123.523C61.2822 127.406 61.2276 131.3 61.1722 135.19C61.0933 140.63 58.4119 145.728 57.1065 151.024C56.8767 151.843 56.7261 152.68 56.6565 153.526C56.6508 154.652 56.7659 155.775 56.9999 156.878C58.1521 163.821 57.9179 170.913 56.3098 177.771C56.9233 178.205 57.4063 178.789 57.7092 179.464C58.0121 180.138 58.124 180.878 58.0333 181.608C60.577 182.039 63.2382 182.462 65.6871 181.68C67.1655 181.211 68.4944 180.318 70.0248 180.04C71.2077 179.83 72.5761 179.937 73.4122 179.105C73.7519 178.717 73.9995 178.261 74.1376 177.77C77.0238 169.65 76.2153 160.8 76.0542 152.217C75.9702 147.602 76.0542 142.984 75.8728 138.372C75.5166 130.15 74.1828 121.996 71.8977 114.069C70.7938 110.253 69.7293 106.441 67.56 103.058C67.1234 102.276 66.5053 101.602 65.7542 101.09C64.8905 100.661 63.9407 100.417 62.9704 100.377C60.959 100.168 59.5117 100.268 57.5002 100.046Z" fill="#3F3D56"/>
  <path opacity="0.05" d="M74.136 177.774C73.9971 178.263 73.7496 178.717 73.4107 179.105C72.5712 179.94 71.2028 179.829 70.0233 180.043C69.8739 180.069 69.7236 180.104 69.5775 180.142C68.2343 180.488 67.0187 181.255 65.6898 181.668C63.2367 182.431 60.5637 182.026 58.0318 181.595C58.1224 180.865 58.0106 180.124 57.7077 179.449C57.4049 178.774 56.9219 178.189 56.3083 177.754C57.9178 170.898 58.1535 163.807 57.0025 156.865C56.7652 155.762 56.6487 154.639 56.655 153.512C56.7261 152.667 56.8767 151.83 57.105 151.011C58.402 145.713 61.0918 140.617 61.1707 135.177C61.2261 131.286 61.2807 127.393 61.0683 123.51C60.9133 120.764 60.6281 118.03 60.2128 115.309C60.1353 114.747 60.026 114.189 59.8854 113.638C59.7629 113.207 59.6092 112.78 59.5303 112.339C59.4161 111.729 59.4556 111.099 59.3842 110.482C59.171 108.628 58.02 107.026 57.2552 105.315C56.9358 104.609 56.7283 103.86 56.6399 103.095C56.5494 102.556 56.5792 102.005 56.7275 101.479C56.8758 100.952 57.1391 100.463 57.4995 100.043C58.852 100.188 59.9442 100.184 61.1271 100.234C61.7063 100.257 62.3099 100.295 62.9689 100.367C63.9413 100.402 64.8935 100.646 65.7569 101.08C66.5076 101.592 67.1248 102.266 67.5594 103.048C67.7726 103.38 67.9732 103.716 68.1663 104.055C69.9368 107.172 70.9031 110.604 71.8962 114.055C74.1809 121.982 75.5147 130.136 75.8713 138.358C76.072 142.969 75.9662 147.588 76.0527 152.207C76.218 160.81 77.0223 169.647 74.136 177.774Z" fill="black"/>
  <path d="M88.6749 103.036V105.042C88.6565 111.484 88.6394 117.926 88.6237 124.368C88.6712 127.019 88.5765 129.671 88.34 132.312C87.6423 139.178 85.0474 145.825 85.3236 152.697C85.5209 157.69 85.7182 162.739 84.6806 167.638C84.286 169.515 83.7109 171.36 83.4263 173.256C83.0658 175.154 83.2472 177.111 83.951 178.916C84.511 180.179 85.4537 181.372 85.4025 182.732C85.3444 183.316 85.1453 183.878 84.8213 184.374C84.4972 184.869 84.0574 185.284 83.5371 185.585C82.4887 186.174 81.3263 186.549 80.122 186.687C78.6195 186.927 77.0982 187.041 75.5753 187.026C73.3925 187.003 70.9101 186.539 69.7827 184.738C69.1118 183.458 68.9911 181.973 69.4469 180.607C69.4905 180.445 69.5308 180.291 69.5812 180.134C69.9514 178.933 70.4803 177.779 70.764 176.556C71.2209 174.63 71.0747 172.616 70.3443 170.77C70.21 170.427 69.7885 169.779 69.4099 169.821C68.8918 168.28 68.6259 166.67 68.6216 165.05L68.0659 154.104C67.8427 151.725 67.9327 149.329 68.3337 146.972C68.7282 145.065 69.5677 143.25 69.8045 141.316C69.9103 140.154 69.9036 138.985 69.7843 137.824C69.3423 131.843 68.5418 125.892 67.3867 120.002C67.3485 119.702 67.2449 119.413 67.0828 119.155C66.8226 118.804 66.3692 118.64 66.0502 118.334C65.3786 117.701 65.4432 116.667 65.2854 115.772C65.0017 114.154 63.8935 112.812 63.0381 111.401C61.6763 109.127 60.914 106.563 60.8184 103.937C60.7698 102.695 60.8744 101.452 61.1299 100.233C61.1618 100.071 61.2012 99.9086 61.2398 99.7414C69.835 99.2101 78.4652 99.7224 86.9288 101.266C87.2423 101.279 87.549 101.36 87.826 101.503C88.1031 101.645 88.3435 101.846 88.5297 102.09C88.6557 102.39 88.7072 102.714 88.68 103.036L88.6749 103.036Z" fill="#3F3D56"/>
  <path d="M137.088 133.055C141.331 140.282 145.59 147.517 148.965 155.157C151.705 161.355 153.953 167.956 158.55 173.021C162.856 177.761 168.803 180.721 174.642 183.57L169.414 179.115C164.165 174.634 158.807 170.027 155.478 164.073C153.664 160.832 152.513 157.288 151.14 153.836C147.643 144.959 142.773 136.646 136.696 129.183C135.006 127.038 133.189 124.991 131.253 123.051C132.59 126.483 135.204 129.852 137.088 133.055Z" fill="#E3E8F4"/>
  <path d="M115.445 182.549C116.602 185.149 118.125 187.581 119.972 189.776C120.14 188.517 119.246 187.389 118.54 186.321C117.348 184.338 116.398 182.227 115.71 180.032C114.992 178.03 114.325 175.269 112.8 173.685C112.018 176.397 114.262 180.219 115.445 182.549Z" fill="#E3E8F4"/>
  <path d="M100.653 134.974C101.024 136.881 101.241 138.79 101.738 140.653C102.226 142.329 102.825 143.972 103.532 145.573L111.843 165.611C111.772 162.888 110.266 160.424 109.308 157.869C108.125 154.73 107.699 151.385 106.733 148.158C105.945 145.542 104.802 143.043 103.973 140.439C102.822 136.766 102.337 132.928 101.433 129.191C100.618 125.956 99.5997 122.772 98.3849 119.656C97.949 118.141 97.123 116.758 95.984 115.636C94.765 114.618 92.7225 114.328 91.5715 115.43C89.9513 116.983 92.411 117.954 93.2161 118.965C96.9538 123.669 99.4982 129.156 100.645 134.984L100.653 134.974Z" fill="#E3E8F4"/>
  <path d="M111.809 93.5769C112.25 94.0073 112.634 94.489 112.952 95.0109C113.288 95.855 113.683 96.6757 114.135 97.4672C113.149 96.1285 112.024 94.8913 110.777 93.7751C110.021 93.1458 109.2 92.6042 108.439 91.9749C107.86 91.4942 105.32 89.4122 105.825 88.7025C108.047 89.7971 110.117 91.8108 111.809 93.5769Z" fill="#E3E8F4"/>
  <path d="M85.4217 21.9198C85.247 22.7002 84.8983 23.4342 84.4 24.0708C83.1461 26.086 82.4469 28.3783 82.3692 30.7292C82.3458 31.4183 82.3775 32.1081 82.4641 32.7924C82.496 33.0482 82.5036 33.3682 82.2752 33.5021C82.1521 33.5574 82.0143 33.5747 81.8807 33.5517C81.6129 33.5289 81.3526 33.4981 81.0924 33.4567C76.8772 32.8071 73.1867 30.0244 68.9438 29.322C69.2058 29.2023 69.4381 29.0297 69.6252 28.8158C69.8123 28.6019 69.9498 28.3517 70.0285 28.0821C70.1423 27.7746 70.228 27.458 70.2846 27.1361C70.3475 26.7967 70.3945 26.4572 70.4306 26.1251C70.6984 23.6688 70.3122 21.4107 70.1704 18.9171C70.0083 16.0109 73.719 16.9682 75.8958 16.9301C77.6445 16.818 79.4007 16.9529 81.1092 17.3304C81.9628 17.524 82.7634 17.8929 83.4566 18.4122C84.1499 18.9314 84.7196 19.5887 85.127 20.3397C85.3694 20.8315 85.4711 21.3771 85.4217 21.9198Z" fill="#CB8C8E"/>
  <path d="M82.2757 33.4986C82.1525 33.5538 82.0148 33.571 81.8811 33.5481C81.6133 33.5254 81.353 33.4945 81.092 33.4531C80.7293 33.1283 80.3784 32.7816 80.0434 32.4235C79.3062 31.5324 78.4993 30.6973 77.6298 29.9258C76.217 28.8641 74.4897 28.2679 72.7011 28.2246C71.8072 28.2479 70.9129 28.1996 70.0273 28.0801C70.141 27.7727 70.2267 27.4561 70.2833 27.1341C70.3463 26.7947 70.3941 26.4553 70.4294 26.1232C70.9237 26.0616 71.4212 26.0272 71.9195 26.0201C72.5035 25.9385 73.0956 25.9271 73.6825 25.986C74.642 26.2089 75.5571 26.5825 76.3916 27.0919C77.6406 27.6222 78.8536 28.2286 80.0232 28.9075C80.37 29.1438 80.7016 29.4029 81.0307 29.67C81.4806 30.0248 81.9256 30.383 82.3739 30.7337C82.3504 31.4228 82.382 32.1127 82.4687 32.797C82.4956 33.0422 82.5032 33.3662 82.2757 33.4986Z" fill="#E3E8F4"/>
  <path opacity="0.1" d="M88.675 103.035V105.042C87.0346 105.087 85.359 105.32 83.7261 105.423C82.1923 105.53 80.6544 105.534 79.1164 105.515C77.9134 105.544 76.7118 105.415 75.5443 105.133C74.7048 104.897 73.9156 104.508 73.0795 104.264C71.4769 103.86 69.8045 103.784 68.1701 104.043C66.8134 104.196 65.445 104.425 64.0925 104.542C63.2162 104.661 62.3232 104.572 61.4901 104.283C61.2567 104.181 61.0321 104.062 60.8185 103.925C60.4851 103.709 60.1374 103.514 59.7775 103.341C58.7727 102.997 57.6926 102.91 56.6428 103.09C56.5523 102.551 56.5823 102 56.7306 101.474C56.8789 100.948 57.1421 100.458 57.5024 100.039C58.8549 100.183 59.9471 100.18 61.1299 100.23C61.1618 100.067 61.2013 99.9049 61.2399 99.7377C69.8351 99.2065 78.4653 99.7188 86.9288 101.263C87.2424 101.275 87.549 101.356 87.8261 101.499C88.1032 101.641 88.3436 101.842 88.5298 102.087C88.6546 102.387 88.7044 102.712 88.675 103.035Z" fill="black"/>
  <path d="M70.7802 27.4813C69.9108 27.5044 69.0819 27.8419 68.4573 28.4273C68.2971 28.5984 68.194 28.8124 68.1617 29.0411C68.1945 29.3992 68.266 29.753 68.375 30.0967C68.3838 30.5584 68.2581 31.0131 68.0123 31.4089C67.5078 32.5847 66.7803 33.6587 65.8674 34.5757C65.4728 34.9305 65.0237 35.2253 64.6257 35.5712C64.1727 35.9864 63.7571 36.4382 63.3833 36.9216C62.4745 37.8718 61.7944 39.0049 61.3919 40.2394C60.8597 42.4172 59.7516 44.4731 59.0262 46.6014C58.2104 48.7056 57.9398 50.971 58.2379 53.1997C58.4235 54.2447 58.7979 55.2475 59.0581 56.2772C59.4779 57.9288 59.5946 59.6372 60.0361 61.2807C60.3165 62.307 60.7187 63.2985 61.0217 64.3322C61.6836 66.546 61.8622 68.8687 61.5464 71.1529C61.2509 73.239 61.7479 75.4565 60.8748 77.385C60.5169 78.0954 60.1221 78.7878 59.6919 79.4597C59.1355 80.4481 58.6391 81.4669 58.2052 82.5112L55.7706 88.0644C55.2876 89.1099 54.8625 90.1794 54.4971 91.2686C53.4838 94.4573 53.4796 97.8555 53.6215 101.185C53.6384 101.288 53.6144 101.394 53.5543 101.482C53.4796 101.558 53.31 101.535 53.3025 101.432C53.2714 101.623 53.1446 101.955 53.1169 102.145C55.1872 103.015 57.7342 101.699 59.7969 102.588C60.3963 102.847 60.905 103.278 61.5086 103.53C62.341 103.821 63.2344 103.912 64.1111 103.793C67.1199 103.549 70.2076 102.649 73.0938 103.51C73.9333 103.758 74.7183 104.147 75.5586 104.384C76.7276 104.666 77.9305 104.794 79.1349 104.766C80.6729 104.788 82.2109 104.784 83.7447 104.674C87.0448 104.442 90.5111 103.743 93.551 105.009C94.5332 104.312 94.6079 103.228 94.6474 102.054C94.7212 99.8416 94.7948 97.6308 94.8681 95.4211L95.6842 71.0303C95.7995 69.3503 95.7348 67.6632 95.4911 65.996C94.9353 62.9753 93.2244 60.2746 91.5454 57.6851L83.7027 45.4808C83.1822 44.6688 83.7027 43.7683 84.0612 42.8824C84.5615 41.607 84.8998 40.2775 85.0686 38.9231C85.186 38.4344 85.195 37.9271 85.095 37.4347C84.995 36.9423 84.7883 36.476 84.4885 36.0665C84.0466 35.7001 83.5789 35.3637 83.089 35.0597C82.4835 34.5054 81.9936 33.8438 81.6459 33.1109C80.5518 31.202 78.9632 29.6011 77.0362 28.4654C75.1224 27.4726 72.9206 27.1262 70.7802 27.4813Z" fill="#3F3D56"/>
  <path opacity="0.1" d="M78.8701 38.5488C76.0821 39.2926 74.3553 42.0306 73.5905 44.7273C72.6255 48.5439 72.6717 52.5343 73.7248 56.3291C74.7798 60.105 76.1847 63.7811 77.9223 67.313C78.3054 68.1866 78.737 69.0396 79.2152 69.8683C80.5424 72.1122 82.5702 73.8919 85.0078 74.9522C87.4589 75.9988 90.2269 76.1173 92.764 75.2844C93.2305 75.1398 93.6699 74.9235 94.0652 74.6437C95.4613 73.606 95.6779 71.6839 95.7803 69.9828L96.1312 64.0219C96.167 63.7075 96.1511 63.3896 96.0842 63.08C95.9262 62.6571 95.6837 62.2684 95.3706 61.9359C94.2158 60.49 93.3591 58.8429 92.8471 57.0843C92.5795 55.8316 92.2115 54.6009 91.7465 53.4035C91.4149 52.7019 90.9582 52.0604 90.5989 51.3735C89.9096 49.8468 89.426 48.2408 89.16 46.5949C88.8365 45.176 88.45 43.7713 88.0006 42.3806C87.7926 41.6103 87.452 40.8793 86.9932 40.2182C85.9086 38.7997 83.9844 38.2881 82.2021 37.93C81.3595 37.6904 80.4699 37.6486 79.6072 37.8082C78.6604 38.1499 77.8237 38.7275 77.1819 39.4826" fill="black"/>
  <path d="M79.2649 38.168C76.4769 38.9118 74.75 41.6498 73.9852 44.3465C73.0202 48.1631 73.0664 52.1535 74.1196 55.9483C75.1745 59.7245 76.5793 63.4009 78.3171 66.933C78.7005 67.8066 79.1324 68.6597 79.6108 69.4883C80.9381 71.7322 82.9659 73.5118 85.4034 74.5723C87.8545 75.6189 90.6225 75.7375 93.1596 74.9044C93.626 74.7597 94.0654 74.5434 94.4608 74.2637C95.8569 73.226 96.0735 71.304 96.1759 69.6028L96.5269 63.642C96.5625 63.3275 96.5467 63.0097 96.4798 62.7C96.3218 62.2771 96.0793 61.8884 95.7663 61.5559C94.6114 60.1101 93.7547 58.463 93.2427 56.7042C92.975 55.4516 92.607 54.221 92.1421 53.0235C91.8113 52.3219 91.3538 51.6812 90.9945 50.9935C90.3052 49.4668 89.8216 47.8608 89.5556 46.2149C89.2321 44.796 88.8456 43.3913 88.3962 42.0006C88.1881 41.2303 87.8475 40.4993 87.3888 39.8383C86.3042 38.4197 84.38 37.9081 82.5977 37.55C81.7551 37.3104 80.8655 37.2686 80.0028 37.4283C79.056 37.77 78.2194 38.3476 77.5775 39.1026" fill="#3F3D56"/>
  <path d="M106.469 54.0875C105.474 52.0748 105.288 49.7756 105.949 47.6378C107.494 48.0195 107.92 50.224 109.497 50.6162C109.73 50.6731 109.978 50.6845 110.215 50.7348C110.753 50.8996 111.249 51.1713 111.672 51.5325C112.095 51.8937 112.436 52.3363 112.671 52.8322C113.59 54.2978 114.15 55.9464 114.312 57.653C114.467 59.3669 114.053 61.0841 113.129 62.5542C113.168 62.4974 110.369 59.7204 110.132 59.4345C109.64 58.8775 109.159 58.3091 108.689 57.7293C108.194 57.1922 107.749 56.614 107.36 56.0014C107.226 55.7578 107.199 55.4752 107.08 55.2154C106.889 54.8313 106.66 54.4651 106.469 54.0875Z" fill="#CB8C8E"/>
  <path d="M99.2778 76.5205C98.7969 80.1818 97.0731 83.585 94.3767 86.1963C94.1105 86.5161 93.7761 86.7767 93.3965 86.9604C93.0168 87.1441 92.6007 87.2466 92.1764 87.2608C91.2655 87.1691 90.6384 86.3676 89.9878 85.7351C88.8049 84.591 87.2275 83.9081 85.9145 82.9093C85.2355 82.3683 84.5929 81.786 83.9904 81.166C81.9958 79.3194 80.182 77.2984 78.5722 75.1288C77.7743 73.8332 76.8892 72.5898 75.9227 71.4066C75.1067 70.5134 74.1245 69.7704 73.2648 68.9162C72.3542 68.0993 71.7193 67.0359 71.4431 65.8647C71.2265 64.6215 69.8656 63.8128 69.0085 62.8603C67.9535 61.6525 67.1916 60.2315 66.7788 58.7016C66.3659 57.1717 66.3125 55.5717 66.6226 54.0193C66.6482 53.6799 66.7615 53.3523 66.9522 53.0664C67.1429 52.7805 67.4049 52.5455 67.714 52.3831C67.9772 52.3055 68.2555 52.2885 68.5266 52.3336C70.1905 52.5585 71.4246 53.8934 72.5017 55.1447C73.2397 55.9628 73.9182 56.8294 74.5325 57.7382C75.7323 59.8702 76.576 62.1722 77.0325 64.559C77.3759 65.9394 78.7955 66.9544 79.8163 67.9694L82.3793 70.5134C82.9905 71.1199 83.6017 71.7314 84.2716 72.2754C86.1638 73.7077 88.2627 74.8641 90.5016 75.7077C90.6956 75.0223 90.9875 74.3664 91.3688 73.7589C91.5639 73.4599 91.8216 73.2036 92.1252 73.0066C92.4288 72.8095 92.7716 72.6761 93.1317 72.6148C94.1492 72.489 95.0794 73.141 95.8921 73.7589L98.9084 76.0471C99.0805 76.1779 99.3013 76.3224 99.2778 76.5205Z" fill="#FBBEBE"/>
  <path opacity="0.1" d="M104.077 53.759C104.447 54.1429 104.74 54.5904 104.94 55.0785C105.61 56.4163 105.913 57.8984 105.819 59.3821C105.715 60.1817 105.533 60.9701 105.275 61.7368L104.337 64.8606C102.964 69.7302 101.331 74.5275 99.4434 79.233C97.8231 77.203 94.9872 76.5858 92.6845 75.3159C92.4574 75.207 92.2551 75.0555 92.0893 74.8701C91.8866 74.5837 91.7832 74.2426 91.7938 73.8957C91.8184 72.9576 92.0299 72.0329 92.4167 71.1723C93.8522 67.446 95.8435 63.8074 96.0761 59.8408C96.0852 59.103 96.1339 58.366 96.2222 57.633C96.3889 56.7594 96.7459 55.9301 97.2694 55.2001C97.7929 54.4702 98.471 53.8563 99.2587 53.3993C100.004 52.9775 100.865 52.7859 101.726 52.8502C102.587 52.9145 103.407 53.2315 104.077 53.759Z" fill="black"/>
  <path d="M103.682 52.8741C104.051 53.2588 104.344 53.7061 104.546 54.1936C105.215 55.5315 105.518 57.0135 105.424 58.4972C105.322 59.3068 105.14 60.1052 104.88 60.8812L103.942 64.005C102.57 68.8746 100.936 73.6719 99.0485 78.3773C97.4282 76.3473 94.5932 75.7302 92.2896 74.4603C92.0626 74.3526 91.8602 74.2022 91.6944 74.0177C91.493 73.7307 91.3897 73.39 91.3989 73.0433C91.4233 72.1039 91.6347 71.1778 92.0218 70.3158C93.4573 66.5896 95.4486 62.9551 95.6812 58.9844C95.6902 58.2476 95.7389 57.5117 95.8273 56.7798C95.9932 55.9055 96.3498 55.0754 96.8734 54.3448C97.397 53.6142 98.0755 52.9999 98.8638 52.5428C99.6054 52.1147 100.465 51.917 101.327 51.9762C102.188 52.0355 103.01 52.3489 103.682 52.8741Z" fill="#F4F6FB"/>
  <path d="M94.5461 32.6024C95.257 33.4911 95.6561 34.5761 95.6853 35.6994C96.128 38.5643 95.9317 41.4878 95.1094 44.2733C94.6888 45.6613 93.9713 46.9484 93.0033 48.0509C92.0353 49.1535 90.8385 50.047 89.4906 50.6734C93.3078 51.2719 97.842 51.6478 100.429 48.8619C100.871 48.2669 101.394 47.7331 101.986 47.2752C104.726 45.6049 108.204 50.01 111.178 48.7587C113.149 47.9346 113.291 45.3565 113.149 43.2972L112.609 35.6693C112.333 31.7718 111.982 27.6598 109.675 24.4719C107.593 21.5844 104.182 19.8492 100.716 18.7506C98.224 17.9881 95.4477 17.4879 93.0224 18.4534C89.9271 19.6811 83.9557 24.5864 83.9885 28.2136C84.0573 33.602 91.9436 29.9407 94.5461 32.6024Z" fill="#3F3D56"/>
  <path d="M96.8961 62.3786C97.3387 62.3959 97.7811 62.341 98.2049 62.2162C98.8765 61.9726 99.3877 61.3734 100.11 61.2743C100.472 61.2248 100.937 61.2743 101.095 60.9422C101.142 60.7877 101.16 60.6261 101.146 60.4656C101.202 59.5391 102.406 59.2183 103.217 58.723C103.728 58.3754 104.182 57.9533 104.56 57.4717L107.36 54.2716C107.617 53.9057 107.991 53.6312 108.424 53.4897C108.92 53.4363 109.417 53.5734 109.809 53.8713C111.438 54.9192 112.743 56.375 113.585 58.0836C114.426 59.7922 114.773 61.6897 114.588 63.5739C114.581 63.834 114.511 64.0889 114.383 64.3177C113.946 64.9811 112.916 64.8211 112.139 65.0574C110.652 65.5072 110.199 67.3724 108.925 68.2388C108.354 68.6204 107.648 68.7845 107.092 69.1807C106.547 69.6793 106.049 70.2245 105.605 70.8096C104.743 71.6251 103.727 72.2724 102.612 72.7161L99.3122 74.2719C98.6628 74.5987 97.986 74.8717 97.2889 75.088C96.0854 75.3603 94.8473 75.4618 93.6136 75.3893L91.1967 75.3584C90.9242 75.3816 90.6506 75.3286 90.4084 75.2057C90.266 75.1027 90.1466 74.9729 90.0574 74.8241C88.8736 72.9513 88.4956 70.7044 89.0047 68.5652C89.3716 66.8032 90.2346 64.3696 91.5324 63.0314C92.6607 61.8792 95.3346 62.4095 96.8961 62.3786Z" fill="#3F3D56"/>
  <path d="M87.2435 12.9616C87.1718 12.5991 87.2214 12.2238 87.3852 11.8905C87.549 11.5571 87.8184 11.2829 88.1544 11.1078L91.1514 8.93003L90.5361 8.06443L91.6912 7.1071C91.5964 6.9797 91.4655 6.8816 91.3143 6.82468C91.163 6.76775 90.998 6.75443 90.8391 6.78634C91.0204 5.60813 89.9794 4.61263 88.9922 3.91025C87.0366 2.38796 84.6786 1.42719 82.1863 1.13727C80.9757 1.06095 79.761 1.22903 78.5504 1.13727C76.9176 1.03821 75.3326 0.503932 73.6964 0.443032C72.0602 0.382133 70.2225 1.0033 69.5366 2.42592C69.3161 3.0692 69.1317 3.72354 68.9842 4.38608C68.4914 5.81276 67.1902 6.80016 66.0821 7.85657C64.9739 8.91298 63.9447 10.3283 64.2528 11.8004C64.374 12.2751 64.564 12.7307 64.8169 13.154L70.9285 24.5691C71.133 24.1988 71.4262 23.8812 71.7836 23.643C72.141 23.4048 72.5522 23.2529 72.9828 23.2001C73.9902 23.0856 74.954 23.52 75.9714 23.6426C76.726 23.7223 77.4892 23.6253 78.1968 23.3597C78.9045 23.0942 79.5356 22.6679 80.0372 22.1169C81.3854 20.6138 81.7162 16.7772 84.0551 16.3955C84.8828 16.2583 86.2084 17.2692 86.9295 16.8681C87.7757 16.4207 87.2595 13.8085 87.2435 12.9616Z" fill="#3F3D56"/>
  <g opacity="0.1">
    <path d="M91.8566 49.5058C93.2035 48.8771 94.3993 47.9825 95.3671 46.8797C96.3348 45.7768 97.053 44.4901 97.4754 43.1024C98.2991 40.3172 98.4954 37.3935 98.0513 34.5286C98.024 33.4049 97.6247 32.3194 96.9121 31.4316C94.3097 28.7618 86.4233 32.4304 86.352 27.0687C86.3083 23.9758 90.6578 19.9557 93.8437 18.0751C93.5585 18.1486 93.2781 18.2389 93.0042 18.3454C89.909 19.5732 83.9375 24.4825 83.9703 28.1057C84.0416 33.4649 91.928 29.8109 94.5304 32.4726C95.242 33.3609 95.6412 34.4461 95.6696 35.5695C96.1122 38.4332 95.9159 41.3553 95.0937 44.1394C94.6726 45.5276 93.9549 46.8148 92.987 47.9179C92.0191 49.0209 90.8226 49.9152 89.4749 50.5428C92.8422 51.069 96.7661 51.4197 99.4197 49.5854C97.0918 50.1774 94.3214 49.8907 91.8566 49.5058Z" fill="black"/>
    <path d="M104.353 46.1038C104.067 46.2876 103.811 46.5111 103.592 46.7672C106.009 46.9198 108.758 49.6433 111.179 48.6242C111.602 48.4447 111.971 48.1639 112.252 47.8082C109.601 47.7099 106.707 44.6698 104.353 46.1038Z" fill="black"/>
  </g>
  <g opacity="0.1">
    <path d="M90.5556 5.30966C90.496 5.22847 90.4331 5.14159 90.3701 5.06201C90.3691 5.15 90.3627 5.23784 90.3508 5.32508C90.4182 5.31219 90.487 5.30703 90.5556 5.30966Z" fill="black"/>
    <path d="M91.7939 7.10602C91.6991 6.97862 91.5682 6.88052 91.417 6.8236C91.2657 6.76668 91.1007 6.75337 90.9418 6.78529C90.9858 6.49718 90.9588 6.20308 90.8629 5.927L90.0469 6.60177L90.6623 7.4633L87.6652 9.64515C87.3293 9.82027 87.0598 10.0944 86.896 10.4278C86.7322 10.7612 86.6826 11.1364 86.7544 11.4989C86.7544 12.3458 87.2866 14.958 86.4353 15.4274C85.7176 15.8277 84.3886 14.8176 83.5651 14.9548C81.2228 15.3364 80.8954 19.1504 79.5472 20.6761C79.0457 21.2272 78.4145 21.6535 77.7069 21.9191C76.9993 22.1846 76.236 22.2816 75.4814 22.2019C74.474 22.0833 73.5103 21.6489 72.4928 21.7634C72.0619 21.8169 71.6503 21.969 71.2923 22.2071C70.9343 22.4452 70.6402 22.7624 70.4343 23.1324C68.4022 19.3339 66.37 15.5364 64.3378 11.7401V11.8213C64.462 12.2955 64.653 12.751 64.9053 13.1749L71.0094 24.5672C71.2153 24.1972 71.5094 23.88 71.8674 23.6419C72.2254 23.4038 72.6369 23.2517 73.0679 23.1982C74.0753 23.0837 75.039 23.5189 76.0565 23.6407C76.811 23.7204 77.5743 23.6234 78.2819 23.3578C78.9895 23.0923 79.6207 22.666 80.1222 22.115C81.4705 20.612 81.8013 16.7753 84.1401 16.3945C84.9645 16.2572 86.2935 17.2682 87.0104 16.867C87.8625 16.3977 87.3462 13.7815 87.3294 12.9386C87.2867 12.5492 87.3465 12.1556 87.5032 11.7945C87.69 11.5038 87.9419 11.2574 88.2403 11.0735L91.2373 8.89567L90.622 8.03007L91.7939 7.10602Z" fill="black"/>
  </g>
  <path opacity="0.1" d="M57.2318 89.912C56.8372 91.5408 56.5887 93.203 56.0489 94.7937C55.8122 95.5107 55.5209 96.209 55.2875 96.926C55.0784 97.5756 54.9206 98.2382 54.7594 98.9016L54.1164 101.571C54.311 101.562 54.5007 101.508 54.6704 101.416C54.8401 101.323 54.9853 101.193 55.0944 101.037C55.3104 100.723 55.4741 100.378 55.5796 100.015L56.6559 96.9179L57.4442 94.6297C58.5641 91.4068 59.6882 88.1767 60.5394 84.8735C60.7527 84.0574 60.934 83.2414 61.1187 82.4172C61.1892 82.1005 61.7064 80.3352 61.1775 80.4838C60.8031 80.587 60.1701 82.1964 59.9946 82.5471C59.6 83.2487 59.2768 83.9657 58.9578 84.694C58.2281 86.382 57.6507 88.1278 57.2318 89.912Z" fill="black"/>
  <path d="M77.7991 47.204C77.7991 47.204 76.0168 46.582 75.5794 47.3226C75.5794 47.3226 78.8207 48.4667 79.4756 50.1142C79.4756 50.1142 80.3151 49.2827 79.1675 48.2263L78.9542 46.6779L77.7991 47.204Z" fill="#00A66C"/>
  <path d="M80.7573 44.8646C80.7573 44.8646 80.8555 44.0785 80.4459 43.9949C80.0359 43.9448 79.6196 43.9932 79.2336 44.1358C78.8476 44.2785 78.5039 44.5109 78.233 44.8126C77.9621 45.1144 77.7722 45.476 77.6802 45.8657C77.5883 46.2553 77.597 46.6608 77.7057 47.0464C78.1515 50.0248 81.3609 48.9075 81.3609 48.9075L82.7688 47.3208C82.7688 47.3208 83.0685 45.2194 81.0965 44.7119L80.7573 44.8646Z" fill="#E53935"/>
  <path opacity="0.1" d="M78.5205 43.2479C78.5205 43.2479 76.0994 44.4302 77.2747 47.4013L78.1856 46.8897C78.1856 46.8897 79.3256 44.3116 78.5205 43.2479Z" fill="black"/>
  <path d="M78.4337 43.1868C78.4337 43.1868 76.0168 44.369 77.1913 47.3401L77.8973 47.7404C77.8973 47.7404 79.2422 44.2505 78.4337 43.1868Z" fill="#E53935"/>
  <path opacity="0.1" d="M82.3852 46.2377C82.5121 46.651 82.7717 47.0145 83.1264 47.2755C83.6939 47.6571 82.5623 48.5381 82.5623 48.5381C82.5623 48.5381 81.0319 50.2206 79.5854 49.4005C78.7216 47.9933 79.3722 47.7984 79.3722 47.7984C79.3722 47.7984 81.1788 45.8821 82.3852 46.2377Z" fill="black"/>
  <path d="M82.4441 46.3181C82.571 46.7313 82.8307 47.0948 83.1854 47.3558C83.7496 47.7375 82.6179 48.6185 82.6179 48.6185C82.6179 48.6185 81.0917 50.3001 79.641 49.4808C78.1903 48.6615 79.4278 47.8828 79.4278 47.8828C79.4278 47.8828 81.2176 45.9592 82.4441 46.3181Z" fill="#E53935"/>
  <path d="M76.9563 43.2245C76.9563 43.2245 75.1656 43.827 75.3083 44.6699C75.3083 44.6699 78.5731 43.5867 80.1548 44.4677C80.1548 44.4677 80.2614 43.3236 78.6881 43.1864L77.5053 42.1105L76.9563 43.2245Z" fill="#5F3839"/>
  <path d="M77.7126 39.5971C77.7126 39.5971 77.2786 38.9255 76.9244 39.1099C76.5755 39.3211 76.2855 39.6118 76.0798 39.9565C75.874 40.3013 75.7587 40.6895 75.7439 41.0873C75.7292 41.4851 75.8154 41.8804 75.9952 42.2385C76.1749 42.5966 76.4426 42.9066 76.7749 43.1414C79.05 45.1779 80.8281 42.379 80.8281 42.379L80.8675 40.2889C80.8675 40.2889 79.7317 38.4733 77.8705 39.282L77.7126 39.5971Z" fill="#E53935"/>
  <path opacity="0.1" d="M74.9523 39.7128C74.9523 39.7128 73.8399 42.1041 76.6909 43.6981L77.0653 42.748C77.0653 42.748 76.2611 40.0522 74.9523 39.7128Z" fill="black"/>
  <path d="M74.8346 39.7158C74.8346 39.7158 73.7265 42.1071 76.5732 43.7011L77.3817 43.5825C77.3817 43.5825 76.1552 40.0512 74.8346 39.7158Z" fill="#E53935"/>
  <path opacity="0.1" d="M79.8873 39.6818C80.2557 39.9264 80.6948 40.0518 81.1415 40.0399C81.8358 39.9976 81.5361 41.3634 81.5361 41.3634C81.5361 41.3634 81.4413 43.6021 79.7815 43.8465C78.2041 43.2781 78.5752 42.7324 78.5752 42.7324C78.5752 42.7324 78.7187 40.1389 79.8873 39.6818Z" fill="black"/>
  <path d="M79.9734 39.7201C80.3414 39.9656 80.7808 40.091 81.2277 40.0782C81.9219 40.0359 81.6222 41.4017 81.6222 41.4017C81.6222 41.4017 81.5316 43.6404 79.871 43.8848C78.2105 44.1292 78.6646 42.7716 78.6646 42.7716C78.6646 42.7716 78.8048 40.1781 79.9734 39.7201Z" fill="#E53935"/>
  <path d="M70.8716 43.9382C70.8716 43.9382 71.4391 43.4576 71.7506 44.0909L71.4862 45.5095L69.8575 59.557L68.8165 61.3994L70.8716 43.9382Z" fill="#00A66C"/>
  <path d="M75.698 40.6697L68.8762 62.1064L69.4949 62.4385L76.2613 40.8134L75.698 40.6697Z" fill="#00A66C"/>
  <path d="M73.8322 50.3881C73.8322 50.3881 72.3018 55.9827 70.6144 58.2141C69.64 59.3576 69.1509 60.8163 69.246 62.2952L69.7984 62.4576L74.3317 50.7754L73.8322 50.3881Z" fill="#00A66C"/>
  <path d="M79.4082 45.4636L69.6767 61.8562L70.1418 62.0998L80.1772 45.5814L79.4082 45.4636Z" fill="#00A66C"/>
  <path d="M81.5574 49.7926L69.4358 62.0123L69.7985 62.4663L82.0737 50.067L81.5574 49.7926Z" fill="#00A66C"/>
  <path d="M82.3344 50.6981C82.3344 50.6981 82.1724 50.0119 81.6284 50.1411C81.0844 50.2702 70.3706 61.7778 70.3706 61.7778L70.8239 62.1213L82.3344 50.6981Z" fill="#00A66C"/>
  <path d="M70.3465 43.1985C70.3465 43.1985 68.5173 43.6792 68.6037 44.5294C68.6037 44.5294 71.9357 43.6679 73.4502 44.6512C73.4502 44.6512 73.6391 43.5071 72.0776 43.2708L70.9812 42.1267L70.3465 43.1985Z" fill="#00A66C"/>
  <path d="M71.3728 39.6282C71.3728 39.6282 70.9782 38.9299 70.6038 39.0907C70.2411 39.2779 69.9312 39.5481 69.7013 39.8777C69.4713 40.2074 69.3284 40.5865 69.2848 40.9819C69.2413 41.3774 69.2985 41.7771 69.4514 42.1462C69.6043 42.5153 69.8484 42.8426 70.1622 43.0995C72.2837 45.2814 74.2632 42.5961 74.2632 42.5961L74.4723 40.5141C74.4723 40.5141 73.4707 38.6303 71.5541 39.3091L71.3728 39.6282Z" fill="#E53935"/>
  <path opacity="0.1" d="M68.5918 39.5597C68.5918 39.5597 67.3098 41.8706 70.0391 43.6522L70.4806 42.7289C70.4806 42.7289 69.8796 39.9827 68.5918 39.5597Z" fill="black"/>
  <path d="M68.489 39.5557C68.489 39.5557 67.2071 41.8666 69.9363 43.6481L70.7523 43.5873C70.7523 43.5873 69.7785 39.9779 68.489 39.5557Z" fill="#E53935"/>
  <path opacity="0.1" d="M73.5281 39.8615C73.8801 40.1254 74.3095 40.2749 74.7546 40.2886C75.4489 40.2886 75.0384 41.6348 75.0384 41.6348C75.0384 41.6348 74.7865 43.8622 73.1142 43.9953C71.5721 43.3238 71.9901 42.8017 71.9901 42.8017C71.9901 42.8017 72.3293 40.239 73.5281 39.8615Z" fill="black"/>
  <path d="M73.6117 39.9065C73.9624 40.1748 74.3916 40.3297 74.8383 40.349C75.5326 40.349 75.122 41.6953 75.122 41.6953C75.122 41.6953 74.8702 43.9194 73.1979 44.0501C71.5256 44.1808 72.0738 42.8597 72.0738 42.8597C72.0738 42.8597 72.4129 40.2873 73.6117 39.9065Z" fill="#E53935"/>
  <path d="M75.0147 39.9067C75.0147 39.9067 73.1846 40.3874 73.2677 41.2376C73.2677 41.2376 76.5997 40.3753 78.1142 41.3553C78.1142 41.3553 78.3073 40.2112 76.7416 39.9822L75.6452 38.8381L75.0147 39.9067Z" fill="#00A66C"/>
  <path d="M76.0327 36.3442C76.0327 36.3442 75.6381 35.6459 75.2637 35.8066C74.9011 35.9938 74.5914 36.264 74.3616 36.5936C74.1318 36.9232 73.9888 37.3022 73.9453 37.6975C73.9017 38.0928 73.9589 38.4924 74.1117 38.8615C74.2645 39.2305 74.5084 39.5578 74.8221 39.8147C76.9435 41.9965 78.9231 39.3112 78.9231 39.3112L79.1321 37.2284C79.1321 37.2284 78.1306 35.3446 76.214 36.0234L76.0327 36.3442Z" fill="#E53935"/>
  <path opacity="0.1" d="M73.2527 36.2764C73.2527 36.2764 71.9716 38.5873 74.7 40.3688L75.1415 39.4456C75.1415 39.4456 74.5573 36.6986 73.2527 36.2764Z" fill="black"/>
  <path d="M73.1462 36.2719C73.1462 36.2719 71.8685 38.5828 74.5935 40.3643L75.4095 40.2994C75.4095 40.2994 74.439 36.6949 73.1462 36.2719Z" fill="#E53935"/>
  <path opacity="0.1" d="M78.1942 36.5779C78.5432 36.8458 78.9713 36.9994 79.4165 37.0164C80.1108 37.0164 79.7003 38.3626 79.7003 38.3626C79.7003 38.3626 79.4484 40.59 77.7761 40.724C76.2381 40.0484 76.6528 39.5303 76.6528 39.5303C76.6528 39.5303 76.992 36.9555 78.1942 36.5779Z" fill="black"/>
  <path d="M78.2767 36.6187C78.6257 36.8866 79.0538 37.0402 79.499 37.0571C80.1933 37.0571 79.7827 38.4034 79.7827 38.4034C79.7827 38.4034 79.5309 40.6307 77.8586 40.7647C76.1863 40.8987 76.7345 39.5711 76.7345 39.5711C76.7345 39.5711 77.0737 36.9962 78.2767 36.6187Z" fill="#E53935"/>
  <path d="M78.9499 44.4828C78.9499 44.4828 77.1676 43.8609 76.7302 44.6014C76.7302 44.6014 79.9716 45.7455 80.6297 47.393C80.6297 47.393 81.4693 46.5616 80.3225 45.5052L80.1093 43.9567L78.9499 44.4828Z" fill="#00A66C"/>
  <path d="M81.9073 42.134C81.9073 42.134 82.0063 41.3479 81.5958 41.2643C81.1853 41.215 80.7686 41.2636 80.3821 41.4061C79.9955 41.5486 79.651 41.7806 79.3786 42.0817C79.1063 42.3828 78.9144 42.7439 78.8197 43.1334C78.725 43.5228 78.7304 43.9288 78.8355 44.3158C79.2553 47.2942 82.4949 46.1769 82.4949 46.1769L83.9028 44.5903C83.9028 44.5903 84.1983 42.4888 82.2238 41.9813L81.9073 42.134Z" fill="#E53935"/>
  <path opacity="0.1" d="M79.6836 40.5328C79.6836 40.5328 77.2625 41.7151 78.4412 44.6862L79.3478 44.1755C79.3478 44.1755 80.4728 41.5966 79.6836 40.5328Z" fill="black"/>
  <path d="M79.5899 40.4709C79.5899 40.4709 77.1688 41.6532 78.3441 44.6243L79.0501 45.0246C79.0501 45.0246 80.3942 41.5347 79.5899 40.4709Z" fill="#E53935"/>
  <path opacity="0.1" d="M83.5329 43.5225C83.6617 43.9349 83.921 44.2978 84.2742 44.5602C84.8417 44.9419 83.71 45.8229 83.71 45.8229C83.71 45.8229 82.1805 47.5045 80.7332 46.6852C79.8735 45.2821 80.5199 45.0832 80.5199 45.0832C80.5199 45.0832 82.3299 43.1636 83.5329 43.5225Z" fill="black"/>
  <path d="M83.5798 43.6032C83.7072 44.0171 83.9667 44.3815 84.3211 44.6442C84.8886 45.0258 83.757 45.9028 83.757 45.9028C83.757 45.9028 82.2274 47.5844 80.7801 46.7684C79.3328 45.9523 80.5668 45.1663 80.5668 45.1663C80.5668 45.1663 82.3734 43.2451 83.5798 43.6032Z" fill="#E53935"/>
  <path d="M81.8101 49.1554C81.8101 49.1554 80.0278 48.5334 79.5938 49.2772C79.5938 49.2772 82.8309 50.4213 83.49 52.0689C83.49 52.0689 84.3295 51.2333 83.1827 50.181L82.9694 48.6284L81.8101 49.1554Z" fill="#00A66C"/>
  <path d="M84.7671 46.802C84.7671 46.802 84.8653 46.016 84.4556 45.9364C84.0458 45.8863 83.6296 45.9347 83.2437 46.0774C82.8579 46.2201 82.5144 46.4526 82.2437 46.7544C81.9731 47.0562 81.7836 47.418 81.692 47.8076C81.6004 48.1972 81.6097 48.6026 81.7188 48.9879C82.1646 51.9704 85.3741 50.8555 85.3741 50.8555L86.7819 49.2648C86.7819 49.2648 87.0774 47.1674 85.1029 46.6599L84.7671 46.802Z" fill="#E53935"/>
  <path opacity="0.1" d="M82.5311 45.2008C82.5311 45.2008 80.11 46.3831 81.2887 49.3582L82.1953 48.8475C82.1953 48.8475 83.3396 46.2645 82.5311 45.2008Z" fill="black"/>
  <path d="M82.4442 45.1392C82.4442 45.1392 80.023 46.3214 81.1983 49.2925L81.9044 49.6928C81.9044 49.6928 83.2526 46.2037 82.4442 45.1392Z" fill="#E53935"/>
  <path opacity="0.1" d="M86.3869 48.1904C86.5137 48.6036 86.7715 48.9677 87.124 49.2314C87.6915 49.613 86.5598 50.49 86.5598 50.49C86.5598 50.49 85.0302 52.1716 83.5829 51.3556C82.7233 49.9484 83.3697 49.7535 83.3697 49.7535C83.3697 49.7535 85.204 47.8315 86.3869 48.1904Z" fill="black"/>
  <path d="M86.4391 48.2747C86.566 48.688 86.8256 49.0514 87.1804 49.3124C87.7479 49.6933 86.6162 50.5751 86.6162 50.5751C86.6162 50.5751 85.0867 52.2567 83.6394 51.4374C82.192 50.6181 83.4261 49.8354 83.4261 49.8354C83.4261 49.8354 85.2319 47.9158 86.4391 48.2747Z" fill="#E53935"/>
  <path d="M82.1721 50.7233C82.1721 50.7233 80.3898 50.1013 79.9524 50.8451C79.9524 50.8451 83.1938 51.9892 83.8486 53.6367C83.8486 53.6367 84.6881 52.8012 83.5447 51.7488L83.3281 50.1963L82.1721 50.7233Z" fill="#00A66C"/>
  <path d="M85.1304 48.3698C85.1304 48.3698 85.2286 47.5878 84.8189 47.5042C84.4089 47.4539 83.9925 47.5021 83.6064 47.6447C83.2203 47.7873 82.8766 48.0197 82.6056 48.3215C82.3346 48.6233 82.1447 48.985 82.0528 49.3748C81.9609 49.7645 81.9698 50.1701 82.0788 50.5557C82.5203 53.5382 85.734 52.4233 85.734 52.4233L87.141 50.835C87.141 50.835 87.4407 48.7335 85.4687 48.226L85.1304 48.3698Z" fill="#E53935"/>
  <path opacity="0.1" d="M82.8943 46.7719C82.8943 46.7719 80.4732 47.9501 81.6561 50.9252L82.5669 50.4145C82.5669 50.4145 83.7028 47.8323 82.8943 46.7719Z" fill="black"/>
  <path d="M82.807 46.7073C82.807 46.7073 80.39 47.8896 81.5645 50.8607L82.2705 51.2667C82.2705 51.2667 83.6272 47.771 82.807 46.7073Z" fill="#E53935"/>
  <path opacity="0.1" d="M86.7582 49.759C86.8855 50.173 87.145 50.5374 87.4994 50.8C88.0669 51.1816 86.9353 52.0586 86.9353 52.0586C86.9353 52.0586 85.4049 53.7443 83.9584 52.9242C83.0946 51.517 83.7452 51.3221 83.7452 51.3221C83.7452 51.3221 85.5518 49.4001 86.7582 49.759Z" fill="black"/>
  <path d="M86.802 49.8423C86.9289 50.2556 87.1886 50.619 87.5433 50.88C88.1117 51.2617 86.9758 52.1427 86.9758 52.1427C86.9758 52.1427 85.4496 53.8243 84.0023 53.005C82.555 52.1857 83.7857 51.403 83.7857 51.403C83.7857 51.403 85.5957 49.4834 86.802 49.8423Z" fill="#E53935"/>
  <path d="M73.4857 49.7008C73.4857 49.7008 71.7034 49.0755 71.2661 49.8193C71.2661 49.8193 74.5074 50.9634 75.1622 52.611C75.1622 52.611 76.0017 51.7795 74.8549 50.7231L74.6417 49.1705L73.4857 49.7008Z" fill="#00A66C"/>
  <path d="M76.4475 47.3441C76.4475 47.3441 76.5457 46.5622 76.136 46.4785C75.7261 46.4284 75.3097 46.4768 74.9237 46.6194C74.5378 46.7621 74.1941 46.9945 73.9232 47.2963C73.6522 47.598 73.4624 47.9597 73.3704 48.3493C73.2784 48.7389 73.2872 49.1445 73.3959 49.53C73.8416 52.5084 77.0511 51.3976 77.0511 51.3976L78.4589 49.811C78.4589 49.811 78.7586 47.7095 76.7875 47.202L76.4475 47.3441Z" fill="#E53935"/>
  <path opacity="0.1" d="M74.2115 45.7456C74.2115 45.7456 71.798 46.9279 72.9817 49.899L73.8925 49.3882C73.8925 49.3882 75.0158 46.8093 74.2115 45.7456Z" fill="black"/>
  <path d="M74.1281 45.6849C74.1281 45.6849 71.7112 46.8632 72.8857 49.8383L73.5917 50.2199C73.5917 50.2199 74.9534 46.7495 74.1281 45.6849Z" fill="#E53935"/>
  <path opacity="0.1" d="M78.0753 48.7323C78.2016 49.1467 78.4612 49.5114 78.8166 49.7733C79.3841 50.1549 78.2524 51.0359 78.2524 51.0359C78.2524 51.0359 76.7229 52.7176 75.2755 51.8975C74.4117 50.4903 75.0623 50.2954 75.0623 50.2954C75.0623 50.2954 76.8689 48.3734 78.0753 48.7323Z" fill="black"/>
  <path d="M78.1072 48.8176C78.2341 49.2309 78.4937 49.5944 78.8485 49.8554C79.4126 50.237 78.281 51.118 78.281 51.118C78.281 51.118 76.7547 52.8005 75.3041 51.9804C73.8534 51.1603 75.0908 50.3783 75.0908 50.3783C75.0908 50.3783 76.9243 48.4571 78.1072 48.8176Z" fill="#E53935"/>
  <path d="M74.4629 44.5637C74.4629 44.5637 72.6765 43.9384 72.2424 44.6822C72.2424 44.6822 75.4838 45.8263 76.1386 47.4739C76.1386 47.4739 76.9781 46.6424 75.8313 45.586L75.6181 44.0334L74.4629 44.5637Z" fill="#00A66C"/>
  <path d="M77.4215 42.195C77.4215 42.195 77.5198 41.4326 77.1101 41.3294C76.7004 41.2263 73.92 41.4017 74.3498 44.381C74.7796 47.3602 78.005 46.2485 78.005 46.2485L79.4128 44.6619C79.4128 44.6619 79.7083 42.5604 77.7338 42.053L77.4215 42.195Z" fill="#E53935"/>
  <path opacity="0.1" d="M75.1808 40.6083C75.1808 40.6083 72.7639 41.7865 73.9392 44.7616L74.85 44.2509C74.85 44.2509 75.9892 41.672 75.1808 40.6083Z" fill="black"/>
  <path d="M75.0981 40.5471C75.0981 40.5471 72.677 41.7253 73.8556 44.7005L74.5575 45.1008C74.5575 45.1008 75.9066 41.6108 75.0981 40.5471Z" fill="#E53935"/>
  <path opacity="0.1" d="M79.0489 43.5946C79.1765 44.0084 79.4359 44.3728 79.7902 44.6356C80.3586 45.0172 79.2261 45.8982 79.2261 45.8982C79.2261 45.8982 77.6957 47.5798 76.2492 46.7605C75.3853 45.3533 76.036 45.1585 76.036 45.1585C76.036 45.1585 77.8392 43.2357 79.0489 43.5946Z" fill="black"/>
  <path d="M79.0888 43.6786C79.2157 44.0919 79.4753 44.4554 79.83 44.7164C80.3976 45.098 79.2659 45.979 79.2659 45.979C79.2659 45.979 77.7363 47.6607 76.289 46.8405C74.8417 46.0204 76.0758 45.2385 76.0758 45.2385C76.0758 45.2385 77.8824 43.34 79.0888 43.6786Z" fill="#E53935"/>
  <path d="M68.5248 52.3323C68.5248 52.3323 73.4107 52.8552 76.0644 61.0743C78.718 69.2933 70.37 63.1448 70.37 63.1448C70.37 63.1448 68.1696 63.572 67.8263 59.2814C67.574 56.9431 67.8116 54.5797 68.5248 52.3323Z" fill="#FBBEBE"/>
  <path d="M69.0686 58.3645L67.8975 58.8669C67.761 58.9254 67.6994 59.0797 67.7598 59.2115C67.8203 59.3433 67.9799 59.4027 68.1164 59.3442L69.2874 58.8417C69.4239 58.7832 69.4855 58.6289 69.4251 58.4971C69.3647 58.3653 69.205 58.3059 69.0686 58.3645Z" fill="#E3E8F4"/>
</svg>