<svg width="95" height="95" viewBox="0 0 95 95" fill="none" xmlns="http://www.w3.org/2000/svg">
<path d="M47.2067 83.5245C66.2765 83.5245 81.7357 68.7896 81.7357 50.6133C81.7357 32.437 66.2765 17.7021 47.2067 17.7021C28.1369 17.7021 12.6777 32.437 12.6777 50.6133C12.6777 68.7896 28.1369 83.5245 47.2067 83.5245Z" fill="#4F134C" fill-opacity="0.05"/>
<path d="M47.2068 94.4227C72.6334 94.4227 93.2457 74.7762 93.2457 50.5409C93.2457 26.3057 72.6334 6.65918 47.2068 6.65918C21.7803 6.65918 1.16797 26.3057 1.16797 50.5409C1.16797 74.7762 21.7803 94.4227 47.2068 94.4227Z" fill="#4F134C" fill-opacity="0.05"/>
<path d="M30.093 94.6263C46.7129 94.6263 60.186 93.745 60.186 92.6579C60.186 91.5707 46.7129 90.6895 30.093 90.6895C13.4731 90.6895 0 91.5707 0 92.6579C0 93.745 13.4731 94.6263 30.093 94.6263Z" fill="#E6E6E6"/>
<path d="M42.089 55.3402C42.3841 53.7568 43.913 52.8303 45.4379 52.4585C47.2004 52.0908 49.0182 52.0296 50.8035 52.278C54.369 52.6637 57.8708 53.7056 61.4888 53.5447C64.635 53.3937 67.6846 52.4584 70.3328 50.8321C72.9965 49.1999 75.143 46.9065 76.5416 44.1986C77.9498 41.4731 78.5744 38.4404 78.3516 35.4098C78.3223 35.033 78.2772 34.658 78.2187 34.2837C78.1788 34.0158 77.7536 34.1298 77.7921 34.3958C78.2229 37.409 77.778 40.477 76.5057 43.2657C75.2567 46.026 73.2271 48.4009 70.6438 50.1253C68.0682 51.8398 65.0581 52.866 61.926 53.0975C58.3538 53.3464 54.8827 52.3673 51.3723 51.924C49.5995 51.6606 47.795 51.6559 46.0207 51.91C44.4525 52.1703 42.8439 52.8385 42.0385 54.223C41.8551 54.5361 41.7272 54.8759 41.6598 55.2287C41.6133 55.4935 42.0392 55.6074 42.089 55.3402Z" fill="#3F3D56"/>
<path d="M76.5607 35.1513C86.7446 35.1513 95.0003 27.2824 95.0003 17.5756C95.0003 7.86888 86.7446 0 76.5607 0C66.3768 0 58.1211 7.86888 58.1211 17.5756C58.1211 27.2824 66.3768 35.1513 76.5607 35.1513Z" fill="#E53935"/>
<path d="M69.6266 18.5589C72.2336 18.5589 74.347 16.5446 74.347 14.0597C74.347 11.5749 72.2336 9.56055 69.6266 9.56055C67.0196 9.56055 64.9062 11.5749 64.9062 14.0597C64.9062 16.5446 67.0196 18.5589 69.6266 18.5589Z" fill="white"/>
<path d="M71.1074 23.0586C71.1455 23.742 71.4569 24.3856 71.9777 24.8568C72.4984 25.328 73.1888 25.5911 73.9068 25.5919H81.5774C82.2954 25.5911 82.9857 25.328 83.5063 24.8567C84.0269 24.3855 84.3382 23.742 84.3761 23.0586H71.1074Z" fill="white"/>
<path d="M67.8573 17.9269C69.2423 17.9269 70.365 16.8568 70.365 15.5367C70.365 14.2166 69.2423 13.1465 67.8573 13.1465C66.4723 13.1465 65.3496 14.2166 65.3496 15.5367C65.3496 16.8568 66.4723 17.9269 67.8573 17.9269Z" fill="#3F3D56"/>
<path d="M68.7424 15.115C69.0683 15.115 69.3324 14.8632 69.3324 14.5526C69.3324 14.242 69.0683 13.9902 68.7424 13.9902C68.4165 13.9902 68.1523 14.242 68.1523 14.5526C68.1523 14.8632 68.4165 15.115 68.7424 15.115Z" fill="white"/>
<path d="M84.9687 18.6293C87.5756 18.6293 89.689 16.6149 89.689 14.1301C89.689 11.6452 87.5756 9.63086 84.9687 9.63086C82.3617 9.63086 80.2483 11.6452 80.2483 14.1301C80.2483 16.6149 82.3617 18.6293 84.9687 18.6293Z" fill="white"/>
<path d="M83.1991 17.9269C84.5841 17.9269 85.7068 16.8568 85.7068 15.5367C85.7068 14.2166 84.5841 13.1465 83.1991 13.1465C81.8141 13.1465 80.6914 14.2166 80.6914 15.5367C80.6914 16.8568 81.8141 17.9269 83.1991 17.9269Z" fill="#3F3D56"/>
<path d="M84.0842 15.115C84.4101 15.115 84.6742 14.8632 84.6742 14.5526C84.6742 14.242 84.4101 13.9902 84.0842 13.9902C83.7583 13.9902 83.4941 14.242 83.4941 14.5526C83.4941 14.8632 83.7583 15.115 84.0842 15.115Z" fill="white"/>
<path d="M76.8561 20.8099C77.8337 20.8099 78.6262 20.0546 78.6262 19.1227C78.6262 18.1909 77.8337 17.4355 76.8561 17.4355C75.8785 17.4355 75.0859 18.1909 75.0859 19.1227C75.0859 20.0546 75.8785 20.8099 76.8561 20.8099Z" fill="#3F3D56"/>
<path d="M79.5106 34.166H76.2654V36.5562H79.5106V34.166Z" fill="#E53935"/>
<path d="M32.9336 81.145C32.9336 81.145 35.016 86.9577 34.1237 89.0844L36.8008 91.3524L38.4367 89.3675C38.4367 89.3675 36.6519 87.6664 36.8008 86.3908C36.9496 85.1153 37.0985 80.5781 37.0985 80.5781L32.9336 81.145Z" fill="#FFB9B9"/>
<path d="M42.8988 92.4855L42.5546 92.6755H33.3212C33.2356 92.6288 33.167 92.5584 33.1242 92.4737C33.0815 92.389 33.0668 92.2939 33.082 92.2011C33.1252 91.9908 33.2355 91.5627 33.3717 91.0706C33.6953 89.9065 34.1691 88.3815 34.2734 88.5442C34.4176 88.7976 34.7146 89.9312 35.4594 89.7906C36.2043 89.65 37.3937 89.3644 37.3937 89.3644C37.3937 89.3644 36.9691 88.4549 37.3751 88.0876C37.4624 88.0101 37.573 87.9607 37.6914 87.9464C38.5838 87.8058 38.5838 89.0806 38.5838 89.0806L41.8556 90.7818C42.1377 90.8562 42.413 90.9521 42.6789 91.0687C43.346 91.3676 44.0025 91.8737 42.8988 92.4855Z" fill="#2F2E41"/>
<path d="M26.9846 79.0186L23.1174 83.4132L22.0762 85.6819L23.4151 86.6743L24.6051 86.2487C24.6051 86.2487 25.6463 83.697 26.6876 83.272C27.7288 82.8471 30.2577 80.011 30.2577 80.011L26.9846 79.0186Z" fill="#FFB9B9"/>
<path d="M35.0912 75.6461L33.119 79.1294L31.7057 81.6248C31.1732 81.8674 30.5626 81.9035 30.0027 81.7255C29.7005 81.6518 29.4043 81.5576 29.1163 81.4436C27.8446 80.8965 26.6474 80.2043 25.5508 79.3821L28.9482 75.3358L30.0578 74.0159L30.3236 73.6992L31.5921 74.2167L33.8307 75.128L35.0912 75.6461Z" fill="#2F2E41"/>
<path d="M26.2883 45.5547L24.7129 51.7145L26.3349 59.6172C26.3349 59.6172 26.3747 62.8472 27.8631 62.6027C29.3515 62.3583 27.792 59.0998 27.792 59.0998L27.0651 52.6201L29.3907 46.2184C29.4777 45.9562 29.4655 45.6732 29.3563 45.4186C29.247 45.164 29.0476 44.954 28.7927 44.8251C28.5831 44.6967 28.3466 44.6133 28.0997 44.5808C27.8529 44.5483 27.6015 44.5675 27.3632 44.6369C27.1249 44.7063 26.9053 44.8244 26.7197 44.9829C26.534 45.1414 26.3868 45.3365 26.2883 45.5547Z" fill="#FFB9B9"/>
<path d="M31.8166 40.2462L30.4778 44.216L27.9495 42.9398C28.3589 41.8718 28.7065 40.7831 28.9907 39.6788C28.9927 39.2519 31.8166 40.2462 31.8166 40.2462Z" fill="#FFB9B9"/>
<path d="M30.778 41.8032C32.5031 41.8032 33.9016 40.4703 33.9016 38.8259C33.9016 37.1816 32.5031 35.8486 30.778 35.8486C29.0528 35.8486 27.6543 37.1816 27.6543 38.8259C27.6543 40.4703 29.0528 41.8032 30.778 41.8032Z" fill="#FFB9B9"/>
<path d="M31.5965 45.135L30.9985 44.565L30.8497 43.8563C30.8497 43.8563 28.9161 41.4465 27.2802 42.297C26.7108 42.686 26.297 43.2479 26.1067 43.8905C25.3894 45.7613 25.4563 47.8237 26.2934 49.6488L28.9161 55.4818L34.8657 54.9118L33.8245 51.2308C33.8245 51.2308 34.8657 48.9623 32.9321 47.403L31.5965 45.135Z" fill="#E53935"/>
<path opacity="0.3" d="M35.0917 75.6464L33.1196 79.1297L31.7063 81.625C31.1737 81.8676 30.5632 81.9037 30.0032 81.7257C29.8903 81.0082 30.5654 77.2177 30.0345 74.1257L30.0584 74.0149L30.3242 73.6982L31.5926 74.2156L33.8312 75.127L35.0917 75.6464Z" fill="black"/>
<path d="M35.0927 54.5626C35.0927 54.5626 31.2255 52.294 28.5483 55.1326L28.6972 55.9831C28.6972 55.9831 26.4659 58.393 27.8048 63.497C29.1437 68.601 31.2261 81.927 31.2261 81.927C31.2261 81.927 36.1345 82.2107 38.3658 80.6508C38.3658 80.6508 37.6223 63.0708 35.0933 61.3703L35.0927 54.5626Z" fill="#2F2E41"/>
<path d="M27.0281 46.667L31.2248 51.5861L38.811 55.1328C38.811 55.1328 41.5353 57.0549 42.2284 55.7781C42.9214 54.5013 39.2569 53.7154 39.2569 53.7154L33.399 50.3473L29.4527 44.7106C29.2865 44.4863 29.0432 44.3244 28.7649 44.2532C28.4866 44.1819 28.1909 44.2057 27.9291 44.3205C27.6947 44.4023 27.4819 44.5318 27.3054 44.7C27.1289 44.8682 26.9931 45.0711 26.9073 45.2945C26.8215 45.5179 26.7879 45.7564 26.8087 45.9934C26.8296 46.2305 26.9044 46.4604 27.0281 46.667Z" fill="#F18E8E"/>
<path d="M24.2455 85.9374C24.2455 85.9374 25.1572 84.8443 25.702 85.5334C26.2469 86.2224 25.0595 86.8121 25.0595 86.8121L24.993 90.3644C24.993 90.3644 25.6409 93.0808 23.892 92.0314C22.1432 90.9819 22.0747 90.8565 21.7305 90.2276C21.3863 89.5987 20.676 87.0743 20.0627 86.2598C19.4494 85.4453 18.8873 83.8063 19.6155 83.6036C20.3438 83.4009 23.7352 82.6815 23.5691 82.9215C23.403 83.1615 22.4827 83.9349 22.9585 84.5004C23.4342 85.066 24.2455 85.9374 24.2455 85.9374Z" fill="#2F2E41"/>
<path d="M32.4145 36.2845C32.4145 36.2807 32.4145 36.2775 32.4145 36.2737C32.4145 35.4605 32.1615 34.6656 31.6875 33.9894C31.2135 33.3133 30.5398 32.7863 29.7516 32.4751C28.9634 32.1639 28.096 32.0825 27.2592 32.2411C26.4225 32.3998 25.6538 32.7914 25.0506 33.3664C24.4473 33.9414 24.0364 34.674 23.87 35.4716C23.7036 36.2692 23.789 37.0959 24.1155 37.8472C24.442 38.5985 24.9949 39.2406 25.7042 39.6924C26.4136 40.1442 27.2476 40.3853 28.1008 40.3853C28.2012 40.3853 28.5972 41.1004 28.6988 41.094C28.7022 38.9236 30.1746 36.4302 32.4145 36.2845Z" fill="#2F2E41"/>
<path d="M23.49 35.8481C25.0508 35.8481 26.316 34.6421 26.316 33.1545C26.316 31.6669 25.0508 30.4609 23.49 30.4609C21.9293 30.4609 20.6641 31.6669 20.6641 33.1545C20.6641 34.6421 21.9293 35.8481 23.49 35.8481Z" fill="#2F2E41"/>
<path d="M23.36 29.0748C24.0423 29.069 24.7037 29.299 25.2217 29.7222C25.7397 30.1454 26.0793 30.7332 26.1777 31.3767C26.276 32.0203 26.1264 32.676 25.7566 33.2224C25.3867 33.7689 24.8217 34.1692 24.166 34.3492C24.5709 34.3485 24.9709 34.2649 25.339 34.104C25.707 33.943 26.0344 33.7086 26.299 33.4164C26.5636 33.1243 26.7592 32.7814 26.8725 32.4109C26.9858 32.0404 27.0142 31.651 26.9558 31.2691C26.8974 30.8872 26.7535 30.5217 26.5339 30.1975C26.3142 29.8733 26.024 29.5979 25.6829 29.3899C25.3418 29.182 24.9578 29.0464 24.5569 28.9924C24.156 28.9383 23.7476 28.967 23.3594 29.0766L23.36 29.0748Z" fill="#2F2E41"/>
<path d="M30.0332 35.4238H32.297C32.5466 35.4238 32.7937 35.4707 33.0243 35.5617C33.2548 35.6527 33.4643 35.7862 33.6408 35.9544C33.8173 36.1226 33.9572 36.3222 34.0527 36.542C34.1482 36.7618 34.1974 36.9973 34.1974 37.2352V37.9755H30.0332V35.4238Z" fill="#2F2E41"/>
</svg>
