<svg xmlns="http://www.w3.org/2000/svg" width="18" height="18" viewBox="0 0 18 18" fill="none">
  <path d="M12.75 14.7102H1.875C0.8415 14.7102 0 13.8849 0 12.8714V1.83877C0 0.825241 0.8415 0 1.875 0H7.875C8.0355 0 8.178 0.100029 8.22975 0.248602L13.1047 14.2233C13.1437 14.3351 13.125 14.4594 13.0553 14.5557C12.9847 14.6528 12.8715 14.7102 12.75 14.7102ZM1.875 0.735509C1.25475 0.735509 0.75 1.23051 0.75 1.83877V12.8714C0.75 13.4797 1.25475 13.9747 1.875 13.9747H12.225L7.60725 0.735509H1.875Z" fill="black"/>
  <path d="M16.125 17.6523H10.125C9.969 17.6523 9.82875 17.5574 9.774 17.414L8.649 14.472C8.57625 14.2815 8.6745 14.0697 8.868 13.9983C9.06225 13.9277 9.27825 14.0233 9.351 14.2131L10.3853 16.9168H16.125C16.7452 16.9168 17.25 16.4218 17.25 15.8135V4.78091C17.25 4.17265 16.7452 3.67765 16.125 3.67765H9C8.793 3.67765 8.625 3.51289 8.625 3.30989C8.625 3.10689 8.793 2.94214 9 2.94214H16.125C17.1585 2.94214 18 3.76738 18 4.78091V15.8135C18 16.8271 17.1585 17.6523 16.125 17.6523Z" fill="black"/>
  <path d="M10.1249 17.653C10.0371 17.653 9.9494 17.6229 9.87815 17.5618C9.72215 17.428 9.7064 17.1956 9.8429 17.0426L12.4679 14.1005C12.6044 13.9468 12.8414 13.9321 12.9974 14.066C13.1534 14.1998 13.1691 14.4322 13.0326 14.5852L10.4076 17.5273C10.3326 17.6104 10.2291 17.653 10.1249 17.653Z" fill="black"/>
  <path d="M7.12521 10.2974C6.97071 10.2974 6.82671 10.204 6.77196 10.0532L5.25021 5.87481L3.72846 10.0532C3.65871 10.2445 3.44345 10.3445 3.2492 10.2761C3.0542 10.2077 2.95221 9.99733 3.02196 9.8061L4.89696 4.65754C5.00345 4.36481 5.49695 4.36481 5.60271 4.65754L7.47771 9.8061C7.54746 9.99733 7.44621 10.2077 7.25045 10.2761C7.20996 10.2908 7.16721 10.2974 7.12521 10.2974Z" fill="black"/>
  <path d="M6 8.08953H4.5C4.293 8.08953 4.125 7.92499 4.125 7.72225C4.125 7.51952 4.293 7.35498 4.5 7.35498H6C6.207 7.35498 6.375 7.51952 6.375 7.72225C6.375 7.92499 6.207 8.08953 6 8.08953Z" fill="black"/>
  <path d="M16.125 8.08953H10.875C10.668 8.08953 10.5 7.92499 10.5 7.72225C10.5 7.51952 10.668 7.35498 10.875 7.35498H16.125C16.332 7.35498 16.5 7.51952 16.5 7.72225C16.5 7.92499 16.332 8.08953 16.125 8.08953Z" fill="black"/>
  <path d="M13.125 8.09065C12.918 8.09065 12.75 7.92589 12.75 7.72289V6.98738C12.75 6.78438 12.918 6.61963 13.125 6.61963C13.332 6.61963 13.5 6.78438 13.5 6.98738V7.72289C13.5 7.92589 13.332 8.09065 13.125 8.09065Z" fill="black"/>
  <path d="M11.9998 12.5028C11.8821 12.5028 11.7666 12.4491 11.6938 12.3484C11.5738 12.1829 11.6136 11.9534 11.7823 11.8357C13.4241 10.692 14.6248 8.35895 14.6248 7.72274C14.6248 7.51973 14.7928 7.35498 14.9998 7.35498C15.2068 7.35498 15.3748 7.51973 15.3748 7.72274C15.3748 8.69214 13.9296 11.2421 12.2173 12.4359C12.1513 12.4807 12.0756 12.5028 11.9998 12.5028Z" fill="black"/>
  <path d="M14.9999 13.2388C14.9091 13.2388 14.8184 13.2072 14.7471 13.1425C14.4749 12.8983 12.0786 10.7278 11.6526 9.69954C11.5746 9.51125 11.6676 9.29721 11.8589 9.22072C12.0486 9.14496 12.2691 9.2347 12.3471 9.42299C12.6539 10.1636 14.5491 11.9671 15.2534 12.5997C15.4064 12.7372 15.4161 12.9689 15.2766 13.1197C15.2024 13.1984 15.1011 13.2388 14.9999 13.2388Z" fill="black"/>
</svg>